<svg width="137" height="36" viewBox="0 0 137 36" fill="none" xmlns="http://www.w3.org/2000/svg">
    <path d="M56.63 18.613v-.233l-.206-.232v-.793l-.492-.316-.072-.138a9.725 9.725 0 0 0-1.099-1.33l-.072-.434-.657-.528h-.339l-.534-.507-.8-.644h-.216s-.093 0-.329-.19l-.257-.117a2.657 2.657 0 0 0-1.088-.686 1.602 1.602 0 0 0-.893-.307l-.216-.084h-.175l-.205-.148-.493-.771-.842.127-1.242-.37h-.442l-.133-.317-.565.127-.421.095a1.104 1.104 0 0 0-.452-.116 4.342 4.342 0 0 0-1.284.21 2.267 2.267 0 0 0-1.468.75l-.328.307.246 1.289c.257 1.246.873 1.51 1.376 1.51l.832-.073v.18l.205.717v.909l.103 1.341-.411.951.246.412v.697l-.082.38.062 1.12a2.432 2.432 0 0 0-.062.264c-.29.141-.555.334-.78.57l-.657.687.4 1.342.822.644h.523l-.113 1.141h1.027l.657.645 1.181-1.574.236-.592.596.148.329-.38.133.053.452-.138c.43.034.86-.03 1.263-.19a3.28 3.28 0 0 0 1.088-.18h.226l.144-.063h.452l.154-.106h.072c.416.012.822-.126 1.15-.39h.688l.143-.254.452-.285.832-.275.185-.285.554-.275.226-.57.483-.75.102-.486.114-.317.05-.39a1.623 1.623 0 0 0-.38-.782zm-4.416 1.637a1.389 1.389 0 0 0-1.088.306l-.195.053h-.277l-.267.085h-.35l-.636.052-.175.064h-.072c-.169.117-.356.202-.554.253a2.388 2.388 0 0 0-1.417 0h-.092v-.538l-.062-.117.205-.306-.195-.729.329-1.056-.216-.222c.01-.095.01-.19 0-.285v-.476l.34-.148-.237-1.204v-.327a1.841 1.841 0 0 0-.072-.465l.123-.158c.228.163.504.238.78.21l.196.138h.277c.285.256.649.401 1.027.412l1.273.782.246.507.668.222v.211l.205.169c.173.141.359.265.555.37l.328.908h.34l.38.528-.083.064h-.082l-.339.285-.565-.159-.297.57zM74.25 24.264l-.174-.454-.462-.264-.4-.507-.545-.962v-.21l-.585-.941v-.39l-.134-.286h.257l.267-.106.606.095.564-.465.278.106.298-.169a1.46 1.46 0 0 0 .533-.554c.126-.23.19-.491.185-.756a1.997 1.997 0 0 0-.072-.496l-.123-.592-1.027-.074a1.522 1.522 0 0 0-1.704-.063h-.78v-.993l.05-.106-.595-.824-.226-1.14-.37-.698-.092-.422a2.6 2.6 0 0 0-.451-1.226l-.114-.2-.082-.887-.873-.529-.913-1.056-.832.803a2.784 2.784 0 0 0-1.109 1.056l-.246.338.102.36v.137l-.185.264h-.585v.76l-.472 1.057h-.154l-.113.232-.555.18v.612a.606.606 0 0 1-.246.497l-.164.211a2.154 2.154 0 0 0-.144.433l-.709.433-.051.55a1.92 1.92 0 0 0-.277.37L60.5 17.26v1.057l-.554.517.092.476c.036.172.084.342.144.507l-.206.348-.513.201-.103.423a.87.87 0 0 1-.14.362.84.84 0 0 1-.28.26l-.288.17-.103.137-.452.159-.061.496-1.16.19-.073.93-.113.169v.486l-.441 1.056.421.391c.342.357.806.562 1.294.57a2.79 2.79 0 0 0 .523-.074l1.233-.739.339-.591.852-1.152c.215-.116.482-.38 1.191-1.532l.328-.095.144-.211c.103-.137.236-.327.4-.581l.298.338.873-.454c.163.034.328.055.493.063l.503.222.473-.306.575.084.523-.306h.226l.257.655.585-.423.093.117.719-.476.082.687.267.37.441 1.13.267.359.051.444.144.137v.158l.514.624.38.76.236.137.38.719h.544l.298.264h.338l.976.528.288-.106c.343-.11.642-.33.855-.63.212-.298.327-.658.325-1.028v-.465l-.729-.528zm-6.294-6.771-.965.158a6.73 6.73 0 0 0-.77 0h-.473a1.692 1.692 0 0 0-.482-.148c.202-.327.358-.683.462-1.056l.718-.401.165-.93.38-.444.072-.105v.475h.37l.317.687.206 1.764zM99.007 11.64l-.678-.791a1.54 1.54 0 0 0-.508-.419 1.496 1.496 0 0 0-.632-.162 1.448 1.448 0 0 0-.742.223c-.224.142-.407.341-.53.58l-.134.433-.38.612v.391c.003.276.044.55.123.813a.293.293 0 0 0 0 .106l-.472 1.056.164.254-.257.602-.339.401-.318.719-.39.591-.431.824-.596.687-.35.591c-.14.073-.269.17-.379.286l-.195.232v.127l-.298.38-.113.37-.123-.317-.205-.296-.329-.803a6.871 6.871 0 0 0-.493-1.711l-.061-.253-.093-.19v-.265l-.575-1.648V13.87l-.113-1.057-.616-.306-.524-.602h-1.263l-.174.275-.226.21-.452.37-.246.201-.124.845-.256.36h-.144l-.164.38h-.34l-.225.845-.277.222-.103.412c0 .21-.123.243-.185.264l-.37.127-.123.475-.185.169a.764.764 0 0 0-.25.283.79.79 0 0 0-.088.372 1.2 1.2 0 0 1 0 .2l-.35.148-.236.687-.595.634-.052.306-.236.17-.144.348a.476.476 0 0 0-.205.18l-.133.179-.134.095v-.222l-.205-.518v-.876l-.319-.138-.102-.475-.103-.264-.298-1.585-.215-.507-.247-1.954v-.148l.247-.803-.185-.264a2.748 2.748 0 0 0-.852-1.87l-.216-.137a2.377 2.377 0 0 0-.822-.19c-.328 0-1.13.138-1.406 1.363l-.473 1.415.38.518.062.581v.497l.216.855v.106l.646 2.112v.233l.288 1.204.226.518.051.422.462 1.056.267 1.057.668 1.268.195.464.677 1.057.103.116c.146.159.32.286.514.375.194.09.403.137.616.142.34.02.676-.09.942-.311.266-.22.442-.535.495-.882l.73-.085-.299-.58.278-.624.144-.159.102-.242h.503v-.666c.068-.185.097-.383.083-.58v-.16l.05-.094 1.284-1.701c.212-.222.368-.494.452-.792v-.106l.134-.148h.092l.277-.37c.137-.078.257-.185.35-.315.094-.129.16-.277.195-.435l.164.349.216 1.289.215.18v.126l.421.813c.047.06.076.134.082.212l.072.253c.15.313.284.634.4.961l.298.782.308.328v.401l.596 1.12.483 1.31.944.454h.237c.24.009.48-.042.698-.148.29-.08.557-.236.773-.452.216-.216.374-.486.459-.784l.062-.19-.144-.782.051-.211v-.37l.123-.158.226-.602.524-.75.082-.18.205-.19.319-.771.123-.063.082-.159.39-.148.421-1.056.4-.507.278-.676 1.027-1.5v-.117l.39-.971c.544-1.31.544-1.31.544-1.51a.812.812 0 0 1 0-.202 2.03 2.03 0 0 0 .257-.971 2.004 2.004 0 0 0 0-.37l.154-.92zM120.375 14.926h-2.392a1.33 1.33 0 0 0-1.027 0h-1.088l-.493.137v-.707l.195-.518-.154-.58v-.223l-.103-.422v-2.525l-.339.085v-.391l-1.181.317-1.519-.423-.329 1.13a1.13 1.13 0 0 0-.323.37 1.179 1.179 0 0 0-.139.476c-.02.065-.044.128-.072.19l-.185.433.237.359.359 1.056-.123.264.164 1.057-.092.232-2.003.264h-.626l-.565-.348-.554.338h-1.551l-.226-.095-.698.095h-.123l-.216-.518c.082-.442.123-.891.123-1.342a7.26 7.26 0 0 0 0-.834c0-.19.093-.36.144-.539l.123-.37-.308-.517-.113-.877-.79-.306-.719-.613-1.612 1.004-.38 1.478v.73l.051.369-.647-.37.503 1.849c.059.242.09.49.093.74.012.175.012.352 0 .527l-.739.486.112 2.208.483.306.113 2.25v.36a2.098 2.098 0 0 0-.164.813l.164.592.277.443c.072 2.113 1.027 2.462 1.664 2.462a1.297 1.297 0 0 0 1.232-.885c.06-.174.085-.358.072-.542v-.116l.144-.306-.257-.666.092-.633-.144-.349.134-1.056-.103-.264.103-.286-.082-.602.061-.591v-.317l1.027.444.093-.455.441-.105.442.359.801-.402h.123c.188-.075.385-.125.585-.148h.483l1.201.148.976-.338c.273.03.548.03.821 0a3.864 3.864 0 0 0-.082.687v.486l-.072.634v.855l-.072 1.057v.655l-.113.095.247.993v.803l.195.77.144.286.092 1.162h.708a1.62 1.62 0 0 0 .654-.07 1.662 1.662 0 0 0 .986-.854 1.75 1.75 0 0 0 .178-.65c.054-.151.095-.307.123-.465v-.75l-.123-.264a3.446 3.446 0 0 0 0-.38l.216-1.595v-.57l.246-.223-.082-.464c0-.117 0-.243-.082-.412a3.6 3.6 0 0 0 .031-.898V18.835l.071-.338.452-.317h.062l.565.38.564-.539h.391l.236-.232h.411l1.704-1.247-.318-.443 1.211-1.173zM136.353 15.38l-.41-.623-.74-1.384-.38-.18-.256-.76-1.808-.898-.636-.063-.185-.243h-.318l-.771-1.056-.359.77h-1.951l-.832-.115-.698.116a5.018 5.018 0 0 0-1.386.327h-.093l-.164.17a3.15 3.15 0 0 0-.616.38l-.76.18v.717l-.082.095-.123.19-.226.127-1.088 1.817-.35.845-.677.55.205.528v.222l-.103.222v.147l-.318.433-.072 1.437-.298 1.056v1.585l.144.19v.412l.39 1.257.719.37.134.158v.792h1.119l.226.117.873.19.113.137 1.026.148h.442l1.232-.253h1.089l.215-.19.349.21.668-.612c.121-.03.239-.076.349-.137l.308.116 1.325-.803.523-.211.103-.074.513.095.853-1.056.369-.243 1.263-1.057.123-.063c.295-.169.547-.407.734-.695a2.22 2.22 0 0 0 .345-.964l.246-.253.103-1.056.185-.433.061-.613a7.376 7.376 0 0 0-.647-2.07zm-2.711 3.053-.934 1.056-.072.064-.174-.074-.349.38-.483-.348-.493 1.31a1.393 1.393 0 0 0-.339.274h-.79l-.309.264h-.225l-.565.328a2.473 2.473 0 0 0-.894.37c-.125.03-.245.076-.359.137l-.565-.106-.698.159-.246-.286-1.253.37a2.036 2.036 0 0 1-.596-.253v-.317l-.287-.36v-.221l.051-.222a.697.697 0 0 1 .082-.37c.288-.561.45-1.182.473-1.817l.236-.158.205-.75.493-.243v-.676c.082-.114.154-.234.216-.36l.667-.327.144-.76c.215-.17.421-.317.606-.476h.328l.308-.169h.237l.184-.074c.309-.119.594-.294.842-.517.102-.012.202-.037.298-.074h.123l.319.127.256-.159.247.053a.805.805 0 0 0 .287 0c.56.082 1.092.303 1.551.644l.318.528.144-.084.329.348.102.529.226.105.113.328.308.232.072.222-.062.116.113.76-.185.402v.095zM3.46 31.025c.093 0 .154.137.237.18-.083 0-.144-.138-.237-.18zM35.282 15.306v-.084c0-.106 0-.211.082-.317.082-.106 0-.444-.082-.666v-.243h-.062v-.475h-.072c0-.137-.05-.264-.061-.39 0-.286-.072-.56-.113-.835v-.085l-.072-.084a.936.936 0 0 1 0-.17 3.031 3.031 0 0 1-.082-.327c-.144-.296-.277-.591-.421-.898l-.072-.084v-.085a.205.205 0 0 1 0-.074h-.062l-.113-.221-.082-.159-.072-.18c-.205-.327-.43-.644-.616-.982a1.151 1.151 0 0 0-.359-.412 2.126 2.126 0 0 0-.257-.454c-.328-.36-.523-.803-.831-1.173l-.873-.76-.36-.55h-.072a.24.24 0 0 0 0-.084c-.164-.116-.277-.338-.523-.327 0 0-.093 0-.134-.095l-.74-.803-.153-.17v-.084l-.555-.18-.092-.073a.24.24 0 0 0 0-.085l-.092-.074-.083-.074-.082-.084-.154-.085-.092-.074h-.555a.9.9 0 0 1-.554-.348s-.072 0-.103-.064l-.092-.074v-.116l-.093-.063-.39-.095a.788.788 0 0 0-.524-.2.65.65 0 0 1-.195 0c-.424-.218-.86-.412-1.304-.582a3.95 3.95 0 0 1-.462-.253.916.916 0 0 1-.195-.243 1.62 1.62 0 0 1-.74-.328l-.307-.105a3.324 3.324 0 0 1-.647 0c-.267 0-.544.052-.801-.096a3.918 3.918 0 0 0-1.027-.348.209.209 0 0 1 0-.074h-.164a1.66 1.66 0 0 0-1.15 0h-.062l-.42-.085-.237-.074-.175-.084h-.688L16.316 0H15.29l-.493.074a.152.152 0 0 0 0 .074h-.308a.07.07 0 0 1-.062 0l-.092.084h-.35l-.071.064a.839.839 0 0 1 0 .158c-.024.059-.051.115-.082.17a.227.227 0 0 1 .092.254h-.175a.162.162 0 0 0 0 .073h-.154l-.339.084-.482.17c0 .348-.329.411-.596.475h-.051v.074l-.4.095-.257.074-.237.095-.164.084-.092.064-.236.095-.154.095-.247.074-.102.063-.154.095-.103.127h-.236l-.175.148h-.144a.152.152 0 0 0 0 .063c-.236 0-.37.17-.544.275l-.103.063-.154.106-.092.063a.141.141 0 0 0 0 .063h-.134l-.092.074-.154.095-.103.064-.143.095-.165.095H7.64l-.237.254-.082.084H7.23c-.082.085-.164.158-.236.243l-.082.074h-.083l-.061.095v.148h-.072l-.154.169-.072.084-.092.085-.083.074-.082.084-.071.085-.165.169-.102.137-.083.085-.082.084-.082.085-.072.084c-.082.106-.164.222-.257.328l-.071.084a.554.554 0 0 1 0 .138h-.072l-.072.095L5 6.76l-.072.084-.082.085-.082.084a.75.75 0 0 0-.103.148l-.093.148-.215.116c-.032.05-.059.104-.082.159l-.093.158a.518.518 0 0 1-.236.422l-.164.243-.103.148-.062.095a2.398 2.398 0 0 1-.513.391l-.39.518-.154.496-.082.085a2.867 2.867 0 0 0 0 .296 3.598 3.598 0 0 0-.237.317l-.236.454a1.04 1.04 0 0 1-.082.116.826.826 0 0 0-.072.169c-.033.079-.06.16-.082.243v.084c0 .085 0 .159-.082.243v.085l-.082.084v.085l-.082.074c0 .084.072.19 0 .232-.195.264-.052.518 0 .771a.206.206 0 0 1 0 .074.076.076 0 0 1 0 .064c-.216.053-.278-.148-.4-.243.01-.365.09-.724.235-1.057v-.063h-.154c0 .2 0 .401-.246.486-.051 0-.062.148-.082.232a.518.518 0 0 1 0 .507.184.184 0 0 1 0 .074l-.072.17a.163.163 0 0 1 0 .073v.317H.729v.317l-.072.085v.485a.193.193 0 0 1 0 .254v.074c0 .074 0 .19-.154.095a1.76 1.76 0 0 1 0 .232.239.239 0 0 1 0 .085c.02.055.044.108.072.158H.503a2.01 2.01 0 0 0 0 .243l-.072.17-.082.073v.402c0 .084 0 .169.072.253l.062.402-.072.084-.154-.074-.093-.243c0 .138 0 .275-.082.402a.24.24 0 0 1 0 .084.65.65 0 0 1-.082.581.24.24 0 0 1 0 .085c.123.116.216.232.092.401-.123.17-.05.285-.082.423v.148h.082l.124.454c0 .127.072.253.113.38.04.127 0 .232 0 .306V21.296H.41v.169h.082v.158l.092.17h.072v.084H.585a.239.239 0 0 0 0 .084l-.072.074c-.022.086-.05.17-.082.254a.185.185 0 0 0 0 .074l.154.169.093.243H.76l.072.084v.159l.072.095v.232a.283.283 0 0 0 .072.085v.084H.842a2.196 2.196 0 0 0-.175-.348s-.102 0-.164-.053l.082.253a.823.823 0 0 0 .072.17v.073c.033.027.06.059.082.095 0 .106-.051.212-.082.317l.082.085h.226v.158l.072.085v.412c0 .137.164.38.236.57l.082.085v.073l.083.085c0 .106 0 .222-.072.327h.082l.072-.158h.082l.246.401a.371.371 0 0 1 .202.158.39.39 0 0 1 .055.254l-.092.254v.317h.071l.083.158h-.093c.034.053.061.11.082.17 0-.064.062-.117.082-.17h.237l.102.296c0 .095-.082.137-.184.085l-.155-.064c0 .116.062.222.083.328l.082.084.246.243c.03.025.058.054.082.084l.083.085.082.074a.48.48 0 0 1 .072.074l.102.095h.031v.053l.134.105v.085l.071.074H3.4v.127h.061c.093.105.185.2.267.306v.169c0 .137.052.275.083.412h.082l.164.084.164.085h.082l.165.317.092.243.318.095.504.39.092.075a15.92 15.92 0 0 0 2.054 1.5v.105l.688.465c.032.059.08.106.139.136a.32.32 0 0 0 .19.033l.256.159.236.084.082.085.247.169-.082.074.246.169.246-.254v.085c.03.025.058.053.083.084v.211l.246.085.329-.17v.254h.082v.074l.164.085.329.084h.154l.246-.253h.175l.082.074-.185.127-.144.116.247.084.164.085h.082l.329.084c.048.017.09.05.118.094.028.044.04.097.036.15l.164-.075.41.074h.083c.317.035.623.143.893.317h.647v.074h.236a.14.14 0 0 0 0-.063l.072.063a.63.63 0 0 1 .082.085h.74c0-.138 0-.275.082-.412l.164.242v.17l.082.074a.18.18 0 0 1 .14-.01c.047.016.085.05.107.094h.739c.154-.158 0-.222-.123-.264a.606.606 0 0 1 .313-.231.59.59 0 0 1 .385.01l.164.073a.215.215 0 0 1-.081.152.202.202 0 0 1-.165.038c-.164 0-.236.074-.247.222h.575l.185-.084-.092-.402h.8l.257-.158c.024-.055.051-.108.083-.159l.236-.18h.287c0 .064.093.117 0 .201a.803.803 0 0 0-.102.212c.277 0 .41-.233.554-.423l.339-.084.092.095-.349.19.103.222h.072l.164-.085h.154c.062-.063.123-.169.226-.063.103.105 0 .105 0 .148v.169a.23.23 0 0 1 .156.032.242.242 0 0 1 .1.126h.073a.619.619 0 0 0 .082-.084.811.811 0 0 0 .164-.085l.082-.074.165-.084.164-.085v-.074l.174-.074h.083l-.083.243v.074h.165l.164-.084.103-.085.164-.422.092-.064c.286-.03.564-.113.822-.243l.082-.084.74-.254.082-.084.318-.085a.184.184 0 0 1 0-.074h-.01a.209.209 0 0 1 .164-.084.2.2 0 0 1 .164.084.626.626 0 0 1 .082-.084l.247-.074a.312.312 0 0 1 .082-.085c.051 0 .102-.116.164-.169v-.158h-.329l-.082.074-.082.084a.638.638 0 0 0-.082.085l-.082.084-.247.074-.164.085c-.113 0-.205 0-.174-.17.03-.168 0 0 0-.073h.164l.082-.074h.093v-.085l.082-.074a.7.7 0 0 1 0-.074l.082-.074h.236l.174-.073v-.085h.083l.092-.074.164-.084a.625.625 0 0 1 .082-.085h.083a.15.15 0 0 1 0-.063h.144l.154-.095.164-.085a.619.619 0 0 0 .082-.084l.246-.085.082-.084.155-.085a.593.593 0 0 1 .462-.285c.072 0 .133-.085.195-.127.346-.154.673-.349.975-.58l.257-.318.082-.084.082-.085.082-.074a.36.36 0 0 0 .172-.125.376.376 0 0 0 .075-.202c-.267 0-.267 0-.329-.328a.162.162 0 0 1 0-.074l.226-.18.41-.654c.545-.613 1.1-1.215 1.582-1.87h.072l.072-.095c.031-.05.059-.103.082-.158l.185-.222h.061a.822.822 0 0 0 0-.159h.072a.731.731 0 0 1 0-.148h.267l.082-.169.093-.158.636-.824c.062-.158.124-.327.196-.486l.42-.813.226-.338.093-.243.082-.17.072-.158.585-1.563v-.634h.062l.246-.824c.021-.083.049-.164.082-.243l.124-.76.061-.455h.062c.085-.452.12-.913.103-1.373.17-.322.239-.692.195-1.056a3.04 3.04 0 0 1 0-.803l.01-.2zM.37 19.373c-.082.095-.124.148-.124.19 0 .043 0-.095.124-.19zm23.966-9.412c.385 0 .754.157 1.027.436a1.522 1.522 0 0 1 .004 2.114c-.135.14-.296.25-.473.325a1.422 1.422 0 0 1-1.585-.325 1.527 1.527 0 0 1-.42-1.06 1.49 1.49 0 0 1 .442-1.072 1.412 1.412 0 0 1 1.057-.417h-.052zm-5.268-8.376c0 .084.062.169.082.242.021.074 0-.158-.082-.242zm-5.247.18h.298-.298zM6.5 29.914zm.349 1.965zm.452-.19h.092-.092zm.719.803.092.053-.092-.053zm22.929-10.11c-.575 1.575-2.31 1.575-6.51 1.575h-4.293c0 2.588 0 3.063-.05 3.665v1.057a3.507 3.507 0 0 1-.464 1.608 3.389 3.389 0 0 1-1.149 1.19 3.51 3.51 0 0 1-1.869.56c-.476.002-.946-.107-1.376-.316a1.046 1.046 0 0 1-.52-.589 1.084 1.084 0 0 1 .027-.795c.118-.246.324-.436.575-.528a1 1 0 0 1 .77.032 1.39 1.39 0 0 0 1.325-.127c.183-.11.338-.263.453-.447.114-.183.184-.392.204-.61V23.98a7.608 7.608 0 0 1-4.61-2.409 9.348 9.348 0 0 1-1.715-3.02 8.65 8.65 0 0 1-2.372 3.415 8.32 8.32 0 0 1-3.656 1.866h-.215a1.008 1.008 0 0 1-.657-.223 1.06 1.06 0 0 1-.37-.601 1.081 1.081 0 0 1 .142-.778c.144-.23.37-.395.628-.458 2.393-.528 4.107-2.218 4.94-5.007.345-1.138.549-2.316.605-3.507v-.58H7.558c-.273 0-.534-.112-.727-.31a1.072 1.072 0 0 1-.3-.747c0-.28.108-.55.3-.747.193-.198.454-.31.727-.31h3.244V6.93c0-.28.109-.55.301-.747.193-.198.454-.31.726-.31.272 0 .534.112.726.31.193.198.301.466.301.747v3.707h3.276c.272 0 .533.112.726.31.192.198.3.467.3.747 0 .28-.108.548-.3.747-.193.198-.454.309-.726.309h-3.276v.76c0 1.437.308 4.596 2.136 6.603a5.63 5.63 0 0 0 3.491 1.764 20.81 20.81 0 0 1 5.042-6.898 1.501 1.501 0 0 1 1.51-.222 20.169 20.169 0 0 1 3.46 3.232c2.67 2.937 2.68 3.782 2.454 4.395z" fill="#CEB071"/>
    <path d="M24.459 16.796a21.77 21.77 0 0 0-3.769 5.08h3.748a26.41 26.41 0 0 0 4.415-.19 30.32 30.32 0 0 0-4.394-4.89z" fill="#CEB071"/>
</svg>
