<svg xmlns="http://www.w3.org/2000/svg" viewBox="0 0 64.85 64.85"><defs><style>.cls-1{fill:#e72410;}.cls-2{fill:#fff;}</style></defs><title>sinopac-logo</title><g id="喇뒨쏛_2" data-name="喇뒨쏛 2"><g id="喇뒨쏛_1-2" data-name="喇뒨쏛 1"><path class="cls-1" d="M64.85,32.43A32.43,32.43,0,1,1,32.43,0,32.42,32.42,0,0,1,64.85,32.43Z"/><rect class="cls-2" x="36.03" y="11.71" width="8.11" height="8.11"/><polygon class="cls-2" points="7.21 34.23 7.21 41.43 14.41 41.43 14.41 48.64 21.62 48.64 21.62 34.23 7.21 34.23"/><polygon class="cls-2" points="9.01 19.82 9.01 27.02 28.82 27.02 28.82 48.64 36.03 48.64 36.03 19.82 9.01 19.82"/><polygon class="cls-2" points="43.23 27.02 43.23 48.64 50.44 48.64 50.44 34.23 59.45 34.23 59.45 27.02 43.23 27.02"/></g></g></svg>