<svg width="66" height="63" viewBox="0 0 66 63" fill="none" xmlns="http://www.w3.org/2000/svg">
<path d="M12.1534 37.1573C13.2468 40.9111 15.2909 44.2288 18.1467 46.7918C20.1274 48.5701 22.4959 49.9978 25.1854 51.034C27.8749 52.0702 30.5882 52.6004 33.2483 52.6102C37.0837 52.6235 40.8223 51.5354 44.1447 49.4829C38.5416 50.7884 32.2914 50.2721 26.3566 47.9855C20.4218 45.699 15.4378 41.887 12.1519 37.1567L12.1534 37.1573Z" fill="white"/>
<path d="M27.0417 46.2154C39.5804 51.0469 52.7973 47.1247 56.5047 37.4738C60.212 27.8228 53.0282 16.0397 40.4896 11.2082C27.9509 6.37675 14.734 10.2989 11.0266 19.9499C7.31924 29.6008 14.503 41.384 27.0417 46.2154ZM23.2257 14.458C27.9574 13.3128 33.4577 13.7969 38.7152 15.8227C43.9728 17.8486 48.3801 21.1823 51.1237 25.2078C53.9408 29.3411 54.686 33.7168 53.2213 37.5298C51.7565 41.3428 48.2752 44.0898 43.4184 45.2662C38.6868 46.4114 33.1864 45.9273 27.9289 43.9015C22.6714 41.8756 18.264 38.5419 15.5204 34.5164C12.7033 30.3831 11.9581 26.0074 13.4229 22.1944C14.8876 18.3814 18.369 15.6344 23.2257 14.458Z" fill="white"/>
<path d="M28.6081 42.1344C38.6083 45.9877 48.8585 43.6172 51.4584 36.8493C54.0582 30.0815 48.0376 21.4415 38.0375 17.5882C28.0373 13.7349 17.7871 16.1053 15.1872 22.8732C12.5874 29.6411 18.608 38.2811 28.6081 42.1344Z" fill="#FF6D58"/>
<path d="M29.3238 24.4884C28.8364 25.5948 27.3342 26.1868 26.2819 25.2914C23.7696 23.1507 28.636 19.9893 29.4291 23.2871C29.5332 23.7192 29.4811 24.1317 29.3238 24.4884Z" fill="#E94C32"/>
<path d="M25.8137 30.3719C25.4753 31.1387 24.4342 31.5501 23.7042 30.9276C21.9618 29.4418 25.3379 27.2504 25.8879 29.5371C25.9601 29.837 25.9248 30.1224 25.8143 30.3704L25.8137 30.3719Z" fill="#E94C32"/>
<path d="M35.8333 24.8475C35.4948 25.6142 34.4537 26.0257 33.7237 25.4032C31.9813 23.9174 35.3575 21.726 35.9074 24.0127C35.9797 24.3126 35.9443 24.598 35.8338 24.846L35.8333 24.8475Z" fill="#E94C32"/>
<path d="M42.5237 32.8998C42.105 33.8097 40.7051 34.1573 40.059 33.246C38.6857 31.3095 42.8914 29.8989 42.6386 32.4778C42.6242 32.6294 42.5834 32.7708 42.5237 32.8998Z" fill="#E94C32"/>
<path d="M37.8412 38.3237C36.8362 38.9401 35.2373 38.3645 35.199 37.0488C35.118 34.2535 40.1608 35.6256 38.2296 37.9851C38.1156 38.1237 37.9848 38.2355 37.8412 38.3237Z" fill="#E94C32"/>
<path d="M35.4565 31.3003C34.7115 32.598 32.8441 33.3365 31.5324 32.4306C28.0025 29.9942 33.9711 25.7657 35.5698 29.2692C35.8961 29.9845 35.7998 30.701 35.4565 31.3003Z" fill="#E94C32"/>
<path d="M40.5742 29.2633C39.7069 29.24 38.8137 28.7302 38.4204 27.9519C36.9737 25.0815 40.9256 24.261 42.3222 26.3214C43.2027 27.6202 42.0348 29.3024 40.5727 29.2627L40.5742 29.2633Z" fill="#E94C32"/>
<path d="M16.8887 48.1976C19.0417 50.1304 21.6062 51.6779 24.5123 52.7976C27.4183 53.9174 30.3571 54.4906 33.2484 54.5014C39.3328 54.5245 45.1785 52.0177 49.7267 47.4431C53.7698 45.3347 56.7407 42.1324 58.2688 38.1544C60.2627 32.9639 59.5531 27.1066 56.2717 21.659C53.0352 16.2878 47.6717 11.9487 41.167 9.4422C34.6622 6.93572 27.7765 6.55487 21.7815 8.36894C15.7006 10.209 11.2535 14.0809 9.26018 19.27C7.73208 23.248 7.79373 27.6189 9.38329 31.8976C9.69714 38.3458 12.3578 44.1303 16.8887 48.1976ZM33.2547 52.6082C30.5943 52.5985 27.8805 52.0681 25.1907 51.0316C22.5008 49.9951 20.1319 48.567 18.1509 46.7883C15.2938 44.2226 13.2488 40.9054 12.1567 37.1512C15.4416 41.8821 20.4279 45.6957 26.3635 47.9829C32.2991 50.2701 38.5502 50.7865 44.1541 49.4807C40.8298 51.5331 37.0921 52.6221 33.2562 52.6088L33.2547 52.6082ZM40.4886 11.2082C53.0275 16.0398 60.2115 27.8232 56.504 37.4744C52.7966 47.1256 39.5794 51.0479 27.0404 46.2163C14.5015 41.3847 7.31753 29.6013 11.025 19.9501C14.7324 10.2989 27.9496 6.3766 40.4886 11.2082Z" fill="#3A1209"/>
<path d="M15.5204 34.5147C18.2655 38.5408 22.6713 41.8738 27.9288 43.8997C33.1862 45.9255 38.688 46.4101 43.4181 45.2644C48.2747 44.088 51.7561 41.341 53.2208 37.5281C54.6855 33.7151 53.9403 29.3395 51.1233 25.2063C48.3782 21.1803 43.9724 17.8472 38.7149 15.8214C33.4575 13.7955 27.9557 13.311 23.2256 14.4567C18.369 15.633 14.8876 18.38 13.4229 22.1929C11.9582 26.0059 12.7034 30.3815 15.5204 34.5147ZM38.0375 17.5893C48.0377 21.4427 54.0583 30.0827 51.4584 36.8507C48.8586 43.6186 38.6083 45.9891 28.608 42.1358C18.6078 38.2824 12.5872 29.6423 15.1871 22.8744C17.7869 16.1065 28.0372 13.736 38.0375 17.5893Z" fill="#3A1209"/>
</svg>
