<svg width="50" height="50" viewBox="0 0 50 50" fill="none" xmlns="http://www.w3.org/2000/svg">
<path d="M45.9033 18.9404C45.7012 18.1807 45.583 17.3989 45.4689 16.6433C45.2751 15.3536 45.0922 14.1342 44.523 13.1487C43.9443 12.1467 42.9778 11.3786 41.955 10.5666C41.3597 10.0945 40.7451 9.60584 40.198 9.05804C39.6508 8.51024 39.1628 7.89503 38.6912 7.29905C37.8801 6.27503 37.113 5.30741 36.1121 4.72658C35.1278 4.15676 33.9111 3.97371 32.6229 3.77964C31.8668 3.66541 31.0859 3.54842 30.327 3.34472C29.5998 3.14928 28.8835 2.86571 28.1906 2.59181C26.9698 2.10733 25.815 1.65039 24.6244 1.65039C23.4338 1.65039 22.279 2.1087 21.0582 2.59181C20.3653 2.86709 19.6504 3.15065 18.9218 3.34472C18.1629 3.54705 17.382 3.66541 16.6259 3.77964C15.3377 3.97371 14.1211 4.15676 13.1367 4.72658C12.1359 5.30603 11.3688 6.27365 10.5576 7.29905C10.0861 7.89365 9.598 8.50889 9.05084 9.05669C8.50367 9.60449 7.88914 10.0931 7.29523 10.5652C6.27239 11.3773 5.30593 12.1453 4.72577 13.1473C4.15661 14.1328 3.97378 15.3509 3.77856 16.6419C3.66445 17.3975 3.54757 18.1807 3.3441 18.9391C3.14888 19.6685 2.86568 20.3843 2.5921 21.078C2.10817 22.3002 1.65039 23.4563 1.65039 24.6483C1.65039 25.8402 2.10817 26.9964 2.5921 28.22C2.86706 28.9137 3.15026 29.6294 3.3441 30.3589C3.5462 31.1186 3.66445 31.9004 3.77856 32.6561C3.9724 33.9457 4.15523 35.1652 4.72439 36.1493C5.30318 37.1513 6.26968 37.9193 7.29389 38.7314C7.8878 39.2035 8.50367 39.6921 9.05084 40.2399C9.598 40.7877 10.0861 41.4029 10.5576 41.9989C11.3688 43.0229 12.1359 43.9905 13.1367 44.5714C14.1211 45.1412 15.3377 45.3243 16.6259 45.5183C17.382 45.6326 18.1629 45.7495 18.9204 45.9533C19.6491 46.1487 20.364 46.4322 21.0568 46.7061C22.2777 47.1906 23.4325 47.649 24.623 47.649C25.8136 47.649 26.9684 47.1906 28.1893 46.7075C28.8821 46.4322 29.597 46.1487 30.3256 45.9546C31.0845 45.7523 31.8654 45.6339 32.6202 45.5197C33.9084 45.3256 35.1264 45.1426 36.1094 44.5727C37.1102 43.9933 37.8773 43.0257 38.6885 42.0003C39.16 41.4057 39.6481 40.7891 40.1952 40.2413C40.7424 39.6935 41.3569 39.2049 41.9522 38.7328C42.975 37.9207 43.9415 37.1527 44.5217 36.1507C45.0908 35.1652 45.2737 33.9471 45.4675 32.6561C45.5816 31.8991 45.6985 31.1173 45.902 30.3589C46.0972 29.6294 46.3804 28.9137 46.654 28.22C47.1379 26.9978 47.5943 25.8416 47.5943 24.6497C47.5943 23.4577 47.1365 22.3016 46.6526 21.0793C46.3776 20.3856 46.0944 19.6699 45.9006 18.9404H45.9033Z" fill="#FFB271"/>
<path d="M21.5236 13.9013C21.5126 15.6425 20.476 17.3327 18.8016 17.9672C17.1436 18.5948 15.1185 18.0773 13.965 16.7298C9.60696 11.6413 19.7323 5.96788 21.4026 12.8539C21.4865 13.1994 21.525 13.5504 21.5236 13.9V13.9013Z" fill="#FF973F"/>
<path d="M36.5475 36.5093C36.7427 38.0247 36.0402 39.6172 34.6585 40.3673C33.2906 41.1092 31.4691 40.8972 30.3074 39.8622C25.919 35.9505 34.0578 29.8215 36.3207 35.6147C36.4334 35.9051 36.509 36.2065 36.5489 36.5093H36.5475Z" fill="#FF973F"/>
<path d="M26.9621 19.9146C26.9566 20.8272 26.4136 21.7122 25.5365 22.0439C24.6676 22.3728 23.6077 22.1017 23.0041 21.3956C20.722 18.731 26.0246 15.758 26.9003 19.3655C26.9443 19.5458 26.9649 19.7302 26.9635 19.9133L26.9621 19.9146Z" fill="#FF973F"/>
<path d="M25.9435 36.1228C26.0782 37.663 24.9014 39.3435 23.0716 39.2733C22.0831 39.2348 21.1276 38.6305 20.7042 37.7359C19.6346 35.4786 22.3691 32.9433 24.566 34.0912C25.4458 34.551 25.8748 35.3176 25.9449 36.1228H25.9435Z" fill="#FF973F"/>
<path d="M40.3169 29.3745C40.4076 30.426 39.7422 31.585 38.4801 31.6634C35.5436 31.8451 36.0385 27.1599 38.817 27.6967C39.7711 27.8811 40.2495 28.5996 40.3169 29.3745Z" fill="#FF973F"/>
<path d="M47.4961 18.5137C47.3174 17.8434 47.2115 17.14 47.1001 16.3968C46.8925 15.0108 46.6767 13.578 45.9508 12.3213C45.2153 11.0482 44.0784 10.1453 42.9799 9.27265C42.3956 8.80881 41.8443 8.37111 41.3645 7.89076C40.8847 7.4104 40.4475 6.85847 39.9842 6.27351C39.1126 5.17378 38.2108 4.03554 36.9391 3.29918C35.6839 2.57245 34.2528 2.35634 32.8683 2.14851C32.1246 2.03702 31.4235 1.93106 30.7539 1.75213C30.1188 1.58146 29.4781 1.3282 28.799 1.05843C27.4875 0.538156 26.1305 0 24.6251 0C23.1197 0 21.7629 0.538156 20.4513 1.05843C19.7735 1.32682 19.1315 1.58146 18.4964 1.75213C17.8268 1.93106 17.1243 2.03702 16.3819 2.14851C14.9975 2.35634 13.5664 2.57245 12.3112 3.29918C11.0382 4.03691 10.1377 5.17379 9.26466 6.27489C8.80136 6.85985 8.36417 7.4104 7.88437 7.89213C7.40457 8.37387 6.85328 8.81018 6.269 9.27402C5.17055 10.1466 4.03362 11.0496 3.29673 12.3241C2.57085 13.5807 2.35499 15.0135 2.14602 16.3995C2.03466 17.1442 1.92882 17.8461 1.7501 18.5164C1.57963 19.1523 1.32666 19.7937 1.0572 20.4736C0.537533 21.7867 0 23.1452 0 24.6523C0 26.1594 0.537533 27.5193 1.0572 28.8324C1.32666 29.5109 1.57963 30.1523 1.7501 30.7896C1.92882 31.4599 2.03466 32.1632 2.14602 32.9064C2.35361 34.2925 2.56947 35.7253 3.29536 36.9819C4.03224 38.2564 5.1678 39.158 6.26762 40.032C6.85191 40.4958 7.40182 40.9335 7.883 41.4138C8.3628 41.8942 8.79998 42.4461 9.26329 43.0311C10.1349 44.1308 11.0368 45.2691 12.3098 46.0068C13.565 46.7336 14.9961 46.9496 16.3806 47.1575C17.1243 47.269 17.8255 47.375 18.495 47.5539C19.1301 47.7246 19.7708 47.9778 20.4499 48.2476C21.7615 48.7679 23.1184 49.306 24.6238 49.306C26.1292 49.306 27.4861 48.7679 28.7976 48.2476C29.4754 47.9792 30.1174 47.7246 30.7526 47.5539C31.4221 47.375 32.1246 47.269 32.867 47.1575C34.2514 46.9496 35.6825 46.7336 36.9377 46.0068C38.2108 45.2691 39.1112 44.1322 39.9842 43.0311C40.4475 42.4461 40.8847 41.8956 41.3645 41.4138C41.8443 40.9335 42.3956 40.4958 42.9799 40.032C44.0784 39.1593 45.2153 38.2564 45.9508 36.9833C46.6767 35.7267 46.8925 34.2938 47.1001 32.9078C47.2115 32.1632 47.3174 31.4613 47.4961 30.791C47.6666 30.1551 47.9195 29.5137 48.189 28.8338C48.7086 27.5207 49.2462 26.1622 49.2462 24.6551C49.2462 23.1479 48.7086 21.7895 48.189 20.4764C47.9195 19.7978 47.6666 19.1564 47.4961 18.5192V18.5137ZM46.6547 28.2213C46.3797 28.915 46.0965 29.6307 45.9027 30.3601C45.7006 31.1199 45.5824 31.9017 45.4683 32.6573C45.2744 33.947 45.0916 35.1665 44.5224 36.152C43.9436 37.154 42.9771 37.922 41.9529 38.734C41.359 39.2061 40.7431 39.6947 40.196 40.2425C39.6488 40.7903 39.1607 41.4056 38.6892 42.0016C37.8781 43.0256 37.1109 43.9932 36.1101 44.574C35.1258 45.1438 33.9091 45.3269 32.6209 45.521C31.8648 45.6352 31.0839 45.7522 30.3264 45.9559C29.5977 46.1513 28.8829 46.4349 28.19 46.7088C26.9692 47.1933 25.8143 47.6502 24.6238 47.6502C23.4332 47.6502 22.2784 47.1919 21.0576 46.7074C20.3647 46.4321 19.6498 46.1486 18.9212 45.9545C18.1623 45.7522 17.3814 45.6338 16.6266 45.5196C15.3385 45.3255 14.1204 45.1424 13.1374 44.5726C12.1366 43.9932 11.3695 43.0256 10.5584 42.0002C10.0868 41.4056 9.59873 40.789 9.05157 40.2412C8.5044 39.6934 7.88987 39.2048 7.29459 38.7327C6.27175 37.9206 5.30528 37.1526 4.72512 36.1506C4.15596 35.1651 3.97313 33.947 3.77928 32.6573C3.66518 31.9003 3.5483 31.1185 3.34483 30.3601C3.14961 29.6307 2.86641 28.915 2.59283 28.2213C2.1089 26.9991 1.65112 25.8429 1.65112 24.6495C1.65112 23.4562 2.1089 22.3015 2.59283 21.0792C2.86778 20.3855 3.15099 19.6698 3.34483 18.9403C3.54692 18.1806 3.66518 17.3988 3.77928 16.6432C3.97313 15.3535 4.15596 14.134 4.7265 13.1486C5.30528 12.1465 6.27175 11.3785 7.29596 10.5665C7.88987 10.0944 8.5044 9.60572 9.05157 9.05792C9.59873 8.51012 10.0868 7.89491 10.5584 7.30032C11.3695 6.27629 12.1366 5.30867 13.1374 4.72784C14.1218 4.15802 15.3385 3.97498 16.6266 3.78091C17.3828 3.66667 18.1636 3.54966 18.9225 3.34595C19.6512 3.15051 20.3661 2.86698 21.059 2.59308C22.2798 2.10859 23.4346 1.65165 24.6251 1.65165C25.8157 1.65165 26.9705 2.10997 28.1913 2.59308C28.8842 2.86835 29.5991 3.15188 30.3277 3.34595C31.0866 3.54828 31.8675 3.66667 32.6237 3.78091C33.9118 3.97498 35.1299 4.15802 36.1129 4.72784C37.1137 5.3073 37.8808 6.27492 38.6919 7.30032C39.1635 7.89491 39.6515 8.5115 40.1987 9.0593C40.7459 9.6071 41.3604 10.0957 41.9557 10.5678C42.9785 11.3799 43.945 12.1479 44.5238 13.1499C45.0929 14.1354 45.2758 15.3535 45.4696 16.6445C45.5838 17.4015 45.7006 18.1833 45.9041 18.9417C46.0993 19.6712 46.3825 20.3869 46.6561 21.0806C47.14 22.3028 47.5978 23.459 47.5978 24.6509C47.5978 25.8429 47.14 26.9991 46.6574 28.2213H46.6547Z" fill="#3A1209"/>
</svg>
