<svg width="52" height="50" viewBox="0 0 52 50" fill="none" xmlns="http://www.w3.org/2000/svg">
<path d="M40.8568 29.464L42.1668 13.1444L34.555 2.58864L33.2142 18.8656L40.8568 29.464Z" fill="#FFE1C3"/>
<path d="M32.4763 19.9557L9.87012 36.2966L17.8708 47.3917L40.477 31.0508L32.4763 19.9557Z" fill="#FFE1C3"/>
<path d="M11.1005 18.2366L9.73094 34.8642L31.9787 18.7825L33.3483 2.15493L11.1005 18.2366Z" fill="#FFE1C3"/>
<path d="M13.1816 23.2332C13.2819 23.5134 13.4543 23.7861 13.7214 23.9165C14.0745 24.0904 14.5012 23.978 14.8533 23.8012C15.4926 23.4791 16.0239 22.9473 16.346 22.3071C16.4894 22.0226 16.5926 21.7086 16.5708 21.3907C16.5481 21.0735 16.3805 20.7528 16.095 20.6128C15.9274 20.5302 15.7341 20.5146 15.5474 20.5184C14.0552 20.5452 12.607 21.6353 13.1824 23.2326L13.1816 23.2332Z" fill="#FFC285"/>
<path d="M16.3151 18.0889C16.7538 18.7166 17.6155 18.9482 18.3667 18.7973C19.1172 18.647 19.7685 18.1775 20.3147 17.64C20.7883 17.1729 21.2036 16.6461 21.5448 16.0747C21.8189 15.6168 22.0499 15.0602 21.856 14.5637C21.6735 14.0971 21.1481 13.8326 20.6477 13.8302C20.1472 13.8278 19.6707 14.0385 19.2371 14.2895C18.3736 14.7876 17.6398 15.476 16.8041 16.0075C16.1159 16.4451 15.8021 17.3544 16.3151 18.0889Z" fill="#FFC285"/>
<path d="M32.9331 32.8727C33.5878 32.9636 34.1848 32.5104 34.669 32.0598C35.0993 31.6596 35.5307 31.2026 35.6432 30.6246C35.7849 29.8982 35.3859 29.1755 34.9117 28.6078C33.9054 27.4046 31.6621 26.7111 30.7774 28.475C30.0897 29.847 31.3717 32.6553 32.9331 32.8727Z" fill="#FFC285"/>
<path d="M27.5532 33.0628C27.9208 32.8174 28.3026 32.544 28.4726 32.1358C28.5764 31.8863 28.5892 31.6059 28.564 31.3363C28.4939 30.5949 28.0234 29.8067 27.286 29.7158C26.3574 29.6013 24.9301 30.5758 25.1984 31.5865C25.4661 32.5964 26.5637 33.7233 27.5548 33.0616L27.5532 33.0628Z" fill="#FFC285"/>
<path d="M19.5698 43.0218C19.9374 42.7764 20.3192 42.503 20.4892 42.0948C20.5931 41.8453 20.6058 41.5649 20.5807 41.2953C20.5105 40.5539 20.04 39.7657 19.3027 39.6748C18.374 39.5603 16.9467 40.5347 17.215 41.5455C17.4826 42.5554 18.5803 43.6823 19.5714 43.0206L19.5698 43.0218Z" fill="#FFC285"/>
<path d="M34.575 0.498093C34.5605 0.478003 34.5443 0.459143 34.5273 0.440868C34.5237 0.435845 34.5178 0.431186 34.5134 0.426769C34.4962 0.409935 34.4796 0.393937 34.4604 0.379754C34.4586 0.377243 34.456 0.37533 34.4533 0.373424C34.4309 0.356496 34.4089 0.341864 34.3852 0.328425C34.384 0.326751 34.3825 0.326516 34.3805 0.325445C34.3779 0.323539 34.375 0.32309 34.3723 0.321185C34.3513 0.309651 34.3294 0.298703 34.3071 0.290658C34.3036 0.289356 34.2995 0.287213 34.296 0.285911C34.2716 0.276795 34.247 0.269119 34.2222 0.262887C34.2158 0.261119 34.21 0.2602 34.2028 0.259038C34.1821 0.254945 34.1605 0.251461 34.1401 0.249648C34.1343 0.248717 34.1292 0.248642 34.1234 0.247712C34.0979 0.245805 34.0721 0.245301 34.0467 0.247115C34.0415 0.247024 34.037 0.247804 34.031 0.248314C34.0093 0.24999 33.9868 0.252253 33.9646 0.256811C33.96 0.257555 33.9547 0.258891 33.9501 0.259637C33.9248 0.265171 33.8987 0.27132 33.8736 0.280576C33.8711 0.282388 33.868 0.283353 33.8649 0.284331C33.8428 0.292609 33.8214 0.301727 33.7998 0.312283C33.7941 0.315075 33.7877 0.318464 33.7821 0.321254C33.7585 0.334462 33.7349 0.347681 33.7132 0.3634L10.1437 17.4007C9.9973 17.5065 9.9041 17.672 9.88904 17.8522L8.38561 36.1057C8.38561 36.1057 8.38515 36.1085 8.38552 36.1108C8.3836 36.1364 8.38373 36.163 8.38469 36.1891C8.3852 36.1951 8.38572 36.2011 8.38562 36.2062C8.38705 36.2294 8.39076 36.2522 8.39531 36.2744C8.39605 36.2789 8.39621 36.2826 8.39779 36.2866C8.40331 36.3119 8.41085 36.3383 8.42008 36.3634C8.42166 36.3674 8.42325 36.3713 8.42543 36.3761C8.43309 36.3973 8.44244 36.4173 8.45261 36.4367C8.45623 36.4417 8.45815 36.448 8.46093 36.4536C8.47352 36.4763 8.48695 36.4985 8.50204 36.5194L8.50325 36.5211L17.2273 48.6193C17.4271 48.8964 17.8144 48.9589 18.0913 48.7588L41.7017 31.6919C41.7193 31.6792 41.7363 31.6656 41.7526 31.6513C41.7543 31.6501 41.756 31.6488 41.7568 31.6482C41.7715 31.6351 41.7856 31.6211 41.7982 31.6068C41.8016 31.6044 41.8029 31.6009 41.8056 31.5977C41.8166 31.5847 41.8275 31.5716 41.8379 31.5578C41.8417 31.5525 41.8455 31.5472 41.8487 31.541C41.8566 31.529 41.8644 31.517 41.8723 31.5049C41.8772 31.4976 41.8806 31.49 41.8841 31.4824C41.8902 31.4716 41.8958 31.4599 41.9005 31.4488C41.9042 31.4398 41.9085 31.4316 41.9122 31.4226C41.9169 31.4115 41.9208 31.4011 41.9241 31.3898C41.9272 31.3799 41.93 31.3715 41.9331 31.3616C41.9364 31.3503 41.9391 31.3382 41.9418 31.3261C41.944 31.3168 41.9454 31.3082 41.9477 31.2989C41.95 31.2845 41.9523 31.2701 41.9532 31.2554C41.9542 31.2496 41.9557 31.2447 41.9552 31.2387L43.4176 13.0149C43.4294 12.8689 43.3887 12.7225 43.3024 12.6028L34.5772 0.502904C34.576 0.50123 34.5754 0.500388 34.5742 0.498714L34.575 0.498093ZM40.4758 31.0487L17.869 47.3901L9.86806 36.2947L32.4749 19.9532L40.4758 31.0487ZM31.9804 18.784L9.73064 34.8673L11.1003 18.2386L33.35 2.15525L31.9804 18.784ZM42.1677 13.1429L40.8584 29.4618L33.2166 18.8645L34.5573 2.5891L42.1683 13.1438L42.1677 13.1429Z" fill="#3A1209"/>
</svg>
