<svg width="70" height="54" viewBox="0 0 70 54" fill="none" xmlns="http://www.w3.org/2000/svg">
<path d="M5.30829 19.9925C2.64937 26.5952 2.96491 34.0251 6.17527 40.3767L10.1831 48.3071C11.1094 50.139 13.2589 50.987 15.1845 50.28L24.3705 46.9084C25.5116 46.489 26.3952 45.5913 26.7956 44.4417C27.1961 43.2937 27.0642 42.0386 26.4322 40.9998L21.7908 33.3728C21.0237 32.1125 20.591 30.707 20.5065 29.2774C20.4373 28.1078 20.6013 26.921 21.004 25.7811C21.8982 23.2501 23.8613 21.2796 26.3872 20.3768C30.5183 18.8984 35.1771 20.7118 37.2273 24.5933C38.7929 27.561 41.4163 29.7577 44.6115 30.7764C47.8068 31.7951 51.216 31.5233 54.2086 30.0084L56.1237 29.0396L49.9138 17.5025C46.8067 11.5871 42.2874 7.44772 36.8436 5.52252C31.7383 3.71752 25.9329 3.84923 20.0549 5.90521C13.3415 8.25346 7.96546 13.3882 5.30654 19.9909L5.30829 19.9925Z" fill="#FFA16F"/>
<path d="M46.288 33.1954L49.3046 39.5057C50.1911 41.3614 52.0141 42.6284 54.0616 42.8122L55.2521 42.9198L53.9665 40.505C53.7104 40.0233 53.8927 39.4248 54.3738 39.1668C54.8551 38.9104 55.4529 39.0928 55.7106 39.5744L58.0999 44.0598C59.0126 45.7737 60.7119 46.901 62.6467 47.075L67.0038 47.4668L57.0406 30.8005L55.1031 31.7805C52.3473 33.174 49.2885 33.6544 46.2915 33.1985L46.288 33.1954Z" fill="#FF803C"/>
<path d="M22.5804 32.2643C22.6052 32.6838 22.3587 33.088 21.9458 33.2463L4.76823 39.8174C4.25867 40.0128 3.68784 39.7578 3.49278 39.2477C3.29772 38.7377 3.55255 38.1663 4.06212 37.971L21.2397 31.3998C21.7493 31.2045 22.3201 31.4594 22.5152 31.9711C22.5523 32.068 22.573 32.1674 22.5789 32.2661L22.5804 32.2643Z" fill="#FFC6A8"/>
<path d="M22.9512 23.7326C22.962 23.9152 22.922 24.1025 22.8265 24.2732C22.5595 24.7497 21.9577 24.9191 21.4818 24.6519L6.20005 16.0721C5.72415 15.8049 5.55499 15.2024 5.82202 14.726C6.08904 14.2496 6.69082 14.0801 7.16672 14.3474L22.4484 22.9272C22.7538 23.0989 22.932 23.4069 22.9512 23.7326Z" fill="#FFC6A8"/>
<path d="M30.7437 3.45645L30.7444 3.46802L31.5205 19.6606C31.5461 20.2056 31.1265 20.6697 30.5803 20.6955C30.0391 20.721 29.579 20.3059 29.5471 19.7662L29.5464 19.7547L28.7704 3.56206C28.7447 3.01712 29.1644 2.55303 29.7105 2.52722C30.2518 2.50169 30.7118 2.91683 30.7437 3.45645Z" fill="#FFC6A8"/>
<path d="M51.5251 18.1359C51.548 18.5241 51.3397 18.9046 50.9677 19.0851L36.7806 25.9477C36.29 26.1848 35.6989 25.979 35.4621 25.4879C35.2253 24.9968 35.4311 24.4052 35.9217 24.1681L50.1089 17.3055C50.5995 17.0683 51.1905 17.2742 51.4273 17.7653C51.4856 17.8856 51.5161 18.011 51.5234 18.136L51.5251 18.1359Z" fill="#FFC6A8"/>
<path d="M3.47529 19.2533C0.603607 26.3853 0.946052 34.4094 4.41236 41.2691L8.4202 49.1994C9.79842 51.9256 12.9982 53.1883 15.8632 52.1366L25.0491 48.765C26.747 48.1409 28.0631 46.8032 28.6596 45.0938C29.2562 43.3845 29.0584 41.5176 28.1177 39.9722L23.4764 32.3453C22.3915 30.5624 22.1686 28.4114 22.8653 26.4435C23.562 24.4757 25.0859 22.9441 27.0497 22.2414C30.2619 21.0916 33.8843 22.5026 35.4777 25.5197C37.2549 28.8859 40.2081 31.3898 43.8084 32.594L47.521 40.357C48.7084 42.8387 51.1453 44.533 53.8825 44.7782L56.3611 45.0009C57.5903 47.2984 59.8712 48.8072 62.4659 49.0411L68.7544 49.6053C68.7544 49.6053 68.7643 49.6047 68.7692 49.6044C68.7891 49.6066 68.8089 49.607 68.8288 49.6075C68.8419 49.6067 68.8551 49.6076 68.8684 49.6085C68.8865 49.6074 68.9062 49.6062 68.9243 49.6052C68.9391 49.6043 68.9522 49.6035 68.967 49.6026C68.9834 49.6016 69.0013 49.5973 69.0177 49.5947C69.0324 49.5922 69.0487 49.5895 69.0633 49.5854C69.0779 49.5812 69.0925 49.577 69.107 49.5729C69.1233 49.5686 69.1412 49.5643 69.1573 49.5584C69.1703 49.5543 69.1831 49.5486 69.196 49.5428C69.2138 49.5368 69.2315 49.5292 69.2492 49.5215C69.2604 49.5159 69.2732 49.5102 69.2844 49.5045C69.302 49.4952 69.3196 49.486 69.3372 49.4767C69.342 49.4747 69.3469 49.4728 69.3499 49.4693C69.3547 49.4657 69.3594 49.4622 69.3643 49.4602C69.3945 49.4419 69.4229 49.4204 69.4513 49.3989C69.4576 49.3935 69.464 49.3899 69.4703 49.3846C69.5001 49.3597 69.5299 49.3331 69.5562 49.3035C69.5639 49.2948 69.5733 49.286 69.581 49.2757C69.6011 49.253 69.6195 49.2305 69.6379 49.2063C69.6439 49.1976 69.6517 49.1889 69.6577 49.1786C69.6805 49.1459 69.6999 49.1118 69.7193 49.0776C69.7223 49.0725 69.7237 49.0674 69.7267 49.0623C69.743 49.0316 69.7559 48.9995 69.7688 48.9657C69.7731 48.9555 69.7758 48.9455 69.7786 48.9371C69.7883 48.9068 69.798 48.8748 69.806 48.843C69.8072 48.8347 69.8101 48.8279 69.8112 48.8195C69.8189 48.7828 69.825 48.7461 69.8278 48.7096C69.8277 48.7079 69.8276 48.7064 69.8275 48.7031C69.8313 48.6566 69.8318 48.6087 69.829 48.5609C69.8259 48.51 69.8179 48.4576 69.805 48.4072C69.8026 48.3941 69.7985 48.3812 69.7961 48.3682C69.7833 48.3194 69.7673 48.2724 69.7464 48.2242C69.7462 48.2209 69.7427 48.2178 69.7408 48.2146C69.7256 48.1808 69.7088 48.1472 69.6887 48.1137L58.4462 29.3049C58.4284 29.1986 58.3942 29.095 58.3422 28.9974L51.6545 16.5758C48.3153 10.2203 43.4206 5.75495 37.5001 3.65997C31.967 1.70212 25.7098 1.83432 19.402 4.04125C12.1507 6.57825 6.34542 12.123 3.47364 19.2534L3.47529 19.2533ZM67 47.4611L62.6429 47.0694C60.7097 46.8952 59.0105 45.7679 58.0961 44.0542L55.7069 39.5689C55.4508 39.0872 54.8513 38.9048 54.3701 39.1612C53.8889 39.4176 53.7067 40.0178 53.9627 40.4994L55.2483 42.9143L54.0579 42.8066C52.012 42.6227 50.189 41.3558 49.3009 39.5002L46.2843 33.1899C49.2814 33.6459 52.3418 33.1654 55.0959 31.772L57.0334 30.792L66.9965 47.458L67 47.4611ZM36.8435 5.52477C42.2873 7.44996 46.805 11.5911 49.9136 17.5046L56.1235 29.0416L54.2084 30.0105C51.2141 31.5254 47.8066 31.797 44.6114 30.7783C41.4162 29.7597 38.7928 27.563 37.2272 24.5954C35.1787 20.7138 30.5183 18.9006 26.3872 20.379C23.8614 21.2834 21.8999 23.252 21.004 25.7831C20.6013 26.9213 20.4373 28.1081 20.5065 29.2794C20.591 30.7089 21.0236 32.1128 21.7909 33.3747L26.4322 41.0016C27.0642 42.0405 27.1961 43.2955 26.7956 44.4435C26.3951 45.5915 25.51 46.4909 24.3705 46.9101L15.1846 50.2818C13.259 50.9888 11.1095 50.1407 10.1832 48.3089L6.17541 40.3786C2.96507 34.027 2.64953 26.5972 5.30843 19.9946C7.96733 13.3919 13.3417 8.25737 20.0567 5.90905C25.9347 3.85309 31.7399 3.71975 36.8452 5.52636L36.8435 5.52477Z" fill="#3A1209"/>
</svg>
