<svg width="75" height="63" viewBox="0 0 75 63" fill="none" xmlns="http://www.w3.org/2000/svg">
<path d="M58.1697 7.81189C56.0604 5.98289 53.8885 5.02372 51.7142 4.95767C50.9032 4.93365 50.0834 5.03347 49.2604 5.25701C47.8786 5.6323 46.4851 6.35531 45.0951 7.42049C43.0729 8.97087 41.0739 11.2591 39.3141 14.0402C35.9964 19.2847 33.7538 25.8739 33.6017 30.8263C33.3098 40.3749 40.8342 48.3751 50.3756 48.66C54.9971 48.7985 59.3982 47.1259 62.7655 43.9535C66.1341 40.7806 68.0673 36.4854 68.2078 31.8609C68.3599 26.9085 66.5249 20.1983 63.5321 14.7642C61.9457 11.8838 60.0912 9.4787 58.1667 7.81129L58.1697 7.81189Z" fill="white"/>
<path d="M51.7635 3.32391C46.9529 3.18029 42.0416 6.67608 37.9336 13.1675C34.4691 18.6412 32.128 25.555 31.9689 30.779C31.6499 41.2287 39.8837 49.9838 50.3259 50.2965C52.2282 50.3531 54.0957 50.1297 55.8811 49.6448C58.8458 48.8396 61.5857 47.3132 63.8857 45.1465C67.5727 41.674 69.687 36.9738 69.8419 31.9118C70.0009 26.6878 68.0866 19.6477 64.9647 13.9762C61.2613 7.25102 56.573 3.46921 51.7622 3.32427L51.7635 3.32391ZM68.2097 31.8623C68.0678 36.4872 66.1347 40.7824 62.7674 43.9549C59.3988 47.1277 54.9987 48.7986 50.3776 48.6614C40.8362 48.3765 33.3119 40.3763 33.6037 30.8278C33.7558 25.8754 35.9971 19.2866 39.3161 14.0417C41.0759 11.2606 43.0749 8.9724 45.0971 7.42203C46.487 6.35685 47.8806 5.63381 49.2624 5.25852C50.0854 5.03499 50.9039 4.93555 51.7161 4.95922C53.8901 5.02394 56.0636 5.98407 58.1716 7.81343C60.0948 9.48118 61.9506 11.8859 63.537 14.7663C66.5282 20.1994 68.3631 26.9096 68.2127 31.8629L68.2097 31.8623Z" fill="#3A1209"/>
<path d="M30.2047 55.9747C39.4184 53.4723 44.886 43.9357 42.3923 34.7172C41.0988 29.9357 37.3938 24.0497 32.9517 19.7223C30.5964 17.4277 28.1233 15.6678 25.798 14.6317C23.2481 13.4957 20.8914 13.2095 18.7904 13.7801C16.6895 14.3507 14.7996 15.7903 13.1713 18.0612C11.6865 20.1321 10.4375 22.9029 9.56248 26.0749C7.91076 32.0573 7.67815 39.0128 8.97163 43.7944C11.4654 53.0128 20.991 58.4772 30.2047 55.9747ZM23.5459 31.3594C29.2176 29.8189 35.0827 33.1823 36.6181 38.8583C38.1536 44.5343 34.7878 50.4048 29.1147 51.9456C23.4416 53.4865 17.5779 50.1227 16.0425 44.4467C14.507 38.7707 17.8727 32.9002 23.5459 31.3594Z" fill="white"/>
<path d="M28.6898 50.3673C33.4923 49.0629 36.3419 44.0925 35.0421 39.2875C33.7423 34.4826 28.7777 31.6346 23.9752 32.9389C19.1728 34.2433 16.3231 39.2137 17.6229 44.0187C18.9227 48.8236 23.8874 51.6716 28.6898 50.3673Z" fill="#FFDE5A"/>
<path d="M30.632 57.5533C40.716 54.8145 46.6995 44.3781 43.9702 34.2889C42.6056 29.2443 38.7288 23.0675 34.093 18.5512C28.5966 13.1956 23.0104 10.9412 18.3641 12.2032C13.7178 13.4651 10.0325 18.2377 7.98767 25.6415C6.26271 31.8853 6.03005 39.1797 7.39434 44.223C10.1236 54.3122 20.548 60.2922 30.632 57.5533ZM9.56287 26.0751C10.4392 22.9028 11.6868 20.1324 13.1716 18.0614C14.7999 15.7906 16.6898 14.351 18.7907 13.7804C20.8917 13.2097 23.2484 13.4959 25.7983 14.632C28.1236 15.6681 30.598 17.4276 32.952 19.7225C37.3927 24.0503 41.0991 29.9359 42.3925 34.7174C44.8863 43.9358 39.4186 53.4724 30.205 55.9748C20.9913 58.4773 11.4657 53.0129 8.97202 43.7945C7.67855 39.013 7.90984 32.0579 9.56287 26.0751Z" fill="#3A1209"/>
<path d="M29.1165 51.9452C34.7879 50.4048 38.1548 44.5343 36.6194 38.8586C35.0841 33.1829 29.2207 29.8193 23.5479 31.3601C17.8752 32.9008 14.5097 38.771 16.045 44.4467C17.5804 50.1224 23.4437 53.486 29.1165 51.9452ZM23.9753 32.9398C28.7777 31.6354 33.7424 34.4834 35.0422 39.2884C36.342 44.0933 33.4923 49.0638 28.6899 50.3681C23.8874 51.6725 18.9228 48.8245 17.623 44.0195C16.3232 39.2146 19.1728 34.2442 23.9753 32.9398Z" fill="#3A1209"/>
</svg>
