<svg width="45" height="71" viewBox="0 0 45 71" fill="none" xmlns="http://www.w3.org/2000/svg">
<path d="M13.1572 22.7989C12.9134 22.7989 12.6753 22.7252 12.4656 22.5776L8.63987 19.8199C8.34515 19.6043 8.16372 19.2695 8.14671 18.9064L8.0731 16.9827C8.0561 16.5288 8.29986 16.1089 8.6966 15.8933C8.8723 15.7969 9.06486 15.7515 9.25756 15.7515C9.50127 15.7515 9.74511 15.8253 9.94914 15.9728L11.9215 17.3971C12.0519 17.4936 12.1653 17.6126 12.2503 17.7545L14.1772 21.0172C14.4606 21.4995 14.3699 22.1181 13.9561 22.4926C13.7294 22.6969 13.4462 22.8046 13.1572 22.8046V22.7989Z" fill="white"/>
<path d="M9.26352 16.9324L11.2359 18.3566L13.1628 21.6193L9.33713 18.8616L9.26352 16.938M9.26352 14.5605C8.87811 14.5605 8.49825 14.6513 8.14686 14.8443C7.34771 15.2698 6.86612 16.1209 6.90013 17.0231L6.97374 18.9468C7.00208 19.6731 7.3648 20.3483 7.95424 20.7795L11.7799 23.5372C12.1937 23.8379 12.6811 23.9854 13.1628 23.9854C13.7353 23.9854 14.3076 23.7754 14.761 23.3669C15.5885 22.6122 15.7757 21.3752 15.2033 20.4106L13.2763 17.1479C13.1119 16.8642 12.8853 16.6202 12.6246 16.4329L10.6519 15.0087C10.2382 14.7136 9.75647 14.5605 9.26905 14.5605H9.26352Z" fill="#212121"/>
<path d="M32.8861 58.0769C29.2758 58.0769 25.8069 56.4143 22.5536 53.1403C18.4502 55.4667 14.6018 56.6924 11.3826 56.6924C8.16333 56.6924 5.39763 55.3986 3.5953 52.9587C1.23754 49.7584 0.568616 45.2019 1.75883 40.4582C2.98306 35.584 5.95308 31.2035 10.1245 28.1224C13.9559 25.2909 18.6317 23.7305 23.2792 23.7305C23.9424 23.7305 24.6053 23.7645 25.2571 23.8269C25.2968 23.8269 25.3367 23.8269 25.3764 23.8382L25.45 23.8496C25.8638 23.895 26.3227 23.9575 26.7648 24.0369H26.7933C26.8387 24.0426 26.8782 24.054 26.9179 24.0653C30.7039 24.7803 33.838 26.6016 35.7537 29.2004C39.1373 33.7909 38.1514 39.3574 32.9938 45.0033C33.3508 45.0941 33.7191 45.1792 34.1101 45.2643C35.4647 45.5707 36.9951 45.9112 38.9844 46.8191C39.1545 46.8985 39.3132 46.9722 39.4662 47.0573L39.5794 47.1198C39.7268 47.1993 39.829 47.2561 39.9254 47.3185L40.0897 47.4206C40.1748 47.4773 40.2654 47.5341 40.3504 47.5908C40.4071 47.6305 40.4695 47.6702 40.5262 47.7156C40.5998 47.7667 40.6733 47.8235 40.747 47.8802C40.8037 47.9256 40.8605 47.971 40.9172 48.0164C40.9796 48.0675 41.1607 48.232 41.1607 48.232C41.2004 48.266 41.2401 48.3 41.2797 48.3397C41.3307 48.3908 41.3762 48.4305 41.4159 48.4759C41.5746 48.6405 41.6936 48.771 41.8069 48.9072L41.8864 49.0037C41.9487 49.0832 42.011 49.1739 42.079 49.2647L42.1357 49.3498C42.1981 49.4462 42.2603 49.5427 42.317 49.6448C42.317 49.6448 42.3453 49.696 42.351 49.7016C43.0935 51.0237 43.1502 52.4763 42.4927 53.7871C41.4158 55.949 38.5707 57.4413 34.473 57.9917C33.9459 58.0598 33.4131 58.0996 32.8916 58.0996L32.8861 58.0769Z" fill="white"/>
<path d="M23.2797 24.9053C23.9314 24.9053 24.572 24.9393 25.2011 25.0017L25.2747 25.0131C25.7054 25.0585 26.1304 25.1209 26.5441 25.1947L26.618 25.2059C30.047 25.8357 32.994 27.4529 34.7963 29.8929C38.3557 34.7217 36.2133 40.2938 30.8289 45.5141C33.1244 46.5185 35.1139 46.3484 38.4862 47.8861C38.6335 47.9542 38.7694 48.0222 38.9054 48.0903C38.9508 48.113 38.9904 48.1414 39.0358 48.1641C39.1265 48.2152 39.2116 48.2606 39.3023 48.3117C39.3533 48.34 39.3985 48.374 39.4495 48.4024C39.5232 48.4478 39.5969 48.4989 39.6706 48.5499C39.7216 48.584 39.7671 48.618 39.8181 48.652C39.8861 48.6974 39.9484 48.7485 40.0107 48.7996C40.0561 48.8336 40.1071 48.8733 40.1524 48.9074C40.2091 48.9584 40.2657 49.0038 40.3223 49.0549C40.3677 49.0946 40.413 49.1344 40.4527 49.1742C40.498 49.2196 40.5435 49.265 40.5889 49.3103C40.6909 49.4182 40.7871 49.5259 40.8778 49.6337C40.8948 49.6564 40.9175 49.6791 40.9345 49.7018C40.9912 49.7699 41.0422 49.8436 41.0875 49.9117C41.1045 49.9344 41.1159 49.9572 41.1329 49.9742C41.1839 50.048 41.2293 50.1273 41.2746 50.2068C41.2803 50.2238 41.2916 50.2352 41.2973 50.2522C42.7142 52.7659 40.8495 55.9095 34.2976 56.789C33.8102 56.8514 33.3399 56.8854 32.8752 56.8854C28.5224 56.8854 25.0932 54.1788 22.7525 51.6367C18.7681 54.0142 14.778 55.4953 11.3717 55.4953C8.60015 55.4953 6.21429 54.5136 4.53665 52.2382C0.14418 46.2802 2.46204 35.2324 10.8162 29.0587C14.6759 26.2103 19.1422 24.8996 23.2683 24.8996M23.2797 22.539C18.3771 22.539 13.4574 24.179 9.422 27.1636C5.02953 30.4093 1.90094 35.0225 0.614367 40.1633C-0.666535 45.2532 0.0761231 50.1728 2.64926 53.6568C4.68397 56.4145 7.70481 57.8727 11.3888 57.8727C14.6024 57.8727 18.3714 56.7435 22.3614 54.5987C25.66 57.6968 29.1967 59.2629 32.8921 59.2629C33.4702 59.2629 34.0538 59.2232 34.6319 59.1438C40.396 58.3721 42.6689 56.0796 43.5531 54.2922C44.3749 52.641 44.3124 50.7515 43.3829 49.1003C43.3659 49.072 43.3547 49.0493 43.3377 49.021C43.2641 48.8961 43.1902 48.7769 43.1108 48.6577C43.0938 48.6293 43.0655 48.5897 43.0372 48.5499C42.9692 48.4535 42.89 48.3456 42.805 48.2378C42.7597 48.1868 42.7368 48.1527 42.7084 48.1187C42.5894 47.9712 42.4422 47.8122 42.2892 47.6534L42.2665 47.625C42.2098 47.5682 42.1531 47.5059 42.0907 47.4492C42.0454 47.4038 41.9888 47.3527 41.9322 47.3016L41.9037 47.2789C41.8356 47.2165 41.7564 47.1483 41.677 47.0803C41.6147 47.0292 41.5638 46.9895 41.5071 46.9441L41.4844 46.927C41.388 46.8533 41.303 46.7853 41.2124 46.7228C41.1557 46.6831 41.0875 46.6321 41.0195 46.5867C40.9231 46.5186 40.8268 46.4561 40.7247 46.3937C40.6567 46.3483 40.5945 46.3143 40.5321 46.2746C40.4244 46.2121 40.3054 46.144 40.192 46.0816L40.158 46.0645C40.1126 46.0418 40.0674 46.0135 40.0221 45.9908C39.8407 45.9 39.6649 45.8093 39.4835 45.7242C37.7776 44.9468 36.3607 44.5552 35.1705 44.2715C41.0536 36.8609 38.7979 31.3001 36.7122 28.4743C34.6208 25.6371 31.2315 23.6569 27.1621 22.8795C27.0997 22.8625 27.0315 22.8511 26.9692 22.8454H26.9354C26.4877 22.7603 26.0342 22.698 25.5808 22.6469H25.5467C25.4901 22.6356 25.4277 22.6299 25.371 22.6242C24.6909 22.5561 23.9881 22.522 23.291 22.522L23.2797 22.539Z" fill="#212121"/>
<path d="M25.864 9.0568C25.6146 9.0568 25.3651 8.9774 25.1497 8.81852C24.719 8.49509 24.5661 7.92201 24.7645 7.42267L26.7255 2.61658C26.8558 2.29315 27.1279 2.04351 27.4566 1.9357L29.6329 1.23195C29.752 1.19223 29.8711 1.17529 29.9958 1.17529C30.3188 1.17529 30.6361 1.31143 30.8628 1.55543C31.1745 1.89588 31.2651 2.38385 31.0894 2.80942L29.7406 6.12324C29.6612 6.31049 29.5365 6.48078 29.3778 6.60561L26.5951 8.7958C26.3798 8.96603 26.1247 9.05112 25.864 9.05112V9.0568Z" fill="white"/>
<path d="M30.0015 2.37181L28.6526 5.68563L25.8697 7.87597L27.8307 3.06987L30.0073 2.37181M30.0015 0C29.9448 0 29.8938 5.54141e-06 29.8371 0.00567982C29.6217 0.0227026 29.4176 0.0624059 29.2249 0.130497L27.0995 0.817062C26.4308 1.03268 25.8981 1.5321 25.6317 2.17897L23.6707 6.98507C23.2626 7.97806 23.5801 9.12422 24.4359 9.77108C24.8553 10.0888 25.3596 10.2478 25.8583 10.2478C26.3571 10.2478 26.8899 10.0775 27.3207 9.74269L30.1036 7.55249C30.4267 7.29715 30.6761 6.96239 30.8348 6.58221L32.1554 3.34791C32.2914 3.05284 32.3649 2.71794 32.3649 2.37181C32.3649 1.07807 31.3336 0.0283714 30.0527 0C30.0357 0 30.0186 0 29.9959 0H30.0015Z" fill="#212121"/>
<path d="M19.4375 68.8636C19.2732 68.8636 19.1033 68.8295 18.9446 68.7557L15.7253 67.2748C15.5383 67.1897 15.3797 67.0535 15.2606 66.889L13.1748 63.978C12.9084 63.6035 12.88 63.1098 13.1067 62.707C13.3164 62.3325 13.7134 62.1055 14.1384 62.1055C14.1668 62.1055 14.2006 62.1055 14.2289 62.1055L16.5132 62.2814C16.8646 62.3098 17.182 62.4857 17.386 62.7751L20.407 66.9911C20.7187 67.428 20.7016 68.0181 20.3616 68.4324C20.1292 68.7104 19.7946 68.8636 19.4489 68.8636H19.4375Z" fill="white"/>
<path d="M14.1384 63.2912L16.4224 63.4672L19.4433 67.6831L16.224 66.2021L14.1384 63.2912ZM14.1384 60.9194C13.2883 60.9194 12.4947 61.379 12.0753 62.128C11.6219 62.9281 11.6786 63.921 12.217 64.6701L14.3028 67.581C14.5409 67.9158 14.8639 68.1824 15.2379 68.3527L18.457 69.8337C18.7744 69.9812 19.1089 70.0493 19.4433 70.0493C20.1348 70.0493 20.8094 69.7485 21.2685 69.1868C21.9543 68.3583 21.9939 67.1725 21.3648 66.2986L18.3438 62.0827C17.9358 61.5153 17.2953 61.152 16.5981 61.1009L14.3142 60.9251C14.2518 60.9251 14.195 60.9194 14.1326 60.9194H14.1384Z" fill="#212121"/>
<path d="M36.1458 24.4736C35.5054 24.4736 34.9386 24.1727 34.5872 23.6564C33.1419 21.4945 34.3378 19.4404 35.2276 18.5893C36.1061 17.5509 36.979 17.3296 37.5628 17.3296C38.2712 17.3296 38.9343 17.6644 39.3934 18.2432C39.9545 18.9582 40.1527 19.9681 39.9203 20.9497C39.4896 22.7655 37.659 24.4792 36.1514 24.4792L36.1458 24.4736Z" fill="white"/>
<path d="M37.5565 18.5098C38.4407 18.5098 39.0301 19.5481 38.7637 20.6659C38.452 21.988 37.0409 23.2818 36.1454 23.2818C35.9074 23.2818 35.7089 23.191 35.5728 22.9868C34.2693 21.0348 36.0887 19.3949 36.0887 19.3949C36.6044 18.7594 37.1203 18.5041 37.5623 18.5041M37.5565 16.1436C36.7347 16.1436 35.5219 16.4273 34.3657 17.7665C32.8354 19.2474 31.9682 21.869 33.6005 24.3146C34.1729 25.1657 35.0967 25.6593 36.1396 25.6593C38.418 25.6593 40.566 23.3216 41.0648 21.2165C41.3822 19.8887 41.0989 18.4985 40.3168 17.5055C39.6366 16.643 38.6277 16.1436 37.5565 16.1436Z" fill="#212121"/>
<path d="M9.26367 16.9326L9.33729 18.8561L13.1575 21.6196L11.236 18.3569L9.26367 16.9326Z" fill="#9CC580"/>
<path d="M19.2324 47.2845C19.9125 47.5115 25.3479 57.9975 34.3086 56.7946C43.2636 55.5916 43.4732 50.1557 38.4913 47.8917C33.5094 45.622 31.5371 47.0802 27.1617 42.9663L19.2324 47.2845Z" fill="url(#paint0_linear_6555_18975)"/>
<path d="M38.4916 47.8917C33.5097 45.622 31.5375 47.0802 27.162 42.9663L22.1914 45.6786C28.1595 47.7668 34.6887 50.3599 37.6586 56.0228C43.2016 54.0765 42.7539 49.8323 38.4974 47.8974L38.4916 47.8917Z" fill="#EAD7B1"/>
<path d="M34.802 29.8987C39.1945 35.8567 34.904 42.9496 26.5498 49.1176C18.1956 55.2912 8.94032 58.2078 4.54785 52.2498C0.155377 46.2918 2.47324 35.2439 10.8274 29.0703C19.1816 22.8967 30.4095 23.9407 34.802 29.8987Z" fill="url(#paint1_linear_6555_18975)"/>
<path d="M25.2062 25.0008C25.2062 25.0008 18.6375 27.2365 15.2709 31.7021C15.2709 31.7021 7.0526 33.0299 4.8252 36.2132C4.8252 36.2132 9.00805 34.6527 11.5755 35.4925C11.5755 35.4925 7.10372 41.7059 7.06405 46.7163C7.06405 46.7163 12.505 37.5012 17.0788 34.9421C17.0788 34.9421 25.008 32.9732 29.7235 34.4201C29.7235 34.4201 24.7924 30.2439 20.0145 30.7205C20.0145 30.7205 22.2025 27.7642 26.629 25.1995L25.2062 24.9951V25.0008Z" fill="#F9E7AF"/>
<path d="M28.6527 5.68639L30.0016 2.37256L27.8253 3.07062L25.8643 7.87672L28.6527 5.68639Z" fill="#F6D890"/>
<path d="M16.2232 66.1968L14.1377 63.2915L16.4161 63.4618L19.4426 67.6777L16.2232 66.1968Z" fill="#7EA85C"/>
<path d="M36.0893 19.4011C36.0893 19.4011 34.2642 21.041 35.5734 22.9929C36.2252 23.9689 38.3733 22.3403 38.7701 20.6664C39.1668 18.9925 37.6535 17.4945 36.0893 19.4011Z" fill="url(#paint2_linear_6555_18975)"/>
<defs>
<linearGradient id="paint0_linear_6555_18975" x1="20.15" y1="51.9326" x2="40.904" y2="47.6434" gradientUnits="userSpaceOnUse">
<stop offset="0.14" stop-color="#F9E7AF"/>
<stop offset="0.85" stop-color="#F8F2E7"/>
</linearGradient>
<linearGradient id="paint1_linear_6555_18975" x1="5.50756" y1="38.8395" x2="26.8612" y2="41.0539" gradientUnits="userSpaceOnUse">
<stop stop-color="#E3895E"/>
<stop offset="0.14" stop-color="#BF7251"/>
<stop offset="0.32" stop-color="#9A5A45"/>
<stop offset="0.49" stop-color="#7C473A"/>
<stop offset="0.67" stop-color="#673933"/>
<stop offset="0.84" stop-color="#5B312F"/>
<stop offset="1" stop-color="#572F2E"/>
</linearGradient>
<linearGradient id="paint2_linear_6555_18975" x1="37.2107" y1="18.9444" x2="36.27" y2="23.3975" gradientUnits="userSpaceOnUse">
<stop offset="0.03" stop-color="#F0C97A"/>
<stop offset="0.46" stop-color="#EDB861"/>
<stop offset="0.65" stop-color="#ECB55D"/>
<stop offset="0.8" stop-color="#EBAF53"/>
<stop offset="0.95" stop-color="#E9A441"/>
<stop offset="1" stop-color="#E89F3A"/>
</linearGradient>
</defs>
</svg>
