<svg width="81" height="83" viewBox="0 0 81 83" fill="none" xmlns="http://www.w3.org/2000/svg">
<path d="M25.1352 37.2854C25.4621 39.5841 25.7809 41.8761 26.0868 44.1179C26.2905 43.9394 26.4931 43.7518 26.6947 43.5553C26.9254 43.3293 27.1459 43.1104 27.3574 42.9009C28.0953 42.1682 28.734 41.5355 29.3459 41.0659C29.2101 39.6887 29.1347 38.222 29.1561 36.6967C29.2305 31.1934 30.5037 26.0706 32.9413 21.4714C34.148 19.1944 35.9709 17.2543 38.2083 15.8033C36.7586 14.5118 35.1759 13.64 33.492 13.2091C31.2343 12.6304 28.9379 12.9676 27.0279 14.1576C24.9797 15.4331 23.5027 17.6097 22.9731 20.129C22.1576 24.0158 23.0983 27.9765 24.0078 31.8053C24.4332 33.5975 24.8743 35.4502 25.1346 37.2864L25.1352 37.2854Z" fill="#87B97A"/>
<path d="M31.8463 47.2203C32.8475 46.2289 33.6581 45.4468 34.499 45.0199C35.243 44.6431 35.9771 44.5726 36.7226 44.81L38.6436 28.0368C38.6872 27.654 39.0328 27.3801 39.4146 27.4248C39.7965 27.4695 40.0709 27.8146 40.0264 28.1969L38.3269 43.0415L48.7228 27.2445C48.934 26.9236 49.3663 26.8347 49.6869 27.0462C50.0076 27.2578 50.0966 27.6905 49.8854 28.0115L39.4895 43.8085L52.4424 36.3882C52.7766 36.1971 53.2006 36.3128 53.3923 36.6464C53.5833 36.9811 53.4673 37.4065 53.1348 37.5973L38.4994 45.9822C39.0114 46.5744 39.2373 47.2783 39.184 48.1108C39.1246 49.0519 38.7261 50.1072 38.2112 51.4195C43.9281 50.5357 53.5644 47.8048 60.3298 39.3824C62.8268 36.2742 63.8692 32.0089 63.1909 27.6791C62.4766 23.1253 60.0458 19.1383 56.503 16.6911C52.8584 14.3964 48.2419 13.7327 43.7803 14.8731C39.5391 15.9573 36.036 18.5991 34.1687 22.1227C29.1083 31.6701 30.4038 41.6132 31.8483 47.2216L31.8463 47.2203Z" fill="#87B97A"/>
<path d="M26.3752 51.3633C27.8065 50.5248 29.2828 49.6604 30.7043 48.3427C30.2912 46.8548 29.8471 44.9348 29.5391 42.7235C29.169 43.062 28.7696 43.4577 28.3335 43.8903C28.1201 44.1027 27.8973 44.3229 27.6637 44.5512C26.0294 46.1499 24.2969 47.1651 22.7668 48.0607C20.8535 49.1819 19.1999 50.149 17.9983 51.9748C16.2384 54.649 16.3231 58.5847 19.8381 61.0135C19.6446 59.1962 20.1143 57.2811 21.1467 55.7123C22.5269 53.615 24.3964 52.5205 26.3748 51.3616L26.3752 51.3633Z" fill="#F0ECB0"/>
<path d="M61.4113 40.2526C58.1521 44.3099 53.9541 47.503 48.9318 49.7421C47.5395 50.3629 46.1646 50.8728 44.8472 51.2913C44.6576 52.0395 44.3283 52.8777 43.9476 53.8447C43.8388 54.1219 43.7256 54.4101 43.6092 54.7116C43.5083 54.9746 43.4162 55.235 43.3327 55.4928C45.5101 54.8908 47.7393 54.2798 49.9786 53.6727C51.7657 53.1886 53.6397 52.862 55.4533 52.5469C59.3269 51.8737 63.3324 51.1775 66.5773 48.8922C68.6814 47.4116 70.0959 45.1924 70.4587 42.8064C70.7973 40.5796 70.2001 38.3348 68.7789 36.4849C67.7204 35.108 66.294 33.9945 64.5368 33.1703C64.0869 35.8006 63.0256 38.2431 61.4119 40.2517L61.4113 40.2526Z" fill="#87B97A"/>
<path d="M35.1873 57.9165C35.4065 56.156 35.6537 54.161 36.4761 52.0267C36.5934 51.7217 36.7092 51.4297 36.8184 51.1498C37.9493 48.2764 38.2436 47.3247 36.9182 46.4503C36.9182 46.4503 36.9182 46.4503 36.9173 46.4497C36.9173 46.4497 36.9173 46.4496 36.9163 46.449C35.5909 45.5746 34.833 46.2218 32.6427 48.395C32.4293 48.6074 32.2066 48.8276 31.973 49.0559C30.3388 50.6545 28.6063 51.6697 27.0763 52.5653C25.163 53.6865 23.5104 54.6542 22.3089 56.48C20.5235 59.1929 20.6341 63.2053 24.3002 65.6239C27.9662 68.0425 31.6921 66.5612 33.4775 63.8483C34.679 62.0226 34.9152 60.1203 35.1892 57.9177L35.1873 57.9165Z" fill="#F0ECB0"/>
<path d="M42.6526 53.3379C42.8775 52.766 43.0837 52.2415 43.2484 51.7674C41.0975 52.3564 39.1602 52.7053 37.6317 52.9123C36.9839 54.7391 36.7723 56.4393 36.5675 58.0869C36.2846 60.3644 36.0183 62.5151 34.6374 64.6134C33.605 66.1822 32.0317 67.3693 30.2885 67.9088C33.9037 70.1854 37.5491 68.7106 39.3096 66.0354C40.5112 64.2096 40.7473 62.3074 41.0211 60.1031C41.2403 58.3426 41.4875 56.3475 42.31 54.2132C42.4273 53.9082 42.5425 53.6171 42.6522 53.3363L42.6526 53.3379Z" fill="#F0ECB0"/>
<path d="M23.7531 37.4776C24.1185 40.0533 24.4768 42.623 24.8151 45.1196C23.8967 45.7804 22.9709 46.3237 22.0643 46.8547C20.086 48.0135 18.2174 49.107 16.8366 51.205C15.7456 52.863 15.2824 54.9074 15.5672 56.8139C15.7965 58.3571 16.6183 60.5581 19.2253 62.278C19.5741 62.5081 19.9317 62.7121 20.2904 62.889C20.7789 64.1651 21.7273 65.5889 23.5369 66.7828C25.3466 67.9767 27.0275 68.2875 28.3913 68.2335C28.6945 68.4947 29.0235 68.7423 29.3722 68.9724C31.9792 70.6923 34.3233 70.58 35.8301 70.1822C37.6918 69.6904 39.3862 68.4583 40.4766 66.8014C41.8567 64.7042 42.1237 62.5526 42.4066 60.2754C42.5369 59.2308 42.6696 58.1657 42.9137 57.06C45.3371 56.3882 47.8364 55.7024 50.3459 55.022C52.071 54.5541 53.9128 54.2341 55.6948 53.9247C59.7193 53.2246 63.8804 52.5006 67.3809 50.0379C69.7934 48.3396 71.4181 45.7823 71.837 43.0218C72.2323 40.4154 71.5394 37.7947 69.8833 35.6412C68.6055 33.9791 66.8691 32.6653 64.7218 31.7311C64.8388 30.3372 64.7903 28.9036 64.5651 27.466C63.8161 22.6905 61.3133 18.4836 57.6541 15.8039C57.6175 15.7644 57.5758 15.7286 57.5293 15.6979L57.011 15.356C56.9645 15.3253 56.9151 15.3011 56.8645 15.283C52.9606 12.9729 48.1129 12.3291 43.4352 13.5257C42.027 13.8857 40.6928 14.4056 39.4598 15.0633C37.7562 13.4569 35.8664 12.3784 33.8343 11.8581C31.2055 11.1847 28.5261 11.5806 26.2901 12.9726C23.922 14.4471 22.216 16.9508 21.6093 19.8404C20.7287 24.033 21.7075 28.1466 22.6528 32.1255C23.0709 33.8864 23.5048 35.7078 23.756 37.4795L23.7531 37.4776ZM18.0001 51.9727C19.2016 50.147 20.8541 49.1793 22.7682 48.0588C24.2973 47.1626 26.0306 46.1481 27.6647 44.5496C27.8983 44.3213 28.1216 44.1001 28.3344 43.8887C28.7705 43.4562 29.1698 43.0605 29.5399 42.722C29.8479 44.9331 30.2914 46.854 30.705 48.3408C29.2842 49.6574 27.8075 50.5228 26.3763 51.3611C24.398 52.5199 22.5293 53.6134 21.1486 55.7115C20.1162 57.2802 19.6476 59.1958 19.8401 61.0123C16.3248 58.5846 16.2401 54.6492 18.0005 51.9743L18.0001 51.9727ZM24.3026 65.6194C20.6368 63.2009 20.5262 59.1886 22.3114 56.4759C23.5129 54.6502 25.1654 53.6825 27.0786 52.5614C28.6076 51.6652 30.3409 50.6507 31.9751 49.0521C32.2086 48.8238 32.431 48.6021 32.6447 48.3913C34.8355 46.2172 35.5928 45.571 36.9181 46.4454C36.9181 46.4454 36.9181 46.4454 36.919 46.446C36.919 46.446 36.919 46.446 36.92 46.4467C38.2453 47.321 37.9504 48.2736 36.8202 51.146C36.7094 51.4261 36.5952 51.7179 36.4779 52.0228C35.6556 54.157 35.4074 56.1513 35.1891 57.9123C34.9151 60.1148 34.679 62.0169 33.4775 63.8426C31.6923 66.5554 27.9665 68.0366 24.3006 65.6181L24.3026 65.6194ZM41.0238 60.1028C40.7498 62.3053 40.5146 64.2081 39.3125 66.0347C37.5528 68.7087 33.9077 70.1834 30.2922 67.908C32.0362 67.3691 33.6083 66.1815 34.6407 64.6128C36.0208 62.5157 36.2877 60.3641 36.5707 58.0868C36.7754 56.4393 36.9863 54.7402 37.6347 52.9126C39.163 52.7056 41.1002 52.3567 43.2509 51.7678C43.0863 52.2418 42.8807 52.7653 42.6551 53.3381C42.5451 53.6173 42.4302 53.91 42.3129 54.215C41.4906 56.3491 41.2424 58.3435 41.0241 60.1044L41.0238 60.1028ZM68.7794 36.4911C70.2012 38.3398 70.7977 40.5855 70.4591 42.8122C70.0967 45.1997 68.6818 47.4172 66.5779 48.8977C63.3328 51.1813 59.327 51.8784 55.4545 52.5523C53.642 52.868 51.7678 53.193 49.98 53.678C47.7409 54.2851 45.5118 54.896 43.3345 55.498C43.418 55.2402 43.5102 54.9798 43.611 54.7168C43.7274 54.4154 43.8413 54.1262 43.9494 53.85C44.3307 52.8821 44.6594 52.0449 44.8489 51.2967C46.1663 50.8782 47.5421 50.369 48.9333 49.7476C53.9543 47.5079 58.1531 44.3156 61.4122 40.2586C63.0257 38.2501 64.087 35.8078 64.5368 33.1776C66.2939 34.0017 67.7193 35.1145 68.7788 36.492L68.7794 36.4911ZM43.7786 14.8744C48.2395 13.735 52.8575 14.3984 56.5011 16.6923C60.0449 19.1402 62.4753 23.1255 63.1889 27.6802C63.8672 32.01 62.8248 36.2752 60.3278 39.3833C53.5625 47.8056 43.9264 50.5365 38.2096 51.4203C38.7245 50.1081 39.1224 49.0537 39.1824 48.1117C39.2347 47.2785 39.0098 46.5753 38.4978 45.9831L53.1329 37.5982C53.4671 37.4071 53.5821 36.9811 53.3905 36.6474C53.1988 36.3138 52.7738 36.1975 52.4406 36.3892L39.4878 43.8094L49.8836 28.0126C50.0948 27.6917 50.0058 27.2589 49.6851 27.0474C49.3645 26.8358 48.9322 26.9247 48.7211 27.2456L38.3253 43.0424L40.0248 28.198C40.0683 27.8151 39.7948 27.4706 39.413 27.4259C39.0305 27.3822 38.6859 27.6567 38.642 28.038L36.7211 44.8109C35.9756 44.5735 35.2405 44.6433 34.4974 45.0208C33.6572 45.4467 32.846 46.2298 31.8448 47.2211C30.4004 41.6128 29.1049 31.6699 34.1652 22.1227C36.0324 18.5991 39.5355 15.9573 43.7767 14.8731L43.7786 14.8744ZM22.9693 20.1258C23.4979 17.606 24.9764 15.4291 27.0239 14.1547C28.9338 12.9647 31.2294 12.6285 33.4877 13.2062C35.1714 13.6371 36.7541 14.5088 38.2036 15.8003C35.9673 17.2519 34.1446 19.1918 32.937 21.4681C30.4995 26.0672 29.2254 31.189 29.1519 36.6928C29.1315 38.2186 29.206 39.6846 29.3417 41.0618C28.7298 41.5313 28.0912 42.164 27.3534 42.8967C27.1419 43.1061 26.9214 43.325 26.6907 43.551C26.4891 43.7475 26.2865 43.9351 26.0829 44.1136C25.7769 41.8719 25.4582 39.58 25.1313 37.2814C24.8704 35.4463 24.4309 33.5934 24.0045 31.8006C23.0942 27.9713 22.1529 24.0117 22.9699 20.1248L22.9693 20.1258Z" fill="#3A1209"/>
</svg>
