<svg width="51" height="55" viewBox="0 0 51 55" fill="none" xmlns="http://www.w3.org/2000/svg">
<path d="M43.7698 10.1039C42.5542 9.8509 41.2621 9.64777 40.1462 9.48027L39.4628 9.37691C38.5213 9.23615 37.5495 9.09005 36.5902 8.92434C34.7677 8.61073 32.3863 8.12963 30.1437 7.18347C28.0222 6.29076 26.2923 5.10582 24.8524 3.56095C24.7101 3.40771 24.5553 3.26518 24.3898 3.13154C23.3041 2.26913 21.8108 1.93235 20.492 2.25665C18.9596 2.6344 17.6497 3.9102 17.2314 5.43368C16.9235 6.56159 17.0464 7.79998 17.1781 9.1132C17.2315 9.64598 17.2866 10.1984 17.3116 10.7507C17.4433 13.55 16.5159 15.7292 14.7664 16.7288C14.2289 17.0353 13.6612 17.201 13.161 17.3471C12.8887 17.4273 12.6306 17.5021 12.3939 17.593C9.66196 18.6479 8.66711 22.3327 8.89137 25.5187C8.90561 25.7218 8.92337 25.9285 8.94116 26.1352C9.04261 27.3148 9.15652 28.653 8.71869 29.9395C8.12602 31.6803 6.77516 32.7762 5.47058 33.8364C4.80494 34.3763 4.17848 34.8859 3.67124 35.4614C2.12816 37.2165 1.69214 39.8448 2.58738 42.0044C3.47905 44.164 5.64501 45.7159 7.97653 45.8674C8.16163 45.8799 8.34492 45.8941 8.52646 45.9119C8.52824 45.9119 8.53007 45.9119 8.53185 45.9119C10.5733 46.099 12.7232 46.6104 15.3003 47.521C16.4928 47.9433 17.6799 48.4155 18.7959 48.8627L19.1269 48.9963C19.7213 49.2369 20.3158 49.4757 20.9102 49.7091C21.268 49.8498 21.6809 50.0227 22.117 50.2044L22.1508 50.2187C24.8578 51.3484 29.8964 53.4492 31.8916 51.9988C33.2246 51.0312 32.9843 49.8 32.445 47.7045C32.1389 46.5142 31.8204 45.2812 31.9948 44.0571C32.2974 41.9384 33.9756 40.6145 35.4564 39.4474C35.7519 39.214 36.0313 38.9948 36.2965 38.7721C39.1175 36.404 40.826 32.7887 40.867 29.1038C40.8705 28.7189 40.8581 28.3322 40.8457 27.9242C40.8119 26.8604 40.7745 25.761 41.0396 24.6438C41.5843 22.3434 43.1914 20.6916 44.7451 19.0951C45.0993 18.7298 45.4357 18.3859 45.7596 18.0331C46.4769 17.2509 48.7372 14.5247 47.6729 12.2938C47.0304 10.9485 45.4162 10.446 43.7645 10.1039H43.7698Z" fill="#F87276"/>
<path d="M30.5587 6.19799C28.9053 9.39284 28.8306 13.9081 28.7789 16.6806C28.7131 20.2354 27.631 24.2802 24.422 25.7983C23.0338 26.4523 21.3163 26.6038 20.3285 27.7798C18.4615 30.0035 20.8571 33.5155 19.8871 36.2542C19.1022 38.4691 16.4361 39.3867 15.1048 41.3236C14.0227 42.9005 14.0263 46.2219 14.95 48.5312C12.8357 47.7828 10.6821 47.1841 8.43957 46.9774C7.66892 44.9247 7.19371 42.1949 7.62798 40.7035C8.29896 38.4031 10.9633 37.4249 12.6025 35.6769C13.8217 34.3744 14.4748 32.5587 14.3645 30.7768C14.2381 28.758 13.2022 26.6625 14.0067 24.8058C14.9197 22.7015 17.6108 22.1794 19.4333 20.7878C21.8254 18.9614 22.5817 15.7184 22.8914 12.7231C23.1655 10.0842 23.0517 5.52266 25.061 2.29395C25.2657 2.45788 25.4597 2.63784 25.6395 2.8285C27.0775 4.37336 28.7523 5.43179 30.5641 6.19442L30.5587 6.19799Z" fill="#FDCBCD"/>
<path d="M40.3062 8.42168C39.7402 9.64937 39.3931 11.1835 39.2561 13.0545C39.1849 14.0203 39.1653 14.9878 39.1457 16.0088C39.1137 17.6731 39.0799 19.3961 38.8023 21.1245C38.2381 24.6597 36.6469 27.4714 34.3208 29.0412C33.664 29.4849 32.9931 29.8057 32.3434 30.1157C32.1227 30.2208 31.9038 30.326 31.6867 30.4364C30.1312 31.2205 29.0454 32.1381 28.4634 33.1627C27.691 34.5222 27.6057 36.3255 27.5149 38.2338C27.3939 40.8068 27.255 43.7219 25.226 45.9225C24.822 46.359 24.3825 46.719 23.9962 47.0344C23.7133 47.2642 23.4463 47.4834 23.2256 47.7043C22.4104 48.5187 21.88 49.7571 21.7109 51.195C21.2713 51.0115 20.8691 50.844 20.5238 50.7068C19.8173 50.4288 19.1107 50.1437 18.4023 49.8586C18.7708 48.0215 19.5788 46.4286 20.7677 45.2383C21.113 44.8944 21.46 44.6111 21.7964 44.3367C22.1238 44.0694 22.4336 43.8163 22.6703 43.5598C23.8414 42.2911 23.934 40.3346 24.0407 38.0699C24.1422 35.9406 24.2561 33.5262 25.4396 31.4432C26.3669 29.811 27.942 28.4265 30.1223 27.3271C30.3608 27.206 30.6046 27.0901 30.8466 26.9743C31.4055 26.7088 31.9305 26.4576 32.3754 26.1564C34.4239 24.7719 35.1306 22.0653 35.3691 20.5757C35.6076 19.086 35.6378 17.559 35.668 15.9429C35.6876 14.9201 35.7072 13.8617 35.7855 12.8015C35.9243 10.9252 36.25 9.28766 36.7715 7.87109C37.9462 8.07422 39.1315 8.24528 40.3044 8.42346L40.3062 8.42168Z" fill="#FDCBCD"/>
<path d="M44.204 8.01024C42.9368 7.74475 41.6091 7.53805 40.4647 7.36521L39.7778 7.26185C38.8487 7.12287 37.8876 6.97854 36.9532 6.81639C35.2411 6.52239 33.0145 6.07336 30.9731 5.21273C29.1346 4.4394 27.6449 3.42197 26.4168 2.1034C26.205 1.87533 25.9719 1.65973 25.721 1.45838C24.1263 0.19148 21.9283 -0.298536 19.9847 0.180782C17.687 0.745628 15.8004 2.58629 15.1739 4.87062C14.7628 6.38163 14.9105 7.87839 15.0547 9.32525C15.1081 9.85446 15.158 10.3534 15.1793 10.8505C15.2131 11.5775 15.2095 14.0151 13.7092 14.8721C13.3906 15.0539 12.9884 15.1715 12.563 15.2962C12.2587 15.3853 11.9454 15.4762 11.6269 15.6009C9.82928 16.2941 8.43386 17.7641 7.59558 19.8507C6.91392 21.5452 6.61849 23.6121 6.76443 25.6755C6.78045 25.8893 6.79826 26.1049 6.81605 26.3223C6.90682 27.3878 6.99227 28.3928 6.70038 29.2552C6.30705 30.4116 5.24804 31.2705 4.12856 32.181C3.42376 32.753 2.6976 33.3428 2.07111 34.0538C0.0029997 36.4076 -0.582495 39.9339 0.615302 42.8294C1.81132 45.7249 4.71417 47.8061 7.83769 48.0074C7.99965 48.0181 8.16157 48.0306 8.32531 48.0466C8.33421 48.0466 8.34492 48.0484 8.35381 48.0484C10.2101 48.2195 12.1928 48.6952 14.5902 49.5434C15.7435 49.9514 16.9092 50.4147 18.002 50.8531L18.3313 50.9849C18.9311 51.2272 19.5309 51.4678 20.1307 51.7047C20.4688 51.8366 20.8711 52.0059 21.2982 52.1841L21.332 52.1983C23.8059 53.23 27.1662 54.6306 29.9747 54.6306C31.1689 54.6306 32.2635 54.3775 33.148 53.7343C35.7234 51.8651 35.0541 49.2636 34.5149 47.1753C34.2479 46.1418 33.9969 45.1654 34.1108 44.3653C34.2924 43.0949 35.5009 42.1416 36.7788 41.1331C37.0742 40.8996 37.3785 40.6591 37.6704 40.415C40.9613 37.6513 42.9564 33.4337 43.0045 29.1323C43.0098 28.7011 42.9956 28.2734 42.9814 27.8583C42.9493 26.8925 42.9208 25.9802 43.1202 25.141C43.5295 23.4161 44.8644 22.0423 46.2775 20.5901C46.6282 20.2302 46.9894 19.8595 47.3347 19.4818C48.5485 18.1597 51.1986 14.7207 49.6021 11.3744C48.5556 9.18448 46.2846 8.44502 44.2023 8.01203L44.204 8.01024ZM45.7649 18.0349C45.441 18.3877 45.1064 18.7316 44.7505 19.0969C43.1967 20.6934 41.5895 22.3452 41.0449 24.6456C40.7797 25.7628 40.8153 26.8622 40.8509 27.926C40.8634 28.3358 40.8776 28.7225 40.8723 29.1056C40.8314 32.7904 39.1227 36.404 36.3018 38.7739C36.0366 38.9966 35.7572 39.2176 35.4618 39.4492C33.981 40.6163 32.3026 41.9402 32 44.0588C31.8256 45.283 32.1425 46.5142 32.4504 47.7063C32.9897 49.8017 33.2299 51.0348 31.8968 52.0006C29.9017 53.451 24.8631 51.3502 22.156 50.2205L22.1222 50.2062C21.6862 50.0245 21.2733 49.8516 20.9156 49.7109C20.3211 49.4757 19.7267 49.2369 19.1322 48.9981L18.8011 48.8645C17.6852 48.4172 16.4981 47.945 15.3057 47.5228C12.7285 46.6122 10.5785 46.1008 8.53709 45.9137C8.53531 45.9137 8.53357 45.9137 8.53179 45.9137C8.34847 45.8959 8.16518 45.8817 7.98187 45.8692C5.65034 45.7177 3.48607 44.1658 2.59262 42.0061C1.69917 39.8465 2.13519 37.2165 3.67648 35.4632C4.18194 34.8877 4.81027 34.3781 5.47591 33.8382C6.78228 32.778 8.13313 31.6821 8.72402 29.9412C9.16007 28.6548 9.04617 27.3183 8.9465 26.137C8.9287 25.9303 8.91085 25.7254 8.89661 25.5205C8.67058 22.3345 9.66729 18.6479 12.3993 17.5948C12.6342 17.5039 12.8923 17.4291 13.1664 17.3489C13.6665 17.2028 14.2342 17.0371 14.7717 16.7306C16.5213 15.7292 17.4503 13.55 17.3168 10.7525C17.2919 10.1984 17.2367 9.64775 17.1833 9.11498C17.0534 7.80354 16.9289 6.56337 17.2368 5.43546C17.6532 3.91197 18.9631 2.6344 20.4973 2.25843C21.8143 1.93413 23.3093 2.2709 24.395 3.13332C24.5605 3.26518 24.7172 3.40949 24.8578 3.56273C26.2958 5.10759 28.0276 6.29254 30.1491 7.18525C32.3898 8.12963 34.7711 8.61251 36.5954 8.92612C37.553 9.09183 38.5265 9.23793 39.468 9.37869L40.1515 9.48205C41.2675 9.65133 42.5596 9.85268 43.7751 10.1057C45.425 10.4496 47.041 10.9521 47.6836 12.2956C48.7479 14.5265 46.4893 17.2527 45.7703 18.0349H45.7649Z" fill="#3A1209"/>
</svg>
