<svg width="88" height="77" viewBox="0 0 88 77" fill="none" xmlns="http://www.w3.org/2000/svg">
<path d="M9.27797 49.2673C8.64889 49.3402 7.99256 49.3717 7.3395 49.4089C7.23651 49.4144 7.12458 49.4173 7.01138 49.4247C7.23344 49.7226 7.44698 49.9988 7.66302 50.2661C8.14618 49.9695 8.68791 49.6359 9.27797 49.2673Z" fill="white"/>
<path d="M62.4389 68.6236C63.5099 68.5954 67.2384 67.1363 69.5527 66.0552C68.172 65.1239 66.5807 63.8013 66.4593 61.8118C66.4418 61.5607 66.4222 61.2993 66.4015 61.0424C64.9089 61.9831 61.163 64.326 55.2963 67.8372C58.128 68.3621 60.5765 68.6654 62.4447 68.6204L62.4389 68.6236Z" fill="white"/>
<path d="M20.122 41.83C24.6039 36.4404 33.1109 27.9595 38.6276 23.9128C42.7722 20.8786 46.2701 20.9159 48.4755 21.4855C49.4637 21.7387 50.4105 22.1591 51.2894 22.7202C51.7877 22.4037 52.2459 22.1099 52.6614 21.8478C52.317 21.381 52.0076 20.9624 51.7678 20.6066C50.1463 18.223 50.9215 16.3989 51.3812 15.3135C51.7399 14.4708 51.8396 14.2327 51.3251 13.5596C50.5845 13.7562 48.9245 14.8486 47.5712 15.7406C46.7739 16.2645 45.8686 16.8647 44.9023 17.4578C43.5033 18.3228 40.0821 20.7163 37.2995 22.9671C33.5332 26.0139 29.1177 30.1324 24.178 35.2026C21.9701 37.4719 20.1369 39.2602 18.6661 40.6993C15.7523 43.5466 14.1565 45.1058 13.2502 46.7924C15.0443 45.6694 17.0453 44.4102 19.1805 43.0674C19.4687 42.6543 19.7806 42.2429 20.122 41.83Z" fill="white"/>
<path d="M62.9419 50.0673C63.0355 50.5325 63.109 50.9826 63.1794 51.4269L64.7678 50.2617C63.4544 44.1965 61.4542 37.6618 58.8599 31.0743C58.4739 30.0938 57.7545 28.8861 56.9132 27.6304C56.6192 27.8197 56.2909 28.0286 55.9166 28.2634C59.8545 36.8246 62.3233 46.8882 62.9431 50.0628L62.9419 50.0673Z" fill="white"/>
<path d="M36.8199 62.125C31.6421 60.6969 26.4571 59.0156 23.4697 57.5492C22.1341 56.891 19.2408 55.1896 17.8627 52.2732C15.9319 53.4702 14.2276 54.5122 12.8472 55.3441C12.9955 55.4719 13.1438 55.5998 13.2864 55.7309C15.3395 57.587 19.3534 58.9067 35.8867 63.1575C36.9425 63.4294 37.9893 63.6987 39.0213 63.9689C40.3792 64.3193 41.7282 64.6672 43.0546 65.0089C43.562 64.6947 44.0637 64.3838 44.5539 64.0793C42.1755 63.5393 39.4963 62.8632 36.8154 62.1238L36.8199 62.125Z" fill="white"/>
<path d="M36.5515 30.4439C36.3413 30.6274 36.1298 30.8153 35.9171 31.0078L35.4206 32.8026C36.4115 32.1728 37.3897 31.5539 38.3564 30.9416L36.5515 30.4439Z" fill="white"/>
<path d="M53.7577 36.7185L48.4729 55.8239L32.197 51.3358L34.8878 41.6081C34.1209 42.092 33.3528 42.5804 32.5814 43.0631L30.0234 52.3107L49.6262 57.7162L55.3653 36.9686C55.1922 36.4766 55.0145 35.9833 54.8324 35.4888L47.662 33.5116C47.1166 33.8586 46.5541 34.2154 45.98 34.5786L53.752 36.7218L53.7577 36.7185Z" fill="white"/>
<path d="M36.107 30.3213L35.9169 31.0086C36.1298 30.8159 36.3414 30.6277 36.5518 30.444L36.107 30.3213Z" fill="white"/>
<path d="M55.7129 35.7307L54.8375 35.4893C55.0196 35.9838 55.2017 36.4782 55.3704 36.969L55.7129 35.7307Z" fill="white"/>
<path d="M39.509 48.5747C39.5943 48.5983 39.7145 48.5831 39.8708 48.5248L40.7767 47.9923L40.5713 46.883L40.5217 46.8355C40.4857 46.8256 40.4334 46.8401 40.3704 46.8758C40.3073 46.9116 40.2361 46.9595 40.1681 47.0132C40.0943 47.0701 40.0575 47.0986 40.046 47.1051C39.9571 47.182 39.8368 47.3372 39.691 47.5674C39.5452 47.7976 39.4497 48.003 39.4001 48.1825C39.338 48.4068 39.3744 48.5376 39.5135 48.576L39.509 48.5747Z" fill="#EA9673"/>
<path d="M48.4729 55.8238L53.7578 36.7186L45.9858 34.5754C42.5792 36.7412 38.7536 39.1633 34.888 41.6081L32.1972 51.3357L48.4729 55.8238ZM43.2304 38.2826C43.3338 38.258 43.4355 38.2571 43.5298 38.2831C43.6151 38.3066 43.7 38.3493 43.7844 38.4112L43.8785 38.4903C43.9928 38.6184 44.1438 38.9111 44.3346 39.3742C44.3929 39.5303 44.4225 39.6158 44.4187 39.6292L44.4298 39.7289C44.4594 39.8143 44.4644 39.8833 44.4483 39.9416C44.421 40.0403 44.34 40.0711 44.2008 40.0327C44.0526 39.9919 43.881 39.8962 43.6915 39.7426C43.6104 39.6864 43.501 39.5404 43.3576 39.3076C43.2077 39.0635 43.1224 38.8999 43.0986 38.8113C43.0901 38.7896 43.0821 38.7487 43.0688 38.692C43.0555 38.6352 43.0442 38.5886 43.0382 38.558C43.0282 38.5069 43.0259 38.4628 43.0358 38.4269C43.0557 38.3551 43.1179 38.3047 43.2259 38.2813L43.2304 38.2826ZM41.3962 40.3363C41.725 40.2482 41.9716 40.1955 42.1404 40.1793C42.4158 40.1442 42.7504 40.1398 43.134 40.1683C43.5175 40.1968 43.8866 40.26 44.2324 40.3553C44.5017 40.4296 44.729 40.5164 44.9232 40.6182C45.4529 40.9044 45.6613 41.2516 45.5459 41.6689C45.49 41.8708 45.3618 42.0721 45.1646 42.2784C44.9674 42.4848 44.7437 42.6646 44.4993 42.8145C44.2549 42.9644 43.9987 43.087 43.7352 43.1833C43.4718 43.2797 43.2469 43.3239 43.0639 43.3218C42.5532 43.3162 42.2395 43.2973 42.1273 43.2663C42.033 43.2403 41.8718 43.1766 41.6348 43.0726C41.6398 43.0546 41.7113 43.0405 41.8494 43.0303L42.4723 42.8399C42.6032 42.8036 42.6849 42.7875 42.7119 42.7949C43.0485 42.8008 43.3857 42.6475 43.7279 42.3362C44.0702 42.0249 44.2924 41.6757 44.3966 41.2988L44.419 41.2181L44.4172 41.1548L44.3969 41.1057L44.3627 41.0722L44.308 41.0426L44.2407 41.024C44.2407 41.024 44.197 41.0072 44.1566 40.996L44.0578 40.9688C43.7974 40.897 43.3496 40.9087 42.7213 40.9962C42.0931 41.0838 41.6567 41.089 41.4143 41.0222C41.1718 40.9553 40.9799 40.8106 40.8622 40.5898C40.8845 40.509 41.0572 40.4263 41.386 40.3383L41.3962 40.3363ZM39.1213 46.8657C39.2973 46.6487 39.7055 46.4135 40.3388 46.168L40.3774 46.1159C40.4084 46.0037 40.3716 45.6652 40.2624 45.099C40.1544 44.5284 40.1032 44.2245 40.1176 44.1899C40.1646 44.0724 40.3155 44.0513 40.5759 44.1231C40.7375 44.1676 40.8525 44.2235 40.9287 44.2976C41.0203 44.3857 41.0835 44.5238 41.1139 44.7109C41.1443 44.898 41.1638 45.0723 41.1652 45.2418L41.2799 45.9977C41.4992 45.9037 41.7203 45.8729 41.949 45.9022C41.967 45.9071 42.0152 45.7852 42.0912 45.5454C42.1424 45.3953 42.1866 45.253 42.2341 45.1164C42.277 44.9785 42.3277 44.8476 42.3886 44.7147C42.4483 44.5863 42.514 44.4885 42.5947 44.4238C42.6742 44.3637 42.7662 44.3456 42.865 44.3728C43.0446 44.4223 43.1472 44.523 43.174 44.6705C43.2009 44.818 43.1802 45.0151 43.1132 45.2574C43.0871 45.3516 43.0442 45.4894 42.9843 45.6709C42.9232 45.8569 42.8827 45.9858 42.8616 46.0621L42.8417 46.1339L43.7163 46.6406C43.9921 46.8664 44.1686 47.1372 44.2455 47.453C44.3224 47.7688 44.3188 48.0962 44.2245 48.4372C44.0644 49.016 43.7458 49.469 43.2732 49.7974C43.2191 49.8356 43.17 49.8559 43.1189 49.866C43.0576 49.878 42.9738 49.8839 42.8631 49.8823C42.7524 49.8808 42.6903 49.8782 42.6801 49.8802C43.003 49.4815 43.2321 49.0376 43.3674 48.5485C43.4803 48.1402 43.4881 47.7802 43.3952 47.4696C43.3043 47.1693 43.0836 46.9539 42.7274 46.8267L42.4989 46.7444C42.422 46.8825 42.1553 47.3402 41.6987 48.1173L41.9573 49.3138L41.9559 49.3714C41.9323 49.4566 41.8288 49.4812 41.6475 49.4554L41.4854 49.43L41.2929 49.0775C41.1642 48.844 41.0915 48.7226 41.0735 48.7176C41.0062 48.699 40.8823 48.7277 40.7006 48.808C40.519 48.8883 40.3226 48.9693 40.109 49.0601C39.8967 49.1464 39.7249 49.1908 39.595 49.1888C39.4753 49.1848 39.3638 49.1685 39.2605 49.14C38.9687 49.0596 38.7797 48.8867 38.6924 48.626C38.6063 48.3608 38.6057 48.0661 38.6987 47.7295C38.7918 47.393 38.9379 47.1097 39.1418 46.8617L39.1213 46.8657Z" fill="#EA9673"/>
<path d="M41.466 46.9521C41.4851 47.0057 41.5103 47.0369 41.5417 47.0455L41.5552 47.0493L41.7875 46.5766C41.5647 46.578 41.4342 46.5952 41.3973 46.6237C41.4103 46.6467 41.4158 46.6965 41.4254 46.7669C41.4349 46.8372 41.447 46.8985 41.466 46.9521Z" fill="#EA9673"/>
<path d="M61.3344 62.4034C58.6345 65.5949 54.197 65.4771 52.0668 65.4209C50.8482 65.3891 48.0321 64.8782 44.5595 64.0848C44.0694 64.3891 43.5678 64.7 43.0605 65.014C47.5023 66.1471 51.707 67.1762 55.2866 67.8445C61.1544 64.329 64.8989 61.9907 66.3914 61.05C66.1406 57.7114 65.593 54.0833 64.7653 50.2621L63.1769 51.4274C63.9577 56.4141 63.3475 60.0175 61.3286 62.4067L61.3344 62.4034Z" fill="#E5E5E5"/>
<path d="M12.1153 54.7209C12.3699 54.936 12.6123 55.1429 12.8457 55.3473C14.2258 54.5157 15.9298 53.4741 17.8602 52.2776C17.6067 51.7441 17.3983 51.1699 17.2689 50.5548C16.7567 48.1439 17.3986 45.6311 19.181 43.0657C17.0458 44.4086 15.0448 45.6677 13.2507 46.7907C13.1607 46.9591 13.0738 47.1331 12.9972 47.3052C12.3945 48.6456 10.9394 49.0846 9.2792 49.2691C8.68921 49.6376 8.14753 49.9712 7.66442 50.2677C9.37461 52.4005 10.8578 53.6594 12.1186 54.7266L12.1153 54.7209Z" fill="#E5E5E5"/>
<path d="M55.8274 28.0808C55.8541 28.1413 55.8854 28.203 55.9121 28.2635C56.2819 28.0274 56.616 27.8153 56.9088 27.6304C55.869 26.0784 54.6365 24.4539 53.6164 23.1101C53.2772 22.6592 52.962 22.2439 52.6733 21.8552C52.2577 22.1172 51.8052 22.4078 51.3011 22.7276C53.1736 23.9249 54.7587 25.777 55.8319 28.082L55.8274 28.0808Z" fill="#E5E5E5"/>
<path d="M35.4226 32.8026L32.584 43.0642C33.351 42.5803 34.1191 42.0919 34.8905 41.6092L37.4845 32.2314L45.9884 34.5764C46.5625 34.2132 47.1206 33.8552 47.6705 33.5094L38.3584 30.9416C37.3974 31.5507 36.418 32.174 35.4226 32.8026Z" fill="#E5E5E5"/>
<path d="M37.48 32.2305L34.886 41.6082C38.7504 39.1678 42.5773 36.7412 45.984 34.5754L37.48 32.2305Z" fill="#EFBBA8"/>
<path d="M23.4692 57.5547C26.4561 59.0207 31.6405 60.7014 36.8175 62.129C39.4981 62.8682 42.1827 63.5408 44.555 64.084C45.3309 63.6025 46.0851 63.1295 46.8119 62.6683C47.603 62.1669 48.3585 61.6894 49.0751 61.2302C53.2334 58.5665 56.0072 56.6801 56.0072 56.6801L59.7043 53.9713L61.4633 52.6791L63.1782 51.4231C63.1079 50.9787 63.0343 50.5286 62.9407 50.0633C62.3208 46.8885 59.8505 36.8287 55.9136 28.2623C55.4382 28.5659 54.9043 28.9064 54.3175 29.2807C53.8237 29.5985 53.2896 29.939 52.7213 30.299C51.8405 30.8626 50.8737 31.475 49.8472 32.1288C49.4901 32.3539 49.1318 32.5835 48.7564 32.8229C48.3993 33.048 48.0353 33.2808 47.6655 33.5169L55.7117 35.7357L49.6298 57.7225L30.0261 52.3168L32.5843 43.0688C32.1814 43.3199 31.7817 43.5767 31.3788 43.8278C30.9759 44.0789 30.5762 44.3358 30.1733 44.5869C26.984 46.5954 23.8799 48.5404 21.0767 50.2884C20.5268 50.6342 19.9851 50.9678 19.4593 51.2961C18.9107 51.6374 18.3747 51.9677 17.8559 52.2882C19.2351 55.1991 22.1268 56.9045 23.4622 57.5625L23.4692 57.5547Z" fill="#5A4E4C"/>
<path d="M31.1319 35.5172C31.7587 35.1202 32.3857 34.7233 33.0125 34.3263C33.4167 34.0707 33.815 33.8184 34.2192 33.5628C34.6233 33.3072 35.023 33.0504 35.4259 32.7993L36.1122 30.318L38.3617 30.9383C38.7257 30.7055 39.0942 30.4739 39.4525 30.2443C39.821 30.0127 40.185 29.7799 40.5432 29.5503C43.1036 27.9286 45.4837 26.4167 47.5482 25.1026C48.2406 24.6609 48.9019 24.2444 49.5185 23.8494C50.1581 23.4415 50.7564 23.0607 51.3063 22.715C50.4228 22.1526 49.476 21.7322 48.4922 21.4802C46.2855 20.9152 42.7843 20.8721 38.6441 23.9076C33.1285 27.9499 24.6199 36.4355 20.1378 41.8252C19.7919 42.2369 19.4788 42.6528 19.1963 43.0627C20.8816 42.0014 22.6496 40.8856 24.459 39.7426C26.654 38.3583 28.9044 36.9313 31.1478 35.512L31.1319 35.5172Z" fill="#5A4E4C"/>
<path d="M59.7095 53.972L56.0125 56.6807C56.0125 56.6807 53.24 58.5626 49.0806 61.2307C48.364 61.6899 47.6073 62.1718 46.8174 62.6687C46.0919 63.1254 45.3377 63.5984 44.5606 64.0843C48.0286 64.8765 50.8492 65.3886 52.0678 65.4204C54.1979 65.4766 58.6309 65.5931 61.3352 62.403C63.3585 60.0151 63.9628 56.4149 63.1833 51.4238L61.4684 52.6798L59.7095 53.972Z" fill="#827775"/>
<path d="M21.0807 50.2811C23.8835 48.5333 26.9885 46.5839 30.1763 44.5801C30.5746 44.3277 30.9775 44.0767 31.3816 43.8211C31.7799 43.5688 32.1828 43.3177 32.5869 43.0621L35.4252 32.8011C35.0269 33.0534 34.6227 33.3089 34.2186 33.5645C33.8203 33.8168 33.4162 34.0724 33.0121 34.328C32.3865 34.7204 31.7641 35.1186 31.1316 35.5188C28.8884 36.938 26.6337 38.3638 24.4433 39.7493C22.634 40.8922 20.8662 42.0079 19.181 43.0691C17.3987 45.6344 16.7511 48.1503 17.269 50.5579C17.4029 51.1743 17.6068 51.7472 17.8603 52.2807C18.379 51.9602 18.9149 51.6299 19.4635 51.2886C19.9892 50.9603 20.5308 50.6268 21.0807 50.2811Z" fill="#827775"/>
<path d="M47.5424 25.1134C45.4732 26.4264 43.0929 27.9385 40.5369 29.5615C40.1786 29.7911 39.8158 30.0194 39.446 30.2556C39.0832 30.4839 38.7192 30.7168 38.3552 30.9496L47.6679 33.5176C48.0376 33.2815 48.4004 33.0532 48.7587 32.8236C49.1285 32.5875 49.4913 32.3591 49.8496 32.1295C50.8819 31.4724 51.8442 30.8588 52.7237 30.2996C53.2921 29.9396 53.8261 29.599 54.3199 29.2812C54.9067 28.907 55.4408 28.5665 55.9162 28.2629C55.8894 28.2024 55.8582 28.1406 55.8314 28.0801C54.764 25.7719 53.1776 23.9242 51.3006 22.7256C50.754 23.0772 50.1569 23.4534 49.5128 23.8602C48.8974 24.2507 48.2348 24.6717 47.5424 25.1134Z" fill="#827775"/>
<path d="M2.74308 49.4556C5.5873 53.8137 8.05164 55.8938 9.84497 57.4122C10.2292 57.7354 10.5889 58.0423 10.9249 58.3475C12.9236 60.1543 15.601 61.3417 24.4421 63.7797C27.2709 64.5597 30.7362 65.467 35.0082 66.5677C36.0594 66.8383 37.106 67.1076 38.138 67.3776C48.3034 70.0069 57.0842 72.2786 62.516 72.1392C64.9395 72.0783 71.9613 69.0209 73.4561 67.8973C74.0266 67.4944 74.349 66.8879 74.3452 66.2204C74.3389 64.9678 73.3441 64.3361 72.1981 63.6048C71.5373 63.1811 69.9885 62.1938 69.9488 61.6033C69.3903 52.4762 66.6093 41.1811 62.1195 29.7915C61.0805 27.1531 58.4921 23.7396 56.4104 20.9924C55.6881 20.0398 55.0686 19.2218 54.6772 18.6454C54.1308 17.8428 54.2437 17.5745 54.6194 16.688C55.1092 15.5288 55.9289 13.5961 53.8488 11.1052C51.8631 8.72729 48.9794 10.6269 45.6418 12.8216C44.8261 13.3597 43.9817 13.914 43.06 14.4857C41.3636 15.5344 37.8343 18.0383 35.0908 20.2519C31.2123 23.3889 26.6936 27.6001 21.6628 32.7713C19.4827 35.0098 17.669 36.7795 16.212 38.2033C12.9216 41.4155 11.0547 43.2381 9.91877 45.6149C9.36243 45.8092 7.95016 45.8834 7.15573 45.9251C5.18886 46.0299 3.76755 46.1015 2.94614 47.0969C2.5617 47.5608 2.3946 48.1473 2.47589 48.7444C2.51137 49.0005 2.60243 49.2478 2.74509 49.4658L2.74308 49.4556ZM7.33489 49.4179C7.9867 49.3851 8.6442 49.3491 9.27326 49.2763C10.9336 49.0918 12.3933 48.654 12.9916 47.3122C13.0682 47.1401 13.155 46.9661 13.2451 46.7977C14.1514 45.111 15.7429 43.5505 18.6614 40.7042C20.1324 39.265 21.9657 37.4766 24.1737 35.2071C29.1093 30.1353 33.5252 26.0164 37.2963 22.9706C40.0792 20.7196 43.5007 18.3259 44.8998 17.4609C45.8661 16.8677 46.7715 16.2674 47.5689 15.7435C48.9268 14.8527 50.5825 13.759 51.3231 13.5624C51.8376 14.2355 51.7392 14.4691 51.3791 15.3164C50.9182 16.4063 50.1486 18.2273 51.7658 20.6099C52.0056 20.9658 52.3151 21.3843 52.6595 21.8512C52.9483 22.2399 53.2636 22.6552 53.6028 23.1061C54.6216 24.4544 55.8552 26.0744 56.895 27.6264C57.7364 28.8823 58.4559 30.09 58.8419 31.0706C61.4365 37.6587 63.4368 44.194 64.7504 50.2598C65.578 54.0811 66.1257 57.7093 66.3765 61.048C66.3973 61.3049 66.4181 61.5618 66.4343 61.8174C66.557 63.8023 68.1471 65.1294 69.5277 66.0607C67.2147 67.1373 63.485 68.6008 62.414 68.6291C60.5446 68.6786 58.1007 68.3765 55.2657 67.8459C51.6803 67.1808 47.4755 66.1517 43.0393 65.0154C41.7118 64.6783 40.3643 64.326 39.0066 63.9758C37.9689 63.7089 36.9234 63.4351 35.8722 63.1646C19.341 58.9151 15.3275 57.5959 13.2747 55.7403C13.1309 55.6138 12.9838 55.4815 12.8355 55.3536C12.6021 55.1492 12.3597 54.9423 12.1051 54.7272C10.8475 53.6657 9.36093 52.4009 7.65061 50.268C7.43457 50.0007 7.22104 49.7245 6.99898 49.4267C7.11218 49.4192 7.22417 49.4163 7.32715 49.4109L7.33489 49.4179Z" fill="#5A4E4C"/>
<path d="M42.7317 40.9902C43.36 40.9027 43.8066 40.8954 44.0683 40.9627L44.3197 41.0321L44.3719 41.0706L44.4061 41.1042L44.4263 41.1532L44.4237 41.2153L44.4013 41.2961C44.3016 41.6742 44.0805 42.019 43.737 42.3348C43.3948 42.6461 43.0564 42.8039 42.721 42.7935C42.694 42.7861 42.6123 42.8022 42.4814 42.8385L41.8584 43.029C41.719 43.0436 41.6475 43.0577 41.6438 43.0712C41.8763 43.1739 42.042 43.2389 42.1363 43.2649C42.2486 43.2959 42.5623 43.3148 43.073 43.3204C43.256 43.3226 43.4809 43.2783 43.7443 43.182C44.0078 43.0856 44.264 42.963 44.5084 42.8131C44.7529 42.6632 44.9766 42.4834 45.1739 42.277C45.3711 42.0706 45.4993 41.8693 45.5551 41.6674C45.6706 41.25 45.4634 40.8983 44.9324 40.6167C44.7382 40.5148 44.511 40.428 44.2416 40.3537C43.8913 40.2571 43.5267 40.1952 43.1431 40.1667C42.7595 40.1382 42.4249 40.1425 42.1494 40.1776C41.9806 40.1939 41.734 40.2466 41.4052 40.3346C41.0764 40.4227 40.9037 40.5055 40.8814 40.5862C41.0048 40.8038 41.1866 40.9505 41.4335 41.0186C41.6805 41.0867 42.1136 41.0757 42.7407 40.9927L42.7317 40.9902Z" fill="#5A4E4C"/>
<path d="M43.0713 38.694C43.0846 38.7508 43.0926 38.7916 43.1011 38.8133C43.1249 38.902 43.2101 39.0655 43.3601 39.3097C43.5035 39.5424 43.6129 39.6885 43.694 39.7447C43.8835 39.8983 44.0552 39.9939 44.2033 40.0348C44.338 40.0719 44.4236 40.0424 44.4509 39.9437C44.4658 39.8899 44.4619 39.8163 44.4324 39.7309L44.4213 39.6313C44.4213 39.6313 44.3967 39.5279 44.3372 39.3763C44.1508 38.9144 43.9999 38.6216 43.881 38.4923L43.7869 38.4132C43.7025 38.3513 43.6132 38.3073 43.5324 38.2851C43.4381 38.2591 43.3408 38.2612 43.2329 38.2846C43.1249 38.3079 43.0627 38.3584 43.0428 38.4302C43.0329 38.4661 43.0352 38.5102 43.0452 38.5612C43.0557 38.5931 43.0625 38.6384 43.0758 38.6952L43.0713 38.694Z" fill="#5A4E4C"/>
<path d="M39.2397 49.1439C39.343 49.1723 39.4544 49.1886 39.5741 49.1926C39.704 49.1946 39.8758 49.1502 40.0881 49.0639C40.3005 48.9776 40.4981 48.892 40.6798 48.8117C40.8615 48.7315 40.9854 48.7029 41.0527 48.7214C41.0707 48.7264 41.1389 48.8466 41.2721 49.0813L41.4646 49.4338L41.6267 49.4592C41.8068 49.4895 41.9114 49.4605 41.935 49.3752L41.9364 49.3176L41.6779 48.1211C42.1345 47.344 42.4012 46.8863 42.4781 46.7481L42.7066 46.8305C43.0628 46.9577 43.288 47.1743 43.3744 47.4734C43.4718 47.7852 43.4595 48.144 43.3466 48.5523C43.2113 49.0414 42.9822 49.4853 42.6593 49.884C42.6728 49.8877 42.7316 49.8846 42.8423 49.8862C42.9531 49.8877 43.0368 49.8818 43.0981 49.8698C43.1492 49.8597 43.1983 49.8395 43.2524 49.8012C43.7307 49.4695 44.0449 49.0153 44.2038 48.441C44.2981 48.0999 44.3062 47.7738 44.2247 47.4567C44.1478 47.1409 43.9714 46.8701 43.6955 46.6444L42.8209 46.1376L42.8408 46.0658C42.8619 45.9895 42.9024 45.8606 42.9635 45.6747C43.0246 45.4887 43.0676 45.3508 43.0924 45.2611C43.1594 45.0188 43.1788 44.8261 43.1532 44.6742C43.1264 44.5267 43.0238 44.426 42.8442 44.3765C42.7454 44.3492 42.6534 44.3673 42.5739 44.4275C42.4945 44.4877 42.4242 44.5843 42.3678 44.7184C42.3126 44.8481 42.2607 44.9835 42.2132 45.1201C42.1703 45.2579 42.1215 45.399 42.0704 45.5491C41.9899 45.7877 41.9429 45.9051 41.9282 45.9059C41.7052 45.8734 41.4841 45.9042 41.2591 46.0015L41.1444 45.2455C41.1429 45.0761 41.1292 44.8984 41.0931 44.7146C41.0627 44.5275 40.9994 44.3894 40.9078 44.3013C40.8317 44.2272 40.7166 44.1713 40.555 44.1268C40.2946 44.0549 40.1437 44.0761 40.0968 44.1936C40.0868 44.2295 40.1291 44.5309 40.2416 45.1028C40.3507 45.6689 40.3875 46.0075 40.3565 46.1196L40.3179 46.1718C39.6833 46.4218 39.2764 46.6524 39.1004 46.8695C38.8965 47.1175 38.748 47.4098 38.6574 47.7373C38.5668 48.0649 38.565 48.3686 38.6511 48.6338C38.7372 48.8991 38.9274 49.0674 39.2192 49.1479L39.2397 49.1439ZM41.7874 46.5722L41.5553 47.0442L41.5418 47.0405C41.5104 47.0318 41.4852 47.0007 41.4662 46.9472C41.4472 46.8937 41.4351 46.8324 41.4255 46.7621C41.416 46.6919 41.406 46.6408 41.3975 46.6192C41.4299 46.5895 41.5602 46.5723 41.7874 46.5722ZM39.69 47.5681C39.8359 47.3379 39.9549 47.1872 40.0451 47.1058C40.0565 47.0993 40.0934 47.0709 40.1671 47.0139C40.2409 46.957 40.3064 46.9123 40.3694 46.8765C40.4324 46.8408 40.4848 46.8263 40.5207 46.8362L40.5704 46.8837L40.7758 47.9931L39.8698 48.5256C39.7135 48.5839 39.5889 48.5978 39.508 48.5756C39.3733 48.5384 39.3325 48.4064 39.3946 48.1821C39.4442 48.0026 39.5397 47.7971 39.6856 47.5669L39.69 47.5681Z" fill="#5A4E4C"/>
</svg>
