<svg width="86" height="134" viewBox="0 0 86 134" fill="none" xmlns="http://www.w3.org/2000/svg">
<path d="M53.5447 93.2528C52.665 93.6034 51.774 93.8811 50.8789 94.0888L62.5808 123.38C62.6877 123.528 63.5866 123.808 64.847 123.305C66.1075 122.803 66.5616 121.984 66.5401 121.796L54.8957 92.6488C54.4574 92.8653 54.0098 93.0734 53.552 93.2559L53.5447 93.2528Z" fill="#FFD39F"/>
<path d="M40.0504 66.0378C40.4635 67.0716 41.3121 67.6874 42.5797 67.9037C44.5564 66.4006 45.257 64.8694 44.6487 63.347C44.2644 62.3852 43.2366 61.9183 42.0595 61.7196C40.7272 62.954 39.4729 64.5926 40.0525 66.043L40.0504 66.0378Z" fill="#DCAB68"/>
<path d="M42.7965 54.0178C42.6742 53.8162 42.593 53.5981 42.5417 53.38L42.5314 53.3841C42.5314 53.3841 42.5354 53.4242 42.5601 53.486C42.5067 53.3522 41.9722 52.164 38.9844 52.6152C37.9768 52.7662 37.0557 52.8352 36.22 52.8342L36.1696 52.8722C33.6914 54.5991 34.1179 55.8304 34.1764 55.9621C34.1518 55.9003 34.1271 55.8684 34.1271 55.8684L34.1168 55.8725C34.2319 56.0711 34.3213 56.28 34.3716 56.5104C34.5104 56.8128 35.3868 57.4832 37.9855 57.193C38.9221 57.0882 39.7815 57.0438 40.5687 57.0581L40.6459 56.9975C42.7329 55.4265 42.9116 54.3357 42.7986 54.023L42.7965 54.0178Z" fill="#DCAB68"/>
<path d="M34.7112 34.5832C34.5384 34.3599 34.5559 34.3589 34.4995 34.0534C34.3176 33.5535 33.6564 32.5409 31.2902 33.0247C30.1663 33.2579 29.1577 33.3617 28.2407 33.3812C25.8657 34.8583 26.5874 36.2462 26.6172 36.3059C26.7549 36.5611 26.8084 36.6053 26.8371 36.8563C27.0468 37.2915 27.9489 37.8919 30.1473 37.6301C31.0972 37.5139 31.969 37.4707 32.7645 37.4757L32.8385 37.4223C34.6135 36.1009 34.856 35.0502 34.706 34.5853L34.7112 34.5832Z" fill="#DCAB68"/>
<path d="M12.0353 35.4193L32.954 81.1608L33.0074 81.2945C33.0423 81.382 33.0721 81.4715 33.0967 81.563C33.1152 81.6093 33.1255 81.6648 33.144 81.7111C35.396 87.3475 40.7814 90.8233 46.5061 90.9386C47.0174 90.9494 47.5288 90.9305 48.0422 90.8868C48.533 90.8463 49.0238 90.7759 49.5167 90.6808C50.4192 90.506 51.3207 90.2541 52.2057 89.9014C52.6688 89.7168 53.1165 89.5086 53.5477 89.2891C53.982 89.0624 54.403 88.8171 54.8086 88.5482C55.2296 88.2731 55.632 87.9816 56.0139 87.6685C60.8603 83.7342 62.8222 76.955 60.3872 70.8609L60.3461 70.758C60.303 70.6798 60.2649 70.5996 60.2269 70.5194C60.1961 70.4422 60.1632 70.3599 60.1427 70.2787L43.7893 22.7657L43.7544 22.6484C43.5593 21.9214 43.3508 21.295 43.1227 20.7242L43.1042 20.6779C43.061 20.5997 43.025 20.5246 42.9922 20.4423L42.9593 20.3601C42.9315 20.3055 42.9038 20.251 42.874 20.1914C41.5813 17.2547 39.5846 14.855 37.1678 13.1056C36.7296 12.7854 36.274 12.496 35.8122 12.221C35.5797 12.0871 35.3421 11.9552 35.1066 11.8285C34.8351 11.6863 34.5676 11.5544 34.2898 11.4266C33.7724 11.1916 33.2458 10.9782 32.7068 10.7936C28.9459 9.50229 24.7202 9.51095 20.722 11.1042C12.0567 14.5572 7.7452 24.1446 10.9142 32.927C10.9368 32.9836 10.9563 33.0474 10.9687 33.108L11.0056 33.2006C11.0365 33.2777 11.0642 33.3621 11.0899 33.4413L11.1125 33.4978C11.3365 34.0584 11.6191 34.6612 11.9788 35.3226L12.0343 35.4317L12.0353 35.4193ZM14.2667 18.1776C14.0874 16.9375 14.9472 15.79 16.1882 15.6115C17.3787 15.4411 18.4863 16.2278 18.7347 17.3868C18.8734 17.6892 19.7496 18.3594 22.3477 18.0693C23.2841 17.9644 24.1433 17.9201 24.9304 17.9344L25.0075 17.8738C27.094 16.3031 27.2727 15.2125 27.1597 14.8998C26.5409 13.8885 26.8019 12.5564 27.7829 11.8615C28.806 11.1378 30.2206 11.3789 30.9454 12.4016C31.0523 12.5498 33.0467 15.4811 30.1873 19.1482C31.9431 20.1237 32.8075 21.4962 33.2247 22.5402C33.6788 23.6767 34.2239 25.8918 33.0814 28.3919C36.5095 28.6414 38.2366 30.9638 38.7893 32.5857C39.4172 33.8736 39.7049 36.221 37.9647 38.6731C39.7451 39.6508 40.6199 41.0489 41.0452 42.1135C41.5754 43.4403 41.9713 45.5658 40.7383 48.0185C44.5008 48.2242 46.3001 50.4283 46.8342 51.9742C47.3101 52.9411 48.0875 55.3796 45.8243 58.2845C47.5801 59.2601 48.4446 60.6325 48.8617 61.6765C49.3158 62.813 49.8609 65.0281 48.7184 67.5282C52.1466 67.7777 53.8737 70.1001 54.4263 71.722C55.0542 73.0099 55.342 75.3573 53.6017 77.8095C55.3842 78.7922 56.2569 80.1852 56.6823 81.2498C57.1467 82.412 56.5831 83.7335 55.415 84.199C54.247 84.6645 52.9293 84.0986 52.4629 82.9312C52.0724 81.9541 51.05 81.4851 49.8782 81.2844C48.6069 82.4468 47.4083 83.9856 47.8088 85.4058C47.8303 85.4747 47.8416 85.5477 47.8704 85.6197C48.1005 86.1957 48.0765 86.8074 47.8529 87.3377C47.7632 87.5463 47.6376 87.7394 47.4914 87.9109C47.2567 88.1893 46.9664 88.4182 46.6062 88.5617C46.3592 88.6602 46.102 88.7031 45.8499 88.7141C44.9146 88.747 44.0218 88.2145 43.656 87.2991C43.1362 85.998 42.7598 83.8766 44.0896 81.3376C40.3384 81.0857 38.6214 78.8786 38.1356 77.3492C37.4934 75.9657 37.1624 73.5401 38.7215 71.2317C37.0337 70.1575 36.2146 68.6597 35.8427 67.7289C35.329 66.4432 34.9567 64.3321 36.2834 61.8003C31.7008 61.6174 30.3813 58.9419 30.0259 57.8137C29.4217 56.4806 29.1813 54.0725 30.9884 51.6235C29.3057 50.6368 28.4556 49.2407 28.0262 48.1659C27.5063 46.8648 27.13 44.7434 28.4598 42.2044C24.7086 41.9525 22.9916 39.7453 22.5058 38.216C21.8635 36.8325 21.5326 34.4069 23.0917 32.0985C21.4039 31.0243 20.5847 29.5265 20.2128 28.5957C19.6991 27.31 19.3269 25.1989 20.6536 22.6671C14.968 22.4408 14.3047 18.3771 14.276 18.1858L14.2667 18.1776Z" fill="#DCAB68"/>
<path d="M32.2354 46.4715C32.6485 47.5053 33.6289 48.003 34.8039 48.1965C36.2751 46.9366 37.4553 45.3514 36.8265 43.7776C36.436 42.8003 35.4134 42.3314 34.2415 42.1306C32.905 43.3547 31.6435 44.9902 32.2354 46.4715Z" fill="#DCAB68"/>
<path d="M24.4215 26.9109C24.8346 27.9447 25.6832 28.5605 26.9508 28.7768C28.9274 27.2737 29.6281 25.7424 29.0198 24.22C28.6355 23.2582 27.6077 22.7913 26.4306 22.5926C25.0983 23.827 23.844 25.4656 24.4235 26.916L24.4215 26.9109Z" fill="#DCAB68"/>
<path d="M50.3398 73.7103C50.167 73.4869 50.1845 73.4859 50.1281 73.1805C49.9462 72.6805 49.2851 71.668 46.9188 72.1517C45.7949 72.385 44.7863 72.4887 43.8745 72.5062C41.4995 73.9833 42.2212 75.3712 42.251 75.4309C42.3887 75.6861 42.4422 75.7303 42.4709 75.9813C42.6806 76.4165 43.5827 77.0169 45.7811 76.7551C46.731 76.6389 47.6027 76.5957 48.3982 76.6007L48.4723 76.5473C50.2473 75.2259 50.4898 74.1752 50.3398 73.7103Z" fill="#DCAB68"/>
<path d="M30.198 19.1436C33.0578 15.476 31.0631 12.5445 30.9561 12.3963C30.2312 11.3734 28.8164 11.1323 27.7931 11.856C26.812 12.5511 26.5509 13.8833 27.1698 14.8947C27.2777 15.2095 27.1041 16.2982 25.0173 17.869L24.9402 17.9296C27.2555 17.9609 28.9501 18.4543 30.198 19.1436Z" fill="#FFD869"/>
<path d="M26.9487 28.7721C25.6831 28.5609 24.8325 27.94 24.4194 26.9062C23.8399 25.4558 25.0942 23.8173 26.4265 22.5829C25.2175 22.379 23.856 22.4505 22.864 22.5656C22.0479 22.6583 21.3173 22.6811 20.6505 22.6546C19.3237 25.1866 19.6959 27.2979 20.2097 28.5837C20.5817 29.5146 21.4061 31.0105 23.0889 32.0868C23.6966 31.1888 24.581 30.3118 25.8616 29.5153C26.2631 29.2659 26.6224 29.0154 26.9518 28.7649L26.9487 28.7721Z" fill="#FFD869"/>
<path d="M28.2411 33.3809C29.1549 33.3685 30.1665 33.2576 31.2903 33.0244C33.6543 32.5355 34.3175 33.5531 34.4994 34.053C34.5609 34.3564 34.5383 34.3595 34.711 34.5828C34.8589 35.0425 34.6185 36.0982 32.8437 37.4195L32.7696 37.4729C35.0458 37.496 36.7239 37.978 37.9625 38.659C39.703 36.2067 39.4152 33.859 38.7872 32.571C38.2396 30.9469 36.5092 28.6315 33.0785 28.3768C32.3356 29.9964 30.8918 31.7284 28.2473 33.3665L28.237 33.3706L28.2411 33.3809Z" fill="#FFD869"/>
<path d="M38.985 52.6146C41.9726 52.1634 42.5121 53.3495 42.5604 53.4853C42.5358 53.4236 42.5317 53.3835 42.5317 53.3835L42.542 53.3794C42.5954 53.6025 42.6745 53.8155 42.7968 54.0171C42.9047 54.3319 42.7311 55.4206 40.6443 56.9914L40.5672 57.0519C42.8825 57.0833 44.577 57.5766 45.8249 58.2659C48.0884 55.3607 47.3108 52.922 46.8349 51.9549C46.3007 50.409 44.5012 48.2046 40.7381 47.9989C39.9737 49.5198 38.5866 51.1695 36.2188 52.8285C37.0595 52.8274 37.9754 52.7605 38.9829 52.6094L38.985 52.6146Z" fill="#FFD869"/>
<path d="M43.8703 72.5077C44.7841 72.4954 45.7957 72.3844 46.9144 72.1533C49.2784 71.6644 49.9415 72.682 50.1234 73.1819C50.1849 73.4853 50.1623 73.4884 50.3351 73.7117C50.483 74.1714 50.2426 75.2271 48.4677 76.5485L48.3937 76.6018C50.6699 76.6249 52.3479 77.1069 53.5865 77.7879C55.327 75.3356 55.0392 72.9879 54.4113 71.6999C53.8637 70.0758 52.1332 67.7604 48.7025 67.5057C47.9596 69.1254 46.5159 70.8573 43.8713 72.4954L43.861 72.4995L43.8703 72.5077Z" fill="#FFD869"/>
<path d="M44.0796 81.3239C42.7527 83.856 43.126 85.9848 43.6459 87.2861C44.0118 88.2016 44.9068 88.7393 45.8402 88.7013C46.0923 88.6902 46.3496 88.6473 46.5966 88.5489C46.9569 88.4054 47.2523 88.1744 47.482 87.898C47.6313 87.7193 47.759 87.5313 47.8435 87.3247C48.0671 86.7944 48.0912 86.1826 47.861 85.6065C47.8322 85.5345 47.8158 85.4635 47.7994 85.3926C47.404 83.9701 48.5976 82.4332 49.8692 81.2707C48.6653 81.0647 47.3099 81.1517 46.3178 81.2668C45.4986 81.3667 44.7567 81.3761 44.0765 81.3311L44.0796 81.3239Z" fill="#FFD869"/>
<path d="M42.5796 67.9044C41.314 67.6932 40.4634 67.0723 40.0503 66.0385C39.4708 64.5882 40.7251 62.9496 42.0574 61.7152C40.8484 61.5113 39.4869 61.5828 38.4948 61.6979C37.6788 61.7906 36.9482 61.8134 36.2814 61.7869C34.9545 64.3189 35.3268 66.4302 35.8406 67.716C36.2125 68.6469 37.0369 70.1428 38.7198 71.2191C39.3275 70.3212 40.2119 69.4441 41.4925 68.6476C41.8939 68.3982 42.2532 68.1477 42.5827 67.8972L42.5796 67.9044Z" fill="#FFD869"/>
<path d="M34.8045 48.2024C33.6295 48.0089 32.647 47.506 32.236 46.4774C31.6442 44.9962 32.9057 43.3607 34.2421 42.1366C33.0382 41.9306 31.6829 42.0176 30.6909 42.1327C29.8717 42.2325 29.1298 42.242 28.4496 42.197C27.1228 44.729 27.4961 46.8578 28.016 48.159C28.4455 49.2339 29.3008 50.628 30.9786 51.6169C31.5903 50.7889 32.4212 49.957 33.565 49.1614C33.9798 48.8709 34.402 48.5536 34.8014 48.2096L34.8045 48.2024Z" fill="#FFD869"/>
<path d="M20.6461 22.6606C21.3127 22.687 22.0482 22.6622 22.8589 22.5716C23.8528 22.4616 25.217 22.383 26.4205 22.5889C27.5973 22.7875 28.6248 23.2544 29.009 24.216C29.6192 25.7434 28.9239 27.2723 26.9406 28.7721C26.6112 29.0226 26.2521 29.273 25.8507 29.5224C24.5756 30.3167 23.6862 31.1957 23.0788 32.0936C21.5199 34.4019 21.8507 36.8274 22.4929 38.2108C22.9786 39.7401 24.7005 41.945 28.4461 42.199C29.1261 42.244 29.8678 42.2345 30.6868 42.1347C31.6765 42.0145 33.0335 41.9327 34.2371 42.1386C35.4087 42.3393 36.431 42.8082 36.8214 43.7853C37.4501 45.3589 36.2702 46.9439 34.7994 48.2036C34.4 48.5476 33.978 48.8648 33.5632 49.1553C32.4198 49.9508 31.584 50.7846 30.9776 51.6105C29.1706 54.0594 29.4131 56.4724 30.0151 57.8003C30.3653 58.9305 31.6847 61.6059 36.2719 61.7868C36.9385 61.8132 37.6741 61.7883 38.4848 61.6977C39.4787 61.5878 40.8428 61.5091 42.0464 61.715C43.2232 61.9137 44.2506 62.3806 44.6348 63.3422C45.245 64.8695 44.5497 66.3985 42.5664 67.8983C42.2371 68.1488 41.8779 68.3992 41.4765 68.6486C40.2014 69.4429 39.3121 70.3219 38.7046 71.2197C37.1457 73.528 37.4765 75.9536 38.1187 77.337C38.6044 78.8662 40.3263 81.0712 44.0719 81.3252C44.7519 81.3701 45.4936 81.3607 46.3126 81.2608C47.3023 81.1406 48.6594 81.0588 49.8629 81.2648C51.0345 81.4655 52.0569 81.9344 52.4472 82.9115C52.9115 84.0737 54.2311 84.6447 55.399 84.1792C56.5669 83.7138 57.1325 82.3975 56.6661 81.2301C56.2408 80.1656 55.3682 78.7727 53.5859 77.79C52.3477 77.1091 50.6701 76.6271 48.3945 76.604C47.5972 76.5939 46.7278 76.6423 45.7782 76.7584C43.5754 77.0223 42.6788 76.4199 42.4691 75.9848C42.4384 75.7288 42.387 75.6896 42.2493 75.4345C42.2195 75.3749 41.5001 73.9924 43.8723 72.5105L43.8826 72.5064C46.5244 70.8634 47.9729 69.1297 48.7105 67.5123C49.858 65.0103 49.3078 62.7974 48.8537 61.6609C48.4366 60.617 47.5723 59.2446 45.8167 58.2691C44.5693 57.5799 42.8752 57.0867 40.5605 57.0553C39.7755 57.0462 38.9144 57.0854 37.9782 57.1902C35.3824 57.4855 34.5012 56.8173 34.3655 56.5077C34.3153 56.2774 34.2238 56.0634 34.1108 55.8701L34.1211 55.8659C34.1211 55.8659 34.1458 55.8978 34.1704 55.9595C34.117 55.8258 33.6856 54.5969 36.1628 52.8704L36.2133 52.8324C38.5804 51.1737 39.9671 49.5242 40.7313 48.0036C41.9621 45.5459 41.5663 43.4204 41.0382 42.0988C40.6129 41.0343 39.7403 39.6414 37.9581 38.6587C36.7198 37.9778 35.0422 37.4958 32.7666 37.4727C31.9693 37.4626 31.0999 37.511 30.1503 37.6271C27.9476 37.891 27.0509 37.2886 26.8413 36.8535C26.8106 36.5974 26.7591 36.5583 26.6214 36.3032C26.5916 36.2436 25.8723 34.8611 28.2444 33.3792L28.2547 33.3751C30.8965 31.7321 32.345 29.9984 33.0825 28.3811C34.23 25.879 33.6799 23.6661 33.2258 22.5296C32.8088 21.4857 31.9444 20.1133 30.1889 19.1378C28.9414 18.4486 27.2473 17.9553 24.9326 17.924C24.1476 17.9149 23.2865 17.9541 22.3503 18.0589C19.7545 18.3542 18.8733 17.686 18.7377 17.3764C18.4894 16.2175 17.3819 15.4309 16.1915 15.6012C14.9507 15.7798 14.091 16.9272 14.2703 18.1672C14.299 18.3584 14.9623 22.422 20.6471 22.6483L20.6461 22.6606Z" fill="#EE7A84"/>
<path d="M7.73807 34.8173C8.01135 35.5013 8.34738 36.208 8.76259 36.9785L29.6166 82.5895L29.6475 82.6667C29.6813 82.7962 29.7276 82.9269 29.7769 83.0503C32.7809 90.5688 40.254 95.0009 47.9336 94.5159L59.8962 124.456C60.6585 126.364 63.3022 127.04 65.9213 125.996C68.5403 124.952 69.9924 122.645 69.2301 120.737L57.4072 91.1461C64.0945 86.3709 66.9331 77.4719 63.7524 69.5111C63.7072 69.3979 63.6568 69.2868 63.6013 69.1778L63.5911 69.1521L47.2332 21.642C47.0052 20.8028 46.7618 20.0593 46.4885 19.3753C46.4495 19.2776 46.4074 19.1871 46.3632 19.0914L46.3529 19.0657L46.2789 18.8508C46.2245 18.6996 46.1546 18.5545 46.0611 18.4249C41.4248 8.28394 29.7717 3.5861 19.3778 7.72804C8.98399 11.87 3.78162 23.2728 7.39706 33.8146C7.42063 33.9781 7.47201 34.1365 7.53879 34.2887L7.63128 34.4903L7.6395 34.5109C7.66825 34.6127 7.70213 34.7124 7.74117 34.8102L7.73807 34.8173ZM64.8487 123.312C63.5881 123.814 62.6942 123.532 62.5821 123.386L50.8784 94.0936C51.7737 93.8859 52.6648 93.6082 53.5447 93.2576C54.0078 93.073 54.4503 92.8669 54.8887 92.6505L66.5348 121.799C66.5635 121.99 66.1022 122.806 64.8415 123.308L64.8487 123.312ZM11.0898 33.428C11.0641 33.3488 11.0385 33.2696 11.0056 33.1874L10.9686 33.0948C10.9512 33.0362 10.9337 32.9775 10.9142 32.9138C7.7453 24.1315 12.0515 14.5464 20.7216 11.0913C24.7196 9.49813 28.9451 9.48945 32.7058 10.7808C33.2449 10.9654 33.7715 11.1788 34.2889 11.4138C34.5666 11.5416 34.8341 11.6734 35.1056 11.8156C35.3463 11.9403 35.5787 12.0742 35.8111 12.2081C36.2781 12.481 36.7306 12.7776 37.1667 13.0927C39.5814 14.8369 41.578 17.2366 42.8727 20.1784C42.8953 20.2349 42.9251 20.2946 42.958 20.347L42.9908 20.4293C43.0237 20.5116 43.0617 20.5918 43.0977 20.6669L43.1162 20.7132C43.3443 21.284 43.5528 21.9104 43.7478 22.6374L43.7828 22.7547L60.1355 70.2668C60.156 70.3481 60.1868 70.4252 60.2197 70.5075C60.2526 70.5898 60.2906 70.67 60.3338 70.7482L60.3749 70.851C62.8149 76.943 60.8531 83.722 56.0069 87.6563C55.625 87.9694 55.2226 88.2609 54.8016 88.536C54.3941 88.7998 53.9751 89.0502 53.5408 89.2769C53.1065 89.5036 52.662 89.7046 52.1989 89.8892C51.3138 90.2418 50.4145 90.4989 49.51 90.6686C49.0171 90.7636 48.5243 90.8289 48.0355 90.8746C47.5221 90.9182 47.0108 90.9372 46.4994 90.9263C40.777 90.8162 35.3919 87.3405 33.1379 81.699C33.1173 81.6476 33.0989 81.6013 33.0907 81.5509C33.0609 81.4614 33.0311 81.3719 33.0013 81.2825L32.9479 81.1488L12.0301 35.4081L11.9746 35.2991C11.6129 34.6325 11.3272 34.0369 11.1032 33.4763L11.0806 33.4198L11.0898 33.428Z" fill="#5A4E4C"/>
<path d="M11.0044 33.1949C11.0352 33.2722 11.063 33.3566 11.0887 33.4359C11.063 33.3566 11.0373 33.2773 11.0044 33.1949Z" fill="#5A4E4C"/>
</svg>
