<svg width="121" height="114" viewBox="0 0 121 114" fill="none" xmlns="http://www.w3.org/2000/svg">
<path d="M90.6709 29.4223L92.2925 25.7281L88.2706 26.089C87.6774 26.1399 87.1027 25.8715 86.7699 25.3773C86.4372 24.8831 86.4028 24.2495 86.6704 23.7224L88.2115 20.7269L84.8783 21.2338C84.2891 21.3223 83.6987 21.0882 83.3393 20.6132C82.9761 20.1409 82.8976 19.5102 83.1411 18.9657L84.6782 15.4591L81.1172 16.0027C80.528 16.0912 79.9376 15.8572 79.5782 15.3821C79.215 14.9098 79.1365 14.2791 79.38 13.7346L80.9631 10.1315L77.586 10.5372L73.7285 13.309L105.706 57.7155L109.563 54.9437L111.022 51.8743L107.099 52.2278C106.506 52.2787 105.931 52.0104 105.598 51.5161C105.266 51.0219 105.231 50.3884 105.499 49.8612L107.147 46.6616L103.33 47.0022C102.737 47.0532 102.162 46.7848 101.83 46.2906C101.497 45.7964 101.462 45.1628 101.73 44.6357L103.271 41.6402L99.9379 42.1471C99.3487 42.2356 98.7584 42.0015 98.3989 41.5265C98.0357 41.0542 97.9572 40.4235 98.2007 39.8789L99.7379 36.3724L96.1769 36.916C95.5876 37.0045 94.9973 36.7705 94.6378 36.2954C94.2746 35.8231 94.1961 35.1924 94.4396 34.6479L95.9767 31.1414L92.4158 31.6849C91.8265 31.7734 91.2362 31.5394 90.8768 31.0643C90.5135 30.592 90.435 29.9613 90.6785 29.4168L90.6709 29.4223Z" fill="#AC9A8C"/>
<path d="M9.2025 61.6963L13.1257 61.3428C13.7189 61.2919 14.2936 61.5603 14.6264 62.0545C14.9591 62.5487 14.9973 63.1795 14.7259 63.7094L13.0775 66.9091L16.8944 66.5684C17.4876 66.5175 18.0623 66.7859 18.395 67.2801C18.7278 67.7744 18.766 68.4051 18.4946 68.935L16.9535 71.9305L20.2867 71.4236C20.8759 71.3351 21.4662 71.5692 21.8257 72.0443C22.1889 72.5166 22.2674 73.1472 22.0239 73.6917L20.4023 77.386L24.4243 77.0251C25.0174 76.9742 25.5921 77.2426 25.9249 77.7368C26.2576 78.231 26.2958 78.8618 26.0245 79.3917L24.376 82.5913L28.193 82.2507C28.7862 82.1998 29.3608 82.4682 29.6936 82.9624C30.0263 83.4566 30.0608 84.0901 29.7932 84.6173L28.1448 87.8169L31.9617 87.4763C32.5549 87.4253 33.1295 87.6938 33.4623 88.188C33.7951 88.6822 33.8332 89.313 33.5619 89.8429L32.0208 92.8383L35.3539 92.3315C35.9431 92.243 36.5335 92.477 36.8929 92.9521C37.2561 93.4244 37.3347 94.055 37.0912 94.5996L35.554 98.1061L39.1151 97.5625C39.7043 97.474 40.2946 97.7081 40.654 98.1831C41.0172 98.6555 41.0958 99.2861 40.8523 99.8306L39.2691 103.434L42.6463 103.028L46.6675 100.139L14.6905 55.732L10.6692 58.6215L9.21013 61.6908L9.2025 61.6963Z" fill="#AC9A8C"/>
<path d="M68.6718 16.1947C65.7964 17.6428 61.5444 19.7395 57.3641 21.6228C54.4756 22.9244 50.8937 25.117 47.9001 27.0832C47.0999 30.378 46.4049 33.7706 45.8021 37.195C51.1006 33.3013 55.9005 34.5415 56.1544 34.6132C56.4148 34.6859 56.6606 34.7865 56.9032 34.9067C62.6638 29.0063 70.1387 31.3851 72.3803 32.7484C73.4478 33.3962 74.363 34.2978 75.1245 35.4195C78.5789 35.923 82.9432 37.4011 87.2137 43.2431C89.9206 46.9458 90.8592 49.4129 91.5802 54.7157C91.7868 56.2304 91.3546 61.9461 89.3966 64.5079C89.1018 64.893 88.7919 65.1849 88.491 65.4011C87.9388 65.7979 87.4064 65.9495 87.0008 66.0042C84.6106 66.3125 83.3482 65.1292 82.3374 64.175C81.8186 63.6873 81.3294 63.2246 80.6331 62.8355C78.7302 61.7659 76.7236 61.3309 75.8666 61.144C75.6657 61.0978 75.4545 61.0532 75.2513 60.9798C75.0784 61.1329 74.8896 61.2801 74.684 61.4279C73.0577 62.5964 70.5188 63.5487 68.2524 63.387C67.869 64.6442 67.2061 65.8423 66.1016 66.6359C66.0292 66.6879 65.9606 66.7372 65.8828 66.7815C64.8058 67.4688 63.6007 67.5609 62.4295 67.363L71.1552 79.4801L52.7866 92.6784L49.35 87.9062C48.095 87.6241 47.0646 87.2846 46.5729 87.0432C44.9025 86.2164 43.5674 85.4779 42.4264 84.7039C42.2328 84.5716 42.0459 84.4404 41.8589 84.3091C41.8521 85.1744 41.8455 85.976 41.8464 86.6914C41.8457 87.1077 41.8465 87.494 41.8477 87.8569L49.5075 98.4936C49.7024 98.4113 49.9164 98.3152 50.1474 98.2186C50.5999 98.0205 51.1141 97.7954 51.6756 97.5479C54.3817 96.3542 58.0631 94.6849 60.1705 93.5345L62.0198 92.5234C67.3447 89.6213 71.9466 87.1116 78.3411 82.8057C78.4058 82.7592 78.4722 82.723 78.5414 82.6907L78.7339 82.5408L78.772 82.5134L78.8101 82.486L79.0175 82.3486C79.0702 82.2934 79.1256 82.242 79.1866 82.1982C85.307 77.5118 89.1487 73.9545 93.6004 69.8319L95.1482 68.402C96.8701 66.8126 99.5427 63.9511 101.52 61.7854C101.93 61.3351 102.303 60.9225 102.643 60.5514C102.864 60.3055 103.07 60.0771 103.246 59.8809L70.9466 15.0279C70.7153 15.148 70.4403 15.2878 70.1539 15.4358C69.7178 15.6568 69.2266 15.9057 68.6805 16.1826L68.6718 16.1947Z" fill="#EDE5D8"/>
<path d="M36.4386 78.3258C35.1296 76.3155 34.3001 74.4573 33.8147 72.7561C32.9787 69.8457 33.1223 67.3808 33.4904 65.3319C32.6707 64.2578 32.106 63.1044 31.8306 61.8874C31.2772 59.4497 31.3611 52.2231 37.8032 48.449C38.7968 42.0123 40.0598 35.3878 41.3117 31.653C39.217 33.1581 31.7059 38.6417 27.7718 42.889C24.5886 46.3254 21.1681 49.7532 18.8792 52.0158C18.4427 52.4449 18.0464 52.8335 17.7018 53.1736C17.5257 53.3463 17.3582 53.5071 17.2098 53.6541L36.5575 80.5214C36.5343 80.128 36.5116 79.7112 36.4877 79.2607C36.473 78.9594 36.4566 78.6478 36.4413 78.3296L36.4386 78.3258Z" fill="#EDE5D8"/>
<path d="M59.2528 62.6298C62.4437 64.7256 63.7421 64.5145 64.2297 64.2045C65.5309 63.3793 65.809 60.5233 65.5329 59.2492C64.5525 54.7739 61.5144 47.5618 59.0192 42.7487L58.7672 42.2542C58.1581 41.0634 56.5501 37.8995 55.3442 37.565C55.2994 37.5509 51.8154 36.6531 47.7328 39.5866C46.8417 40.2269 45.9244 41.0476 45.0025 42.1027C44.6245 44.6032 44.2908 47.1009 43.9951 49.5712C44.1692 49.781 44.3565 49.9929 44.5492 50.2124C48.5197 54.6988 53.1908 58.6415 59.2566 62.6271L59.2528 62.6298Z" fill="#D58E30"/>
<path d="M34.8217 61.211C35.0455 62.1878 35.5464 63.052 36.1949 63.8161C36.2565 61.3176 36.396 58.9191 36.6451 56.8575C36.7978 55.5929 36.9747 54.2415 37.1618 52.8482C33.9424 56.3626 34.8078 61.1516 34.8217 61.211Z" fill="#D58E30"/>
<path d="M42.0189 76.6237L47.1491 72.9375C45.391 72.4221 43.7382 71.7963 42.2343 71.1445C42.1418 73.0705 42.0707 74.906 42.0151 76.6264L42.0189 76.6237Z" fill="#D58E30"/>
<path d="M50.4105 70.5945L57.757 65.3158C57.6903 65.2713 57.6236 65.2269 57.569 65.1911C51.9135 61.4705 47.4139 57.7741 43.5412 53.6561C43.024 58.6358 42.6661 63.4434 42.4115 67.8649C44.7219 68.9305 47.462 69.999 50.4105 70.5945Z" fill="#D58E30"/>
<path d="M76.7751 58.2023C77.8722 58.4419 80.0028 58.9609 82.133 60.1616C83.1522 60.7343 83.8636 61.4012 84.4376 61.9415C85.3821 62.8278 85.6906 63.0796 86.6043 62.9601C86.6391 62.9524 86.7709 62.8866 86.9626 62.6391C88.2314 60.9825 88.692 56.2052 88.5426 55.1231C87.886 50.3112 87.1396 48.3357 84.7381 45.049C81.9519 41.236 79.2356 39.6307 76.7628 38.9013C77.0408 39.7929 77.2602 40.7556 77.4143 41.7882C78.0532 46.07 78.6389 52.284 76.7817 58.2034L76.7751 58.2023Z" fill="#D58E30"/>
<path d="M68.6908 60.3405C70.643 60.3872 72.9848 59.0568 73.442 58.48C75.61 52.8396 75.0153 46.5166 74.3791 42.2386C74.0278 39.8809 73.1187 36.7807 70.7919 35.3632C70.7279 35.3226 64.3277 31.8196 59.1925 36.9588C60.0478 38.0824 60.7928 39.47 61.5039 40.8588L61.7462 41.3315C64.2578 46.1676 67.4495 53.6332 68.533 58.5887C68.6295 59.0275 68.6943 59.6392 68.6946 60.3378L68.6908 60.3405Z" fill="#D58E30"/>
<path d="M46.042 83.3284L41.9838 77.6929C41.9571 78.6187 41.9329 79.508 41.9151 80.358C43.036 81.4812 44.2771 82.362 46.0448 83.3322L46.042 83.3284Z" fill="#D58E30"/>
<path d="M37.8084 48.4534C38.3696 48.1252 38.9811 47.8186 39.6407 47.5468C39.371 45.6154 40.0455 43.5022 41.6369 41.3943C43.0105 39.5699 44.4256 38.2124 45.8087 37.1956C46.4115 33.771 47.1065 30.3783 47.9067 27.0834C44.5401 29.2944 41.9237 31.2148 41.8769 31.2542C41.8579 31.2679 41.6598 31.4102 41.3209 31.6537C40.0717 35.3926 38.8059 42.0136 37.8122 48.4507L37.8084 48.4534Z" fill="white"/>
<path d="M41.8528 84.3177C40.0042 82.9783 38.6438 81.4903 37.0698 79.2723C36.8423 78.9565 36.6383 78.6411 36.4371 78.3296C36.4551 78.6515 36.4688 78.9593 36.4834 79.2606C36.5074 79.7111 36.5301 80.1279 36.5533 80.5212L41.8445 87.869C41.8432 87.5062 41.8424 87.1198 41.8432 86.7036C41.8461 85.9855 41.8488 85.1867 41.8556 84.3215L41.8528 84.3177Z" fill="white"/>
<path d="M36.1952 63.8155C37.3097 65.1224 38.866 66.1119 40.2096 66.798C40.886 67.1435 41.6269 67.5062 42.4147 67.8699C42.6654 63.4512 43.0299 58.6447 43.5443 53.6611C43.1058 53.1966 42.6749 52.7267 42.2516 52.2513C41.721 51.6509 41.2083 51.0433 40.7763 50.3952C39.2082 51.0426 38.0397 51.8995 37.1687 52.8488C36.9777 54.2448 36.8019 55.5896 36.652 56.858C36.4001 58.9158 36.2672 61.3153 36.2017 63.8165L36.1952 63.8155Z" fill="#EAB87D"/>
<path d="M38.814 69.5256C37.883 69.0512 37.0391 68.5373 36.2785 67.9867C36.1871 70.5642 36.8404 73.6461 39.577 77.4945C40.397 78.6492 41.1288 79.5612 41.9175 80.3515C41.9353 79.5014 41.9594 78.6121 41.9862 77.6863L41.4902 76.9975L42.0157 76.6199C42.0714 74.8996 42.1452 73.0681 42.235 71.1384C40.9824 70.5948 39.8335 70.0345 38.8123 69.5152L38.814 69.5256Z" fill="#EAB87D"/>
<path d="M44.0875 43.2414C43.2856 44.3027 42.3939 45.8732 42.7033 47.314C42.8691 48.0899 43.3652 48.819 43.9979 49.5771C44.2936 47.1067 44.6274 44.609 45.0054 42.1084C44.699 42.4614 44.3921 42.8377 44.0875 43.2414Z" fill="#EAB87D"/>
<path d="M41.8839 82.1597C41.8944 81.5805 41.9054 80.9779 41.9196 80.3556C41.1282 79.5616 40.3964 78.6496 39.5792 77.4987C36.8464 73.6476 36.1866 70.5647 36.2807 67.991C36.2419 67.9612 36.1965 67.9303 36.1539 67.9032C36.1604 70.7048 36.236 73.4741 36.3328 75.8875C36.3376 76.0226 36.3436 76.1512 36.3495 76.2797C36.3765 76.9994 36.4089 77.6864 36.4411 78.333C36.6424 78.6446 36.8502 78.9572 37.0738 79.2758C38.648 81.4938 40.0084 82.9819 41.8571 84.3213C41.8577 84.1938 41.8584 84.0663 41.8629 83.9361C41.8674 83.3727 41.8763 82.7831 41.8867 82.1635L41.8839 82.1597Z" fill="#AD9E9C"/>
<path d="M42.237 71.1489C42.29 70.083 42.3446 68.9871 42.4099 67.8661C41.6222 67.5024 40.8813 67.1397 40.2049 66.7942C38.8641 66.1119 37.3078 65.1224 36.1906 63.8117L36.1866 63.9185C36.1541 65.2296 36.1446 66.5646 36.1454 67.8979C36.1842 67.9277 36.2296 67.9586 36.2722 67.9857C37.0301 68.5326 37.874 69.0465 38.8078 69.5246C39.829 70.0439 40.9779 70.6042 42.2305 71.1478L42.237 71.1489Z" fill="#AD9E9C"/>
<path d="M39.6396 47.546C38.9734 47.8167 38.3685 48.1244 37.8073 48.4525C37.6995 49.1536 37.5945 49.8585 37.4944 50.5542C37.3815 51.3283 37.2696 52.0958 37.1703 52.8487C38.0413 51.8994 39.2137 51.0397 40.778 50.395C41.2101 51.0431 41.72 51.6469 42.2534 52.2512C42.6767 52.7266 43.1076 53.1966 43.5462 53.6611C43.6855 52.3136 43.8345 50.9476 43.9977 49.5772C43.3651 48.819 42.8651 48.0927 42.7031 47.314C42.3975 45.8704 43.2882 44.3064 44.0874 43.2413C44.392 42.8376 44.6989 42.4612 45.0053 42.1082C45.1716 41.007 45.3483 39.904 45.5354 38.7995C45.6257 38.2668 45.7198 37.7314 45.8102 37.1988C44.431 38.2129 43.0159 39.5703 41.6385 41.3974C40.0509 43.5025 39.3727 45.6184 39.6423 47.5498L39.6396 47.546Z" fill="#AD9E9C"/>
<path d="M92.4528 17.6841C92.0938 17.1855 91.4896 16.9324 90.8796 17.0243L87.318 17.5679L88.8554 14.0609C89.0925 13.5152 89.0204 12.8856 88.6571 12.4132C88.2939 11.9408 87.7034 11.7067 87.1179 11.7925L83.5563 12.3361L85.0937 8.82911C85.3259 8.29273 85.2593 7.67064 84.9091 7.2004C84.5589 6.73016 83.9837 6.48516 83.4041 6.5551L76.772 7.35314C76.501 7.38614 76.239 7.48779 76.0143 7.64925L70.587 11.5489C69.6794 12.0221 62.7553 15.6169 56.0284 18.6429C49.5732 21.5486 40.3258 28.3376 39.9705 28.5986C39.5717 28.8794 30.1911 35.4753 25.3802 40.6644C20.3727 46.07 14.7549 51.4868 14.0172 52.1959L8.42608 56.2133C8.20137 56.3748 8.02539 56.5878 7.90408 56.8366L5.03743 62.8638C4.78672 63.3904 4.83637 64.013 5.17132 64.4942C5.50628 64.9754 6.07174 65.239 6.65847 65.187L10.476 64.8464L8.8274 68.0464C8.55597 68.5764 8.59036 69.21 8.92699 69.7015C9.2598 70.1958 9.83347 70.4708 10.4278 70.4133L14.2454 70.0727L12.5967 73.2727C12.3166 73.8147 12.3636 74.4739 12.7227 74.9724C13.0817 75.471 13.6858 75.7241 14.2959 75.6322L17.8574 75.0886L16.32 78.5956C16.089 79.1254 16.1511 79.7334 16.4882 80.2015C16.8253 80.6696 17.3852 80.9255 17.9589 80.8714L21.7765 80.5308L20.1278 83.7308C19.8564 84.2607 19.8908 84.8944 20.2274 85.3859C20.5602 85.8802 21.1339 86.1552 21.7282 86.0977L25.5458 85.7571L23.8971 88.9571C23.6257 89.4871 23.6601 90.1207 23.9967 90.6122C24.3296 91.1065 24.9032 91.3815 25.4976 91.324L29.3151 90.9834L27.6664 94.1834C27.3863 94.7254 27.4334 95.3846 27.7924 95.8831C28.1514 96.3817 28.7555 96.6348 29.3656 96.5429L32.9272 95.9993L31.3898 99.5063C31.1528 100.052 31.2248 100.682 31.5881 101.154C31.9514 101.626 32.538 101.863 33.1273 101.775L36.6889 101.231L35.1515 104.738C34.9156 105.277 34.9859 105.897 35.3361 106.367C35.6863 106.837 36.2577 107.085 36.8411 107.012L43.4733 106.214C43.7442 106.181 44.0062 106.079 44.2309 105.918L49.7725 101.936C51.0013 101.411 58.2733 98.2997 61.7549 96.393L63.6004 95.3845C68.9254 92.4824 73.5312 89.9699 79.9112 85.6918C80.0267 85.6434 80.1377 85.581 80.2406 85.5071L80.2748 85.4825L80.697 85.1618L81.1356 84.864C81.246 84.7846 81.3472 84.7004 81.4347 84.5971C87.5356 79.9074 91.385 76.3445 95.8368 72.2218L97.3809 70.7947C100.302 68.1012 105.568 62.2039 106.453 61.2099L111.831 57.3458C112.055 57.1843 112.231 56.9712 112.353 56.7223L115.219 50.6952C115.47 50.1686 115.42 49.5459 115.085 49.0647C114.75 48.5836 114.185 48.32 113.598 48.372L109.781 48.7127L111.429 45.5126C111.701 44.9826 111.666 44.349 111.33 43.8574C110.997 43.3632 110.423 43.0882 109.829 43.1457L106.011 43.4863L107.66 40.2863C107.94 39.7443 107.893 39.0851 107.534 38.5865C107.175 38.088 106.571 37.8349 105.961 37.9267L102.399 38.4704L103.937 34.9634C104.174 34.4177 104.102 33.788 103.738 33.3156C103.375 32.8433 102.785 32.6092 102.199 32.695L98.6375 33.2386L100.175 29.7316C100.412 29.1859 100.34 28.5562 99.9766 28.0839C99.6133 27.6115 99.0229 27.3774 98.4373 27.4632L94.8757 28.0069L96.4131 24.4998C96.6442 23.97 96.5821 23.3621 96.245 22.894C95.9079 22.4259 95.3479 22.1699 94.7743 22.224L90.9567 22.5647L92.6054 19.3646C92.8855 18.8226 92.8385 18.1635 92.4795 17.6649L92.4528 17.6841ZM46.6664 100.143L42.6445 103.033L39.2668 103.439L40.8502 99.8349C41.0872 99.2892 41.0152 98.6595 40.6519 98.1871C40.2887 97.7148 39.702 97.478 39.1127 97.5665L35.5511 98.1101L37.0885 94.6031C37.3255 94.0574 37.2535 93.4278 36.8902 92.9554C36.5269 92.483 35.9403 92.2462 35.351 92.3347L32.0173 92.8417L33.5586 89.8457C33.8301 89.3158 33.7956 88.6822 33.459 88.1906C33.1262 87.6964 32.5525 87.4214 31.9582 87.4788L28.1406 87.8195L29.7893 84.6194C30.0607 84.0895 30.0263 83.4558 29.6897 82.9643C29.3569 82.47 28.7832 82.1951 28.1888 82.2525L24.3712 82.5932L26.0199 79.3931C26.2914 78.8632 26.257 78.2295 25.9204 77.738C25.5875 77.2437 25.0138 76.9688 24.4195 77.0262L20.3969 77.3871L22.0187 73.6924C22.2557 73.1468 22.1838 72.5171 21.8205 72.0447C21.4572 71.5723 20.8667 71.3382 20.2812 71.424L16.9475 71.931L18.4889 68.9351C18.7603 68.4051 18.7259 67.7715 18.3893 67.2799C18.0565 66.7857 17.4828 66.5107 16.8884 66.5682L13.0709 66.9088L14.7195 63.7088C14.991 63.1788 14.9566 62.5452 14.6199 62.0536C14.2871 61.5594 13.7134 61.2844 13.1191 61.3419L9.1952 61.6954L10.6545 58.6256L14.6764 55.7357L46.6588 100.148L46.6664 100.143ZM103.239 59.8926C103.058 60.0915 102.853 60.32 102.635 60.5631C102.302 60.9353 101.922 61.3468 101.512 61.7971C99.5351 63.9629 96.8625 66.8244 95.1406 68.4139L93.5927 69.8438C89.1447 73.9638 85.3029 77.5212 79.1785 82.2104C79.1176 82.2542 79.0583 82.3084 79.0094 82.3608L78.802 82.4983L78.764 82.5256L78.7259 82.553L78.5333 82.7029C78.4642 82.7353 78.3977 82.7714 78.333 82.818C71.9384 87.1239 67.3364 89.6337 62.0114 92.5358L60.162 93.5471C58.0545 94.6975 54.3731 96.3668 51.6669 97.5605C51.1054 97.808 50.5913 98.0331 50.1387 98.2312C49.9105 98.3317 49.6937 98.4239 49.4987 98.5063L17.1984 53.6522C17.3468 53.5052 17.5143 53.3444 17.6904 53.1716C18.0378 52.8354 18.4341 52.4468 18.8678 52.0138C21.1596 49.755 24.5775 46.3232 27.7607 42.8867C31.695 38.6392 39.2064 33.1554 41.3012 31.6503C41.6402 31.4067 41.8421 31.2617 41.8573 31.2507C41.9068 31.2151 44.527 29.292 47.8869 27.0799C50.8806 25.1137 54.4598 22.9173 57.3512 21.6194C61.5315 19.736 65.7837 17.6393 68.6592 16.1911C69.2053 15.9142 69.6964 15.6653 70.1326 15.4443C70.4228 15.2935 70.6939 15.1564 70.9253 15.0364L103.226 59.8905L103.239 59.8926ZM92.4084 31.6912L95.97 31.1475L94.4326 34.6545C94.1956 35.2002 94.2676 35.8299 94.6309 36.3023C94.9941 36.7747 95.5846 37.0087 96.1701 36.923L99.7317 36.3793L98.1943 39.8863C97.9573 40.432 98.0293 41.0616 98.3926 41.534C98.7559 42.0064 99.3463 42.2405 99.9318 42.1547L103.266 41.6478L101.724 44.6437C101.453 45.1736 101.487 45.8072 101.824 46.2988C102.157 46.793 102.73 47.068 103.325 47.0106L107.142 46.6699L105.494 49.87C105.222 50.3999 105.256 51.0336 105.593 51.5251C105.926 52.0194 106.5 52.2943 107.094 52.2369L111.018 51.8834L109.559 54.9531L105.7 57.7253L73.718 13.3127L77.5762 10.5405L80.9539 10.1348L79.3705 13.7384C79.1335 14.284 79.2054 14.9137 79.5687 15.3861C79.932 15.8585 80.5187 16.0953 81.108 16.0068L84.6696 15.4631L83.1322 18.9702C82.8952 19.5158 82.9672 20.1455 83.3305 20.6179C83.6938 21.0902 84.2842 21.3243 84.8697 21.2386L88.2034 20.7316L86.662 23.7275C86.3906 24.2575 86.4251 24.8911 86.7617 25.3826C87.0945 25.8769 87.6682 26.1519 88.2625 26.0944L92.2851 25.7335L90.6632 29.4282C90.4262 29.9739 90.4983 30.6036 90.8616 31.0759C91.2248 31.5483 91.8153 31.7824 92.4008 31.6967L92.4084 31.6912Z" fill="#5A4E4C"/>
<path d="M46.0422 83.3287C44.2772 82.3623 43.036 81.4814 41.9124 80.3544C41.8982 80.9767 41.8872 81.5793 41.8767 82.1585C41.8663 82.778 41.8575 83.3676 41.8529 83.931C41.8512 84.0651 41.8516 84.186 41.8472 84.3163C42.0303 84.4503 42.2173 84.5815 42.4146 84.7111C43.5594 85.4823 44.8906 86.2234 46.5608 87.0501C47.0525 87.2916 48.0801 87.6272 49.3377 87.9131L46.0356 83.3277L46.0422 83.3287Z" fill="#5A4E4C"/>
<path d="M36.3317 75.8846C36.2387 73.4683 36.1631 70.6989 36.1528 67.8999C36.1481 66.5693 36.1615 65.2315 36.194 63.9204L36.198 63.8136C35.5485 63.0561 35.0485 62.1853 34.8248 61.2085C34.8109 61.1492 33.9493 56.3574 37.1649 52.8458C37.2681 52.0903 37.3761 51.3255 37.4891 50.5514C37.5892 49.8558 37.6969 49.1547 37.8019 48.4499C31.3572 52.2202 31.276 59.4505 31.8294 61.8882C32.1048 63.1052 32.6695 64.2585 33.4892 65.3326C33.1183 67.3777 32.9775 69.8465 33.8135 72.7568C34.3016 74.4618 35.1284 76.3161 36.4373 78.3264C36.4078 77.6836 36.3754 76.9966 36.3456 76.2731C36.3397 76.1445 36.3338 76.0159 36.329 75.8808L36.3317 75.8846Z" fill="#5A4E4C"/>
<path d="M42.2375 71.1481C43.7414 71.7999 45.3941 72.4256 47.1522 72.941L50.4123 70.5985C47.4648 69.9965 44.7208 68.9307 42.4132 67.8689C42.3478 68.9899 42.2933 70.0859 42.2403 71.1519L42.2375 71.1481Z" fill="#5A4E4C"/>
<path d="M45.0019 42.1073C45.92 41.0549 46.8411 40.2314 47.7323 39.5911C51.8188 36.6548 55.2991 37.5554 55.3439 37.5694C56.5472 37.9002 58.1618 41.0652 58.767 42.2588L59.0191 42.7533C61.5144 47.5666 64.5525 54.7789 65.533 59.2543C65.8118 60.5323 65.5338 63.3883 64.2298 64.2098C63.7384 64.5225 62.4399 64.7337 59.2527 62.6351C53.1905 58.6466 48.5192 54.7038 44.5448 50.22C44.352 50.0004 44.1675 49.7923 43.9906 49.5787C43.8273 50.9491 43.6756 52.3113 43.539 53.6625C47.4091 57.7767 51.9115 61.477 57.567 65.1976C57.6217 65.2333 57.6911 65.2816 57.755 65.3223L59.8611 63.809L62.4289 67.3748C63.5936 67.5716 64.8052 67.4806 65.8822 66.7934C65.9573 66.7452 66.0325 66.697 66.101 66.6478C67.2055 65.8542 67.8722 64.6533 68.2518 63.3988C70.5153 63.5568 73.057 62.6083 74.6833 61.4398C74.8889 61.292 75.0749 61.141 75.2506 60.9917C75.4537 61.0652 75.6612 61.1125 75.8659 61.156C76.7229 61.3429 78.7294 61.7779 80.6323 62.8475C81.322 63.2354 81.8178 63.6991 82.3366 64.1868C83.3511 65.1383 84.6098 66.3244 86.9999 66.016C87.4082 65.9651 87.9417 65.807 88.4901 65.413C88.7948 65.194 89.1008 64.9048 89.3956 64.5198C91.3563 61.9618 91.7858 56.2424 91.5792 54.7277C90.8544 49.4277 89.9158 46.9607 87.2128 43.2553C82.9462 37.4107 78.5781 35.9353 75.1238 35.4319C74.365 34.314 73.4498 33.4123 72.3796 32.7608C70.138 31.3975 62.6633 29.0187 56.9028 34.919C56.6602 34.7988 56.4116 34.6945 56.154 34.6256C55.9028 34.5577 51.1003 33.3136 45.8019 37.2073C45.7077 37.7427 45.6174 38.2753 45.5271 38.8079C45.3438 39.9097 45.1672 41.0126 44.9971 42.1166L45.0019 42.1073ZM76.7596 38.8992C79.2352 39.6324 81.9527 41.2313 84.7352 45.0471C87.1367 48.3339 87.8859 50.3133 88.5398 55.1215C88.6892 56.2037 88.2286 60.9811 86.9597 62.6378C86.7681 62.8853 86.639 62.9549 86.6014 62.9588C85.6915 63.0756 85.3792 62.8265 84.4347 61.9402C83.8634 61.4036 83.1492 60.7329 82.13 60.1602C80.0024 58.9633 77.8718 58.4442 76.7719 58.2009C78.6254 52.284 78.0424 46.0736 77.4046 41.7851C77.2504 40.7525 77.0311 39.7898 76.7531 38.8982L76.7596 38.8992ZM61.7446 41.3378L61.5025 40.865C60.7951 39.4734 60.0463 38.0885 59.1909 36.9649C64.3235 31.8218 70.7266 35.3286 70.7906 35.3693C73.1175 36.7868 74.0294 39.8909 74.3779 42.2448C75.0179 46.5202 75.6089 52.8461 73.4408 58.4866C72.9874 59.0607 70.6428 60.3873 68.6894 60.3472C68.6919 59.6524 68.6271 59.0407 68.5279 58.598C67.4443 53.6424 64.2487 46.1794 61.7408 41.3405L61.7446 41.3378Z" fill="#5A4E4C"/>
<path d="M50.8135 86.2631L49.8216 84.8856L43.2399 75.7456L42.0176 76.624L41.4883 77.0043L41.9843 77.6931L46.0423 83.3285L47.1575 84.8772L49.3441 87.9137L52.7802 92.6854L54.5318 91.4267L52.3507 88.3978L50.8135 86.2631Z" fill="#FFBCBE"/>
<path d="M56.2036 74.1216L56.1452 74.1289L56.1152 74.1273L56.1939 74.1402L56.2036 74.1216Z" fill="white"/>
<path d="M62.3053 67.3522L62.4271 67.3687L62.3283 67.2315L62.3053 67.3522Z" fill="white"/>
<path d="M62.3272 67.2324L59.858 63.8035L43.2412 75.7431L54.5348 91.4261L71.1516 79.4865L62.4258 67.3693L62.3041 67.3529L62.3299 67.2362L62.3272 67.2324ZM63.0239 79.3149C63.0798 79.7136 62.9322 80.1026 62.6228 80.3711L62.5238 80.4423C62.2104 80.6732 61.7842 80.7716 61.3771 80.7118C61.2715 80.9263 61.0675 81.0844 60.8228 81.1217C60.2907 81.2095 59.7465 81.2483 59.2054 81.2271C59.1695 81.5705 59.055 81.9011 58.8738 82.1872C58.7246 82.4214 58.5328 82.6285 58.2912 82.7906C58.0762 82.9335 57.835 83.0318 57.5842 83.0849C57.2354 83.1623 56.8677 83.1493 56.5129 83.0578L56.4257 83.386C56.382 83.5502 56.2892 83.6862 56.1625 83.783C55.9803 83.9313 55.735 83.992 55.4866 83.9279C55.0805 83.8213 54.8363 83.402 54.9428 82.9962L55.2766 81.7343L55.2983 81.6841C55.3809 81.4457 55.5695 81.2582 55.812 81.1937C56.0725 81.1221 56.3564 81.1952 56.5507 81.3848C56.641 81.4701 56.7535 81.522 56.8682 81.5609C57.0669 81.6202 57.2818 81.6217 57.4293 81.5215C57.654 81.3601 57.747 80.9756 57.6195 80.6861C57.51 80.4298 57.5477 80.1371 57.7144 79.9191C57.7606 79.8629 57.8123 79.8142 57.8694 79.7732C58.0294 79.6582 58.2331 79.6042 58.4334 79.6335C58.7909 79.6885 59.1434 79.7125 59.4963 79.713C59.4357 79.5486 59.4328 79.3601 59.502 79.1833C59.6355 78.8391 59.9905 78.6418 60.3534 78.7044C60.5919 78.7467 60.7968 78.8305 60.9809 78.9176L60.4221 78.2219C60.1564 77.8931 60.211 77.4151 60.54 77.1497C60.8805 76.8762 61.3476 76.939 61.6133 77.2678L62.6136 78.5125C62.7418 78.6745 62.9598 78.9452 63.0124 79.3231L63.0239 79.3149ZM60.1471 71.484C60.1459 71.5947 60.1364 71.6938 60.1247 71.7658C60.4048 72.1708 60.21 72.6227 60.1018 72.8737C60.0763 72.9266 60.0428 73.0084 60.0277 73.0597C60.0524 73.4231 59.9141 73.7766 59.6423 74.0412C59.5944 74.0871 59.5438 74.1292 59.4905 74.1675C59.1363 74.422 58.6545 74.5315 58.2141 74.4495C58.058 74.4173 57.9133 74.3769 57.7773 74.3244C57.7427 74.4128 57.7064 74.4909 57.6739 74.5662L57.6198 74.6917C57.5765 74.7921 57.536 74.8963 57.5258 74.9383C57.4996 75.2631 57.2763 75.4987 56.9602 75.5814C56.3847 75.7293 55.9924 75.682 55.6616 75.6079C55.5673 75.9182 55.3981 76.213 55.206 76.4839C54.9753 76.8055 54.7144 77.0853 54.4636 77.2828L54.393 77.3452C53.8441 77.7627 53.178 77.889 52.5583 77.7106L52.5144 77.7942C52.3995 78.0038 52.2629 78.2636 52.2312 78.3961C52.1731 78.6284 52.0107 78.8202 51.7863 78.9179C51.349 79.1051 51.1065 79.1696 50.913 79.222C50.7092 79.276 50.5714 79.3173 50.1625 79.536C49.7907 79.7339 49.3287 79.5981 49.1278 79.2227C48.9296 78.8512 49.0693 78.387 49.4411 78.1891C49.9649 77.9052 50.2056 77.8303 50.5113 77.7493C50.6209 77.7168 50.7331 77.6881 50.8939 77.6304C50.9745 77.4454 51.072 77.2598 51.1723 77.0781C51.2872 76.8685 51.4237 76.6086 51.4554 76.4761C51.5178 76.2176 51.7124 76.0143 51.9646 75.9313C52.2196 75.852 52.4963 75.9073 52.6966 76.081C53.0916 76.4208 53.3793 76.2025 53.4718 76.1303C53.9168 75.7932 54.2535 75.1933 54.2223 75.0136C54.1042 74.7693 54.1332 74.4886 54.284 74.2647C54.315 74.2194 54.3552 74.1789 54.3944 74.145C54.4575 74.0881 54.5298 74.0361 54.6055 74.0048C54.7171 73.9593 54.8387 73.9355 54.9625 73.9389C55.1622 73.9513 55.3297 73.9753 55.4831 74.0037C55.6168 74.0289 55.7336 74.0547 55.8374 74.0783C55.9476 74.103 56.0317 74.1235 56.1141 74.1336L56.1441 74.1351L56.1987 74.1306C56.2214 74.0738 56.2468 74.0209 56.2733 73.9614C56.3204 73.8583 56.3815 73.7104 56.4231 73.5997C56.3604 73.4484 56.3489 73.2719 56.3963 73.105C56.4971 72.7554 56.8339 72.5249 57.1984 72.5576L57.3397 72.5773C57.6279 72.6243 57.8709 72.7211 58.0916 72.8108C58.2396 72.8719 58.3811 72.932 58.4925 72.9501C58.5102 72.718 58.5951 72.5068 58.6708 72.3311C58.5361 72.0237 58.5717 71.744 58.6011 71.5843C58.4141 71.2683 58.4655 70.8502 58.751 70.6046C59.0642 70.3334 59.5285 70.3521 59.8077 70.6596C60.0749 70.9584 60.1414 71.2514 60.1406 71.4829L60.1471 71.484Z" fill="white"/>
<path d="M58.7554 70.6019C58.4699 70.8475 58.4184 71.2657 58.6056 71.5817C58.5761 71.7414 58.5443 72.0184 58.6752 72.3286C58.6033 72.5016 58.5184 72.7127 58.4996 72.9515C58.3855 72.9295 58.244 72.8695 58.096 72.8084C57.8753 72.7186 57.6295 72.618 57.344 72.5748L57.2027 72.5551C56.8382 72.5224 56.5013 72.7529 56.4005 73.1026C56.3531 73.2695 56.3619 73.4422 56.4274 73.5973C56.3857 73.7081 56.3208 73.8586 56.2775 73.9591C56.251 74.0185 56.2283 74.0753 56.2028 74.1283L56.1931 74.1468L56.1145 74.134C56.0359 74.1212 55.948 74.1034 55.8377 74.0787C55.734 74.0551 55.6144 74.0255 55.4834 74.0041C55.3366 73.9768 55.1625 73.9517 54.9628 73.9393C54.8363 73.932 54.7146 73.9558 54.6057 74.0052C54.5262 74.0393 54.455 74.0847 54.3946 74.1454C54.3555 74.1793 54.3152 74.2198 54.2843 74.2651C54.1334 74.489 54.1082 74.767 54.2225 75.0141C54.2537 75.1938 53.917 75.7938 53.472 76.1309C53.3768 76.1993 53.0917 76.4215 52.6967 76.0816C52.4964 75.9079 52.2197 75.8526 51.9647 75.9319C51.7096 76.0111 51.5178 76.2182 51.4554 76.4767C51.421 76.6055 51.2844 76.8654 51.1722 77.0788C51.0719 77.2606 50.9744 77.4461 50.8938 77.6311C50.7331 77.6889 50.6235 77.7214 50.5112 77.7501C50.2055 77.8311 49.9675 77.9098 49.4409 78.19C49.0729 78.3851 48.9294 78.8521 49.1276 79.2237C49.3258 79.5953 49.7905 79.7349 50.1624 79.537C50.5751 79.3155 50.7091 79.277 50.913 79.2229C51.1064 79.1705 51.3527 79.1032 51.7863 78.9188C52.0069 78.8238 52.1694 78.632 52.2313 78.3969C52.2657 78.2682 52.4023 78.0084 52.5145 77.795L52.5584 77.7114C53.1781 77.8898 53.8443 77.7635 54.3932 77.3459L54.4639 77.2836C54.7119 77.0823 54.9756 76.8062 55.2063 76.4845C55.3984 76.2136 55.5638 75.9216 55.662 75.6084C55.9928 75.6826 56.3824 75.7261 56.9607 75.582C57.2768 75.4992 57.5001 75.2636 57.5263 74.9388C57.5365 74.8968 57.577 74.7926 57.6203 74.6922L57.6744 74.5667C57.7069 74.4913 57.7432 74.4133 57.7778 74.3249C57.9111 74.3735 58.0547 74.4205 58.2146 74.4499C58.6551 74.5319 59.1369 74.4225 59.4912 74.168C59.5445 74.1296 59.5978 74.0914 59.643 74.0416C59.9213 73.7781 60.0597 73.4245 60.0284 73.06C60.0435 73.0087 60.0798 72.9307 60.1025 72.8739C60.2107 72.6229 60.4056 72.1711 60.1254 71.7659C60.1371 71.694 60.1493 71.5986 60.1478 71.4842C60.1449 71.2553 60.0795 70.9558 59.815 70.6607C59.5395 70.3504 59.0714 70.3344 58.7582 70.6057L58.7554 70.6019Z" fill="#7A7878"/>
<path d="M61.6236 77.259C61.3579 76.9302 60.8908 76.8674 60.5503 77.141C60.2212 77.4063 60.1667 77.8843 60.4324 78.2132L60.9912 78.9089C60.8071 78.8218 60.6022 78.738 60.3637 78.6957C60.0045 78.6303 59.6458 78.8304 59.5122 79.1747C59.4468 79.3487 59.4497 79.5373 59.5064 79.7044C59.1535 79.7039 58.801 79.6799 58.4436 79.6249C58.2405 79.5917 58.0367 79.6458 57.8795 79.7645C57.8224 79.8056 57.7707 79.8542 57.7245 79.9105C57.554 80.1312 57.5163 80.424 57.6296 80.6776C57.7599 80.9709 57.6631 81.3581 57.4394 81.513C57.2919 81.6132 57.0797 81.6155 56.8782 81.5524C56.7597 81.5162 56.6445 81.4605 56.5607 81.3763C56.3664 81.1867 56.0863 81.1108 55.822 81.1852C55.5757 81.2524 55.3871 81.4399 55.3082 81.6756L55.2866 81.7258L54.9528 82.9878C54.8462 83.3936 55.0904 83.813 55.4966 83.9196C55.7412 83.9864 55.9876 83.9191 56.1725 83.7746C56.2965 83.674 56.3921 83.5418 56.4357 83.3777L56.5229 83.0493C56.874 83.1436 57.2427 83.1501 57.5943 83.0765C57.845 83.0234 58.0864 82.925 58.3013 82.7821C58.543 82.6201 58.7348 82.4129 58.884 82.1787C59.0652 81.8926 59.1796 81.562 59.2155 81.2186C59.7605 81.237 60.301 81.2009 60.8331 81.1132C61.0789 81.0693 61.2856 80.915 61.3875 80.7033C61.7946 80.763 62.217 80.6674 62.537 80.4375L62.636 80.3663C62.9427 80.094 63.0891 79.7115 63.0343 79.3063C62.9817 78.9283 62.7636 78.6576 62.6354 78.4956L61.635 77.2508L61.6236 77.259Z" fill="#7A7878"/>
</svg>
