<svg width="71" height="77" viewBox="0 0 71 77" fill="none" xmlns="http://www.w3.org/2000/svg">
<path d="M57.2627 32.4004C57.5877 30.9275 57.9223 29.4023 58.5558 27.6728C59.4511 25.2392 59.5618 22.7684 58.8726 20.5264C58.6852 19.907 58.1175 19.4158 57.3605 19.0014C57.4431 19.6819 57.1845 20.5345 57.0477 20.7646C56.9181 20.9839 56.6601 21.0808 56.423 21.0184C56.3756 21.006 56.3263 20.9846 56.2781 20.9592C56.0115 20.8004 55.9246 20.4567 56.0826 20.1941C56.187 20.0062 56.2959 19.3212 56.2444 19.0838C56.0859 18.9155 56.0505 18.6655 56.1573 18.4528C55.3366 18.1357 54.4231 17.866 53.5531 17.6078C52.7216 17.3638 51.9346 17.1274 51.2154 16.8581C49.3411 16.1458 48.1076 15.167 46.9203 14.2214C46.0812 13.5575 45.2923 12.9278 44.2508 12.3584C43.6749 12.0423 43.0552 11.6682 42.3991 11.2719C40.3068 10.0083 37.705 8.43328 35.9147 8.5243C35.7779 8.53054 35.5954 8.53327 35.3754 8.53454C33.832 8.53844 30.6262 8.54874 28.8785 11.2185C28.0364 12.5047 27.5696 13.3617 27.1535 14.1223C26.4615 15.3846 25.9632 16.2967 24.4605 17.8611C24.2054 18.1234 23.9492 18.3897 23.6841 18.6578C21.6876 20.7005 19.6339 22.8 18.3107 26.0712L56.3063 36.0594C56.7238 34.7967 56.9894 33.6292 57.2567 32.4072L57.2627 32.4004ZM45.29 18.8013C45.1604 19.0205 44.9024 19.1174 44.6653 19.0551C44.6178 19.0426 44.5686 19.0212 44.5203 18.9959C44.2537 18.8371 44.1669 18.4933 44.3249 18.2308C44.4293 18.0429 44.5381 17.3578 44.4866 17.1205C44.3076 16.9341 44.2786 16.6435 44.4301 16.4215C44.6028 16.1671 44.9507 16.0981 45.2091 16.2716C45.9619 16.782 45.4886 18.4649 45.29 18.8013ZM48.9251 32.5945C48.7954 32.8138 48.5375 32.9107 48.3004 32.8484C48.2529 32.8359 48.2036 32.8145 48.1554 32.7891C47.8888 32.6304 47.8019 32.2866 47.9599 32.0241C48.0644 31.8362 48.1732 31.1511 48.1217 30.9138C47.9427 30.7274 47.9137 30.4368 48.0652 30.2148C48.2379 29.9604 48.5857 29.8913 48.8442 30.0648C49.597 30.5752 49.1236 32.2582 48.9251 32.5945ZM51.6512 25.3172C51.5215 25.5365 51.2635 25.6333 51.0264 25.571C50.979 25.5585 50.9297 25.5371 50.8815 25.5118C50.6149 25.353 50.5281 25.0093 50.686 24.7467C50.7905 24.5588 50.8993 23.8737 50.8478 23.6364C50.6688 23.45 50.6398 23.1594 50.7913 22.9374C50.964 22.683 51.3158 22.615 51.5703 22.7875C52.3231 23.2979 51.8497 24.9809 51.6512 25.3172ZM55.357 30.5734C55.2273 30.7927 54.9694 30.8896 54.7323 30.8272C54.6849 30.8148 54.6356 30.7934 54.5873 30.768C54.3207 30.6092 54.2339 30.2655 54.3918 30.003C54.4963 29.815 54.6052 29.13 54.5537 28.8926C54.3746 28.7062 54.3456 28.4157 54.4971 28.1937C54.6699 27.9392 55.0177 27.8702 55.2762 28.0437C56.029 28.5541 55.5555 30.2371 55.357 30.5734Z" fill="#DAA479"/>
<path d="M25.9239 31.2363L18.2407 29.2163L9.78875 61.2718L17.472 63.2918L25.9239 31.2363Z" fill="white"/>
<path d="M54.0311 38.6294L47.4067 36.8877L38.9551 68.943L45.5794 70.6846L54.0311 38.6294Z" fill="white"/>
<path d="M40.1282 34.9724L33.2036 33.1519L24.7518 65.2072L31.6765 67.0278L40.1282 34.9724Z" fill="white"/>
<path d="M18.2371 29.2146L16.2542 28.6932C16.1413 28.6889 16.0265 28.6756 15.9159 28.6465L15.8685 28.6341C15.7669 28.6031 15.6712 28.5653 15.5827 28.5167L12.2172 27.6318L3.76578 59.687L9.78564 61.2697L18.2371 29.2146Z" fill="#F6D889"/>
<path d="M33.1966 33.1488L25.9243 31.2368L17.4725 63.2923L24.7448 65.2042L33.1966 33.1488Z" fill="#F6D889"/>
<path d="M47.4036 36.8861L40.1313 34.9741L31.6795 67.0296L38.9518 68.9415L47.4036 36.8861Z" fill="#F6D889"/>
<path d="M60.1464 40.2375L54.0356 38.6309L45.5841 70.686L51.6949 72.2927L60.1464 40.2375Z" fill="#F6D889"/>
<path d="M1.49022 62.281L52.391 75.6613C53.2129 75.8774 54.0566 75.3856 54.2732 74.5643L63.5115 39.5317C63.7281 38.7103 63.2363 37.8675 62.4144 37.6514L59.3008 36.8329C59.7322 35.4854 60.0066 34.2528 60.2726 33.0518C60.5882 31.6147 60.8869 30.2576 61.4514 28.7255C62.5767 25.6603 62.7059 22.5106 61.8238 19.6228C60.8894 16.565 57.3109 15.5061 54.4386 14.654C53.6625 14.4246 52.9298 14.2067 52.3193 13.9744C50.8939 13.4351 49.9441 12.6787 48.8471 11.8077C47.9875 11.1257 47.0132 10.3502 45.7435 9.65331C45.2228 9.36865 44.6327 9.01085 44.0062 8.63082C41.5571 7.15099 38.507 5.30629 35.7758 5.44124C35.6776 5.445 35.5418 5.44728 35.3812 5.4473C33.6269 5.4506 28.9713 5.46397 26.3161 9.52462C25.4094 10.9119 24.8869 11.8681 24.4648 12.6355C23.8265 13.8062 23.4715 14.4475 22.2531 15.7191C22.008 15.9756 21.754 16.2339 21.4939 16.4991C19.3078 18.7324 16.8686 21.2368 15.3306 25.2745L11.5136 24.2711C10.6918 24.0551 9.84799 24.5469 9.6314 25.3682L0.393133 60.4008C0.176545 61.2221 0.66835 62.065 1.49022 62.281ZM23.6946 18.6484C23.9557 18.3792 24.2158 18.114 24.4709 17.8517C25.9735 16.2875 26.4756 15.3766 27.1637 14.1134C27.5787 13.3569 28.0465 12.496 28.8885 11.21C30.636 8.54056 33.8415 8.53026 35.3847 8.52635C35.6048 8.52508 35.7871 8.52236 35.924 8.51611C37.7141 8.42511 40.3157 9.9999 42.4077 11.2634C43.0638 11.6597 43.6795 12.0326 44.2592 12.3497C45.3006 12.919 46.0895 13.5486 46.9285 14.2125C48.1197 15.159 49.3491 16.1367 51.2232 16.8489C51.9413 17.1221 52.7293 17.3546 53.5607 17.5985C54.4306 17.8567 55.34 18.1253 56.1646 18.4434C56.0628 18.6531 56.0933 18.906 56.2517 19.0743C56.3032 19.3116 56.1944 19.9966 56.0899 20.1845C55.9309 20.4509 56.0178 20.7947 56.2854 20.9495C56.3286 20.9777 56.379 20.9952 56.4303 21.0087C56.6674 21.071 56.9214 20.9731 57.055 20.7549C57.1917 20.5248 57.4543 19.6733 57.3678 18.9919C58.1247 19.4062 58.6884 19.8964 58.8797 20.5167C59.5638 22.7613 59.4531 25.2319 58.5629 27.6622C57.9294 29.3915 57.5909 30.9155 57.2699 32.3892C57.0027 33.611 56.7361 34.7823 56.3197 36.0409L18.3278 26.0539C19.6498 22.7871 21.7043 20.6839 23.7006 18.6415L23.6946 18.6484ZM12.2192 27.6361L15.5857 28.521C15.6743 28.5696 15.77 28.6075 15.8717 28.6384L15.9191 28.6509C16.0337 28.681 16.1445 28.6932 16.2574 28.6976L60.1446 40.2342L51.6905 72.2935L3.76501 59.6953L12.2192 27.6361Z" fill="#5A4E4C"/>
<path d="M51.5721 22.79C51.3176 22.6176 50.967 22.6816 50.7933 22.9399C50.6418 23.1619 50.6747 23.4534 50.8498 23.6388C50.9013 23.8761 50.7925 24.561 50.688 24.7489C50.529 25.0153 50.6158 25.359 50.8834 25.5138C50.9267 25.5421 50.977 25.5595 51.0284 25.573C51.2654 25.6353 51.5194 25.5374 51.653 25.3192C51.8515 24.983 52.3248 23.3003 51.5721 22.79Z" fill="#5A4E4C"/>
<path d="M55.2792 28.0454C55.0247 27.8729 54.674 27.937 54.5003 28.1953C54.3488 28.4173 54.3818 28.7088 54.5568 28.8941C54.6083 29.1315 54.4995 29.8164 54.395 30.0043C54.236 30.2707 54.3229 30.6144 54.5905 30.7692C54.6337 30.7974 54.684 30.8149 54.7354 30.8284C54.9725 30.8907 55.2264 30.7928 55.36 30.5746C55.5585 30.2383 56.0318 28.5557 55.2792 28.0454Z" fill="#5A4E4C"/>
<path d="M48.8475 30.0649C48.5891 29.8914 48.2424 29.9565 48.0686 30.2148C47.9172 30.4368 47.9502 30.7284 48.1252 30.9137C48.1767 31.151 48.0679 31.8359 47.9634 32.0238C47.8044 32.2902 47.8913 32.6339 48.1589 32.7887C48.2021 32.817 48.2524 32.8344 48.3038 32.8479C48.5408 32.9103 48.7948 32.8123 48.9284 32.5941C49.1269 32.2579 49.6002 30.5752 48.8475 30.0649Z" fill="#5A4E4C"/>
<path d="M45.2089 16.2739C44.9544 16.1015 44.6037 16.1655 44.43 16.4238C44.2785 16.6458 44.3114 16.9373 44.4865 17.1227C44.538 17.36 44.4292 18.0449 44.3247 18.2328C44.1658 18.4992 44.2526 18.8429 44.5201 18.9977C44.5673 19.027 44.6137 19.0434 44.6651 19.0569C44.9021 19.1192 45.1561 19.0213 45.2897 18.8031C45.4882 18.4669 45.9615 16.7842 45.2089 16.2739Z" fill="#5A4E4C"/>
</svg>
