<svg width="43" height="43" viewBox="0 0 43 43" fill="none" xmlns="http://www.w3.org/2000/svg">
<path d="M24.3764 9.71832C23.584 9.98093 22.8124 10.2993 22.1211 10.6173C19.4404 8.37982 16.1343 6.69321 13.2003 8.29318C10.2858 9.88326 9.83632 13.6786 10.1626 17.2123C7.24019 19.1885 4.60847 21.9285 5.2186 25.1835C5.82974 28.4454 9.1801 29.9476 12.5736 30.6205C13.4417 34.1369 15.1443 37.5844 18.4779 38.0167C21.8624 38.4545 24.4673 35.4324 26.2559 32.1851C30.3371 32.1913 33.1965 31.3932 34.7705 29.8039C35.1772 29.3933 35.5042 28.9292 35.7439 28.4253C36.4298 26.9805 36.368 25.2965 35.5706 23.6836C35.0294 22.5899 34.1473 21.486 32.8748 20.3096C32.6494 20.102 32.4231 19.9013 32.1998 19.7113C32.4467 19.0957 32.6846 18.4283 32.8784 17.7502C33.797 14.5405 33.4073 12.1046 31.7203 10.5099C30.0451 8.92689 27.5756 8.65987 24.3764 9.71636L24.3764 9.71832Z" fill="#FAFEFD"/>
<path d="M30.8995 23.8904C29.4411 22.3504 27.4064 21.0044 27.4064 21.0044C27.4064 21.0044 30.7213 14.9853 29.0097 13.3682C27.2991 11.7521 21.3493 15.2807 21.3493 15.2807C21.3493 15.2807 16.8933 10.5847 14.8252 11.712C12.7591 12.8393 14.0319 19.2727 14.0319 19.2727C14.0319 19.2727 10.2542 21.2874 9.05549 23.2835C12.7093 24.2981 16.3392 25.4314 20.1776 25.4976C23.8293 25.6657 27.4776 25.0832 30.8975 23.8904L30.8995 23.8904Z" fill="#FFF41F"/>
<path d="M20.1808 25.4971C16.3423 25.4309 12.7125 24.2976 9.05867 23.283C8.77867 23.7488 8.6378 24.214 8.72021 24.6525C9.15344 26.9658 15.569 27.4641 15.569 27.4641C15.569 27.4641 16.4679 34.1824 18.8023 34.4854C21.1368 34.7884 23.8333 28.5352 23.8333 28.5352C23.8333 28.5352 31.2213 29.1149 32.2303 26.9895C32.6436 26.1193 31.9101 24.9598 30.9007 23.8918C27.4807 25.0846 23.8335 25.6662 20.1808 25.4991L20.1808 25.4971Z" fill="#FFDC10"/>
<path d="M32.4033 27.5589C30.7893 29.1886 25.6882 28.9973 24.2249 28.9056C23.5994 30.2835 21.2157 35.1378 18.8479 34.8311C16.4958 34.5263 15.5139 29.3232 15.2734 27.7801C13.7706 27.6278 8.81027 26.9518 8.37505 24.6307C7.93979 22.3038 12.3357 19.651 13.6296 18.9254C13.3708 17.4578 12.6343 12.3397 14.7132 11.2055C16.791 10.0723 20.47 13.5306 21.5343 14.6022C22.9064 13.8252 27.7046 11.3018 29.429 12.9316C31.1387 14.5467 28.8623 19.3025 28.1069 20.7545C28.625 21.1174 29.6436 21.8649 30.611 22.7586C32.5419 24.5422 33.2612 25.9957 32.746 27.079C32.6615 27.2548 32.5457 27.4151 32.4023 27.5599L32.4033 27.5589ZM23.6136 28.1071C23.7062 28.0136 23.8373 27.962 23.9745 27.9731C26.7103 28.1878 31.2865 28.0269 31.923 26.6853C32.5012 25.4654 29.5451 22.7894 27.2598 21.279C27.0622 21.1477 26.9973 20.8864 27.1119 20.6781C28.3273 18.4703 29.8612 14.5942 28.8021 13.5941C27.7391 12.5901 23.8746 14.2712 21.6888 15.5666C21.5051 15.6753 21.2717 15.6431 21.125 15.4881C19.4942 13.7716 16.4313 11.3077 15.151 12.0059C13.8599 12.709 14.1209 16.7163 14.5867 19.0774C14.6258 19.2741 14.5307 19.4745 14.3538 19.5685C12.2465 20.694 9.00238 23.0167 9.27277 24.4607C9.54116 25.8949 13.3626 26.7186 15.7082 26.9C15.9239 26.9165 16.0961 27.0813 16.1256 27.2938C16.4556 29.7565 17.5189 33.7353 18.9641 33.9222C20.4152 34.111 22.5276 30.5387 23.5172 28.2438C23.5405 28.1908 23.5726 28.1426 23.6116 28.1032L23.6136 28.1071Z" fill="black"/>
</svg>
