<svg width="45" height="46" viewBox="0 0 45 46" fill="none" xmlns="http://www.w3.org/2000/svg">
<path d="M37.3417 13.4689C36.2473 12.9127 35.1162 12.4359 34.0686 12.0427C33.6325 6.92653 31.9736 1.72682 27.2658 0.31687C22.5886 -1.08289 18.158 2.37476 14.8034 6.37234C9.71453 5.36378 4.12838 5.44935 1.35874 9.45508C-1.41702 13.469 0.480353 18.524 3.28872 22.7661C0.512961 27.3117 -1.32734 32.6581 1.67056 36.5885C4.71533 40.5779 10.5684 40.1724 15.8122 38.681C20.0288 42.9516 23.8216 45.1133 27.1109 45.1133C27.9608 45.1133 28.7841 44.9748 29.5586 44.7038C31.7779 43.9255 33.4736 42.1182 34.3336 39.6162C34.9165 37.9189 35.157 35.855 35.0693 33.3081C35.053 32.8578 35.0285 32.4136 34.9959 31.9837C35.8947 31.6047 36.8383 31.1626 37.7472 30.6634C42.0515 28.3019 44.1934 25.3741 44.1139 21.9613C44.0345 18.5729 41.758 15.7163 37.3437 13.4669L37.3417 13.4689Z" fill="#FAFEFD"/>
<path d="M29.2851 34.9502C29.3849 31.8328 28.6859 28.314 28.6859 28.314C28.6859 28.314 38.4051 25.5492 38.3236 22.0874C38.2421 18.6278 28.3985 16.0625 28.3985 16.0625C28.3985 16.0625 28.6941 6.54742 25.3762 5.55312C22.0604 4.56086 16.6556 12.5479 16.6556 12.5479C16.6556 12.5479 10.6414 10.6856 7.31543 11.4985C10.0362 16.3661 12.6081 21.3315 16.5109 25.4106C20.1141 29.4 24.4978 32.6091 29.283 34.9481L29.2851 34.9502Z" fill="#FFF41F"/>
<path d="M16.5155 25.4125C12.6127 21.3335 10.0407 16.3681 7.32002 11.5005C6.54354 11.69 5.91176 12.0241 5.53881 12.5641C3.5701 15.4104 9.6882 22.6293 9.6882 22.6293C9.6882 22.6293 3.59864 30.5205 5.69778 33.2732C7.79692 36.0259 17.1208 32.3727 17.1208 32.3727C17.1208 32.3727 24.16 40.6918 27.4249 39.5467C28.7618 39.0781 29.2143 37.1119 29.2856 34.9521C24.5004 32.6131 20.1187 29.404 16.5135 25.4146L16.5155 25.4125Z" fill="#FFDC10"/>
<path d="M27.007 40.3171C23.6341 40.3171 18.5554 34.7894 17.1369 33.1655C15.05 33.9377 7.51145 36.4703 5.38174 33.6789C3.26629 30.9059 7.68672 24.4959 9.05014 22.6479C7.65411 20.9201 3.2276 15.0379 5.20242 12.1813C7.18335 9.31861 14.5038 11.1666 16.6009 11.7677C17.8665 9.97875 22.4521 3.91311 25.7883 4.91148C29.1224 5.90986 29.316 13.3325 29.2977 15.5533C31.5293 16.1829 39.131 18.5851 39.2125 22.0733C39.2941 25.531 31.9695 28.0738 29.6706 28.7869C29.8275 29.7038 30.1007 31.5416 30.1679 33.4772C30.3024 37.3403 29.528 39.5958 27.8629 40.1786C27.5919 40.2723 27.3045 40.3171 27.0049 40.3171H27.007ZM17.3387 31.7005C17.5323 31.7005 17.7218 31.7841 17.8522 31.9389C20.4588 35.0196 25.3623 39.6346 27.4227 38.9112C29.2957 38.2531 29.0327 32.3953 28.246 28.4446C28.1788 28.1023 28.3846 27.7641 28.7209 27.6683C32.2854 26.6536 37.9225 24.2453 37.8716 22.1039C37.8206 19.9543 32.0653 17.6561 28.4498 16.7127C28.1462 16.6332 27.9383 16.3561 27.9485 16.0423C28.0545 12.5623 27.4594 6.81246 25.4051 6.19713C23.3345 5.5757 19.4175 9.99504 17.4325 12.925C17.2674 13.1695 16.9596 13.2775 16.6784 13.1898C13.3218 12.1528 7.53795 11.1666 6.30904 12.9433C5.08828 14.7078 8.18194 19.5529 10.4197 22.1915C10.6255 22.434 10.6316 22.7844 10.4401 23.035C8.20846 25.9283 5.15144 31.1565 6.45169 32.8599C7.75601 34.5714 13.6744 33.082 17.0962 31.7413C17.1756 31.7107 17.2592 31.6944 17.3407 31.6944L17.3387 31.7005Z" fill="black"/>
</svg>
