<svg width="57" height="54" viewBox="0 0 57 54" fill="none" xmlns="http://www.w3.org/2000/svg">
<path d="M8.40224 14.2296C9.82103 12.7601 11.5069 11.6594 13.4139 10.9561C13.4574 10.9405 13.5018 10.9246 13.5445 10.9094C16.7157 9.77393 19.6228 9.94927 22.6652 11.5173C24.2033 8.07501 27.2759 5.84667 29.9033 4.87831C31.7602 4.19507 33.704 3.93484 35.6789 4.10433C40.4092 4.50551 44.7665 7.32834 47.3432 11.6591C47.7559 12.3143 48.1169 13.0085 48.4175 13.7222C48.7608 14.5383 49.0314 15.3967 49.2222 16.2756C49.2524 16.3998 49.2824 16.5322 49.316 16.689C49.4893 17.4902 49.6026 18.3037 49.6544 19.1055C49.7916 21.232 49.4988 23.3917 48.8052 25.3606C48.3012 27.2563 47.5371 29.2627 46.5351 31.3275C45.9405 32.553 45.2492 33.8255 44.4813 35.1069C43.2721 37.1273 41.8417 39.2331 40.1081 41.5436C38.7788 43.3144 37.1798 44.5436 35.3561 45.1966C35.3181 45.2102 35.28 45.2238 35.2455 45.2362C33.4669 45.8464 31.5087 45.9123 29.2587 45.4373C26.663 44.8886 24.1745 44.2106 21.8609 43.4208C20.412 42.9259 19.0346 42.388 17.7666 41.8212C15.7325 40.9119 13.9014 39.8982 12.3233 38.8083C9.67705 37.2753 7.52958 34.9808 6.10731 32.1657C5.31266 30.6807 4.78603 29.0956 4.54486 27.4533C3.69993 22.5475 5.14103 17.6056 8.40165 14.2308L8.40224 14.2296Z" fill="#FAFEFD"/>
<path d="M33.2252 37.4931C38.8776 34.4403 42.3135 28.8865 44.9197 23.0467C45.7579 21.2358 46.2903 19.3309 46.4661 17.3931C46.61 18.0606 46.7036 18.7278 46.7462 19.3897C46.8642 21.211 46.6046 22.9917 46.0166 24.6128C45.5235 26.5046 44.7806 28.3816 43.9076 30.1784C43.3108 31.4088 42.6528 32.6028 41.9733 33.737C40.5484 36.118 39.0274 38.2449 37.7668 39.9247C36.6781 41.3762 35.4899 42.2067 34.2644 42.6271C32.7975 43.1308 31.2745 43.046 29.7982 42.7348C27.7682 42.3058 25.2916 41.6839 22.7333 40.8109C26.4128 40.4232 29.9497 39.2919 33.224 37.4925L33.2252 37.4931Z" fill="#F467CC"/>
<path d="M18.8837 39.3083C17.1018 38.5122 15.3669 37.5786 13.8037 36.4874C11.6555 35.2682 9.81028 33.3635 8.59537 30.9447C7.96358 29.7717 7.5221 28.4957 7.32063 27.1072C7.3205 27.1011 7.31944 27.0954 7.31749 27.0899C6.61047 23.0235 7.81297 19.0068 10.4084 16.3203C11.4915 15.1991 12.817 14.3092 14.3484 13.7456C17.2288 12.6836 19.9506 12.8189 23.7587 15.7596C24.1465 16.0596 24.3305 16.145 24.4304 15.9497C24.4807 15.8529 24.5099 15.6829 24.5343 15.4338C24.9126 11.4729 27.9589 8.72821 30.8393 7.66621C32.3299 7.11719 33.8716 6.9283 35.385 7.05744C39.1485 7.37616 42.7256 9.66311 44.8496 13.2549C45.1952 13.8001 45.4857 14.3599 45.7264 14.9324C46.0113 15.6109 46.2277 16.3067 46.3795 17.0164C46.4103 17.1425 46.439 17.2682 46.4655 17.3938C46.2897 19.3316 45.7573 21.2365 44.9191 23.0474C42.3132 28.8881 38.8772 34.4419 33.2246 37.4938C29.9509 39.2919 26.4143 40.4242 22.7339 40.8121C21.4554 40.3759 20.1569 39.8783 18.8828 39.3086L18.8837 39.3083Z" fill="#FF99E5"/>
<path d="M41.4299 22.3158C41.6959 22.9785 40.9786 23.89 39.8298 24.3504C38.6801 24.8112 37.5327 24.6471 37.2665 23.9835C37.0006 23.3207 37.7178 22.4093 38.8666 21.9489C40.0163 21.4881 41.1637 21.6522 41.4299 22.3158Z" fill="#F467CC"/>
<path d="M20.3088 30.2618C20.5351 30.9397 19.7651 31.8066 18.5907 32.1984C17.4163 32.5903 16.2803 32.3578 16.0539 31.6798C15.8276 31.0019 16.5976 30.135 17.772 29.7432C18.9464 29.3513 20.0824 29.5839 20.3088 30.2618Z" fill="#F467CC"/>
<path d="M29.5539 29.6622C28.0085 30.238 26.0021 29.9775 24.9949 28.096C24.8589 27.8419 24.9546 27.5264 25.2088 27.3904C25.4611 27.255 25.7785 27.35 25.9145 27.6041C26.6726 29.0214 28.1511 29.073 29.19 28.6857C29.1927 28.6847 29.1954 28.6838 29.1982 28.6828C30.2074 28.304 31.2877 27.2892 31.0112 25.677C30.9629 25.3935 31.1526 25.1231 31.4373 25.0754C31.7208 25.0271 31.9906 25.2179 32.0389 25.5013C32.4221 27.7402 30.9448 29.1406 29.5642 29.6595C29.5606 29.6608 29.557 29.6621 29.5533 29.6634L29.5539 29.6622Z" fill="#000100"/>
<path d="M19.1955 27.493C18.7523 26.5725 19.146 25.466 20.0739 25.0202C21.0022 24.5753 22.1139 24.9598 22.557 25.8802C23.0001 26.8007 22.6065 27.9072 21.6785 28.353C20.7502 28.7979 19.6386 28.4134 19.1955 27.493Z" fill="#000100"/>
<path d="M19.1053 26.8789C18.9658 26.5892 19.0458 26.2609 19.2842 26.1469C19.5227 26.0329 19.8293 26.1747 19.9691 26.4653C20.109 26.7558 20.0287 27.0832 19.7902 27.1972C19.5518 27.3113 19.2452 27.1694 19.1053 26.8789Z" fill="#F2F2F2"/>
<path d="M32.549 22.7117C32.1058 21.7912 32.4995 20.6847 33.4275 20.2389C34.3557 19.7941 35.4674 20.1785 35.9105 21.099C36.3536 22.0194 35.96 23.1259 35.032 23.5717C34.1038 24.0166 32.9921 23.6322 32.549 22.7117Z" fill="#000100"/>
<path d="M32.4297 22.1953C32.2902 21.9057 32.3789 21.5732 32.6288 21.4541C32.8784 21.334 33.1932 21.4729 33.3327 21.7626C33.4725 22.0531 33.3835 22.3847 33.1339 22.5047C32.8852 22.6245 32.5695 22.4859 32.43 22.1962L32.4297 22.1953Z" fill="#F2F2F2"/>
<path d="M46.8876 16.876C46.9187 17.0029 46.9471 17.1309 46.9752 17.2579C47.1221 17.9366 47.2182 18.6254 47.2618 19.3043C47.3805 21.1275 47.1232 22.9748 46.5184 24.6489C46.0564 26.4161 45.3403 28.305 44.3904 30.2612C43.8276 31.4212 43.172 32.6276 42.4421 33.8464C41.2784 35.7912 39.8957 37.8246 38.2163 40.0635C37.1893 41.4326 35.9836 42.3716 34.6342 42.8547C34.6079 42.8642 34.5817 42.8736 34.5554 42.883C33.2206 43.3414 31.7018 43.3799 29.9112 43.0023C27.4154 42.4752 25.0247 41.8245 22.8074 41.0667C21.4309 40.597 20.1261 40.0874 18.9276 39.5519C16.9984 38.69 15.2746 37.733 13.8049 36.7086C11.5356 35.417 9.69374 33.4559 8.47819 31.0353C7.80857 29.7909 7.36809 28.4635 7.1691 27.0904C7.1691 27.0904 7.16845 27.0886 7.16812 27.0877C7.16747 27.0859 7.16682 27.0841 7.16617 27.0823C6.44906 22.9591 7.63765 18.8237 10.3469 16.0207C11.5003 14.8273 12.8672 13.9328 14.4121 13.3643C14.4493 13.351 14.4865 13.3377 14.5228 13.3247C17.8681 12.1269 20.6651 12.7406 24.1444 15.4287C24.2321 15.4965 24.2984 15.5444 24.3482 15.5777C24.3573 15.5203 24.368 15.4417 24.3776 15.3371C24.7901 11.0171 28.1493 8.30056 30.9013 7.28558C32.4021 6.73389 33.9829 6.51978 35.5912 6.65687C39.5205 6.98989 43.1553 9.36664 45.3146 13.0143C45.6609 13.5613 45.9637 14.1413 46.215 14.7376C46.5024 15.4203 46.7282 16.1393 46.8858 16.8766L46.8876 16.876ZM45.595 14.9975C45.3583 14.4337 45.0712 13.886 44.7439 13.369C44.7429 13.3663 44.7398 13.3633 44.7385 13.3597C42.6902 9.8963 39.2502 7.64104 35.5352 7.32642C34.0261 7.19779 32.5431 7.39634 31.1351 7.91581C28.5666 8.86307 25.4314 11.391 25.0486 15.3996C25.0177 15.7247 24.9787 15.9043 24.9091 16.0387C24.8133 16.2254 24.6722 16.2913 24.57 16.3146C24.2962 16.3758 24.0395 16.1987 23.7323 15.9609C19.6393 12.7989 16.9492 13.1464 14.6445 13.9961C13.1957 14.5302 11.9123 15.3692 10.8307 16.4888C8.27246 19.1365 7.1503 23.0518 7.8289 26.9616C7.83163 26.9749 7.83403 26.9874 7.83495 27.0014C8.02306 28.2954 8.43847 29.547 9.07149 30.7206C9.07246 30.7233 9.07374 30.727 9.07562 30.7294C10.2341 33.0364 11.9887 34.905 14.1487 36.1313C14.1576 36.1363 14.1668 36.1422 14.1752 36.1484C15.6128 37.1516 17.3027 38.0911 19.1999 38.9379C20.3799 39.4646 21.6657 39.9667 23.0225 40.4302C25.2149 41.1784 27.5786 41.8224 30.0478 42.3437C31.7399 42.7004 33.102 42.67 34.3348 42.247C34.3593 42.2382 34.3847 42.2291 34.4092 42.2204C35.6479 41.7768 36.7168 40.9389 37.6761 39.6606C39.342 37.4408 40.7116 35.4254 41.8632 33.5013C42.5829 32.2995 43.2285 31.1109 43.7832 29.9683C44.7164 28.0456 45.4185 26.1945 45.8694 24.465C45.8719 24.4549 45.8753 24.4445 45.8782 24.4353C46.4556 22.8446 46.7005 21.0856 46.5883 19.349C46.5472 18.703 46.4548 18.0477 46.3154 17.401C46.2889 17.2786 46.2612 17.1555 46.2317 17.0331C46.2308 17.0304 46.2295 17.0267 46.2294 17.0237C46.08 16.3264 45.8667 15.6449 45.5947 14.9996L45.595 14.9975Z" fill="black"/>
<path d="M10.787 21.289C9.96775 23.0215 9.71931 24.6222 10.2316 24.8643C10.7439 25.1064 11.8236 23.8985 12.6428 22.166C13.462 20.4335 13.7104 18.8328 13.1981 18.5907C12.6858 18.3486 11.6062 19.5565 10.787 21.289Z" fill="#FFAEE2"/>
<path d="M14.6529 16.2224C14.0654 16.6731 13.8208 17.3416 14.1066 17.7139C14.3926 18.0871 15.1014 18.0236 15.6889 17.5729C16.2765 17.1222 16.521 16.4536 16.2353 16.0813C15.9492 15.7081 15.2404 15.7716 14.6529 16.2224Z" fill="#FFAEE2"/>
</svg>
