<svg width="60" height="71" viewBox="0 0 60 71" fill="none" xmlns="http://www.w3.org/2000/svg">
<path d="M55.2642 26.0107C57.6772 21.2023 55.7408 15.0572 50.8569 12.0207C46.2973 9.18464 41.7976 7.85955 37.4827 8.08258C33.5529 8.28462 29.9565 9.8236 27.355 12.4178C24.394 15.3706 22.9914 19.3392 23.2452 23.3223C19.5362 23.5352 16.416 25.1555 14.1588 28.0593C11.5661 31.3988 10.7113 35.4741 11.6873 39.8461C11.1147 39.9422 10.5511 40.0856 10.0029 40.2815C7.29189 41.2462 5.18154 43.3482 4.20703 46.0511C2.79969 49.9542 3.96553 54.4534 7.17448 57.5142C8.00449 58.3051 8.94078 58.9685 9.95756 59.483C10.0357 59.5227 10.1616 59.5853 10.3307 59.6663C13.1646 61.0245 20.4799 63.9159 27.1806 61.4405C31.7336 59.7589 34.8787 56.0967 36.0356 51.1269C36.4402 49.3867 36.4423 47.7226 36.2066 46.1726C38.2546 45.8414 40.3613 44.9871 42.3304 43.2692C45.8608 40.1848 47.5837 35.972 47.2722 31.27C47.8239 31.2317 48.3722 31.1487 48.9078 31.0214C51.6822 30.3582 54.0013 28.5325 55.2651 26.0134L55.2642 26.0107Z" fill="#FAFEFD"/>
<path d="M29.6418 30.3647C30.625 30.7229 31.3198 30.952 31.7179 31.0502C31.8017 30.9367 31.8326 30.8204 31.8313 30.6345C31.8239 30.1407 31.5416 29.1265 30.2422 27.0939C28.0142 23.6085 28.409 19.2292 31.2042 16.4431C34.0882 13.5663 39.8664 12.1715 47.4336 16.8759C49.718 18.2962 50.7285 21.1438 49.6879 23.2208C49.1966 24.1986 48.323 24.8803 47.2272 25.1437C46.0325 25.4297 44.6737 25.1761 43.5038 24.4482C41.329 23.0964 39.454 22.6609 38.4874 23.2821C38.3097 23.3981 38.2052 23.522 38.144 23.6214C39.7097 26.1545 40.6036 28.3069 40.9472 30.3627C41.5067 33.7127 40.5369 36.5896 38.1412 38.6836C34.8822 41.5321 30.4359 39.9118 27.78 38.9461C27.4929 38.8424 26.8638 38.6132 26.3167 38.4391C26.6315 39.2158 27.3417 40.4736 27.6235 40.9701C28.934 43.286 30.7265 46.4587 29.9852 49.6417C29.2822 52.66 27.4985 54.7785 24.8262 55.7662C19.6573 57.6767 13.0457 54.4538 12.3093 54.0805C11.8073 53.8264 11.3433 53.4978 10.9311 53.1036C9.43408 51.6767 8.83374 49.586 9.44165 47.9026C9.82226 46.8491 10.613 46.0623 11.6704 45.6856C12.8066 45.2812 14.1522 45.4019 15.3574 46.0134C16.7427 46.7022 19.3381 47.4784 20.4096 47.0769C20.512 47.0378 20.6904 46.9719 20.8437 46.5483C20.6269 46.0151 19.9759 44.8649 19.7109 44.3945C18.0622 41.4782 14.992 36.0482 18.5063 31.5259C21.6647 27.4588 26.8556 29.3502 29.6464 30.3646L29.6418 30.3647Z" fill="#2FDDDD"/>
<path d="M12.4607 54.9571C12.3394 54.899 12.2474 54.8549 12.1894 54.8249C11.624 54.5381 11.102 54.1704 10.6387 53.727C8.93701 52.1048 8.26588 49.7044 8.96686 47.7561C9.42148 46.4963 10.3682 45.5538 11.6349 45.1034C12.956 44.634 14.5115 44.7695 15.8905 45.4665C17.3161 46.1747 19.381 46.6807 20.2035 46.5395C19.9261 45.9818 19.4799 45.1917 19.2882 44.8513C17.5559 41.7888 14.3335 36.0871 18.1413 31.1835C21.6235 26.7 27.35 28.7848 30.1014 29.7871C30.5205 29.9405 30.8864 30.0684 31.1954 30.1736C31.0331 29.6869 30.6685 28.8727 29.8438 27.5849C27.4304 23.8119 27.8673 19.0619 30.9036 16.0321C33.9848 12.9606 40.0999 11.4336 48.0254 16.3617C50.6194 17.9755 51.75 21.2422 50.5443 23.6446C49.9561 24.8154 48.9134 25.633 47.6043 25.9454C46.2216 26.2747 44.6653 25.9897 43.3315 25.1607C41.4248 23.9757 39.9951 23.6768 39.3023 23.8916C40.7142 26.2741 41.5337 28.3366 41.8692 30.3433C42.4732 33.9542 41.4207 37.0603 38.8246 39.3272C35.3329 42.3782 30.7822 40.8298 27.9547 39.8023C28.1588 40.178 28.3485 40.513 28.4594 40.7107C29.8282 43.1313 31.7024 46.4449 30.8965 49.9042C30.1357 53.1704 28.1944 55.4665 25.283 56.5429C20.2327 58.4086 13.9713 55.6811 12.4588 54.9562L12.4607 54.9571ZM15.1467 46.712C14.1377 46.2284 13.0415 46.1391 12.1209 46.4661C11.271 46.7682 10.6335 47.4003 10.3297 48.2466C9.81938 49.665 10.3443 51.4462 11.6384 52.6787C11.9997 53.0236 12.4065 53.3112 12.845 53.5326C13.5528 53.89 19.9026 56.9897 24.7852 55.186C27.2184 54.287 28.8466 52.347 29.4918 49.5767C30.1693 46.6681 28.4557 43.6372 27.2044 41.4242C26.9 40.8852 26.1898 39.6275 25.857 38.8082C25.7514 38.5475 25.8057 38.2504 25.9964 38.0458C26.1871 37.8412 26.4802 37.7625 26.746 37.8493C27.3068 38.0277 27.9341 38.256 28.2358 38.3667C30.7432 39.2793 34.9355 40.8072 37.8739 38.2412C40.0711 36.3208 40.9599 33.674 40.4422 30.5858C40.1138 28.6163 39.2542 26.5572 37.7363 24.1035C37.5929 23.8699 37.5916 23.5755 37.7363 23.3444C37.872 23.1225 38.0648 22.9325 38.3046 22.7763C39.531 21.9858 41.6428 22.4082 44.0958 23.934C45.1054 24.5625 46.2593 24.7812 47.2697 24.5402C48.1549 24.3295 48.8585 23.781 49.2518 22.998C50.132 21.2463 49.2399 18.8214 47.2641 17.592C40.058 13.1103 34.6166 14.3773 31.929 17.0568C29.3767 19.6 29.024 23.6086 31.0657 26.8037C32.1984 28.5757 32.7551 29.8569 32.7687 30.7243C32.7723 30.9384 32.7495 31.2596 32.5179 31.5779C32.3459 31.814 32.0469 31.9238 31.7623 31.8529C31.3339 31.747 30.6309 31.5163 29.6111 31.145C26.8111 30.1261 22.1264 28.4187 19.2901 32.0685C16.0729 36.2112 18.988 41.3658 20.555 44.1367C20.9919 44.9087 21.5202 45.8623 21.7275 46.3729C21.795 46.5385 21.7991 46.7235 21.7371 46.8904C21.4976 47.5506 21.1309 47.7544 20.8773 47.8498C19.3981 48.4039 16.4463 47.3529 15.2495 46.7567C15.2164 46.7409 15.1852 46.7259 15.1521 46.71L15.1467 46.712Z" fill="black"/>
</svg>
