<svg width="47" height="47" viewBox="0 0 47 47" fill="none" xmlns="http://www.w3.org/2000/svg">
<path d="M33.7905 12.8168L27.581 13.2559L23.825 8.2928C22.1841 6.12445 19.3712 5.30085 16.8122 6.24079C16.8022 6.24446 16.7905 6.24875 16.7805 6.25242C14.2182 7.21438 12.6261 9.69386 12.8187 12.4244L13.2569 18.6327L8.29227 22.3888C6.11008 24.0402 5.28864 26.8707 6.25037 29.4323C7.2121 31.9939 9.69183 33.5854 12.4229 33.3923L18.6341 32.9526L22.3901 37.9158C24.0286 40.0831 26.8422 40.9083 29.3929 39.9715L29.4346 39.9561C31.9969 38.9942 33.589 36.5147 33.3964 33.7841L32.9582 27.5758L37.9228 23.8198C40.105 22.1684 40.9264 19.3379 39.9647 16.7762C39.003 14.2146 36.5233 12.6232 33.7922 12.8162L33.7905 12.8168Z" fill="#FAFEFD"/>
<path d="M28.6049 34.1982L28.0535 26.3829C28.0166 25.8495 28.2496 25.3343 28.6761 25.011L34.9254 20.2834C36.1786 19.3347 35.4295 17.3366 33.8609 17.4472L26.044 17.9997C25.5104 18.0367 24.9952 17.8039 24.672 17.3775L19.9444 11.1301C18.9952 9.87562 16.9972 10.6265 17.1075 12.1949L17.6589 20.0102C17.6958 20.5437 17.4629 21.0589 17.0363 21.3821L10.7871 26.1097C9.53219 27.059 10.2829 29.0565 11.8516 28.9459L19.6684 28.3934C20.202 28.3564 20.7173 28.5892 21.0405 29.0156L25.768 35.263C26.7173 36.5175 28.7153 35.7666 28.6049 34.1982Z" fill="#FFEC00"/>
<path d="M27.9333 36.256C27.0292 36.5881 26.0722 36.3074 25.4907 35.5387L20.7632 29.2913C20.5536 29.0144 20.2224 28.8653 19.8768 28.8882L12.0599 29.4407C11.0927 29.5083 10.2465 28.9674 9.90698 28.0586C9.56583 27.1504 9.84596 26.1863 10.6193 25.6013L16.8686 20.8737C17.1457 20.664 17.2947 20.3329 17.2719 19.9873L16.7206 12.172C16.6531 11.205 17.1949 10.3605 18.1033 10.0193C19.009 9.68096 19.9759 9.95797 20.561 10.7311L25.2885 16.9785C25.4981 17.2554 25.8293 17.4044 26.1749 17.3816L33.9917 16.8291C34.959 16.7615 35.8052 17.3024 36.1447 18.2112C36.4858 19.1194 36.2057 20.0835 35.4323 20.6685L29.1831 25.3961C28.906 25.6058 28.7569 25.9369 28.7797 26.2825L29.3311 34.0978C29.3985 35.0648 28.8567 35.9093 27.9484 36.2505L27.9333 36.256ZM18.5014 11.0618C18.5014 11.0618 18.4964 11.0636 18.4947 11.0642C18.15 11.1927 17.7953 11.5312 17.8347 12.0921L18.3861 19.9074C18.4384 20.6321 18.1214 21.3258 17.542 21.7639L11.2928 26.4915C10.8437 26.8306 10.8231 27.3208 10.9532 27.6648C11.0817 28.0094 11.4202 28.364 11.9812 28.3245L19.7981 27.772C20.5235 27.7213 21.2167 28.0364 21.6548 28.6156L26.3822 34.8629C26.7195 35.3069 27.2038 35.3315 27.5491 35.2047L27.5558 35.2022C27.9005 35.0737 28.2551 34.7353 28.2157 34.1743L27.6643 26.359C27.6143 25.6354 27.929 24.9406 28.5084 24.5026L34.7576 19.775C35.2067 19.4359 35.2274 18.9456 35.0972 18.6016C34.9687 18.257 34.6302 17.9025 34.0692 17.942L26.2524 18.4945C25.5269 18.5452 24.8338 18.23 24.3957 17.6509L19.6682 11.4035C19.3309 10.9596 18.8467 10.9349 18.5014 11.0618Z" fill="black"/>
</svg>
