<svg width="41" height="40" viewBox="0 0 41 40" fill="none" xmlns="http://www.w3.org/2000/svg">
<path d="M36.3609 17.0666C39.0307 10.8767 37.6408 7.26823 35.7801 5.25518C34.2312 3.57832 31.2455 1.85052 25.8183 3.14433C25.0113 3.33586 24.2165 3.57833 23.4604 3.83913C18.3776 -0.684124 14.4463 -0.447784 11.9151 0.721741C9.41245 1.87497 6.65299 4.73156 6.60407 11.7161C0.720367 15.3938 -0.268041 19.2283 0.0539631 21.9586C0.380043 24.7133 2.21013 28.1689 8.62983 30.1575C10.0931 37.0728 13.4355 39.255 16.1847 39.801C16.6698 39.8988 17.1691 39.9477 17.6663 39.9477H17.6725C21.0454 39.9477 24.2165 37.792 27.1288 33.5336C33.4568 33.827 37.4777 32.3071 39.3731 28.9269C40.3717 27.1461 41.4763 23.4358 37.6734 18.5845C37.2597 18.0568 36.8174 17.5494 36.365 17.0686L36.3609 17.0666Z" fill="#FAFEFD"/>
<path d="M33.1078 23.1097C31.5834 20.8013 28.4266 18.3929 28.4266 18.3929C28.4266 18.3929 32.8898 11.4471 30.97 9.36886C29.0502 7.29061 21.6298 11.0376 21.6298 11.0376C21.6298 11.0376 16.6673 5.04528 14.0974 6.22906C11.5275 7.41285 12.5322 15.2287 12.5322 15.2287C12.5322 15.2287 6.33058 18.016 5.75586 20.6688C14.6354 22.4924 23.9083 23.4194 33.1078 23.1118V23.1097Z" fill="#FF99E5"/>
<path d="M5.75609 20.667C5.71329 20.8606 5.69904 21.0521 5.72146 21.2436C6.05366 24.0533 13.7063 25.1719 13.7063 25.1719C13.7063 25.1719 14.2382 33.2995 17.014 33.8517C19.7877 34.4038 23.5295 27.1279 23.5295 27.1279C23.5295 27.1279 32.3418 28.4258 33.7236 25.9584C34.1556 25.1882 33.801 24.1593 33.1081 23.11C23.9085 23.4176 14.6357 22.4926 5.75609 20.667Z" fill="#ED4FCF"/>
<path d="M17.5539 34.626C17.4051 34.626 17.2584 34.6118 17.1117 34.5832C14.2524 34.0148 13.4535 28.0551 13.2538 25.8159C11.12 25.4471 5.56639 24.2124 5.22604 21.3334C4.8857 18.4503 10.0398 15.7037 11.9739 14.7808C11.7477 12.6393 11.3889 6.76932 14.0282 5.55294C16.6674 4.33451 20.6374 8.47879 22.064 10.1149C24.1183 9.13487 29.7819 6.7245 31.7588 8.86387C33.7173 10.9849 30.8641 16.2233 29.6535 18.2201C31.502 19.7095 36.0589 23.7458 34.616 26.3232C33.1935 28.8619 26.5028 28.2385 24.1876 27.9389C23.1931 29.7768 20.3072 34.626 17.5539 34.626ZM15.1042 6.81414C14.9371 6.81414 14.7843 6.84268 14.6498 6.90584C13.2232 7.56395 13.1254 12.1137 13.5126 15.1332C13.5533 15.4592 13.378 15.773 13.0785 15.9075C10.321 17.1483 6.51813 19.5974 6.70359 21.1581C6.88497 22.7026 11.1138 24.0045 14.0567 24.4365C14.4032 24.4874 14.6681 24.7747 14.6925 25.1251C14.9004 28.2629 15.8766 32.8187 17.4011 33.1223C18.9316 33.4259 21.6605 29.6015 23.1095 26.7878C23.2562 26.5045 23.564 26.3456 23.8799 26.3925C27.3282 26.8998 32.5353 26.9874 33.3158 25.5958C34.0434 24.3 30.7031 20.8851 28.2167 18.9862C27.909 18.7498 27.8315 18.3179 28.0414 17.9919C29.7146 15.3859 31.7058 11.0032 30.6644 9.87651C29.6168 8.74366 24.9987 10.2962 22.2067 11.7041C21.8969 11.861 21.5199 11.7816 21.2977 11.5147C19.5695 9.4303 16.6837 6.81618 15.1042 6.81618V6.81414Z" fill="black"/>
</svg>
