<svg width="34" height="34" viewBox="0 0 34 34" fill="none" xmlns="http://www.w3.org/2000/svg">
<path d="M27.8081 19.2028L23.9699 16.6801C23.0715 16.0908 22.8201 14.8833 23.4094 13.9849L25.932 10.147C26.5213 9.24859 26.7298 8.17052 26.5142 7.114C26.2985 6.05749 25.6807 5.15192 24.7823 4.56257C23.8839 3.97322 22.8057 3.7648 21.7492 3.98041C20.6926 4.19603 19.7872 4.81412 19.1979 5.71252L16.675 9.55046C16.0856 10.4489 14.8782 10.7004 13.9798 10.1111L10.142 7.58836C9.47355 7.14994 8.71183 6.92715 7.93562 6.92715C7.66251 6.92715 7.38911 6.9559 7.10881 7.0134C6.0523 7.22901 5.14686 7.84711 4.55751 8.7455C3.33569 10.607 3.85307 13.1081 5.71454 14.3299L9.55273 16.8526C10.4511 17.442 10.7025 18.6494 10.1132 19.5478L7.5903 23.3858C7.00095 24.2842 6.79283 25.3622 7.00845 26.4187C7.22406 27.4753 7.84192 28.3808 8.74031 28.9702C10.6018 30.192 13.1029 29.6745 14.3248 27.8131L16.8476 23.9751C17.437 23.0767 18.6444 22.8251 19.5428 23.4145L23.3807 25.9372C24.2791 26.5265 25.3573 26.735 26.4138 26.5194C27.4703 26.3037 28.3758 25.6856 28.9651 24.7872C30.1869 22.933 29.6695 20.4246 27.8081 19.2028Z" fill="#FFE13F"/>
<path d="M29.9424 15.9473L27.7361 14.4955L29.1879 12.289C30.3522 10.521 30.7546 8.40076 30.3306 6.33085C29.8993 4.25376 28.6921 2.47135 26.924 1.30703C25.156 0.142709 23.0357 -0.259769 20.9658 0.164273C18.8887 0.595503 17.1062 1.80294 15.9418 3.57098L14.49 5.77745L12.2837 4.32563C10.5156 3.16131 8.3954 2.75883 6.3255 3.18287C4.24841 3.6141 2.46582 4.82156 1.3015 6.5896C-1.09901 10.2407 -0.0855111 15.1711 3.57276 17.5716L5.77944 19.0234L4.32762 21.2299C3.1633 22.9979 2.76058 25.1181 3.18462 27.188C3.61585 29.2651 4.82346 31.0475 6.59151 32.2118C7.92832 33.0959 9.43765 33.5127 10.9326 33.5127C13.5128 33.5127 16.0498 32.255 17.5663 29.9407L19.0181 27.7342L21.2245 29.1861C22.9925 30.3504 25.1128 30.7529 27.1827 30.3288C29.2598 29.8976 31.042 28.6901 32.2063 26.9221C34.6068 23.271 33.5937 18.3406 29.9354 15.9401L29.9424 15.9473ZM28.9581 24.7875C28.3687 25.6859 27.4557 26.304 26.4064 26.5196C25.3499 26.7352 24.272 26.534 23.3736 25.9374L19.5354 23.4147C18.637 22.8254 17.4296 23.077 16.8402 23.9754L14.3177 27.8133C13.0959 29.6748 10.5876 30.1922 8.73327 28.9704C7.83487 28.3811 7.21666 27.4683 7.00105 26.419C6.78543 25.3625 6.98672 24.2844 7.58325 23.386L10.1058 19.5481C10.6951 18.6497 10.4509 17.4422 9.54533 16.8529L5.7075 14.3302C3.84602 13.1084 3.32829 10.6 4.55011 8.74575C5.13946 7.84736 6.05244 7.22926 7.10177 7.01364C7.37488 6.95615 7.65511 6.9274 7.92822 6.9274C8.70444 6.9274 9.47334 7.15738 10.1346 7.58861L13.9727 10.1113C14.8711 10.7007 16.0786 10.4563 16.6679 9.55071L19.1905 5.71277C19.7798 4.81437 20.6928 4.19627 21.7421 3.98066C22.7986 3.76504 23.8765 3.96628 24.7749 4.56282C25.6733 5.15216 26.2915 6.06493 26.5071 7.11425C26.7227 8.17076 26.5215 9.24884 25.9249 10.1472L23.402 13.9852C22.8127 14.8836 23.0573 16.091 23.9628 16.6804L27.8007 19.2031C29.6621 20.4249 30.1799 22.9332 28.9581 24.7875Z" fill="#292929"/>
</svg>
