<svg width="169" height="195" viewBox="0 0 169 195" fill="none" xmlns="http://www.w3.org/2000/svg">
<path d="M112.53 27.7912C105.889 20.2272 96.9965 15.9862 87.4817 15.8584C77.9684 15.7251 68.9614 19.7197 62.1167 27.099C55.2376 34.5171 51.3666 44.4676 51.2184 55.1099C51.0803 65.1555 54.3298 74.796 60.3605 82.2444C66.3278 89.616 74.4923 94.2014 83.343 95.1523C83.4187 95.1605 83.4874 95.173 83.5601 95.1924C83.9069 95.2853 84.212 95.511 84.3993 95.8189C84.6289 96.1922 84.6675 96.6521 84.5104 97.0596L81.1031 105.905C85.8836 106.185 90.9565 105.866 96.2333 104.942L90.9546 97.1258C90.6847 96.7238 90.6357 96.2131 90.8313 95.774C91.0213 95.3334 91.4296 95.0172 91.9056 94.9409C100.237 93.6246 107.925 89.025 113.569 81.9892C119.295 74.8495 122.521 65.6494 122.65 56.0868C122.798 45.4445 119.203 35.3937 112.524 27.7897L112.53 27.7912Z" fill="#75A5FE"/>
<path d="M54.0444 151.141C54.023 150.662 54.2484 150.201 54.6408 149.922C58.1926 147.427 60.7115 143.552 61.7303 139.012C62.7675 134.38 62.1707 129.359 60.0467 124.869C55.1954 114.608 43.7762 109.798 34.592 114.141C30.1649 116.233 26.9057 120.119 25.412 125.09C23.8991 130.11 24.3681 135.63 26.7295 140.621C28.9605 145.337 32.6671 149.088 37.1784 151.178C41.6199 153.237 46.4313 153.513 50.7399 151.952C51.0127 151.851 51.3093 151.841 51.589 151.916C51.7288 151.953 51.857 152.012 51.9807 152.087C52.349 152.323 52.5908 152.718 52.6298 153.154L52.9916 157.285C54.7467 156.484 56.5008 155.486 58.2287 154.294L54.7539 152.296C54.3324 152.057 54.0674 151.615 54.0459 151.135L54.0444 151.141Z" fill="#45B198"/>
<path d="M114.654 25.9263C107.481 17.7522 97.8459 13.1743 87.5251 13.0344C77.2043 12.8945 67.4477 17.2037 60.048 25.1777C52.6898 33.1088 48.5505 43.7247 48.3948 55.0663C48.2469 65.7746 51.7201 76.0565 58.1705 84.019C63.4005 90.4737 70.203 94.9519 77.7086 96.963C78.8663 97.2733 80.0462 97.5235 81.2298 97.7147L77.7829 106.664C77.6242 107.077 77.6684 107.538 77.9022 107.919C78.095 108.228 78.3905 108.445 78.7373 108.538C78.8156 108.559 78.8897 108.573 78.971 108.583C81.4447 108.814 84.004 108.882 86.622 108.799C88.6907 112.152 89.1273 116.585 87.7116 120.258C87.0052 122.089 85.8944 123.751 84.7144 125.515C83.2953 127.635 81.8329 129.826 81.0704 132.404C79.9623 136.159 80.5368 140.077 81.0488 143.535C81.1347 144.11 81.5556 144.552 82.0813 144.693C82.2603 144.741 82.4539 144.757 82.6538 144.727C83.4267 144.616 83.9613 143.896 83.8452 143.122C83.3816 139.952 82.8507 136.363 83.7817 133.202C84.4205 131.041 85.7029 129.119 87.063 127.086C88.2732 125.276 89.5254 123.4 90.3462 121.276C91.9191 117.195 91.6646 112.529 89.75 108.624C92.7258 108.39 95.7796 107.955 98.8843 107.331C99.3465 107.239 99.7325 106.917 99.9098 106.478C100.087 106.04 100.041 105.543 99.7735 105.153L94.4906 97.3297C102.683 95.5025 110.175 90.7423 115.767 83.7646C121.887 76.1371 125.331 66.3242 125.472 56.1354C125.628 44.7937 121.781 34.0702 114.646 25.936L114.654 25.9263ZM113.575 81.9904C107.933 89.0205 100.243 93.6258 91.9113 94.9421C91.4353 95.0184 91.0284 95.329 90.8369 95.7752C90.6469 96.2158 90.6904 96.725 90.9603 97.127L96.239 104.943C90.9637 105.862 85.8908 106.181 81.1088 105.907L84.5161 97.0607C84.6732 96.6533 84.6346 96.1933 84.4049 95.8201C84.2136 95.505 83.9125 95.2865 83.5658 95.1936C83.4987 95.1756 83.4259 95.1561 83.3487 95.1534C74.4995 94.197 66.3406 89.613 60.3662 82.2456C54.3299 74.7956 51.0845 65.1622 51.2241 55.1111C51.3722 44.4688 55.2418 34.5239 62.1224 27.1002C68.9671 19.7209 77.9741 15.7263 87.4874 15.8596C97.0007 15.993 105.895 20.2283 112.536 27.7924C119.214 35.3964 122.809 45.4472 122.661 56.0895C122.532 65.6521 119.306 74.8521 113.58 81.9919L113.575 81.9904Z" fill="#503D28"/>
<path d="M68.1068 176.106C66.0201 175.66 64.749 173.246 64.2536 171.135C64.032 170.194 63.8951 169.228 63.7535 168.213C63.5009 166.449 63.2465 164.625 62.516 162.877C61.6387 160.759 60.1229 158.944 58.2312 157.682C59.395 156.963 60.5447 156.162 61.69 155.288C62.0671 155 62.2728 154.545 62.2372 154.074C62.2072 153.604 61.9431 153.18 61.5328 152.944L57.9745 150.9C61.2038 148.043 63.4903 144.117 64.4982 139.64C65.6749 134.398 65.0062 128.728 62.6136 123.675C57.0964 112.007 43.9921 106.595 33.395 111.602C28.2402 114.039 24.4425 118.549 22.718 124.291C21.0071 129.983 21.5243 136.218 24.1825 141.845C26.6915 147.157 30.8872 151.387 35.9949 153.756C40.5311 155.865 45.4262 156.343 49.9742 155.164L50.354 159.474C50.3915 159.916 50.6335 160.31 51.0073 160.548C51.131 160.623 51.2593 160.682 51.3935 160.718C51.6787 160.794 51.9823 160.779 52.2622 160.675C53.2898 160.285 54.3172 159.828 55.3412 159.318C57.3908 160.214 59.0533 161.907 59.9132 163.977C60.5045 165.395 60.7253 166.964 60.9628 168.629C61.1096 169.669 61.2602 170.74 61.5092 171.802C62.3783 175.494 64.4947 178.087 67.2184 178.817C67.3191 178.844 67.4254 178.872 67.5276 178.894C68.2931 179.057 69.0415 178.568 69.2032 177.808C69.3664 177.043 68.8775 176.294 68.1176 176.132L68.1068 176.106ZM52.9891 157.291L52.6274 153.16C52.5883 152.723 52.3521 152.33 51.9783 152.092C51.856 152.012 51.7207 151.957 51.5865 151.922C51.3124 151.848 51.0158 151.859 50.7375 151.958C46.4288 153.519 41.6174 153.243 37.1759 151.183C32.6717 149.089 28.9581 145.343 26.727 140.627C24.3672 135.631 23.8967 130.116 25.4095 125.096C26.9032 120.125 30.168 116.24 34.5896 114.146C43.7737 109.804 55.1985 114.615 60.0442 124.875C62.1682 129.365 62.765 134.386 61.7278 139.017C60.709 143.558 58.1901 147.433 54.6383 149.928C54.246 150.206 54.0149 150.666 54.042 151.147C54.0634 151.626 54.3284 152.069 54.7499 152.308L58.2248 154.306C56.4912 155.496 54.7427 156.496 52.9876 157.296L52.9891 157.291Z" fill="#503D28"/>
<path d="M72.4947 42.7071C72.7078 43.2318 72.7968 43.7052 72.7245 44.2433C72.6403 44.4905 72.5725 44.7661 72.5162 45.0207C72.2665 45.5053 71.9509 45.9003 71.5216 46.2049C71.2958 46.3542 71.0704 46.4796 70.823 46.5752C70.4337 46.7526 70.0128 46.8017 69.5795 46.7635C67.7302 46.8194 67.4241 45.4786 66.0304 44.5057C64.1365 43.207 62.6445 44.8153 65.5576 46.2253C66.4094 46.6034 67.3123 47.0372 68.0882 47.5867C68.513 47.8804 68.9452 48.3259 69.3322 48.6934C69.7189 49.0847 69.9857 49.5878 70.2828 50.045C70.4601 50.2784 70.5492 50.572 70.6612 50.8477C70.7925 51.3865 70.9613 51.8753 70.9886 52.4221C71.0383 52.9749 71.0652 53.5456 70.9351 54.0982C70.851 54.5013 70.7507 54.876 70.5929 55.2413C70.5469 55.3909 70.5027 55.5109 70.4331 55.6361C70.2133 56.0987 69.9412 56.5773 69.6255 56.9723C69.5276 57.1139 69.384 57.2253 69.294 57.315C69.0001 57.584 68.7066 57.829 68.437 58.0745C68.0018 58.4014 67.4747 58.6678 66.98 58.859C66.4773 59.1019 65.8919 59.2508 65.2998 59.3798C64.9786 59.4376 64.6415 59.4432 64.3338 59.4507C63.7355 59.4463 63.113 59.4653 62.5305 59.3572C61.9242 59.2486 61.3258 59.0883 60.7516 58.9045C60.3769 58.8041 60.0335 58.6761 59.6984 58.4724C58.8246 58.0645 57.9592 57.5808 57.1543 57.0055C56.6776 56.7039 56.3727 56.2985 56.1797 55.8332C56.114 55.5638 56.0165 55.3459 55.9512 55.0526C55.8422 54.5199 55.92 53.9832 56.1682 53.5043C56.3039 53.2888 56.4619 53.0794 56.5979 52.8401C56.8176 52.5573 57.1393 52.2959 57.4927 52.1628C57.8384 51.9017 58.2195 51.8 58.6327 51.7789C59.0819 51.7134 59.5227 51.7236 59.9115 51.9057C60.3165 51.9603 60.6813 52.142 61.0622 52.3759C61.2717 52.5339 61.5325 52.7237 61.7997 52.8672C62.5016 53.2232 63.8677 54.0088 64.6425 53.2873C64.914 53.0123 64.7728 52.5549 63.8559 52.0395C63.1838 51.6616 62.37 51.3656 62.1766 51.2598C61.8631 51.1099 61.4906 50.9561 61.1831 50.7838C60.6307 50.4739 60.0705 50.2159 59.6315 49.8405C59.1613 49.4927 58.7527 49.0716 58.3955 48.6821C58.0312 48.2968 57.7639 47.8175 57.4668 47.3603C57.4371 47.2025 57.3792 47.0611 57.3416 46.9551C57.1941 46.5439 57.0848 46.1909 56.9815 45.8156C56.938 45.3963 56.9483 44.9555 56.9529 44.5132C56.9453 44.3852 56.9693 44.2058 56.9934 44.0264C57.1477 43.4504 57.3077 42.8758 57.6096 42.3753C57.8892 41.8687 58.2211 41.3462 58.5904 40.9297C58.9598 40.5131 59.4272 40.1109 59.9143 39.7918C60.3496 39.4649 60.9066 39.1765 61.4611 38.9414C61.7607 38.8299 62.0898 38.7203 62.3834 38.6311C62.9684 38.5061 63.5669 38.3308 64.1356 38.3333C64.7422 38.2621 65.3628 38.2725 65.9472 38.3512C66.5614 38.4078 67.1579 38.5976 67.7324 38.7576C68.0758 38.8856 68.3987 38.9781 68.7178 39.1295C69.2463 39.439 69.7786 39.6895 70.2395 40.0947C70.6863 40.4183 71.1482 40.8418 71.5274 41.2611C71.9282 41.7341 72.1969 42.2077 72.4917 42.7183L72.4947 42.7071Z" fill="white"/>
<path d="M86.8405 62.233C86.7282 64.7325 86.3264 67.2384 85.9591 69.7056C85.8804 70.29 85.6527 70.8044 85.2993 71.2732C85.0895 71.4747 84.9076 71.6838 84.6982 71.8614C84.233 72.2103 83.7143 72.401 83.1592 72.5041C82.8758 72.4881 82.561 72.4996 82.2831 72.4851C81.8203 72.445 81.4311 72.2868 81.0745 72.0294C80.6857 71.8473 80.359 71.5679 80.0979 71.2222C79.8369 70.8765 79.6519 70.5153 79.5804 70.0885C79.4328 69.6773 79.4136 69.2345 79.4756 68.8016C79.5219 68.4723 79.5921 68.1434 79.6463 67.7623C78.5613 67.7174 77.4914 67.6165 76.4064 67.5716C76.3986 67.6234 76.414 67.6995 76.4061 67.7513C76.455 68.3519 76.3772 68.8885 76.1729 69.4272C76.013 69.6661 75.871 69.9278 75.735 70.1671C75.3876 70.6135 74.9224 70.9624 74.4034 71.177C74.134 71.2427 73.8407 71.308 73.571 71.3975C73.1442 71.469 72.6874 71.4066 72.2922 71.2707C71.8653 71.1863 71.4544 70.9743 71.1272 70.7187C70.7762 70.4628 70.5315 70.1455 70.3302 69.7559C70.093 69.4106 69.944 69.005 69.9023 68.5563C69.9209 68.0397 69.9234 67.4709 69.926 66.9022C69.9549 65.765 70.0282 64.6637 70.1847 63.5427C70.3796 62.1443 70.7165 60.8199 71.1366 59.4758C71.4646 58.4307 71.8672 57.3757 72.4184 56.4144C72.8262 55.7204 73.2358 54.997 73.7174 54.3408C74.177 53.6547 74.7499 53.0828 75.3451 52.517C75.5489 52.3378 75.7524 52.1826 75.9544 52.0329C76.2997 51.7957 76.6608 51.6107 77.0206 51.4314C77.1325 51.3715 77.2465 51.2821 77.3581 51.2461C77.4939 51.1866 77.6278 51.1565 77.7692 51.0985C78.1445 50.9953 78.5274 50.864 78.9008 50.7903C79.4615 50.6887 80.0243 50.7137 80.5169 50.7318C81.0853 50.7582 81.6021 50.9326 82.1248 51.0847C82.3202 51.161 82.5416 51.2743 82.7589 51.3805C83.1912 51.6462 83.6762 51.872 84.0409 52.2335C84.3158 52.505 84.5852 52.775 84.8582 53.0759C84.948 53.1659 85.0378 53.2559 85.1037 53.3455C85.4083 53.7748 85.6297 54.2238 85.8825 54.6452C86.0299 54.9004 86.1254 55.1478 86.2224 55.3896C86.4732 56.1762 86.6774 56.9802 86.7924 57.8262C86.8417 58.4029 86.8391 58.9717 86.8865 59.5778C86.8974 60.432 86.899 61.3435 86.8558 62.2431L86.8405 62.233ZM77.4588 61.1159C78.4087 61.1726 79.3901 61.2018 80.3619 61.2883C80.3485 61.003 80.3663 60.6901 80.3528 60.4047C80.4337 55.517 78.5973 58.4777 77.4532 61.1144L77.4588 61.1159Z" fill="white"/>
<path d="M100.83 54.9875C100.872 55.4363 100.788 55.8633 100.576 56.274C100.445 56.6707 100.212 57.0277 99.8662 57.2888C99.5868 57.6155 99.2429 57.8471 98.8657 57.9798C98.2728 58.1566 97.6743 58.332 97.0674 58.4271C96.8876 58.4269 96.7303 58.4327 96.5505 58.4325C96.1316 58.4521 95.6963 58.4433 95.2335 58.4033C95.0761 58.409 94.8968 58.385 94.7249 58.3329C94.3218 58.2489 93.9247 58.1425 93.5001 58.0047C92.9997 57.8587 92.5011 57.5272 92.0524 57.2332C91.9327 57.1652 91.8428 57.0751 91.7251 56.9776C91.4498 56.73 91.1529 56.4287 90.9063 56.1408C90.8165 56.0508 90.7511 55.9374 90.6614 55.8474C90.4462 55.532 90.2611 55.1707 90.0758 54.8333C89.8529 54.3899 89.7454 53.8516 89.6285 53.3707C89.5848 53.1312 89.5116 52.8898 89.5216 52.6287C89.4032 51.2363 89.5981 49.8379 89.7911 48.4689C90.0989 45.8659 90.5489 42.8214 90.9604 40.2342C91.0391 39.6498 91.2669 39.1355 91.6427 38.6727C91.8246 38.4636 92.0344 38.2621 92.2159 38.077C92.7049 37.7284 93.1997 37.5373 93.7828 37.4418C94.0662 37.4578 94.3512 37.4682 94.6589 37.4607C95.0918 37.5228 95.5109 37.6591 95.8675 37.9165C96.2324 38.0982 96.5536 38.376 96.7922 38.7157C97.0812 39.0689 97.2602 39.4525 97.3615 39.8573C97.4867 40.2625 97.5283 40.7113 97.4662 41.1442C97.3038 41.9519 97.1653 42.76 97.055 43.5517C96.8303 44.9721 96.5647 46.903 96.3922 48.3075C96.2917 49.0179 96.1973 49.7059 96.1267 50.3943C96.0643 50.8511 96.0022 51.2841 96.0214 51.7268C96.0131 51.8025 96.0272 51.8842 96.0193 51.9361L96.0417 51.9421C96.201 51.9068 96.4106 51.8851 96.5964 51.8629C97.0538 51.7217 97.5544 51.688 98.0351 51.7509C98.3122 51.8131 98.5817 51.9033 98.8867 51.9731C99.4016 52.177 99.8494 52.5188 100.191 53.0119C100.316 53.2373 100.458 53.4911 100.583 53.7404C100.79 54.1315 100.886 54.5348 100.823 54.9916L100.83 54.9875Z" fill="white"/>
<path d="M118.496 49.3266C118.725 49.9035 118.804 50.4822 118.726 51.0426C118.657 51.3421 118.565 51.6411 118.495 51.9461C118.306 52.3628 118.079 52.7158 117.756 52.9828C117.477 53.3096 117.133 53.5411 116.72 53.7182C116.301 53.9176 115.88 53.9667 115.469 53.9345C114.998 53.9701 114.617 53.8921 114.182 53.7036C113.719 53.5076 113.195 53.3611 112.672 53.2091C112.068 53.0711 111.467 52.9402 110.841 52.7485C110.714 52.7323 110.535 52.7082 110.387 52.6566C110.308 53.0373 110.21 53.3825 110.134 53.7338C111.45 53.7868 112.707 53.86 113.966 53.9275C114.451 53.9974 114.864 54.1799 115.235 54.4952C115.42 54.6528 115.6 54.8567 115.733 55.0064C116.016 55.3819 116.215 55.8249 116.251 56.3199C116.242 56.5515 116.286 56.8148 116.276 57.0759C116.221 57.457 116.07 57.8 115.874 58.0832C115.73 58.3982 115.504 58.7034 115.189 58.8947C114.895 59.1398 114.588 59.2793 114.243 59.3606C113.89 59.4937 113.576 59.4997 113.195 59.4455C111.982 59.4082 110.749 59.3117 109.514 59.2445C109.512 59.4538 109.512 59.6574 109.51 59.8428C109.494 59.9703 109.502 60.0744 109.51 60.2023C109.763 60.2403 110.019 60.2488 110.274 60.2812C110.835 60.3356 111.373 60.3839 111.943 60.3809C112.304 60.3757 112.677 60.3258 113.037 60.3263C113.643 60.255 114.204 60.3333 114.713 60.5595C114.974 60.7254 115.213 60.8615 115.453 60.9975C115.921 61.3748 116.242 61.8325 116.455 62.3571C116.52 62.6504 116.586 62.9197 116.676 63.1895C116.741 63.6625 116.679 64.0954 116.541 64.5201C116.456 64.947 116.296 65.3657 115.989 65.685C115.731 66.0655 115.408 66.3325 115.019 66.51C114.673 66.7471 114.268 66.8723 113.817 66.9673C113.607 66.989 113.346 66.979 113.091 66.9944C111.869 67.0328 110.627 67.0176 109.394 66.921C108.885 66.8506 108.4 66.7807 107.92 66.7178C107.411 66.6236 106.94 66.4794 106.447 66.3292C106.126 66.2311 105.835 66.0872 105.551 65.8914C105.364 65.7633 105.149 65.6038 104.963 65.47C104.941 65.4402 104.919 65.4103 104.897 65.3804C104.666 65.1687 104.437 64.9513 104.235 64.7176C104.168 64.6575 104.124 64.5978 104.086 64.4918C103.893 64.2062 103.702 63.8912 103.567 63.5673C103.367 63.1482 103.272 62.6972 103.177 62.27C103.149 62.0827 103.096 61.9245 103.068 61.7372C103.024 61.318 103.035 60.8771 103.007 60.4862C103.012 59.7082 103.017 58.9063 103.072 58.1656C103.122 56.1229 103.379 54.1117 103.802 52.175C103.956 51.4192 104.19 50.7026 104.404 49.9267C104.54 49.5076 104.732 49.0375 104.942 48.6562C105.116 48.3431 105.298 47.9782 105.518 47.6715C105.586 47.5758 105.616 47.5299 105.676 47.4621C105.918 47.2091 106.196 46.888 106.459 46.6649C106.489 46.6429 106.541 46.6269 106.565 46.6273C106.821 46.4561 107.106 46.2628 107.384 46.1453C107.577 46.0713 107.767 45.9902 107.953 45.9681C108.088 45.9324 108.282 45.8585 108.434 45.8512C108.516 45.8132 108.545 45.8151 108.597 45.7992C108.911 45.7932 109.242 45.81 109.577 45.8339C109.809 45.842 110.04 45.874 110.243 45.8985C111.209 46.0313 112.218 46.2238 113.173 46.4618C114.376 46.7601 115.573 47.1047 116.753 47.5529C117.292 47.7811 117.709 48.1266 118.087 48.5937C118.206 48.8415 118.354 49.0968 118.479 49.3222L118.496 49.3266Z" fill="white"/>
<path d="M37.9659 132.129C37.6955 132.422 37.2884 132.577 36.8922 132.668C36.3747 132.787 35.8362 132.739 35.3389 132.582C35.1048 132.471 34.8665 132.353 34.6086 132.242C34.168 131.962 33.8276 131.577 33.5492 131.095C33.4667 130.821 33.3405 130.554 33.2659 130.318C33.1426 129.883 33.154 129.461 33.2757 129.074C33.2683 128.676 33.4336 128.283 33.6338 127.983C33.8383 127.6 34.1154 127.327 34.4263 127.128C34.7347 126.827 35.0784 126.685 35.5 126.589C36.0372 126.463 36.5757 126.511 37.0914 126.667C37.3057 126.785 37.5439 126.903 37.7847 127.033C38.245 127.306 38.5921 127.711 38.8374 128.16C38.9396 128.427 39.0461 128.702 39.1483 128.969C39.2582 129.364 39.2524 129.788 39.1583 130.206C39.1276 130.612 38.9926 130.959 38.7553 131.285C38.5639 131.642 38.2936 131.935 37.9562 132.12L37.9659 132.129ZM47.0817 130.01C46.7935 131.779 46.5051 133.482 46.0301 135.165C45.6539 136.658 45.1936 138.13 44.719 139.543C44.543 140.065 44.27 140.526 43.8917 140.886C43.6767 141.062 43.4806 141.189 43.2589 141.346C42.7898 141.598 42.2724 141.717 41.7208 141.695C41.4377 141.655 41.1811 141.628 40.935 141.562C40.5297 141.442 40.2115 141.242 39.9172 140.954C39.6317 140.721 39.3558 140.432 39.1813 140.031C38.9699 139.657 38.8849 139.281 38.8526 138.864C38.7807 138.461 38.8128 138.05 38.9517 137.644C39.146 137.031 39.371 136.438 39.5706 135.76C40.2437 133.65 40.7155 131.487 41.1243 129.312C41.2333 128.592 41.3408 127.878 41.4185 127.185C41.4471 126.654 41.5976 126.136 41.8973 125.689C42.0333 125.45 42.1782 125.267 42.3601 125.058C42.7504 124.653 43.2008 124.426 43.7436 124.302C44.0253 124.257 44.2808 124.266 44.5442 124.222C44.9496 124.253 45.3288 124.337 45.672 124.555C46.059 124.676 46.3388 124.907 46.62 125.222C47.8215 126.353 47.3991 128.176 47.0817 130.01ZM53.2663 134.736C53.3829 135.151 53.4101 135.542 53.2697 135.954C53.2506 136.338 53.1039 136.707 52.9312 137.038C52.7267 137.421 52.4299 137.701 52.1018 137.919C51.7986 138.155 51.4429 138.341 51.0203 138.42C50.5028 138.539 49.996 138.529 49.467 138.334C49.2157 138.242 48.9816 138.132 48.7605 137.994C48.32 137.715 47.9412 137.361 47.6815 136.854C47.6001 136.598 47.5045 136.351 47.3784 136.084C47.2618 135.669 47.2929 135.239 47.3881 134.839C47.4124 134.48 47.5538 134.086 47.7832 133.722C47.9813 133.386 48.2462 133.091 48.5941 132.867C48.917 132.623 49.2397 132.47 49.6426 132.398C50.1601 132.279 50.7304 132.276 51.233 132.459C51.4473 132.576 51.7052 132.687 51.9565 132.778C52.3865 133.097 52.7072 133.489 52.9789 133.952C53.0983 134.199 53.1808 134.473 53.2633 134.747L53.2663 134.736Z" fill="white"/>
<path d="M146.61 85.5009C145.094 86.0358 143.317 86.0031 141.529 85.4042C139.303 84.6519 137.366 83.1558 136.084 81.182L138.798 79.4214C139.685 80.7861 141.02 81.8212 142.559 82.3415C143.758 82.7465 144.939 82.7452 145.795 82.3453C146.447 82.0403 147.007 81.471 147.402 80.7319C147.039 80.6583 146.677 80.5554 146.321 80.43C142.519 79.0697 140.283 74.6401 141.535 70.9533C142.032 69.4981 143.002 68.4512 144.207 68.0726C145.613 67.6342 147.209 68.1217 148.466 69.3817C150.091 71.0102 150.672 73.2278 150.964 74.7566C151.133 75.6232 151.236 76.4241 151.267 77.1817C152.229 76.7681 153.103 76.103 153.738 75.2303C155.153 73.2835 155.423 70.4425 154.416 67.9789C153.472 65.6638 151.443 63.6395 148.854 62.4302L150.22 59.4995C153.54 61.0484 156.164 63.6937 157.412 66.7554C158.831 70.2288 158.411 74.3004 156.351 77.1352C155.005 78.9805 153.012 80.2209 150.891 80.6894C150.281 82.7621 148.902 84.4664 147.156 85.2756C146.972 85.3582 146.79 85.4351 146.598 85.5035L146.61 85.5009ZM145.17 71.1661C145.01 71.2252 144.763 71.5244 144.606 71.9979C143.924 74.0034 145.29 76.6233 147.418 77.3852C147.626 77.4589 147.839 77.5159 148.056 77.5561C148.04 76.8985 147.953 76.1737 147.798 75.3649C147.461 73.6021 146.948 72.4278 146.187 71.6664C145.799 71.2806 145.366 71.1048 145.177 71.162C145.177 71.162 145.177 71.162 145.172 71.1605L145.17 71.1661Z" fill="#FA85CA"/>
<path d="M48.3978 3.59932C49.8327 2.87485 51.6016 2.67146 53.4466 3.03396C55.7537 3.48429 57.8677 4.72211 59.3966 6.51049L56.9385 8.61526C55.8848 7.37982 54.4231 6.52657 52.8286 6.21322C51.5869 5.97042 50.4185 6.12491 49.6178 6.6297C49.0116 7.01277 48.5331 7.65782 48.2349 8.43512C48.6052 8.46242 48.9808 8.5151 49.3433 8.59423C53.2924 9.4486 56.0844 13.5476 55.325 17.3663C55.0229 18.8739 54.1943 20.0426 53.052 20.5697C51.7115 21.1876 50.0699 20.9156 48.6584 19.83C46.8336 18.4299 45.9705 16.3044 45.4784 14.8298C45.1989 13.9937 44.9959 13.208 44.8581 12.4697C43.9601 13.0023 43.1758 13.7813 42.6656 14.7235C41.512 16.8362 41.6214 19.6948 42.9337 22.0006C44.1739 24.1732 46.4464 25.9151 49.1707 26.7769L48.2003 29.8618C44.7076 28.7581 41.7642 26.4768 40.1243 23.6037C38.2648 20.342 38.1496 16.2529 39.825 13.1771C40.9191 11.1745 42.7336 9.6825 44.7784 8.94161C45.1163 6.80822 46.2586 4.93836 47.8786 3.9038C48.0462 3.79286 48.222 3.69608 48.4034 3.60082L48.3978 3.59932ZM51.6941 17.6283C51.8471 17.5494 52.0494 17.2199 52.1447 16.73C52.5575 14.6526 50.8622 12.2322 48.6525 11.754C48.437 11.7083 48.2169 11.6792 47.9994 11.6629C48.1009 12.3135 48.2828 13.0217 48.5407 13.8041C49.109 15.5089 49.7675 16.6085 50.623 17.2634C51.0557 17.5951 51.5101 17.7109 51.687 17.6324L51.6941 17.6283Z" fill="#45B198"/>
<path d="M32.2694 85.3804C33.9197 87.2973 35.9849 88.8517 38.2875 89.9003C38.9384 90.2006 39.6083 90.452 40.2928 90.6714C40.3543 90.6879 41.4349 87.5726 41.5262 87.3213C41.616 87.0756 42.7051 83.9506 42.6883 83.9461C40.2727 83.185 38.0346 81.8959 36.1643 80.1959C35.6345 79.7123 35.136 79.2011 34.6648 78.6552C34.6786 78.6709 34.2402 79.7703 34.2888 79.6335C33.9988 80.4249 33.716 81.2123 33.4316 82.0053C33.1472 82.7983 32.8683 83.5927 32.5951 84.3887C32.536 84.5647 32.4768 84.7407 32.4176 84.9166C32.3589 85.0688 32.3113 85.2238 32.2694 85.3804Z" fill="#FFE13F"/>
<path d="M153.815 33.4646C153.33 35.948 152.305 38.3171 150.82 40.3708C150.4 40.9536 149.947 41.5036 149.458 42.0319C149.416 42.0747 146.935 39.9051 146.73 39.7303C146.536 39.5585 144.037 37.3844 144.051 37.3762C145.771 35.5231 147.081 33.2965 147.87 30.8884C148.095 30.2054 148.268 29.5145 148.409 28.809C148.403 28.8314 149.328 29.5646 149.214 29.4742C149.854 30.0173 150.498 30.5675 151.13 31.1146C151.768 31.6633 152.407 32.212 153.036 32.7703C153.178 32.8921 153.312 33.0179 153.453 33.1397C153.575 33.2443 153.695 33.3544 153.808 33.4687L153.815 33.4646Z" fill="#45B198"/>
<path d="M106.888 150.146C106.402 152.63 105.378 154.999 103.892 157.052C103.472 157.635 103.019 158.185 102.53 158.713C102.489 158.756 100.007 156.587 99.8019 156.412C99.6081 156.24 97.1095 154.066 97.1237 154.058C98.8431 152.205 100.153 149.978 100.942 147.57C101.167 146.887 101.34 146.196 101.481 145.491C101.475 145.513 102.4 146.246 102.286 146.156C102.926 146.699 103.57 147.249 104.202 147.796C104.841 148.345 105.479 148.894 106.109 149.452C106.25 149.574 106.39 149.701 106.525 149.821C106.647 149.926 106.767 150.036 106.881 150.15L106.888 150.146Z" fill="#75A5FE"/>
</svg>
