<svg width="29" height="29" viewBox="0 0 29 29" fill="none" xmlns="http://www.w3.org/2000/svg">
<path d="M22.8846 16.3439L19.7507 14.2812C18.8523 13.6918 18.6009 12.4844 19.1903 11.586L21.2531 8.45241C21.6843 7.79837 21.8351 7.01497 21.677 6.24594C21.5189 5.47691 21.0659 4.8157 20.4119 4.38447C19.0607 3.49326 17.2282 3.87417 16.3442 5.22535L14.2814 8.35897C13.6921 9.25736 12.4846 9.50891 11.5862 8.91957L8.45271 6.85685C7.96398 6.54062 7.4104 6.3753 6.84262 6.3753C6.64138 6.3753 6.44025 6.39686 6.23901 6.43999C5.46998 6.5981 4.80887 7.0509 4.37764 7.70493C3.48644 9.05612 3.8673 10.8889 5.21849 11.7729L8.35199 13.8356C8.78322 14.1159 9.08503 14.5615 9.19284 15.0718C9.30064 15.5749 9.19274 16.1067 8.91244 16.538L6.84999 19.6716C6.41876 20.3256 6.26759 21.109 6.42571 21.878C6.58382 22.6471 7.0368 23.3083 7.69083 23.7395C9.04202 24.6307 10.8745 24.2498 11.7585 22.8986L13.8213 19.765C14.4107 18.8666 15.6181 18.6151 16.5165 19.2044L19.6504 21.2671C21.0016 22.1583 22.834 21.7774 23.7181 20.4262C24.6093 19.075 24.2284 17.2423 22.8772 16.3583L22.8846 16.3439Z" fill="#45B198"/>
<path d="M25.0263 13.0883L23.517 12.0965L24.5087 10.5872C25.5149 9.06351 25.86 7.23795 25.4934 5.44835C25.1269 3.65874 24.0773 2.1207 22.5536 1.12168C19.4057 -0.948223 15.1581 -0.071388 13.0882 3.07659L12.0965 4.5859L10.5871 3.59407C9.0634 2.58786 7.23793 2.24288 5.44832 2.60943C3.65872 2.97598 2.12065 4.0253 1.12163 5.54898C-0.94827 8.69696 -0.0712814 12.9446 3.0767 15.0145L4.58572 16.0063L3.59398 17.5156C2.58777 19.0393 2.24271 20.8648 2.60925 22.6544C2.9758 24.444 4.02536 25.9821 5.54904 26.9811C6.70617 27.743 8.00702 28.1023 9.29353 28.1023C11.5215 28.1023 13.7064 27.017 15.0145 25.0262L16.0062 23.5169L17.5156 24.5087C20.6636 26.5786 24.9111 25.7018 26.981 22.5538C29.051 19.4058 28.1743 15.1582 25.0263 13.0883ZM23.7254 20.4192C22.8342 21.7704 21.0086 22.1513 19.6574 21.2601L16.5239 19.1974C15.6255 18.6081 14.418 18.8524 13.8287 19.758L11.7659 22.8916C10.8747 24.25 9.04901 24.6237 7.69782 23.7325C7.04379 23.3013 6.59117 22.6401 6.43305 21.871C6.27493 21.102 6.42575 20.3186 6.85698 19.6646L8.91978 16.531C9.20727 16.0997 9.30799 15.5751 9.20018 15.0648C9.09237 14.5617 8.7974 14.1161 8.35898 13.8286L5.22548 11.7659C3.87429 10.8747 3.49343 9.04912 4.38464 7.69793C4.81587 7.0439 5.47697 6.59113 6.246 6.43301C6.44724 6.38988 6.64872 6.3683 6.84996 6.3683C7.41775 6.3683 7.97098 6.53362 8.4597 6.84985L11.5932 8.91257C12.4916 9.50191 13.699 9.25755 14.2884 8.35197L16.3512 5.21837C17.2424 3.86 19.0681 3.48626 20.4192 4.37747C21.0733 4.8087 21.5259 5.46991 21.684 6.23894C21.8421 7.00797 21.6913 7.79137 21.2601 8.44541L19.1973 11.579C18.6079 12.4774 18.8525 13.6848 19.7581 14.2742L22.8916 16.3369C24.2428 17.2281 24.6236 19.0537 23.7324 20.4049L23.7254 20.4192Z" fill="#292929"/>
</svg>
