<svg width="43" height="43" viewBox="0 0 43 43" fill="none" xmlns="http://www.w3.org/2000/svg">
<path d="M36.2888 13.8214L28.7998 16.6675C28.0596 16.9478 27.2331 16.7537 26.6868 16.1788C26.1478 15.6038 26.0041 14.7629 26.3275 14.0442L29.5975 6.77797C30.0072 5.87238 29.5973 4.80869 28.6917 4.39902C28.2533 4.20496 27.7647 4.19057 27.3119 4.35587C26.8591 4.52837 26.507 4.859 26.3057 5.29741L23.0213 12.6067C22.6979 13.3255 21.9862 13.7783 21.1884 13.7567C20.3978 13.7351 19.708 13.2392 19.4277 12.4989L16.6031 5.05303C16.4306 4.60024 16.0999 4.24807 15.6615 4.04683C15.2231 3.85278 14.7344 3.8384 14.2816 4.00371C13.3545 4.35588 12.8872 5.39803 13.2393 6.32517L16.0282 13.6633C16.3085 14.4035 16.1143 15.2301 15.5394 15.7763C14.9644 16.3153 14.1233 16.4591 13.4046 16.1356L6.86458 13.1961C5.959 12.7864 4.88807 13.1961 4.48559 14.1017C4.07592 15.0073 4.48542 16.0782 5.391 16.4806L12.0321 19.4705C12.7508 19.7939 13.2037 20.5198 13.1821 21.3032C13.1606 22.0938 12.6647 22.7838 11.9244 23.0641L5.06779 25.6658C4.615 25.8383 4.26255 26.1689 4.06131 26.6074C3.86725 27.0458 3.85319 27.5345 4.01849 27.9873C4.19099 28.4401 4.52129 28.7922 4.9597 28.9935C5.39812 29.1875 5.88714 29.2019 6.33993 29.0366L13.146 26.4492C13.8863 26.1689 14.7127 26.363 15.259 26.938C15.798 27.5129 15.9418 28.3538 15.6183 29.0725L12.6143 35.7566C12.4203 36.195 12.4058 36.6838 12.5712 37.1366C12.7436 37.5893 13.0743 37.9415 13.5127 38.1427C14.4183 38.5524 15.482 38.1427 15.8917 37.2372L18.8813 30.5962C19.1976 29.8991 19.8949 29.4463 20.6567 29.4463C20.6783 29.4463 20.6927 29.4463 20.7143 29.4463C21.5049 29.4678 22.1946 29.9638 22.4749 30.704L25.0768 37.5606C25.4289 38.4877 26.471 38.9549 27.3982 38.6027C27.851 38.4302 28.2031 38.0996 28.4043 37.6612C28.5984 37.2228 28.6128 36.7341 28.4475 36.2813L25.8025 29.3241C25.5222 28.5838 25.7164 27.7573 26.2913 27.2111C26.8663 26.672 27.7074 26.5283 28.4261 26.8517L35.8361 30.1866C36.2745 30.3806 36.7632 30.395 37.216 30.2297C37.6688 30.0572 38.0209 29.7266 38.2221 29.2882C38.6318 28.3826 38.2219 27.3189 37.3163 26.9092L30.007 23.6247C29.2883 23.3013 28.8355 22.5753 28.857 21.7919C28.8786 21.0014 29.3745 20.3114 30.1148 20.0311L37.5609 17.2065C38.4881 16.8544 38.955 15.8122 38.6029 14.8851C38.2507 13.9579 37.2086 13.4908 36.2814 13.8429L36.2888 13.8214Z" fill="#FA85CA"/>
<path d="M39.2643 10.3142C37.8772 9.68889 36.3319 9.64577 34.9088 10.1848L31.8181 11.3563L33.1552 8.38083C34.4417 5.51315 33.1549 2.13519 30.2944 0.84869C28.9072 0.223406 27.3623 0.180266 25.9393 0.719304C24.5162 1.25834 23.3875 2.32204 22.7622 3.70917L21.4041 6.72779L20.2467 3.68043C19.7077 2.25738 18.6442 1.12898 17.2571 0.503698C15.87 -0.121586 14.3247 -0.164704 12.9016 0.374334C9.96208 1.48834 8.48146 4.78726 9.59547 7.71962L10.7093 10.6592L8.45984 9.64577C5.59216 8.35927 2.2142 9.64578 0.927701 12.5063C-0.358802 15.374 0.927687 18.7519 3.78818 20.0384L6.1384 21.0949L3.68044 22.0293C2.25738 22.5683 1.12905 23.632 0.503771 25.0191C-0.121513 26.4062 -0.164762 27.9515 0.374275 29.3746C0.913313 30.7976 1.97713 31.926 3.36425 32.5513C4.75137 33.1766 6.29666 33.2197 7.71971 32.6806L10.1345 31.7679L9.05643 34.1612C8.43115 35.5483 8.3879 37.0936 8.92693 38.5166C9.46597 39.9397 10.5298 41.0681 11.9169 41.6933C14.7846 42.9799 18.1625 41.6933 19.449 38.8328L20.5057 36.4827L21.4399 38.9407C22.3024 41.2118 24.4728 42.6133 26.7727 42.6133C27.4411 42.6133 28.1241 42.4911 28.7853 42.2396C30.2084 41.7005 31.3367 40.6368 31.962 39.2497C32.5873 37.8626 32.6302 36.3174 32.0912 34.8943L31.1212 32.3357L34.2403 33.7371C35.6274 34.3624 37.1727 34.4056 38.5958 33.8665C40.0188 33.3275 41.1471 32.2638 41.7724 30.8767C43.0589 28.009 41.7724 24.631 38.9119 23.3445L35.8932 21.9861L38.9407 20.829C41.8803 19.715 43.3609 16.4161 42.2469 13.4837C41.7079 12.0607 40.644 10.9323 39.2569 10.307L39.2643 10.3142ZM37.5679 17.1923L30.1221 20.0169C29.389 20.2971 28.8931 20.9943 28.8643 21.7777C28.8427 22.5683 29.2956 23.287 30.0143 23.6104L37.3236 26.895C38.2292 27.3046 38.6315 28.3683 38.229 29.2739C38.035 29.7123 37.6757 30.0501 37.2229 30.2154C36.7701 30.3879 36.2814 30.3736 35.843 30.1723L28.433 26.8375C27.7143 26.514 26.8736 26.6578 26.2986 27.1968C25.7236 27.7359 25.5366 28.5696 25.8098 29.3099L28.4548 36.267C28.6273 36.7198 28.6128 37.2086 28.4116 37.647C28.2175 38.0854 27.8583 38.4232 27.4055 38.5885C26.4783 38.9407 25.4358 38.4735 25.0837 37.5464L22.4822 30.6898C22.2019 29.9567 21.5046 29.4608 20.7212 29.432C20.6996 29.432 20.6852 29.432 20.6636 29.432C19.9018 29.432 19.2048 29.8777 18.8886 30.582L15.8986 37.2229C15.489 38.1285 14.4252 38.531 13.5196 38.1285C13.0812 37.9345 12.7434 37.5751 12.5781 37.1223C12.4056 36.6695 12.42 36.1808 12.6212 35.7424L15.6256 29.0583C15.949 28.3396 15.8053 27.4987 15.2662 26.9237C14.7272 26.3488 13.8935 26.1547 13.1533 26.435L6.34685 29.0224C5.89406 29.1949 5.40539 29.1805 4.96697 28.9792C4.52856 28.7852 4.19072 28.4258 4.02541 27.973C3.85292 27.5203 3.86734 27.0315 4.06858 26.5931C4.26263 26.1547 4.62192 25.8169 5.07471 25.6516L11.9313 23.0498C12.6644 22.7695 13.1603 22.0724 13.1891 21.289C13.2106 20.4984 12.7578 19.7797 12.039 19.4563L5.39827 16.4664C4.49269 16.0567 4.09003 14.993 4.49251 14.0874C4.90218 13.1819 5.96592 12.7794 6.8715 13.1818L13.4119 16.1214C14.1306 16.4448 14.9717 16.3011 15.5466 15.7621C16.1216 15.223 16.3083 14.3893 16.0351 13.649L13.2466 6.31092C12.8944 5.38377 13.3617 4.34165 14.2889 3.98948C14.7345 3.81699 15.2303 3.83136 15.6688 4.0326C16.1072 4.22665 16.445 4.58601 16.6103 5.0388L19.4347 12.4847C19.715 13.2178 20.4123 13.7137 21.1957 13.7425C21.9934 13.764 22.7048 13.3112 23.0282 12.5925L26.313 5.28316C26.5071 4.84474 26.8663 4.50695 27.3191 4.34164C27.7719 4.16915 28.2606 4.18352 28.699 4.38476C29.6046 4.79443 30.0069 5.85813 29.6044 6.76371L26.3344 14.03C26.011 14.7487 26.1547 15.5896 26.6938 16.1645C27.2328 16.7395 28.0665 16.9336 28.8067 16.6533L36.2957 13.8071C37.2229 13.455 38.265 13.9221 38.6172 14.8493C38.9693 15.7764 38.5024 16.8186 37.5752 17.1707L37.5679 17.1923Z" fill="#292929"/>
</svg>
