<svg width="392" height="482" viewBox="0 0 392 482" fill="none" xmlns="http://www.w3.org/2000/svg">
<path d="M147.412 480.33C142.744 480.33 136.688 479.839 134.219 477.505C132.367 476.078 128.268 472.075 128.076 464.591C127.902 457.956 132.753 453.279 134.749 451.629C134.605 450.019 134.692 446.855 136.649 443.075C136.919 426.352 138.125 371.91 142.494 345.119C142.802 343.238 143.091 341.396 143.371 339.602C134.296 324.837 129.377 306.86 129.107 287.514C128.442 287.215 127.767 286.954 127.053 286.694C126.282 286.405 125.472 286.106 124.671 285.73L117.93 282.595C115.885 281.65 113.821 280.541 111.218 279.017C110.542 278.612 109.819 278.207 109.096 277.812C108.334 277.387 107.582 276.963 106.887 276.548C104.853 275.352 102.894 274.099 100.551 272.498C99.519 271.794 98.5161 271.119 97.5131 270.453C96.5101 269.788 95.5166 269.112 94.4847 268.408C93.2888 267.685 92.1221 266.788 91.0998 265.997L90.4923 265.525C89.5279 264.763 88.5534 264.059 87.6179 263.374C86.6438 262.67 85.6412 261.947 84.6479 261.156C82.3911 259.43 80.655 258.002 79.2084 256.7C78.5815 256.218 78.0028 255.717 77.4435 255.225C76.8744 254.733 76.3443 254.28 75.7849 253.846C72.8145 251.348 70.143 248.889 67.5487 246.516C66.835 245.889 66.1212 245.214 65.4268 244.549C64.6553 243.816 63.9319 243.121 63.1989 242.504C62.1863 241.549 61.2509 240.662 60.4215 239.92L60.0452 239.572C59.2448 238.82 58.4828 238.107 57.8174 237.277L56.1009 235.541C54.3553 233.776 52.7062 232.108 51.356 230.642C51.3271 230.613 51.3077 230.584 51.2788 230.555C51.0281 230.237 50.7193 229.928 50.4203 229.619C50.131 229.33 49.8322 229.022 49.5718 228.703C48.4241 227.507 47.421 226.437 46.5627 225.521C45.3764 224.257 44.4412 223.264 43.9204 222.763C41.7119 220.602 39.7827 219.069 37.8249 217.921C36.5326 217.15 35.0473 216.455 33.6103 215.79C33.5428 215.761 33.4753 215.722 33.4078 215.674C33.2921 215.597 33.0993 215.549 32.781 215.462C32.5882 215.414 32.3758 215.356 32.1637 215.288C31.9708 215.23 31.7684 215.153 31.5562 215.076C31.1319 214.922 30.6884 214.758 30.322 214.719C30.2737 214.719 30.2256 214.71 30.1774 214.7L26.0108 213.842L25.0464 213.735C24.5834 213.678 24.0915 213.658 23.5611 213.62C22.9149 213.581 22.24 213.543 21.5263 213.465C21.5263 213.465 21.5265 213.465 21.5169 213.465C21.3626 213.514 21.2083 213.533 21.054 213.533C21.0251 213.533 21.0057 213.533 20.9768 213.533C20.861 213.543 20.7742 213.552 20.697 213.552C20.5331 213.552 20.3788 213.533 20.2341 213.494C20.1184 213.523 19.9929 213.533 19.8772 213.533C19.8097 213.533 19.7516 213.533 19.6841 213.523L17.0899 213.234C16.9838 213.224 16.8873 213.205 16.8102 213.186C16.7909 213.186 16.7814 213.186 16.7621 213.186C16.7043 213.186 16.6368 213.186 16.5789 213.176L16.0581 213.118C15.7977 213.089 15.4215 213.041 15.0358 212.868C14.7947 212.829 14.5729 212.761 14.3897 212.703C14.3222 212.684 14.2644 212.665 14.2065 212.646C13.7532 212.598 13.406 212.395 13.2035 212.27C13.1552 212.241 13.0876 212.202 13.0104 212.164C13.0104 212.164 12.9911 212.164 12.9911 212.154C12.8754 212.115 12.7595 212.077 12.6534 212.019C12.4027 211.932 12.2196 211.826 12.0846 211.749C12.0364 211.72 11.9691 211.681 11.892 211.643C11.892 211.643 11.8724 211.643 11.8628 211.633C11.5831 211.556 11.3326 211.421 11.1301 211.228C11.0143 211.18 10.9079 211.112 10.8018 211.045C10.6668 210.996 10.5418 210.929 10.4261 210.852C10.1657 210.755 9.92436 210.601 9.75077 210.408C9.53859 210.264 9.2782 210.09 9.02745 209.801C8.79599 209.646 8.51625 209.463 8.24621 209.126L8.14026 208.991C7.89915 208.885 7.68685 208.721 7.5229 208.508C7.44574 208.412 7.32059 208.258 7.27237 208.219C7.04091 208.113 6.84769 207.959 6.68374 207.756L5.30492 206.02C5.21812 205.914 5.1504 205.798 5.09254 205.673C4.86107 205.162 4.61025 204.853 4.29199 204.458C4.16662 204.304 3.9062 203.976 3.79047 203.484C3.68439 203.291 3.61712 203.108 3.55926 202.953L3.53995 202.895C3.38564 202.654 3.31811 202.423 3.27954 202.278C3.03843 201.95 2.93221 201.642 2.90328 201.333C2.85506 201.188 2.82628 201.044 2.81663 200.899C2.79735 200.851 2.7394 200.706 2.7394 200.706C2.56581 200.436 2.49826 200.166 2.45968 199.992C2.38253 199.819 2.32476 199.626 2.31512 199.433C2.25725 199.279 2.19923 199.086 2.16066 198.874C2.12208 198.739 2.10296 198.594 2.09332 198.45C2.09332 198.45 2.09332 198.43 2.09332 198.421C1.89079 197.447 1.83285 196.501 1.77498 195.585C1.75569 195.228 1.73633 194.871 1.69775 194.495C1.69775 194.447 1.69775 194.399 1.69775 194.351C1.69775 193.068 1.82305 191.93 2.10274 190.686C2.1606 190.271 2.29568 189.924 2.40176 189.635C2.44998 189.509 2.51738 189.326 2.52702 189.268C2.54631 189.104 2.59491 188.94 2.67206 188.786C2.72993 188.574 2.81675 188.371 2.93248 188.198C2.93248 188.198 3.37607 187.243 3.37607 187.233C3.46287 186.925 3.61716 186.664 3.83898 186.442C4.00293 186.114 4.21508 185.748 4.54299 185.42C4.60085 185.314 4.66834 185.189 4.76478 185.063C4.8998 184.832 5.03495 184.648 5.14104 184.504C5.18926 184.446 5.23714 184.388 5.27572 184.321C5.32394 184.234 5.38198 184.137 5.44949 184.051C5.50735 183.925 5.59394 183.761 5.71932 183.588C5.999 183.105 6.35604 182.768 6.65501 182.537C6.7611 182.295 6.92505 182.083 7.13722 181.919C7.1758 181.881 7.22393 181.842 7.28179 181.794L7.05058 181.505C6.80947 181.196 6.66483 180.897 6.58767 180.617C6.4623 180.434 6.30763 180.164 6.22083 179.807C6.16297 179.691 6.11486 179.556 6.09557 179.431C6.07628 179.354 6.03786 179.296 6.00892 179.228C5.95106 179.103 5.87372 178.939 5.81585 178.756C5.64226 178.505 5.54598 178.226 5.50741 177.927C5.46883 177.811 5.43958 177.714 5.42029 177.628C5.27563 177.348 5.20812 177.059 5.17918 176.817C5.17918 176.779 5.15988 176.74 5.15988 176.702C5.0345 176.461 4.96705 176.191 4.97669 175.921C4.9574 175.843 4.94795 175.747 4.92866 175.641C4.88044 175.487 4.85166 175.342 4.84201 175.197C4.7745 174.937 4.76484 174.667 4.82271 174.397C4.80342 174.078 4.8225 173.789 4.85143 173.481C4.84179 173.442 4.82271 173.404 4.82271 173.365C4.72626 172.902 4.76482 172.506 4.8034 172.246C4.8034 172.198 4.81306 172.14 4.82271 172.092C4.78413 171.918 4.78388 171.831 4.81282 171.658L5.01531 169.845C5.04424 169.555 5.13098 169.285 5.19849 169.083C5.21778 169.015 5.23712 168.957 5.25641 168.9L5.27572 168.697C5.27572 168.61 5.30493 168.523 5.32422 168.446C5.31458 168.186 5.36248 167.925 5.47821 167.675C5.52643 167.569 5.54606 167.443 5.58464 167.318C5.65215 167.058 5.73877 166.72 5.89308 166.402L6.3946 165.331C6.44282 165.215 6.51994 165.1 6.59709 164.994C6.6646 164.849 6.77055 164.647 6.94415 164.454C6.94415 164.444 6.95381 164.425 6.96346 164.415C6.99239 164.251 7.05042 164.097 7.13722 163.943C8.41026 161.638 10.2523 159.632 12.4608 158.127C15.682 155.832 19.472 154.616 23.3972 154.616C26.0108 154.616 28.5571 155.176 30.8428 156.237C31.9904 154.703 33.3792 153.517 34.4207 152.688C37.4201 150.498 40.9111 149.36 44.5759 149.36C50.3142 149.36 55.7921 152.167 59.2254 156.873C60.6817 159.053 61.5015 160.798 61.9548 162.689C62.1573 163.017 62.2441 163.383 62.2345 163.74C62.2345 163.817 62.2444 163.904 62.2444 163.981C62.3601 164.502 62.4755 165.003 62.5816 165.505C63.2663 168.639 63.8065 171.118 65.3689 173.77L65.6486 174.117C65.6968 174.185 65.7449 174.252 65.7932 174.329C65.9957 174.686 66.1887 175.062 66.3526 175.458C68.4454 178.467 71.5124 181.601 75.7077 185.034L76.4211 185.632C87.0297 194.524 108.903 212.848 138.279 225.791C149.1 189.741 168.861 182.083 199.838 173.876C203.59 172.902 207.351 172.401 211.045 172.401C230.517 172.401 248.956 186.114 264.406 212.077C265.12 212.038 265.833 212.019 266.537 212.019C288.613 212.019 305.857 232.021 307.574 245.253C307.661 245.947 308.278 246.468 309.001 246.468C309.088 246.468 309.174 246.468 309.271 246.449C317.555 244.935 326.071 242.929 334.587 240.498C336.101 238.434 337.779 236.544 339.467 234.991C343.537 231.259 348.706 229.205 354.039 229.205C362.873 229.205 370.165 234.509 371.794 241.82C372.431 241.723 373.067 241.675 373.704 241.675C381.988 241.675 388.556 249.737 389.511 257.26C390.418 264.493 388.006 269.961 382.509 273.192C384.853 276.857 385.18 281.968 383.213 286.588C381.795 289.915 377.06 297.659 363.722 297.659C363.201 297.659 362.661 297.65 362.112 297.621H361.456C361.157 297.621 360.81 297.63 360.395 297.63C353.982 297.63 348.214 296.145 343.238 293.204C338.985 294.082 334.983 294.814 331.058 295.451C330.894 295.557 330.71 295.644 330.517 295.692C328.309 296.261 324.654 296.888 320.998 296.955C320.825 296.955 320.651 296.936 320.488 296.888C314.286 297.573 308.365 297.92 302.896 297.92C299.299 297.92 295.817 297.775 292.529 297.476C293.252 316.022 288.401 332.128 278.101 345.369C280.724 354.338 283 365.005 284.861 377.089C288.102 398.075 289.356 420.459 289.809 432.331C293.397 436.179 294.226 439.902 294.4 441.725C296.666 442.969 302.289 446.672 303.35 453.221C304.546 460.618 301.247 465.305 299.695 467.05C296.473 471.458 282.287 473.763 269.836 473.763C262.767 473.763 239.293 472.856 233.979 461.139C231.712 455.757 230.97 449.151 231.925 442.978C232.021 442.371 232.194 441.715 232.455 441.04C232.339 439.102 232.156 436.257 231.944 432.939C231.886 432.794 231.847 432.64 231.828 432.476L231.645 430.007C231.423 426.94 231.182 423.594 230.922 420.247C230.902 420.006 230.941 419.765 231.018 419.543C230.893 417.769 230.758 416.023 230.623 414.335C230.488 414.123 230.41 413.872 230.391 413.612C230.092 409.87 229.784 406.282 229.475 403.235C229.456 403.061 229.475 402.878 229.504 402.714C229.427 402.164 229.359 401.721 229.292 401.393C228.52 397.535 227.913 392.732 226.823 384.004C226.505 381.429 226.138 378.517 225.704 375.17C222.57 375.768 219.358 376.241 216.137 376.578C213.485 376.858 210.794 377.002 208.152 377.002C206.744 377.002 205.335 376.964 203.927 376.887L203.802 377.832C202.664 386.309 202.037 390.977 201.275 394.931C201.208 395.249 201.111 395.789 200.976 396.773C200.976 396.86 200.976 396.956 200.976 397.043C200.735 399.772 200.378 403.37 199.867 408.365C199.867 408.462 199.838 408.549 199.819 408.635C198.874 420.131 197.861 435.659 197.331 444.117C198.691 449.305 198.874 454.773 197.842 459.547C194.235 474.274 163.296 480.369 147.538 480.369L147.412 480.33Z" fill="white"/>
<path d="M44.4693 150.971C49.5326 150.971 54.5669 153.401 57.7881 157.808C59.0225 159.66 59.8906 161.338 60.315 163.354L60.4303 163.499C60.4303 163.499 60.5463 163.643 60.4016 163.759C60.4884 163.874 60.5075 163.894 60.4496 163.961C61.3851 168.051 61.8385 171.214 63.9023 174.676C64.0181 174.821 64.1337 174.965 64.2494 175.11C64.4326 175.438 64.6159 175.814 64.7895 176.219C66.7087 179.006 69.6506 182.256 74.5595 186.268C85.2935 195.257 108.112 214.661 139.243 228.009C149.321 192.585 166.903 184.233 200.165 175.428C203.84 174.464 207.437 174.011 210.948 174.011C231.731 174.011 249.544 190.107 263.412 213.754C264.435 213.668 265.447 213.62 266.45 213.62C287.88 213.62 304.284 233.361 305.847 245.407C306.049 246.96 307.39 248.069 308.914 248.069C309.097 248.069 309.29 248.049 309.483 248.02C319.272 246.227 328.173 243.989 335.503 241.877C337.094 239.639 338.811 237.701 340.489 236.158C344.559 232.426 349.381 230.805 353.943 230.805C362.217 230.805 369.663 236.119 370.338 243.758C371.457 243.43 372.546 243.275 373.607 243.275C381.072 243.275 386.945 250.827 387.765 257.414C388.681 264.686 386.106 269.797 379.866 272.584C386.318 279.287 382.296 295.952 363.616 295.952C363.114 295.952 362.603 295.942 362.082 295.913C362.015 295.913 361.938 295.913 361.841 295.913C361.504 295.913 360.973 295.933 360.289 295.933C357 295.933 350.142 295.576 343.43 291.41C339.399 292.249 334.914 293.107 330.141 293.859C330.141 293.946 330.083 294.023 329.986 294.043C327.672 294.631 324.2 295.19 320.863 295.248C320.786 295.248 320.718 295.2 320.68 295.142C314.864 295.798 308.817 296.212 302.799 296.212C298.729 296.212 294.659 296.02 290.686 295.586C291.891 315.877 286.24 332.349 276.172 344.954C278.814 353.808 281.148 364.494 283.125 377.282C286.472 398.952 287.677 422.368 288.082 432.958C293.01 437.934 292.692 442.698 292.692 442.698C292.692 442.698 300.446 446.142 301.623 453.433C302.799 460.714 299.173 465.006 298.305 465.96C295.894 469.461 283.183 472.055 269.739 472.055C254.945 472.055 239.254 468.921 235.386 460.405C232.994 454.715 232.667 448.292 233.457 443.181C233.554 442.563 233.747 441.917 234.026 441.252C233.901 439.226 233.708 436.015 233.457 432.263L233.38 432.311C233.11 428.627 232.811 424.345 232.474 420.073L232.618 420.054C232.454 417.768 232.281 415.511 232.107 413.38L231.933 413.438C231.625 409.571 231.307 405.944 231.008 403.022H231.104C230.998 402.183 230.892 401.508 230.796 401.026C229.773 395.924 229.05 389.115 227.005 373.164C223.35 373.926 219.628 374.504 215.847 374.9C213.224 375.179 210.62 375.314 208.035 375.314C206.135 375.314 204.254 375.237 202.383 375.093C201.043 385.016 200.358 390.292 199.539 394.574C199.423 395.085 199.307 395.857 199.182 396.85H199.22C198.941 399.965 198.555 403.89 198.111 408.143H198.082C197.127 419.716 196.096 435.523 195.546 444.232C196.751 448.707 197.205 454.04 196.105 459.142C192.952 472.017 164.482 478.662 147.411 478.662C141.48 478.662 136.928 477.861 135.289 476.241C134.267 475.47 129.908 471.92 129.715 464.542C129.522 457.165 136.504 452.343 136.504 452.343C136.504 452.343 135.52 448.533 138.269 443.499C138.52 427.856 139.696 372.392 144.094 345.379C144.431 343.276 144.76 341.232 145.068 339.245C136.138 324.943 130.805 306.966 130.718 286.317C130.428 286.221 130.149 286.125 129.859 286.038C128.364 285.343 126.831 284.909 125.336 284.205C123.841 283.511 122.337 282.817 120.842 282.113C120.09 281.766 119.347 281.418 118.595 281.071C116.348 280.03 114.245 278.862 112.027 277.56C110.677 276.75 109.056 275.911 107.706 275.101C105.488 273.799 103.53 272.526 101.457 271.099C99.3833 269.672 97.4255 268.408 95.352 266.99C94.0018 266.18 92.6711 265.11 91.4656 264.184C89.5367 262.651 87.5792 261.378 85.6503 259.844C83.8372 258.455 81.908 256.922 80.2396 255.417C79.0341 254.492 77.9637 253.45 76.7582 252.524C73.8745 250.094 71.261 247.692 68.6378 245.291C67.0851 243.931 65.6767 242.456 64.2301 241.24C63.2753 240.344 62.3303 239.447 61.4913 238.694C60.5462 237.798 59.7073 237.045 59.0129 236.177C56.5343 233.66 54.287 231.432 52.5318 229.523C51.9531 228.799 51.2396 228.192 50.7767 227.613C47.9606 224.662 45.9737 222.463 45.0189 221.566C42.8875 219.483 40.8431 217.805 38.6249 216.503C37.2747 215.693 35.7704 214.999 34.2756 214.304C33.7837 213.986 33.2627 213.928 32.6359 213.725C31.9994 213.523 31.2469 213.176 30.4753 213.089C29.0576 212.8 27.6497 212.501 26.232 212.211L25.1903 212.096C24.1488 211.98 22.9723 211.97 21.6703 211.826C21.5546 211.816 21.4387 211.797 21.3326 211.797C21.2073 211.797 21.0919 211.816 21.0148 211.884C20.9858 211.884 20.9566 211.884 20.9277 211.884C20.8216 211.884 20.735 211.903 20.6578 211.903C20.6 211.903 20.5422 211.883 20.494 211.826C20.3782 211.816 20.2624 211.797 20.1563 211.797C20.0309 211.797 19.9154 211.816 19.8286 211.884C19.655 211.864 19.4813 211.845 19.3077 211.826C19.0473 211.797 18.7869 211.768 18.7869 211.768L17.2244 211.594C17.0412 211.575 16.9255 211.488 16.8195 211.488C16.7809 211.488 16.7422 211.498 16.7036 211.536C16.53 211.517 16.3564 211.498 16.1828 211.479C15.9224 211.45 15.6618 211.42 15.5461 211.276L15.2857 211.247C15.0253 211.218 14.6495 211.044 14.3891 211.015C14.1287 210.986 14.0127 210.842 13.6366 210.668C13.5208 210.524 13.3765 210.639 13.2608 210.495C13.0004 210.466 12.8844 210.321 12.5083 210.148C12.3926 210.003 12.2482 210.119 12.1325 209.974L12.0167 209.829C11.9009 209.685 11.7561 209.8 11.6404 209.656C11.5247 209.511 11.2641 209.482 11.2641 209.482C11.187 209.386 11.062 209.328 10.8884 209.309C10.6569 209.019 10.3965 208.99 10.165 208.701C9.93358 208.412 9.67318 208.383 9.44172 208.093C9.32599 207.949 9.21004 207.804 9.21004 207.804C9.09431 207.659 8.9788 207.515 8.71841 207.486C8.48695 207.196 8.25537 206.907 7.87925 206.733C7.41633 206.155 6.96288 205.576 6.49996 204.997C6.1817 204.303 5.83447 203.869 5.49692 203.435C5.38119 203.291 5.2655 203.146 5.29443 202.885L5.17859 202.741C5.06286 202.596 4.97645 202.191 4.86072 202.046C4.74499 201.902 4.77385 201.641 4.54239 201.352C4.46523 201.256 4.43598 201.12 4.45527 200.947C4.47456 200.773 4.44578 200.638 4.36862 200.542C4.25289 200.397 4.16602 199.992 4.05029 199.848C3.93456 199.703 3.96353 199.442 3.8478 199.298C3.87673 199.037 3.64557 198.748 3.6745 198.488C3.55877 198.343 3.70312 198.227 3.58738 198.083C3.32699 196.867 3.33675 195.691 3.22102 194.36C3.22102 193.174 3.3463 192.142 3.60669 190.985C3.66456 190.464 3.983 189.972 4.04087 189.461C4.18553 189.345 4.0695 189.2 4.21416 189.084C4.38776 188.708 4.56139 188.332 4.73499 187.956C4.87965 187.84 4.76409 187.696 4.90875 187.58L5.05332 187.464C5.22692 187.088 5.40067 186.712 5.68999 186.481C5.83466 186.365 5.86366 186.104 6.00833 185.989C6.18192 185.613 6.47093 185.381 6.64453 185.005C6.78919 184.889 6.8182 184.629 6.96286 184.513C7.13646 184.137 7.42604 183.906 7.71537 183.674C7.86003 183.558 8.00477 183.443 8.03371 183.182C8.4677 182.835 8.78594 182.343 9.21993 182.006C8.87273 181.572 8.78565 181.167 8.44811 180.733C8.37095 180.636 8.29404 180.54 8.21689 180.443C8.10116 180.299 7.98511 180.154 8.12977 180.038C8.01404 179.894 7.89856 179.749 7.89856 179.749C7.78282 179.604 7.66713 179.46 7.69606 179.199L7.58022 179.055C7.49342 178.65 7.26204 178.36 7.17524 177.955L7.0594 177.81C6.94367 177.666 7.08848 177.55 6.97275 177.405C6.85702 177.261 6.88599 177 6.77026 176.856C6.65453 176.711 6.68314 176.451 6.68314 176.451C6.56741 176.306 6.71222 176.19 6.59649 176.046L6.48065 175.901C6.50958 175.64 6.39379 175.496 6.42273 175.235C6.307 175.091 6.33608 174.831 6.33608 174.831C6.33608 174.831 6.22014 174.686 6.36481 174.57C6.27801 174.165 6.30694 173.905 6.36481 173.384C6.50947 173.268 6.39389 173.123 6.27816 172.979C6.19136 172.574 6.36496 172.197 6.27816 171.792L6.48065 169.979C6.50958 169.719 6.6834 169.343 6.71234 169.082L6.74106 168.822C6.88572 168.706 6.91471 168.446 6.79898 168.301C6.97258 167.925 7.03037 167.404 7.20397 167.028C7.37756 166.652 7.55119 166.276 7.72479 165.9C7.86945 165.784 7.89846 165.524 8.04312 165.408C8.18779 165.292 8.21679 165.032 8.36146 164.916C8.67972 164.424 8.99773 163.933 9.31599 163.45C9.35457 163.421 9.38382 163.402 9.40311 163.383C9.48026 163.248 9.54753 163.103 9.63433 162.958C9.63433 162.958 9.48985 163.074 9.34519 163.19C9.02693 163.682 8.70844 164.174 8.39018 164.656C9.54749 162.553 11.1966 160.769 13.193 159.419C16.2502 157.239 19.7707 156.188 23.204 156.188C26.0394 156.188 28.8069 156.911 31.1987 158.31C32.1824 156.584 33.6581 155.166 35.2494 153.902C38.0077 151.887 41.1999 150.932 44.3728 150.932M44.4693 147.663C40.4573 147.663 36.6284 148.907 33.3879 151.27C33.3493 151.298 33.3109 151.327 33.282 151.356C32.4043 152.051 31.2953 152.996 30.2441 154.192C28.0645 153.353 25.7015 152.919 23.3001 152.919C19.047 152.919 14.9291 154.24 11.3993 156.738C8.98824 158.377 6.97281 160.576 5.58404 163.093C5.4876 163.267 5.41044 163.45 5.34293 163.633C5.23685 163.788 5.1498 163.932 5.09194 164.058C4.98585 164.212 4.88937 164.376 4.81222 164.54L4.3107 165.62C4.07924 166.112 3.97321 166.546 3.88641 166.855C3.86712 166.913 3.85767 166.97 3.83838 167.019C3.67443 167.404 3.58761 167.8 3.57797 168.205C3.55868 168.292 3.549 168.378 3.53935 168.456V168.523C3.4622 168.774 3.33658 169.15 3.28836 169.613L3.08587 171.426C3.05693 171.648 3.05693 171.87 3.08587 172.091C3.04729 172.41 3.00875 172.94 3.12448 173.567C3.10519 173.799 3.09553 174.04 3.10517 174.31C3.10517 174.31 3.10517 174.31 3.10517 174.319C3.0666 174.686 3.08617 175.043 3.15368 175.399C3.17297 175.563 3.20152 175.737 3.24974 175.92C3.24974 175.968 3.25941 176.007 3.26905 176.046C3.28834 176.431 3.36549 176.798 3.51016 177.155C3.55838 177.463 3.64523 177.811 3.80918 178.158C3.80918 178.187 3.82873 178.225 3.83838 178.264C3.91553 178.736 4.0792 179.132 4.27209 179.45C4.3396 179.623 4.40705 179.768 4.45527 179.874L4.47458 179.913C4.51315 180.057 4.56175 180.193 4.61962 180.328C4.70641 180.646 4.84136 180.955 5.0246 181.263C5.06318 181.379 5.10141 181.485 5.15928 181.601C4.8796 181.871 4.57109 182.218 4.3107 182.661C4.18533 182.835 4.08907 182.999 4.02156 183.134C3.95405 183.24 3.88636 183.346 3.82849 183.462L3.79976 183.491C3.68403 183.636 3.51988 183.857 3.34628 184.137C3.26913 184.243 3.21154 184.34 3.15368 184.426C2.84506 184.783 2.6136 185.15 2.43036 185.468C2.17961 185.767 1.93811 186.153 1.7838 186.625L1.43674 187.368C1.30172 187.59 1.17624 187.85 1.07979 188.139C0.973708 188.38 0.906218 188.641 0.857997 188.901C0.838708 188.949 0.819608 188.998 0.809964 189.036C0.694233 189.345 0.520505 189.798 0.433708 190.367C0.134737 191.708 4.53179e-07 192.942 4.53179e-07 194.331C4.53179e-07 194.428 -0.000225582 194.524 0.00941863 194.62C0.0383513 194.977 0.0579411 195.334 0.0772295 195.672C0.135095 196.617 0.192583 197.6 0.4144 198.661C0.433689 198.854 0.462716 199.037 0.510937 199.211C0.549513 199.442 0.607529 199.645 0.665395 199.799C0.703972 200.04 0.771199 200.272 0.857997 200.494C0.915862 200.715 1.01238 201.005 1.17633 201.323C1.19562 201.429 1.21498 201.545 1.25356 201.661C1.31143 202.075 1.45611 202.519 1.75508 202.992C1.81294 203.165 1.89953 203.368 2.02491 203.589C2.07313 203.724 2.14085 203.898 2.23729 204.081C2.3916 204.563 2.64214 205.026 2.98933 205.47C3.29795 205.856 3.4333 206.039 3.57797 206.348C3.6937 206.589 3.82866 206.82 4.00226 207.032L4.5325 207.698L5.39097 208.768C5.62243 209.058 5.9022 209.309 6.21082 209.501H6.22024C6.4517 209.81 6.74114 210.061 7.0594 210.263C7.3873 210.639 7.70546 210.88 7.92728 211.035C8.21661 211.334 8.48691 211.536 8.67979 211.662C9.0077 211.98 9.39316 212.221 9.81751 212.375C9.87537 212.404 9.94283 212.443 10.0007 212.462C10.0682 212.51 10.1453 212.549 10.2225 212.597C10.4925 212.809 10.8304 213.002 11.2354 213.147H11.2448C11.3991 213.243 11.6596 213.398 12.0068 213.533C12.1129 213.581 12.2386 213.629 12.3543 213.677H12.3637C12.6145 213.832 13.1158 214.131 13.8584 214.256H13.897C14.0706 214.323 14.2926 214.401 14.5723 214.458C15.122 214.671 15.6139 214.729 15.8743 214.757L16.3952 214.815C16.482 214.815 16.5589 214.835 16.6457 214.835C16.7325 214.854 16.8195 214.863 16.916 214.873L18.478 215.047L18.9988 215.105L19.5196 215.162C19.645 215.172 19.7705 215.182 19.8959 215.182C20.002 215.182 20.1176 215.182 20.2237 215.162C20.3876 215.182 20.5516 215.201 20.7252 215.201C20.8313 215.201 20.9471 215.201 21.0628 215.182H21.0821C21.275 215.182 21.4583 215.162 21.6416 215.133C22.3167 215.201 22.9435 215.24 23.5125 215.269C24.014 215.298 24.4964 215.326 24.8918 215.375L25.779 215.471L28.7876 216.088L29.8778 216.31C29.9742 216.33 30.0707 216.349 30.1768 216.358C30.3504 216.378 30.7455 216.522 31.0348 216.628C31.2662 216.715 31.4882 216.792 31.7101 216.86C31.9512 216.937 32.1824 217.004 32.4042 217.062C32.491 217.091 32.5778 217.111 32.6646 217.13C32.761 217.188 32.8672 217.246 32.9636 217.294C34.4295 217.979 35.8089 218.615 37.0144 219.338C38.8757 220.428 40.7081 221.885 42.8009 223.929C42.8106 223.939 42.8299 223.958 42.8395 223.968C43.3217 224.431 44.2475 225.405 45.4145 226.649C46.2631 227.555 47.2566 228.616 48.3849 229.803C48.6839 230.159 48.9925 230.468 49.2914 230.777C49.5711 231.066 49.8412 231.336 50.0341 231.577C50.0823 231.635 50.1307 231.702 50.1885 231.76C51.558 233.245 53.2262 234.933 54.9814 236.717C55.5119 237.257 56.0618 237.817 56.6211 238.386C57.3445 239.263 58.1157 239.996 58.9451 240.768L59.302 241.096C59.302 241.096 59.3407 241.134 59.36 241.144C60.1604 241.867 61.1058 242.755 62.022 243.623C62.0702 243.661 62.1278 243.719 62.176 243.767C62.8704 244.356 63.5843 245.031 64.3365 245.744C65.0309 246.4 65.7443 247.085 66.5159 247.76C69.1005 250.132 71.7816 252.582 74.7135 255.061C74.752 255.099 74.7905 255.128 74.8387 255.157C75.3692 255.562 75.8807 256.006 76.4304 256.478C76.9994 256.97 77.5777 257.472 78.2142 257.964C79.6801 259.275 81.4356 260.712 83.7116 262.458C84.7242 263.268 85.737 263.991 86.7207 264.705C87.6851 265.409 88.6015 266.065 89.508 266.788C89.5273 266.798 89.5368 266.817 89.556 266.827L90.1442 267.28C91.2051 268.1 92.4009 269.026 93.6643 269.787C94.6865 270.482 95.68 271.147 96.6734 271.813C97.6764 272.478 98.6698 273.144 99.7018 273.848C102.084 275.477 104.071 276.751 106.144 277.966C106.839 278.38 107.619 278.814 108.372 279.239C109.114 279.653 109.809 280.039 110.436 280.415C113.117 281.987 115.229 283.116 117.312 284.09L119.559 285.131L121.257 285.922L124.053 287.224C124.921 287.629 125.751 287.938 126.551 288.237C126.898 288.362 127.226 288.488 127.554 288.623C127.988 307.631 132.868 325.309 141.721 339.949C141.471 341.55 141.21 343.189 140.94 344.858C136.591 371.553 135.366 425.484 135.086 442.67C133.399 446.074 133.09 449.006 133.138 450.915C130.698 453.104 126.339 457.956 126.513 464.63C126.715 472.702 131.132 477.109 133.215 478.739C134.209 479.694 137.073 481.97 147.508 481.97C157.104 481.97 168.841 480.012 178.128 476.868C190.348 472.721 197.706 466.867 199.413 459.943C199.413 459.914 199.423 459.884 199.433 459.855C200.494 454.918 200.33 449.285 198.97 443.923C199.51 435.436 200.503 420.179 201.429 408.857C201.458 408.741 201.477 408.616 201.487 408.49C201.998 403.495 202.355 399.897 202.596 397.149C202.605 397.033 202.615 396.917 202.606 396.802C202.721 395.963 202.798 395.519 202.856 395.287C202.856 395.259 202.866 395.23 202.876 395.201C203.628 391.285 204.245 386.724 205.345 378.565C206.27 378.603 207.206 378.613 208.132 378.613C210.832 378.613 213.581 378.468 216.291 378.179C218.972 377.899 221.634 377.523 224.267 377.06C224.604 379.683 224.893 382.036 225.163 384.148C226.263 392.915 226.87 397.747 227.651 401.653C227.69 401.836 227.738 402.145 227.815 402.636C227.786 402.868 227.786 403.099 227.815 403.34C228.124 406.407 228.442 409.976 228.732 413.689C228.761 414.055 228.848 414.402 228.992 414.73C229.108 416.216 229.223 417.749 229.339 419.311C229.262 419.629 229.243 419.967 229.262 420.314C229.522 423.641 229.764 426.959 229.985 430.007L230.169 432.533C230.188 432.774 230.227 433.006 230.294 433.228C230.487 436.247 230.651 438.86 230.767 440.731C230.535 441.396 230.371 442.033 230.275 442.66C229.272 449.131 230.053 456.056 232.416 461.678C232.425 461.707 232.445 461.736 232.454 461.765C238.029 474.032 260.442 475.363 269.816 475.363C279.19 475.363 296.608 473.811 300.957 468.044C302.693 466.076 306.252 460.917 304.96 452.912C303.889 446.325 298.72 442.361 295.914 440.664C295.566 438.513 294.515 435.138 291.409 431.617C290.927 419.562 289.664 397.506 286.462 376.79C284.639 364.995 282.431 354.531 279.885 345.668C289.741 332.687 294.544 317.092 294.197 299.231C296.984 299.434 299.877 299.53 302.857 299.53C308.306 299.53 314.189 299.193 320.352 298.518C320.535 298.546 320.728 298.566 320.921 298.566C320.94 298.566 320.969 298.566 320.988 298.566C324.21 298.508 327.913 298.016 330.874 297.254C331.115 297.196 331.346 297.109 331.559 296.994C335.233 296.405 338.965 295.721 342.9 294.911C348.002 297.785 353.865 299.241 360.337 299.241C360.751 299.241 361.118 299.241 361.417 299.231C361.6 299.231 361.754 299.231 361.889 299.231H361.986C362.545 299.26 363.114 299.27 363.664 299.27C373.607 299.27 381.467 294.756 384.678 287.186C386.607 282.653 386.521 277.647 384.64 273.703C389.79 270.057 392.018 264.358 391.092 257.009C390.06 248.782 382.798 239.977 373.646 239.977C373.424 239.977 373.193 239.977 372.971 239.996C370.598 232.676 363.027 227.507 353.991 227.507C348.252 227.507 342.678 229.716 338.3 233.728C336.631 235.251 335.04 237.026 333.545 239.013C325.338 241.337 317.131 243.266 309.136 244.732C307.159 230.931 289.307 210.321 266.499 210.321C266.094 210.321 265.689 210.321 265.274 210.34C249.612 184.397 230.873 170.703 210.996 170.703C207.167 170.703 203.252 171.214 199.375 172.226C181.967 176.836 169.15 181.273 159.033 189.123C149.022 196.887 142.213 207.573 137.198 223.466C108.883 210.668 87.7817 192.981 77.4334 184.311L76.7388 183.722C72.6979 180.414 69.766 177.434 67.76 174.589C67.5864 174.194 67.3937 173.818 67.1912 173.461C67.1044 173.307 67.0076 173.172 66.9016 173.037L66.709 172.795C65.3298 170.404 64.8381 168.166 64.1726 165.109C64.0762 164.656 63.9698 164.203 63.8637 163.73C63.8637 163.682 63.864 163.633 63.8543 163.576C63.8543 163.055 63.729 162.524 63.4879 162.042C62.8418 159.515 61.6843 157.567 60.6234 155.966C60.5945 155.928 60.5751 155.889 60.5462 155.851C56.8042 150.72 50.8247 147.663 44.556 147.663H44.4693Z" fill="#212121"/>
<path d="M279.585 293.627C272.13 291.717 265.187 282.006 263.914 266.016C262.843 252.543 260.962 239.205 261.367 229.377C261.811 218.576 250.151 215.827 260.673 214.091C284.851 210.099 304.111 232.319 305.808 245.416C306.03 247.161 307.708 248.338 309.434 248.02C335.666 243.217 355.562 235.164 355.842 235.116C370.733 232.145 369.335 250.961 370.096 261.724C370.868 272.496 365.351 286.394 357.964 288.111C344.655 291.206 307.534 300.783 279.576 293.627H279.585Z" fill="url(#paint0_linear_2531_9351)"/>
<path d="M307.323 247.267L301.286 253.642" stroke="#DE955C" stroke-width="1.77723" stroke-linecap="round" stroke-linejoin="round"/>
<path d="M319.32 278.206C319.59 277.068 321.162 276.99 321.509 278.1C323.351 283.876 326.842 290.097 330.063 293.713C330.17 293.829 330.121 294.022 329.957 294.061C327.643 294.649 324.171 295.208 320.834 295.266C320.747 295.266 320.661 295.218 320.632 295.131C318.78 290.57 317.863 284.311 319.32 278.206Z" fill="#212121"/>
<path d="M379.837 272.602C386.077 269.815 388.643 264.704 387.736 257.432C386.791 249.91 379.278 241.124 370.309 243.776C369.267 231.933 351.918 225.674 340.46 236.176C332.793 243.207 324.508 258.377 329.765 273.287C338.502 298.063 359.739 295.835 362.053 295.941C382.055 296.877 386.463 279.488 379.837 272.612V272.602Z" fill="white"/>
<path d="M353.711 287.532C351.619 288.844 346.073 289.692 341.251 277.329C336.419 264.965 337.442 258.686 341.28 257.085C344.54 255.726 347.877 258.735 351.204 261.04C355.033 263.692 360.385 260.528 362.083 265.283C363.867 270.279 357.888 274.204 357.502 277.425C356.817 283.115 355.804 286.221 353.711 287.532Z" fill="#DE978C"/>
<path d="M366.239 263.248C365.593 259.824 367.811 256.488 371.196 255.803C374.581 255.118 377.851 257.336 378.497 260.76C379.143 264.184 376.925 267.52 373.54 268.205C370.155 268.89 366.886 266.672 366.239 263.248Z" fill="#DE978C"/>
<path d="M349.208 251.434C348.571 248.087 350.741 244.827 354.049 244.162C357.357 243.487 360.549 245.666 361.186 249.013C361.822 252.359 359.652 255.619 356.344 256.285C353.036 256.96 349.844 254.78 349.208 251.434Z" fill="#DE978C"/>
<path d="M360.588 283.163C359.952 279.816 362.122 276.557 365.43 275.891C368.738 275.216 371.93 277.396 372.567 280.742C373.203 284.089 371.033 287.349 367.725 288.014C364.418 288.689 361.225 286.51 360.588 283.163Z" fill="#DE978C"/>
<path d="M370.425 244.789C370.425 244.789 371.062 252.919 364.176 255.542" stroke="#F6D5D1" stroke-width="2.2938" stroke-linecap="round" stroke-linejoin="round"/>
<path d="M138.231 447.703C138.231 447.703 138.963 377.021 144.113 345.388C154.394 282.286 148.897 268.398 167.211 272.651C182.787 276.355 208.44 330.613 205.277 354.068C201.747 378.959 200.802 387.948 199.529 394.573C198.121 401.016 195.141 450.654 195.141 450.654C195.141 450.654 171.715 478.343 138.221 447.694L138.231 447.703Z" fill="url(#paint1_linear_2531_9351)"/>
<path d="M194.813 441.878C193.241 437.413 186.104 432.562 179.99 430.296C173.904 428.116 164.048 426.352 147.267 434.327C134.112 443.104 136.523 452.362 136.523 452.362C136.523 452.362 129.541 457.184 129.734 464.552C129.917 471.93 134.286 475.479 135.308 476.25C141.654 482.538 191.862 476.501 196.115 459.161C197.417 453.124 196.549 446.749 194.822 441.878H194.813Z" fill="white"/>
<path d="M173.104 411.248L197.436 415.202C197.118 419.803 196.606 424.547 196.375 428.492L172.448 413.476C171.194 412.965 171.792 411.055 173.094 411.248H173.104Z" fill="#121212"/>
<path d="M176.952 398.181L199.211 396.859C198.931 399.974 198.545 403.9 198.101 408.153L176.691 399.974C175.766 399.512 175.949 398.209 176.942 398.181H176.952Z" fill="#121212"/>
<path d="M288.236 438.764C288.236 438.764 287.609 406.446 283.106 377.301C274.127 319.205 257.616 304.468 239.986 308.355C224.932 311.663 222.183 321.866 225.78 363.751C228.809 386.666 229.6 395.018 230.805 401.036C232.011 407.044 234.152 443.576 234.152 443.576C234.152 443.576 255.61 466.848 288.246 438.773L288.236 438.764Z" fill="url(#paint2_linear_2531_9351)"/>
<path d="M255.88 416.467L232.454 420.074C232.792 424.346 233.091 428.618 233.361 432.312L256.642 418.646C257.761 417.99 257.153 416.274 255.88 416.457V416.476V416.467Z" fill="black"/>
<path d="M252.437 404.344L230.998 403.032C231.287 405.954 231.615 409.581 231.914 413.448L252.659 405.945C253.488 405.636 253.324 404.392 252.437 404.334V404.354V404.344Z" fill="black"/>
<path d="M235.357 460.405C242.745 476.666 293.203 473.319 298.276 465.97C299.134 465.015 302.77 460.733 301.594 453.442C300.417 446.161 292.663 442.708 292.663 442.708C292.663 442.708 293.309 433.16 278.766 426.969C260.799 422.224 251.434 425.792 245.86 429.052C240.266 432.408 234.162 438.503 233.429 443.181C232.638 448.292 232.956 454.715 235.348 460.405H235.357Z" fill="white"/>
<path d="M287.426 468.372C292.055 458.448 287.002 452.517 287.002 452.517" stroke="#EDD1CD" stroke-width="1.58045" stroke-linecap="round" stroke-linejoin="round"/>
<path d="M265.225 469.182C269.854 459.258 264.801 453.327 264.801 453.327" stroke="#EDD1CD" stroke-width="1.58045" stroke-linecap="round" stroke-linejoin="round"/>
<path d="M5.52637 203.426C5.41064 203.281 5.29495 203.136 5.32388 202.876L5.20804 202.731C5.09231 202.587 5.00544 202.182 4.8897 202.037C4.77397 201.892 4.80283 201.632 4.57137 201.343C4.49422 201.246 4.46543 201.111 4.48472 200.937C4.50401 200.764 4.47523 200.629 4.39808 200.532C4.28235 200.388 4.19547 199.983 4.07974 199.838C3.96401 199.693 3.99298 199.433 3.87725 199.288C3.90618 199.028 3.67455 198.738 3.70349 198.478C3.58775 198.333 3.73257 198.218 3.61684 198.073C3.35644 196.858 3.36573 195.681 3.25 194.351C3.25 193.164 3.37575 192.132 3.63615 190.975C3.69401 190.454 4.01199 189.962 4.06985 189.451C4.21452 189.335 4.09895 189.191 4.24362 189.075C4.41721 188.699 4.59085 188.323 4.76444 187.947C4.90911 187.831 4.79307 187.686 4.93774 187.571L5.08278 187.455C5.25637 187.079 5.42965 186.703 5.71898 186.471C5.86364 186.355 5.89265 186.095 6.03731 185.979C6.21091 185.603 6.50038 185.372 6.67398 184.995C6.81864 184.88 6.84765 184.619 6.99231 184.504C7.16591 184.127 7.45503 183.896 7.74435 183.665C7.88902 183.549 8.03376 183.433 8.06269 183.173C8.49668 182.826 8.81492 182.334 9.24891 181.996C8.90172 181.562 8.81511 181.157 8.47756 180.723L8.24587 180.434C8.13014 180.289 8.01456 180.145 8.15923 180.029L7.92754 179.739C7.81181 179.595 7.69612 179.45 7.72505 179.19L7.6092 179.045C7.52241 178.64 7.29102 178.351 7.20422 177.946L7.08838 177.801C6.97265 177.656 7.11746 177.541 7.00173 177.396C6.886 177.251 6.91497 176.991 6.79924 176.846C6.68351 176.701 6.71259 176.441 6.71259 176.441C6.59686 176.297 6.74121 176.181 6.62548 176.036L6.5101 175.891C6.53904 175.631 6.42325 175.486 6.45218 175.226C6.33645 175.081 6.36506 174.821 6.36506 174.821C6.36506 174.821 6.2496 174.676 6.39426 174.561C6.30746 174.156 6.33639 173.895 6.39426 173.374C6.53892 173.259 6.42334 173.114 6.30761 172.969C6.22081 172.564 6.39441 172.188 6.30761 171.783L6.5101 169.97C6.53904 169.71 6.71239 169.333 6.74132 169.073L6.77052 168.813C6.91518 168.697 6.94417 168.437 6.82844 168.292C7.00203 167.916 7.05982 167.395 7.23342 167.019C7.40701 166.643 7.58065 166.267 7.75424 165.89C7.89891 165.775 7.92744 165.514 8.07211 165.399C8.21677 165.283 8.24578 165.022 8.39044 164.907C8.7087 164.415 9.02719 163.923 9.34545 163.441L9.63458 163.209C10.7051 161.888 11.8913 160.702 13.1932 159.67C18.7772 155.696 25.9042 155.455 31.1989 158.561C32.2984 156.979 33.6584 155.417 35.2497 154.153C42.4153 148.916 52.455 150.845 57.6918 158.021C58.9262 159.872 59.7943 161.55 60.2187 163.566L60.3345 163.711C60.4117 163.807 60.4018 163.894 60.3053 163.971C61.2794 168.157 61.7038 171.359 63.7966 174.888L64.1437 175.323C66.0436 178.303 69.0622 181.803 74.4726 186.23C88.64 198.092 123.89 228.134 171.513 238.415C191.534 242.793 228.809 232.956 233.188 248.84C236.361 260.249 227.7 275.179 213.388 284.206C193.125 297.023 151.385 291.757 148.039 291.12C144.953 290.503 141.866 289.896 138.809 289.018C137.285 288.584 135.752 288.14 134.373 287.591C132.849 287.157 131.345 286.462 129.821 286.019C128.326 285.324 126.793 284.89 125.298 284.186C123.803 283.482 122.298 282.798 120.803 282.094C120.051 281.746 119.309 281.399 118.556 281.052C116.309 280.01 114.207 278.844 111.989 277.542C110.638 276.731 109.018 275.892 107.668 275.082C105.45 273.78 103.492 272.507 101.419 271.08C99.345 269.652 97.3876 268.389 95.3141 266.971C93.9639 266.161 92.6328 265.091 91.4272 264.165C89.4984 262.631 87.5408 261.358 85.612 259.825C83.7989 258.436 81.8697 256.903 80.2012 255.398C78.9957 254.472 77.9253 253.431 76.7198 252.505C73.8362 250.075 71.2227 247.673 68.5994 245.272C67.0467 243.912 65.6388 242.436 64.1922 241.221C63.2374 240.324 62.292 239.428 61.4529 238.675C60.4982 237.778 59.6689 237.026 58.9745 236.158C56.496 233.641 54.2487 231.413 52.4934 229.504C51.9148 228.78 51.2013 228.173 50.7383 227.594C47.9222 224.643 45.9353 222.444 44.9805 221.547C42.8492 219.464 40.8047 217.786 38.5865 216.484C37.2363 215.674 35.7321 214.979 34.2372 214.275C33.7454 213.957 33.2244 213.899 32.5975 213.697C31.961 213.494 31.2186 213.147 30.4375 213.06C29.0198 212.771 27.6113 212.472 26.1936 212.183L25.1524 212.067C24.1109 211.951 22.9339 211.941 21.6319 211.797C21.3715 211.768 21.1112 211.739 20.9665 211.855C20.7061 211.826 20.5614 211.941 20.4457 211.797C20.1853 211.768 19.925 211.739 19.7803 211.855L19.2595 211.797L18.7387 211.739L17.1767 211.565C16.9163 211.536 16.8005 211.392 16.6558 211.507L16.135 211.45C15.8746 211.421 15.6141 211.392 15.4983 211.247L15.2379 211.218C14.9775 211.189 14.6012 211.016 14.3408 210.987C14.0805 210.958 13.9649 210.813 13.5888 210.64C13.4731 210.495 13.3283 210.611 13.2125 210.466C12.9522 210.437 12.8366 210.292 12.4605 210.119C12.3448 209.974 12.2 210.09 12.0843 209.945L11.9684 209.801C11.8527 209.656 11.7084 209.771 11.5926 209.627C11.4769 209.482 11.2164 209.453 11.2164 209.453C11.1392 209.357 11.0137 209.299 10.8401 209.28C10.6086 208.99 10.3483 208.961 10.1168 208.672C9.88533 208.383 9.62494 208.354 9.39348 208.065L9.16226 207.775C9.04653 207.631 8.93056 207.486 8.67016 207.457C8.4387 207.168 8.20713 206.878 7.831 206.705C7.36808 206.126 6.9151 205.547 6.45218 204.969C6.13392 204.274 5.78669 203.84 5.44914 203.406L5.52637 203.426ZM19.5971 183.713C17.1379 185.671 16.6072 189.162 18.4203 191.737C20.3781 194.196 23.8983 194.466 26.4733 192.653C28.9326 190.695 29.4633 187.204 27.6501 184.629C25.6924 182.17 22.2011 181.639 19.5971 183.713ZM21.777 166.865C19.173 168.938 18.6425 172.429 20.4556 174.995C22.4134 177.454 26.0493 177.868 28.5086 175.911C31.1126 173.837 31.6426 170.346 29.8295 167.781C28.0164 165.206 24.3809 164.791 21.777 166.865ZM38.037 161.483C35.5777 163.441 35.0471 166.932 36.8602 169.507C38.818 171.966 42.3382 172.236 44.9132 170.423C47.3725 168.465 47.9031 164.974 46.09 162.399C44.1322 159.94 40.612 159.67 38.037 161.483Z" fill="url(#paint3_linear_2531_9351)"/>
<path d="M58.8775 195.671C49.6769 207.254 41.2959 210.379 35.0947 209.405C30.9091 208.006 27.5916 208.286 23.3771 208.334C16.5393 208.344 12.7012 207.389 7.49331 201.14C2.60369 194.408 7.70533 185.381 13.3665 184.185C8.15861 179.122 5.38128 169.999 9.72118 162.997L9.43157 163.228C9.11331 163.72 8.79529 164.212 8.47704 164.694C9.63434 162.592 11.2835 160.808 13.2798 159.457C18.8638 155.484 25.9908 155.243 31.2855 158.348C32.2692 156.622 33.7445 155.204 35.3358 153.941C42.5014 148.704 52.5411 150.633 57.7779 157.808C59.0124 159.66 59.8805 161.338 60.3048 163.354L60.4206 163.498C60.4206 163.498 60.5361 163.643 60.3914 163.759C61.3655 167.944 61.79 171.146 63.8828 174.676L64.2298 175.11C65.9851 178.206 67.4707 184.812 58.8681 195.671H58.8775Z" fill="white"/>
<path d="M51.6159 177.357C53.5447 178.89 56.4184 183.693 47.2468 192.643C38.0751 201.593 32.2696 202.904 29.4535 199.963C26.9749 197.446 28.3731 193.27 29.2218 189.287C30.1283 184.783 25.3157 180.819 28.8455 177.54C32.52 174.145 38.3647 178.225 41.229 177.366C46.6298 176.142 49.687 175.833 51.6159 177.366V177.357Z" fill="#ED9B90"/>
<path d="M28.6525 175.805C26.0485 177.878 22.4126 177.463 20.5994 174.888C18.6417 172.429 19.2012 168.677 21.9208 166.758C24.5248 164.685 28.1607 165.099 29.9738 167.674C31.7869 170.249 31.3721 173.885 28.6525 175.805Z" fill="#ED9B90"/>
<path d="M25.1425 193.945C22.6833 195.903 19.0473 195.489 17.0895 193.029C15.1318 190.57 15.6624 187.079 18.2663 185.005C20.7256 183.047 24.3616 183.462 26.3194 185.922C28.2771 188.381 27.7465 191.872 25.1425 193.945Z" fill="#ED9B90"/>
<path d="M46.3596 169.266C43.9003 171.223 40.5247 170.837 38.567 168.378C36.7249 166.064 37.2553 162.573 39.7146 160.615C42.1738 158.657 45.5494 159.043 47.5072 161.502C49.2045 163.932 48.8188 167.308 46.3596 169.266Z" fill="#ED9B90"/>
<path d="M71.9745 218.065C69.7371 222.675 64.8183 230.14 56.0903 232.831C53.9589 230.748 50.7958 227.362 49.9567 226.61C49.6095 226.176 49.1178 225.858 48.6646 225.279C54.2003 226.301 63.1308 221.798 70.5279 216.85C71.6563 216.185 72.6012 217.082 71.9647 218.065H71.9745Z" fill="#121212"/>
<path d="M131.45 272.343C124.622 336.834 167.124 380.03 215.837 374.899C264.55 369.769 305.027 334.481 286.028 270.289C271.186 214.67 240.498 164.906 200.137 175.438C156.005 187.127 139.484 197.996 131.45 272.343Z" fill="url(#paint4_linear_2531_9351)"/>
<path d="M147.913 288.054C146.63 333.767 181.977 354.097 212.472 350.885C242.967 347.674 270.096 328.55 261.647 283.694C250.923 226.88 228.317 203.676 197.812 206.888C167.336 210.263 149.62 225.52 147.913 288.044V288.054Z" fill="white"/>
<g style="mix-blend-mode:color-burn" opacity="0.2">
<path d="M246.136 351.636C269.427 333.097 280.106 307.764 269.988 295.053C259.871 282.343 232.788 287.069 209.497 305.608C186.206 324.148 175.527 349.481 185.644 362.192C195.762 374.902 222.845 370.176 246.136 351.636Z" fill="#696969"/>
</g>
<g style="mix-blend-mode:color-burn" opacity="0.2">
<path d="M358.901 291.543C368.791 289.87 375.057 278.165 372.897 265.398C370.738 252.631 360.971 243.637 351.082 245.309C341.193 246.982 334.926 258.688 337.086 271.455C339.245 284.222 349.012 293.216 358.901 291.543Z" fill="#696969"/>
</g>
<path d="M127.853 3.3079C138.231 3.3079 147.547 8.8341 152.523 17.3596C163.923 13.9262 177.077 11.9298 192.392 11.9298C200.05 11.9298 208.257 12.4314 217.043 13.5019C230.082 15.0546 241.51 17.9286 251.56 21.6995C256.604 12.1228 266.489 5.61276 277.85 5.61276C294.322 5.61276 307.689 19.2691 307.689 36.1562C307.757 43.8137 305.027 50.8057 300.495 56.1679C311.971 69.9109 318.249 83.6923 322.049 92.1792C346.661 147.228 330.218 194.62 282.392 219.039C260.327 230.371 231.548 236.804 197.003 236.804C192.47 236.804 187.84 236.698 183.115 236.466C73.6334 231.104 47.6616 147.73 80.4422 83.0076C82.0528 79.825 83.8083 76.6906 85.6985 73.6045C86.1036 72.9487 86.5087 72.2931 86.9234 71.6373C86.9619 71.5794 86.9907 71.5214 87.0293 71.4731C91.9961 63.5649 97.7344 55.3094 104.833 47.5458C102.18 43.881 100.396 39.5413 99.7792 34.7578C97.9468 19.5585 108.932 5.47781 124.411 3.51039C125.568 3.37537 126.716 3.3079 127.844 3.3079M127.853 0C126.59 0 125.298 0.0771349 124.034 0.221798C106.781 2.42068 94.446 18.0829 96.5002 35.1531C97.05 39.4448 98.4866 43.5629 100.676 47.2373C95.1207 53.5543 89.8552 60.7682 84.2326 69.7181L84.1361 69.8626C83.7021 70.5474 83.2876 71.2129 82.8825 71.8784C80.9537 75.0127 79.1402 78.2532 77.4911 81.5226C59.6107 116.83 59.36 155.851 76.8257 185.902C85.8237 201.381 99.0172 213.851 116.039 222.974C134.479 232.85 156.988 238.511 182.951 239.784C187.686 240.006 192.412 240.122 197.003 240.122C231.259 240.122 260.49 234.026 283.906 221.99C308.393 209.492 325.213 190.859 332.533 168.127C339.949 145.087 337.374 118.363 325.068 90.8485C321.731 83.3935 315.665 69.8337 304.719 56.1293C308.846 50.3524 311.055 43.3507 310.997 36.1465C310.997 17.5042 296.125 2.32417 277.85 2.32417C266.576 2.32417 256.189 8.1299 250.094 17.668C239.987 14.119 229.021 11.6211 217.439 10.2324C208.759 9.17152 200.33 8.64118 192.392 8.64118C178.543 8.64118 165.639 10.2807 153.979 13.5116C148.087 5.13073 138.308 0.0193073 127.863 0.0193073L127.853 0Z" fill="#212121"/>
<path d="M277.84 66.7184C261.368 66.7184 248.001 53.0622 248.001 36.1752C248.001 19.2882 261.377 5.63184 277.84 5.63184C294.312 5.63184 307.679 19.2882 307.679 36.1752C307.824 53.0622 294.447 66.7184 277.84 66.7184Z" fill="url(#paint5_linear_2531_9351)"/>
<path d="M99.7794 34.7574C101.747 50.1014 115.827 60.9415 131.451 59.1091C146.939 57.1416 158.059 43.2056 156.082 27.8617C154.115 12.5177 140.034 1.67762 124.411 3.51002C108.922 5.47744 97.947 19.5581 99.7794 34.7574Z" fill="url(#paint6_linear_2531_9351)"/>
<path d="M275.448 64.1821C265.177 61.366 259.401 49.5423 262.361 37.7185C265.457 26.0393 276.153 18.8544 286.433 21.8152C296.704 24.6313 302.481 36.455 299.52 48.2788C296.425 59.958 285.729 67.1429 275.448 64.1821Z" fill="white"/>
<path d="M109.49 47.0058C115.547 57.7012 127.93 62.2051 137.082 57.1419C146.235 52.0786 148.906 39.2615 142.849 28.7107C136.793 18.0153 124.554 13.5114 115.257 18.5747C106.105 23.5029 103.434 36.3103 109.49 47.0058Z" fill="white"/>
<path d="M322.039 92.1988C359.478 175.949 301.912 241.973 183.384 236.341C68.242 230.854 45.2984 139.359 85.698 73.6144C105.121 42.0875 136.234 3.65547 217.033 13.5119C290.088 22.2399 313.032 72.0714 322.039 92.1988Z" fill="url(#paint7_linear_2531_9351)"/>
<path d="M85.6982 73.6141C89.0737 68.1266 92.7386 62.6391 96.9628 57.0068C96.9628 57.0068 87.7236 70.9427 84.2035 79.6707C79.9793 90.1636 75.5815 98.7278 73.2379 118.151C72.4953 124.324 73.5177 130.64 76.4881 136.099C81.86 145.965 91.5909 150.266 104.823 150.787C128.191 150.787 133.398 143.467 133.398 143.467L144.518 145.435L155.214 135.299L164.086 143.882C164.086 143.882 164.511 144.586 174.502 147.257C184.359 154.433 195.536 170.153 253.488 165.205C280.936 162.862 300.783 148.212 307.399 120.755C314.015 93.3077 289.104 67.4034 284.176 59.2444C279.248 51.0757 278.409 44.749 279.952 41.7882C280.656 40.5248 282.604 39.8208 283.732 39.3965C306.821 57.5565 317.237 80.2206 322.579 92.3241C358.929 176.287 301.623 242.099 183.105 236.466C68.2421 230.834 45.2986 139.339 85.6982 73.6045V73.6141Z" fill="white"/>
<path d="M249.457 96.9435C248.174 94.87 245.262 95.8921 245.291 98.2646C245.561 106.771 240.623 115.615 234.605 123.378C230.091 129.165 222.473 132.347 216.214 133.842C213.021 134.729 212.809 139.474 215.895 140.68C225.009 143.891 237.99 144.943 246.419 130.447C254.848 115.952 254.164 104.678 249.447 96.9435H249.457Z" fill="#121212"/>
<path d="M85.7951 92.6617C86.4123 92.0059 87.5887 92.5847 87.2898 93.5491C85.9974 98.1494 84.1554 106.723 85.3802 115.191C86.8269 125.336 93.0187 131.47 99.8564 135.299C101.949 136.418 101.631 139.793 99.345 140.545C91.5139 143.275 80.4427 140.497 76.7489 125.655C73.1034 109.8 80.404 98.2168 85.7951 92.6617Z" fill="#121212"/>
<path d="M131.122 59.7648C142.348 54.9909 156.718 46.6872 158.898 42.8874C153.574 41.4311 147.595 42.2219 141.75 43.0127C137.854 43.4949 137.401 41.1225 138.5 39.9942C142.483 35.8857 151.645 33.2432 161.261 32.9538C162.852 27.6302 163.913 23.7051 165.263 21.1783C166.218 19.6256 168.445 19.7316 169.169 21.4001C170.326 24.033 170.808 28.0643 171.859 33.494C181.369 35.0178 190.068 38.7983 193.761 43.1961C194.755 44.4402 193.955 46.6776 190.174 45.7614C184.436 44.3147 178.553 42.733 173.123 43.5142C174.859 47.5358 188.264 57.643 198.815 63.7574C202.615 65.9273 201.4 68.7339 199.307 68.6278C178.225 67.2776 165.581 51.7118 165.581 51.7118C165.581 51.7118 151.289 65.7346 130.216 64.3844C127.988 64.423 127.101 61.3657 131.122 59.7648Z" fill="#121212"/>
<path d="M179.536 140.478C180.04 134.966 174.252 129.933 166.608 129.235C158.965 128.536 152.36 132.438 151.857 137.949C151.353 143.46 157.141 148.494 164.785 149.192C172.428 149.89 179.033 145.989 179.536 140.478Z" fill="white"/>
<path d="M148.382 138.342C148.95 132.317 143.705 126.897 136.668 126.234C129.631 125.571 123.467 129.918 122.899 135.942C122.332 141.966 127.577 147.386 134.614 148.049C141.651 148.712 147.815 144.366 148.382 138.342Z" fill="white"/>
<path d="M218.209 112.423L175.62 108.411C175.62 108.411 172.862 122.983 190.887 126.985C208.912 130.988 218.354 118.913 218.209 112.423Z" fill="white"/>
<path d="M98.1777 102.036L139.734 105.72C139.734 105.72 137.806 123.581 117.649 121.276C98.8913 119.135 97.2907 105.797 98.1683 102.036H98.1777Z" fill="white"/>
<path d="M199.866 112.124C199.451 116.329 202.441 120.042 206.53 120.428C210.62 120.813 214.274 117.718 214.679 113.522C215.094 109.317 211.642 110.321 207.553 109.935C203.464 109.549 200.271 107.919 199.866 112.124Z" fill="#212121"/>
<path d="M122.993 106.713C122.578 110.918 125.471 114.622 129.435 114.998C133.409 115.374 136.958 112.268 137.372 108.073C137.787 103.868 134.44 104.881 130.467 104.505C126.494 104.129 123.407 102.518 122.993 106.713Z" fill="#212121"/>
<path d="M142.513 121.151C145.126 119.26 148.829 119.926 150.797 122.395C151.559 123.35 152.976 123.514 153.97 122.761C156.535 120.804 160.296 120.996 162.331 123.417C164.414 125.896 163.961 129.589 161.338 131.576L155.503 136.022C155.272 136.273 155.011 136.524 154.722 136.736C153.41 137.729 151.819 138.115 150.305 137.922C148.791 137.768 147.344 137.044 146.341 135.781C146.119 135.501 145.936 135.212 145.772 134.913L141.297 129.29C139.291 126.773 139.822 123.099 142.513 121.151Z" fill="#212121"/>
<path d="M218.21 112.423L175.621 108.411" stroke="#212121" stroke-width="3.0379" stroke-linecap="round" stroke-linejoin="round"/>
<path d="M139.735 105.72L98.1777 102.036" stroke="#212121" stroke-width="3.0379" stroke-linecap="round" stroke-linejoin="round"/>
<path d="M189.605 83.5093L170.259 99.2101" stroke="#212121" stroke-width="3.0379" stroke-linecap="round" stroke-linejoin="round"/>
<path d="M143.94 97.1654L128.596 79.1885" stroke="#212121" stroke-width="3.0379" stroke-linecap="round" stroke-linejoin="round"/>
<path d="M178.678 143.015C178.678 143.015 175.408 150.99 165.07 150.007C154.885 149.033 150.787 140.536 150.459 135.367C148.115 142.484 142.946 147.104 135.549 146.978C128.026 146.853 124.603 142.291 122.606 138.279" stroke="#212121" stroke-width="3.0379" stroke-linecap="round" stroke-linejoin="round"/>
<g style="mix-blend-mode:color-burn" opacity="0.2">
<path d="M186.635 194.533C196.462 215.21 229.609 220.013 260.683 205.248C297.032 187.975 307.342 158.319 299.154 141.075C289.326 120.398 256.179 115.595 225.105 130.361C194.032 145.126 176.817 173.856 186.635 194.533Z" fill="#696969"/>
</g>
<path d="M271.031 116.213C271.031 116.213 220.891 105.98 195.594 145.521" stroke="#212121" stroke-width="3.0379" stroke-linecap="round" stroke-linejoin="round"/>
<path d="M271.031 116.213C271.031 116.213 220.891 105.98 195.594 145.521" stroke="#212121" stroke-width="3.0379" stroke-linecap="round" stroke-linejoin="round"/>
<path d="M142.503 170.703C142.503 170.703 148.087 178.264 156.015 178.032" stroke="#212121" stroke-width="3.0379" stroke-linecap="round" stroke-linejoin="round"/>
<g style="mix-blend-mode:color-burn" opacity="0.2">
<path d="M162.316 200.721C164.658 194.975 160.548 187.867 153.134 184.845C145.721 181.823 137.813 184.031 135.47 189.777C133.128 195.523 137.238 202.631 144.651 205.653C152.064 208.676 159.973 206.467 162.316 200.721Z" fill="#696969"/>
</g>
<g style="mix-blend-mode:multiply" opacity="0.2">
<path d="M186.635 194.533C196.462 215.21 229.609 220.013 260.683 205.248C297.032 187.975 307.342 158.319 299.154 141.075C289.326 120.398 256.179 115.595 225.105 130.361C194.032 145.126 176.817 173.856 186.635 194.533Z" fill="#696969"/>
</g>
<g style="mix-blend-mode:multiply" opacity="0.2">
<path d="M162.316 200.721C164.658 194.975 160.548 187.867 153.134 184.845C145.721 181.823 137.813 184.031 135.47 189.777C133.128 195.523 137.238 202.631 144.651 205.653C152.064 208.676 159.973 206.467 162.316 200.721Z" fill="#696969"/>
</g>
<path d="M259.217 24.8721C259.217 24.8721 282.884 32.7222 297.379 51.4031" stroke="#BF8449" stroke-width="2.343" stroke-linecap="round" stroke-linejoin="round"/>
<path opacity="0.2" d="M246.136 351.636C269.427 333.097 280.106 307.764 269.988 295.053C259.871 282.343 232.788 287.069 209.497 305.608C186.206 324.148 175.527 349.481 185.644 362.192C195.762 374.902 222.845 370.176 246.136 351.636Z" fill="#696969"/>
<path opacity="0.2" d="M358.901 291.543C368.791 289.87 375.057 278.165 372.897 265.398C370.738 252.631 360.971 243.637 351.082 245.309C341.193 246.982 334.926 258.688 337.086 271.455C339.245 284.222 349.012 293.216 358.901 291.543Z" fill="#696969"/>
<defs>
<linearGradient id="paint0_linear_2531_9351" x1="367.211" y1="222.551" x2="257.442" y2="276.354" gradientUnits="userSpaceOnUse">
<stop stop-color="#FBF3BC"/>
<stop offset="0.18" stop-color="#F3E4AC"/>
<stop offset="0.34" stop-color="#E2C083"/>
<stop offset="0.5" stop-color="#E8AC70"/>
<stop offset="0.84" stop-color="#EFB77E"/>
</linearGradient>
<linearGradient id="paint1_linear_2531_9351" x1="164.487" y1="250.946" x2="174.366" y2="457.19" gradientUnits="userSpaceOnUse">
<stop stop-color="#FAF2B0"/>
<stop offset="0.18" stop-color="#F3E3A0"/>
<stop offset="0.34" stop-color="#E4BC77"/>
<stop offset="0.66" stop-color="#EBA55E"/>
</linearGradient>
<linearGradient id="paint2_linear_2531_9351" x1="296.203" y1="521.858" x2="205.408" y2="240.079" gradientUnits="userSpaceOnUse">
<stop stop-color="#FBF5B6"/>
<stop offset="0.18" stop-color="#F5E8A7"/>
<stop offset="0.34" stop-color="#E9C67D"/>
<stop offset="0.66" stop-color="#EEB063"/>
</linearGradient>
<linearGradient id="paint3_linear_2531_9351" x1="228.562" y1="216.434" x2="21.203" y2="226.251" gradientUnits="userSpaceOnUse">
<stop offset="0.18" stop-color="#F3E9AF"/>
<stop offset="0.34" stop-color="#E2C786"/>
<stop offset="0.5" stop-color="#E5B36F"/>
<stop offset="0.84" stop-color="#ECBE7E"/>
</linearGradient>
<linearGradient id="paint4_linear_2531_9351" x1="251.628" y1="171.196" x2="149.813" y2="448.723" gradientUnits="userSpaceOnUse">
<stop stop-color="#FBF5BD"/>
<stop offset="0.18" stop-color="#F3E9AF"/>
<stop offset="0.34" stop-color="#E2C786"/>
<stop offset="0.5" stop-color="#E5B36F"/>
<stop offset="0.84" stop-color="#ECBE7E"/>
</linearGradient>
<linearGradient id="paint5_linear_2531_9351" x1="236.929" y1="84.0298" x2="311.749" y2="-3.35634" gradientUnits="userSpaceOnUse">
<stop stop-color="#FCFBBF"/>
<stop offset="0.18" stop-color="#F6EEB1"/>
<stop offset="0.34" stop-color="#E7CF89"/>
<stop offset="0.5" stop-color="#E8BC70"/>
<stop offset="0.84" stop-color="#EEC880"/>
</linearGradient>
<linearGradient id="paint6_linear_2531_9351" x1="91.9965" y1="72.0806" x2="167.877" y2="-13.8878" gradientUnits="userSpaceOnUse">
<stop stop-color="#FCFBBF"/>
<stop offset="0.18" stop-color="#F6EEB1"/>
<stop offset="0.34" stop-color="#E7CF89"/>
<stop offset="0.5" stop-color="#E8BC70"/>
<stop offset="0.84" stop-color="#EEC880"/>
</linearGradient>
<linearGradient id="paint7_linear_2531_9351" x1="28.2089" y1="26.2133" x2="283.173" y2="178.688" gradientUnits="userSpaceOnUse">
<stop stop-color="#FBF5BD"/>
<stop offset="0.18" stop-color="#F3E9AF"/>
<stop offset="0.34" stop-color="#E2C786"/>
<stop offset="0.5" stop-color="#E5B36F"/>
<stop offset="0.84" stop-color="#ECBE7E"/>
</linearGradient>
</defs>
</svg>
