<svg width="30" height="30" viewBox="0 0 30 30" fill="none" xmlns="http://www.w3.org/2000/svg">
<path d="M16.0762 7.46454H14.6407V8.89994H16.0762V7.46454Z" fill="#9C9C9C"/>
<path d="M16.0762 7.46454H14.6407V8.89994H16.0762V7.46454Z" fill="#949292"/>
<path d="M17.5113 20.3834H16.0759V10.3356H14.6404H13.205V11.771H14.6404V20.3834H13.205H11.7696V21.1012V21.8188H13.205H14.6404H16.0759H17.5113H18.9467V20.3834H17.5113Z" fill="#9C9C9C"/>
<path d="M17.5113 20.3834H16.0759V10.3356H14.6404H13.205V11.771H14.6404V20.3834H13.205H11.7696V21.1012V21.8188H13.205H14.6404H16.0759H17.5113H18.9467V20.3834H17.5113Z" fill="#949292"/>
<path d="M15 27.7033C22.0159 27.7033 27.7033 22.0159 27.7033 15C27.7033 7.98414 22.0159 2.29666 15 2.29666C7.98414 2.29666 2.29666 7.98414 2.29666 15C2.29666 22.0159 7.98414 27.7033 15 27.7033Z" stroke="#9C9C9C" stroke-width="1.09091"/>
</svg>
