<svg width="529" height="67" viewBox="0 0 529 67" fill="none" xmlns="http://www.w3.org/2000/svg">
<g clip-path="url(#clip0_226_8356)">
<path d="M22.67 46.06C21.26 46.06 20.12 44.99 20.12 43.66C20.08 35.6 13.08 29.03 4.55 29.03C3.14 29.03 2 27.95 2 26.63C2 25.31 3.14 24.12 4.55 24.12C13.14 24.12 20.12 17.52 20.12 9.42C20.12 8.09 21.26 7 22.69 7C24.12 7 25.24 8.08 25.24 9.42C25.24 17.53 32.22 24.12 40.81 24.12C42.22 24.12 43.38 25.2 43.38 26.54C43.38 27.88 42.22 29.03 40.81 29.03C32.28 29.03 25.29 35.6 25.26 43.66C25.26 44.99 24.12 46.06 22.69 46.06H22.67Z" fill="#FFEEC8" stroke="black" stroke-width="3" stroke-linecap="round" stroke-linejoin="round"/>
<path d="M505.02 46.06C503.61 46.06 502.47 44.99 502.47 43.66C502.43 35.6 495.43 29.03 486.9 29.03C485.49 29.03 484.35 27.95 484.35 26.63C484.35 25.31 485.49 24.12 486.9 24.12C495.49 24.12 502.47 17.52 502.47 9.42C502.47 8.09 503.61 7 505.04 7C506.47 7 507.59 8.08 507.59 9.42C507.59 17.53 514.57 24.12 523.16 24.12C524.57 24.12 525.73 25.2 525.73 26.54C525.73 27.88 524.57 29.03 523.16 29.03C514.63 29.03 507.64 35.6 507.61 43.66C507.61 44.99 506.47 46.06 505.04 46.06H505.02Z" fill="#FFEEC8" stroke="black" stroke-width="3" stroke-linecap="round" stroke-linejoin="round"/>
<path d="M90.9198 44.16C90.9198 47.3 90.1798 48.79 88.1698 49.66C86.0698 50.58 83.0198 50.66 78.5198 50.66C78.2098 49.13 77.1698 46.64 76.3398 45.2C79.3998 45.37 83.0698 45.33 84.0298 45.33C85.0798 45.33 85.4298 44.98 85.4298 44.06V37.73H66.7398C65.5998 42.62 63.4198 47.38 59.3598 50.79C58.5698 49.7 56.4798 47.78 55.3398 47.03C61.9298 41.4 62.5498 33.06 62.5498 26.42V12.05H90.9398V44.15L90.9198 44.16ZM85.4198 32.72V27.39H67.9098C67.8698 29.05 67.7798 30.88 67.5998 32.72H85.4198ZM67.9098 17.13V22.46H85.4198V17.13H67.9098Z" stroke="black" stroke-width="20" stroke-linecap="round" stroke-linejoin="round"/>
<path d="M143.32 44.16C143.32 47.3 142.58 48.79 140.57 49.66C138.47 50.58 135.42 50.66 130.92 50.66C130.61 49.13 129.57 46.64 128.74 45.2C131.8 45.37 135.47 45.33 136.43 45.33C137.48 45.33 137.83 44.98 137.83 44.06V37.73H119.14C118 42.62 115.82 47.38 111.76 50.79C110.97 49.7 108.88 47.78 107.74 47.03C114.33 41.4 114.95 33.06 114.95 26.42V12.05H143.34V44.15L143.32 44.16ZM137.82 32.72V27.39H120.31C120.27 29.05 120.18 30.88 120 32.72H137.82ZM120.31 17.13V22.46H137.82V17.13H120.31Z" stroke="black" stroke-width="20" stroke-linecap="round" stroke-linejoin="round"/>
<path d="M171.48 43.9V50.8H167.2V43.9H160.43V39.36H167.2V36.74H161.74V20.98H167.16V18.71H161.05V14.21H167.16V10.06H171.44V14.21H177.69V18.71H171.44V20.98H177.2V36.74H171.48V39.36H178.16V43.9H171.48ZM165.37 27.18H167.68V24.6H165.37V27.18ZM165.37 33.16H167.68V30.58H165.37V33.16ZM173.45 24.6H171V27.18H173.45V24.6ZM173.45 30.58H171V33.16H173.45V30.58ZM201.35 45.34V49.71H177.81V45.34H187.07V38.83H179.78V34.46H200.04V38.83H192.22V45.34H201.35ZM182.31 33.86C181.52 31.5 179.78 28.1 177.86 24.99C179.3 22.33 180.83 19.01 181.66 16.87L185.85 17.79C184.76 20.19 183.45 22.81 182.27 24.95C183.93 27.44 185.55 30.37 186.33 32.24L182.31 33.86ZM200.7 16.13H178.78V11.76H200.7V16.13ZM192.84 17.79C191.75 20.19 190.39 22.77 189.13 24.91C190.92 27.36 192.67 30.19 193.5 32.07L189.53 33.73C188.66 31.42 186.82 28.05 184.64 24.95C186.21 22.29 187.83 19.01 188.66 16.87L192.85 17.79H192.84ZM196.9 33.86C195.98 31.5 193.93 28.1 191.66 24.99C193.32 22.33 195.07 19.01 196.03 16.87L200.31 17.83C199.09 20.28 197.56 22.81 196.25 24.95C198.13 27.35 200.05 30.28 200.92 32.2L196.9 33.86Z" stroke="black" stroke-width="20" stroke-linecap="round" stroke-linejoin="round"/>
<path d="M225.02 38.22C226.46 39.22 229.65 41.67 230.44 42.41L227.69 45.77C227.12 44.98 226.12 43.81 225.03 42.63V50.67H220.4V42.98C218.96 45.03 217.39 46.87 215.81 48.13C215.07 47.08 213.71 45.47 212.71 44.64C215.2 43.11 217.95 40.32 219.74 37.48H213.93V33.55H220.39V30.45H225.02V33.55H230.35V37.48H225.02V38.22ZM231.87 30.89C231.52 30.37 231.04 29.75 230.52 29.1C218.55 29.93 216.94 29.97 215.76 30.41C215.54 29.75 215.02 28.23 214.71 27.4C215.23 27.31 215.76 27.05 216.33 26.66C216.68 26.44 217.42 25.87 218.21 25.18H213.75V22.34H217.16V11.12H234.15V13.96H221.88V15.18H232.8V17.54H221.88V18.76H232.8V21.07H221.88V22.34H235.16V25.18H231.54C232.85 26.53 234.47 28.19 235.3 29.28L231.89 30.9L231.87 30.89ZM227.51 25.82L228.99 25.17H222.66C221.92 25.87 221.13 26.52 220.35 27.13L228.34 26.69L227.51 25.82ZM239.51 31.5C237.98 35.43 235.36 39.27 232.52 41.63C231.82 40.84 230.16 39.4 229.16 38.7C231.78 36.69 234.01 33.59 235.19 30.4L239.51 31.49V31.5ZM247.07 40.67C248.9 43.33 251.35 46.87 252.62 49.01L248.56 50.84C248.25 50.23 247.82 49.44 247.34 48.61C235.85 49.53 233.93 49.74 232.67 50.23C232.45 49.36 231.71 47.3 231.14 46.17C232.01 46 232.76 45.3 233.67 44.29C234.63 43.33 237.64 39.49 239.39 35.69L243.76 37.87C242.19 40.36 240.27 42.94 238.21 45.16L244.94 44.77C244.37 43.9 243.8 43.02 243.28 42.24L247.08 40.67H247.07ZM252.88 23.11C249.52 26.6 243.8 28.61 237.42 29.84C236.9 28.75 235.89 27.35 234.93 26.43C240.43 25.69 245.93 24.07 248.69 21.63L252.88 23.12V23.11ZM250.48 12.33C247.16 14.6 242.27 16.52 238.34 17.7C237.6 16.78 236.46 15.56 235.37 14.77C238.99 13.81 243.97 12.15 246.51 10.4L250.48 12.32V12.33ZM251.7 17.66C248.47 20.37 243.4 22.33 238.6 23.47C237.95 22.55 236.85 21.2 235.85 20.37C240.13 19.58 245.15 17.97 247.68 16.05L251.7 17.67V17.66ZM246.63 29.71C248.07 32.94 251 36.09 254.05 37.79C253.13 38.66 251.65 40.41 250.95 41.59C248.16 39.63 245.45 36.7 243.74 33.64H239.94V29.71H246.62H246.63Z" stroke="black" stroke-width="20" stroke-linecap="round" stroke-linejoin="round"/>
<path d="M289.73 27.09C292.61 35.61 297.9 42.46 306.06 45.78C304.75 46.87 303.05 49.19 302.22 50.67C294.32 46.96 289.25 40.58 285.84 32.15C283.48 39.44 278.76 46.26 269.51 50.71C268.68 49.27 267.15 47.39 265.62 46.3C275.62 41.84 279.77 34.6 281.47 27.08H266.45V21.71H282.35C282.79 17.6 282.74 13.63 282.79 10.05H288.47C288.43 13.63 288.38 17.65 287.95 21.71H305.11V27.08H289.74L289.73 27.09Z" stroke="black" stroke-width="20" stroke-linecap="round" stroke-linejoin="round"/>
<path d="M353.53 21.54V39.71H348.2V37.53H327.98C327.02 42.46 325.14 47.44 321.52 51.02C320.73 50.02 318.59 48.14 317.5 47.48C323.18 41.72 323.7 33.11 323.7 26.74V14.07C332.52 13.28 342.48 11.8 348.42 10.05L352.53 13.98C345.85 15.81 337.07 17.12 328.95 17.91V21.53H353.54L353.53 21.54ZM348.2 32.72V26.34H328.94V26.78C328.94 28.57 328.85 30.62 328.68 32.72H348.2Z" stroke="black" stroke-width="20" stroke-linecap="round" stroke-linejoin="round"/>
<path d="M410.68 12.76V17.17H402.78C403.92 18.22 405.01 19.4 405.62 20.23L402.87 22.63H408.68V27.04H393.18V29.57H405.98V33.5H374.84V29.57H387.77V27.04H372.44V22.63H383.27C382.31 21.45 380.61 19.75 379.17 18.52L380.7 17.17H377.6C376.29 19 374.89 20.62 373.49 21.89C372.75 20.97 371.04 19.18 370.04 18.35C372.66 16.21 375.19 12.89 376.59 9.62L381.18 10.97C380.92 11.58 380.61 12.15 380.35 12.76H390V17.17H383.93C385.02 18.09 386.07 19.09 386.68 19.88L383.67 22.63H387.77V20.49H390.96C390.35 20.01 389.69 19.57 389.21 19.27C391.57 16.95 393.58 13.29 394.67 9.62L399.39 10.75C399.17 11.41 399 12.1 398.74 12.76H410.7H410.68ZM401.73 36.48H409.98V40.72H401.73V46.09C401.73 48.58 401.16 49.63 399.28 50.19C397.45 50.76 394.78 50.76 391.16 50.76C390.99 49.45 390.46 47.83 389.89 46.57C392.03 46.7 394.78 46.7 395.44 46.66C396.09 46.66 396.36 46.49 396.36 45.87V40.72H382.78C384.83 42.42 387.23 44.56 388.54 46L384.7 49.01C383.3 47.31 380.33 44.51 378.06 42.5L380.59 40.71H371.07V36.47H396.36V34.33H401.73V36.47V36.48ZM401.69 22.63C400.77 21.41 399.29 19.84 398.15 18.66L399.94 17.17H396.62C395.57 19.13 394.39 20.84 393.17 22.19V22.63H401.69Z" stroke="black" stroke-width="20" stroke-linecap="round" stroke-linejoin="round"/>
<path d="M428.499 39.36C428.189 43.2 427.499 47.35 426.579 50.02C425.709 49.54 423.789 48.93 422.689 48.67C423.739 46.09 424.219 42.21 424.479 38.71L428.499 39.37V39.36ZM422.729 22.68C423.599 22.42 424.349 21.63 425.259 20.32C426.129 19.14 428.879 14.34 430.459 9.79999L435.219 11.72C433.649 15.26 431.549 18.97 429.319 22.03L432.379 21.81C433.519 19.98 434.649 18.01 435.519 16.05L439.839 18.8C437.349 23.25 434.119 27.75 430.759 31.51L435.339 30.85C434.949 29.8 434.549 28.8 434.119 27.92L437.609 26.61C439.009 29.36 440.359 32.94 440.749 35.3L436.949 36.83C436.859 36.22 436.729 35.48 436.509 34.69C427.249 36.35 425.639 36.7 424.679 37.27C424.419 36.35 423.629 33.95 423.019 32.68C424.199 32.37 425.159 31.41 426.559 29.8C427.129 29.19 428.179 27.97 429.399 26.26C425.989 26.65 424.989 26.91 424.329 27.26C424.069 26.26 423.279 23.98 422.709 22.68H422.729ZM433.039 38.4C433.559 41.19 434.039 44.78 434.179 47.09L430.419 48.05C430.379 45.69 429.939 42.02 429.499 39.27L433.039 38.4ZM462.559 25.04C461.469 31.59 459.499 37.09 456.749 41.46C458.629 43.51 460.859 45.13 463.429 46.26C462.289 47.22 460.769 49.19 459.979 50.58C457.529 49.31 455.439 47.65 453.649 45.6C451.769 47.7 449.719 49.4 447.399 50.84C446.609 49.62 445.259 47.87 444.129 46.95C446.489 45.64 448.669 43.76 450.549 41.4C449.239 39.17 448.099 36.6 447.139 33.89C446.269 40.53 444.689 46.16 441.769 50.57C440.979 49.74 438.539 47.99 437.309 47.34C438.009 46.42 438.619 45.37 439.139 44.28L436.129 45.37C435.779 43.54 434.909 40.57 434.119 38.34L437.569 37.2C438.309 39.16 439.099 41.57 439.579 43.4C442.509 36.72 443.119 27.37 443.159 16.67H439.539V11.82H454.389L455.129 11.6L458.749 12.08C458.309 15.84 457.529 20.25 456.789 24.05H458.409L459.239 23.88L462.559 25.01V25.04ZM448.189 16.69C448.149 19.22 448.059 21.71 447.969 24.07H451.939C452.419 21.71 452.859 19.05 453.209 16.69H448.189ZM450.069 28.7C450.859 31.67 451.989 34.51 453.479 37C454.829 34.51 455.929 31.72 456.709 28.7H450.069Z" stroke="black" stroke-width="20" stroke-linecap="round" stroke-linejoin="round"/>
<path d="M90.9198 44.16C90.9198 47.3 90.1798 48.79 88.1698 49.66C86.0698 50.58 83.0198 50.66 78.5198 50.66C78.2098 49.13 77.1698 46.64 76.3398 45.2C79.3998 45.37 83.0698 45.33 84.0298 45.33C85.0798 45.33 85.4298 44.98 85.4298 44.06V37.73H66.7398C65.5998 42.62 63.4198 47.38 59.3598 50.79C58.5698 49.7 56.4798 47.78 55.3398 47.03C61.9298 41.4 62.5498 33.06 62.5498 26.42V12.05H90.9398V44.15L90.9198 44.16ZM85.4198 32.72V27.39H67.9098C67.8698 29.05 67.7798 30.88 67.5998 32.72H85.4198ZM67.9098 17.13V22.46H85.4198V17.13H67.9098Z" stroke="#E8D09E" stroke-width="15" stroke-linecap="round" stroke-linejoin="round"/>
<path d="M143.32 44.16C143.32 47.3 142.58 48.79 140.57 49.66C138.47 50.58 135.42 50.66 130.92 50.66C130.61 49.13 129.57 46.64 128.74 45.2C131.8 45.37 135.47 45.33 136.43 45.33C137.48 45.33 137.83 44.98 137.83 44.06V37.73H119.14C118 42.62 115.82 47.38 111.76 50.79C110.97 49.7 108.88 47.78 107.74 47.03C114.33 41.4 114.95 33.06 114.95 26.42V12.05H143.34V44.15L143.32 44.16ZM137.82 32.72V27.39H120.31C120.27 29.05 120.18 30.88 120 32.72H137.82ZM120.31 17.13V22.46H137.82V17.13H120.31Z" stroke="#E8D09E" stroke-width="15" stroke-linecap="round" stroke-linejoin="round"/>
<path d="M171.48 43.9V50.8H167.2V43.9H160.43V39.36H167.2V36.74H161.74V20.98H167.16V18.71H161.05V14.21H167.16V10.06H171.44V14.21H177.69V18.71H171.44V20.98H177.2V36.74H171.48V39.36H178.16V43.9H171.48ZM165.37 27.18H167.68V24.6H165.37V27.18ZM165.37 33.16H167.68V30.58H165.37V33.16ZM173.45 24.6H171V27.18H173.45V24.6ZM173.45 30.58H171V33.16H173.45V30.58ZM201.35 45.34V49.71H177.81V45.34H187.07V38.83H179.78V34.46H200.04V38.83H192.22V45.34H201.35ZM182.31 33.86C181.52 31.5 179.78 28.1 177.86 24.99C179.3 22.33 180.83 19.01 181.66 16.87L185.85 17.79C184.76 20.19 183.45 22.81 182.27 24.95C183.93 27.44 185.55 30.37 186.33 32.24L182.31 33.86ZM200.7 16.13H178.78V11.76H200.7V16.13ZM192.84 17.79C191.75 20.19 190.39 22.77 189.13 24.91C190.92 27.36 192.67 30.19 193.5 32.07L189.53 33.73C188.66 31.42 186.82 28.05 184.64 24.95C186.21 22.29 187.83 19.01 188.66 16.87L192.85 17.79H192.84ZM196.9 33.86C195.98 31.5 193.93 28.1 191.66 24.99C193.32 22.33 195.07 19.01 196.03 16.87L200.31 17.83C199.09 20.28 197.56 22.81 196.25 24.95C198.13 27.35 200.05 30.28 200.92 32.2L196.9 33.86Z" stroke="#E8D09E" stroke-width="15" stroke-linecap="round" stroke-linejoin="round"/>
<path d="M225.02 38.22C226.46 39.22 229.65 41.67 230.44 42.41L227.69 45.77C227.12 44.98 226.12 43.81 225.03 42.63V50.67H220.4V42.98C218.96 45.03 217.39 46.87 215.81 48.13C215.07 47.08 213.71 45.47 212.71 44.64C215.2 43.11 217.95 40.32 219.74 37.48H213.93V33.55H220.39V30.45H225.02V33.55H230.35V37.48H225.02V38.22ZM231.87 30.89C231.52 30.37 231.04 29.75 230.52 29.1C218.55 29.93 216.94 29.97 215.76 30.41C215.54 29.75 215.02 28.23 214.71 27.4C215.23 27.31 215.76 27.05 216.33 26.66C216.68 26.44 217.42 25.87 218.21 25.18H213.75V22.34H217.16V11.12H234.15V13.96H221.88V15.18H232.8V17.54H221.88V18.76H232.8V21.07H221.88V22.34H235.16V25.18H231.54C232.85 26.53 234.47 28.19 235.3 29.28L231.89 30.9L231.87 30.89ZM227.51 25.82L228.99 25.17H222.66C221.92 25.87 221.13 26.52 220.35 27.13L228.34 26.69L227.51 25.82ZM239.51 31.5C237.98 35.43 235.36 39.27 232.52 41.63C231.82 40.84 230.16 39.4 229.16 38.7C231.78 36.69 234.01 33.59 235.19 30.4L239.51 31.49V31.5ZM247.07 40.67C248.9 43.33 251.35 46.87 252.62 49.01L248.56 50.84C248.25 50.23 247.82 49.44 247.34 48.61C235.85 49.53 233.93 49.74 232.67 50.23C232.45 49.36 231.71 47.3 231.14 46.17C232.01 46 232.76 45.3 233.67 44.29C234.63 43.33 237.64 39.49 239.39 35.69L243.76 37.87C242.19 40.36 240.27 42.94 238.21 45.16L244.94 44.77C244.37 43.9 243.8 43.02 243.28 42.24L247.08 40.67H247.07ZM252.88 23.11C249.52 26.6 243.8 28.61 237.42 29.84C236.9 28.75 235.89 27.35 234.93 26.43C240.43 25.69 245.93 24.07 248.69 21.63L252.88 23.12V23.11ZM250.48 12.33C247.16 14.6 242.27 16.52 238.34 17.7C237.6 16.78 236.46 15.56 235.37 14.77C238.99 13.81 243.97 12.15 246.51 10.4L250.48 12.32V12.33ZM251.7 17.66C248.47 20.37 243.4 22.33 238.6 23.47C237.95 22.55 236.85 21.2 235.85 20.37C240.13 19.58 245.15 17.97 247.68 16.05L251.7 17.67V17.66ZM246.63 29.71C248.07 32.94 251 36.09 254.05 37.79C253.13 38.66 251.65 40.41 250.95 41.59C248.16 39.63 245.45 36.7 243.74 33.64H239.94V29.71H246.62H246.63Z" stroke="#E8D09E" stroke-width="15" stroke-linecap="round" stroke-linejoin="round"/>
<path d="M289.73 27.09C292.61 35.61 297.9 42.46 306.06 45.78C304.75 46.87 303.05 49.19 302.22 50.67C294.32 46.96 289.25 40.58 285.84 32.15C283.48 39.44 278.76 46.26 269.51 50.71C268.68 49.27 267.15 47.39 265.62 46.3C275.62 41.84 279.77 34.6 281.47 27.08H266.45V21.71H282.35C282.79 17.6 282.74 13.63 282.79 10.05H288.47C288.43 13.63 288.38 17.65 287.95 21.71H305.11V27.08H289.74L289.73 27.09Z" stroke="#E8D09E" stroke-width="15" stroke-linecap="round" stroke-linejoin="round"/>
<path d="M353.53 21.54V39.71H348.2V37.53H327.98C327.02 42.46 325.14 47.44 321.52 51.02C320.73 50.02 318.59 48.14 317.5 47.48C323.18 41.72 323.7 33.11 323.7 26.74V14.07C332.52 13.28 342.48 11.8 348.42 10.05L352.53 13.98C345.85 15.81 337.07 17.12 328.95 17.91V21.53H353.54L353.53 21.54ZM348.2 32.72V26.34H328.94V26.78C328.94 28.57 328.85 30.62 328.68 32.72H348.2Z" stroke="#E8D09E" stroke-width="15" stroke-linecap="round" stroke-linejoin="round"/>
<path d="M410.68 12.76V17.17H402.78C403.92 18.22 405.01 19.4 405.62 20.23L402.87 22.63H408.68V27.04H393.18V29.57H405.98V33.5H374.84V29.57H387.77V27.04H372.44V22.63H383.27C382.31 21.45 380.61 19.75 379.17 18.52L380.7 17.17H377.6C376.29 19 374.89 20.62 373.49 21.89C372.75 20.97 371.04 19.18 370.04 18.35C372.66 16.21 375.19 12.89 376.59 9.62L381.18 10.97C380.92 11.58 380.61 12.15 380.35 12.76H390V17.17H383.93C385.02 18.09 386.07 19.09 386.68 19.88L383.67 22.63H387.77V20.49H390.96C390.35 20.01 389.69 19.57 389.21 19.27C391.57 16.95 393.58 13.29 394.67 9.62L399.39 10.75C399.17 11.41 399 12.1 398.74 12.76H410.7H410.68ZM401.73 36.48H409.98V40.72H401.73V46.09C401.73 48.58 401.16 49.63 399.28 50.19C397.45 50.76 394.78 50.76 391.16 50.76C390.99 49.45 390.46 47.83 389.89 46.57C392.03 46.7 394.78 46.7 395.44 46.66C396.09 46.66 396.36 46.49 396.36 45.87V40.72H382.78C384.83 42.42 387.23 44.56 388.54 46L384.7 49.01C383.3 47.31 380.33 44.51 378.06 42.5L380.59 40.71H371.07V36.47H396.36V34.33H401.73V36.47V36.48ZM401.69 22.63C400.77 21.41 399.29 19.84 398.15 18.66L399.94 17.17H396.62C395.57 19.13 394.39 20.84 393.17 22.19V22.63H401.69Z" stroke="#E8D09E" stroke-width="15" stroke-linecap="round" stroke-linejoin="round"/>
<path d="M428.499 39.36C428.189 43.2 427.499 47.35 426.579 50.02C425.709 49.54 423.789 48.93 422.689 48.67C423.739 46.09 424.219 42.21 424.479 38.71L428.499 39.37V39.36ZM422.729 22.68C423.599 22.42 424.349 21.63 425.259 20.32C426.129 19.14 428.879 14.34 430.459 9.79999L435.219 11.72C433.649 15.26 431.549 18.97 429.319 22.03L432.379 21.81C433.519 19.98 434.649 18.01 435.519 16.05L439.839 18.8C437.349 23.25 434.119 27.75 430.759 31.51L435.339 30.85C434.949 29.8 434.549 28.8 434.119 27.92L437.609 26.61C439.009 29.36 440.359 32.94 440.749 35.3L436.949 36.83C436.859 36.22 436.729 35.48 436.509 34.69C427.249 36.35 425.639 36.7 424.679 37.27C424.419 36.35 423.629 33.95 423.019 32.68C424.199 32.37 425.159 31.41 426.559 29.8C427.129 29.19 428.179 27.97 429.399 26.26C425.989 26.65 424.989 26.91 424.329 27.26C424.069 26.26 423.279 23.98 422.709 22.68H422.729ZM433.039 38.4C433.559 41.19 434.039 44.78 434.179 47.09L430.419 48.05C430.379 45.69 429.939 42.02 429.499 39.27L433.039 38.4ZM462.559 25.04C461.469 31.59 459.499 37.09 456.749 41.46C458.629 43.51 460.859 45.13 463.429 46.26C462.289 47.22 460.769 49.19 459.979 50.58C457.529 49.31 455.439 47.65 453.649 45.6C451.769 47.7 449.719 49.4 447.399 50.84C446.609 49.62 445.259 47.87 444.129 46.95C446.489 45.64 448.669 43.76 450.549 41.4C449.239 39.17 448.099 36.6 447.139 33.89C446.269 40.53 444.689 46.16 441.769 50.57C440.979 49.74 438.539 47.99 437.309 47.34C438.009 46.42 438.619 45.37 439.139 44.28L436.129 45.37C435.779 43.54 434.909 40.57 434.119 38.34L437.569 37.2C438.309 39.16 439.099 41.57 439.579 43.4C442.509 36.72 443.119 27.37 443.159 16.67H439.539V11.82H454.389L455.129 11.6L458.749 12.08C458.309 15.84 457.529 20.25 456.789 24.05H458.409L459.239 23.88L462.559 25.01V25.04ZM448.189 16.69C448.149 19.22 448.059 21.71 447.969 24.07H451.939C452.419 21.71 452.859 19.05 453.209 16.69H448.189ZM450.069 28.7C450.859 31.67 451.989 34.51 453.479 37C454.829 34.51 455.929 31.72 456.709 28.7H450.069Z" stroke="#E8D09E" stroke-width="15" stroke-linecap="round" stroke-linejoin="round"/>
<path d="M90.9198 44.16C90.9198 47.3 90.1798 48.79 88.1698 49.66C86.0698 50.58 83.0198 50.66 78.5198 50.66C78.2098 49.13 77.1698 46.64 76.3398 45.2C79.3998 45.37 83.0698 45.33 84.0298 45.33C85.0798 45.33 85.4298 44.98 85.4298 44.06V37.73H66.7398C65.5998 42.62 63.4198 47.38 59.3598 50.79C58.5698 49.7 56.4798 47.78 55.3398 47.03C61.9298 41.4 62.5498 33.06 62.5498 26.42V12.05H90.9398V44.15L90.9198 44.16ZM85.4198 32.72V27.39H67.9098C67.8698 29.05 67.7798 30.88 67.5998 32.72H85.4198ZM67.9098 17.13V22.46H85.4198V17.13H67.9098Z" fill="black" stroke="white" stroke-width="10" stroke-linecap="round" stroke-linejoin="round"/>
<path d="M143.32 44.16C143.32 47.3 142.58 48.79 140.57 49.66C138.47 50.58 135.42 50.66 130.92 50.66C130.61 49.13 129.57 46.64 128.74 45.2C131.8 45.37 135.47 45.33 136.43 45.33C137.48 45.33 137.83 44.98 137.83 44.06V37.73H119.14C118 42.62 115.82 47.38 111.76 50.79C110.97 49.7 108.88 47.78 107.74 47.03C114.33 41.4 114.95 33.06 114.95 26.42V12.05H143.34V44.15L143.32 44.16ZM137.82 32.72V27.39H120.31C120.27 29.05 120.18 30.88 120 32.72H137.82ZM120.3 17.13V22.46H137.81V17.13H120.3Z" fill="black" stroke="white" stroke-width="10" stroke-linecap="round" stroke-linejoin="round"/>
<path d="M171.48 43.9V50.8H167.2V43.9H160.43V39.36H167.2V36.74H161.74V20.98H167.16V18.71H161.05V14.21H167.16V10.06H171.44V14.21H177.69V18.71H171.44V20.98H177.2V36.74H171.48V39.36H178.16V43.9H171.48ZM165.37 27.18H167.68V24.6H165.37V27.18ZM165.37 33.16H167.68V30.58H165.37V33.16ZM173.44 24.6H170.99V27.18H173.44V24.6ZM173.44 30.58H170.99V33.16H173.44V30.58ZM201.35 45.34V49.71H177.81V45.34H187.07V38.83H179.78V34.46H200.04V38.83H192.22V45.34H201.35ZM182.31 33.86C181.52 31.5 179.78 28.1 177.86 24.99C179.3 22.33 180.83 19.01 181.66 16.87L185.85 17.79C184.76 20.19 183.45 22.81 182.27 24.95C183.93 27.44 185.55 30.37 186.33 32.24L182.31 33.86ZM200.7 16.13H178.78V11.76H200.7V16.13ZM192.84 17.79C191.75 20.19 190.39 22.77 189.13 24.91C190.92 27.36 192.67 30.19 193.5 32.07L189.53 33.73C188.66 31.42 186.82 28.05 184.64 24.95C186.21 22.29 187.83 19.01 188.66 16.87L192.85 17.79H192.84ZM196.9 33.86C195.98 31.5 193.93 28.1 191.66 24.99C193.32 22.33 195.07 19.01 196.03 16.87L200.31 17.83C199.09 20.28 197.56 22.81 196.25 24.95C198.13 27.35 200.05 30.28 200.92 32.2L196.9 33.86Z" fill="black" stroke="white" stroke-width="10" stroke-linecap="round" stroke-linejoin="round"/>
<path d="M225.01 38.22C226.45 39.22 229.64 41.67 230.43 42.41L227.68 45.77C227.11 44.98 226.11 43.81 225.02 42.63V50.67H220.39V42.98C218.95 45.03 217.38 46.87 215.8 48.13C215.06 47.08 213.7 45.47 212.7 44.64C215.19 43.11 217.94 40.32 219.73 37.48H213.92V33.55H220.38V30.45H225.01V33.55H230.34V37.48H225.01V38.22ZM231.87 30.89C231.52 30.37 231.04 29.75 230.52 29.1C218.55 29.93 216.94 29.97 215.76 30.41C215.54 29.75 215.02 28.23 214.71 27.4C215.23 27.31 215.76 27.05 216.33 26.66C216.68 26.44 217.42 25.87 218.21 25.18H213.75V22.34H217.16V11.12H234.15V13.96H221.88V15.18H232.8V17.54H221.88V18.76H232.8V21.07H221.88V22.34H235.16V25.18H231.54C232.85 26.53 234.47 28.19 235.3 29.28L231.89 30.9L231.87 30.89ZM227.5 25.82L228.98 25.17H222.65C221.91 25.87 221.12 26.52 220.34 27.13L228.33 26.69L227.5 25.82ZM239.51 31.5C237.98 35.43 235.36 39.27 232.52 41.63C231.82 40.84 230.16 39.4 229.16 38.7C231.78 36.69 234.01 33.59 235.19 30.4L239.51 31.49V31.5ZM247.07 40.67C248.9 43.33 251.35 46.87 252.62 49.01L248.56 50.84C248.25 50.23 247.82 49.44 247.34 48.61C235.85 49.53 233.93 49.74 232.67 50.23C232.45 49.36 231.71 47.3 231.14 46.17C232.01 46 232.76 45.3 233.67 44.29C234.63 43.33 237.64 39.49 239.39 35.69L243.76 37.87C242.19 40.36 240.27 42.94 238.21 45.16L244.94 44.77C244.37 43.9 243.8 43.02 243.28 42.24L247.08 40.67H247.07ZM252.88 23.11C249.52 26.6 243.8 28.61 237.42 29.84C236.9 28.75 235.89 27.35 234.93 26.43C240.43 25.69 245.93 24.07 248.69 21.63L252.88 23.12V23.11ZM250.47 12.33C247.15 14.6 242.26 16.52 238.33 17.7C237.59 16.78 236.45 15.56 235.36 14.77C238.98 13.81 243.96 12.15 246.5 10.4L250.47 12.32V12.33ZM251.7 17.66C248.47 20.37 243.4 22.33 238.6 23.47C237.95 22.55 236.85 21.2 235.85 20.37C240.13 19.58 245.15 17.97 247.68 16.05L251.7 17.67V17.66ZM246.63 29.71C248.07 32.94 251 36.09 254.05 37.79C253.13 38.66 251.65 40.41 250.95 41.59C248.16 39.63 245.45 36.7 243.74 33.64H239.94V29.71H246.62H246.63Z" fill="black" stroke="white" stroke-width="10" stroke-linecap="round" stroke-linejoin="round"/>
<path d="M289.73 27.09C292.61 35.61 297.9 42.46 306.06 45.78C304.75 46.87 303.05 49.19 302.22 50.67C294.32 46.96 289.25 40.58 285.84 32.15C283.48 39.44 278.76 46.26 269.51 50.71C268.68 49.27 267.15 47.39 265.62 46.3C275.62 41.84 279.77 34.6 281.47 27.08H266.45V21.71H282.35C282.79 17.6 282.74 13.63 282.79 10.05H288.47C288.43 13.63 288.38 17.65 287.95 21.71H305.11V27.08H289.74L289.73 27.09Z" fill="black" stroke="white" stroke-width="10" stroke-linecap="round" stroke-linejoin="round"/>
<path d="M353.52 21.54V39.71H348.19V37.53H327.97C327.01 42.46 325.13 47.44 321.51 51.02C320.72 50.02 318.58 48.14 317.49 47.48C323.17 41.72 323.69 33.11 323.69 26.74V14.07C332.51 13.28 342.47 11.8 348.41 10.05L352.52 13.98C345.84 15.81 337.06 17.12 328.94 17.91V21.53H353.53L353.52 21.54ZM348.2 32.72V26.34H328.94V26.78C328.94 28.57 328.85 30.62 328.68 32.72H348.2Z" fill="black" stroke="white" stroke-width="10" stroke-linecap="round" stroke-linejoin="round"/>
<path d="M410.68 12.76V17.17H402.78C403.92 18.22 405.01 19.4 405.62 20.23L402.87 22.63H408.68V27.04H393.18V29.57H405.98V33.5H374.84V29.57H387.77V27.04H372.44V22.63H383.27C382.31 21.45 380.61 19.75 379.17 18.52L380.7 17.17H377.6C376.29 19 374.89 20.62 373.49 21.89C372.75 20.97 371.04 19.18 370.04 18.35C372.66 16.21 375.19 12.89 376.59 9.62L381.18 10.97C380.92 11.58 380.61 12.15 380.35 12.76H390V17.17H383.93C385.02 18.09 386.07 19.09 386.68 19.88L383.67 22.63H387.77V20.49H390.96C390.35 20.01 389.69 19.57 389.21 19.27C391.57 16.95 393.58 13.29 394.67 9.62L399.39 10.75C399.17 11.41 399 12.1 398.74 12.76H410.7H410.68ZM401.73 36.48H409.98V40.72H401.73V46.09C401.73 48.58 401.16 49.63 399.28 50.19C397.45 50.76 394.78 50.76 391.16 50.76C390.99 49.45 390.46 47.83 389.89 46.57C392.03 46.7 394.78 46.7 395.44 46.66C396.09 46.66 396.36 46.49 396.36 45.87V40.72H382.78C384.83 42.42 387.23 44.56 388.54 46L384.7 49.01C383.3 47.31 380.33 44.51 378.06 42.5L380.59 40.71H371.07V36.47H396.36V34.33H401.73V36.47V36.48ZM401.69 22.63C400.77 21.41 399.29 19.84 398.15 18.66L399.94 17.17H396.62C395.57 19.13 394.39 20.84 393.17 22.19V22.63H401.69Z" fill="black" stroke="white" stroke-width="10" stroke-linecap="round" stroke-linejoin="round"/>
<path d="M428.499 39.36C428.189 43.2 427.499 47.35 426.579 50.02C425.709 49.54 423.789 48.93 422.689 48.67C423.739 46.09 424.219 42.21 424.479 38.71L428.499 39.37V39.36ZM422.729 22.68C423.599 22.42 424.349 21.63 425.259 20.32C426.129 19.14 428.879 14.34 430.459 9.79999L435.219 11.72C433.649 15.26 431.549 18.97 429.319 22.03L432.379 21.81C433.519 19.98 434.649 18.01 435.519 16.05L439.839 18.8C437.349 23.25 434.119 27.75 430.759 31.51L435.339 30.85C434.949 29.8 434.549 28.8 434.119 27.92L437.609 26.61C439.009 29.36 440.359 32.94 440.749 35.3L436.949 36.83C436.859 36.22 436.729 35.48 436.509 34.69C427.249 36.35 425.639 36.7 424.679 37.27C424.419 36.35 423.629 33.95 423.019 32.68C424.199 32.37 425.159 31.41 426.559 29.8C427.129 29.19 428.179 27.97 429.399 26.26C425.989 26.65 424.989 26.91 424.329 27.26C424.069 26.26 423.279 23.98 422.709 22.68H422.729ZM433.039 38.4C433.559 41.19 434.039 44.78 434.179 47.09L430.419 48.05C430.379 45.69 429.939 42.02 429.499 39.27L433.039 38.4ZM462.559 25.04C461.469 31.59 459.499 37.09 456.749 41.46C458.629 43.51 460.859 45.13 463.429 46.26C462.289 47.22 460.769 49.19 459.979 50.58C457.529 49.31 455.439 47.65 453.649 45.6C451.769 47.7 449.719 49.4 447.399 50.84C446.609 49.62 445.259 47.87 444.129 46.95C446.489 45.64 448.669 43.76 450.549 41.4C449.239 39.17 448.099 36.6 447.139 33.89C446.269 40.53 444.689 46.16 441.769 50.57C440.979 49.74 438.539 47.99 437.309 47.34C438.009 46.42 438.619 45.37 439.139 44.28L436.129 45.37C435.779 43.54 434.909 40.57 434.119 38.34L437.569 37.2C438.309 39.16 439.099 41.57 439.579 43.4C442.509 36.72 443.119 27.37 443.159 16.67H439.539V11.82H454.389L455.129 11.6L458.749 12.08C458.309 15.84 457.529 20.25 456.789 24.05H458.409L459.239 23.88L462.559 25.01V25.04ZM448.189 16.69C448.149 19.22 448.059 21.71 447.969 24.07H451.939C452.419 21.71 452.859 19.05 453.209 16.69H448.189ZM450.069 28.7C450.859 31.67 451.989 34.51 453.479 37C454.829 34.51 455.929 31.72 456.709 28.7H450.069Z" fill="black" stroke="white" stroke-width="10" stroke-linecap="round" stroke-linejoin="round"/>
<path d="M90.9198 44.16C90.9198 47.3 90.1798 48.79 88.1698 49.66C86.0698 50.58 83.0198 50.66 78.5198 50.66C78.2098 49.13 77.1698 46.64 76.3398 45.2C79.3998 45.37 83.0698 45.33 84.0298 45.33C85.0798 45.33 85.4298 44.98 85.4298 44.06V37.73H66.7398C65.5998 42.62 63.4198 47.38 59.3598 50.79C58.5698 49.7 56.4798 47.78 55.3398 47.03C61.9298 41.4 62.5498 33.06 62.5498 26.42V12.05H90.9398V44.15L90.9198 44.16ZM85.4198 32.72V27.39H67.9098C67.8698 29.05 67.7798 30.88 67.5998 32.72H85.4198ZM67.9098 17.13V22.46H85.4198V17.13H67.9098Z" fill="black"/>
<path d="M143.32 44.16C143.32 47.3 142.58 48.79 140.57 49.66C138.47 50.58 135.42 50.66 130.92 50.66C130.61 49.13 129.57 46.64 128.74 45.2C131.8 45.37 135.47 45.33 136.43 45.33C137.48 45.33 137.83 44.98 137.83 44.06V37.73H119.14C118 42.62 115.82 47.38 111.76 50.79C110.97 49.7 108.88 47.78 107.74 47.03C114.33 41.4 114.95 33.06 114.95 26.42V12.05H143.34V44.15L143.32 44.16ZM137.82 32.72V27.39H120.31C120.27 29.05 120.18 30.88 120 32.72H137.82ZM120.31 17.13V22.46H137.82V17.13H120.31Z" fill="black"/>
<path d="M171.48 43.9V50.8H167.2V43.9H160.43V39.36H167.2V36.74H161.74V20.98H167.16V18.71H161.05V14.21H167.16V10.06H171.44V14.21H177.69V18.71H171.44V20.98H177.2V36.74H171.48V39.36H178.16V43.9H171.48ZM165.37 27.17H167.68V24.59H165.37V27.17ZM165.37 33.16H167.68V30.58H165.37V33.16ZM173.45 24.6H171V27.18H173.45V24.6ZM173.45 30.58H171V33.16H173.45V30.58ZM201.35 45.34V49.71H177.81V45.34H187.07V38.83H179.78V34.46H200.04V38.83H192.22V45.34H201.35ZM182.31 33.86C181.52 31.5 179.78 28.1 177.86 24.99C179.3 22.33 180.83 19.01 181.66 16.87L185.85 17.79C184.76 20.19 183.45 22.81 182.27 24.95C183.93 27.44 185.55 30.37 186.33 32.24L182.31 33.86ZM200.7 16.13H178.78V11.76H200.7V16.13ZM192.84 17.79C191.75 20.19 190.39 22.77 189.13 24.91C190.92 27.36 192.67 30.19 193.5 32.07L189.53 33.73C188.66 31.42 186.82 28.05 184.64 24.95C186.21 22.29 187.83 19.01 188.66 16.87L192.85 17.79H192.84ZM196.9 33.86C195.98 31.5 193.93 28.1 191.66 24.99C193.32 22.33 195.07 19.01 196.03 16.87L200.31 17.83C199.09 20.28 197.56 22.81 196.25 24.95C198.13 27.35 200.05 30.28 200.92 32.2L196.9 33.86Z" fill="black"/>
<path d="M225.02 38.22C226.46 39.22 229.65 41.67 230.44 42.41L227.69 45.77C227.12 44.98 226.12 43.81 225.03 42.63V50.67H220.4V42.98C218.96 45.03 217.39 46.87 215.81 48.13C215.07 47.08 213.71 45.47 212.71 44.64C215.2 43.11 217.95 40.32 219.74 37.48H213.93V33.55H220.39V30.45H225.02V33.55H230.35V37.48H225.02V38.22ZM231.87 30.89C231.52 30.37 231.04 29.75 230.52 29.1C218.55 29.93 216.94 29.97 215.76 30.41C215.54 29.75 215.02 28.23 214.71 27.4C215.23 27.31 215.76 27.05 216.33 26.66C216.68 26.44 217.42 25.87 218.21 25.18H213.75V22.34H217.16V11.12H234.15V13.96H221.88V15.18H232.8V17.54H221.88V18.76H232.8V21.07H221.88V22.34H235.16V25.18H231.54C232.85 26.53 234.47 28.19 235.3 29.28L231.89 30.9L231.87 30.89ZM227.51 25.82L228.99 25.17H222.66C221.92 25.87 221.13 26.52 220.35 27.13L228.34 26.69L227.51 25.82ZM239.51 31.5C237.98 35.43 235.36 39.27 232.52 41.63C231.82 40.84 230.16 39.4 229.16 38.7C231.78 36.69 234.01 33.59 235.19 30.4L239.51 31.49V31.5ZM247.07 40.67C248.9 43.33 251.35 46.87 252.62 49.01L248.56 50.84C248.25 50.23 247.82 49.44 247.34 48.61C235.85 49.53 233.93 49.74 232.67 50.23C232.45 49.36 231.71 47.3 231.14 46.17C232.01 46 232.76 45.3 233.67 44.29C234.63 43.33 237.64 39.49 239.39 35.69L243.76 37.87C242.19 40.36 240.27 42.94 238.21 45.16L244.94 44.77C244.37 43.9 243.8 43.02 243.28 42.24L247.08 40.67H247.07ZM252.88 23.11C249.52 26.6 243.8 28.61 237.42 29.84C236.9 28.75 235.89 27.35 234.93 26.43C240.43 25.69 245.93 24.07 248.69 21.63L252.88 23.12V23.11ZM250.48 12.33C247.16 14.6 242.27 16.52 238.34 17.7C237.6 16.78 236.46 15.56 235.37 14.77C238.99 13.81 243.97 12.15 246.51 10.4L250.48 12.32V12.33ZM251.7 17.65C248.47 20.36 243.4 22.32 238.6 23.46C237.95 22.54 236.85 21.19 235.85 20.36C240.13 19.57 245.15 17.96 247.68 16.04L251.7 17.66V17.65ZM246.63 29.71C248.07 32.94 251 36.09 254.05 37.79C253.13 38.66 251.65 40.41 250.95 41.59C248.16 39.63 245.45 36.7 243.74 33.64H239.94V29.71H246.62H246.63Z" fill="black"/>
<path d="M289.73 27.09C292.61 35.61 297.9 42.46 306.06 45.78C304.75 46.87 303.05 49.19 302.22 50.67C294.32 46.96 289.25 40.58 285.84 32.15C283.48 39.44 278.76 46.26 269.51 50.71C268.68 49.27 267.15 47.39 265.62 46.3C275.62 41.84 279.77 34.6 281.47 27.08H266.45V21.71H282.35C282.79 17.6 282.74 13.63 282.79 10.05H288.47C288.43 13.63 288.38 17.65 287.95 21.71H305.11V27.08H289.74L289.73 27.09Z" fill="black"/>
<path d="M353.53 21.54V39.71H348.2V37.53H327.98C327.02 42.46 325.14 47.44 321.52 51.02C320.73 50.02 318.59 48.14 317.5 47.48C323.18 41.72 323.7 33.11 323.7 26.74V14.07C332.52 13.28 342.48 11.8 348.42 10.05L352.53 13.98C345.85 15.81 337.07 17.12 328.95 17.91V21.53H353.54L353.53 21.54ZM348.2 32.72V26.34H328.94V26.78C328.94 28.57 328.85 30.62 328.68 32.72H348.2Z" fill="black"/>
<path d="M410.68 12.76V17.17H402.78C403.92 18.22 405.01 19.4 405.62 20.23L402.87 22.63H408.68V27.04H393.18V29.57H405.98V33.5H374.84V29.57H387.77V27.04H372.44V22.63H383.27C382.31 21.45 380.61 19.75 379.17 18.52L380.7 17.17H377.6C376.29 19 374.89 20.62 373.49 21.89C372.75 20.97 371.04 19.18 370.04 18.35C372.66 16.21 375.19 12.89 376.59 9.62L381.18 10.97C380.92 11.58 380.61 12.15 380.35 12.76H390V17.17H383.93C385.02 18.09 386.07 19.09 386.68 19.88L383.67 22.63H387.77V20.49H390.96C390.35 20.01 389.69 19.57 389.21 19.27C391.57 16.95 393.58 13.29 394.67 9.62L399.39 10.75C399.17 11.41 399 12.1 398.74 12.76H410.7H410.68ZM401.73 36.48H409.98V40.72H401.73V46.09C401.73 48.58 401.16 49.63 399.28 50.19C397.45 50.76 394.78 50.76 391.16 50.76C390.99 49.45 390.46 47.83 389.89 46.57C392.03 46.7 394.78 46.7 395.44 46.66C396.09 46.66 396.36 46.49 396.36 45.87V40.72H382.78C384.83 42.42 387.23 44.56 388.54 46L384.7 49.01C383.3 47.31 380.33 44.51 378.06 42.5L380.59 40.71H371.07V36.47H396.36V34.33H401.73V36.47V36.48ZM401.69 22.63C400.77 21.41 399.29 19.84 398.15 18.66L399.94 17.17H396.62C395.57 19.13 394.39 20.84 393.17 22.19V22.63H401.69Z" fill="black"/>
<path d="M428.499 39.36C428.189 43.2 427.499 47.35 426.579 50.02C425.709 49.54 423.789 48.93 422.689 48.67C423.739 46.09 424.219 42.21 424.479 38.71L428.499 39.37V39.36ZM422.729 22.68C423.599 22.42 424.349 21.63 425.259 20.32C426.129 19.14 428.879 14.34 430.459 9.79999L435.219 11.72C433.649 15.26 431.549 18.97 429.319 22.03L432.379 21.81C433.519 19.98 434.649 18.01 435.519 16.05L439.839 18.8C437.349 23.25 434.119 27.75 430.759 31.51L435.339 30.85C434.949 29.8 434.549 28.8 434.119 27.92L437.609 26.61C439.009 29.36 440.359 32.94 440.749 35.3L436.949 36.83C436.859 36.22 436.729 35.48 436.509 34.69C427.249 36.35 425.639 36.7 424.679 37.27C424.419 36.35 423.629 33.95 423.019 32.68C424.199 32.37 425.159 31.41 426.559 29.8C427.129 29.19 428.179 27.97 429.399 26.26C425.989 26.65 424.989 26.91 424.329 27.26C424.069 26.26 423.279 23.98 422.709 22.68H422.729ZM433.039 38.4C433.559 41.19 434.039 44.78 434.179 47.09L430.419 48.05C430.379 45.69 429.939 42.02 429.499 39.27L433.039 38.4ZM462.559 25.03C461.469 31.58 459.499 37.08 456.749 41.45C458.629 43.5 460.859 45.12 463.429 46.25C462.289 47.21 460.769 49.18 459.979 50.57C457.529 49.3 455.439 47.64 453.649 45.59C451.769 47.69 449.719 49.39 447.399 50.83C446.609 49.61 445.259 47.86 444.129 46.94C446.489 45.63 448.669 43.75 450.549 41.39C449.239 39.16 448.099 36.59 447.139 33.88C446.269 40.52 444.689 46.15 441.769 50.56C440.979 49.73 438.539 47.98 437.309 47.33C438.009 46.41 438.619 45.36 439.139 44.27L436.129 45.36C435.779 43.53 434.909 40.56 434.119 38.33L437.569 37.19C438.309 39.15 439.099 41.56 439.579 43.39C442.509 36.71 443.119 27.36 443.159 16.66H439.539V11.81H454.389L455.129 11.59L458.749 12.07C458.309 15.83 457.529 20.24 456.789 24.04H458.409L459.239 23.87L462.559 25V25.03ZM448.189 16.69C448.149 19.22 448.059 21.71 447.969 24.07H451.939C452.419 21.71 452.859 19.05 453.209 16.69H448.189ZM450.069 28.7C450.859 31.67 451.989 34.51 453.479 37C454.829 34.51 455.929 31.72 456.709 28.7H450.069Z" fill="black"/>
</g>
<defs>
<clipPath id="clip0_226_8356">
<rect width="529" height="67" fill="white"/>
</clipPath>
</defs>
</svg>
