<svg width="730" height="547" viewBox="0 0 730 547" fill="none" xmlns="http://www.w3.org/2000/svg">
<style>
  <!-- 箭頭 -->
  #arrow1 {
    animation: arrow 1.2s ease-in-out infinite;
  }
  #arrow2 {
    animation: arrow 1s ease-in-out infinite;
  }
  @keyframes arrow {
    0% { transform: translateY(0); }
    50% { transform: translateY(-10px); }
    100% { transform: translateY(0); }
  }
  <!-- 想當台積電股東 -->
  #title {
    animation: title 2s ease-in-out infinite 1s;
  }
  @keyframes title {
    0% { transform: translateY(0); }
    50% { transform: translateY(-5px); }
    100% { transform: translateY(0); }
  }
  <!-- 曲線圖 -->
  #line {
    clip-path: inset(0 100% 0 0);
    animation: revealLeftToRight 5s ease-out infinite;
  }
  @keyframes revealLeftToRight {
    0% {
      clip-path: inset(0 100% 0 0);
    }
    100% {
      clip-path: inset(0 0 0 0);
    }
  }
  <!-- K棒 -->
  @keyframes revealFromLeft {
    0% {
      clip-path: inset(0 100% 0 0);

    }
    100% {
      clip-path: inset(0 0 0 0);
    }
  }
  .k1 {
    clip-path: inset(0 100% 0 0);
    animation: revealFromLeft 1s ease-out forwards;
    animation-delay: 0s;
  }

  .k2 {
    clip-path: inset(0 100% 0 0);
    animation: revealFromLeft 1s ease-out forwards;
    animation-delay: 3s;
  }
  .k3 {
    clip-path: inset(0 100% 0 0);
    animation: revealFromLeft 1s ease-out forwards;
    animation-delay: 6s;
  }
  <!-- 鈔票 -->
  <!-- @keyframes floatBill {
    0% {
      transform: translateY(0);
    }
    50% {
      transform: translateY(-4px);
    }
    100% {
      transform: translateY(0);
    }
  }-->
  .floating-cash {
    animation: shakeCash 3.5s ease-in-out infinite;
  }
  <!-- @keyframes dropCash {
    0% {
        transform: translateY(-100px) rotate(0);
    }
    50% {
        transform: translateY(50vh) rotate(30deg);
    }
    100% {
        transform: translateY(100vh) rotate(-30deg);
    }
  } -->
  @keyframes shakeCash {
    0% { transform: rotate(-1deg) translateY(1px); }
    50% { transform: rotate(0deg) translate(0); }
    100% { transform: rotate(-1deg) translateY(1px); }
  }
</style>



<path d="M380.314 544.138C501.952 544.138 600.557 445.625 600.557 324.105C600.557 202.585 501.96 104.072 380.314 104.072C258.669 104.072 160.081 202.585 160.081 324.105C160.081 445.625 258.686 544.138 380.323 544.138H380.314Z" fill="url(#paint0_linear_74_5868)"/>
<path d="M380.298 530.024C325.281 530.024 273.544 508.606 234.633 469.728C195.73 430.85 174.295 379.138 174.295 324.155C174.295 269.172 195.73 217.46 234.633 178.582C273.536 139.704 325.265 118.287 380.298 118.287C435.331 118.287 487.052 139.704 525.963 178.582C564.866 217.46 586.301 269.172 586.301 324.155C586.301 379.138 564.866 430.85 525.963 469.728C487.06 508.606 435.323 530.024 380.298 530.024Z" fill="#111111"/>
<path d="M380.298 530.024C325.281 530.024 273.544 508.606 234.633 469.728C195.73 430.85 174.295 379.138 174.295 324.155C174.295 269.172 195.73 217.46 234.633 178.582C273.536 139.704 325.265 118.287 380.298 118.287C435.331 118.287 487.052 139.704 525.963 178.582C564.866 217.46 586.301 269.172 586.301 324.155C586.301 379.138 564.866 430.85 525.963 469.728C487.06 508.606 435.323 530.024 380.298 530.024ZM380.298 131.003C273.737 131.003 187.037 217.653 187.037 324.147C187.037 430.641 273.729 517.299 380.298 517.299C486.868 517.299 573.559 430.65 573.559 324.147C573.559 217.644 486.868 131.003 380.298 131.003Z" fill="#EDCC94"/>
<path d="M380.298 530.024C325.281 530.024 273.544 508.606 234.633 469.728C195.73 430.85 174.295 379.138 174.295 324.155C174.295 269.172 195.73 217.46 234.633 178.582C273.536 139.704 325.265 118.287 380.298 118.287C435.331 118.287 487.052 139.704 525.963 178.582C564.866 217.46 586.301 269.172 586.301 324.155C586.301 379.138 564.866 430.85 525.963 469.728C487.06 508.606 435.323 530.024 380.298 530.024Z" fill="url(#paint1_linear_74_5868)"/>
<g opacity="0.8" id="arrow1">
<path d="M64.8352 221.075L58.3637 226.638L37.6655 205.597L16.9674 226.638L11.4958 221.075L37.6655 194.453L63.8352 221.075Z" fill="#C8B079"/>
<path opacity="0.8" d="M63.8352 242.074L58.3637 247.654L37.6655 226.613L16.9674 247.654L11.4958 242.074L37.6655 215.469L63.8352 242.074Z" fill="#C8B079"/>
<path opacity="0.6" d="M63.8352 263.09L58.3637 268.653L37.6655 247.621L16.9674 268.653L11.4958 263.09L37.6655 236.485L63.8352 263.09Z" fill="#C8B079"/>
</g>
<g opacity="0.8" id="arrow2">
  <path d="M173.124 75.2741 L164.005 84.5523 L129.536 49.5068 L95.0668 84.5523 L85.9392 75.2741 L129.527 30.9579 L173.124 75.2741 Z" fill="#C8B079"/>
  <path d="M173.124 110.253 L164.005 119.523 L129.536 84.477 L95.0668 119.523 L85.9392 110.253 L129.536 65.9373 L173.132 110.253 Z" fill="#C8B079"/>
  <path opacity="0.6" d="M173.124 145.233 L164.005 154.511 L129.536 119.464 L95.0668 154.511 L85.9392 145.233 L129.536 100.917 L173.132 145.233 Z" fill="#C8B079"/>
<!-- <path d="M173.124 45.2741L164.005 54.5523L129.536 19.506L95.0668 54.5523L85.9392 45.2741L129.527 0.957993L173.124 45.2741Z" fill="#C8B079"/>
<path opacity="0.8" d="M173.124 80.2534L164.005 89.5233L129.536 54.477L95.0668 89.5233L85.9392 80.2534L129.536 35.9373L173.132 80.2534H173.124Z" fill="#C8B079"/>
<path opacity="0.6" d="M173.124 115.233L164.005 124.511L129.536 89.4647L95.0668 124.511L85.9392 115.233L129.536 70.9167L173.132 115.233H173.124Z" fill="#C8B079"/> -->
</g>




<path d="M270.616 154.512H269.595V157.315H270.616V154.512Z" fill="white"/>
<path d="M270.616 160.126H269.595V162.912H270.616V160.126Z" fill="white"/>
<path d="M310.666 160.126H309.628V162.912H310.666V160.126Z" fill="white"/>
<path d="M310.666 154.512H309.628V157.315H310.666V154.512Z" fill="white"/>
<path d="M330.661 146.648H329.64V149.451H330.661V146.648Z" fill="white"/>
<path d="M330.661 157.876H329.64V160.678H330.661V157.876Z" fill="white"/>
<path d="M330.661 152.262H329.64V155.065H330.661V152.262Z" fill="white"/>
<path d="M350.706 156.855H349.668V159.658H350.706V156.855Z" fill="white"/>
<path d="M390.747 154.42H389.71V157.223H390.747V154.42Z" fill="white"/>
<path d="M390.747 148.823H389.71V151.626H390.747V148.823Z" fill="white"/>
<path d="M390.747 160.034H389.71V162.837H390.747V160.034Z" fill="white"/>
<path d="M410.759 159.557H409.739V162.36H410.759V159.557Z" fill="white"/>
<path d="M410.759 131.53H409.739V134.333H410.759V131.53Z" fill="white"/>
<path d="M410.759 153.96H409.739V156.763H410.759V153.96Z" fill="white"/>
<path d="M410.759 148.355H409.739V151.158H410.759V148.355Z" fill="white"/>
<path d="M410.759 142.741H409.739V145.544H410.759V142.741Z" fill="white"/>
<path d="M410.759 137.144H409.739V139.947H410.759V137.144Z" fill="white"/>
<path d="M329.18 422.308C329.18 422.308 302.308 434.49 282.848 445.249" stroke="#D69B66" stroke-width="2.35092" stroke-linecap="round" stroke-linejoin="round"/>
<path d="M341.386 477.417C346.122 476.329 349.736 473.134 351.752 468.85C358.822 470.205 366.033 467.746 370.275 461.772C374.174 456.275 374.609 449.131 372.091 442.814C373.337 441.785 374.425 440.572 375.295 439.133C380.315 430.834 376.801 418.51 367.029 412.294C350.572 401.803 333.212 411.566 323.466 422.944C319.567 427.496 317.158 433.218 316.003 439.3C314.857 445.383 315.133 451.783 316.831 457.991C316.831 457.991 317.442 459.948 317.718 460.852C317.785 461.086 317.827 461.329 317.902 461.563C321.324 472.548 331.824 479.651 341.37 477.459L341.386 477.425V477.417Z" fill="white"/>
<path d="M342.934 409.341C358.956 403.334 375.429 414.126 377.437 428.441C379.052 437.845 372.091 442.814 372.091 442.814C372.091 442.814 378.273 453.556 369.263 463.035C360.269 472.514 351.736 468.833 351.736 468.833C351.736 468.833 348.799 475.802 341.37 477.392" stroke="#E0E0E0" stroke-width="2.35092" stroke-linecap="round" stroke-linejoin="round"/>

<mask id="mask0_74_5868" style="mask-type:luminance" maskUnits="userSpaceOnUse" x="76" y="91" width="656" height="426">
<path d="M731.175 91.0094H76.6394V420.389H212.499C220.84 434.62 231.064 447.881 243.045 459.853C279.798 496.589 328.682 516.827 380.67 516.827C432.658 516.827 481.533 496.589 518.295 459.853C530.275 447.881 540.499 434.62 548.84 420.389H731.183V91.0094H731.175Z" fill="white"/>
</mask>

<g mask="url(#mask0_74_5868)">
  <path d="M588.145 128.298H572.55V165.335H588.145V128.298Z" fill="#E8D09D"/>
  <path d="M580.356 180.093V113.565" stroke="#E8D09D" stroke-width="2.50988" stroke-miterlimit="10"/>
  <path d="M564.376 128.298H548.773V151.355H564.376V128.298Z" fill="white"/>
  <path d="M556.579 180.093V113.565" stroke="white" stroke-width="2.50988" stroke-miterlimit="10"/>
  <path d="M604.041 180.093V113.565" stroke="white" stroke-width="2.50988" stroke-miterlimit="10"/>
  <path d="M611.922 136.237H596.319V157.404H611.922V136.237Z" fill="white"/>
  <path d="M537.629 148.335H522.034V169.51H537.629V148.335Z" fill="#E8D09D"/>
  <path d="M529.832 180.093V113.565" stroke="#E8D09D" stroke-width="2.50988" stroke-miterlimit="10"/>
  <path d="M612.624 97.3008H514.572C502.666 97.3008 493.02 107.114 493.02 119.22V175.157C493.02 187.272 502.666 197.085 514.572 197.085H612.624C624.529 197.085 634.176 187.272 634.176 175.157V119.22C634.176 107.123 624.529 97.3008 612.624 97.3008Z" fill="#E8D09D"/>
  <path d="M613.779 101.074H513.426C504.616 101.074 497.479 108.344 497.479 117.305V177.073C497.479 186.034 504.616 193.304 513.426 193.304H613.779C622.58 193.304 629.725 186.034 629.725 177.073V117.305C629.725 108.344 622.589 101.074 613.779 101.074Z" fill="url(#paint2_linear_74_5868)"/>

  <g id="line">
    <path fill-rule="evenodd" clip-rule="evenodd" d="M519.625 166.072C519.625 166.072 522.829 161.445 528.041 158.174C531.472 156.024 535.78 154.451 540.633 155.246C545.636 156.066 549.643 157.898 553.358 159.094C556.286 160.04 559.03 160.592 561.908 160.056C564.778 159.521 567.798 157.906 571.236 154.426C574.575 151.054 577.068 147.908 579.711 145.658C582.23 143.516 584.89 142.203 588.638 142.37C593.407 142.587 597.682 145.917 602.133 148.026C606.919 150.284 611.888 151.255 617.744 146.369C618.062 146.101 618.104 145.633 617.845 145.307C617.586 144.98 617.117 144.938 616.799 145.198C611.528 149.59 607.061 148.686 602.76 146.653C598.126 144.462 593.658 141.082 588.705 140.856C584.522 140.672 581.56 142.111 578.758 144.495C576.08 146.771 573.562 149.941 570.191 153.355C567.028 156.551 564.284 158.073 561.64 158.567C559.005 159.061 556.487 158.517 553.801 157.655C550.028 156.442 545.954 154.585 540.867 153.748C535.621 152.895 530.961 154.56 527.255 156.877C521.767 160.316 518.403 165.193 518.403 165.193C518.169 165.536 518.244 166.005 518.587 166.247C518.922 166.49 519.382 166.406 519.625 166.063V166.072Z" fill="white"/>
    <path fill-rule="evenodd" clip-rule="evenodd" d="M581.745 126.658V156.342C581.745 156.76 582.08 157.095 582.489 157.095C582.899 157.095 583.234 156.76 583.234 156.342V126.658C583.234 126.24 582.899 125.905 582.489 125.905C582.08 125.905 581.745 126.24 581.745 126.658Z" fill="white"/>
    <path fill-rule="evenodd" clip-rule="evenodd" d="M511.042 120.383V180.93C511.042 181.365 511.393 181.725 511.82 181.725H617.67C618.105 181.725 618.448 181.365 618.448 180.93C618.448 180.495 618.096 180.135 617.67 180.135H512.606V120.383C512.606 119.948 512.255 119.589 511.828 119.589C511.401 119.589 511.05 119.948 511.05 120.383H511.042Z" fill="white"/>
    <path fill-rule="evenodd" clip-rule="evenodd" d="M511.82 121.178H514.589C515.024 121.178 515.367 120.818 515.367 120.383C515.367 119.948 515.015 119.589 514.589 119.589H511.82C511.385 119.589 511.042 119.948 511.042 120.383C511.042 120.818 511.393 121.178 511.82 121.178Z" fill="white"/>
    <path fill-rule="evenodd" clip-rule="evenodd" d="M511.82 132.23H514.589C515.024 132.23 515.367 131.87 515.367 131.435C515.367 131 515.015 130.64 514.589 130.64H511.82C511.385 130.64 511.042 131 511.042 131.435C511.042 131.87 511.393 132.23 511.82 132.23Z" fill="white"/>
    <path fill-rule="evenodd" clip-rule="evenodd" d="M511.82 143.29H514.589C515.024 143.29 515.367 142.93 515.367 142.495C515.367 142.06 515.015 141.701 514.589 141.701H511.82C511.385 141.701 511.042 142.06 511.042 142.495C511.042 142.93 511.393 143.29 511.82 143.29Z" fill="white"/>
    <path fill-rule="evenodd" clip-rule="evenodd" d="M511.82 154.342H514.589C515.024 154.342 515.367 153.982 515.367 153.547C515.367 153.112 515.015 152.753 514.589 152.753H511.82C511.385 152.753 511.042 153.112 511.042 153.547C511.042 153.982 511.393 154.342 511.82 154.342Z" fill="white"/>
    <path fill-rule="evenodd" clip-rule="evenodd" d="M511.82 165.402H514.589C515.024 165.402 515.367 165.043 515.367 164.607C515.367 164.172 515.015 163.813 514.589 163.813H511.82C511.385 163.813 511.042 164.172 511.042 164.607C511.042 165.043 511.393 165.402 511.82 165.402Z" fill="white"/>
    <path fill-rule="evenodd" clip-rule="evenodd" d="M511.82 176.454H514.589C515.024 176.454 515.367 176.094 515.367 175.659C515.367 175.224 515.015 174.865 514.589 174.865H511.82C511.385 174.865 511.042 175.224 511.042 175.659C511.042 176.094 511.393 176.454 511.82 176.454Z" fill="white"/>
    <path fill-rule="evenodd" clip-rule="evenodd" d="M575.227 124.115C575.227 124.115 575.93 123.755 576.625 123.404C576.867 123.278 577.026 123.019 577.026 122.743C577.026 122.467 576.867 122.207 576.625 122.082C575.939 121.73 575.227 121.371 575.227 121.371V119.254C575.227 118.936 575.102 118.635 574.884 118.417C574.667 118.191 574.366 118.066 574.056 118.066H561.164C560.52 118.066 559.992 118.601 559.992 119.254V126.24C559.992 126.892 560.511 127.428 561.164 127.428H574.056C574.366 127.428 574.667 127.302 574.884 127.076C575.102 126.851 575.227 126.549 575.227 126.24V124.123V124.115Z" fill="url(#paint3_linear_74_5868)"/>
    <path fill-rule="evenodd" clip-rule="evenodd" d="M575.805 124.475L576.884 123.922C577.327 123.696 577.603 123.236 577.603 122.743C577.603 122.249 577.327 121.789 576.884 121.563L575.805 121.011V119.254C575.805 118.785 575.621 118.334 575.294 118.007C574.968 117.673 574.525 117.489 574.064 117.489H561.172C560.21 117.489 559.432 118.283 559.432 119.254V126.24C559.432 127.219 560.21 128.005 561.172 128.005H574.064C574.525 128.005 574.968 127.821 575.294 127.486C575.621 127.152 575.805 126.708 575.805 126.24V124.483V124.475ZM574.976 123.596C574.784 123.696 574.658 123.897 574.658 124.115V126.231C574.658 126.39 574.592 126.549 574.483 126.658C574.374 126.775 574.215 126.834 574.064 126.834H561.172C560.846 126.834 560.578 126.566 560.578 126.231V119.246C560.578 118.911 560.846 118.635 561.172 118.635H574.064C574.223 118.635 574.374 118.702 574.483 118.811C574.592 118.928 574.658 119.078 574.658 119.237V121.354C574.658 121.571 574.784 121.772 574.976 121.873C574.976 121.873 575.679 122.232 576.374 122.584C576.424 122.609 576.457 122.667 576.457 122.726C576.457 122.785 576.424 122.843 576.374 122.868C575.688 123.22 574.976 123.579 574.976 123.579V123.596Z" fill="white"/>
    <path fill-rule="evenodd" clip-rule="evenodd" d="M563.975 123.32H570.434C570.752 123.32 571.003 123.061 571.003 122.743C571.003 122.425 570.743 122.165 570.434 122.165H563.975C563.657 122.165 563.406 122.425 563.406 122.743C563.406 123.061 563.665 123.32 563.975 123.32Z" fill="white"/>
    <path d="M582.431 128.867C583.461 128.867 584.296 128.016 584.296 126.968C584.296 125.919 583.461 125.068 582.431 125.068C581.4 125.068 580.565 125.919 580.565 126.968C580.565 128.016 581.4 128.867 582.431 128.867Z" fill="#E8D09D"/>
  </g>

  <path d="M243.262 256.109H126.921C112.799 256.109 101.354 267.755 101.354 282.112V348.481C101.354 362.855 112.799 374.5 126.921 374.5H243.262C257.385 374.5 268.83 362.855 268.83 348.481V282.112C268.83 267.755 257.385 256.109 243.262 256.109Z" fill="#E8D09D"/>
  <path d="M244.634 260.602H125.557C115.107 260.602 106.64 269.228 106.64 279.861V350.774C106.64 361.407 115.107 370.033 125.557 370.033H244.634C255.083 370.033 263.55 361.407 263.55 350.774V279.861C263.55 269.228 255.083 260.602 244.634 260.602Z" fill="url(#paint4_linear_74_5868)"/>

  <g class="k3">
    <path d="M210.65 292.436H192.153V336.384H210.65V292.436Z" fill="#E8D09D"/>
    <path d="M201.397 353.894V274.959" stroke="#E8D09D" stroke-width="2.50988" stroke-miterlimit="10"/>
  </g>
  <g class="k2">
    <path d="M182.44 292.436H163.925V319.793H182.44V292.436Z" fill="white"/>
    <path d="M173.194 353.894V274.959" stroke="white" stroke-width="2.50988" stroke-miterlimit="10"/>
  </g>

  <path d="M229.508 353.894V274.959" stroke="white" stroke-width="2.50988" stroke-miterlimit="10"/>
  <path d="M238.853 301.856H220.339V326.972H238.853V301.856Z" fill="white"/>

  <g class="k1">
    <path d="M150.706 316.213H132.208V341.345H150.706V316.213Z" fill="#E8D09D"/>
    <path d="M141.461 353.894V274.959" stroke="#E8D09D" stroke-width="2.50988" stroke-miterlimit="10"/>
  </g>

  <path d="M274.803 252.119H271.707V253.056H274.803V252.119Z" fill="white"/>
  <path d="M355.261 252.119H352.149V253.056H355.261V252.119Z" fill="white"/>
  <path d="M349.037 252.119H345.958V253.056H349.037V252.119Z" fill="white"/>
  <path d="M361.419 252.119H358.34V253.056H361.419V252.119Z" fill="white"/>
  <path d="M330.489 252.119H327.41V253.056H330.489V252.119Z" fill="white"/>
  <path d="M342.863 252.119H339.767V253.056H342.863V252.119Z" fill="white"/>
  <path d="M367.627 252.119H364.531V253.056H367.627V252.119Z" fill="white"/>
  <path d="M336.68 252.119H333.584V253.056H336.68V252.119Z" fill="white"/>
  <path d="M373.817 252.119H370.722V253.056H373.817V252.119Z" fill="white"/>
  <path d="M398.565 252.119H395.469V253.056H398.565V252.119Z" fill="white"/>
  <path d="M404.756 252.119H401.661V253.056H404.756V252.119Z" fill="white"/>
  <path d="M324.297 252.119H321.202V253.056H324.297V252.119Z" fill="white"/>
  <path d="M392.391 252.119H389.278V253.056H392.391V252.119Z" fill="white"/>
  <path d="M379.992 252.119H376.896V253.056H379.992V252.119Z" fill="white"/>
  <path d="M386.183 252.119H383.087V253.056H386.183V252.119Z" fill="white"/>
  <path d="M410.596 252.119H407.852V253.056H410.596V252.119Z" fill="white"/>
  <path d="M243.847 252.119H240.752V253.056H243.847V252.119Z" fill="white"/>
  <path d="M250.038 252.119H246.943V253.056H250.038V252.119Z" fill="white"/>
  <path d="M256.213 252.119H253.134V253.056H256.213V252.119Z" fill="white"/>
  <path d="M237.657 252.119H234.561V253.056H237.657V252.119Z" fill="white"/>
  <path d="M231.482 252.119H228.37V253.056H231.482V252.119Z" fill="white"/>
  <path d="M262.42 252.119H259.325V253.056H262.42V252.119Z" fill="white"/>
  <path d="M287.168 252.119H284.073V253.056H287.168V252.119Z" fill="white"/>
  <path d="M299.55 252.119H296.455V253.056H299.55V252.119Z" fill="white"/>
  <path d="M305.724 252.119H302.646V253.056H305.724V252.119Z" fill="white"/>
  <path d="M311.932 252.119H308.836V253.056H311.932V252.119Z" fill="white"/>
  <path d="M268.612 252.119H265.516V253.056H268.612V252.119Z" fill="white"/>
  <path d="M280.994 252.119H277.881V253.056H280.994V252.119Z" fill="white"/>
  <path d="M318.123 252.119H315.027V253.056H318.123V252.119Z" fill="white"/>
  <path d="M293.359 252.119H290.28V253.056H293.359V252.119Z" fill="white"/>
  <path d="M230.913 249.96H229.876V252.579H230.913V249.96Z" fill="white"/>
  <path d="M230.913 244.346H229.876V247.149H230.913V244.346Z" fill="white"/>
  <path d="M230.913 216.311H229.876V219.114H230.913V216.311Z" fill="white"/>
  <path d="M230.913 238.749H229.876V241.552H230.913V238.749Z" fill="white"/>
  <path d="M250.926 229.137H249.905V231.939H250.926V229.137Z" fill="white"/>
  <path d="M250.926 223.523H249.905V226.325H250.926V223.523Z" fill="white"/>
  <path d="M250.926 234.75H249.905V237.553H250.926V234.75Z" fill="white"/>
  <path d="M250.926 251.575H249.905V252.579H250.926V251.575Z" fill="white"/>
  <path d="M250.926 240.364H249.905V243.167H250.926V240.364Z" fill="white"/>
  <path d="M250.926 217.934H249.905V220.737H250.926V217.934Z" fill="white"/>
  <path d="M250.926 245.961H249.905V248.764H250.926V245.961Z" fill="white"/>
  <path d="M250.926 184.285H249.905V187.088H250.926V184.285Z" fill="white"/>
  <path d="M250.926 189.899H249.905V192.685H250.926V189.899Z" fill="white"/>
  <path d="M250.926 178.671H249.905V181.474H250.926V178.671Z" fill="white"/>
  <path d="M250.926 195.496H249.905V198.298H250.926V195.496Z" fill="white"/>
  <path d="M250.926 212.32H249.905V215.123H250.926V212.32Z" fill="white"/>
  <path d="M250.926 201.11H249.905V203.912H250.926V201.11Z" fill="white"/>
  <path d="M250.926 206.723H249.905V209.526H250.926V206.723Z" fill="white"/>
  <path d="M270.955 205.569H269.934V208.371H270.955V205.569Z" fill="white"/>
  <path d="M270.955 216.788H269.934V219.574H270.955V216.788Z" fill="white"/>
  <path d="M270.955 227.999H269.934V230.801H270.955V227.999Z" fill="white"/>
  <path d="M270.955 211.174H269.934V213.977H270.955V211.174Z" fill="white"/>
  <path d="M270.955 222.385H269.934V225.188H270.955V222.385Z" fill="white"/>
  <path d="M270.955 244.823H269.934V247.626H270.955V244.823Z" fill="white"/>
  <path d="M270.955 250.42H269.934V252.579H270.955V250.42Z" fill="white"/>
  <path d="M270.955 239.209H269.934V242.012H270.955V239.209Z" fill="white"/>
  <path d="M270.955 233.596H269.934V236.398H270.955V233.596Z" fill="white"/>
  <path d="M270.955 171.92H269.934V174.722H270.955V171.92Z" fill="white"/>
  <path d="M270.955 166.323H269.934V169.125H270.955V166.323Z" fill="white"/>
  <path d="M270.955 177.533H269.934V180.319H270.955V177.533Z" fill="white"/>
  <path d="M270.955 199.972H269.934V202.774H270.955V199.972Z" fill="white"/>
  <path d="M270.955 194.358H269.934V197.161H270.955V194.358Z" fill="white"/>
  <path d="M270.955 183.147H269.934V185.95H270.955V183.147Z" fill="white"/>
  <path d="M270.955 188.744H269.934V191.547H270.955V188.744Z" fill="white"/>
  <path d="M290.966 233.73H289.946V236.532H290.966V233.73Z" fill="white"/>
  <path d="M290.966 228.133H289.946V230.935H290.966V228.133Z" fill="white"/>
  <path d="M290.966 222.519H289.946V225.322H290.966V222.519Z" fill="white"/>
  <path d="M290.966 250.571H289.946V252.596H290.966V250.571Z" fill="white"/>
  <path d="M290.966 239.343H289.946V242.146H290.966V239.343Z" fill="white"/>
  <path d="M290.966 244.957H289.946V247.76H290.966V244.957Z" fill="white"/>
  <path d="M290.966 200.089H289.946V202.892H290.966V200.089Z" fill="white"/>
  <path d="M290.966 188.878H289.946V191.681H290.966V188.878Z" fill="white"/>
  <path d="M290.966 216.922H289.946V219.725H290.966V216.922Z" fill="white"/>
  <path d="M290.966 194.492H289.946V197.295H290.966V194.492Z" fill="white"/>
  <path d="M290.966 183.281H289.946V186.067H290.966V183.281Z" fill="white"/>
  <path d="M290.966 211.316H289.946V214.102H290.966V211.316Z" fill="white"/>
  <path d="M290.966 205.703H289.946V208.505H290.966V205.703Z" fill="white"/>
  <path d="M311.012 227.999H309.975V230.801H311.012V227.999Z" fill="white"/>
  <path d="M311.012 205.569H309.975V208.371H311.012V205.569Z" fill="white"/>
  <path d="M311.012 222.385H309.975V225.188H311.012V222.385Z" fill="white"/>
  <path d="M311.012 216.788H309.975V219.574H311.012V216.788Z" fill="white"/>
  <path d="M311.012 211.174H309.975V213.977H311.012V211.174Z" fill="white"/>
  <path d="M311.012 244.823H309.975V247.626H311.012V244.823Z" fill="white"/>
  <path d="M311.012 233.596H309.975V236.398H311.012V233.596Z" fill="white"/>
  <path d="M311.012 250.42H309.975V252.579H311.012V250.42Z" fill="white"/>
  <path d="M311.012 239.209H309.975V242.012H311.012V239.209Z" fill="white"/>
  <path d="M311.012 171.92H309.975V174.722H311.012V171.92Z" fill="white"/>
  <path d="M311.012 166.323H309.975V169.125H311.012V166.323Z" fill="white"/>
  <path d="M311.012 177.533H309.975V180.319H311.012V177.533Z" fill="white"/>
  <path d="M311.012 199.972H309.975V202.774H311.012V199.972Z" fill="white"/>
  <path d="M311.012 194.358H309.975V197.161H311.012V194.358Z" fill="white"/>
  <path d="M311.012 183.147H309.975V185.95H311.012V183.147Z" fill="white"/>
  <path d="M311.012 188.744H309.975V191.547H311.012V188.744Z" fill="white"/>
  <path d="M331.008 208.915H329.987V211.718H331.008V208.915Z" fill="white"/>
  <path d="M331.008 186.494H329.987V189.296H331.008V186.494Z" fill="white"/>
  <path d="M331.008 220.143H329.987V222.929H331.008V220.143Z" fill="white"/>
  <path d="M331.008 203.318H329.987V206.121H331.008V203.318Z" fill="white"/>
  <path d="M331.008 192.107H329.987V194.893H331.008V192.107Z" fill="white"/>
  <path d="M331.008 197.704H329.987V200.507H331.008V197.704Z" fill="white"/>
  <path d="M331.008 214.529H329.987V217.332H331.008V214.529Z" fill="white"/>
  <path d="M331.008 248.17H329.987V250.973H331.008V248.17Z" fill="white"/>
  <path d="M331.008 242.556H329.987V245.359H331.008V242.556Z" fill="white"/>
  <path d="M331.008 236.942H329.987V239.745H331.008V236.942Z" fill="white"/>
  <path d="M331.008 225.74H329.987V228.543H331.008V225.74Z" fill="white"/>
  <path d="M331.008 231.354H329.987V234.14H331.008V231.354Z" fill="white"/>
  <path d="M331.008 180.88H329.987V183.683H331.008V180.88Z" fill="white"/>
  <path d="M331.008 169.677H329.987V172.48H331.008V169.677Z" fill="white"/>
  <path d="M331.008 175.275H329.987V178.077H331.008V175.275Z" fill="white"/>
  <path d="M331.008 164.064H329.987V166.866H331.008V164.064Z" fill="white"/>
  <path d="M351.028 179.859H350.007V182.662H351.028V179.859Z" fill="white"/>
  <path d="M351.028 185.473H350.007V188.259H351.028V185.473Z" fill="white"/>
  <path d="M351.028 191.07H350.007V193.873H351.028V191.07Z" fill="white"/>
  <path d="M351.028 207.911H350.007V210.714H351.028V207.911Z" fill="white"/>
  <path d="M351.028 168.657H350.007V171.459H351.028V168.657Z" fill="white"/>
  <path d="M351.045 174.245H350.007V177.048H351.045V174.245Z" fill="white"/>
  <path d="M351.028 163.043H350.007V165.846H351.028V163.043Z" fill="white"/>
  <path d="M351.028 247.149H350.007V249.952H351.028V247.149Z" fill="white"/>
  <path d="M351.028 202.298H350.007V205.1H351.028V202.298Z" fill="white"/>
  <path d="M351.028 213.508H350.007V216.311H351.028V213.508Z" fill="white"/>
  <path d="M351.028 219.122H350.007V221.925H351.028V219.122Z" fill="white"/>
  <path d="M351.028 196.684H350.007V199.486H351.028V196.684Z" fill="white"/>
  <path d="M351.028 235.947H350.007V238.749H351.028V235.947Z" fill="white"/>
  <path d="M351.028 241.552H350.007V244.355H351.028V241.552Z" fill="white"/>
  <path d="M351.028 230.333H350.007V233.136H351.028V230.333Z" fill="white"/>
  <path d="M351.028 224.736H350.007V227.522H351.028V224.736Z" fill="white"/>
  <path d="M371.056 228.701H370.019V231.504H371.056V228.701Z" fill="white"/>
  <path d="M371.056 223.088H370.019V225.89H371.056V223.088Z" fill="white"/>
  <path d="M371.056 211.877H370.019V214.68H371.056V211.877Z" fill="white"/>
  <path d="M371.056 217.491H370.019V220.293H371.056V217.491Z" fill="white"/>
  <path d="M371.056 234.307H370.019V237.11H371.056V234.307Z" fill="white"/>
  <path d="M371.056 245.518H370.019V248.32H371.056V245.518Z" fill="white"/>
  <path d="M371.056 239.904H370.019V242.707H371.056V239.904Z" fill="white"/>
  <path d="M371.056 251.115H370.019V252.579H371.056V251.115Z" fill="white"/>
  <path d="M371.056 178.228H370.019V181.031H371.056V178.228Z" fill="white"/>
  <path d="M371.056 183.842H370.019V186.644H371.056V183.842Z" fill="white"/>
  <path d="M371.056 172.614H370.019V175.417H371.056V172.614Z" fill="white"/>
  <path d="M371.056 189.455H370.019V192.241H371.056V189.455Z" fill="white"/>
  <path d="M371.056 200.666H370.019V203.469H371.056V200.666Z" fill="white"/>
  <path d="M371.056 206.263H370.019V209.066H371.056V206.263Z" fill="white"/>
  <path d="M371.056 195.052H370.019V197.855H371.056V195.052Z" fill="white"/>
  <path d="M391.085 250.353H390.048V252.596H391.085V250.353Z" fill="white"/>
  <path d="M391.085 194.274H390.048V197.077H391.085V194.274Z" fill="white"/>
  <path d="M391.085 166.222H390.048V169.025H391.085V166.222Z" fill="white"/>
  <path d="M391.085 183.047H390.048V185.849H391.085V183.047Z" fill="white"/>
  <path d="M391.085 177.45H390.048V180.252H391.085V177.45Z" fill="white"/>
  <path d="M391.085 171.853H390.048V174.639H391.085V171.853Z" fill="white"/>
  <path d="M391.085 233.529H390.048V236.332H391.085V233.529Z" fill="white"/>
  <path d="M391.085 199.863H390.048V202.666H391.085V199.863Z" fill="white"/>
  <path d="M391.085 244.74H390.048V247.542H391.085V244.74Z" fill="white"/>
  <path d="M391.085 205.477H390.048V208.279H391.085V205.477Z" fill="white"/>
  <path d="M391.085 188.661H390.048V191.463H391.085V188.661Z" fill="white"/>
  <path d="M391.085 211.091H390.048V213.893H391.085V211.091Z" fill="white"/>
  <path d="M391.085 216.688H390.048V219.49H391.085V216.688Z" fill="white"/>
  <path d="M391.085 227.915H390.048V230.718H391.085V227.915Z" fill="white"/>
  <path d="M391.085 239.126H390.048V241.929H391.085V239.126Z" fill="white"/>
  <path d="M391.085 222.301H390.048V225.104H391.085V222.301Z" fill="white"/>
  <path d="M411.097 165.762H410.077V168.565H411.097V165.762Z" fill="white"/>
  <path d="M411.097 171.376H410.077V174.178H411.097V171.376Z" fill="white"/>
  <path d="M411.097 188.2H410.077V191.003H411.097V188.2Z" fill="white"/>
  <path d="M411.097 182.587H410.077V185.389H411.097V182.587Z" fill="white"/>
  <path d="M411.097 176.973H410.077V179.776H411.097V176.973Z" fill="white"/>
  <path d="M411.114 249.877H410.077V252.579H411.114V249.877Z" fill="white"/>
  <path d="M411.114 244.263H410.077V247.065H411.114V244.263Z" fill="white"/>
  <path d="M411.114 238.649H410.077V241.452H411.114V238.649Z" fill="white"/>
  <path d="M411.097 199.403H410.077V202.206H411.097V199.403Z" fill="white"/>
  <path d="M411.114 233.052H410.077V235.855H411.114V233.052Z" fill="white"/>
  <path d="M411.097 221.824H410.077V224.627H411.097V221.824Z" fill="white"/>
  <path d="M411.097 227.438H410.077V230.241H411.097V227.438Z" fill="white"/>
  <path d="M411.097 193.789H410.077V196.575H411.097V193.789Z" fill="white"/>
  <path d="M411.097 210.614H410.077V213.416H411.097V210.614Z" fill="white"/>
  <path d="M411.097 216.227H410.077V219.03H411.097V216.227Z" fill="white"/>
  <path d="M411.097 205.017H410.077V207.819H411.097V205.017Z" fill="white"/>
  <path d="M348.794 636.85C336.797 636.85 315.798 635.018 309.991 622.77C307.331 617.172 305.206 607.259 307.222 596.198C307.473 594.868 307.749 593.73 308.092 592.71C308.293 590.718 308.578 587.924 308.904 584.703C308.87 584.419 308.87 584.134 308.904 583.85L309.121 581.432C309.431 578.052 309.757 574.354 310.083 570.639C310.117 570.213 310.209 569.803 310.351 569.426C310.493 567.862 310.627 566.314 310.753 564.808C310.661 564.365 310.644 563.921 310.677 563.469C311.004 559.554 311.297 555.588 311.514 552.284C311.531 551.999 311.581 551.732 311.64 551.464V550.577C311.497 546.218 311.698 540.939 312.075 531.351C312.234 527.511 312.401 522.977 312.585 517.497C308.377 512.628 305.08 507.148 302.729 501.132C299.232 501.751 295.769 502.061 292.38 502.061C291.745 502.061 291.109 502.061 290.465 502.028C278.501 501.618 269.423 495.309 264.914 484.283C256.021 462.572 265.751 426.296 286.608 403.439C287.369 402.603 288.147 401.766 288.967 400.896C282.717 398.353 276.794 395.416 271.314 392.145C266.42 389.208 261.785 385.954 257.543 382.457C255.41 380.7 253.36 378.868 251.419 376.994C249.478 375.111 247.579 373.137 245.805 371.121C243.145 368.084 240.643 364.879 238.41 361.575C235.398 357.149 232.737 352.43 230.495 347.544C227.684 341.412 225.442 334.878 223.877 328.11C223.242 325.407 222.714 322.613 222.279 319.802C219.435 301.237 221.033 280.924 227.048 259.414L227.952 256.193L228.889 253.022C229.215 251.918 229.575 250.747 229.943 249.55L230.612 247.45L231.248 245.534C231.449 244.915 231.917 243.577 231.934 243.527C232.695 241.36 233.457 239.31 234.235 237.319C234.544 236.524 234.829 235.83 235.105 235.135C236.502 231.705 237.983 228.4 239.522 225.196C228.596 217.867 221.744 205.652 221.326 192.283C220.606 169.519 238.527 150.318 261.25 149.481C261.76 149.465 262.279 149.448 262.772 149.448C275.154 149.448 286.691 154.961 294.447 164.415C308.042 156.024 323.536 149.314 340.587 144.445C352.894 140.939 364.874 138.396 376.21 136.907C377.7 136.714 379.197 136.53 380.653 136.371L380.962 136.338C382.36 136.179 383.807 136.037 385.254 135.911H385.313C390.441 135.468 395.528 135.25 400.422 135.25C405.827 135.25 411.165 135.518 416.335 136.053C422.727 123.73 435.485 115.59 449.767 115.021C450.31 115.004 450.871 114.987 451.415 114.987C472.255 114.987 489.013 130.883 489.557 151.18C489.699 156.107 488.829 161.052 487.022 165.67C491.33 169.192 495.572 173.049 499.872 177.349L500.056 177.542C501.437 178.931 502.792 180.319 504.114 181.717L504.365 181.984C505.67 183.373 506.958 184.745 508.205 186.126L508.347 186.285C509.652 187.74 510.882 189.112 512.079 190.468C512.095 190.484 512.112 190.501 512.129 190.535C514.505 193.254 516.881 196.173 519.198 199.236C520.646 201.151 521.809 202.741 522.863 204.264C524.929 207.25 526.971 210.438 528.92 213.759C529.447 214.663 529.974 215.575 530.493 216.495C534.207 223.113 537.395 229.99 539.972 236.942C540.265 237.762 540.566 238.565 540.859 239.394C541.946 242.489 542.908 245.635 543.745 248.747C544.941 253.173 545.887 257.582 546.59 261.891C546.807 263.237 546.991 264.576 547.167 265.923C547.677 269.964 548.003 274.047 548.112 278.054C548.146 279.393 548.162 280.756 548.162 282.095C548.112 288.888 547.46 295.648 546.247 302.174C545.996 303.504 545.736 304.826 545.435 306.14C544.983 308.114 544.49 310.089 543.946 312.03C546.247 309.001 548.238 306.039 549.903 303.195C548.505 295.924 549.576 289.892 549.995 287.508C550.045 287.274 550.07 287.098 550.087 286.956C551.986 270.734 562.519 263.463 572.14 263.463C575.62 263.463 578.917 264.392 581.619 266.099C584.915 263.028 588.973 261.455 593.541 261.455C595.766 261.455 598.142 261.832 600.594 262.577C606.668 264.409 612.231 269.428 614.8 275.343C616.214 278.598 616.665 282.011 616.155 285.283C620.865 288.077 624.312 293.072 625.559 299.171C627.516 308.7 623.894 318.463 616.113 324.654C610.148 329.406 602.05 332.803 594.093 333.941C591.918 337.162 589.676 340.374 587.425 343.529C587.316 343.746 587.208 343.955 587.066 344.164C585.2 346.959 582.933 350.121 579.251 355.099C578.892 355.576 578.457 355.969 577.98 356.287C551.902 390.145 523.181 417.244 500.926 428.898C497.044 430.939 492.937 432.897 488.712 434.763C488.77 443.246 488.494 452.491 487.842 462.899C486.486 484.258 481.517 502.203 473.05 516.25C473.611 519.312 474.154 522.542 474.665 525.838C478.304 549.565 479.626 575.241 480.044 586.569C481.098 588.133 481.801 589.614 482.27 590.836C485.708 592.224 491.406 595.403 493.664 601.804C496.568 610.07 493.497 616.118 492.468 618.11L492.343 618.344C488.16 627.17 460.844 633.562 444.446 633.562C432.198 633.562 423.932 630.592 419.857 624.727C416.327 619.657 412.629 610.22 412.83 598.993C412.863 597.637 412.955 596.483 413.122 595.403C412.997 593.396 412.83 590.585 412.612 587.364C412.537 587.096 412.487 586.811 412.47 586.527L412.252 583.523C412.018 580.302 411.767 576.788 411.491 573.3C411.458 572.873 411.491 572.446 411.558 572.053C411.449 570.489 411.324 568.941 411.215 567.435C411.056 567.025 410.964 566.582 410.922 566.122C410.596 562.064 410.27 558.207 409.943 554.953C409.91 554.668 409.91 554.384 409.943 554.116C409.893 553.765 409.851 553.488 409.801 553.229C409.709 552.752 409.617 552.25 409.525 551.74C408.078 551.799 406.639 551.815 405.174 551.815C397.034 551.815 388.434 550.912 379.574 549.146C378.662 568.339 376.587 586.56 375.516 595.119C376.344 596.876 376.788 598.457 377.039 599.746C380.21 601.687 385.288 605.778 386.484 612.446C388.024 621.071 383.999 626.543 382.678 628.341L382.519 628.567C376.955 636.591 351.655 636.833 348.794 636.833L348.811 636.85H348.794Z" fill="#111111"/>
  <path d="M451.398 119.723C469.553 119.723 484.395 133.594 484.872 151.322C485.031 156.978 483.692 162.349 481.232 167.101C486.812 171.443 491.891 176.061 496.584 180.738C496.643 180.805 496.71 180.863 496.768 180.913C498.124 182.269 499.454 183.632 500.751 185.005C500.826 185.097 500.918 185.18 501.002 185.272C502.29 186.628 503.553 187.991 504.783 189.347C504.842 189.422 504.926 189.489 504.984 189.564C506.231 190.936 507.46 192.317 508.64 193.672C511.05 196.424 513.317 199.252 515.492 202.122C516.705 203.737 517.902 205.36 519.048 207.008C521.131 210.011 523.089 213.09 524.921 216.202C525.431 217.072 525.95 217.959 526.444 218.838C530.049 225.255 533.111 231.872 535.613 238.607C535.906 239.394 536.19 240.188 536.466 240.975C537.504 243.962 538.441 246.982 539.261 249.994C540.398 254.185 541.31 258.41 541.996 262.652C542.197 263.949 542.39 265.245 542.557 266.525C543.051 270.416 543.352 274.298 543.461 278.171C543.494 279.468 543.511 280.765 543.494 282.062C543.444 288.52 542.841 294.954 541.662 301.304C541.428 302.567 541.168 303.831 540.884 305.094C540.323 307.621 539.654 310.114 538.893 312.615C538.131 315.092 537.295 317.576 536.332 320.028C534.308 325.24 531.823 330.343 528.903 335.321C540.189 324.797 549.384 313.862 554.839 303.99C552.789 295.774 554.563 288.889 554.713 287.575C556.311 273.796 564.753 268.241 572.148 268.241C576.223 268.241 579.963 269.914 582.113 272.834C584.999 268.391 588.839 266.216 593.566 266.216C595.348 266.216 597.247 266.534 599.289 267.145C606.969 269.462 614.816 278.974 610.508 288.002C622.672 291.198 626.186 310.658 613.26 320.956C608.19 324.989 600.175 328.729 591.458 329.523C588.689 333.648 585.894 337.689 583.066 341.638C583.133 341.604 583.192 341.579 583.234 341.529C581.217 344.533 578.758 347.946 575.545 352.271C575.436 352.255 575.328 352.221 575.219 352.204C548.196 387.544 519.408 413.881 498.801 424.69C493.874 427.267 488.929 429.576 484.027 431.642C484.194 440.887 483.918 451.152 483.198 462.597C481.784 485.036 476.388 502.337 468.139 515.305C468.808 518.844 469.461 522.584 470.063 526.566C473.811 551.02 475.066 577.55 475.46 588.234C478.12 591.563 478.488 594.55 478.488 594.55C478.488 594.55 486.846 596.491 489.289 603.393C491.732 610.295 488.712 615.098 488.151 616.319C485.633 621.649 462.667 628.835 444.462 628.835C435.168 628.835 427.119 626.953 423.681 622.008C420.259 617.097 417.339 608.405 417.506 599.085C417.523 597.855 417.615 596.751 417.833 595.705C417.69 593.504 417.49 590.099 417.222 586.125L417.147 586.176C416.854 582.176 416.527 577.55 416.168 572.94L416.327 572.907C416.143 570.43 415.967 567.996 415.783 565.687L415.599 565.753C415.273 561.562 414.913 557.647 414.603 554.476H414.712C414.603 553.572 414.494 552.836 414.386 552.309C414.059 550.686 413.767 548.895 413.457 546.762C410.738 546.988 407.969 547.097 405.174 547.097C395.478 547.097 385.372 545.783 375.148 543.349C374.387 565.201 371.902 586.669 370.705 596.006C372.822 599.754 372.663 602.783 372.663 602.783C372.663 602.783 380.603 606.104 381.891 613.324C383.18 620.544 379.431 624.778 378.687 625.882C376.244 629.421 362.833 632.106 348.786 632.106C333.835 632.106 318.14 629.053 314.175 620.712C311.614 615.29 310.117 606.221 311.799 597.06C312.016 595.847 312.284 594.768 312.669 593.772C312.886 591.58 313.229 588.183 313.614 584.235L313.522 584.268C313.882 580.286 314.3 575.659 314.702 571.041H314.852C315.07 568.573 315.287 566.13 315.471 563.821L315.287 563.854C315.647 559.663 315.923 555.731 316.124 552.577L316.233 552.61C316.266 551.698 316.283 550.937 316.266 550.41C316.065 544.344 316.576 536.221 317.278 515.715C312.058 510.093 308.159 503.483 305.733 495.636C301.416 496.698 296.932 497.309 292.355 497.309C291.778 497.309 291.192 497.309 290.598 497.276C255.058 496.037 261.659 437.724 290.004 406.652C291.837 404.644 294.439 401.833 297.509 399.039C295.936 398.487 294.372 397.934 292.849 397.332C285.963 394.68 279.563 391.568 273.657 388.029C268.93 385.201 264.537 382.105 260.463 378.742C258.43 377.069 256.472 375.312 254.607 373.513C252.741 371.715 250.959 369.832 249.261 367.9C246.709 365.005 244.366 361.976 242.225 358.814C239.347 354.597 236.845 350.138 234.703 345.478C232.018 339.647 229.918 333.456 228.395 326.963C227.784 324.353 227.274 321.718 226.873 319.015C224.187 301.48 225.601 281.852 231.516 260.652C231.641 260.226 231.767 259.782 231.892 259.322C231.926 259.197 231.968 259.071 232.001 258.946C232.093 258.594 232.202 258.251 232.294 257.891C232.344 257.749 232.369 257.607 232.419 257.465C232.528 257.113 232.62 256.754 232.729 256.394C232.779 256.235 232.821 256.093 232.871 255.934C232.997 255.524 233.122 255.097 233.248 254.67C233.281 254.578 233.306 254.478 233.34 254.369C233.666 253.265 234.026 252.127 234.377 250.939C234.377 250.889 234.411 250.847 234.427 250.797C234.595 250.261 234.77 249.709 234.954 249.165C234.988 249.073 235.013 248.973 235.046 248.881C235.214 248.362 235.389 247.818 235.573 247.283C235.607 247.191 235.632 247.107 235.665 247.015C235.866 246.413 236.084 245.802 236.285 245.183V245.15C236.971 243.175 237.732 241.117 238.552 239C238.552 238.967 238.585 238.942 238.602 238.892C238.87 238.231 239.129 237.553 239.414 236.867C239.43 236.817 239.447 236.792 239.464 236.742C240.919 233.136 242.618 229.362 244.559 225.489C244.927 224.744 245.303 224.016 245.697 223.28C234.335 217.432 226.421 205.761 225.986 192.057C225.35 171.869 241.221 154.894 261.417 154.158C261.869 154.141 262.337 154.125 262.789 154.125C275.514 154.125 286.8 160.684 293.292 170.681C306.427 162.039 322.382 154.484 341.859 148.938C354.383 145.365 365.995 142.964 376.83 141.542C378.294 141.349 379.733 141.174 381.163 141.023C381.239 141.023 381.331 141.006 381.414 140.99C382.862 140.831 384.292 140.688 385.723 140.563C390.818 140.119 395.712 139.91 400.439 139.91C407.015 139.91 413.248 140.304 419.154 141.065C424.007 129.043 435.879 120.258 449.976 119.672C450.453 119.656 450.955 119.639 451.44 119.639M451.398 110.244C450.787 110.244 450.185 110.244 449.583 110.277C434.724 110.879 421.346 118.827 413.792 131.05C409.425 130.691 404.949 130.515 400.422 130.515C395.386 130.515 390.165 130.733 384.911 131.193H384.861C383.38 131.318 381.891 131.46 380.385 131.636H380.201L380.126 131.67C378.637 131.829 377.122 132.021 375.6 132.222H375.583C364.038 133.736 351.823 136.33 339.307 139.902C323.21 144.495 308.444 150.711 295.309 158.4C286.808 149.724 275.171 144.738 262.747 144.738C262.187 144.738 261.609 144.738 261.057 144.771C235.766 145.7 215.846 167.084 216.641 192.451C217.059 205.962 223.384 218.428 233.624 226.719C232.662 228.835 231.708 231.019 230.83 233.194L230.771 233.353C230.495 234.048 230.211 234.759 229.935 235.47L229.901 235.545C229.064 237.695 228.253 239.871 227.492 242.054V242.088C227.257 242.732 227.04 243.384 226.822 244.012L226.772 244.137L226.722 244.28C226.538 244.848 226.345 245.401 226.161 245.953L226.069 246.254C225.885 246.823 225.693 247.409 225.526 247.961L225.492 248.069C225.107 249.333 224.731 250.521 224.388 251.659L224.329 251.876L224.296 251.951L223.911 253.248L223.769 253.725L223.442 254.829L223.317 255.29L223.007 256.36L222.957 256.503L222.882 256.754L222.505 258.084C216.323 280.255 214.674 301.245 217.611 320.496C218.063 323.416 218.623 326.344 219.276 329.172C220.924 336.25 223.258 343.094 226.212 349.519C228.571 354.639 231.357 359.6 234.511 364.227C236.87 367.699 239.48 371.07 242.266 374.241C244.132 376.358 246.107 378.433 248.14 380.399C250.173 382.373 252.339 384.289 254.54 386.121C258.949 389.769 263.784 393.166 268.888 396.219C272.745 398.528 276.794 400.662 281.027 402.62C260.513 426.806 251.344 463.601 260.563 486.107C265.818 498.949 276.367 506.286 290.264 506.755C290.95 506.788 291.653 506.788 292.33 506.788C294.79 506.788 297.291 506.629 299.818 506.328C301.951 510.921 304.62 515.221 307.808 519.153C307.64 523.813 307.482 527.762 307.356 531.142C306.98 540.839 306.779 546.185 306.921 550.736V550.954C306.862 551.288 306.829 551.631 306.795 551.983C306.595 555.22 306.302 559.169 305.976 563.076C305.925 563.712 305.925 564.356 306.009 564.967C305.917 566.122 305.808 567.293 305.7 568.472C305.541 569.041 305.432 569.627 305.39 570.229C305.08 573.844 304.754 577.483 304.461 580.796L304.227 583.423C304.194 583.833 304.177 584.226 304.194 584.636C303.917 587.414 303.667 589.882 303.482 591.731C303.139 592.835 302.863 594.006 302.612 595.362C300.763 605.552 301.977 616.846 305.766 624.844C312.685 639.41 335.684 641.594 348.769 641.594C357.905 641.594 379.866 640.598 386.283 631.353L386.375 631.211C390.726 625.305 392.299 618.712 391.035 611.634C389.73 604.272 384.895 599.52 381.088 596.817C380.87 596.056 380.611 595.27 380.276 594.45C381.414 585.272 382.995 570.69 383.916 554.794C391.22 555.99 398.322 556.592 405.141 556.592H405.409C405.702 559.596 406.003 563.068 406.262 566.532C406.312 567.167 406.413 567.795 406.588 568.397C406.68 569.552 406.756 570.723 406.856 571.919C406.789 572.505 406.781 573.107 406.823 573.701C407.099 577.316 407.366 580.921 407.601 584.243L407.785 586.895C407.818 587.305 407.86 587.698 407.952 588.091C408.136 590.886 408.278 593.337 408.404 595.219C408.245 596.357 408.153 597.57 408.136 598.951C407.952 609.317 410.981 620.251 416.017 627.513C421.02 634.7 430.566 638.348 444.412 638.348C453.707 638.348 464.767 636.658 474.732 633.704C492.711 628.392 495.463 622.644 496.492 620.461L496.568 620.302C499.906 613.742 500.391 606.982 498.015 600.206C495.53 593.161 489.992 589.254 485.783 587.238C485.457 586.544 485.072 585.816 484.621 585.071C484.144 573.049 482.772 548.168 479.241 525.093C478.823 522.374 478.388 519.706 477.919 517.129C486.219 502.672 491.113 484.534 492.451 463.191C493.045 453.93 493.338 445.572 493.338 437.833C496.676 436.319 499.914 434.721 503.018 433.09C525.707 421.193 554.814 393.86 581.176 359.751C581.828 359.249 582.422 358.63 582.933 357.952C586.647 352.932 588.948 349.703 590.872 346.842C591.056 346.574 591.215 346.306 591.366 346.022C593.165 343.478 594.972 340.902 596.762 338.3C604.827 336.785 612.875 333.23 618.958 328.394C628.161 321.082 632.419 309.495 630.102 298.2C628.796 291.884 625.534 286.521 620.991 282.923C621.041 279.753 620.388 276.523 619.033 273.428C615.896 266.174 609.32 260.284 601.891 258.025C599.004 257.155 596.168 256.695 593.516 256.695C588.856 256.695 584.639 257.992 581.017 260.485C578.281 259.33 575.252 258.72 572.115 258.72C564.995 258.72 557.457 261.907 552.161 268.717C552.053 267.563 551.91 266.408 551.768 265.271C551.601 263.882 551.4 262.476 551.166 261.079C550.455 256.628 549.459 252.043 548.229 247.442C547.359 244.221 546.347 240.967 545.226 237.754C544.933 236.9 544.615 236.064 544.306 235.211C541.645 228.041 538.349 220.929 534.517 214.086C533.99 213.14 533.446 212.203 532.902 211.275C530.886 207.861 528.786 204.573 526.636 201.494C525.532 199.896 524.335 198.257 522.863 196.316C520.487 193.153 518.027 190.141 515.592 187.339C515.592 187.339 515.576 187.305 515.559 187.305C514.346 185.916 513.091 184.511 511.811 183.105L511.736 183.03L511.593 182.888C510.305 181.466 508.983 180.043 507.695 178.671L507.536 178.496L507.444 178.404C506.03 176.914 504.649 175.484 503.294 174.137L503.152 173.995L503.085 173.936C499.513 170.364 495.982 167.109 492.443 164.08C493.698 159.847 494.292 155.438 494.166 151.029C493.547 128.156 474.757 110.218 451.365 110.218H451.381L451.398 110.244Z" fill="#000111"/>
  <path d="M475.602 593.119C475.602 593.119 474.899 558.14 470.072 526.591C460.451 463.71 442.965 459.083 424.191 463.3C408.17 466.898 405.978 488.734 408.99 511.975C412.236 536.781 413.081 545.817 414.369 552.326C415.658 558.835 417.975 598.382 417.975 598.382C417.975 598.382 440.848 623.548 475.568 593.119H475.602Z" fill="url(#paint5_linear_74_5868)"/>
  <path d="M370.069 600.892C370.069 600.892 375.03 566.264 375.365 534.33C376.034 470.688 359.544 463.216 340.352 464.245C323.954 465.116 318.265 486.282 317.487 509.716C316.676 534.723 316.057 543.8 316.274 550.435C316.492 557.069 312.392 596.458 312.392 596.458C312.392 596.458 330.882 625.104 370.052 600.9H370.069V600.892Z" fill="url(#paint6_linear_74_5868)"/>
  <path d="M613.922 314.414C616.549 307.83 614.306 299.53 608.216 295.791C610.843 290.043 609.446 282.773 604.844 278.489C604.844 278.506 604.878 278.523 604.878 278.539C599.607 273.21 590.546 273.135 585.175 277.895C577.202 268.182 561.005 274.975 560.277 287.391C559.624 312.004 514.087 354.681 472.247 374.032C455.213 381.311 421.012 378.625 419.263 393.735C420.493 416.909 403.334 441.698 422.367 444.217C438.874 446.4 469.361 440.142 498.818 424.706C524.043 411.479 561.515 374.986 593.014 327.189C600.586 323.951 611.043 324.002 613.93 314.422H613.913L613.922 314.414Z" fill="url(#paint7_linear_74_5868)"/>
  <path d="M577.118 343.855C576.699 344.491 576.248 345.168 575.779 345.863C576.248 345.152 576.699 344.491 577.118 343.855Z" fill="url(#paint8_linear_74_5868)"/>
  <path d="M556.428 339.923C560.126 344.917 566.451 350.824 575.545 352.296C578.75 347.971 581.218 344.558 583.234 341.554C577.068 345.771 567.865 342.801 557.608 338.425C556.688 338.032 555.818 339.12 556.428 339.923Z" fill="black"/>
  <path d="M582.104 272.834C586.086 266.718 591.868 264.902 599.28 267.144C606.693 269.387 614.808 278.974 610.499 288.002C622.664 291.189 626.178 310.657 613.252 320.956C604.609 327.85 587.358 333.941 572.734 325.759C548.43 312.138 554.429 290.051 554.721 287.567C557.206 266.224 576.089 264.61 582.104 272.825V272.834Z" fill="white"/>
  <path d="M562.042 297.891C560.302 299.882 558.47 305.604 570.509 312.883C582.556 320.17 589.266 320.203 591.6 316.405C593.574 313.201 591.023 309.126 589.207 305.203C587.107 300.685 591.341 295.565 586.672 292.929C581.778 290.16 576.666 295.807 573.228 295.648C567.179 295.381 563.782 295.899 562.034 297.891H562.042Z" fill="#D79D91"/>
  <path d="M589.5 288.905C592.947 290.202 596.82 288.428 598.109 284.973C599.397 281.518 597.657 277.661 594.21 276.364C590.763 275.067 586.89 276.841 585.601 280.296C584.313 283.752 586.053 287.608 589.5 288.905Z" fill="#D79D91"/>
  <path d="M598.87 309.001C602.242 310.264 606.015 308.541 607.295 305.144C608.567 301.764 606.86 297.991 603.488 296.736C600.117 295.473 596.344 297.196 595.064 300.593C593.792 303.973 595.499 307.746 598.87 309.001Z" fill="#D79D91"/>
  <path d="M567.773 291.365C571.144 292.628 574.918 290.905 576.198 287.508C577.469 284.128 575.763 280.347 572.391 279.1C569.019 277.837 565.246 279.56 563.966 282.957C562.694 286.337 564.401 290.11 567.773 291.365Z" fill="#D79D91"/>
  <path d="M483.198 462.614C478.346 539.525 426.935 556.525 372.914 542.838C318.893 529.159 288.523 506.671 309.631 434.88C327.36 374.576 370.864 331.414 420.267 344.507C470.515 357.827 488.419 379.42 483.173 462.622L483.19 462.606L483.198 462.614Z" fill="url(#paint9_linear_74_5868)"/>
  <path d="M473.686 468.161C468.951 512.887 438.112 525.052 401.309 519.998C371.099 515.849 346.995 489.888 361.226 447.404C379.272 393.576 404.831 374.392 434.691 381.963C464.55 389.535 480.178 406.953 473.703 468.161H473.686Z" fill="white"/>
  <path d="M432.005 251.65C432.022 251.366 432.055 251.081 432.064 250.797C432.03 251.048 432.013 251.332 432.005 251.65Z" stroke="#6D6D6D" stroke-width="4.07437" stroke-miterlimit="10"/>
  <path d="M268.177 226.961C288.147 223.732 301.809 204.941 298.68 184.988C295.56 165.043 276.836 151.489 256.866 154.719C236.896 157.948 223.233 176.739 226.362 196.692C229.483 216.646 248.207 230.191 268.177 226.961Z" fill="url(#paint10_linear_74_5868)"/>
  <path d="M484.897 151.322C485.391 169.518 470.549 184.896 451.75 185.657C432.942 186.418 417.314 172.288 416.812 154.091C416.319 135.886 431.16 120.517 449.959 119.756C468.767 118.995 484.403 133.117 484.897 151.322Z" fill="url(#paint11_linear_74_5868)"/>
  <path d="M270.711 223.447C282.608 218.026 287.502 202.875 281.654 189.606C275.798 176.345 261.416 169.987 249.52 175.408C237.623 180.83 232.728 195.981 238.576 209.25C244.425 222.51 258.814 228.869 270.711 223.439V223.447Z" fill="white"/>
  <path d="M475.627 167.276C470.423 180.805 456.577 188.418 444.713 184.293C432.858 180.169 427.479 165.854 432.683 152.334C437.886 138.814 451.733 131.193 463.596 135.317C475.451 139.442 480.831 153.757 475.627 167.276Z" fill="white"/>
  <path d="M231.524 260.686C202.368 365.088 282.625 430.814 422.359 401.49C558.127 373.003 568.652 262.284 508.657 193.697C479.827 160.726 436.021 122.157 341.85 149.013C256.807 173.283 238.544 235.562 231.524 260.686Z" fill="url(#paint12_linear_74_5868)"/>
  <path d="M508.657 193.68C503.713 188.025 498.325 182.21 492.326 176.588C492.033 183.591 494.953 192.718 500.751 202.18C508.456 214.755 520.905 219.13 522.277 245.928C523.633 272.39 506.189 286.37 486.378 285.977C464.374 285.534 454.193 264.886 454.193 264.886L439.418 261.824L421.773 263.104L414.143 267.797C414.143 267.797 388.626 273.704 377.373 278.665C375.307 298.426 356.357 323.659 322.993 329.984C292.933 335.689 266.621 321.575 253.82 290.972C241.012 260.368 265.893 225.455 270.277 214.964C274.661 204.473 274.427 196.985 272.059 193.931C270.955 192.509 269.541 191.923 268.093 191.781C243.94 217.315 235.724 245.66 231.524 260.686C202.368 365.088 282.625 430.814 422.359 401.49C558.127 373.003 568.652 262.284 508.657 193.697V193.68Z" fill="white"/>
  <path d="M278.317 270.943C278.911 268.132 282.701 267.939 283.588 270.692C286.683 280.33 293.46 293.172 303.357 299.288C310.82 303.906 320.751 304.107 328.565 303.253C332.622 302.793 334.797 308.123 331.61 310.708C322.533 318.053 308.067 324.771 292.757 312.113C277.212 299.271 276.142 281.543 278.35 270.96L278.317 270.943Z" fill="#212121"/>
  <path d="M508.699 212.32C507.812 211.392 506.289 212.287 506.632 213.55C508.247 219.582 510.531 230.944 508.682 242.18C506.473 255.607 498.065 263.622 488.636 268.676C485.716 270.24 486.076 274.582 489.197 275.686C499.747 279.418 514.781 275.686 519.985 256.076C525.498 235.236 515.776 219.741 508.715 212.329L508.699 212.312V212.32Z" fill="#212121"/>
  <path d="M415.206 271.788C415.206 271.788 409.391 282.764 400.732 284.128C401.979 294.887 410.027 301.212 420.317 300.325C430.608 299.438 433.218 289.332 435.36 279.518C425.613 278.665 415.222 271.805 415.222 271.805L415.206 271.788Z" fill="#E0998D"/>
  <path d="M376.168 145.716C365.945 148.879 356.524 154.217 352.809 159.479C351.831 160.868 352.968 163.16 357.285 161.294C363.736 158.534 370.278 155.848 376.436 155.463C375.131 159.822 361.067 173.409 348.66 182.921C343.983 186.519 345.74 189.556 348.476 188.786C374.386 181.407 386.116 161.922 386.116 161.922C386.116 161.922 404.613 172.823 426.056 166.774C428.123 166.189 428.106 163.143 423.68 162.365C411.265 160.165 394.49 155.07 391.445 151.874C396.682 149.548 402.99 149.113 409.006 148.779C412.888 148.561 412.787 146.294 411.507 145.557C406.63 142.696 397.067 141.893 387.187 143.265C386.643 142.203 386.157 141.349 385.697 140.655C382.794 140.906 379.824 141.224 376.812 141.634C376.812 142.964 376.653 144.411 376.176 145.742V145.708L376.168 145.716Z" fill="#212121"/>
  <path d="M400.732 284.111C400.732 284.111 404.714 302.141 420.317 300.308C436.883 298.367 435.36 279.501 435.36 279.501" stroke="#212121" stroke-width="4.07437" stroke-linecap="round" stroke-linejoin="round"/>
  <path d="M397.729 285.232C408.187 283.283 415.549 275.486 414.16 267.805C412.771 260.134 403.175 255.49 392.717 257.44C382.259 259.389 374.897 267.186 376.286 274.867C377.666 282.538 387.271 287.182 397.729 285.232Z" fill="white"/>
  <path d="M438.799 280.146C448.437 278.322 455.004 270.048 453.465 261.665C451.925 253.282 442.873 247.969 433.235 249.793C423.597 251.617 417.03 259.891 418.569 268.274C420.108 276.657 429.161 281.97 438.799 280.146Z" fill="white"/>
  <path d="M318.475 246.162L376.336 232.893C376.336 232.893 382.711 252.771 358.633 261.598C334.546 270.432 319.437 255.248 318.475 246.162Z" fill="white"/>
  <path d="M481.692 210.045L425.203 222.686C425.203 222.686 431.018 247.3 458.317 240.456C483.725 234.089 483.575 215.165 481.692 210.061V210.045Z" fill="white"/>
  <path d="M365.259 239.628C366.564 245.426 363.125 251.157 357.562 252.437C351.998 253.717 346.435 250.052 345.129 244.254C343.824 238.457 348.735 239.226 354.299 237.963C359.862 236.683 363.954 233.838 365.259 239.636V239.62V239.628Z" fill="#212121"/>
  <path d="M456.359 220.001C457.664 225.798 454.351 231.504 448.963 232.734C443.567 233.964 438.129 230.266 436.824 224.468C435.519 218.67 440.287 219.474 445.684 218.244C451.08 217.014 455.037 214.186 456.342 219.984L456.359 220.001Z" fill="#212121"/>
  <path d="M424.576 243.384C420.719 241.059 415.699 242.472 413.29 246.179C412.361 247.618 410.412 248.028 408.956 247.099C405.166 244.681 399.987 245.426 397.486 249.09C394.909 252.838 396.005 257.95 399.879 260.418L408.488 265.915C408.847 266.241 409.232 266.542 409.65 266.818C411.575 268.048 413.834 268.383 415.9 267.923C417.983 267.513 419.882 266.308 421.104 264.417C421.372 264.007 421.589 263.564 421.773 263.12L427.261 254.67C429.721 250.881 428.525 245.794 424.576 243.409V243.393V243.384Z" fill="#212121"/>
  <path d="M318.475 246.162L376.336 232.893" stroke="#212121" stroke-width="4.07437" stroke-linecap="round" stroke-linejoin="round"/>
  <path d="M425.195 222.669L481.684 210.045" stroke="#212121" stroke-width="4.07437" stroke-linecap="round" stroke-linejoin="round"/>
  <path d="M352.685 200.616L382.076 219.072" stroke="#212121" stroke-width="6.69302" stroke-linecap="round" stroke-linejoin="round"/>
  <path d="M417.908 211.467L435.812 183.582" stroke="#212121" stroke-width="6.69302" stroke-linecap="round" stroke-linejoin="round"/>
  <path d="M377.365 278.665C377.365 278.665 382.878 289.441 397.025 286.755C410.964 284.103 415.565 271.637 415.364 264.35C419.481 274.038 427.211 279.861 437.401 278.757C447.784 277.619 451.933 270.792 454.184 264.902" stroke="#212121" stroke-width="4.07437" stroke-linecap="round" stroke-linejoin="round"/>
  <path d="M355.746 462.438C355.746 462.438 326.171 498.505 290.631 497.275C255.092 496.046 261.693 437.724 290.037 406.652C296.362 399.716 311.514 383.477 325.812 390.012C341.264 397.089 343.423 413.68 337.918 430.588C335.851 436.955 337.064 453.353 337.064 453.353L355.746 462.422V462.438Z" fill="url(#paint13_linear_74_5868)"/>
  <path d="M332.229 483.647C332.229 483.647 320.926 486.282 311.531 480.125C310.837 479.664 309.958 480.484 310.293 481.279C313.572 488.976 320.349 490.382 320.349 490.382C320.349 490.382 326.523 487.412 332.238 483.655L332.229 483.647Z" fill="#212121"/>
  <path d="M411.96 432.872L264.479 432.32C260.606 432.32 257.217 429.634 256.222 425.819L231.206 329.021C229.784 323.483 233.9 318.062 239.531 318.087L386.995 318.639C390.877 318.639 394.273 321.333 395.252 325.14L420.276 421.954C421.698 427.492 417.582 432.914 411.951 432.88L411.96 432.872Z" fill="url(#paint14_linear_74_5868)"/>
  <path opacity="0.4" d="M243.681 334.535L335.601 409.497L268.336 410.417L243.689 334.535H243.681Z" fill="#E6E6E6"/>

  <g opacity="0.46">
  <path d="M384.669 326.704C386.861 337.664 390.015 348.498 392.826 359.307C396.733 374.233 400.682 389.133 404.798 404C406.12 408.727 407.35 413.504 408.872 418.172C409.86 421.134 414.478 419.854 413.507 416.867C410.027 406.25 407.367 395.282 404.472 384.49C400.473 369.606 396.532 354.681 392.742 339.73C391.538 334.978 390.241 330.218 389.287 325.399C388.676 322.32 384.041 323.625 384.669 326.704Z" fill="#CCCCCC"/>
  </g>

  <path d="M445.969 433.006L271.574 432.345C267.391 432.328 263.986 435.767 263.977 440.033C263.961 444.284 267.341 447.747 271.524 447.756L445.91 448.4C450.093 448.425 453.498 444.978 453.507 440.728C453.532 436.478 450.152 433.014 445.969 433.006Z" fill="#4D4D4D"/>
  <path d="M377.525 446.559C377.567 447.003 377.784 447.413 377.968 447.839C380.403 453.863 378.462 459.694 375.132 465.249C369.05 475.314 353.681 481.756 340.721 480.869C330.674 480.183 321.069 475.975 315.079 469.265C310.444 464.011 308.034 452.499 309.825 445.706C308.779 439.088 313.849 432.713 321.22 431.542C325.57 430.814 329.645 432.111 332.589 434.579C334.932 431.199 338.789 428.655 343.424 427.877C349.79 426.84 355.823 429.417 359.027 433.968C360.098 433.533 361.244 433.115 362.432 432.939C370.664 431.567 378.537 437.624 377.717 445.271C377.692 445.664 377.625 446.116 377.65 446.576L377.558 446.551H377.533L377.525 446.559Z" fill="white" stroke="#E8D09D" stroke-width="4.18314" stroke-miterlimit="10"/>
  <path d="M358.868 433.483C359.453 439.933 358.893 446.501 357.253 452.767" stroke="#E8D09D" stroke-width="5.85639" stroke-linecap="round" stroke-linejoin="round"/>
  <path d="M332.438 434.177C331.66 440.192 331.284 446.25 331.301 452.315" stroke="#E8D09D" stroke-width="5.85639" stroke-linecap="round" stroke-linejoin="round"/>
  <path d="M600.334 287.424C599.966 292.302 597.674 296.77 595.139 300.936C594.737 301.597 594.319 302.258 593.876 302.919L573.847 283.216C576.014 280.531 578.314 278.012 581.226 276.155C585.15 273.67 590.353 272.691 594.419 274.9C598.711 277.226 600.694 282.539 600.309 287.391H600.343V287.408L600.334 287.424Z" fill="white"/>
  <g class="floating-cash">
    <path d="M608.307 207.284C601.573 240.515 586.354 272.014 564.502 298.025C576.106 304.45 586.371 313.251 594.486 323.709C621.074 303.521 661.626 235.068 660.12 231.161C658.346 226.56 622.706 214.604 609.127 207.736" fill="black"/>
    <path d="M606.651 206.832C601.406 232.558 591.148 257.164 576.591 279.05C572.483 285.216 568.049 291.139 563.289 296.811C562.594 297.64 562.594 298.92 563.632 299.497C575.127 305.897 585.2 314.556 593.265 324.905C593.683 325.432 594.805 325.591 595.348 325.173C605.204 317.668 613.261 307.855 620.815 298.142C629.525 286.931 637.565 275.193 645.111 263.179C650.482 254.629 655.92 245.911 660.103 236.716C660.89 234.968 662.571 232.115 661.542 230.157C660.823 228.794 659.275 227.857 657.987 227.087C655.862 225.79 653.594 224.719 651.335 223.69C638.895 217.976 625.902 213.567 613.453 207.895C612.29 207.368 611.127 206.815 609.981 206.238C608.007 205.251 606.275 208.204 608.241 209.191C613.712 211.952 619.452 214.211 625.124 216.503C631.616 219.13 638.15 221.674 644.592 224.435C647.286 225.581 649.963 226.761 652.582 228.066C653.628 228.584 654.657 229.12 655.661 229.697C656.046 229.923 656.422 230.149 656.799 230.383C656.966 230.492 657.133 230.601 657.292 230.709C657.393 230.776 657.92 231.178 657.585 230.919C657.828 231.111 658.062 231.329 658.296 231.546C658.346 231.596 658.639 231.939 658.438 231.68C658.229 231.429 658.514 231.789 658.547 231.864C658.472 231.63 658.438 231.638 658.422 231.387C658.455 231.831 658.455 231.37 658.438 231.379C658.171 232.282 657.903 233.169 657.543 234.048C657.468 234.24 657.66 233.771 657.493 234.165C657.426 234.332 657.342 234.499 657.275 234.667C657.125 235.01 656.974 235.344 656.815 235.679C656.439 236.474 656.054 237.26 655.661 238.047C654.707 239.937 653.703 241.82 652.682 243.677C650.022 248.513 647.194 253.273 644.308 257.992C637.138 269.654 629.466 281.049 621.234 292.001C613.746 301.965 605.764 311.946 596.26 320.095C595.399 320.831 594.436 321.626 593.6 322.262L595.683 322.529C587.459 311.954 577.076 303.103 565.347 296.577L565.69 299.263C582.874 278.765 596.009 255.039 604.208 229.622C606.526 222.444 608.433 215.148 609.939 207.761C610.374 205.611 607.069 204.69 606.626 206.849L606.66 206.815L606.651 206.832Z" fill="#E8D09D"/>
    <path d="M629.089 213.149C614.892 243.97 592.855 271.177 565.589 291.524C575.403 300.417 583.384 311.318 588.881 323.341C619.41 309.737 674.619 252.32 674.041 248.161C673.372 243.276 641.421 223.531 629.775 213.759" fill="black"/>
    <path d="M627.6 212.287C616.598 236.106 600.995 257.732 581.811 275.712C576.382 280.798 570.684 285.592 564.727 290.051C563.891 290.679 563.481 291.925 564.384 292.737C574.114 301.58 581.937 312.289 587.408 324.211C587.827 325.114 588.99 325.173 589.759 324.83C601.054 319.777 611.16 311.946 620.706 304.215C631.716 295.314 642.191 285.734 652.255 275.778C659.467 268.642 666.762 261.363 672.962 253.323C674.1 251.851 676.191 249.626 675.681 247.584C675.304 246.061 673.974 244.765 672.887 243.711C671.104 241.962 669.13 240.406 667.156 238.875C656.38 230.525 644.801 223.28 634 214.964C632.988 214.178 631.975 213.383 630.997 212.563C629.307 211.157 626.872 213.567 628.57 214.981C633.264 218.905 638.317 222.418 643.312 225.941C649.076 230.007 654.882 234.006 660.58 238.18C664.47 241.025 668.762 243.911 671.866 247.634C672.142 247.969 671.74 247.417 671.958 247.76C672.05 247.885 672.125 248.028 672.217 248.153C672.284 248.253 672.334 248.371 672.393 248.479C672.226 248.161 672.334 248.253 672.376 248.513C672.351 248.329 672.334 248.237 672.376 247.986C672.334 248.178 672.108 248.605 672.41 248.002C671.983 248.856 671.464 249.642 670.904 250.42C670.703 250.688 670.51 250.964 670.31 251.223C670.209 251.357 670.101 251.491 670 251.625C670.259 251.299 669.85 251.809 669.774 251.91C669.239 252.579 668.695 253.248 668.143 253.901C666.771 255.54 665.357 257.138 663.926 258.72C660.203 262.836 656.371 266.827 652.448 270.767C642.743 280.522 632.62 289.909 622.028 298.727C612.465 306.7 602.426 314.59 591.307 320.312C590.219 320.873 589.123 321.4 588.011 321.893L590.362 322.512C584.781 310.348 576.716 299.371 566.802 290.344L566.459 293.03C587.868 277.008 606.107 256.938 619.92 234.089C623.835 227.614 627.391 220.904 630.562 214.035C631.482 212.053 628.52 210.304 627.592 212.312V212.295L627.6 212.287Z" fill="#E8D09D"/>
    <path d="M632.662 270.6C632.52 272.716 631.407 275.017 629.349 277.502L630.888 279.075L625.032 284.747L623.442 283.124C620.355 285.442 617.234 287.048 614.105 287.951C613.829 286.588 613.511 285.366 613.168 284.312C612.817 283.25 612.34 282.087 611.738 280.807C613.503 280.413 615.31 279.677 617.168 278.631C619.025 277.569 620.589 276.423 621.878 275.176C623.183 273.921 623.978 272.909 624.287 272.156C624.597 271.403 624.605 270.876 624.337 270.608C623.359 269.604 621.409 270.533 618.464 273.369C615.252 276.481 612.574 278.397 610.441 279.1C608.308 279.803 606.484 279.384 604.953 277.82C603.179 276.004 602.384 273.971 602.593 271.746C602.803 269.521 603.807 267.237 605.614 264.911L604.342 263.606L610.198 257.933L611.571 259.339C614.365 257.364 617.26 255.976 620.263 255.139C620.631 256.068 621.016 256.971 621.418 257.85C621.836 258.736 622.238 259.573 622.647 260.393L623.175 261.464C621.71 261.573 619.945 262.192 617.879 263.313C615.821 264.434 614.156 265.588 612.926 266.785C611.428 268.241 610.516 269.32 610.19 270.023C609.872 270.725 609.906 271.277 610.29 271.671C610.675 272.064 611.345 272.03 612.29 271.57C613.235 271.11 614.39 270.232 615.745 268.918C619.083 265.697 621.894 263.748 624.178 263.079C626.471 262.409 628.42 262.894 630.027 264.534C631.917 266.467 632.787 268.5 632.653 270.608H632.662V270.6Z" fill="white"/>
    <path d="M630.219 225.23C641.631 234.65 653.469 243.577 665.684 251.96C667.507 253.215 669.239 250.253 667.415 249.007C655.443 240.791 643.839 232.056 632.645 222.812C630.955 221.415 628.512 223.824 630.219 225.23Z" fill="#E8D09D"/>
  </g>

  <path d="M572.993 303.454C580.674 303.454 586.907 297.121 586.907 289.315C586.907 281.509 580.682 275.176 572.993 275.176C565.305 275.176 559.08 281.509 559.08 289.315C559.08 297.121 565.305 303.454 572.993 303.454Z" fill="white"/>
</g>

<g id='title'>
  <path d="M444.771 78.055C444.93 77.1007 445.238 76.3162 445.697 75.7015C446.178 75.0936 446.743 74.5856 447.39 74.1774C448.061 73.7761 448.764 73.4344 449.499 73.1525C450.257 72.8774 450.965 72.6001 451.624 72.3206C452.307 72.0479 452.889 71.7329 453.371 71.3757C453.853 71.0184 454.176 70.5637 454.34 70.0116C454.546 69.3216 454.548 68.6837 454.347 68.0979C454.146 67.5121 453.749 66.9934 453.157 66.5417C452.589 66.0969 451.844 65.7375 450.924 65.4636C449.866 65.1485 448.832 65.0908 447.821 65.2906C446.809 65.4903 445.745 65.912 444.627 66.5557L442.578 63.091C444.059 62.1546 445.66 61.5296 447.381 61.2157C449.132 60.8857 450.916 60.9913 452.733 61.5324C454.413 62.0324 455.821 62.7272 456.958 63.6168C458.119 64.5133 458.913 65.5887 459.341 66.8429C459.798 68.081 459.798 69.4707 459.339 71.0118C459.085 71.8629 458.679 72.5556 458.119 73.0901C457.589 73.6084 456.961 74.0349 456.235 74.3697C455.539 74.6884 454.813 74.9853 454.054 75.2604C453.303 75.5125 452.591 75.8013 451.918 76.1268C451.245 76.4523 450.67 76.8695 450.193 77.3785C449.716 77.8875 449.392 78.5548 449.222 79.3804L444.771 78.055ZM444.28 87.9006C443.406 87.6403 442.767 87.137 442.364 86.3908C441.96 85.6445 441.888 84.8343 442.148 83.9602C442.416 83.0632 442.922 82.4127 443.669 82.0089C444.415 81.6051 445.225 81.5333 446.099 81.7936C446.973 82.0539 447.612 82.5572 448.016 83.3035C448.42 84.0498 448.488 84.8714 448.221 85.7685C447.961 86.6426 447.457 87.2815 446.711 87.6853C445.965 88.0891 445.155 88.1609 444.28 87.9006Z" fill="#875B0B"/>
  <path d="M202.079 159.217L167.147 142.44" stroke="#875B0B" stroke-width="4.11937" stroke-linecap="round" stroke-linejoin="round"/>
  <path d="M460.615 95.5644L478.212 61.0282" stroke="#875B0B" stroke-width="4.11937" stroke-linecap="round" stroke-linejoin="round"/>
  <path d="M203.26 135.645C203.295 138.026 203.047 140.217 202.451 142.033C201.471 141.554 199.76 141.065 198.702 140.928C199.807 138.274 200.208 134.495 199.829 131.18L195.471 133.776L193.663 130.739L198.6 127.809L196.081 123.569L199.486 121.549L202.005 125.789L206.244 123.27L208.052 126.307L203.813 128.826L204.478 129.936C206.09 129.913 210.164 130.262 211.205 130.419L211.04 134.392C209.898 134.05 208.145 133.632 206.474 133.285L210.213 139.57L206.808 141.59L203.28 135.663L203.26 135.645ZM205.327 151.597C205.466 149.356 205.019 146.278 204.258 143.84L208.196 143.21C208.865 145.703 209.581 148.904 209.568 151.269L205.318 151.607L205.327 151.597ZM214.301 135.516L215.229 135.702L205.765 119.781L217.978 112.515L227.607 128.701L215.688 135.79C217.506 136.174 219.554 136.674 220.778 137.086L219.478 140.794C217.99 140.21 215.122 139.43 213.019 138.972L214.301 135.516ZM222.226 140.902C223.639 140.059 223.595 139.515 221.971 136.367C223.03 136.513 224.844 136.128 225.945 135.714C228.048 140.285 227.689 141.928 224.377 143.902L218.963 147.12C214.87 149.55 213.227 149.191 211.364 146.062L208.912 141.942L212.463 139.833L214.882 143.898C215.415 144.798 215.794 144.739 217.418 143.773L222.236 140.91L222.226 140.902ZM211.722 122.421L217.254 119.126L216.212 117.383L210.68 120.678L211.722 122.421ZM214.339 126.816L219.872 123.521L218.83 121.778L213.297 125.073L214.339 126.816ZM216.969 131.239L222.502 127.944L221.426 126.137L215.893 129.431L216.969 131.239ZM225.901 130.442C228.212 131.594 231.476 133.112 233.224 134.193L230.905 137.895C229.236 136.73 226.009 135.065 223.636 133.745L225.91 130.441L225.901 130.442Z" fill="#875B0B"/>
  <path d="M253.111 98.4848L256.582 105.628L252.862 107.433L250.941 103.463L230.789 113.244L232.709 117.214L229.184 118.927L225.714 111.784L229.868 109.771C228.922 109.107 227.821 108.435 226.827 107.899L229.536 104.993C231.059 105.65 232.815 106.702 233.842 107.533L233.394 108.059L237.298 106.163L235.218 101.879L238.966 100.062L241.046 104.346L244.766 102.541L244.546 102.559C244.804 101.087 244.92 98.9252 244.822 97.453L249.355 96.6887C249.114 98.1302 248.848 99.4968 248.567 100.682L253.102 98.4856L253.111 98.4848ZM249.947 105.819L253.442 113.028L236.786 121.109L233.291 113.901L249.947 105.819ZM234.441 123.881L257.361 112.764L263.154 124.7L259.407 126.517L259.051 125.795L243.432 133.371L243.8 134.13L240.247 135.854L234.442 123.89L234.441 123.881ZM247.526 110.298L238.079 114.884L238.976 116.745L248.423 112.158L247.526 110.298ZM239.306 124.868L240.099 126.506L245.956 123.666L245.163 122.028L239.306 124.868ZM247.977 127.81L247.184 126.173L241.327 129.012L242.12 130.65L247.977 127.81ZM254.924 117.282L248.78 120.26L249.573 121.898L255.717 118.92L254.924 117.282ZM257.739 123.074L256.946 121.436L250.802 124.414L251.595 126.052L257.739 123.074Z" fill="#875B0B"/>
  <path d="M277.851 86.9253C281.95 88.5596 287.396 91.0574 290.156 93.1346L287.795 96.8014C287.088 96.2522 286.174 95.633 285.133 94.9854C268.151 102.593 265.855 103.564 264.36 104.826C263.861 104.116 262.488 102.438 261.634 101.603C262.396 101.042 262.938 100.115 263.6 98.6593C264.35 97.2062 266.366 91.8658 267.053 87.0926L271.619 87.229C270.751 91.0652 269.304 94.9764 267.754 98.3192L280.961 92.6746C279.127 91.7345 277.29 90.8716 275.608 90.1406L277.851 86.9348L277.851 86.9253ZM266.265 106.549L288.243 97.967L293.82 112.246L289.644 113.876L289.005 112.245L275.182 117.64L275.833 119.299L271.853 120.856L266.265 106.539L266.265 106.549ZM271.694 108.711L273.734 113.931L287.556 108.535L285.517 103.316L271.694 108.711Z" fill="#875B0B"/>
  <path d="M307.154 96.8562C306.554 96.1929 305.509 95.2669 304.468 94.3791L308.41 107.452L304.525 108.626L301.024 96.998C300.713 99.7233 300.178 102.303 299.423 104.285C298.707 103.256 297.375 101.863 296.436 101.053C297.675 98.264 298.468 93.9724 298.712 90.2819L294.527 91.5471L293.404 87.8307L297.862 86.4862L296.728 82.7324C295.478 83.3315 294.263 83.8799 293.091 84.3768C292.673 83.5931 291.759 82.3685 291.069 81.6642C294.536 80.0717 298.213 77.9724 300.413 76.1445L303.975 78.3981C302.907 79.2327 301.693 80.0404 300.389 80.7977L301.748 85.3216L304.864 84.3818L304.694 83.8091L312.267 81.5247L311.927 80.3889L305.996 82.1775L305.303 79.8685L311.234 78.08L310.894 76.9442L304.362 78.9151L303.632 76.5034L310.164 74.5325L309.707 73.0216L313.696 71.82L314.152 73.331L321.088 71.2415L321.818 73.6532L314.882 75.7427L315.223 76.8785L321.389 75.0232L322.082 77.3321L315.916 79.1874L316.256 80.3232L323.867 78.0262L324.612 80.504L305.645 86.2225L306.193 88.0337L302.87 89.038L303.196 90.1077C304.566 90.7867 307.733 92.5432 308.516 93.0768L307.175 96.8834L307.154 96.8562ZM323.882 96.9283C326.292 97.5149 329.03 98.2292 330.649 98.7635L327.729 101.687C326.177 101.022 323.373 100.073 321.015 99.434L322.642 97.296L316.542 99.1364L319.229 99.9317C317.664 102.122 314.825 104.732 312.412 106.413C311.592 105.892 310.169 105.15 309.217 104.669C311.291 103.312 313.57 101.276 314.9 99.6323L311.981 100.508L307.841 86.7685L323.327 82.1055L327.467 95.8454L323.882 96.9283ZM312.561 89.5643L320.707 87.1094L320.278 85.702L312.132 88.1569L312.551 89.5651L312.561 89.5643ZM313.683 93.2807L321.83 90.8257L321.397 89.3801L313.251 91.8351L313.683 93.2807ZM314.794 96.9691L322.94 94.5142L322.52 93.1061L314.374 95.561L314.803 96.9684L314.794 96.9691Z" fill="#875B0B"/>
  <path d="M333.033 80.2952L329.302 81.1015L327.641 73.4013L340.576 70.6134L340.284 69.2431L328.89 71.7066L328.313 69.0424L355.136 63.2562L355.714 65.9299L344.253 68.3987L344.545 69.769L357.754 66.9209L359.414 74.6211L355.484 75.472L355.285 78.0537C353.333 77.7958 349.628 77.735 346.978 77.8787L347.272 75.4143C349.761 75.1682 353.306 75.1552 355.321 75.36L354.268 70.4657L352.416 70.8629L354.023 72.3399C352.375 73.4802 349.992 74.5732 348.291 75.2948L346.613 73.6504C347.881 73.0497 349.664 72.0237 350.98 71.1694L345.132 72.4324L346.668 79.5466L342.7 80.4005L341.163 73.2863L334.626 74.7003C336.543 74.6438 338.858 74.7479 340.268 74.9529L339.644 77.3763C338.153 77.1201 335.44 76.9612 333.394 76.9702L333.936 74.8513L332.084 75.2485L333.091 79.935C335.122 79.2449 337.913 78.2155 340.758 77.1338L341.402 79.4275C338.965 80.5632 336.556 81.6871 334.508 82.6381L333.034 80.3047L333.033 80.2952ZM358.191 91.0173C359.939 90.638 360.133 90.0651 359.756 87.1352C360.661 87.5149 362.308 87.6913 363.412 87.6708C363.824 91.8761 362.931 93.2157 359.199 94.022L352.018 95.5736C347.37 96.5777 345.827 95.9029 345.054 92.3509L345.046 92.2459L339.358 93.4769L339.677 94.9507L335.775 95.7897L333.096 83.3751L356.801 78.2599L359.162 89.2102L348.93 91.4179L348.938 91.5229C349.218 92.75 349.67 92.8678 351.73 92.4252L358.192 91.0269L358.191 91.0173ZM337.58 85.2575L337.914 86.7974L343.592 85.5672L343.258 84.0273L337.58 85.2575ZM344.434 89.5076L344.1 87.9677L338.422 89.1979L338.756 90.7378L344.434 89.5076ZM353.349 81.8597L347.161 83.1978L347.495 84.7377L353.683 83.3996L353.349 81.8597ZM354.534 87.3297L354.2 85.7898L348.012 87.1279L348.346 88.6678L354.534 87.3297Z" fill="#875B0B"/>
  <path d="M395.188 72.3896C394.657 76.9487 393.081 80.5722 390.791 83.5606C392.915 84.4102 395.325 84.9777 397.902 85.2435C397.116 86.2287 396.143 88.0167 395.735 89.164C392.751 88.7479 390.127 87.89 387.819 86.6705C385.784 88.3893 383.387 89.7909 380.687 90.9956C380.166 90.0088 379.035 88.5996 378.186 87.831C378.245 89.0564 378.008 89.9402 377.241 90.5683C376.353 91.3597 374.982 91.6418 372.965 91.9079C372.72 90.8799 372.046 89.1653 371.42 88.1868C372.498 88.0819 373.543 87.941 373.924 87.8915C374.304 87.842 374.427 87.6881 374.374 87.2694L373.469 80.3644C372.613 81.0765 371.785 81.7862 371.018 82.4142L369.687 80.0504C370.015 84.4257 370.036 89.1523 369.158 92.7299C368.347 92.1986 366.524 91.5171 365.613 91.2917C366.791 86.2967 365.988 79.3452 365.328 74.3139L363.672 61.7121L374.609 60.2748L375.973 70.6511C379.476 68.287 379.599 65.7305 379.303 63.4667L378.815 59.748L390.475 58.2147L391.474 65.8138C391.602 66.8223 391.728 67.1967 392.146 67.1346L393.497 66.9599C393.944 66.905 394.734 66.6884 395.17 66.4904C395.403 67.4809 395.654 68.8256 395.907 69.7088C395.41 69.9886 394.652 70.1258 393.957 70.2099L392.188 70.4372C388.888 70.8728 388.044 69.5657 387.616 66.2362L387.127 62.5174L383.066 63.052C383.504 66.3807 382.99 70.3042 378.754 73.2264C378.254 72.6223 376.867 71.4929 376.015 70.936L378.097 86.8386C378.129 87.1148 378.17 87.3902 378.161 87.6408C380.447 86.7766 382.53 85.6594 384.298 84.3271C382.24 82.6169 380.452 80.5584 378.972 78.1391L380.604 77.3942L378.102 77.7182L377.594 73.8665L391.727 72.0115L392.465 71.7414L395.196 72.3698L395.188 72.3896ZM367.867 64.9149L368.431 69.2234L369.308 68.4041C370.246 69.0886 371.301 69.908 372.179 70.6743L371.368 64.4634L367.858 64.9252L367.867 64.9149ZM369.023 73.77C369.214 75.1964 369.391 76.8256 369.535 78.5056C370.534 78.0224 371.687 77.4118 372.977 76.7133L372.483 72.9277L371.241 74.2182C370.703 73.6172 369.775 72.7107 368.775 71.8581L369.023 73.77ZM382.745 77.1277C383.891 78.8528 385.423 80.3455 387.172 81.5613C388.519 80.003 389.584 78.1692 390.278 76.1439L382.745 77.1277Z" fill="#875B0B"/>
  <path d="M420.959 77.1814C424.058 79.7699 428.448 82.0442 432.568 83.2155C431.629 84.0975 430.384 85.8399 429.771 86.9554C425.595 85.4425 421.259 82.6354 417.913 79.3555L418.32 87.8474L414.021 88.0549L413.628 79.7349C410.64 83.2402 406.719 86.2622 402.748 88.1735C402.036 87.1922 400.661 85.6103 399.713 84.8111C403.635 83.2593 407.641 80.5765 410.408 77.675L403.343 78.0162L402.703 64.6608L412.88 64.1778L412.789 62.1861L399.644 62.8092L399.46 58.9317L412.606 58.3086L412.474 55.4456L416.772 55.2381L416.904 58.1011L430.365 57.4625L430.549 61.34L417.088 61.9786L417.179 63.9703L427.844 63.458L428.484 76.8134L420.968 77.1711L420.959 77.1814ZM407.213 74.7195L413.369 74.4219L413.266 72.2869L407.11 72.5845L407.213 74.7195ZM406.973 69.6547L413.129 69.3571L413.033 67.2986L406.877 67.5962L406.973 69.6547ZM424 71.7885L417.566 72.0986L417.669 74.2335L424.102 73.9234L424 71.7885ZM417.322 67.0919L417.418 69.1504L423.851 68.8403L423.755 66.7818L417.322 67.0919Z" fill="#875B0B"/>
</g>

<defs>
<linearGradient id="paint0_linear_74_5868" x1="380.323" y1="583.861" x2="380.323" y2="211.269" gradientUnits="userSpaceOnUse">
<stop stop-color="#D3BB88"/>
<stop offset="1" stop-color="#C19E55"/>
</linearGradient>
<linearGradient id="paint1_linear_74_5868" x1="380.298" y1="-241.078" x2="380.298" y2="307.615" gradientUnits="userSpaceOnUse">
<stop stop-color="#EDCC94"/>
<stop offset="1" stop-color="#EDCC94" stop-opacity="0"/>
</linearGradient>
<linearGradient id="paint2_linear_74_5868" x1="497.479" y1="147.189" x2="629.717" y2="147.189" gradientUnits="userSpaceOnUse">
<stop stop-color="#3A3A3A"/>
<stop offset="0.25" stop-color="#353535"/>
<stop offset="0.53" stop-color="#282828"/>
<stop offset="0.81" stop-color="#121212"/>
<stop offset="1"/>
</linearGradient>
<linearGradient id="paint3_linear_74_5868" x1="560.001" y1="122.743" x2="577.026" y2="122.743" gradientUnits="userSpaceOnUse">
<stop stop-color="#3A3A3A"/>
<stop offset="0.25" stop-color="#353535"/>
<stop offset="0.53" stop-color="#282828"/>
<stop offset="0.81" stop-color="#121212"/>
<stop offset="1"/>
</linearGradient>
<linearGradient id="paint4_linear_74_5868" x1="106.64" y1="315.318" x2="263.55" y2="315.318" gradientUnits="userSpaceOnUse">
<stop stop-color="#3A3A3A"/>
<stop offset="0.25" stop-color="#353535"/>
<stop offset="0.53" stop-color="#282828"/>
<stop offset="0.81" stop-color="#121212"/>
<stop offset="1"/>
</linearGradient>
<linearGradient id="paint5_linear_74_5868" x1="381.189" y1="419.762" x2="468.516" y2="604.28" gradientUnits="userSpaceOnUse">
<stop stop-color="#FDF8C0"/>
<stop offset="0.18" stop-color="#F6EBB1"/>
<stop offset="0.34" stop-color="#E5C987"/>
<stop offset="0.66" stop-color="#E8B670"/>
</linearGradient>
<linearGradient id="paint6_linear_74_5868" x1="305.256" y1="414.081" x2="361.142" y2="610.714" gradientUnits="userSpaceOnUse">
<stop stop-color="#FDF8C0"/>
<stop offset="0.18" stop-color="#F6EBB1"/>
<stop offset="0.34" stop-color="#E5C987"/>
<stop offset="0.66" stop-color="#E8B670"/>
</linearGradient>
<linearGradient id="paint7_linear_74_5868" x1="590.906" y1="308.809" x2="428.374" y2="426.999" gradientUnits="userSpaceOnUse">
<stop stop-color="#FDF8C0"/>
<stop offset="0.18" stop-color="#F6EBB1"/>
<stop offset="0.34" stop-color="#E5C987"/>
<stop offset="0.5" stop-color="#E8B670"/>
<stop offset="0.84" stop-color="#EEC07F"/>
</linearGradient>
<linearGradient id="paint8_linear_74_5868" x1="418.496" y1="360.847" x2="603.429" y2="342.124" gradientUnits="userSpaceOnUse">
<stop stop-color="#FDF8C0"/>
<stop offset="0.18" stop-color="#F6EBB1"/>
<stop offset="0.34" stop-color="#E5C987"/>
<stop offset="0.5" stop-color="#E8B670"/>
<stop offset="0.84" stop-color="#EEC07F"/>
</linearGradient>
<linearGradient id="paint9_linear_74_5868" x1="413.273" y1="359.977" x2="389.245" y2="487.286" gradientUnits="userSpaceOnUse">
<stop stop-color="#FDF8C0"/>
<stop offset="0.18" stop-color="#F6EBB1"/>
<stop offset="0.34" stop-color="#E5C987"/>
<stop offset="0.66" stop-color="#E8B670"/>
</linearGradient>
<linearGradient id="paint10_linear_74_5868" x1="197.649" y1="151.196" x2="316.199" y2="223.64" gradientUnits="userSpaceOnUse">
<stop stop-color="#FDF8C0"/>
<stop offset="0.18" stop-color="#F6EBB1"/>
<stop offset="0.34" stop-color="#E5C987"/>
<stop offset="0.5" stop-color="#E8B670"/>
<stop offset="0.84" stop-color="#EEC07F"/>
</linearGradient>
<linearGradient id="paint11_linear_74_5868" x1="397.394" y1="116.334" x2="510.079" y2="193.011" gradientUnits="userSpaceOnUse">
<stop stop-color="#FDF8C0"/>
<stop offset="0.18" stop-color="#F6EBB1"/>
<stop offset="0.34" stop-color="#E5C987"/>
<stop offset="0.5" stop-color="#E8B670"/>
<stop offset="0.84" stop-color="#EEC07F"/>
</linearGradient>
<linearGradient id="paint12_linear_74_5868" x1="172.174" y1="168.615" x2="485.851" y2="333.405" gradientUnits="userSpaceOnUse">
<stop stop-color="#FDF8C0"/>
<stop offset="0.18" stop-color="#F6EBB1"/>
<stop offset="0.34" stop-color="#E5C987"/>
<stop offset="0.5" stop-color="#E8B670"/>
<stop offset="0.84" stop-color="#EEC07F"/>
</linearGradient>
<linearGradient id="paint13_linear_74_5868" x1="288.389" y1="397.742" x2="314.601" y2="473.875" gradientUnits="userSpaceOnUse">
<stop stop-color="#FDF8C0"/>
<stop offset="0.18" stop-color="#F6EBB1"/>
<stop offset="0.34" stop-color="#E5C987"/>
<stop offset="0.5" stop-color="#E8B670"/>
<stop offset="0.84" stop-color="#EEC07F"/>
</linearGradient>
<linearGradient id="paint14_linear_74_5868" x1="320.265" y1="330.929" x2="343.105" y2="516.51" gradientUnits="userSpaceOnUse">
<stop stop-color="#999999"/>
<stop offset="0.51" stop-color="#4D4D4D"/>
<stop offset="1"/>
</linearGradient>
</defs>
</svg>
