<svg width="441" height="87" viewBox="0 0 441 87" fill="none" xmlns="http://www.w3.org/2000/svg">
<path d="M36.13 0H403.91C423.87 0 440.05 14.81 440.05 33.06C440.05 51.31 423.87 66.12 403.91 66.12H78.13C77.18 72.12 76.92 78.38 77.8 84.57C78.03 86.2 76 87.32 74.53 86.36C67.27 81.58 61.89 74.31 57.87 66.12H36.14C16.18 66.12 0 51.31 0 33.06C0.01 14.81 16.17 0 36.13 0Z" fill="black"/>
<path d="M20.62 22.59C21.52 21.59 22.58 20.85 23.8 20.3C24.98 19.75 26.32 19.49 27.82 19.49C30.22 19.49 32.02 20.1 33.3 21.3C34.55 22.49 35.17 24.01 35.17 25.85C35.17 28.11 33.68 30.69 30.72 33.59C27.73 36.49 25.39 38.59 23.68 39.84H35.14V43.45H20.66V40.87C22.84 38.74 25.05 36.16 27.26 33.1C29.47 30.04 30.59 27.55 30.59 25.62C30.59 24.49 30.28 23.59 29.66 22.98C29.04 22.37 28.23 22.08 27.26 22.08C26.01 22.08 24.99 22.37 24.15 22.95C23.31 23.56 22.62 24.47 22.09 25.66H21.56L20.63 22.6L20.62 22.59Z" fill="white"/>
<path d="M53.92 22.42C55.38 24.39 56.1 27.55 56.1 31.83C56.1 36.11 55.35 39.12 53.89 41.02C52.43 42.92 50.43 43.89 47.91 43.89C45.39 43.89 43.39 42.92 41.93 41.02C40.47 39.12 39.72 36.05 39.72 31.83C39.72 27.61 40.47 24.38 41.93 22.42C43.39 20.46 45.39 19.49 47.91 19.49C50.43 19.49 52.46 20.46 53.92 22.42ZM45.07 24.36C44.51 25.91 44.23 28.39 44.23 31.84C44.23 35.1 44.51 37.48 45.1 39C45.66 40.55 46.59 41.32 47.9 41.32C49.21 41.32 50.14 40.55 50.73 39C51.29 37.48 51.57 35.1 51.57 31.84C51.57 28.39 51.29 25.91 50.76 24.36C50.2 22.84 49.23 22.07 47.89 22.07C46.55 22.07 45.59 22.84 45.06 24.36H45.07Z" fill="white"/>
<path d="M60.86 22.59C61.76 21.59 62.82 20.85 64.04 20.3C65.22 19.75 66.56 19.49 68.06 19.49C70.46 19.49 72.26 20.1 73.54 21.3C74.79 22.49 75.41 24.01 75.41 25.85C75.41 28.11 73.92 30.69 70.96 33.59C67.97 36.49 65.63 38.59 63.92 39.84H75.38V43.45H60.9V40.87C63.08 38.74 65.29 36.16 67.5 33.1C69.71 30.04 70.83 27.55 70.83 25.62C70.83 24.49 70.52 23.59 69.9 22.98C69.28 22.37 68.47 22.08 67.5 22.08C66.25 22.08 65.23 22.37 64.39 22.95C63.55 23.56 62.86 24.47 62.33 25.66H61.8L60.87 22.6L60.86 22.59Z" fill="white"/>
<path d="M94.31 19.94V23.55H85.28L84.28 29.77C84.97 29.22 85.68 28.77 86.43 28.42C87.18 28.1 88.11 27.94 89.2 27.94C91.16 27.94 92.84 28.62 94.18 29.97C95.52 31.36 96.2 33.23 96.2 35.61C96.2 38.16 95.42 40.19 93.86 41.67C92.3 43.15 90.15 43.89 87.38 43.89C86.23 43.89 85.08 43.7 83.92 43.31C82.76 42.92 81.58 42.28 80.43 41.38L81.43 37.8H81.96C82.37 39.06 83.02 40.02 83.89 40.7C84.73 41.38 85.76 41.7 86.94 41.7C88.53 41.7 89.71 41.15 90.49 40.06C91.27 38.96 91.64 37.55 91.64 35.84C91.64 34.13 91.27 32.75 90.55 31.81C89.83 30.88 88.74 30.39 87.31 30.39C86.53 30.39 85.78 30.58 85.1 30.94C84.38 31.29 83.57 32.04 82.61 33.1L81.36 32.1L83.35 19.95H94.28L94.31 19.94Z" fill="white"/>
<path d="M108.05 19.04L110.29 19.94L100.73 44.35L98.49 43.45L108.05 19.04Z" fill="white"/>
<path d="M126.71 22.42C128.17 24.39 128.89 27.55 128.89 31.83C128.89 36.11 128.14 39.12 126.68 41.02C125.22 42.92 123.22 43.89 120.7 43.89C118.18 43.89 116.18 42.92 114.72 41.02C113.26 39.12 112.51 36.05 112.51 31.83C112.51 27.61 113.26 24.38 114.72 22.42C116.18 20.46 118.18 19.49 120.7 19.49C123.22 19.49 125.25 20.46 126.71 22.42ZM117.86 24.36C117.3 25.91 117.02 28.39 117.02 31.84C117.02 35.1 117.3 37.48 117.89 39C118.45 40.55 119.38 41.32 120.69 41.32C122 41.32 122.93 40.55 123.52 39C124.08 37.48 124.36 35.1 124.36 31.84C124.36 28.39 124.08 25.91 123.55 24.36C122.99 22.84 122.02 22.07 120.68 22.07C119.34 22.07 118.38 22.84 117.85 24.36H117.86Z" fill="white"/>
<path d="M142.22 39.42H132.38V36.33L142.69 19.95H146.65V35.94H150.11V39.42H146.65V43.45H142.23V39.42H142.22ZM135.24 35.93H142.22V25.06L135.24 35.93Z" fill="white"/>
<path d="M160.72 19.04L162.96 19.94L153.4 44.35L151.16 43.45L160.72 19.04Z" fill="white"/>
<path d="M179.38 22.42C180.84 24.39 181.56 27.55 181.56 31.83C181.56 36.11 180.81 39.12 179.35 41.02C177.89 42.92 175.89 43.89 173.37 43.89C170.85 43.89 168.85 42.92 167.39 41.02C165.93 39.12 165.18 36.05 165.18 31.83C165.18 27.61 165.93 24.38 167.39 22.42C168.85 20.46 170.85 19.49 173.37 19.49C175.89 19.49 177.92 20.46 179.38 22.42ZM170.53 24.36C169.97 25.91 169.69 28.39 169.69 31.84C169.69 35.1 169.97 37.48 170.56 39C171.12 40.55 172.05 41.32 173.36 41.32C174.67 41.32 175.6 40.55 176.19 39C176.75 37.48 177.03 35.1 177.03 31.84C177.03 28.39 176.75 25.91 176.22 24.36C175.66 22.84 174.69 22.07 173.35 22.07C172.01 22.07 171.05 22.84 170.52 24.36H170.53Z" fill="white"/>
<path d="M191.77 24.58L187.35 27.77L186.66 25.29L193.98 19.94H196.19V43.44H191.77V24.58Z" fill="white"/>
<path d="M205.57 18.78H232.6V21.49H218.37C216.31 23.94 214.23 26 212.08 27.71C216.53 27.48 220.89 27.29 225.22 27.07C224.19 26.1 223.1 25.17 221.95 24.23L224.88 21.91C227.75 24.84 230.24 27.81 232.35 30.81L230.23 32.36C229.42 31.36 228.55 30.39 227.61 29.43C225.4 29.59 223.22 29.78 221.04 30.01V34.75H231.75V37.46H221.04V42.36H233.31V45.13H204.85V42.36H217.12V37.46H206.66V34.75H217.12V30.4C214.13 30.69 211.14 30.98 208.12 31.33L207.31 27.91C208.4 27.3 209.52 26.49 210.64 25.43C211.51 24.62 212.6 23.3 213.94 21.5H205.56V18.79L205.57 18.78Z" fill="white"/>
<path d="M237.59 22.59C238.49 21.59 239.55 20.85 240.77 20.3C241.95 19.75 243.29 19.49 244.79 19.49C247.19 19.49 248.99 20.1 250.27 21.3C251.52 22.49 252.14 24.01 252.14 25.85C252.14 28.11 250.65 30.69 247.69 33.59C244.7 36.49 242.36 38.59 240.65 39.84H252.11V43.45H237.63V40.87C239.81 38.74 242.02 36.16 244.23 33.1C246.44 30.04 247.56 27.55 247.56 25.62C247.56 24.49 247.25 23.59 246.63 22.98C246.01 22.37 245.2 22.08 244.23 22.08C242.98 22.08 241.96 22.37 241.12 22.95C240.28 23.56 239.59 24.47 239.06 25.66H238.53L237.6 22.6L237.59 22.59Z" fill="white"/>
<path d="M270.89 22.42C272.35 24.39 273.07 27.55 273.07 31.83C273.07 36.11 272.32 39.12 270.86 41.02C269.4 42.92 267.4 43.89 264.88 43.89C262.36 43.89 260.36 42.92 258.9 41.02C257.44 39.12 256.69 36.05 256.69 31.83C256.69 27.61 257.44 24.38 258.9 22.42C260.36 20.46 262.36 19.49 264.88 19.49C267.4 19.49 269.43 20.46 270.89 22.42ZM262.04 24.36C261.48 25.91 261.2 28.39 261.2 31.84C261.2 35.1 261.48 37.48 262.07 39C262.63 40.55 263.56 41.32 264.87 41.32C266.18 41.32 267.11 40.55 267.7 39C268.26 37.48 268.54 35.1 268.54 31.84C268.54 28.39 268.26 25.91 267.73 24.36C267.17 22.84 266.2 22.07 264.86 22.07C263.52 22.07 262.56 22.84 262.03 24.36H262.04Z" fill="white"/>
<path d="M277.83 22.59C278.73 21.59 279.79 20.85 281.01 20.3C282.19 19.75 283.53 19.49 285.03 19.49C287.43 19.49 289.23 20.1 290.51 21.3C291.76 22.49 292.38 24.01 292.38 25.85C292.38 28.11 290.89 30.69 287.93 33.59C284.94 36.49 282.6 38.59 280.89 39.84H292.35V43.45H277.87V40.87C280.05 38.74 282.26 36.16 284.47 33.1C286.68 30.04 287.8 27.55 287.8 25.62C287.8 24.49 287.49 23.59 286.87 22.98C286.25 22.37 285.44 22.08 284.47 22.08C283.22 22.08 282.2 22.37 281.36 22.95C280.52 23.56 279.83 24.47 279.3 25.66H278.77L277.84 22.6L277.83 22.59Z" fill="white"/>
<path d="M311.28 19.94V23.55H302.25L301.25 29.77C301.94 29.22 302.65 28.77 303.4 28.42C304.15 28.1 305.08 27.94 306.17 27.94C308.13 27.94 309.81 28.62 311.15 29.97C312.49 31.36 313.17 33.23 313.17 35.61C313.17 38.16 312.39 40.19 310.83 41.67C309.27 43.15 307.12 43.89 304.35 43.89C303.2 43.89 302.05 43.7 300.89 43.31C299.73 42.92 298.55 42.28 297.4 41.38L298.4 37.8H298.93C299.34 39.06 299.99 40.02 300.86 40.7C301.7 41.38 302.73 41.7 303.91 41.7C305.5 41.7 306.68 41.15 307.46 40.06C308.24 38.96 308.61 37.55 308.61 35.84C308.61 34.13 308.24 32.75 307.52 31.81C306.8 30.88 305.71 30.39 304.28 30.39C303.5 30.39 302.75 30.58 302.07 30.94C301.35 31.29 300.54 32.04 299.58 33.1L298.33 32.1L300.32 19.95H311.25L311.28 19.94Z" fill="white"/>
<path d="M325.02 19.04L327.26 19.94L317.7 44.35L315.46 43.45L325.02 19.04Z" fill="white"/>
<path d="M343.67 22.42C345.13 24.39 345.85 27.55 345.85 31.83C345.85 36.11 345.1 39.12 343.64 41.02C342.18 42.92 340.18 43.89 337.66 43.89C335.14 43.89 333.14 42.92 331.68 41.02C330.22 39.12 329.47 36.05 329.47 31.83C329.47 27.61 330.22 24.38 331.68 22.42C333.14 20.46 335.14 19.49 337.66 19.49C340.18 19.49 342.21 20.46 343.67 22.42ZM334.83 24.36C334.27 25.91 333.99 28.39 333.99 31.84C333.99 35.1 334.27 37.48 334.86 39C335.42 40.55 336.35 41.32 337.66 41.32C338.97 41.32 339.9 40.55 340.49 39C341.05 37.48 341.33 35.1 341.33 31.84C341.33 28.39 341.05 25.91 340.52 24.36C339.96 22.84 338.99 22.07 337.65 22.07C336.31 22.07 335.35 22.84 334.82 24.36H334.83Z" fill="white"/>
<path d="M362.33 19.65C362.8 19.75 363.2 19.94 363.61 20.17L363.27 21.17C363.15 21.14 362.96 21.11 362.74 21.07C362.52 21.04 362.27 21.04 362.05 21.04C361.02 21.04 360.03 21.27 359.12 21.75C358.19 22.23 357.31 22.94 356.54 23.94C355.76 24.87 355.17 25.97 354.76 27.16C354.36 28.39 354.14 29.71 354.11 31.16C354.76 30.1 355.54 29.29 356.41 28.81C357.25 28.33 358.22 28.07 359.28 28.07C361.43 28.07 363.11 28.78 364.29 30.17C365.47 31.56 366.07 33.39 366.07 35.68C366.07 38.36 365.35 40.39 363.89 41.77C362.43 43.19 360.53 43.9 358.13 43.9C356.88 43.9 355.76 43.74 354.77 43.38C353.74 43.03 352.9 42.51 352.19 41.77C351.32 40.87 350.66 39.64 350.26 38.09C349.82 36.58 349.61 34.9 349.61 33.09C349.61 31.16 349.89 29.38 350.48 27.74C351.04 26.13 351.88 24.68 352.97 23.42C354.06 22.1 355.27 21.13 356.61 20.45C357.95 19.81 359.35 19.48 360.81 19.48C361.34 19.48 361.87 19.54 362.34 19.64L362.33 19.65ZM360.56 32.03C359.91 30.97 359.06 30.42 358.01 30.42C356.89 30.42 355.99 30.9 355.33 31.87C354.68 32.87 354.3 34.13 354.27 35.71C354.27 36.58 354.36 37.39 354.52 38.1C354.68 38.84 354.92 39.45 355.24 40C355.89 41.13 356.83 41.71 357.98 41.71C359.13 41.71 360 41.19 360.63 40.13C361.22 39.07 361.53 37.68 361.53 35.91C361.53 34.43 361.22 33.14 360.56 32.04V32.03Z" fill="white"/>
<path d="M377.69 19.04L379.93 19.94L370.37 44.35L368.13 43.45L377.69 19.04Z" fill="white"/>
<path d="M395.38 21.2C396.69 22.33 397.34 23.94 397.34 26C397.34 27.1 397.03 28.1 396.44 28.97C395.85 29.84 394.98 30.52 393.82 30.94C395.41 31.39 396.53 32.1 397.21 33.04C397.86 34.01 398.21 35.17 398.21 36.49C398.21 38.84 397.46 40.65 395.97 41.97C394.44 43.29 392.33 43.94 389.62 43.9C388.47 43.9 387.35 43.71 386.26 43.35C385.14 43 383.99 42.32 382.77 41.35L383.83 37.67H384.36C384.76 39.06 385.42 40.06 386.32 40.73C387.22 41.41 388.22 41.73 389.37 41.73C390.58 41.73 391.58 41.31 392.42 40.47C393.23 39.66 393.63 38.31 393.63 36.47C393.63 34.99 393.23 33.86 392.38 33.08C391.54 32.34 390.26 31.89 388.58 31.76V30.66C390.17 30.47 391.26 29.95 391.85 29.08C392.44 28.24 392.75 27.18 392.75 25.86C392.75 24.44 392.47 23.38 391.91 22.7C391.32 22.02 390.54 21.67 389.54 21.67C388.54 21.67 387.64 22.03 386.89 22.7C386.14 23.37 385.43 24.51 384.71 26.02H384.18L383.25 22.67C384.03 21.67 385.02 20.86 386.27 20.32C387.48 19.77 388.7 19.48 389.85 19.48C392.19 19.48 394.02 20.06 395.36 21.19L395.38 21.2Z" fill="white"/>
<path d="M416.46 22.42C417.92 24.39 418.64 27.55 418.64 31.83C418.64 36.11 417.89 39.12 416.43 41.02C414.97 42.92 412.97 43.89 410.45 43.89C407.93 43.89 405.93 42.92 404.47 41.02C403.01 39.12 402.26 36.05 402.26 31.83C402.26 27.61 403.01 24.38 404.47 22.42C405.93 20.46 407.93 19.49 410.45 19.49C412.97 19.49 415 20.46 416.46 22.42ZM407.62 24.36C407.06 25.91 406.78 28.39 406.78 31.84C406.78 35.1 407.06 37.48 407.65 39C408.21 40.55 409.14 41.32 410.45 41.32C411.76 41.32 412.69 40.55 413.28 39C413.84 37.48 414.12 35.1 414.12 31.84C414.12 28.39 413.84 25.91 413.31 24.36C412.75 22.84 411.78 22.07 410.44 22.07C409.1 22.07 408.14 22.84 407.61 24.36H407.62Z" fill="white"/>
</svg>
