<svg width="350" height="65" viewBox="0 0 350 65" fill="none" xmlns="http://www.w3.org/2000/svg">
<path d="M341.36 21.14C338.41 13.93 333.21 12.27 329.81 12.01C330.38 11.29 330.72 10.39 330.72 9.40002C330.72 7.08002 328.84 5.19 326.51 5.19C325.7 5.19 324.94 5.42001 324.3 5.82001C324.49 5.34001 324.59 4.81001 324.59 4.26001C324.59 1.91001 322.68 0 320.33 0H29.65C27.3 0 25.39 1.91001 25.39 4.26001C25.39 4.81001 25.49 5.34001 25.68 5.82001C25.04 5.42001 24.28 5.19 23.47 5.19C21.15 5.19 19.26 7.07002 19.26 9.40002C19.26 10.38 19.6 11.29 20.17 12.01C16.77 12.27 11.58 13.93 8.62 21.14C3.97 32.48 0 32.49 0 32.49C0 32.49 3.97 32.5 8.62 43.84C11.57 51.05 16.77 52.71 20.17 52.97C19.6 53.69 19.26 54.59 19.26 55.58C19.26 57.9 21.14 59.79 23.47 59.79C24.28 59.79 25.04 59.56 25.68 59.16C25.49 59.64 25.39 60.17 25.39 60.72C25.39 63.07 27.3 64.98 29.65 64.98H320.34C322.69 64.98 324.6 63.07 324.6 60.72C324.6 60.17 324.5 59.64 324.31 59.16C324.95 59.56 325.71 59.79 326.52 59.79C328.84 59.79 330.73 57.91 330.73 55.58C330.73 54.6 330.39 53.69 329.82 52.97C333.22 52.71 338.41 51.05 341.37 43.84C346.02 32.5 349.99 32.49 349.99 32.49C349.99 32.49 346.02 32.48 341.37 21.14H341.36Z" fill="url(#paint0_linear_27_5759)"/>
<path d="M63.43 39.51C62.52 42.21 61.04 45.28 59.78 47.19C59.13 46.63 57.75 45.65 56.96 45.17C58.19 43.41 59.38 40.86 60.14 38.54L63.43 39.51ZM68.5 37.34V49.78H64.34V37.34H57.61V33.59H64.34V30.71H57.39V27.04H60.9C60.72 25.92 60.28 24.3 59.85 23.14L62.82 22.39H57.94V18.76H64.13C63.81 17.75 63.41 16.7 63.04 15.8L67.35 14.71C67.89 15.95 68.54 17.48 68.98 18.76H74.15V22.39H69.63L72.56 22.99C72.02 24.41 71.47 25.87 70.93 27.04H74.69V30.71H68.5V33.59H74.11V37.34H68.5ZM63.29 22.39C63.83 23.63 64.3 25.24 64.48 26.28L61.87 27.03H67.08C67.62 25.68 68.27 23.77 68.64 22.39H63.29ZM90.82 31.49H87.45V49.88H83.25V31.49H79.88V31.94C79.88 37.45 79.41 45.16 76.33 49.96C75.61 49.17 73.91 47.75 73 47.3C73.69 46.21 74.23 44.98 74.63 43.67L72.06 45.32C71.48 43.82 70.25 41.43 69.24 39.7L72.06 38.13C73.04 39.63 74.16 41.61 74.77 43.04C75.78 39.44 75.89 35.4 75.89 31.95V18.61C79.83 17.86 84.21 16.7 86.85 15.43L90.14 18.69C87.17 19.93 83.41 20.83 79.86 21.5V27.38H90.79V31.5L90.82 31.49Z" fill="#322206"/>
<path d="M129.02 44.75C129.02 46.92 128.66 48.12 127.36 48.87C126.13 49.62 124.28 49.73 121.61 49.73C121.47 48.49 120.89 46.51 120.34 45.35C121.89 45.46 123.6 45.42 124.14 45.39C124.68 45.39 124.86 45.2 124.86 44.68V37.38H119.18C118.64 41.95 117.52 46.71 115.09 50.19C114.33 49.48 112.59 48.35 111.58 47.9C111.36 48.16 111.11 48.39 110.78 48.58C109.66 49.25 108.03 49.37 105.71 49.37C105.6 48.25 105.06 46.45 104.55 45.4C105.82 45.47 107.19 45.47 107.66 45.44C108.09 45.44 108.24 45.25 108.24 44.8V37.38H103.39C102.96 41.91 101.98 46.67 99.8799 50.12C99.1199 49.45 97.4199 48.32 96.4099 47.87C99.4899 42.96 99.6999 35.66 99.6999 30.19V16.7H112.26V44.79C112.26 45.8 112.19 46.59 111.97 47.22C115.23 42.01 115.52 34.75 115.52 29.28V16.69H129.02V44.75ZM108.25 33.4V28.98H103.69V30.14C103.69 31.19 103.69 32.24 103.62 33.4H108.25ZM103.69 20.74V25.05H108.25V20.74H103.69ZM124.86 33.4V28.98H119.61V29.28C119.61 30.55 119.57 31.94 119.5 33.4H124.85H124.86ZM119.61 20.74V25.05H124.86V20.74H119.61Z" fill="#322206"/>
<path d="M166.24 29.92C164.9 34.98 162.73 38.95 159.87 42.09C162.76 43.81 166.2 45.09 170.25 45.84C169.31 46.78 168.04 48.69 167.46 49.89C163.12 48.92 159.5 47.34 156.42 45.17C153.63 47.27 150.38 48.88 146.83 50C146.29 48.88 145.24 47.12 144.4 46.22C147.58 45.4 150.52 44.05 153.01 42.25C151.13 40.23 149.5 37.9 148.2 35.17C146.54 40.11 144.04 45.02 140.13 48.69C139.23 47.53 137.85 46.37 136.44 45.54C142.7 40.22 145.09 31.75 146.06 24.94H137.81V20.59H146.57C146.75 18.16 146.79 16.17 146.86 15.01H151.35C151.28 16.36 151.21 18.31 150.99 20.59H169.26V24.94H150.52C150.34 26.18 150.12 27.45 149.83 28.8H162.49L163.29 28.61L166.22 29.92H166.24ZM151.55 33.11C152.78 35.51 154.34 37.64 156.33 39.4C158.03 37.64 159.48 35.5 160.49 33.11H151.55Z" fill="#322206"/>
<path d="M209.84 42.1H201.77V45.73C201.77 47.79 201.41 48.84 199.92 49.44C198.47 50 196.45 50.04 193.7 50.04C193.52 48.84 192.98 47.27 192.47 46.14C194.21 46.22 196.27 46.22 196.85 46.22C197.43 46.18 197.61 46.07 197.61 45.58V42.1H187.41C188.93 43.22 190.45 44.53 191.28 45.55L188.1 48.4C187.05 46.94 184.63 44.8 182.67 43.42L184.19 42.11H176.95V38.59H197.61V37.2C190.48 37.35 183.64 37.46 178.58 37.5L178.47 34.32C181.87 34.36 186.32 34.32 191.21 34.32V32.97H180.79V22.18H191.21V20.83H177.93V17.46H191.21V15.1H195.41V17.46H208.62V20.83H195.41V22.18H206.34V32.97H203.91C205.72 33.94 207.42 35.07 208.58 35.97L205.94 38.26C205.51 37.89 205 37.44 204.42 37.02L201.78 37.09V38.59H209.85V42.11L209.84 42.1ZM184.8 26.25H191.21V24.86H184.8V26.25ZM191.2 30.22V28.8H184.79V30.22H191.2ZM195.4 24.86V26.25H202.13V24.86H195.4ZM202.13 30.22V28.8H195.4V30.22H202.13ZM195.4 34.27L199.96 34.23C199.45 34 198.95 33.74 198.48 33.55L199.2 32.95H195.4V34.26V34.27Z" fill="#322206"/>
<path d="M248.72 36.59C248.72 36.59 248.72 37.53 248.68 37.98C248.39 44.95 248.03 47.61 247.23 48.62C246.65 49.41 245.93 49.67 245.13 49.78C244.37 49.93 243.14 49.93 241.87 49.89C241.83 49.48 241.76 48.95 241.62 48.47L240.06 49.15C239.95 48.85 239.81 48.55 239.66 48.25C234.09 48.66 228.33 49.04 224.17 49.3L223.92 46.42C226.16 46.35 229.02 46.2 232.17 46.04V44.84H226.05V41.69C225.58 42.03 225.07 42.36 224.6 42.66C224.13 41.99 223.26 41.16 222.54 40.6C221.96 44.01 221.13 47.27 219.75 49.93C218.95 49.26 217.11 48.17 216.02 47.76C219.02 41.99 219.28 33.49 219.28 27.57V16.44H248.05V23.86H245.55L246.49 25.58C244.72 26.33 242.33 26.82 240.59 27.12C242.83 27.38 245.15 27.87 246.6 28.32L245.91 30.23H247.29V35.47H232.24C231.99 35.84 231.73 36.22 231.44 36.59H248.7H248.72ZM223.47 27.52C223.47 31 223.32 35.42 222.67 39.73C224.91 38.46 226.65 36.96 227.84 35.46H224.87V30.22H225.59L224.97 28.01C226.49 27.79 228.59 27.41 230.8 26.96C229.35 26.55 227.43 26.1 225.7 25.87L226.32 23.96C228.53 24.22 230.95 24.67 232.47 25.16L231.85 26.81L233.22 26.55L233.29 28.72C230.94 29.28 228.55 29.84 226.56 30.22H245.34C243.64 29.7 241.25 29.21 239.12 28.91L239.74 27L240.5 27.07L239.67 25.27C240.97 25.05 242.89 24.37 244.34 23.85H223.46V27.52H223.47ZM223.47 19.25V21.01H243.88V19.25H223.47ZM229.26 39.06C228.9 39.43 228.54 39.77 228.14 40.11H232.19V39.06H229.26ZM231.17 32.02H228.24V33.67H231.17V32.02ZM232.19 43.07V41.87H229.15V43.07H232.19ZM238.12 29.73H234.18V24.37H238.12V29.73ZM237.44 32.02H234.44V33.67H237.44V32.02ZM240.84 44.83C241.38 45.5 241.89 46.18 242.25 46.89H243.05C243.41 46.89 243.67 46.82 243.88 46.48C244.28 45.95 244.57 44.08 244.78 39.06H235.81V40.11H242.03V44.83H240.84ZM238.77 41.87H235.8V43.07H238.77V41.87ZM238.12 45.8C237.94 45.54 237.79 45.35 237.61 45.13L238.33 44.83H235.8V45.92L238.12 45.81V45.8ZM243.77 32.02H240.69V33.67H243.77V32.02Z" fill="#322206"/>
<path d="M276.24 51.88C285.5 51.88 293.03 44.3501 293.03 35.0901C293.03 25.8301 285.5 18.3 276.24 18.3C266.98 18.3 259.45 25.8301 259.45 35.0901C259.45 44.3501 266.98 51.88 276.24 51.88ZM266.62 33.3401C267.26 32.7001 268.31 32.7001 268.95 33.3401L273.81 38.2L283.52 28.4901C284.16 27.8501 285.21 27.8501 285.85 28.4901C286.49 29.1301 286.49 30.18 285.85 30.82L274.97 41.7C274.65 42.02 274.23 42.1801 273.8 42.1801C273.37 42.1801 272.96 42.02 272.63 41.7L266.61 35.6801C265.97 35.0401 265.97 33.99 266.61 33.35L266.62 33.3401Z" fill="#322206"/>
<defs>
<linearGradient id="paint0_linear_27_5759" x1="0.01" y1="32.49" x2="349.98" y2="32.49" gradientUnits="userSpaceOnUse">
<stop stop-color="#E4AB57"/>
<stop offset="0.2" stop-color="#FDF9C7"/>
<stop offset="0.31" stop-color="#F5ECB8"/>
<stop offset="0.44" stop-color="#E1CB90"/>
<stop offset="0.57" stop-color="#E1B97A"/>
<stop offset="0.71" stop-color="#E8C388"/>
<stop offset="0.88" stop-color="#FDF9C7"/>
</linearGradient>
</defs>
</svg>
