<svg width="513" height="361" viewBox="0 0 513 361" fill="none" xmlns="http://www.w3.org/2000/svg">
<path d="M412.971 24.9H145.511V80.1H412.971V24.9Z" fill="black"/>
<path d="M443.211 303.24L25.1108 298.21L28.5608 76.77H443.211V303.24Z" fill="black"/>
<path d="M42.4908 113.08C39.5508 113.96 36.7008 114.77 33.8408 115.57L32.1108 135.36C31.8108 138.81 30.9208 140.56 28.7808 141.59C26.5608 142.62 23.3908 142.84 18.4908 142.76C18.4108 141.15 17.7708 138.36 17.0508 136.6C20.1208 136.75 23.1908 136.75 24.0808 136.67C25.0308 136.67 25.5008 136.38 25.5908 135.28L27.1408 117.54C23.9108 118.42 20.9008 119.3 18.0508 120.11L16.9408 113.51C19.9408 112.78 23.6808 111.82 27.7308 110.8L29.0108 96.14H19.4808L20.0308 89.84H29.5608L30.8008 75.62H37.3208L36.0808 89.84H43.7008L43.1508 96.14H35.5308L34.4008 109.04L42.2108 106.91L42.4808 113.07L42.4908 113.08ZM85.4508 92.05L81.0608 142.19H74.2408L74.6508 137.5H48.1908L47.7308 142.7H41.2808L45.7108 92.05H61.9808L63.4108 75.7H69.8608L68.4308 92.05H85.4408H85.4508ZM48.7708 130.97H58.5908L59.7608 117.56H49.9408L48.7708 130.97ZM51.6108 98.57L50.5008 111.25H60.3208L61.4308 98.57H51.6108ZM75.2308 130.97L76.4008 117.56H66.2108L65.0408 130.97H75.2308ZM67.8808 98.57L66.7708 111.25H76.9608L78.0708 98.57H67.8808Z" fill="url(#paint0_linear_90_4246)" stroke="black" stroke-width="13.03" stroke-linejoin="round"/>
<path d="M188.311 80.97C187.021 78.3 185.261 75.12 183.121 71.94C118.021 74.74 107.951 74.99 100.101 77.54C99.5208 73.98 97.2708 64.82 95.5408 59.86C99.4308 58.97 102.431 56.68 106.971 52.74C111.641 48.8 126.311 33.67 135.641 18.66L153.631 26.67C145.461 37.22 135.641 47.65 125.841 56.55L171.081 55.41C167.191 50.45 163.281 45.75 159.581 41.55L174.791 31.89C185.011 42.95 199.021 58.72 204.941 69.53L188.301 80.97H188.311ZM102.141 84.79H190.901L185.861 142.39H165.901L166.451 136.16H116.601L116.051 142.39H97.1008L102.141 84.79ZM119.541 102.46L118.151 118.36H168.001L169.391 102.46H119.541Z" fill="url(#paint1_linear_90_4246)" stroke="black" stroke-width="22.6" stroke-linejoin="round"/>
<path d="M251.321 105C250.501 102.71 249.231 99.79 247.851 96.73L243.841 142.51H225.911L229.231 104.62C225.431 111.74 221.291 118.35 217.041 123.31C215.851 117.97 212.591 110.21 210.201 105.51C217.641 97.5 225.371 84.78 230.691 73.34H216.191L217.691 56.17H233.461L234.461 44.73C229.951 45.37 225.581 45.87 221.481 46.26C221.191 42.32 219.331 35.96 217.761 32.14C231.531 30.23 246.581 26.8 256.611 22.73L267.571 36.97C262.981 38.62 257.891 40.02 252.711 41.17L251.401 56.18H262.081L262.271 54.02H289.861L290.121 51.1H268.501L269.401 40.8H291.021L291.291 37.75H267.771L268.721 26.94H292.241L292.701 21.73H311.141L310.681 26.94H335.731L334.781 37.75H309.731L309.461 40.8H331.841L330.941 51.1H308.561L308.301 54.02H335.641L334.661 65.21H262.181L261.471 73.35H249.901L249.721 75.38C253.581 79.19 261.201 88.1 263.021 90.51L251.321 105.01V105ZM312.791 121.79C319.411 126.11 326.611 130.95 331.041 134.12L314.271 142.64C310.031 138.83 301.951 132.34 295.241 127.63L303.891 121.78H283.541L291.551 127.63C283.141 133.61 269.751 139.84 259.161 143.14C256.781 139.83 252.251 134.87 248.971 131.7C256.791 129.54 265.781 125.6 272.601 121.78H263.951L268.631 68.24H328.781L324.101 121.78H312.781L312.791 121.79ZM281.451 110.85H307.651L307.981 107.04H281.781L281.451 110.85ZM282.671 96.87H308.871L309.201 93.06H283.001L282.671 96.87ZM283.901 82.88H310.101L310.421 79.19H284.221L283.901 82.88Z" fill="url(#paint2_linear_90_4246)" stroke="black" stroke-width="22.6" stroke-linejoin="round"/>
<path d="M390.351 73.98C380.731 76.4 371.241 78.68 362.941 80.59L360.361 70.8H344.721L347.301 41.3H395.241L395.541 37.87H353.321L354.361 26.04H456.851L455.811 37.87H413.591L413.291 41.3H462.251L459.671 70.8H443.271L439.941 79.83C433.411 77.41 420.481 74.11 411.071 72.58L415.261 62.53C416.391 62.66 417.401 62.78 418.661 62.91L414.681 56.04C417.911 55.4 421.961 54.26 425.881 52.99H412.271L410.081 78.04H392.021L394.211 52.99H380.351C384.341 53.88 388.191 54.9 390.781 55.92L385.831 64.57L390.591 63.93L390.351 73.98ZM435.181 127C441.281 127 442.711 125.22 444.451 115.56C447.921 118.1 454.581 120.39 459.211 121.28C455.831 136.67 450.501 140.86 435.501 140.86H410.321C391.501 140.86 386.261 136.79 387.081 123.06H370.041L369.591 128.15H351.911L356.071 80.59H445.851L442.131 123.06H404.871C404.821 126.49 406.691 127 413.301 127H435.171H435.181ZM362.541 67.75C368.441 67.11 375.781 66.1 383.511 64.95C378.571 63.3 371.001 61.13 365.141 59.86L369.431 52.99H363.831L362.541 67.74V67.75ZM371.091 110.98H388.131L388.461 107.17H371.421L371.091 110.98ZM372.691 92.67L372.341 96.61H389.381L389.731 92.67H372.691ZM424.881 110.98L425.211 107.17H406.141L405.811 110.98H424.881ZM426.481 92.67H407.411L407.061 96.61H426.131L426.481 92.67ZM442.801 52.99H437.711L441.641 58.97C436.121 61 429.491 62.66 423.801 63.8C430.191 64.94 436.681 66.34 441.501 67.87L442.801 52.99Z" fill="url(#paint3_linear_90_4246)" stroke="black" stroke-width="22.6" stroke-linejoin="round"/>
<path d="M155.381 233.59C149.201 252.45 140.201 266.78 128.551 277.89C136.111 281.69 144.621 284.76 154.231 286.81C149.171 291.2 142.431 299.68 139.021 305.23C127.751 302.01 118.061 297.48 109.791 291.78C100.411 297.04 89.8208 301.14 78.2808 304.35C76.7808 299.82 73.7208 292.95 70.6208 288.27C69.5508 293.83 67.7408 297.77 63.8608 300.41C58.8908 303.77 52.9908 304.36 44.6608 304.36C44.6908 298.95 43.3108 289.74 41.4308 284.48C44.7808 284.63 48.7308 284.63 50.1908 284.63C51.6508 284.63 52.1408 284.05 52.2808 282.44L54.2708 259.63C51.6308 261.38 48.8608 262.99 46.2308 264.6L42.8408 253.2C40.3508 271.62 36.4308 291.36 30.2208 305.54C26.6908 302.47 18.4708 297.79 13.9308 296.18C22.4108 276.15 25.2808 246.62 27.1508 225.27L31.8408 171.62H80.9608L77.3908 212.41C92.0508 205.25 94.3208 196.04 95.0708 187.41L96.4408 171.77H148.781L146.061 202.91C145.691 207.15 145.681 208.9 147.441 208.9H151.831C154.021 208.9 157.721 208.46 159.681 207.73C159.681 212.85 159.511 219.72 159.681 224.4C157.251 225.42 153.731 225.57 150.661 225.57H143.791C127.421 225.57 124.811 218.55 126.211 202.62L127.191 191.36H113.891C112.101 205.1 105.711 219.72 86.2308 228.49C84.5808 225.57 80.4908 220.59 77.0108 216.94L71.0008 285.65C79.5008 283.75 87.3308 281.12 94.3608 277.61C88.4208 270.3 83.4508 261.97 79.6008 252.47L90.5508 249.25H77.8308L79.5608 229.51H138.331L142.191 228.78L155.361 233.6L155.381 233.59ZM46.0308 225.11C45.5308 230.81 44.9708 237.24 44.1008 243.82C47.6908 242.94 51.6008 241.63 55.9608 240.31L57.3008 224.96L51.0308 229.78C49.8808 227.88 48.2108 225.25 46.2508 222.62L46.0308 225.11ZM49.0408 190.76L47.6708 206.4L51.5608 203.77C53.8408 206.11 56.2308 208.89 58.4808 211.52L60.3008 190.76H49.0408ZM99.6208 249.24C102.581 255.53 106.771 261.08 112.031 266.2C117.731 261.23 122.451 255.67 126.531 249.24H99.6308H99.6208Z" fill="url(#paint4_linear_90_4246)" stroke="black" stroke-width="25.98" stroke-linejoin="round"/>
<path d="M299.221 270.58H242.501L239.431 305.67H218.381L221.451 270.58H193.971L211.971 277.01C203.021 287.39 189.251 297.77 177.751 303.91C174.571 300.11 167.581 293.09 163.331 289.88C174.411 285.2 186.021 277.89 192.791 270.58H165.601L167.051 254.06H300.671L299.221 270.58ZM213.661 187.4H175.211L176.661 170.88H305.021L303.571 187.4H263.811L263.311 193.1H295.031L291.771 230.38H179.931L183.191 193.1H213.161L213.661 187.4ZM184.641 250.11L186.021 234.32H284.851L283.471 250.11H184.641ZM200.831 215.47H211.211L211.871 207.87H201.491L200.821 215.47H200.831ZM230.651 215.47H241.471L242.141 207.87H231.321L230.651 215.47ZM243.921 187.4H233.101L232.601 193.1H243.421L243.921 187.4ZM278.031 303.91C272.171 297.33 258.851 287.54 248.451 281.1L265.011 270.57C275.181 276.27 289.011 285.34 296.011 292.21L278.031 303.91ZM262.011 207.86L261.351 215.46H272.021L272.691 207.86H262.021H262.011Z" fill="url(#paint5_linear_90_4246)" stroke="black" stroke-width="25.98" stroke-linejoin="round"/>
<path d="M375.541 200.3H388.151L387.721 205.26H375.111L374.251 215.06C373.981 218.13 373.071 219.57 370.601 220.22C368.051 220.94 364.271 220.94 358.781 220.94C358.661 219.37 358.111 217.41 357.581 215.98C361.421 216.18 365.471 216.11 366.461 216.05C367.581 215.98 367.931 215.72 368.011 214.81L368.841 205.27H345.451C348.671 208.01 352.961 212 355.101 214.48L350.211 218.07C348.281 215.52 344.021 211.21 340.691 208.21L344.931 205.27H330.301L330.731 200.31H369.271L369.621 196.33H375.891L375.541 200.31V200.3ZM342.541 170.58C340.391 173.45 337.941 176.13 335.611 178.09C334.791 177.04 333.021 174.89 331.791 173.91C336.131 170.64 340.301 165.55 342.831 160.45L348.111 162.02C347.481 163.2 346.871 164.24 346.121 165.42H361.931L361.481 170.58H350.701C352.511 172.28 354.431 174.24 355.551 175.68L351.321 179.21C350.171 177.45 347.481 174.57 345.371 172.55L347.831 170.59H342.541V170.58ZM392.381 165.41L391.921 170.64H378.721C380.521 172.47 382.481 174.76 383.451 176.32L378.961 179.85C377.961 177.89 375.531 174.95 373.501 172.86L376.441 170.64H370.691C368.861 173.65 366.731 176.32 364.651 178.41L364.471 178.21L364.301 180.11H387.751L387.301 185.27H363.851L363.421 190.17H383.081L382.661 194.94H336.801L337.221 190.17H357.141L357.571 185.27H334.311L334.761 180.11H358.021L358.341 176.45H362.461C361.731 175.8 360.941 175.21 360.381 174.82C364.211 171.36 367.621 165.94 369.731 160.51L375.171 161.82C374.671 163.06 374.171 164.24 373.621 165.41H392.371H392.381Z" fill="url(#paint6_linear_90_4246)" stroke="black" stroke-width="25.98" stroke-linejoin="round"/>
<path d="M417.681 162.87C415.421 167.77 412.701 172.73 409.821 177.31L406.001 220.94H400.381L403.401 186.45C401.641 188.67 399.961 190.63 398.171 192.46C397.781 190.96 396.361 187.76 395.451 186.25C401.801 180.18 408.111 170.7 412.211 161.17L417.681 162.87ZM453.371 214.21L452.921 219.37H409.411L409.861 214.21H415.871L419.041 177.96H430.211C430.671 176.39 431.231 174.5 431.721 172.6H416.371L416.831 167.37H432.961C433.481 165.15 433.931 162.99 434.231 161.1L440.611 161.36C440.121 163.25 439.541 165.34 438.971 167.37H455.761L455.301 172.6H437.471C436.911 174.49 436.291 176.39 435.691 177.96H451.171L448.001 214.21H453.361H453.371ZM421.291 214.21H442.391L442.801 209.51H421.701L421.291 214.21ZM422.501 200.43L422.081 205.2H443.181L443.601 200.43H422.501ZM444.381 191.54H423.281L422.871 196.18H443.971L444.381 191.54ZM424.061 182.53L423.651 187.17H444.751L445.161 182.53H424.061Z" fill="url(#paint7_linear_90_4246)" stroke="black" stroke-width="25.98" stroke-linejoin="round"/>
<path d="M346.511 282.74C338.131 285.22 329.221 287.7 322.521 289.6L321.531 283.79C324.331 283.2 327.801 282.29 331.551 281.31L332.831 266.68H324.991L325.481 261.06H333.321L334.431 248.32H325.941L326.431 242.7H348.841L348.351 248.32H340.311L339.201 261.06H346.581L346.091 266.68H338.711L337.571 279.68L346.141 277.33L346.521 282.75L346.511 282.74ZM375.281 293.64C376.651 293.64 377.001 292.66 377.771 286.06C378.861 287.04 381.201 287.95 382.671 288.35C381.421 296.71 379.791 298.87 375.541 298.87H369.861C364.631 298.87 363.541 297.17 364.021 291.75L365.231 277.97H359.871C357.781 288.42 353.881 295.67 340.261 299.72C339.801 298.28 338.441 295.87 337.301 294.76C349.261 291.69 352.231 286.14 353.921 277.97H348.561L351.701 242.04H382.731L379.591 277.97H371.031L369.831 291.69C369.681 293.45 369.921 293.65 371.291 293.65H375.271L375.281 293.64ZM354.691 272.87H374.031L374.511 267.38H355.171L354.691 272.87ZM355.581 262.68H374.921L375.401 257.19H356.061L355.581 262.68ZM356.471 252.49H375.811L376.281 247.07H356.941L356.471 252.49Z" fill="url(#paint8_linear_90_4246)" stroke="black" stroke-width="25.98" stroke-linejoin="round"/>
<path d="M422.281 264.12L421.591 272.02H443.471L442.991 277.51H421.111L419.841 292.08H444.861L444.371 297.63H388.321L388.811 292.08H413.371L414.641 277.51H393.081L393.561 272.02H415.121L415.811 264.12H402.161L402.461 260.72C399.251 262.29 395.991 263.72 392.621 264.9C391.931 263.14 390.431 260.78 389.061 259.28C401.541 255.56 413.991 248.37 421.031 238.77L426.491 241.32C425.831 242.17 425.231 243.02 424.571 243.8C430.411 250.2 440.841 256.41 450.391 259.28C448.901 260.59 446.801 263 445.751 264.57C442.651 263.46 439.521 261.89 436.411 260.13L436.061 264.11H422.281V264.12ZM402.961 278.16C405.141 281.62 407.331 286.39 408.111 289.46L402.621 291.75C401.971 288.68 399.861 283.78 397.821 280.12L402.961 278.16ZM433.621 258.5C428.791 255.43 424.271 251.84 420.701 247.92C416.551 252.04 411.801 255.56 406.641 258.5H433.621ZM425.001 289.86C427.501 286.72 430.671 281.76 432.361 278.17L438.051 280.33C435.211 284.44 431.951 288.89 429.471 291.83L425.001 289.87V289.86Z" fill="url(#paint9_linear_90_4246)" stroke="black" stroke-width="25.98" stroke-linejoin="round"/>
<path d="M42.5408 112.41C39.6008 113.29 36.7508 114.1 33.8908 114.9L32.1608 134.69C31.8608 138.14 30.9708 139.89 28.8308 140.92C26.6108 141.95 23.4408 142.17 18.5408 142.09C18.4608 140.48 17.8208 137.69 17.1008 135.93C20.1708 136.08 23.2408 136.08 24.1308 136C25.0808 136 25.5508 135.71 25.6408 134.61L27.1908 116.87C23.9608 117.75 20.9508 118.63 18.1008 119.44L16.9908 112.84C19.9908 112.11 23.7308 111.15 27.7808 110.13L29.0608 95.47H19.5308L20.0808 89.17H29.6108L30.8508 74.95H37.3708L36.1308 89.17H43.7508L43.2008 95.47H35.5808L34.4508 108.37L42.2608 106.24L42.5308 112.4L42.5408 112.41ZM85.5008 91.38L81.1108 141.52H74.2908L74.7008 136.83H48.2408L47.7808 142.03H41.3308L45.7608 91.38H62.0308L63.4608 75.03H69.9108L68.4808 91.38H85.4908H85.5008ZM48.8208 130.3H58.6408L59.8108 116.89H49.9908L48.8208 130.3ZM51.6608 97.8999L50.5508 110.58H60.3708L61.4808 97.8999H51.6608ZM75.2808 130.3L76.4508 116.89H66.2608L65.0908 130.3H75.2808ZM67.9308 97.8999L66.8208 110.58H77.0108L78.1208 97.8999H67.9308Z" fill="url(#paint10_linear_90_4246)"/>
<path d="M188.401 79.81C187.111 77.14 185.351 73.96 183.211 70.78C118.111 73.58 108.041 73.83 100.191 76.38C99.6109 72.82 97.3609 63.66 95.6309 58.7C99.5209 57.81 102.521 55.52 107.061 51.58C111.731 47.64 126.401 32.51 135.731 17.5L153.721 25.51C145.551 36.06 135.731 46.49 125.931 55.39L171.171 54.25C167.281 49.29 163.371 44.59 159.671 40.39L174.881 30.73C185.101 41.79 199.111 57.56 205.031 68.37L188.391 79.81H188.401ZM102.231 83.62H190.991L185.951 141.22H165.991L166.541 134.99H116.691L116.141 141.22H97.1909L102.231 83.62ZM119.631 101.3L118.241 117.2H168.091L169.481 101.3H119.631Z" fill="url(#paint11_linear_90_4246)"/>
<path d="M251.401 103.84C250.581 101.55 249.311 98.63 247.931 95.57L243.921 141.35H225.991L229.311 103.46C225.511 110.58 221.371 117.19 217.121 122.15C215.931 116.81 212.671 109.05 210.281 104.35C217.721 96.34 225.451 83.6199 230.771 72.1799H216.271L217.771 55.0099H233.541L234.541 43.5699C230.031 44.2099 225.661 44.7099 221.561 45.0999C221.271 41.1599 219.411 34.7999 217.841 30.9799C231.611 29.0699 246.661 25.6399 256.691 21.5699L267.651 35.8099C263.061 37.4599 257.971 38.8599 252.791 40.0099L251.481 55.0199H262.161L262.351 52.8599H289.941L290.201 49.9399H268.581L269.481 39.6399H291.101L291.371 36.5899H267.851L268.801 25.7799H292.321L292.781 20.5699H311.221L310.761 25.7799H335.811L334.861 36.5899H309.811L309.541 39.6399H331.921L331.021 49.9399H308.641L308.381 52.8599H335.721L334.741 64.0499H262.261L261.551 72.1899H249.981L249.801 74.2199C253.661 78.0299 261.281 86.94 263.101 89.35L251.401 103.85V103.84ZM312.881 120.62C319.501 124.94 326.701 129.78 331.131 132.95L314.361 141.47C310.121 137.66 302.041 131.17 295.331 126.46L303.981 120.61H283.631L291.641 126.46C283.231 132.44 269.841 138.67 259.251 141.97C256.871 138.66 252.341 133.7 249.061 130.53C256.881 128.37 265.871 124.43 272.691 120.61H264.041L268.721 67.07H328.871L324.191 120.61H312.871L312.881 120.62ZM281.541 109.69H307.741L308.071 105.88H281.871L281.541 109.69ZM282.761 95.6999H308.961L309.291 91.8899H283.091L282.761 95.6999ZM283.981 81.71H310.181L310.501 78.02H284.301L283.981 81.71Z" fill="url(#paint12_linear_90_4246)"/>
<mask id="mask0_90_4246" style="mask-type:luminance" maskUnits="userSpaceOnUse" x="114" y="83" width="94" height="83">
<g opacity="0.8">
<path d="M202.32 82.9999L114 159.8L207.12 165.56L202.32 82.9999Z" fill="white"/>
</g>
</mask>
<g mask="url(#mask0_90_4246)">
<path d="M188.201 79.86C186.911 77.19 185.151 74.01 183.011 70.83C117.911 73.63 107.841 73.88 99.9909 76.43C99.4109 72.87 97.1609 63.71 95.4309 58.75C99.3209 57.86 102.321 55.57 106.861 51.63C111.531 47.69 126.201 32.56 135.531 17.55L153.521 25.56C145.351 36.11 135.531 46.54 125.731 55.44L170.971 54.3C167.081 49.34 163.171 44.64 159.471 40.44L174.681 30.78C184.901 41.84 198.911 57.61 204.831 68.42L188.191 79.86H188.201ZM102.031 83.68H190.791L185.751 141.28H165.791L166.341 135.05H116.491L115.941 141.28H96.9909L102.031 83.68ZM119.431 101.35L118.041 117.25H167.891L169.281 101.35H119.431Z" fill="url(#paint13_linear_90_4246)"/>
</g>
<mask id="mask1_90_4246" style="mask-type:luminance" maskUnits="userSpaceOnUse" x="242" y="63" width="96" height="101">
<path d="M337.551 63.27L242.511 157.35L335.631 163.11L337.551 63.27Z" fill="white"/>
</mask>
<g mask="url(#mask1_90_4246)">
<path d="M251.211 103.9C250.391 101.61 249.121 98.69 247.741 95.63L243.731 141.41H225.801L229.121 103.52C225.321 110.64 221.181 117.25 216.931 122.21C215.741 116.87 212.481 109.11 210.091 104.41C217.531 96.4 225.261 83.68 230.581 72.24H216.081L217.581 55.0699H233.351L234.351 43.6299C229.841 44.2699 225.471 44.77 221.371 45.16C221.081 41.22 219.221 34.8599 217.651 31.0399C231.421 29.1299 246.471 25.6999 256.501 21.6299L267.461 35.8699C262.871 37.5199 257.781 38.9199 252.601 40.0699L251.291 55.0799H261.971L262.161 52.9199H289.751L290.011 49.9999H268.391L269.291 39.6999H290.911L291.181 36.6499H267.661L268.611 25.8399H292.131L292.591 20.6299H311.031L310.571 25.8399H335.621L334.671 36.6499H309.621L309.351 39.6999H331.731L330.831 49.9999H308.451L308.191 52.9199H335.531L334.551 64.1099H262.071L261.361 72.2499H249.791L249.611 74.2799C253.471 78.0899 261.091 87 262.911 89.41L251.211 103.91V103.9ZM312.681 120.68C319.301 125 326.501 129.84 330.931 133.01L314.161 141.53C309.921 137.72 301.841 131.23 295.131 126.52L303.781 120.67H283.431L291.441 126.52C283.031 132.5 269.641 138.73 259.051 142.03C256.671 138.72 252.141 133.76 248.861 130.59C256.681 128.43 265.671 124.49 272.491 120.67H263.841L268.521 67.13H328.671L323.991 120.67H312.671L312.681 120.68ZM281.341 109.75H307.541L307.871 105.94H281.671L281.341 109.75ZM282.571 95.7599H308.771L309.101 91.9499H282.901L282.571 95.7599ZM283.791 81.77H309.991L310.311 78.0799H284.111L283.791 81.77Z" fill="url(#paint14_linear_90_4246)" fill-opacity="0.6"/>
</g>
<path style="mix-blend-mode:screen" d="M236.931 40.33C247.411 61.09 231.481 89.87 201.361 104.53C171.241 119.19 138.321 114.32 127.841 93.56C117.361 72.8 133.291 44.05 163.441 29.34C193.591 14.64 226.451 19.55 236.931 40.32V40.33Z" fill="url(#paint15_radial_90_4246)"/>
<path d="M152.761 233.61C146.501 252.7 137.391 267.2 125.601 278.45C133.251 282.3 141.861 285.4 151.591 287.48C146.471 291.92 139.651 300.5 136.201 306.13C124.801 302.87 114.991 298.29 106.611 292.52C97.1208 297.85 86.4008 301.99 74.7208 305.25C73.2008 300.66 70.1108 293.71 66.9708 288.97C65.8908 294.59 64.0608 298.59 60.1208 301.25C55.0908 304.65 49.1208 305.25 40.6808 305.25C40.7108 299.77 39.3108 290.45 37.4108 285.12C40.8008 285.27 44.8008 285.27 46.2808 285.27C47.7608 285.27 48.2608 284.68 48.4008 283.05L50.4208 259.97C47.7508 261.75 44.9408 263.37 42.2908 265L38.8608 253.46C36.3408 272.11 32.3708 292.08 26.0908 306.44C22.5108 303.33 14.2008 298.6 9.61084 296.97C18.1908 276.7 21.1008 246.8 22.9908 225.2L27.7408 170.89H77.4608L73.8508 212.18C88.6908 204.93 90.9908 195.61 91.7508 186.88L93.1408 171.05H146.121L143.361 202.57C142.981 206.86 142.981 208.64 144.751 208.64H149.191C151.411 208.64 155.151 208.2 157.141 207.46C157.141 212.64 156.971 219.59 157.141 224.33C154.681 225.37 151.121 225.51 148.011 225.51H141.051C124.481 225.51 121.841 218.41 123.251 202.28L124.251 190.89H110.781C108.971 204.8 102.501 219.6 82.7808 228.48C81.1108 225.52 76.9708 220.49 73.4408 216.79L67.3508 286.34C75.9508 284.42 83.8808 281.75 91.0008 278.2C84.9908 270.8 79.9508 262.37 76.0608 252.75L87.1508 249.49H74.2808L76.0308 229.51H135.521L139.431 228.77L152.771 233.65L152.761 233.61ZM42.0808 225.03C41.5708 230.8 41.0108 237.31 40.1308 243.97C43.7608 243.08 47.7208 241.75 52.1308 240.42L53.4908 224.88L47.1408 229.76C45.9808 227.84 44.2908 225.17 42.3008 222.51L42.0808 225.03ZM45.1208 190.25L43.7308 206.08L47.6608 203.42C49.9708 205.79 52.3908 208.6 54.6708 211.26L56.5108 190.25H45.1208ZM96.3308 249.44C99.3208 255.8 103.571 261.43 108.891 266.61C114.661 261.58 119.441 255.96 123.561 249.44H96.3308Z" fill="url(#paint16_linear_90_4246)"/>
<path d="M298.351 271.05H240.931L237.821 306.57H216.511L219.621 271.05H191.801L210.021 277.56C200.961 288.07 187.021 298.57 175.381 304.79C172.171 300.94 165.091 293.84 160.791 290.58C172.011 285.84 183.751 278.45 190.611 271.05H163.091L164.551 254.33H299.801L298.341 271.05H298.351ZM211.751 186.85H172.831L174.291 170.13H304.211L302.751 186.85H262.501L261.991 192.62H294.101L290.801 230.35H177.601L180.901 192.62H211.241L211.751 186.85ZM182.381 250.33L183.781 234.35H283.811L282.411 250.33H182.381ZM198.761 215.26H209.271L209.941 207.56H199.431L198.761 215.26ZM228.951 215.26H239.901L240.571 207.56H229.621L228.951 215.26ZM242.391 186.85H231.441L230.941 192.62H241.891L242.391 186.85ZM276.901 304.79C270.971 298.13 257.481 288.22 246.961 281.71L263.731 271.06C274.031 276.83 288.021 286.01 295.111 292.96L276.911 304.8L276.901 304.79ZM260.701 207.56L260.031 215.26H270.831L271.501 207.56H260.701Z" fill="url(#paint17_linear_90_4246)"/>
<path d="M375.611 199.91H388.371L387.931 204.93H375.171L374.301 214.85C374.031 217.96 373.111 219.41 370.601 220.07C368.021 220.8 364.191 220.8 358.631 220.8C358.501 219.21 357.951 217.23 357.421 215.78C361.301 215.98 365.411 215.91 366.411 215.85C367.541 215.78 367.891 215.52 367.971 214.59L368.811 204.94H345.141C348.401 207.72 352.741 211.75 354.901 214.26L349.951 217.9C347.991 215.32 343.681 210.96 340.311 207.92L344.601 204.94H329.791L330.231 199.92H369.241L369.591 195.89H375.941L375.591 199.92L375.611 199.91ZM342.211 169.82C340.041 172.73 337.551 175.44 335.201 177.42C334.371 176.36 332.571 174.18 331.341 173.19C335.731 169.88 339.951 164.73 342.521 159.57L347.871 161.16C347.241 162.35 346.621 163.41 345.851 164.6H361.851L361.391 169.82H350.481C352.311 171.54 354.261 173.52 355.391 174.98L351.111 178.55C349.941 176.77 347.221 173.86 345.091 171.81L347.581 169.83H342.221L342.211 169.82ZM392.651 164.6L392.191 169.89H378.831C380.651 171.74 382.631 174.06 383.621 175.64L379.081 179.21C378.061 177.23 375.611 174.25 373.551 172.14L376.521 169.89H370.701C368.851 172.93 366.691 175.64 364.591 177.76L364.411 177.56L364.241 179.48H387.981L387.521 184.7H363.781L363.351 189.66H383.251L382.831 194.49H336.411L336.831 189.66H357.001L357.431 184.7H333.891L334.351 179.48H357.891L358.211 175.78H362.381C361.641 175.12 360.841 174.52 360.281 174.13C364.161 170.63 367.611 165.14 369.751 159.65L375.251 160.97C374.741 162.23 374.241 163.42 373.681 164.61H392.661L392.651 164.6Z" fill="url(#paint18_linear_90_4246)"/>
<path d="M418.271 162.02C415.991 166.98 413.231 172 410.311 176.63L406.451 220.8H400.761L403.811 185.89C402.031 188.14 400.331 190.12 398.521 191.97C398.121 190.45 396.691 187.21 395.761 185.69C402.181 179.54 408.581 169.95 412.731 160.3L418.271 162.02ZM454.381 213.99L453.921 219.21H409.881L410.341 213.99H416.421L419.631 177.29H430.941C431.411 175.7 431.971 173.79 432.471 171.87H416.931L417.391 166.58H433.721C434.251 164.33 434.701 162.15 435.001 160.23L441.461 160.49C440.961 162.41 440.381 164.52 439.801 166.57H456.791L456.331 171.86H438.281C437.711 173.78 437.081 175.7 436.481 177.28H452.151L448.941 213.98H454.361L454.381 213.99ZM421.921 213.99H443.281L443.701 209.23H422.341L421.921 213.99ZM423.141 200.04L422.721 204.87H444.081L444.501 200.04H423.141ZM445.281 191.05H423.921L423.511 195.74H444.871L445.281 191.05ZM424.721 181.92L424.311 186.61H445.671L446.081 181.92H424.721Z" fill="url(#paint19_linear_90_4246)"/>
<path d="M346.231 283.35C337.741 285.86 328.731 288.37 321.951 290.29L320.941 284.4C323.771 283.8 327.291 282.88 331.081 281.89L332.381 267.08H324.441L324.941 261.39H332.881L334.011 248.5H325.411L325.911 242.81H348.591L348.091 248.5H339.961L338.831 261.39H346.301L345.801 267.08H338.331L337.181 280.24L345.851 277.86L346.231 283.35ZM375.341 294.39C376.731 294.39 377.081 293.4 377.861 286.72C378.961 287.71 381.331 288.64 382.821 289.03C381.551 297.49 379.901 299.68 375.611 299.68H369.861C364.571 299.68 363.461 297.96 363.941 292.47L365.161 278.52H359.741C357.631 289.1 353.681 296.44 339.901 300.54C339.431 299.09 338.061 296.64 336.901 295.52C349.011 292.41 352.011 286.79 353.731 278.53H348.311L351.491 242.16H382.901L379.721 278.53H371.061L369.851 292.41C369.691 294.2 369.941 294.39 371.331 294.39H375.361H375.341ZM354.501 273.37H374.071L374.561 267.82H354.991L354.501 273.37ZM355.411 263.05H374.981L375.471 257.5H355.901L355.411 263.05ZM356.311 252.74H375.881L376.361 247.25H356.791L356.311 252.74Z" fill="url(#paint20_linear_90_4246)"/>
<path d="M422.921 264.51L422.221 272.51H444.371L443.881 278.06H421.731L420.441 292.8H445.761L445.271 298.42H388.541L389.031 292.8H413.891L415.181 278.06H393.361L393.851 272.51H415.671L416.371 264.51H402.551L402.851 261.07C399.601 262.66 396.301 264.11 392.891 265.3C392.191 263.51 390.681 261.13 389.291 259.61C401.921 255.84 414.521 248.57 421.651 238.85L427.181 241.43C426.511 242.29 425.911 243.15 425.241 243.94C431.151 250.42 441.711 256.7 451.371 259.61C449.871 260.93 447.731 263.38 446.671 264.97C443.531 263.85 440.361 262.26 437.211 260.47L436.861 264.5H422.911L422.921 264.51ZM403.361 278.72C405.571 282.22 407.791 287.05 408.571 290.16L403.011 292.47C402.361 289.36 400.211 284.4 398.161 280.7L403.361 278.72ZM434.391 258.82C429.511 255.71 424.931 252.08 421.311 248.11C417.111 252.28 412.301 255.85 407.081 258.82H434.391ZM425.671 290.56C428.201 287.39 431.411 282.36 433.121 278.72L438.881 280.9C436.001 285.06 432.701 289.56 430.191 292.54L425.671 290.56Z" fill="url(#paint21_linear_90_4246)"/>
<g opacity="0.59">
<mask id="mask2_90_4246" style="mask-type:luminance" maskUnits="userSpaceOnUse" x="52" y="192" width="113" height="140">
<path d="M164.171 192.09L52.4508 325.04L160.821 331.74L164.171 192.09Z" fill="white"/>
</mask>
<g mask="url(#mask2_90_4246)">
<path d="M152.531 233.68C146.271 252.77 137.161 267.27 125.371 278.52C133.021 282.37 141.631 285.47 151.361 287.55C146.241 291.99 139.421 300.57 135.971 306.2C124.571 302.94 114.761 298.36 106.381 292.59C96.8909 297.92 86.1709 302.06 74.4909 305.32C72.9709 300.73 69.8809 293.78 66.7409 289.04C65.6609 294.66 63.8309 298.66 59.8909 301.32C54.8609 304.72 48.8909 305.32 40.4509 305.32C40.4809 299.84 39.0809 290.52 37.1809 285.19C40.5709 285.34 44.5709 285.34 46.0509 285.34C47.5309 285.34 48.0309 284.75 48.1709 283.12L50.1909 260.04C47.5209 261.82 44.7109 263.44 42.0609 265.07L38.6309 253.53C36.1109 272.18 32.1409 292.15 25.8609 306.51C22.2809 303.4 13.9709 298.67 9.38086 297.04C17.9609 276.77 20.8709 246.87 22.7609 225.27L27.5109 170.96H77.2309L73.6209 212.25C88.4609 205 90.7609 195.68 91.5209 186.95L92.9109 171.12H145.891L143.131 202.64C142.751 206.93 142.751 208.71 144.521 208.71H148.961C151.181 208.71 154.921 208.27 156.911 207.53C156.911 212.71 156.741 219.66 156.911 224.4C154.451 225.44 150.891 225.58 147.781 225.58H140.821C124.251 225.58 121.611 218.48 123.021 202.35L124.021 190.96H110.551C108.741 204.87 102.271 219.67 82.5509 228.55C80.8809 225.59 76.7409 220.56 73.2109 216.86L67.1209 286.41C75.7209 284.49 83.6509 281.82 90.7709 278.27C84.7609 270.87 79.7209 262.44 75.8309 252.82L86.9209 249.56H74.0509L75.8009 229.58H135.291L139.201 228.84L152.541 233.72L152.531 233.68ZM41.8609 225.09C41.3509 230.86 40.7909 237.37 39.9109 244.03C43.5409 243.14 47.5009 241.81 51.9109 240.48L53.2709 224.94L46.9209 229.82C45.7609 227.9 44.0709 225.23 42.0809 222.57L41.8609 225.09ZM44.9009 190.32L43.5109 206.15L47.4409 203.49C49.7509 205.86 52.1709 208.67 54.4509 211.33L56.2909 190.32H44.9009ZM96.1009 249.51C99.0909 255.87 103.341 261.5 108.661 266.68C114.431 261.65 119.211 256.03 123.331 249.51H96.1009Z" fill="url(#paint22_linear_90_4246)"/>
</g>
</g>
<g opacity="0.72">
<mask id="mask3_90_4246" style="mask-type:luminance" maskUnits="userSpaceOnUse" x="206" y="198" width="109" height="134">
<path d="M307.171 198.79L206.621 325.04L314.991 331.74L307.171 198.79Z" fill="white"/>
</mask>
<g mask="url(#mask3_90_4246)">
<path d="M298.131 271.11H240.711L237.601 306.63H216.291L219.401 271.11H191.581L209.801 277.62C200.741 288.13 186.801 298.63 175.161 304.85C171.951 301 164.871 293.9 160.571 290.64C171.791 285.9 183.531 278.51 190.391 271.11H162.871L164.331 254.39H299.581L298.121 271.11H298.131ZM211.531 186.91H172.611L174.071 170.19H303.991L302.531 186.91H262.281L261.771 192.68H293.881L290.581 230.41H177.381L180.681 192.68H211.021L211.531 186.91ZM182.151 250.4L183.551 234.42H283.581L282.181 250.4H182.151ZM198.541 215.33H209.051L209.721 207.63H199.211L198.541 215.33ZM228.721 215.33H239.671L240.341 207.63H229.391L228.721 215.33ZM242.161 186.91H231.211L230.711 192.68H241.661L242.161 186.91ZM276.681 304.85C270.751 298.19 257.261 288.28 246.741 281.77L263.511 271.12C273.811 276.89 287.801 286.07 294.891 293.02L276.691 304.86L276.681 304.85ZM260.471 207.63L259.801 215.33H270.601L271.271 207.63H260.471Z" fill="url(#paint23_linear_90_4246)"/>
</g>
</g>
<path style="mix-blend-mode:screen" d="M248.701 183.641C260.891 207.791 242.361 241.291 207.301 258.351C172.251 275.411 133.941 269.741 121.751 245.591C109.551 221.441 128.091 187.971 163.171 170.861C198.251 153.751 236.491 159.471 248.691 183.641H248.701Z" fill="url(#paint24_radial_90_4246)"/>
<path style="mix-blend-mode:screen" d="M327.621 23.36C339.811 47.51 321.281 81.01 286.221 98.07C251.171 115.13 212.861 109.46 200.671 85.31C188.471 61.16 207.011 27.69 242.091 10.58C277.171 -6.53003 315.411 -0.810028 327.611 23.36H327.621Z" fill="url(#paint25_radial_90_4246)"/>
<path style="mix-blend-mode:screen" d="M131.701 275.641C143.891 299.791 125.361 333.291 90.3008 350.351C55.2508 367.411 16.9408 361.741 4.7508 337.591C-7.4492 313.441 11.0908 279.971 46.1708 262.861C81.2508 245.751 119.491 251.471 131.691 275.641H131.701Z" fill="url(#paint26_radial_90_4246)"/>
<path d="M434.171 127.19H412.301C405.691 127.19 403.821 126.68 403.871 123.25H441.131L444.851 80.78H355.071L350.911 128.34H368.591L369.031 123.25H386.071C385.251 136.98 390.491 141.05 409.311 141.05H434.491C449.501 141.05 454.821 136.85 458.201 121.47C453.571 120.58 446.911 118.29 443.441 115.75C441.701 125.42 440.281 127.19 434.171 127.19ZM406.401 92.86H425.471L425.131 96.8H406.061L406.401 92.86ZM405.131 107.35H424.201L423.871 111.16H404.801L405.131 107.35ZM387.121 111.17H370.081L370.411 107.36H387.451L387.121 111.17ZM388.381 96.8H371.341L371.691 92.86H388.731L388.381 96.8Z" fill="url(#paint27_linear_90_4246)"/>
<path d="M441.291 71.14L458.671 70.98L461.251 41.48H412.291L412.591 38.05H454.811L455.851 26.22H353.351L352.321 38.05H394.541L394.241 41.48H346.301L343.721 70.98H359.361L360.451 70.45L362.821 53.18H368.421H379.351H393.211L391.021 78.23H409.081L411.271 53.18H411.431H424.881H436.701H441.791H441.821L441.711 54.03" fill="url(#paint28_linear_90_4246)"/>
<path d="M382.501 47.14L363.981 64.02H376.511L360.711 84.72L387.411 65.11L378.151 57.49L382.501 47.14Z" fill="url(#paint29_linear_90_4246)"/>
<path d="M418.111 46.6899L436.631 63.5799H424.101L439.891 84.2699L413.201 64.6599L422.461 57.0399L418.111 46.6899Z" fill="url(#paint30_linear_90_4246)"/>
<path style="mix-blend-mode:screen" d="M364.881 96.12C375.361 116.88 359.431 145.66 329.311 160.32C299.191 174.98 266.271 170.11 255.791 149.35C245.311 128.59 261.241 99.84 291.391 85.13C321.541 70.43 354.401 75.34 364.881 96.11V96.12Z" fill="url(#paint31_radial_90_4246)"/>
<path style="mix-blend-mode:screen" d="M509.311 62.4634C519.791 83.2234 503.861 112.003 473.741 126.663C443.621 141.323 410.701 136.453 400.221 115.693C389.741 94.9334 405.671 66.1834 435.821 51.4734C465.971 36.7734 498.831 41.6834 509.311 62.4534V62.4634Z" fill="url(#paint32_radial_90_4246)"/>
<g opacity="0.4">
<mask id="mask4_90_4246" style="mask-type:luminance" maskUnits="userSpaceOnUse" x="380" y="66" width="94" height="98">
<path d="M470.25 66L380 158.16L473.13 163.92L470.25 66Z" fill="white"/>
</mask>
<g mask="url(#mask4_90_4246)">
<path d="M389.63 73.94C380.01 76.36 370.52 78.64 362.22 80.55L359.64 70.76H344L346.58 41.26H394.52L394.82 37.83H352.6L353.64 26H456.13L455.09 37.83H412.87L412.57 41.26H461.53L458.95 70.76H442.55L439.22 79.79C432.69 77.37 419.76 74.07 410.35 72.54L414.54 62.49C415.67 62.62 416.68 62.74 417.94 62.87L413.96 56C417.19 55.36 421.24 54.22 425.16 52.95H411.55L409.36 78H391.3L393.49 52.95H379.63C383.62 53.84 387.47 54.86 390.06 55.88L385.11 64.53L389.87 63.89L389.63 73.94ZM434.46 126.97C440.56 126.97 441.99 125.19 443.73 115.53C447.2 118.07 453.86 120.36 458.49 121.25C455.11 136.64 449.78 140.83 434.78 140.83H409.6C390.78 140.83 385.54 136.76 386.36 123.03H369.32L368.87 128.12H351.19L355.35 80.56H445.13L441.41 123.03H404.15C404.1 126.46 405.97 126.97 412.58 126.97H434.45H434.46ZM361.82 67.71C367.72 67.07 375.06 66.06 382.79 64.91C377.85 63.26 370.28 61.09 364.42 59.82L368.71 52.95H363.11L361.82 67.7V67.71ZM370.37 110.94H387.41L387.74 107.13H370.7L370.37 110.94ZM371.97 92.63L371.62 96.57H388.66L389.01 92.63H371.97ZM424.16 110.94L424.49 107.13H405.42L405.09 110.94H424.16ZM425.76 92.63H406.69L406.34 96.57H425.41L425.76 92.63ZM442.08 52.96H436.99L440.92 58.94C435.4 60.97 428.77 62.63 423.08 63.77C429.47 64.91 435.96 66.31 440.78 67.84L442.08 52.96Z" fill="url(#paint33_linear_90_4246)"/>
</g>
</g>
<defs>
<linearGradient id="paint0_linear_90_4246" x1="-29.8192" y1="54.15" x2="117.381" y2="163.72" gradientUnits="userSpaceOnUse">
<stop stop-color="#D2D2D2"/>
<stop offset="0.47" stop-color="white"/>
<stop offset="1" stop-color="#DCDCDC"/>
</linearGradient>
<linearGradient id="paint1_linear_90_4246" x1="-4.72924" y1="-0.330023" x2="807.461" y2="504.65" gradientUnits="userSpaceOnUse">
<stop stop-color="#E4AB57"/>
<stop offset="0.2" stop-color="#FDF9C7"/>
<stop offset="0.31" stop-color="#F5ECB8"/>
<stop offset="0.44" stop-color="#E1CB90"/>
<stop offset="0.57" stop-color="#E1B97A"/>
<stop offset="0.71" stop-color="#E8C388"/>
<stop offset="0.88" stop-color="#FDF9C7"/>
</linearGradient>
<linearGradient id="paint2_linear_90_4246" x1="36.7407" y1="-67.03" x2="848.931" y2="437.95" gradientUnits="userSpaceOnUse">
<stop stop-color="#E4AB57"/>
<stop offset="0.2" stop-color="#FDF9C7"/>
<stop offset="0.31" stop-color="#F5ECB8"/>
<stop offset="0.44" stop-color="#E1CB90"/>
<stop offset="0.57" stop-color="#E1B97A"/>
<stop offset="0.71" stop-color="#E8C388"/>
<stop offset="0.88" stop-color="#FDF9C7"/>
</linearGradient>
<linearGradient id="paint3_linear_90_4246" x1="74.6107" y1="-127.94" x2="886.801" y2="377.04" gradientUnits="userSpaceOnUse">
<stop stop-color="#E4AB57"/>
<stop offset="0.2" stop-color="#FDF9C7"/>
<stop offset="0.31" stop-color="#F5ECB8"/>
<stop offset="0.44" stop-color="#E1CB90"/>
<stop offset="0.57" stop-color="#E1B97A"/>
<stop offset="0.71" stop-color="#E8C388"/>
<stop offset="0.88" stop-color="#FDF9C7"/>
</linearGradient>
<linearGradient id="paint4_linear_90_4246" x1="-396.539" y1="-63.1801" x2="537.221" y2="517.38" gradientUnits="userSpaceOnUse">
<stop stop-color="#E4AB57"/>
<stop offset="0.2" stop-color="#FDF9C7"/>
<stop offset="0.31" stop-color="#F5ECB8"/>
<stop offset="0.44" stop-color="#E1CB90"/>
<stop offset="0.57" stop-color="#E1B97A"/>
<stop offset="0.71" stop-color="#E8C388"/>
<stop offset="0.88" stop-color="#FDF9C7"/>
</linearGradient>
<linearGradient id="paint5_linear_90_4246" x1="-353.469" y1="-132.45" x2="580.291" y2="448.11" gradientUnits="userSpaceOnUse">
<stop stop-color="#E4AB57"/>
<stop offset="0.2" stop-color="#FDF9C7"/>
<stop offset="0.31" stop-color="#F5ECB8"/>
<stop offset="0.44" stop-color="#E1CB90"/>
<stop offset="0.57" stop-color="#E1B97A"/>
<stop offset="0.71" stop-color="#E8C388"/>
<stop offset="0.88" stop-color="#FDF9C7"/>
</linearGradient>
<linearGradient id="paint6_linear_90_4246" x1="287.591" y1="108.61" x2="506.131" y2="335.98" gradientUnits="userSpaceOnUse">
<stop stop-color="#D2D2D2"/>
<stop offset="0.47" stop-color="white"/>
<stop offset="1" stop-color="#DCDCDC"/>
</linearGradient>
<linearGradient id="paint7_linear_90_4246" x1="317.881" y1="79.5" x2="536.421" y2="306.87" gradientUnits="userSpaceOnUse">
<stop stop-color="#D2D2D2"/>
<stop offset="0.47" stop-color="white"/>
<stop offset="1" stop-color="#DCDCDC"/>
</linearGradient>
<linearGradient id="paint8_linear_90_4246" x1="242.861" y1="151.61" x2="461.401" y2="378.98" gradientUnits="userSpaceOnUse">
<stop stop-color="#D2D2D2"/>
<stop offset="0.47" stop-color="white"/>
<stop offset="1" stop-color="#DCDCDC"/>
</linearGradient>
<linearGradient id="paint9_linear_90_4246" x1="271.231" y1="124.34" x2="489.771" y2="351.71" gradientUnits="userSpaceOnUse">
<stop stop-color="#D2D2D2"/>
<stop offset="0.47" stop-color="white"/>
<stop offset="1" stop-color="#DCDCDC"/>
</linearGradient>
<linearGradient id="paint10_linear_90_4246" x1="15.7108" y1="51.49" x2="72.9908" y2="154.41" gradientUnits="userSpaceOnUse">
<stop stop-color="#D2D2D2"/>
<stop offset="0.47" stop-color="white"/>
<stop offset="1" stop-color="#DCDCDC"/>
</linearGradient>
<linearGradient id="paint11_linear_90_4246" x1="-4.63914" y1="-1.49001" x2="807.551" y2="503.48" gradientUnits="userSpaceOnUse">
<stop stop-color="#E4AB57"/>
<stop offset="0.2" stop-color="#FDF9C7"/>
<stop offset="0.31" stop-color="#F5ECB8"/>
<stop offset="0.44" stop-color="#E1CB90"/>
<stop offset="0.57" stop-color="#E1B97A"/>
<stop offset="0.71" stop-color="#E8C388"/>
<stop offset="0.88" stop-color="#FDF9C7"/>
</linearGradient>
<linearGradient id="paint12_linear_90_4246" x1="36.8308" y1="-68.1901" x2="849.021" y2="436.79" gradientUnits="userSpaceOnUse">
<stop stop-color="#E4AB57"/>
<stop offset="0.2" stop-color="#FDF9C7"/>
<stop offset="0.31" stop-color="#F5ECB8"/>
<stop offset="0.44" stop-color="#E1CB90"/>
<stop offset="0.57" stop-color="#E1B97A"/>
<stop offset="0.71" stop-color="#E8C388"/>
<stop offset="0.88" stop-color="#FDF9C7"/>
</linearGradient>
<linearGradient id="paint13_linear_90_4246" x1="94.9409" y1="30.69" x2="187.101" y2="151.66" gradientUnits="userSpaceOnUse">
<stop stop-color="white" stop-opacity="0"/>
<stop offset="1" stop-color="white"/>
</linearGradient>
<linearGradient id="paint14_linear_90_4246" x1="214.671" y1="-11.6101" x2="347.151" y2="179.43" gradientUnits="userSpaceOnUse">
<stop stop-color="white" stop-opacity="0"/>
<stop offset="1" stop-color="white"/>
</linearGradient>
<radialGradient id="paint15_radial_90_4246" cx="0" cy="0" r="1" gradientUnits="userSpaceOnUse" gradientTransform="translate(184.704 48.0689) rotate(-25.9) scale(60.9052 42.1658)">
<stop stop-color="#FEE188"/>
<stop offset="0.06" stop-color="#D7BE73" stop-opacity="0.85"/>
<stop offset="0.16" stop-color="#A69258" stop-opacity="0.65"/>
<stop offset="0.25" stop-color="#7A6B41" stop-opacity="0.48"/>
<stop offset="0.35" stop-color="#564A2D" stop-opacity="0.33"/>
<stop offset="0.45" stop-color="#382F1C" stop-opacity="0.21"/>
<stop offset="0.56" stop-color="#201A10" stop-opacity="0.12"/>
<stop offset="0.68" stop-color="#100C07" stop-opacity="0.05"/>
<stop offset="0.8" stop-color="#060302" stop-opacity="0"/>
<stop offset="0.97" stop-color="#030000" stop-opacity="0"/>
</radialGradient>
<linearGradient id="paint16_linear_90_4246" x1="-405.889" y1="-66.7901" x2="539.261" y2="520.86" gradientUnits="userSpaceOnUse">
<stop stop-color="#E4AB57"/>
<stop offset="0.2" stop-color="#FDF9C7"/>
<stop offset="0.31" stop-color="#F5ECB8"/>
<stop offset="0.44" stop-color="#E1CB90"/>
<stop offset="0.57" stop-color="#E1B97A"/>
<stop offset="0.71" stop-color="#E8C388"/>
<stop offset="0.88" stop-color="#FDF9C7"/>
</linearGradient>
<linearGradient id="paint17_linear_90_4246" x1="-362.299" y1="-136.9" x2="582.851" y2="450.75" gradientUnits="userSpaceOnUse">
<stop stop-color="#E4AB57"/>
<stop offset="0.2" stop-color="#FDF9C7"/>
<stop offset="0.31" stop-color="#F5ECB8"/>
<stop offset="0.44" stop-color="#E1CB90"/>
<stop offset="0.57" stop-color="#E1B97A"/>
<stop offset="0.71" stop-color="#E8C388"/>
<stop offset="0.88" stop-color="#FDF9C7"/>
</linearGradient>
<linearGradient id="paint18_linear_90_4246" x1="286.591" y1="107.11" x2="507.791" y2="337.25" gradientUnits="userSpaceOnUse">
<stop stop-color="#D2D2D2"/>
<stop offset="0.47" stop-color="white"/>
<stop offset="1" stop-color="#DCDCDC"/>
</linearGradient>
<linearGradient id="paint19_linear_90_4246" x1="317.241" y1="77.64" x2="538.451" y2="307.78" gradientUnits="userSpaceOnUse">
<stop stop-color="#D2D2D2"/>
<stop offset="0.47" stop-color="white"/>
<stop offset="1" stop-color="#DCDCDC"/>
</linearGradient>
<linearGradient id="paint20_linear_90_4246" x1="241.311" y1="150.63" x2="462.511" y2="380.77" gradientUnits="userSpaceOnUse">
<stop stop-color="#D2D2D2"/>
<stop offset="0.47" stop-color="white"/>
<stop offset="1" stop-color="#DCDCDC"/>
</linearGradient>
<linearGradient id="paint21_linear_90_4246" x1="270.031" y1="123.02" x2="491.231" y2="353.17" gradientUnits="userSpaceOnUse">
<stop stop-color="#D2D2D2"/>
<stop offset="0.47" stop-color="white"/>
<stop offset="1" stop-color="#DCDCDC"/>
</linearGradient>
<linearGradient id="paint22_linear_90_4246" x1="0.430861" y1="144.3" x2="179.181" y2="352.1" gradientUnits="userSpaceOnUse">
<stop stop-color="white" stop-opacity="0"/>
<stop offset="1" stop-color="white"/>
</linearGradient>
<linearGradient id="paint23_linear_90_4246" x1="160.761" y1="137.67" x2="333.931" y2="362.23" gradientUnits="userSpaceOnUse">
<stop stop-color="white" stop-opacity="0"/>
<stop offset="1" stop-color="white"/>
</linearGradient>
<radialGradient id="paint24_radial_90_4246" cx="0" cy="0" r="1" gradientUnits="userSpaceOnUse" gradientTransform="translate(186.45 195.956) rotate(-25.9) scale(70.82 49.03)">
<stop stop-color="#FEE188"/>
<stop offset="0.06" stop-color="#D7BE73" stop-opacity="0.85"/>
<stop offset="0.16" stop-color="#A69258" stop-opacity="0.65"/>
<stop offset="0.25" stop-color="#7A6B41" stop-opacity="0.48"/>
<stop offset="0.35" stop-color="#564A2D" stop-opacity="0.33"/>
<stop offset="0.45" stop-color="#382F1C" stop-opacity="0.21"/>
<stop offset="0.56" stop-color="#201A10" stop-opacity="0.12"/>
<stop offset="0.68" stop-color="#100C07" stop-opacity="0.05"/>
<stop offset="0.8" stop-color="#060302" stop-opacity="0"/>
<stop offset="0.97" stop-color="#030000" stop-opacity="0"/>
</radialGradient>
<radialGradient id="paint25_radial_90_4246" cx="0" cy="0" r="1" gradientUnits="userSpaceOnUse" gradientTransform="translate(265.244 35.7002) rotate(-25.9) scale(70.82 49.03)">
<stop stop-color="#FEE188"/>
<stop offset="0.06" stop-color="#D7BE73" stop-opacity="0.85"/>
<stop offset="0.16" stop-color="#A69258" stop-opacity="0.65"/>
<stop offset="0.25" stop-color="#7A6B41" stop-opacity="0.48"/>
<stop offset="0.35" stop-color="#564A2D" stop-opacity="0.33"/>
<stop offset="0.45" stop-color="#382F1C" stop-opacity="0.21"/>
<stop offset="0.56" stop-color="#201A10" stop-opacity="0.12"/>
<stop offset="0.68" stop-color="#100C07" stop-opacity="0.05"/>
<stop offset="0.8" stop-color="#060302" stop-opacity="0"/>
<stop offset="0.97" stop-color="#030000" stop-opacity="0"/>
</radialGradient>
<radialGradient id="paint26_radial_90_4246" cx="0" cy="0" r="1" gradientUnits="userSpaceOnUse" gradientTransform="translate(69.4545 287.932) rotate(-25.9) scale(70.82 49.03)">
<stop stop-color="#FEE188"/>
<stop offset="0.06" stop-color="#D7BE73" stop-opacity="0.85"/>
<stop offset="0.16" stop-color="#A69258" stop-opacity="0.65"/>
<stop offset="0.25" stop-color="#7A6B41" stop-opacity="0.48"/>
<stop offset="0.35" stop-color="#564A2D" stop-opacity="0.33"/>
<stop offset="0.45" stop-color="#382F1C" stop-opacity="0.21"/>
<stop offset="0.56" stop-color="#201A10" stop-opacity="0.12"/>
<stop offset="0.68" stop-color="#100C07" stop-opacity="0.05"/>
<stop offset="0.8" stop-color="#060302" stop-opacity="0"/>
<stop offset="0.97" stop-color="#030000" stop-opacity="0"/>
</radialGradient>
<linearGradient id="paint27_linear_90_4246" x1="143.261" y1="-53.75" x2="782.331" y2="343.59" gradientUnits="userSpaceOnUse">
<stop stop-color="#E4AB57"/>
<stop offset="0.2" stop-color="#FDF9C7"/>
<stop offset="0.31" stop-color="#F5ECB8"/>
<stop offset="0.44" stop-color="#E1CB90"/>
<stop offset="0.57" stop-color="#E1B97A"/>
<stop offset="0.71" stop-color="#E8C388"/>
<stop offset="0.88" stop-color="#FDF9C7"/>
</linearGradient>
<linearGradient id="paint28_linear_90_4246" x1="140.561" y1="-112.57" x2="787.511" y2="289.67" gradientUnits="userSpaceOnUse">
<stop stop-color="#E4AB57"/>
<stop offset="0.2" stop-color="#FDF9C7"/>
<stop offset="0.31" stop-color="#F5ECB8"/>
<stop offset="0.44" stop-color="#E1CB90"/>
<stop offset="0.57" stop-color="#E1B97A"/>
<stop offset="0.71" stop-color="#E8C388"/>
<stop offset="0.88" stop-color="#FDF9C7"/>
</linearGradient>
<linearGradient id="paint29_linear_90_4246" x1="331.931" y1="26.25" x2="461.511" y2="155.83" gradientUnits="userSpaceOnUse">
<stop stop-color="#E4AB57"/>
<stop offset="0.2" stop-color="#FDF9C7"/>
<stop offset="0.31" stop-color="#F5ECB8"/>
<stop offset="0.44" stop-color="#E1CB90"/>
<stop offset="0.57" stop-color="#E1B97A"/>
<stop offset="0.71" stop-color="#E8C388"/>
<stop offset="0.88" stop-color="#FDF9C7"/>
</linearGradient>
<linearGradient id="paint30_linear_90_4246" x1="468.671" y1="25.8099" x2="339.101" y2="155.38" gradientUnits="userSpaceOnUse">
<stop stop-color="#E4AB57"/>
<stop offset="0.2" stop-color="#FDF9C7"/>
<stop offset="0.31" stop-color="#F5ECB8"/>
<stop offset="0.44" stop-color="#E1CB90"/>
<stop offset="0.57" stop-color="#E1B97A"/>
<stop offset="0.71" stop-color="#E8C388"/>
<stop offset="0.88" stop-color="#FDF9C7"/>
</linearGradient>
<radialGradient id="paint31_radial_90_4246" cx="0" cy="0" r="1" gradientUnits="userSpaceOnUse" gradientTransform="translate(312.477 103.788) rotate(-25.9) scale(60.9052 42.1658)">
<stop stop-color="#FEE188"/>
<stop offset="0.06" stop-color="#D7BE73" stop-opacity="0.85"/>
<stop offset="0.16" stop-color="#A69258" stop-opacity="0.65"/>
<stop offset="0.25" stop-color="#7A6B41" stop-opacity="0.48"/>
<stop offset="0.35" stop-color="#564A2D" stop-opacity="0.33"/>
<stop offset="0.45" stop-color="#382F1C" stop-opacity="0.21"/>
<stop offset="0.56" stop-color="#201A10" stop-opacity="0.12"/>
<stop offset="0.68" stop-color="#100C07" stop-opacity="0.05"/>
<stop offset="0.8" stop-color="#060302" stop-opacity="0"/>
<stop offset="0.97" stop-color="#030000" stop-opacity="0"/>
</radialGradient>
<radialGradient id="paint32_radial_90_4246" cx="0" cy="0" r="1" gradientUnits="userSpaceOnUse" gradientTransform="translate(456.894 69.9455) rotate(-25.9) scale(60.9052 42.1658)">
<stop stop-color="#FEE188"/>
<stop offset="0.06" stop-color="#D7BE73" stop-opacity="0.85"/>
<stop offset="0.16" stop-color="#A69258" stop-opacity="0.65"/>
<stop offset="0.25" stop-color="#7A6B41" stop-opacity="0.48"/>
<stop offset="0.35" stop-color="#564A2D" stop-opacity="0.33"/>
<stop offset="0.45" stop-color="#382F1C" stop-opacity="0.21"/>
<stop offset="0.56" stop-color="#201A10" stop-opacity="0.12"/>
<stop offset="0.68" stop-color="#100C07" stop-opacity="0.05"/>
<stop offset="0.8" stop-color="#060302" stop-opacity="0"/>
<stop offset="0.97" stop-color="#030000" stop-opacity="0"/>
</radialGradient>
<linearGradient id="paint33_linear_90_4246" x1="361.42" y1="-7.42" x2="456.47" y2="182.66" gradientUnits="userSpaceOnUse">
<stop stop-color="white" stop-opacity="0"/>
<stop offset="1" stop-color="white"/>
</linearGradient>
</defs>
</svg>
