<svg width="1929" height="440" viewBox="0 0 1929 440" fill="none" xmlns="http://www.w3.org/2000/svg">


<style>
#line {
  clip-path: inset(0 100% 0 0);
  animation: revealLeftToRight 12s ease-out infinite;
}
@keyframes revealLeftToRight {
  0% {
    clip-path: inset(0 100% 0 0);
  }
  100% {
    clip-path: inset(0 0 0 0);
  }
}
</style>

<g opacity="0.28" id="line">
<path d="M723.835 268.322H721.509V341.048H723.835V268.322Z" fill="#D9AC4A" fill-opacity="0.8"/>
<path d="M692.969 220H690.643V292.726H692.969V220Z" fill="#D9AC4A" fill-opacity="0.8"/>
<path d="M596.969 206H594.643V278.726H596.969V206Z" fill="#D9AC4A" fill-opacity="0.8"/>
<path d="M755.062 291.019H752.737V389.295H755.062V291.019Z" fill="#D9AC4A" fill-opacity="0.8"/>
<path d="M628.968 174H626.643V272.276H628.968V174Z" fill="#D9AC4A" fill-opacity="0.8"/>
<path d="M786.289 338.295H783.964V403.974H786.289V338.295Z" fill="#D9AC4A" fill-opacity="0.8"/>
<path d="M406.969 374H404.643V439.679H406.969V374Z" fill="#D9AC4A" fill-opacity="0.8"/>
<path d="M469.325 287H467V352.679H469.325V287Z" fill="#D9AC4A" fill-opacity="0.8"/>
<path d="M502 260H500V383H502V260Z" fill="#D9AC4A" fill-opacity="0.8"/>
<path d="M375 296H373V419H375V296Z" fill="#D9AC4A" fill-opacity="0.8"/>
<path d="M817.517 263.814H815.191V416H817.517V263.814Z" fill="#D9AC4A" fill-opacity="0.8"/>
<path d="M660.982 141H658.657V293.186H660.982V141Z" fill="#D9AC4A" fill-opacity="0.8"/>
<path d="M848.744 249.463H846.419V349.893H848.744V249.463Z" fill="#D9AC4A" fill-opacity="0.8"/>
<path d="M879.958 188.706H877.632V332.603H879.958V188.706Z" fill="#D9AC4A" fill-opacity="0.8"/>
<path d="M911.185 188.706H908.86V260.647H911.185V188.706Z" fill="#D9AC4A" fill-opacity="0.8"/>
<path d="M533.968 264H531.643V335.942H533.968V264Z" fill="#D9AC4A" fill-opacity="0.8"/>
<path d="M341.968 259H339.643V330.942H341.968V259Z" fill="#D9AC4A" fill-opacity="0.8"/>
<path d="M309.33 298H307V369H309.33V298Z" fill="#D9AC4A" fill-opacity="0.8"/>
<path d="M275.968 264H273.643V335.942H275.968V264Z" fill="#D9AC4A" fill-opacity="0.8"/>
<path d="M242.968 240H240.643V311.942H242.968V240Z" fill="#D9AC4A" fill-opacity="0.8"/>
<path d="M209.968 210H207.643V281.942H209.968V210Z" fill="#D9AC4A" fill-opacity="0.8"/>
<path d="M177 209H175V240H177V209Z" fill="#D9AC4A" fill-opacity="0.8"/>
<path d="M143.968 226H141.643V297.942H143.968V226Z" fill="#D9AC4A" fill-opacity="0.8"/>
<path d="M110.968 251H108.643V322.942H110.968V251Z" fill="#D9AC4A" fill-opacity="0.8"/>
<path d="M45.33 240H43V308H45.33V240Z" fill="#D9AC4A" fill-opacity="0.8"/>
<path d="M78.33 283H76V315H78.33V283Z" fill="#D9AC4A" fill-opacity="0.8"/>
<path d="M12.33 218H10V268H12.33V218Z" fill="#D9AC4A" fill-opacity="0.8"/>
<path d="M942.413 181.73H940.087V218.45H942.413V181.73Z" fill="#D9AC4A" fill-opacity="0.8"/>
<path d="M973.64 145.024H971.314V255.169H973.64V145.024Z" fill="#D9AC4A" fill-opacity="0.8"/>
<path d="M564.982 204H562.657V314.145H564.982V204Z" fill="#D9AC4A" fill-opacity="0.8"/>
<path d="M438.325 315H436V425.145H438.325V315Z" fill="#D9AC4A" fill-opacity="0.8"/>
<path d="M1004.87 163.384H1002.54V234.327H1004.87V163.384Z" fill="#D9AC4A" fill-opacity="0.8"/>
<path d="M1036.08 124.924H1033.76V211.902H1036.08V124.924Z" fill="#D9AC4A" fill-opacity="0.8"/>
<path d="M1067.31 157.678H1064.98V309.165H1067.31V157.678Z" fill="#D9AC4A" fill-opacity="0.8"/>
<path d="M1098.54 218.45H1096.21V287.238H1098.54V218.45Z" fill="#D9AC4A" fill-opacity="0.8"/>
<path d="M1129.76 181.73H1127.44V263.8H1129.76V181.73Z" fill="#D9AC4A" fill-opacity="0.8"/>
<path d="M1160.99 218.45H1158.67V299.678H1160.99V218.45Z" fill="#D9AC4A" fill-opacity="0.8"/>
<path d="M1192.2 199.148H1189.88V347.054H1192.2V199.148Z" fill="#D9AC4A" fill-opacity="0.8"/>
<path d="M1223.43 218.45H1221.11V273.515H1223.43V218.45Z" fill="#D9AC4A" fill-opacity="0.8"/>
<path d="M1254.66 124.924H1252.33V273.515H1254.66V124.924Z" fill="#D9AC4A" fill-opacity="0.8"/>
<path d="M1285.89 135.367H1283.56V205.796H1285.89V135.367Z" fill="#D9AC4A" fill-opacity="0.8"/>
<path d="M1317.1 33.3246H1314.77V188.72H1317.1V33.3246Z" fill="#D9AC4A" fill-opacity="0.8"/>
<path d="M1348.33 47.2336H1346V113.968H1348.33V47.2336Z" fill="#D9AC4A" fill-opacity="0.8"/>
<path d="M1379.55 65.7932H1377.23V211.902H1379.55V65.7932Z" fill="#D9AC4A" fill-opacity="0.8"/>
<path d="M1410.78 145.024H1408.46V181.744H1410.78V145.024Z" fill="#D9AC4A" fill-opacity="0.8"/>
<path d="M1442.01 111.015H1439.68V188.706H1442.01V111.015Z" fill="#D9AC4A" fill-opacity="0.8"/>
<path d="M1473.22 4.32257H1470.9V160.431H1473.22V4.32257Z" fill="#D9AC4A" fill-opacity="0.8"/>
<path d="M1504.45 12.4397H1502.12V119.118H1504.45V12.4397Z" fill="#D9AC4A" fill-opacity="0.8"/>
<path d="M1535.68 26.8195H1533.35V95.6083H1535.68V26.8195Z" fill="#D9AC4A" fill-opacity="0.8"/>
<path d="M1566.9 61.2139H1564.58V97.9337H1566.9V61.2139Z" fill="#D9AC4A" fill-opacity="0.8"/>
<path d="M1598.13 33.3246H1595.81V126.665H1598.13V33.3246Z" fill="#D9AC4A" fill-opacity="0.8"/>
<path d="M858.389 287.239H836.762V332.589H858.389V287.239Z" fill="#D9AC4A" fill-opacity="0.8"/>
<path d="M1201.86 226.039H1180.23V316.754H1201.86V226.039Z" fill="#D9AC4A" fill-opacity="0.8"/>
<path d="M1076.97 173.099H1055.34V263.814H1076.97V173.099Z" fill="#D9AC4A" fill-opacity="0.8"/>
<path d="M1389.21 79.5737H1367.59V170.289H1389.21V79.5737Z" fill="#D9AC4A" fill-opacity="0.8"/>
<path d="M764.72 313.33H743.094V369.623H764.72V313.33Z" fill="#D9AC4A" fill-opacity="0.8"/>
<path d="M638.627 196.312H617V252.604H638.627V196.312Z" fill="#D9AC4A" fill-opacity="0.8"/>
<path d="M1576.55 73.8674H1554.92V85.2657H1576.55V73.8674Z" fill="#D9AC4A" fill-opacity="0.8"/>
<path d="M983.284 200.09H961.657V236.809H983.284V200.09Z" fill="#D9AC4A" fill-opacity="0.8"/>
<path d="M574.627 259.065H553V295.785H574.627V259.065Z" fill="#D9AC4A" fill-opacity="0.8"/>
<path d="M447.627 334H426V370.72H447.627V334Z" fill="#D9AC4A" fill-opacity="0.8"/>
<path d="M1295.53 160.117H1273.9V181.744H1295.53V160.117Z" fill="#D9AC4A" fill-opacity="0.8"/>
<path d="M1170.64 236.809H1149.01V273.529H1170.64V236.809Z" fill="#D9AC4A" fill-opacity="0.8"/>
<path d="M1108.18 234.327H1086.55V271.047H1108.18V234.327Z" fill="#D9AC4A" fill-opacity="0.8"/>
<path d="M1545.34 42.854H1523.71V79.5737H1545.34V42.854Z" fill="#D9AC4A" fill-opacity="0.8"/>
<path d="M1514.11 26.8195H1492.48V95.6083H1514.11V26.8195Z" fill="#D9AC4A" fill-opacity="0.8"/>
<path d="M889.616 218.45H867.989V309.165H889.616V218.45Z" fill="#D9AC4A" fill-opacity="0.8"/>
<path d="M827.161 287.239H805.534V377.954H827.161V287.239Z" fill="#D9AC4A" fill-opacity="0.8"/>
<path d="M670.627 164.424H649V255.139H670.627V164.424Z" fill="#D9AC4A" fill-opacity="0.8"/>
<path d="M1482.88 52.5689H1461.25V143.284H1482.88V52.5689Z" fill="#D9AC4A" fill-opacity="0.8"/>
<path d="M1326.76 79.5737H1305.13V170.289H1326.76V79.5737Z" fill="#D9AC4A" fill-opacity="0.8"/>
<path d="M1264.3 160.431H1242.68V251.147H1264.3V160.431Z" fill="#D9AC4A" fill-opacity="0.8"/>
<path d="M952.056 194.398H930.43V205.796H952.056V194.398Z" fill="#D9AC4A" fill-opacity="0.8"/>
<path d="M1233.09 249.463H1211.46V260.861H1233.09V249.463Z" fill="#D9AC4A" fill-opacity="0.8"/>
<path d="M1420.43 157.678H1398.8V169.076H1420.43V157.678Z" fill="#D9AC4A" fill-opacity="0.8"/>
<path d="M1139.41 218.45H1117.78V255.169H1139.41V218.45Z" fill="#D9AC4A" fill-opacity="0.8"/>
<path d="M733.493 286.411H711.866V323.131H733.493V286.411Z" fill="#D9AC4A" fill-opacity="0.8"/>
<path d="M702.627 238.089H681V274.809H702.627V238.089Z" fill="#D9AC4A" fill-opacity="0.8"/>
<path d="M606.627 224.089H585V260.809H606.627V224.089Z" fill="#D9AC4A" fill-opacity="0.8"/>
<path d="M795.947 354.729H774.321V391.449H795.947V354.729Z" fill="#D9AC4A" fill-opacity="0.8"/>
<path d="M416.627 390.434H395V427.154H416.627V390.434Z" fill="#D9AC4A" fill-opacity="0.8"/>
<path d="M478.627 302H457V338.72H478.627V302Z" fill="#D9AC4A" fill-opacity="0.8"/>
<path d="M511.33 276H490V364H511.33V276Z" fill="#D9AC4A" fill-opacity="0.8"/>
<path d="M384.33 312H363V400H384.33V312Z" fill="#D9AC4A" fill-opacity="0.8"/>
<path d="M1045.74 163.384H1024.11V200.104H1045.74V163.384Z" fill="#D9AC4A" fill-opacity="0.8"/>
<path d="M1014.51 181.73H992.885V218.45H1014.51V181.73Z" fill="#D9AC4A" fill-opacity="0.8"/>
<path d="M1357.98 61.2139H1336.36V97.9336H1357.98V61.2139Z" fill="#D9AC4A" fill-opacity="0.8"/>
<path d="M920.844 200.09H899.217V236.809H920.844V200.09Z" fill="#D9AC4A" fill-opacity="0.8"/>
<path d="M543.627 275.384H522V312.104H543.627V275.384Z" fill="#D9AC4A" fill-opacity="0.8"/>
<path d="M351.627 270.384H330V307.104H351.627V270.384Z" fill="#D9AC4A" fill-opacity="0.8"/>
<path d="M319 307H297V339H319V307Z" fill="#D9AC4A" fill-opacity="0.8"/>
<path d="M286 295H264V312H286V295Z" fill="#D9AC4A" fill-opacity="0.8"/>
<path d="M253 251H231V262H253V251Z" fill="#D9AC4A" fill-opacity="0.8"/>
<path d="M220 221H198V278H220V221Z" fill="#D9AC4A" fill-opacity="0.8"/>
<path d="M187 217H165V227H187V217Z" fill="#D9AC4A" fill-opacity="0.8"/>
<path d="M154 248H132V259H154V248Z" fill="#D9AC4A" fill-opacity="0.8"/>
<path d="M121 262H99V319H121V262Z" fill="#D9AC4A" fill-opacity="0.8"/>
<path d="M55 251H33V308H55V251Z" fill="#D9AC4A" fill-opacity="0.8"/>
<path d="M88 301H66V311H88V301Z" fill="#D9AC4A" fill-opacity="0.8"/>
<path d="M22 233H0V262H22V233Z" fill="#D9AC4A" fill-opacity="0.8"/>
<path d="M1451.65 126.665H1430.03V163.384H1451.65V126.665Z" fill="#D9AC4A" fill-opacity="0.8"/>
<path d="M1607.78 77.2484H1586.15V113.968H1607.78V77.2484Z" fill="#D9AC4A" fill-opacity="0.8"/>
<path d="M1625.72 79.6165H1623.4V152.343H1625.72V79.6165Z" fill="#D9AC4A" fill-opacity="0.8"/>
<path d="M1656.95 102.313H1654.62V200.589H1656.95V102.313Z" fill="#D9AC4A" fill-opacity="0.8"/>
<path d="M1690.97 141H1688.65V206.679H1690.97V141Z" fill="#D9AC4A" fill-opacity="0.8"/>
<path d="M1724.97 65H1722.65V217.186H1724.97V65Z" fill="#D9AC4A" fill-opacity="0.8"/>
<path d="M1757.97 58H1755.64V158.43H1757.97V58Z" fill="#D9AC4A" fill-opacity="0.8"/>
<path d="M1790.99 0H1788.66V143.897H1790.99V0Z" fill="#D9AC4A" fill-opacity="0.8"/>
<path d="M1822.98 3H1820.66V74.9416H1822.98V3Z" fill="#D9AC4A" fill-opacity="0.8"/>
<path d="M1854.98 28H1852.66V99.9416H1854.98V28Z" fill="#D9AC4A" fill-opacity="0.8"/>
<path d="M1887.33 65H1885V120H1887.33V65Z" fill="#D9AC4A" fill-opacity="0.8"/>
<path d="M1918.98 65H1916.66V136.942H1918.98V65Z" fill="#D9AC4A" fill-opacity="0.8"/>
<path d="M1767.63 95.7754H1746V141.126H1767.63V95.7754Z" fill="#D9AC4A" fill-opacity="0.8"/>
<path d="M1666.59 124.625H1644.97V180.917H1666.59V124.625Z" fill="#D9AC4A" fill-opacity="0.8"/>
<path d="M1800.63 29.7438H1779V120.459H1800.63V29.7438Z" fill="#D9AC4A" fill-opacity="0.8"/>
<path d="M1734.63 88.4385H1713V179.154H1734.63V88.4385Z" fill="#D9AC4A" fill-opacity="0.8"/>
<path d="M1635.37 97.7053H1613.74V134.425H1635.37V97.7053Z" fill="#D9AC4A" fill-opacity="0.8"/>
<path d="M1700.63 157.434H1679V194.154H1700.63V157.434Z" fill="#D9AC4A" fill-opacity="0.8"/>
<path d="M1832.63 14.3839H1811V51.1036H1832.63V14.3839Z" fill="#D9AC4A" fill-opacity="0.8"/>
<path d="M1864.63 39.3839H1843V76.1036H1864.63V39.3839Z" fill="#D9AC4A" fill-opacity="0.8"/>
<path d="M1896.63 76.3839H1875V113.104H1896.63V76.3839Z" fill="#D9AC4A" fill-opacity="0.8"/>
<path d="M1928.63 100H1907V136.72H1928.63V100Z" fill="#D9AC4A" fill-opacity="0.8"/>
</g>

<g id="line">
<path opacity="0.25" d="M235.593 428L176.039 245.739L99.1437 319.75L8 235.095L9.8734 233.881L99.1094 316.763L177.208 241.59L236.659 423.546L342.548 307.586L342.893 307.479L445.655 276.976L587.226 159.949L634.216 219.396L673.008 183.411L768.035 349.934L825.406 260.063L851.29 317.296L920.435 279.897L958.951 147.879L1004.57 376.97L1038.65 306.626L1038.87 306.466L1091.5 270.267L1138.49 325.512L1193.8 220.29L1222.31 272.321L1273.32 231.04L1273.66 230.974L1347.66 217.102L1386.74 122.323L1434.06 145.424L1491.13 65.5304L1572.84 83.4698L1619.5 52.3926L1620.3 52.9395C1621.16 53.5263 1706.2 111.666 1713.07 115.641C1715 115.401 1724.96 110.773 1774.55 75.7472C1802.59 55.9538 1829.87 35.907 1830.14 35.707L1831.08 35L1928 126.591L1926.11 127.792L1830.86 37.7743C1825.68 41.5756 1800.26 60.1686 1774.6 78.2547C1716.01 119.562 1713.4 118.135 1711.84 117.282C1706.66 114.467 1628.82 61.2756 1619.48 54.8868L1573.43 85.5505L1492.32 67.7445L1434.94 148.079L1388.1 125.204L1349.57 218.676L1274.59 232.734L1221.5 275.695L1193.83 225.212L1138.99 329.54L1091 273.121L1040.71 307.72L1003.29 384.946L957.903 157.362L922.531 281.057L922.17 281.244L850.036 320.257L824.994 264.918L767.88 354.389L766.833 352.535L672.337 186.945L633.889 222.611L586.796 163.03L447.03 278.563L446.772 278.643L344.095 309.12L235.559 427.96L235.593 428Z" fill="#CB8D00" fill-opacity="0.8"/>
</g>

</svg>
