<svg width="24" height="25" xmlns="http://www.w3.org/2000/svg">
    <g fill="#B79B53" fill-rule="nonzero">
        <path d="M6.705 23.22zM7.306 23.44v-.004zM2.31 20.291c.054.023.096.088.15.117-.054-.03-.096-.094-.15-.117zM7.853 23.6H7.85zM23.496 10.084v-.055c0-.068.036-.14.052-.207 0-.146-.036-.288-.052-.43v-.159h-.042V8.93h-.048c0-.084-.029-.168-.042-.256-.025-.178-.048-.359-.07-.54a.104.104 0 0 1 0-.045l-.052-.062v-.103c0-.036-.038-.143-.054-.214l-.28-.582-.08-.094v-.055a.134.134 0 0 1 0-.052h-.045l-.074-.145-.058-.107-.045-.113c-.138-.214-.283-.42-.408-.647a.7.7 0 0 0-.244-.269 1.325 1.325 0 0 0-.17-.294c-.216-.233-.348-.521-.55-.76l-.582-.495c-.077-.12-.157-.24-.238-.356h-.048a.326.326 0 0 1 0-.052c-.115-.078-.186-.22-.353-.217-.03 0-.061-.035-.087-.061-.164-.172-.321-.347-.489-.521l-.106-.113a.124.124 0 0 0 0-.049l-.36-.123-.06-.048a.28.28 0 0 0 0-.052l-.058-.049-.058-.052a.416.416 0 0 1-.055-.051l-.106-.055-.058-.052h-.372a.591.591 0 0 1-.37-.25c0-.019-.045-.025-.068-.041l-.06-.042v-.049l-.062-.042-.263-.065a.56.56 0 0 0-.338-.129.294.294 0 0 1-.128-.026c-.293-.123-.566-.281-.868-.375l-.038-.039c-.11-.046-.218-.1-.322-.159a.73.73 0 0 1-.128-.165 1.066 1.066 0 0 1-.492-.213l-.206-.065a2.42 2.42 0 0 1-.43.023 1.296 1.296 0 0 1-.534-.065 2.814 2.814 0 0 0-.71-.23V.271h-.103a1.169 1.169 0 0 0-.77 0 .042.042 0 0 0-.04 0l-.302-.064-.157-.046-.116-.055h-.218v.026a.054.054 0 0 1-.032 0h-.238l-.498-.077h-.704l-.321.051a.212.212 0 0 0 0 .043l-.1.016h-.106a.067.067 0 0 1-.039 0l-.08.058h-.231L9.08.268v.107l-.058.103c.055.037.08.105.062.169H8.97v.045l-.11.01-.23.055-.322.11c-.032.226-.215.265-.395.307a.022.022 0 0 1-.032 0 .325.325 0 0 0-.023.049l-.27.058-.148.068-.157.061-.11.055-.057.046-.158.061-.109.055-.16.055-.068.039a1.081 1.081 0 0 1-.103.061l-.08.065H6.28l-.115.094h-.103v.042c-.154 0-.248.11-.363.178l-.065.042-.102.065-.065.042a.221.221 0 0 0 0 .045l-.09.02-.06.045-.1.064-.065.072-.102.064-.103.058-.068.04-.157.164-.061.049H4.6l-.158.158-.051.046a.134.134 0 0 0-.052 0l-.048.058c0 .029 0 .061-.016.094h-.045l-.106.11-.051.055-.055.055-.061.048-.048.055-.055.055-.106.11c-.022.03-.045.062-.07.09l-.055.056-.052.055-.054.055a.416.416 0 0 1-.052.055c-.054.071-.109.142-.167.21l-.045.058a.833.833 0 0 0-.016.088h-.051a.786.786 0 0 1-.045.064l-.061.078-.052.055-.054.055a.416.416 0 0 0-.055.052l-.064.097-.065.097-.141.074-.067.11-.049.107a.324.324 0 0 1-.16.272l-.113.155-.067.097-.042.065-.077.188-.257.34-.106.323a.416.416 0 0 1-.055.052v.194a2.464 2.464 0 0 0-.154.207c-.058.094-.106.197-.16.294a.055.055 0 0 0 0-.032l-.059.074-.048.107c-.02.055-.038.107-.055.162-.016.055 0 .035 0 .051 0 .017-.035.107-.054.159a.326.326 0 0 1 0 .055l-.055.055v.052l-.077.042c0 .048.051.12.032.145-.128.175-.035.324 0 .505a.287.287 0 0 1 0 .049.049.049 0 0 1 0 .042c-.144.035-.18-.1-.267-.162.007-.24.06-.476.158-.696a.199.199 0 0 1 0-.045h-.08c0 .13 0 .262-.164.324-.036 0-.039.103-.058.158.057.1.057.224 0 .324a.143.143 0 0 1 0 .051l-.048.11a.25.25 0 0 1 0 .049v.207H.519v.214l-.054.051v.314a.12.12 0 0 1 0 .165.3.3 0 0 0 0 .052c0 .087-.026.12-.106.058v.155a.28.28 0 0 1 0 .052c.016.036.032.068.045.104l-.07.039v.161l-.05.104-.057.055v.262c.019.054.035.109.048.165.02.084.03.171.042.255-.016.02-.032.043-.051.062l-.1-.052-.058-.158c-.02.087-.038.174-.055.262v.051a.417.417 0 0 1-.041.366.248.248 0 0 1 0 .049c.08.077.144.155.058.265 0 .09-.036.181-.055.272v.093h.058c.029.1.054.201.08.298.026.097.048.165.074.246.026.08 0 .152-.032.197-.087.114-.02.191.035.279v.265a.192.192 0 0 1 0 .045h.058v.107h.045V14.164c.016.035.035.07.055.106h.054a.28.28 0 0 1 0 .052H.394v.052l-.06.065c-.02.055-.036.106-.056.158v.055l.11.107.058.162H.5l.052.055v.103l.051.055a.287.287 0 0 0 0 .055v.097l.045.062a.248.248 0 0 0 0 .048H.574a1.946 1.946 0 0 0-.119-.23c0-.022-.07-.022-.11-.029H.334c.02.052.035.107.055.162l.048.104v.048c.016.02.035.04.051.062.016.022-.035.139-.051.21l.051.055h.167v.107l.052.055v.265l.164.372.051.055v.052l.055.055c0 .065 0 .14-.032.204h.054l.052-.104H1.1c.058.088.113.175.167.262a.243.243 0 0 1 .17.266l-.057.158a.264.264 0 0 0 0 .052v.155h.048c.02.036.035.071.055.104h-.107c.02.035.039.07.055.106.02-.035.039-.07.055-.106h.154c.022.068.048.132.07.197.023.065-.057.087-.121.055l-.1-.042c.016.071.035.14.051.21l.055.055.164.162c.02.016.038.033.055.052l.054.052.055.051h.016l.048.049.064.061h.045c.01.01.018.022.023.036.032.022.063.046.093.071v.052l.051.045h.058a.326.326 0 0 0 0 .055h.045l.177.198v.113c.02.087.035.178.055.265h.054l.113.052.106.055h.032l.116.21.057.155.213.062.337.255.058.052c.427.356.879.68 1.353.97 0 .023 0 .059.032.072l.46.304a.215.215 0 0 0 .215.107l.17.1.16.058.055.052.161.113-.051.049.163.107c.052-.055.106-.107.161-.162a.3.3 0 0 1 0 .052l.052.055v.161l.163.052.219-.107v.159h.055v.055l.109.052.218.055h.106l.164-.159h.11l.057.049-.122.084c-.032.024-.063.05-.093.077l.16.052.113.055h.052l.215.052c.07.02.115.086.11.159l.112-.052.266.052h.058c.212.023.416.094.598.207h.431v.048h.16V23.3l.048.042c.02.02.039.036.055.055h.495c0-.09.035-.178.051-.268l.11.161v.107l.054.052a.125.125 0 0 1 .167.055h.489c.103-.107.035-.149-.084-.172a.407.407 0 0 1 .47-.148l.109.051a.131.131 0 0 1-.164.12c-.113 0-.158.049-.164.149h.382l.126-.052-.065-.259h.537l.167-.106.058-.104.157-.113h.113c.026.042.067.077 0 .132a.648.648 0 0 0-.07.133c.186 0 .276-.146.372-.272l.222-.051.067.061-.234.12c.025.051.045.097.064.142h.1l.112-.052h.051c.042-.045.084-.11.148-.042 0 0-.019.065-.032.1-.013.036 0 .033 0 .05v.054a.16.16 0 0 1 .164.104h.051l.058-.052.09-.013c0-.02.036-.036.055-.055l.11-.055a1.15 1.15 0 0 1 .108-.055v-.052l.11-.045h.057l-.057.158v.049h.106l.109-.049.067-.058h-.022l.106-.268.067-.046c.192-.018.378-.072.55-.158l.051-.058.511-.159.055-.055.215-.055v-.052h.052a.135.135 0 0 1 .218 0l.055-.052.164-.051.054-.055.11-.107v-.107h-.216l-.054.055-.052.052-.058.055-.054.052-.164.055-.106.051c-.077 0-.135-.019-.119-.11a.13.13 0 0 0 0-.048h.1l.054-.052h.068v-.055a.287.287 0 0 1 .051 0l.052-.048v-.049l.06-.048h.155l.11-.052h.038v-.052h.054l.061-.045.11-.052c0-.02.035-.039.051-.061h.055v-.049h.093l.106-.058.112-.058.058-.059.167-.055.058-.051.106-.052a.392.392 0 0 1 .322-.188c.045 0 .086-.052.128-.078.227-.103.442-.23.643-.378l.167-.21.051-.055.058-.052.058-.052a.24.24 0 0 0 .16-.213c-.18 0-.18 0-.218-.214v-.048l.154-.117c.094-.139.184-.281.277-.424.356-.398.726-.786 1.047-1.216h.049l.074-.071.057-.104.122-.149h.042v-.103h.045v-.094h.045l.052-.107.06-.103.431-.537c.039-.104.08-.207.122-.324a.09.09 0 0 1 .042 0c.09-.178.18-.356.273-.53l.158-.22.058-.156.054-.107c.015-.037.033-.074.052-.11.128-.323.254-.676.382-1.012v-.411h.045l.158-.534.057-.158c.03-.165.058-.324.084-.495 0-.097.026-.195.039-.292h.045c.056-.295.078-.596.064-.896.118-.216.163-.464.128-.708a2.211 2.211 0 0 1 .03-.521l-.017-.094zM.282 12.714c-.055.062-.08.094-.084.126 0-.032.029-.067.084-.126zm15.958-6.12c.532 0 .964.434.964.97s-.432.97-.964.97a.967.967 0 0 1-.964-.97c0-.536.432-.97.964-.97zm-3.51-5.446.059.162-.058-.162zm-3.528.117.203-.02-.203.02zM4.562 20.84zm.778.405.06.032-.06-.032zm15.27-6.578c-.385 1.03-1.542 1.03-4.335 1.03H13.42c0 1.678-.02 1.992-.039 2.377 0 .168-.016.35-.026.67a2.235 2.235 0 0 1-1.076 1.821 2.354 2.354 0 0 1-1.24.36 2.151 2.151 0 0 1-.92-.201.677.677 0 0 1 .57-1.226c.292.121.627.09.892-.084a.89.89 0 0 0 .437-.709c0-.324.02-.524.03-.699 0-.372.032-.673.035-2.355a5.065 5.065 0 0 1-3.072-1.57 5.96 5.96 0 0 1-1.177-1.94c-.687 1.582-1.928 3.018-4.013 3.471a.734.734 0 0 1-.145 0 .676.676 0 0 1-.151-1.323c1.607-.343 2.7-1.44 3.284-3.255.232-.74.37-1.506.408-2.28v-.376h-2.15a.674.674 0 0 1-.671-.676c0-.374.3-.676.672-.676h2.162V4.613a.677.677 0 0 1 .674-.632c.354 0 .648.276.673.632V7.03h2.179c.37 0 .671.303.671.676 0 .374-.3.676-.671.676h-2.18v.495c.02.935.21 2.983 1.424 4.29a3.785 3.785 0 0 0 2.327 1.145c.646-1.559 2.468-3.904 3.348-4.484a1.016 1.016 0 0 1 1-.145c.51.236 1.732 1.482 2.304 2.106 1.777 1.935 1.78 2.481 1.632 2.88zM9.543 24.15h.003l-.003-.002z"/>
        <path d="M16.288 11.055c-.626.465-1.886 2.17-2.506 3.303h2.493c1.215 0 2.465 0 2.94-.123-.472-.802-2.24-2.647-2.927-3.18z"/>
    </g>
</svg>
