<svg width="140" height="193" viewBox="0 0 140 193" fill="none" xmlns="http://www.w3.org/2000/svg">
<path d="M72.9201 192.473C108.821 192.473 137.929 188.658 137.929 183.954C137.929 179.25 108.825 175.435 72.9201 175.435C37.0153 175.435 7.91113 179.25 7.91113 183.954C7.91113 188.658 37.0153 192.473 72.9201 192.473Z" fill="#E3CEBA"/>
<path d="M105.51 143.52C105.215 143.52 104.946 143.352 104.815 143.09C104.685 142.829 104.711 142.511 104.886 142.276L113.144 131.099C110.701 128.85 100.619 119.568 99.1134 117.95C94.9994 113.534 93.0939 109.517 96.2962 103.165C97.4844 100.811 99.7412 99.5664 102.824 99.5664C106.194 99.5664 109.587 101.02 111.063 101.879C116.933 105.298 131.39 117.409 132.324 127.094C132.612 130.079 131.622 132.59 129.38 134.556C127.407 136.286 125.154 137.807 122.688 139.081C122.673 139.092 122.658 139.099 122.639 139.107C122.576 139.141 121.032 139.97 119.377 140.59C119.369 140.59 119.362 140.594 119.355 140.598C112.109 143.486 105.783 143.52 105.514 143.52H105.51Z" fill="white"/>
<path d="M102.824 100.348C105.813 100.348 109.023 101.595 110.67 102.552C118.513 107.118 138.919 125.158 128.864 133.969C126.756 135.815 124.511 137.269 122.269 138.419V138.423C122.269 138.423 120.729 139.257 119.104 139.866C111.933 142.735 105.637 142.746 105.514 142.746L114.187 131.006C114.187 131.006 101.359 119.228 99.6811 117.427C95.455 112.887 94.0763 109.3 96.9908 103.524C98.1865 101.147 100.436 100.351 102.824 100.351M102.824 98.7856C99.4233 98.7856 96.9273 100.179 95.5971 102.814C92.1931 109.573 94.1996 113.818 98.5415 118.481C99.9726 120.021 108.993 128.338 112.102 131.197L104.258 141.812C103.907 142.287 103.855 142.918 104.12 143.442C104.386 143.968 104.924 144.297 105.514 144.297C105.787 144.297 112.251 144.263 119.627 141.327C119.635 141.327 119.642 141.323 119.65 141.319C121.357 140.68 122.941 139.824 123.009 139.791C123.031 139.78 123.05 139.768 123.068 139.757C125.579 138.457 127.874 136.903 129.888 135.139C132.328 132.998 133.408 130.266 133.094 127.016C132.559 121.489 127.963 115.623 124.204 111.673C119.706 106.95 114.556 103.012 111.451 101.203C109.385 100 105.914 98.7856 102.82 98.7856H102.824Z" fill="#212121"/>
<path d="M105.514 142.743C105.514 142.743 118.813 142.776 128.864 133.969C138.915 125.162 118.514 107.122 110.671 102.552C107.708 100.826 99.6852 98.169 96.9911 103.516C94.0803 109.293 95.4553 112.88 99.6813 117.42C101.359 119.221 114.187 130.999 114.187 130.999L105.514 142.739V142.743Z" fill="url(#paint0_linear_2531_5655)"/>
<path d="M113.937 125.181C113.937 125.181 115.196 121.018 120.703 118.029" stroke="#DE955C" stroke-width="2.90081" stroke-linecap="round" stroke-linejoin="round"/>
<path d="M123.21 138.188C123.21 138.188 125.475 136.223 125.71 133.267C125.729 133.047 126.028 132.994 126.129 133.188C127.145 135.098 126.375 136.749 126.375 136.749C126.375 136.749 124.836 137.583 123.21 138.192V138.188Z" fill="#212121"/>
<path d="M41.4469 178.879C38.5697 178.879 35.4384 176.992 32.4827 174.952C27.1506 171.271 20.3687 159.602 20.3874 154.139C20.3276 152.062 21.5009 149.113 25.0021 147.738C25.9213 147.376 26.9639 147.193 28.0961 147.193C29.729 147.193 31.1674 147.57 31.9073 147.809C33.798 145.324 35.3898 143.131 36.8022 141.184C37.6168 140.063 38.3903 138.995 39.1152 138.019C36.5855 133.801 35.4235 128.532 35.6627 122.333C35.4235 122.173 35.1881 122.012 34.9564 121.851C34.2689 121.366 33.9101 120.551 34.0222 119.725C34.3286 117.494 34.7807 115.178 35.3711 112.82C33.2711 114.076 31.1563 114.752 29.2731 114.752C28.0886 114.752 27.0422 114.494 26.1641 113.982C22.5097 111.856 18.7471 108.433 14.9732 103.804C14.9134 103.766 14.861 103.725 14.8124 103.677C13.8633 102.709 13.0638 101.592 12.6303 100.87C12.5892 100.799 12.5556 100.728 12.5369 100.65C11.6887 99.4991 10.8516 98.3034 9.98845 97.0105C6.77873 96.1885 4.76105 94.1371 4.08473 93.4496C4.01374 93.3748 3.95771 93.3188 3.92034 93.2852C1.17022 90.8153 0.13513 87.6915 1.15148 84.9227C1.80538 83.1478 3.19537 81.8363 4.77968 81.4103C4.23788 79.1534 5.04875 77.1058 7.15245 75.443C8.32947 74.5126 9.98846 73.9596 11.584 73.9596C13.3738 73.9596 14.9022 74.6471 15.8924 75.8727C16.748 75.357 17.7381 75.088 18.7993 75.088C22.1809 75.088 25.9812 77.9689 26.2203 82.6247C26.3137 84.4444 25.9998 86.4621 25.3347 88.3566C27.0647 91.0133 28.9741 93.812 31.0255 96.6817C33.9438 94.0623 38.1624 91.0245 39.0106 90.4192C40.4754 89.3393 41.7308 88.6443 42.8667 88.3043C41.7233 87.4748 40.6247 86.6079 39.5897 85.7186C38.8424 85.0759 38.1138 84.4108 37.4226 83.7382C36.7388 83.0693 36.0699 82.3781 35.4459 81.6831C34.2054 80.3043 33.0619 78.8507 32.0531 77.371C31.0554 75.9063 30.1661 74.3781 29.4039 72.8274C28.6528 71.2954 28.01 69.7073 27.4944 68.1043C27.2365 67.3047 27.0087 66.4939 26.8144 65.6905C26.1343 62.8769 25.8203 59.9772 25.8764 57.0664C25.8913 56.2407 25.94 55.4037 26.0147 54.5779C26.777 46.1781 30.5584 37.9128 36.9442 30.6675C37.1534 30.4321 37.3665 30.193 37.5795 29.9539L37.7253 29.7932C38.1811 29.2887 38.6444 28.7955 39.0965 28.321L39.1974 28.2163C39.9223 27.4653 40.6621 26.7292 41.3982 26.038C42.2053 25.2794 43.0087 24.5583 43.8083 23.882C44.1782 23.5718 44.5407 23.2728 44.8994 22.9851C44.6752 22.7049 44.4623 22.4135 44.2643 22.1146C44.0774 21.8381 43.9092 21.5652 43.756 21.2887C43.7522 21.2812 43.7486 21.2738 43.7448 21.2663C43.5954 21.0011 43.4571 20.7245 43.3263 20.448C43.3263 20.448 43.3039 20.4032 43.3039 20.3994C43.1805 20.1341 43.061 19.8502 42.9526 19.5587L42.9078 19.4316C42.8031 19.1476 42.7173 18.8824 42.6388 18.6171L42.62 18.5536C42.5416 18.2771 42.4744 17.9931 42.4071 17.6829L42.3697 17.4886C42.3062 17.1486 42.2576 16.8647 42.2239 16.5881C42.1193 15.725 42.1045 14.8506 42.1792 13.9949C42.2129 13.5764 42.2726 13.1542 42.3511 12.7357C42.4669 12.1229 42.6276 11.5101 42.8331 10.9197C44.4399 6.28633 48.6471 2.9048 53.5495 2.30321C53.9867 2.2509 54.4315 2.21726 54.8686 2.20605C54.9658 2.20605 55.0667 2.20605 55.1638 2.20605C56.991 2.20605 58.7621 2.58345 60.4286 3.32329C61.9457 3.99961 63.3021 4.94871 64.4529 6.14068C64.7369 6.43587 65.0135 6.74974 65.2676 7.06735C65.5217 7.38869 65.7644 7.7287 65.9886 8.07621C66.9639 9.58578 67.5917 11.2486 67.8607 13.0272C68.0849 12.9973 68.309 12.9674 68.5332 12.9412L68.6827 12.9263C69.1348 12.874 69.5944 12.8253 70.0614 12.7842L70.1923 12.7731C70.6967 12.7283 71.2087 12.6909 71.7206 12.6647H71.7916C72.2961 12.6348 72.7705 12.6161 73.2525 12.6012L73.4842 12.5937C73.8878 12.5862 74.2951 12.5788 74.7061 12.5788C75.3338 12.5788 75.9766 12.59 76.6192 12.6124L76.9145 12.6236C77.9868 12.6647 79.0779 12.7395 80.1615 12.8403L80.5052 12.8739C81.0022 12.9225 81.5028 12.9786 82.011 13.0421L82.1867 13.0607C82.7472 13.1317 83.3077 13.2103 83.8757 13.2962L84.2418 13.3559C84.7201 13.4307 85.2022 13.5129 85.6879 13.5989L86.0278 13.6586C86.5995 13.7633 87.1788 13.8791 87.7655 14.0024L88.1129 14.0772C88.6024 14.1818 89.0956 14.2939 89.5925 14.4097L90.0299 14.5143C90.624 14.6563 91.2254 14.8095 91.8345 14.9702L92.0886 15.0411C92.6192 15.1831 93.1573 15.3363 93.6991 15.4933L94.1923 15.639C94.8163 15.8259 95.4442 16.0165 96.0794 16.2182C96.539 16.364 96.9948 16.5171 97.4432 16.6703L97.6935 16.76C98.056 16.8833 98.4185 17.0104 98.7734 17.1412L99.1247 17.2719C99.4423 17.3877 99.7598 17.5036 100.07 17.6269L100.488 17.7913C100.772 17.9034 101.056 18.0155 101.337 18.1276L101.632 18.2509C101.946 18.3817 102.263 18.5125 102.574 18.6433L102.813 18.7479C103.138 18.8899 103.459 19.0281 103.777 19.1738L103.99 19.271C104.315 19.4204 104.636 19.5662 104.95 19.7194L105.133 19.809C105.458 19.966 105.776 20.1229 106.093 20.2798L106.22 20.3471C106.553 20.5152 106.882 20.6834 107.203 20.8553L107.308 20.9113C107.637 21.0832 107.965 21.2626 108.287 21.442L108.347 21.4755C108.69 21.6661 109.019 21.8529 109.34 22.0435L109.393 22.0772C109.718 22.264 110.043 22.4583 110.36 22.6563L109.994 23.3476L110.398 22.6787C110.727 22.8805 111.044 23.0785 111.354 23.2766C111.695 23.4933 112.008 23.6988 112.319 23.908C112.647 24.1285 112.954 24.3377 113.256 24.5507C113.365 24.6255 113.469 24.7002 113.57 24.7712C113.664 24.6666 113.757 24.5619 113.854 24.4573L113.951 24.3528C114.064 24.2332 114.179 24.1173 114.299 24.0052L114.415 23.8931C114.531 23.781 114.65 23.6764 114.77 23.568L114.897 23.4559C115.013 23.355 115.136 23.2504 115.263 23.1532L115.36 23.0785C115.513 22.959 115.644 22.8619 115.775 22.7647L115.887 22.6862C116.029 22.5853 116.167 22.4919 116.305 22.3985L116.358 22.3649C117.038 21.9277 117.74 21.5615 118.465 21.2589L118.51 21.2402C118.659 21.1766 118.809 21.1206 118.958 21.0683L119.123 21.0085C119.261 20.9599 119.396 20.9151 119.53 20.8702L119.743 20.803C119.87 20.7656 120.001 20.7283 120.132 20.6909C120.218 20.6685 120.296 20.646 120.371 20.6273C120.498 20.5974 120.625 20.5638 120.752 20.5376C120.838 20.519 120.924 20.5003 121.01 20.4816C121.133 20.4555 121.26 20.4331 121.383 20.4107C121.477 20.3957 121.566 20.3807 121.656 20.3658C121.776 20.3471 121.903 20.3284 122.026 20.3098C122.108 20.2986 122.198 20.2873 122.284 20.2798L122.433 21.0496L122.347 20.2761C122.46 20.2649 122.568 20.25 122.68 20.2425C122.751 20.2351 122.829 20.2313 122.908 20.2276L123.065 20.2163C123.155 20.2089 123.244 20.2051 123.33 20.2014C123.409 20.2014 123.491 20.1976 123.569 20.1976C123.569 20.1976 123.887 20.1902 123.958 20.1902C124.171 20.1902 124.354 20.1977 124.537 20.2051C124.66 20.2089 124.776 20.2201 124.896 20.2276H124.956C125.071 20.2388 125.187 20.2462 125.303 20.2574C125.378 20.2649 125.662 20.2985 125.662 20.2985C125.766 20.3098 125.871 20.3247 125.979 20.3397C126.05 20.3509 126.278 20.3882 126.278 20.3882C126.402 20.4069 126.529 20.4293 126.652 20.4517C126.742 20.4704 126.835 20.4891 126.925 20.5078C127.078 20.5414 127.201 20.5676 127.325 20.5975C127.422 20.6199 127.523 20.646 127.62 20.6722C127.747 20.7058 127.87 20.7395 127.993 20.7731C128.094 20.803 128.195 20.8329 128.292 20.8628C128.416 20.9001 128.539 20.9413 128.662 20.9824C128.759 21.016 128.857 21.0459 128.954 21.0833C129.081 21.1281 129.204 21.1766 129.331 21.2252C129.331 21.2252 129.54 21.3074 129.611 21.3373C129.742 21.3896 129.869 21.4494 130 21.5054C130 21.5054 130.198 21.5914 130.262 21.6213C130.407 21.6886 130.549 21.7596 130.687 21.8306L130.759 21.8641C130.807 21.8903 130.859 21.9127 130.908 21.9389C131.114 22.0472 131.319 22.1594 131.525 22.2789C133.471 23.4111 135.1 24.8945 136.39 26.6955C137.761 28.6086 138.673 30.8245 139.031 33.1038C139.102 33.5559 139.155 34.0192 139.181 34.4751C139.222 35.1664 139.214 35.8614 139.151 36.5452C138.983 38.4396 138.433 40.2369 137.518 41.8848C137.354 42.18 137.163 42.4901 136.935 42.8301L136.838 42.9758C136.64 43.2598 136.427 43.5438 136.203 43.8165L136.091 43.9511C135.844 44.2463 135.605 44.5078 135.366 44.747C135.362 44.7507 135.343 44.7694 135.336 44.7731C135.074 45.0347 134.798 45.2888 134.514 45.5279L134.484 45.5541C134.211 45.782 133.916 46.0062 133.602 46.2266L133.539 46.2715C132.814 46.7759 132.036 47.2056 131.222 47.5606C131.308 47.7923 131.394 48.0202 131.472 48.2444C131.689 48.8572 131.887 49.4401 132.07 50.0156C132.07 50.0156 132.085 50.0641 132.085 50.0678C132.257 50.6171 132.421 51.1627 132.567 51.6895L131.827 51.9399L132.578 51.7269C132.649 51.9885 132.713 52.2202 132.776 52.4518L132.799 52.5303C132.862 52.7657 132.922 53.0085 132.982 53.2439L133.169 54.0212C133.225 54.264 133.273 54.4733 133.318 54.6788L132.571 54.9067L133.333 54.7386C133.374 54.9217 133.411 55.1011 133.449 55.2767C133.449 55.2767 133.557 55.8073 133.591 55.9791C133.897 57.5672 134.14 59.1553 134.308 60.6947C134.585 63.2506 134.667 65.7615 134.555 68.1642C134.54 68.5303 134.514 68.8928 134.488 69.2552C134.439 69.9315 134.39 70.4845 134.331 71.0039C134.282 71.4224 134.226 71.8409 134.166 72.252L134.11 72.6181C134.062 72.9208 134.013 73.2234 133.957 73.5261C133.957 73.5261 133.912 73.7914 133.89 73.8923C133.815 74.2921 133.733 74.6956 133.647 75.0917L133.628 75.1665C133.538 75.5588 133.453 75.9175 133.359 76.2763C133.262 76.6611 133.154 77.0384 133.042 77.4196C132.87 78.0025 132.709 78.5107 132.552 78.9666C132.388 79.4449 132.201 79.9418 131.965 80.5322L131.876 80.7527C131.67 81.2608 131.45 81.7578 131.229 82.2323C131.013 82.6957 130.803 83.1216 130.587 83.5327L130.553 83.5999C130.303 84.0744 130.071 84.493 129.847 84.8779C129.675 85.1731 129.499 85.4533 129.324 85.7298C129.197 85.9316 129.066 86.1333 128.935 86.3351C128.931 86.3426 128.928 86.3501 128.92 86.3538C128.64 86.7798 128.337 87.2132 128.02 87.6429L127.889 87.8223C127.511 88.3267 127.194 88.734 126.884 89.1076C126.828 89.1749 126.764 89.2459 126.704 89.3131L126.6 89.4327C126.282 89.8064 125.942 90.1838 125.587 90.5649L125.441 90.7218C125.344 90.8265 125.247 90.9311 125.15 91.032C124.821 91.3683 124.451 91.727 124.018 92.1268C123.932 92.2053 123.846 92.2838 123.76 92.3622L123.693 92.422C123.39 92.6985 123.076 92.9675 122.759 93.2328C122.759 93.2328 122.53 93.4234 122.459 93.4832C121.615 94.1708 120.715 94.8358 119.784 95.4561L119.571 95.5981C119.141 95.8821 118.693 96.1623 118.245 96.4276L118.114 96.5061C117.09 97.1076 116.007 97.6794 114.889 98.2025L114.814 98.2361C114.254 98.4977 113.679 98.748 113.111 98.9835C112.857 99.0881 112.602 99.1889 112.345 99.2898C111.321 99.6859 110.241 100.06 109.139 100.392L108.952 100.448C108.63 100.545 108.305 100.635 107.98 100.725L107.67 100.807C107.353 100.893 107.031 100.975 106.706 101.057L106.471 101.113C105.787 101.278 105.103 101.431 104.43 101.562L104.214 101.607C103.967 101.655 103.717 101.7 103.47 101.745L103.358 101.763C103.164 101.797 102.973 101.831 102.779 101.864C102.51 101.909 102.245 101.95 101.972 101.991C101.744 102.025 101.516 102.059 101.288 102.092C101.038 102.126 100.787 102.163 100.533 102.197C100.231 102.234 99.9242 102.272 99.6178 102.305C99.3301 102.339 99.0424 102.369 98.7547 102.395C98.3773 102.432 97.9962 102.466 97.6076 102.5C97.4581 102.511 97.3049 102.522 97.1555 102.533L97.036 102.541L99.7786 118.6C99.786 118.634 99.7897 118.672 99.7897 118.705C99.9392 123.133 99.6403 127.587 98.9079 131.948C98.7547 132.852 98.0523 133.588 97.163 133.775C96.9014 133.831 96.6286 133.883 96.3483 133.935C96.0232 135.112 95.6459 136.23 95.2087 137.28C95.7879 137.104 96.367 136.936 96.9537 136.779C97.0209 136.76 97.0881 136.753 97.1591 136.753C98.1381 136.405 99.1882 136.043 100.309 135.699C100.866 135.494 101.464 135.266 101.808 135.135C102.237 134.97 102.97 134.772 103.414 134.698C104.759 134.339 106.28 134.141 107.932 134.115H108.074C114.075 134.115 117.49 140.205 118.331 144.331C118.331 144.334 118.331 144.338 118.331 144.342C118.402 144.633 120.091 151.531 119.896 154.199C119.896 154.24 119.889 154.277 119.878 154.318C119.878 154.393 119.87 154.468 119.863 154.546C119.534 158.044 117.124 160.779 114.377 160.779C114.306 160.779 114.235 160.779 114.164 160.775C113.649 160.749 113.156 160.626 112.685 160.409C111.631 161.9 110.148 162.767 108.604 162.767C108.533 162.767 108.462 162.767 108.391 162.763C107.11 162.696 105.948 162.034 105.111 160.91C104.446 161.268 103.732 161.455 103.018 161.455C102.947 161.455 102.876 161.455 102.805 161.452C100.825 161.351 99.1994 159.845 98.5417 157.607C91.4123 160.626 88.1017 160.768 84.6005 160.914L84.3838 160.921C84.2007 160.928 84.0177 160.932 83.8346 160.932C79.3283 160.932 74.6314 158.627 69.8635 154.083C69.0788 153.952 68.3801 153.825 67.7523 153.709C66.239 153.433 65.1442 153.235 64.3035 153.235C63.2909 153.235 62.6295 153.523 61.7439 154.36C61.7177 154.404 61.6879 154.449 61.6505 154.494C61.0227 155.23 60.2381 156.172 59.3151 157.289C59.2367 157.382 59.1395 157.461 59.0349 157.513C58.5304 158.141 58.026 158.784 57.5328 159.419C57.5029 159.509 57.458 159.598 57.402 159.673C56.5276 160.82 55.6682 161.963 54.9097 162.969C54.8574 163.04 54.7977 163.099 54.7267 163.148C54.3007 163.735 53.8859 164.31 53.4973 164.867C53.2283 165.248 52.8696 165.838 52.4548 166.518C52.0475 167.183 51.5879 167.938 51.0722 168.734C50.7023 169.754 50.1904 170.767 49.5551 171.75C45.8858 178.191 43.457 178.662 43.0086 178.692C42.99 178.692 42.949 178.692 42.9415 178.692C42.4744 178.819 41.9774 178.883 41.458 178.883L41.4469 178.879Z" fill="white"/>
<path d="M55.1638 2.97202C56.9126 2.97202 58.5902 3.3457 60.111 4.02202C61.5346 4.65724 62.8162 5.55778 63.8886 6.66755C64.1576 6.94406 64.4117 7.23554 64.6509 7.5382C64.89 7.84086 65.1181 8.15839 65.331 8.48347C66.2801 9.95569 66.919 11.6559 67.1395 13.5092C67.1544 13.6363 67.1657 13.7671 67.1769 13.8941C67.6552 13.8231 68.1372 13.7559 68.6266 13.6961C68.6752 13.6886 68.7238 13.6849 68.7686 13.6811C69.217 13.6288 69.6692 13.5802 70.1288 13.5391C70.1736 13.5353 70.2147 13.5316 70.2596 13.5279C70.7565 13.483 71.2572 13.4495 71.7617 13.4196C71.7953 13.4196 71.829 13.4196 71.8626 13.4158C72.3259 13.3897 72.7966 13.3709 73.2674 13.3597C73.3422 13.3597 73.4169 13.356 73.4917 13.3522C73.8915 13.3448 74.2913 13.3373 74.6986 13.3373C75.3189 13.3373 75.9504 13.3485 76.5857 13.3709C76.6828 13.3709 76.7835 13.3784 76.8807 13.3822C77.9269 13.4233 78.992 13.4943 80.0831 13.5952C80.1952 13.6064 80.3071 13.6175 80.423 13.6288C80.9125 13.6773 81.4096 13.7334 81.9103 13.7932C81.9701 13.8007 82.026 13.8081 82.0858 13.8156C82.6351 13.8866 83.1919 13.9651 83.7561 14.051C83.8757 14.0697 83.9989 14.0884 84.1185 14.107C84.593 14.1818 85.0676 14.264 85.5496 14.35C85.6617 14.3687 85.7738 14.3873 85.8859 14.4097C86.4538 14.5144 87.0256 14.6264 87.6047 14.7497C87.7206 14.7721 87.8364 14.7984 87.9485 14.8245C88.4342 14.9292 88.9237 15.0375 89.4132 15.1533C89.5552 15.1869 89.701 15.2206 89.8467 15.2542C90.4371 15.3962 91.0311 15.5456 91.6327 15.7063C91.7149 15.7287 91.801 15.7511 91.8832 15.7735C92.4101 15.9155 92.9443 16.0651 93.4824 16.222C93.6468 16.2706 93.8075 16.3154 93.9719 16.364C94.5922 16.547 95.2124 16.7376 95.8438 16.9394C96.2997 17.0851 96.7519 17.2346 97.1965 17.3878C97.2787 17.4177 97.361 17.4475 97.4432 17.4737C97.8019 17.597 98.1606 17.7241 98.5118 17.8511C98.6314 17.8922 98.7435 17.9371 98.863 17.9819C99.1769 18.0978 99.4908 18.2136 99.7972 18.3294C99.9093 18.3742 100.021 18.4191 100.133 18.4602C100.44 18.5798 100.75 18.6993 101.053 18.8227C101.15 18.8638 101.247 18.9048 101.344 18.9459C101.654 19.0729 101.968 19.2037 102.275 19.3345C102.353 19.3681 102.431 19.4055 102.514 19.4391C102.835 19.5774 103.153 19.7194 103.467 19.8614C103.538 19.8951 103.605 19.925 103.676 19.9586C103.993 20.1043 104.311 20.25 104.625 20.3995C104.688 20.4294 104.748 20.4593 104.808 20.4891C105.126 20.6423 105.443 20.7955 105.753 20.9525C105.798 20.9749 105.839 20.9973 105.88 21.0197C106.205 21.1841 106.531 21.3523 106.852 21.5204C106.886 21.5391 106.915 21.554 106.949 21.5727C107.278 21.7483 107.599 21.9203 107.921 22.0996C107.943 22.1146 107.965 22.1257 107.992 22.1407C108.32 22.3238 108.642 22.5069 108.959 22.6937C108.974 22.7049 108.989 22.7124 109.008 22.7236C109.333 22.9142 109.654 23.1048 109.968 23.2953C109.983 23.3028 109.998 23.314 110.013 23.3215C110.331 23.5158 110.641 23.71 110.951 23.9081C110.958 23.9118 110.962 23.9156 110.969 23.9193C111.283 24.1211 111.597 24.3229 111.9 24.5284C111.907 24.5322 111.911 24.5359 111.919 24.5396C112.225 24.7451 112.528 24.9506 112.823 25.1599C112.827 25.1599 112.834 25.1674 112.838 25.1711C113.137 25.3803 113.428 25.5896 113.72 25.8026C113.828 25.6643 113.94 25.5298 114.052 25.3952C114.075 25.3691 114.093 25.3467 114.116 25.3205C114.22 25.1972 114.329 25.0777 114.441 24.9618C114.471 24.9282 114.501 24.8983 114.531 24.8647C114.639 24.7526 114.747 24.6443 114.856 24.5359C114.889 24.5023 114.927 24.4686 114.964 24.4313C115.072 24.3266 115.184 24.2257 115.296 24.1248C115.334 24.0912 115.375 24.0576 115.412 24.0239C115.524 23.9268 115.64 23.8296 115.76 23.7362C115.797 23.7063 115.838 23.6764 115.876 23.6465C115.995 23.5531 116.119 23.4597 116.242 23.3738C116.279 23.3476 116.313 23.3252 116.35 23.2991C116.481 23.2094 116.608 23.1197 116.743 23.0338C116.765 23.0188 116.791 23.0038 116.814 22.9889C117.438 22.5891 118.095 22.2453 118.775 21.9613C118.79 21.9539 118.805 21.9464 118.82 21.9426C118.958 21.8866 119.097 21.8343 119.239 21.782C119.291 21.7633 119.343 21.7409 119.396 21.7222C119.523 21.6774 119.65 21.6363 119.78 21.5952C119.848 21.5727 119.911 21.5504 119.979 21.5317C120.102 21.4943 120.225 21.4607 120.348 21.427C120.423 21.4084 120.498 21.386 120.573 21.3673C120.692 21.3374 120.812 21.3074 120.931 21.2813C121.013 21.2626 121.092 21.2439 121.174 21.229C121.29 21.2066 121.41 21.1804 121.525 21.1618C121.611 21.1468 121.697 21.1318 121.783 21.1206C121.899 21.1019 122.015 21.0833 122.135 21.0683C122.224 21.0571 122.314 21.0459 122.403 21.0384C122.519 21.0272 122.631 21.0122 122.747 21.0048C122.841 20.9973 122.938 20.9899 123.031 20.9861C123.143 20.9787 123.255 20.9712 123.368 20.9674C123.468 20.9637 123.573 20.9637 123.674 20.96C123.771 20.96 123.868 20.9562 123.969 20.9562C123.977 20.9562 123.984 20.9562 123.995 20.9562C124.167 20.9562 124.339 20.9637 124.515 20.9712C124.627 20.9749 124.743 20.9824 124.855 20.9899C124.982 20.9974 125.113 21.0048 125.24 21.0197C125.333 21.0272 125.426 21.0422 125.52 21.0534C125.639 21.0683 125.759 21.0795 125.875 21.0982C125.968 21.1131 126.065 21.1281 126.159 21.1431C126.275 21.1617 126.394 21.1804 126.51 21.2028C126.607 21.2215 126.701 21.2402 126.798 21.2626C126.914 21.2888 127.029 21.3112 127.149 21.3411C127.246 21.3635 127.34 21.3897 127.437 21.4121C127.553 21.442 127.668 21.4756 127.788 21.5055C127.881 21.5316 127.975 21.5615 128.072 21.5877C128.188 21.625 128.307 21.6624 128.423 21.6998C128.517 21.7297 128.606 21.7633 128.7 21.797C128.819 21.8381 128.939 21.8866 129.058 21.9314C129.148 21.965 129.238 21.9987 129.324 22.0361C129.447 22.0884 129.57 22.1407 129.694 22.1968C129.776 22.2342 129.858 22.2677 129.94 22.3051C130.075 22.3686 130.209 22.4359 130.344 22.5031C130.415 22.5368 130.482 22.5704 130.553 22.6078C130.751 22.7124 130.945 22.8171 131.14 22.9329C131.143 22.9329 131.151 22.9366 131.155 22.9404C133.03 24.0352 134.581 25.4775 135.762 27.1253C137.073 28.96 137.929 31.0487 138.269 33.201C138.336 33.6307 138.385 34.0641 138.411 34.4976C138.448 35.1477 138.441 35.8016 138.385 36.4518C138.232 38.1856 137.727 39.8932 136.845 41.4812C136.673 41.7876 136.487 42.0829 136.296 42.3706C136.266 42.4154 136.236 42.4639 136.203 42.5088C136.012 42.7816 135.814 43.0469 135.605 43.301C135.571 43.3458 135.534 43.3869 135.496 43.428C135.28 43.6858 135.052 43.9399 134.816 44.1753C134.809 44.1828 134.798 44.194 134.787 44.2015C134.54 44.4481 134.282 44.6872 134.017 44.9114C134.006 44.9188 133.998 44.9301 133.987 44.9376C133.718 45.1618 133.441 45.371 133.157 45.5728C133.135 45.5877 133.116 45.6027 133.094 45.6176C132.205 46.2342 131.24 46.7311 130.228 47.1048C130.411 47.5756 130.587 48.0389 130.747 48.4911C130.751 48.5023 130.755 48.5135 130.759 48.5247C130.968 49.1114 131.158 49.6793 131.334 50.236C131.338 50.2472 131.341 50.2585 131.345 50.2697C131.345 50.2697 131.345 50.2734 131.345 50.2771V50.2846C131.517 50.8339 131.678 51.3682 131.82 51.8839C131.823 51.8988 131.827 51.91 131.831 51.9249C131.831 51.9249 131.831 51.9287 131.831 51.9324C131.831 51.9324 131.831 51.9399 131.831 51.9436C131.898 52.1791 131.958 52.4108 132.018 52.6387C132.025 52.6611 132.029 52.6872 132.036 52.7097C132.1 52.9525 132.16 53.1879 132.219 53.4233C132.223 53.442 132.227 53.4607 132.234 53.4794C132.234 53.4794 132.234 53.4794 132.234 53.4832C132.234 53.4832 132.234 53.4869 132.234 53.4906C132.283 53.6887 132.332 53.8829 132.376 54.0772C132.376 54.081 132.376 54.0847 132.376 54.0884C132.376 54.0884 132.376 54.0959 132.376 54.0997C132.384 54.1408 132.395 54.1782 132.403 54.2193C132.451 54.4322 132.5 54.6377 132.541 54.8395C132.545 54.8619 132.548 54.8807 132.556 54.9031C132.593 55.0824 132.631 55.258 132.668 55.4336C132.679 55.4822 132.687 55.527 132.698 55.5756V55.5831C132.698 55.5831 132.698 55.5906 132.698 55.5943C132.735 55.7774 132.773 55.9567 132.806 56.1286C133.113 57.7054 133.348 59.2562 133.512 60.777C133.785 63.3104 133.867 65.7653 133.759 68.1268C133.744 68.4855 133.718 68.8442 133.692 69.1991C133.651 69.7783 133.602 70.35 133.539 70.918C133.49 71.329 133.438 71.7363 133.378 72.1436C133.359 72.2632 133.341 72.3827 133.322 72.5023C133.277 72.8012 133.225 73.0965 133.172 73.3917C133.15 73.5112 133.131 73.6308 133.109 73.7466C133.034 74.1427 132.956 74.535 132.87 74.9199C132.87 74.9199 132.87 74.9199 132.87 74.9236C132.862 74.9535 132.855 74.9871 132.847 75.017C132.765 75.372 132.683 75.727 132.589 76.0782C132.492 76.4556 132.388 76.8256 132.279 77.1955C132.13 77.7074 131.973 78.2118 131.801 78.7088C131.622 79.2282 131.427 79.7363 131.226 80.237C131.196 80.308 131.17 80.379 131.14 80.45C130.938 80.9395 130.729 81.4216 130.508 81.8961C130.306 82.3258 130.101 82.748 129.884 83.1665C129.873 83.1889 129.862 83.2076 129.854 83.23C129.634 83.6522 129.402 84.0708 129.163 84.4818C129.163 84.4855 129.159 84.4893 129.156 84.493C128.995 84.7695 128.827 85.0385 128.655 85.3076C128.528 85.5093 128.401 85.7074 128.27 85.9055C127.986 86.3352 127.691 86.7574 127.384 87.1721C127.34 87.2319 127.298 87.2917 127.254 87.3515C126.936 87.7774 126.615 88.196 126.275 88.6033C126.185 88.7116 126.092 88.8162 125.998 88.9208C125.677 89.2945 125.348 89.6645 125.008 90.0232C124.866 90.1726 124.728 90.3296 124.582 90.4753C124.223 90.8415 123.853 91.1964 123.476 91.5439C123.371 91.6411 123.263 91.7345 123.158 91.8316C122.859 92.1007 122.557 92.3623 122.247 92.6238C122.149 92.706 122.052 92.7882 121.951 92.8704C121.122 93.5467 120.247 94.1931 119.336 94.7984C119.268 94.8433 119.197 94.8882 119.126 94.933C118.701 95.2132 118.267 95.4823 117.826 95.7476C117.781 95.7737 117.74 95.7999 117.699 95.826C116.69 96.4201 115.637 96.9732 114.538 97.4889C114.519 97.5001 114.497 97.5075 114.478 97.5149C113.929 97.769 113.368 98.0156 112.797 98.251C112.546 98.3519 112.296 98.4528 112.046 98.55C111.029 98.9461 109.976 99.3048 108.896 99.6336C108.832 99.6523 108.772 99.671 108.709 99.6897C108.395 99.7831 108.078 99.8727 107.756 99.9624C107.655 99.9886 107.554 100.018 107.454 100.045C107.14 100.131 106.822 100.213 106.501 100.291C106.422 100.31 106.344 100.329 106.265 100.347C105.608 100.508 104.939 100.654 104.259 100.792C104.188 100.807 104.117 100.822 104.042 100.837C103.762 100.893 103.481 100.941 103.197 100.994C103.007 101.027 102.816 101.061 102.626 101.095C102.364 101.139 102.099 101.181 101.834 101.222C101.609 101.255 101.385 101.289 101.157 101.319C100.911 101.352 100.66 101.39 100.41 101.42C100.111 101.457 99.8085 101.491 99.5058 101.524C99.2218 101.554 98.9377 101.588 98.6537 101.614C98.2801 101.651 97.9028 101.685 97.5216 101.715C97.3199 101.73 97.1143 101.745 96.9088 101.76C96.6286 101.778 96.1091 101.95 96.1316 102.021L98.9864 118.728C99.1171 122.651 98.9153 127.06 98.1157 131.813C98.0148 132.407 97.5627 132.885 96.9798 133.009C96.5725 133.095 96.1465 133.173 95.7019 133.248C95.19 135.236 94.5323 136.996 93.7477 138.55C94.9359 138.158 96.0307 137.829 97.1405 137.526C97.1629 137.534 97.1816 137.545 97.204 137.552C98.2727 137.171 99.3825 136.786 100.541 136.431C101.109 136.222 101.718 135.991 102.065 135.856C102.469 135.703 103.16 135.52 103.538 135.46C103.538 135.46 103.537 135.46 103.541 135.46C104.692 135.146 106.134 134.918 107.924 134.888C107.969 134.888 108.01 134.888 108.051 134.888C113.761 134.888 116.84 140.956 117.553 144.521C117.553 144.521 119.283 151.561 119.1 154.135C119.097 154.135 119.093 154.135 119.089 154.139C119.082 154.247 119.082 154.356 119.07 154.464C118.779 157.562 116.69 159.991 114.362 159.991C114.306 159.991 114.247 159.991 114.19 159.987C113.537 159.953 112.935 159.722 112.412 159.352C111.53 160.936 110.114 161.982 108.589 161.982C108.533 161.982 108.474 161.982 108.418 161.978C107.11 161.911 106.011 161.078 105.331 159.826C104.632 160.364 103.833 160.674 103.003 160.674C102.947 160.674 102.887 160.674 102.831 160.671C100.911 160.573 99.4422 158.836 99.0872 156.519C91.3338 159.908 88.0495 159.987 84.3391 160.144C84.1672 160.151 83.9953 160.155 83.8196 160.155C78.6519 160.155 73.8653 156.882 70.2147 153.358C67.3413 152.884 65.6038 152.461 64.2885 152.461C62.9733 152.461 62.1661 152.842 61.0601 153.926C61.0601 153.948 61.0601 153.975 61.0415 153.993C60.3651 154.789 59.558 155.757 58.6986 156.796C58.6799 156.818 58.6538 156.829 58.6276 156.829C58.6127 156.829 58.5939 156.829 58.5789 156.818C57.9699 157.577 57.3646 158.343 56.7705 159.112C56.7817 159.146 56.7818 159.18 56.7594 159.21C55.8887 160.357 55.0254 161.496 54.2669 162.505C54.2482 162.531 54.2183 162.543 54.1885 162.543C53.7214 163.185 53.2694 163.817 52.8434 164.422C52.2904 165.214 51.4309 166.731 50.351 168.387C49.996 169.392 49.4991 170.378 48.8713 171.346C45.2169 177.769 42.9377 177.919 42.9377 177.919C42.9377 177.919 42.9265 177.907 42.9116 177.889C42.4408 178.042 41.9476 178.109 41.4394 178.109C38.6818 178.109 35.472 176.084 32.9162 174.32C27.6327 170.673 21.1385 159.21 21.161 154.154C21.1087 152.278 22.1884 149.693 25.2823 148.478C26.2053 148.116 27.1769 147.985 28.0886 147.985C30.282 147.985 32.1315 148.729 32.1315 148.729C32.1315 148.729 32.1725 148.699 32.2435 148.658C35.5616 144.316 37.983 140.829 40.0493 138.076C37.3253 133.786 36.1409 128.372 36.451 121.941C36.0923 121.706 35.7373 121.47 35.3935 121.227C34.9526 120.917 34.7098 120.387 34.7845 119.841C35.1955 116.829 35.8493 113.866 36.649 111.012C33.9512 113.059 31.3542 113.978 29.2617 113.978C28.2155 113.978 27.2926 113.747 26.5452 113.313C22.3528 110.873 18.5677 107.021 15.4364 103.153C15.4289 103.153 15.4214 103.153 15.414 103.153C15.3953 103.153 15.3767 103.146 15.3618 103.131C14.5061 102.257 13.7401 101.218 13.2917 100.471C13.273 100.441 13.2805 100.407 13.2992 100.385C12.2455 98.9611 11.2963 97.586 10.4593 96.3305C6.88718 95.5234 4.82463 93.0647 4.43229 92.7135C-1.02685 87.8186 2.29119 82.1427 5.78863 82.053C4.8769 79.7214 5.51956 77.7261 7.62699 76.0633C8.65082 75.2562 10.1267 74.748 11.5765 74.748C13.2094 74.748 14.8049 75.3944 15.6867 76.9787C16.576 76.2239 17.6635 75.8727 18.7882 75.8727C21.8671 75.8727 25.215 78.5032 25.4318 82.6695C25.5177 84.3248 25.2339 86.4173 24.4604 88.4575C25.9438 90.7443 28.0175 93.8382 30.6854 97.5598C30.7489 97.6458 30.8461 97.6943 30.9432 97.6943C31.0217 97.6943 31.1002 97.6644 31.1674 97.6046C34.3248 94.6938 39.4328 91.0769 39.4888 91.0358C41.5028 89.5486 43.0797 88.8386 44.4697 88.8386C44.6677 88.8386 44.8582 88.8536 45.0488 88.8798C44.5705 88.5622 44.0997 88.237 43.6401 87.912C42.3883 87.0152 41.2038 86.0885 40.0903 85.132C39.3505 84.493 38.6407 83.8429 37.9606 83.1815C37.2805 82.5201 36.634 81.8475 36.0175 81.1599C34.7844 79.7923 33.6746 78.3762 32.6882 76.9302C31.7017 75.4804 30.8386 73.9969 30.095 72.4836C29.3514 70.9703 28.7312 69.4271 28.2305 67.8652C27.9802 67.0843 27.7597 66.2959 27.5692 65.5037C26.9003 62.7349 26.5977 59.91 26.65 57.074C26.6649 56.2631 26.7097 55.4523 26.7844 54.6414C27.5205 46.5256 31.1601 38.3948 37.5235 31.1795C37.729 30.944 37.9419 30.7087 38.1549 30.4733C38.2035 30.421 38.2519 30.3649 38.3005 30.3126C38.7414 29.8306 39.19 29.3448 39.657 28.859C39.6869 28.8254 39.7206 28.7955 39.7504 28.7619C40.4454 28.0407 41.1704 27.3196 41.9289 26.6059C41.9364 26.5984 41.9437 26.591 41.9512 26.5835C42.7059 25.8736 43.4907 25.1711 44.309 24.4798C44.3164 24.4723 44.324 24.4686 44.3278 24.4611C44.877 23.9978 45.4375 23.5419 46.0167 23.0935C45.6131 22.6526 45.2431 22.1818 44.9068 21.6811C44.9068 21.6774 44.9031 21.6736 44.8994 21.6699C44.735 21.4233 44.5781 21.1692 44.4286 20.9076C44.4286 20.9039 44.4212 20.8965 44.4212 20.8927C44.2792 20.6424 44.1484 20.3845 44.0251 20.123C44.0176 20.108 44.0101 20.093 44.0026 20.0781C43.8831 19.8203 43.7747 19.5588 43.6739 19.2897C43.6589 19.2486 43.6439 19.2112 43.629 19.1701C43.5356 18.9198 43.4534 18.6657 43.3786 18.4079C43.3712 18.3854 43.3636 18.3668 43.3599 18.3444C43.2851 18.0753 43.2179 17.8063 43.1619 17.5298C43.1507 17.47 43.1357 17.4065 43.1245 17.343C43.0722 17.0627 43.0237 16.7825 42.99 16.4985C42.8929 15.6765 42.8817 14.8581 42.949 14.0623C42.9826 13.6624 43.0385 13.27 43.1095 12.8814C43.2179 12.2985 43.3711 11.7306 43.5616 11.1776C45.0339 6.93661 48.8452 3.66704 53.6354 3.0804C54.0539 3.02808 54.4651 2.99819 54.8761 2.99072C54.9695 2.99072 55.0591 2.99072 55.1525 2.99072M55.1638 1.41016C55.0592 1.41016 54.9583 1.41016 54.8537 1.41016C54.3903 1.42137 53.9194 1.455 53.4561 1.51105C48.2623 2.15001 43.8046 5.7371 42.1008 10.647C41.884 11.2747 41.7084 11.9249 41.5888 12.5751C41.5066 13.016 41.443 13.4643 41.4056 13.909C41.3272 14.8207 41.3422 15.7437 41.4543 16.6629C41.488 16.9543 41.5364 17.257 41.6074 17.6195C41.6224 17.6905 41.6337 17.7577 41.6487 17.8287C41.7197 18.1687 41.7942 18.4677 41.8727 18.7517C41.8802 18.7778 41.8878 18.8077 41.899 18.8339C41.9774 19.1066 42.0709 19.3905 42.1792 19.6895L42.1942 19.7306C42.2054 19.7642 42.2165 19.7941 42.2314 19.8278C42.3472 20.1342 42.4705 20.4331 42.6051 20.717L42.6313 20.7694C42.7696 21.0646 42.9189 21.3523 43.0721 21.6288C43.0759 21.6363 43.0797 21.6438 43.0834 21.6475C43.2516 21.9465 43.4309 22.2378 43.6215 22.5218C43.6252 22.5293 43.6326 22.5368 43.6401 22.548C43.7074 22.6452 43.7746 22.7423 43.8419 22.8395C43.6737 22.9777 43.5093 23.1159 43.3449 23.2542C43.3449 23.2542 43.3301 23.2654 43.3301 23.2691C42.5118 23.9604 41.6971 24.6853 40.905 25.4364L40.8676 25.47C40.1352 26.1613 39.3843 26.9048 38.6519 27.6671L38.5621 27.7605C38.5621 27.7605 38.5548 27.768 38.551 27.7717C38.5473 27.7755 38.5398 27.783 38.5361 27.7867C38.0802 28.2612 37.6206 28.7544 37.1648 29.2551L37.0115 29.4233C36.7948 29.6624 36.5817 29.9016 36.3687 30.1408C29.8671 37.5093 26.0221 45.9315 25.2449 54.4958C25.1665 55.344 25.1218 56.1997 25.1068 57.0404C25.0508 60.0184 25.372 62.9852 26.067 65.8624C26.2651 66.6882 26.5004 67.5215 26.762 68.3323C27.2889 69.9689 27.9428 71.5943 28.7126 73.16C29.4898 74.7443 30.3977 76.3024 31.4178 77.797C32.4453 79.3066 33.6112 80.7863 34.8779 82.195C35.5169 82.9049 36.1931 83.6074 36.8918 84.2875C37.5943 84.9713 38.3342 85.6513 39.0927 86.3015C39.7952 86.9068 40.5313 87.5009 41.2861 88.0801C40.4529 88.4836 39.5635 89.0404 38.5808 89.7653L38.566 89.7765C37.7738 90.3407 34.0558 93.0199 31.1749 95.5122C29.4 93.0124 27.7373 90.5724 26.209 88.2333C26.8218 86.3538 27.1057 84.3697 27.0123 82.5724C26.7508 77.4607 22.551 74.2959 18.8106 74.2959C17.8354 74.2959 16.9086 74.4977 16.0753 74.8863C14.9506 73.7803 13.3888 73.1674 11.5989 73.1674C9.83153 73.1674 7.99326 73.7839 6.68172 74.819C4.14084 76.8255 3.64764 79.0301 3.90173 80.8834C2.36973 81.5299 1.07677 82.89 0.434078 84.6424C-0.698105 87.7214 0.415475 91.1666 3.41221 93.8569C3.43837 93.8831 3.48315 93.9278 3.5392 93.9876C4.2342 94.6938 6.26699 96.7565 9.51408 97.6757C10.3025 98.849 11.0721 99.9437 11.8456 101.001C11.8792 101.087 11.9204 101.173 11.9689 101.255C12.5631 102.242 13.4224 103.344 14.2669 104.207C14.3267 104.267 14.3866 104.319 14.4501 104.368C18.2577 109.027 22.0688 112.484 25.783 114.643C26.7806 115.226 27.9614 115.522 29.2842 115.522C30.8349 115.522 32.5201 115.099 34.224 114.307C33.8167 116.112 33.4954 117.887 33.26 119.609C33.1068 120.727 33.5887 121.825 34.5154 122.479C34.6312 122.561 34.7509 122.643 34.8779 122.729C34.7098 128.678 35.8233 133.79 38.1923 137.96C37.5571 138.823 36.8806 139.75 36.1819 140.717C34.8554 142.548 33.3684 144.596 31.6234 146.901C30.7677 146.666 29.5009 146.404 28.1109 146.404C26.8815 146.404 25.7458 146.606 24.7332 147.002C20.8695 148.519 19.569 151.796 19.6251 154.15C19.6251 159.923 26.4668 171.723 32.0567 175.583C35.117 177.694 38.3753 179.649 41.4655 179.649C42.0185 179.649 42.5566 179.585 43.061 179.454C43.061 179.454 43.0609 179.454 43.0647 179.454C43.7933 179.406 46.4651 178.741 50.2278 172.138C50.8743 171.141 51.3973 170.109 51.7821 169.067C52.2828 168.293 52.7312 167.561 53.1273 166.915C53.5383 166.242 53.8933 165.663 54.1474 165.3C54.4986 164.799 54.8873 164.254 55.3058 163.679C55.3917 163.604 55.4701 163.518 55.5411 163.424C56.2959 162.419 57.1591 161.28 58.0298 160.136C58.112 160.028 58.1792 159.912 58.2315 159.793C58.6725 159.225 59.1209 158.657 59.5693 158.096C59.7038 158.006 59.8233 157.898 59.928 157.771C60.8434 156.658 61.6244 155.723 62.2559 154.984C62.2895 154.942 62.3268 154.898 62.3604 154.845C63.1376 154.128 63.6085 154.001 64.311 154.001C65.0844 154.001 66.1493 154.195 67.6215 154.464C68.1858 154.565 68.8098 154.681 69.5048 154.8C74.3623 159.378 79.1825 161.698 83.8382 161.698C84.0325 161.698 84.2269 161.694 84.4212 161.687L84.6379 161.679C88.0831 161.534 91.3525 161.396 98.0858 158.63C98.9714 160.734 100.701 162.109 102.768 162.218C102.854 162.221 102.936 162.225 103.018 162.225C103.657 162.225 104.288 162.102 104.898 161.859C105.832 162.868 107.035 163.462 108.354 163.529C108.44 163.533 108.522 163.537 108.604 163.537C110.23 163.537 111.78 162.733 112.95 161.332C113.331 161.452 113.727 161.523 114.123 161.541C114.209 161.545 114.291 161.549 114.377 161.549C117.52 161.549 120.27 158.5 120.636 154.61C120.644 154.539 120.647 154.472 120.651 154.404C120.659 154.352 120.666 154.3 120.67 154.247C120.864 151.516 119.28 144.951 119.085 144.159C118.189 139.783 114.531 133.326 108.066 133.326H108.063C108.014 133.326 107.965 133.326 107.913 133.326C106.213 133.353 104.644 133.554 103.242 133.924C102.745 134.01 101.991 134.216 101.52 134.395C101.18 134.526 100.597 134.746 100.047 134.948C98.9639 135.281 97.9439 135.632 96.9911 135.968C96.9051 135.976 96.8229 135.994 96.7369 136.017C96.651 136.039 96.5651 136.065 96.4791 136.088C96.6473 135.606 96.8042 135.112 96.9537 134.608C97.0732 134.586 97.1928 134.559 97.3124 134.537C98.5156 134.283 99.4608 133.293 99.6664 132.075C100.406 127.665 100.705 123.159 100.556 118.679C100.556 118.608 100.545 118.537 100.533 118.47L97.9364 103.254C98.2315 103.228 98.5269 103.202 98.8183 103.172C99.1098 103.142 99.4012 103.112 99.6926 103.079C100.003 103.045 100.317 103.008 100.623 102.97C100.862 102.94 101.101 102.907 101.337 102.873L101.389 102.866C101.621 102.832 101.852 102.798 102.084 102.765C102.357 102.724 102.63 102.679 102.899 102.634C103.082 102.604 103.265 102.571 103.448 102.537L103.485 102.529L103.519 102.522C103.799 102.473 104.079 102.421 104.356 102.369C104.404 102.358 104.453 102.35 104.502 102.339L104.58 102.324C105.264 102.189 105.959 102.033 106.646 101.868L106.736 101.846L106.886 101.808C107.218 101.726 107.543 101.64 107.868 101.554L107.913 101.543C108.003 101.521 108.092 101.494 108.182 101.468C108.511 101.379 108.84 101.285 109.165 101.188L109.299 101.147L109.363 101.128C110.484 100.788 111.579 100.411 112.625 100.007C112.886 99.9064 113.148 99.8018 113.406 99.6934C113.985 99.4543 114.572 99.2001 115.155 98.9274L115.173 98.9199L115.218 98.8976C116.354 98.367 117.464 97.784 118.51 97.1675L118.592 97.1189L118.641 97.089C119.097 96.8162 119.556 96.5323 120.001 96.2371L120.076 96.1885L120.218 96.0951C121.174 95.4599 122.093 94.7798 122.956 94.0736C123.027 94.0138 123.099 93.954 123.17 93.8942L123.263 93.8158C123.588 93.543 123.909 93.2628 124.22 92.9863L124.298 92.9153C124.384 92.8368 124.47 92.762 124.556 92.6836C124.997 92.2726 125.378 91.9064 125.714 91.5626C125.819 91.4542 125.923 91.3459 126.024 91.2338L126.162 91.0881C126.525 90.7032 126.873 90.3146 127.201 89.9298C127.235 89.8924 127.269 89.855 127.302 89.8139C127.366 89.7429 127.429 89.6681 127.493 89.5934C127.814 89.2048 128.143 88.79 128.52 88.2781L128.614 88.1474L128.659 88.0876C128.98 87.6541 129.29 87.2057 129.581 86.7648C129.585 86.7573 129.589 86.7499 129.593 86.7462C129.727 86.5407 129.862 86.3351 129.992 86.1296C130.198 85.8045 130.366 85.5317 130.519 85.2739C130.523 85.2664 130.531 85.2553 130.534 85.2478C130.766 84.8555 130.998 84.4295 131.252 83.9475L131.282 83.8876C131.502 83.4654 131.723 83.0171 131.939 82.5538C132.167 82.068 132.391 81.5561 132.601 81.0367L132.623 80.9768L132.69 80.8162C132.933 80.2146 133.124 79.7027 133.292 79.2132C133.456 78.7386 133.613 78.2379 133.793 77.6289C133.916 77.2029 134.024 76.8218 134.118 76.4594C134.207 76.1156 134.297 75.7494 134.387 75.3534C134.394 75.3235 134.402 75.2972 134.405 75.2748C134.405 75.2599 134.413 75.2487 134.413 75.2338C134.495 74.8713 134.577 74.4715 134.66 74.0231C134.678 73.9334 134.693 73.8363 134.712 73.7429L134.727 73.6532C134.783 73.3468 134.835 73.0367 134.88 72.7265L134.891 72.6443C134.906 72.5472 134.921 72.45 134.936 72.3491C135.003 71.8783 135.059 71.4635 135.104 71.0787C135.164 70.5443 135.216 69.9801 135.265 69.2963C135.287 68.9787 135.317 68.5789 135.336 68.1865C135.448 65.7428 135.366 63.1871 135.085 60.5976C134.917 59.032 134.671 57.4253 134.361 55.8185C134.327 55.6392 134.29 55.4561 134.252 55.2693C134.252 55.2693 134.252 55.2692 134.252 55.2655C134.252 55.258 134.252 55.2543 134.252 55.2468L134.219 55.0936C134.185 54.9254 134.148 54.7461 134.107 54.5592L134.092 54.4845C134.047 54.2865 134.002 54.0735 133.949 53.8568L133.923 53.7447C133.923 53.7447 133.92 53.726 133.916 53.7185C133.916 53.7148 133.916 53.711 133.916 53.7036C133.871 53.5093 133.823 53.3113 133.774 53.1095C133.774 53.0983 133.77 53.0908 133.766 53.0796L133.755 53.0273C133.699 52.7994 133.636 52.5564 133.572 52.3061L133.557 52.2501V52.2314C133.49 51.9997 133.426 51.7643 133.359 51.5215C133.359 51.5177 133.359 51.514 133.355 51.5065C133.355 51.5028 133.355 51.4953 133.352 51.4915L133.344 51.4691C133.191 50.9198 133.027 50.3706 132.855 49.8288C132.855 49.8213 132.851 49.8138 132.847 49.8101C132.847 49.8063 132.847 49.7988 132.843 49.7951C132.84 49.7802 132.832 49.7653 132.828 49.7503C132.645 49.1674 132.444 48.577 132.238 47.9978L132.219 47.9493C132.836 47.6429 133.43 47.2916 133.994 46.8993L134.043 46.8657L134.065 46.8507C134.405 46.6116 134.712 46.3761 134.999 46.1332C135.011 46.1258 135.026 46.1109 135.041 46.0959C135.34 45.8456 135.624 45.584 135.889 45.315C135.904 45.3 135.923 45.2851 135.937 45.2702C136.188 45.0198 136.438 44.7433 136.7 44.4294C136.745 44.3771 136.782 44.3322 136.819 44.2837C137.055 43.9959 137.283 43.6933 137.488 43.3944C137.514 43.357 137.537 43.3196 137.563 43.286L137.593 43.2449C137.836 42.8824 138.037 42.5574 138.213 42.2398C139.184 40.4948 139.764 38.5929 139.943 36.5901C140.006 35.8689 140.018 35.1365 139.973 34.4079C139.943 33.9259 139.891 33.4401 139.816 32.9618C139.439 30.5667 138.478 28.2351 137.036 26.2211C135.683 24.3304 133.972 22.7759 131.947 21.5952C131.936 21.5914 131.924 21.5839 131.913 21.5765C131.715 21.4606 131.498 21.3448 131.282 21.229C131.229 21.1991 131.173 21.1729 131.117 21.1468L131.05 21.1131C130.9 21.0384 130.755 20.9637 130.605 20.8965C130.542 20.8666 130.474 20.8367 130.407 20.8068L130.333 20.7731C130.194 20.7133 130.056 20.6498 129.922 20.5938C129.839 20.5602 129.757 20.5303 129.679 20.4966L129.63 20.4779C129.499 20.4256 129.365 20.3771 129.234 20.3285C129.133 20.2911 129.032 20.2575 128.928 20.2239C128.797 20.179 128.666 20.1379 128.539 20.0968C128.434 20.0632 128.33 20.0333 128.229 20.0034C128.098 19.966 127.967 19.9324 127.84 19.8987C127.736 19.8726 127.631 19.8427 127.523 19.8203C127.392 19.7904 127.265 19.7605 127.134 19.7344L127.1 19.7269C127.007 19.7082 126.91 19.6858 126.816 19.6709C126.686 19.6447 126.555 19.626 126.424 19.6035L126.353 19.5924C126.271 19.5775 126.189 19.5662 126.106 19.555C125.987 19.5363 125.867 19.5251 125.744 19.5101H125.707L125.624 19.4953C125.55 19.4878 125.471 19.4765 125.397 19.4691C125.277 19.4579 125.154 19.4504 125.034 19.4391H124.971C124.836 19.4242 124.713 19.4167 124.593 19.413C124.399 19.4055 124.208 19.3981 124.014 19.3981H123.98C123.902 19.3981 123.823 19.3981 123.749 19.3981H123.659H123.577C123.491 19.3981 123.401 19.3981 123.315 19.4056C123.214 19.4093 123.114 19.4167 123.013 19.4242H122.942L122.878 19.4317C122.792 19.4354 122.71 19.4429 122.624 19.4504C122.501 19.4616 122.381 19.4728 122.262 19.4878H122.239L122.194 19.4953C122.108 19.5065 122.022 19.5139 121.936 19.5251C121.806 19.5438 121.679 19.5625 121.548 19.5812C121.451 19.5961 121.357 19.611 121.26 19.6297C121.126 19.6521 120.995 19.6783 120.864 19.7044C120.774 19.7231 120.681 19.7419 120.591 19.7643C120.457 19.7942 120.322 19.8278 120.191 19.8614C120.117 19.8801 120.038 19.9025 119.964 19.9212H119.945C119.807 19.966 119.668 20.0034 119.53 20.0445C119.474 20.0632 119.418 20.0781 119.362 20.0968L119.31 20.1155C119.164 20.1641 119.018 20.2089 118.876 20.2612C118.835 20.2761 118.794 20.2911 118.753 20.3061L118.704 20.3248C118.547 20.3845 118.39 20.4406 118.237 20.5041L118.174 20.5302C117.419 20.8441 116.675 21.2327 115.98 21.6774C115.947 21.6998 115.921 21.7148 115.894 21.7297C115.749 21.8231 115.603 21.9239 115.457 22.0286L115.427 22.051L115.338 22.1146C115.196 22.2155 115.061 22.32 114.927 22.4247C114.878 22.462 114.833 22.4957 114.792 22.5293C114.665 22.6339 114.534 22.7423 114.404 22.8507C114.362 22.8843 114.318 22.9254 114.273 22.9627C114.146 23.0748 114.019 23.1907 113.895 23.3065C113.854 23.3439 113.813 23.385 113.776 23.4224C113.675 23.5196 113.578 23.6166 113.481 23.7175C113.253 23.5606 113.025 23.4074 112.793 23.2504C112.786 23.243 112.774 23.2393 112.763 23.2318C112.453 23.0226 112.135 22.817 111.814 22.6115L111.795 22.6003C111.478 22.3985 111.156 22.1968 110.831 21.9987L110.783 21.9688C110.461 21.7708 110.133 21.5765 109.796 21.3822L109.751 21.3561C109.423 21.1655 109.09 20.9749 108.754 20.7881L108.739 20.7806L108.683 20.7507C108.354 20.5676 108.022 20.3883 107.685 20.2089L107.651 20.1902L107.588 20.1565C107.259 19.9809 106.927 19.8128 106.59 19.6409L106.545 19.6185L106.46 19.5737C106.138 19.413 105.813 19.2561 105.488 19.0954L105.421 19.0618C105.38 19.0431 105.339 19.0207 105.297 19.002C104.98 18.8488 104.655 18.6994 104.326 18.5499L104.24 18.5087L104.113 18.449C103.792 18.3033 103.463 18.1612 103.138 18.0192L103.037 17.9744C102.988 17.952 102.943 17.9334 102.895 17.9109C102.581 17.7764 102.263 17.6456 101.942 17.5111L101.822 17.4625C101.763 17.4363 101.703 17.4139 101.643 17.3878C101.348 17.2682 101.045 17.1486 100.739 17.0291L100.701 17.0141L100.567 16.9618C100.5 16.9357 100.429 16.9058 100.361 16.8796C100.051 16.7601 99.7336 16.6442 99.416 16.5283L99.2666 16.4723C99.1919 16.4462 99.1209 16.4163 99.0462 16.3901C98.6875 16.2594 98.3213 16.1323 97.9551 16.0053L97.8543 15.9716C97.8019 15.9529 97.7533 15.9343 97.701 15.9193C97.2489 15.7661 96.7856 15.6129 96.3222 15.4635C95.7505 15.2804 95.1452 15.0935 94.4204 14.8805C94.2559 14.832 94.0915 14.7833 93.9308 14.7385C93.3591 14.5741 92.8097 14.4209 92.2941 14.2789L92.1932 14.2528L92.0401 14.2117C91.4609 14.0585 90.8668 13.909 90.2204 13.7521C90.112 13.7259 90.0036 13.6998 89.8952 13.6736L89.7794 13.6475C89.2749 13.5279 88.7705 13.4158 88.2847 13.3112L88.1541 13.2813C88.0794 13.2663 88.0083 13.2477 87.9335 13.2327C87.3469 13.1094 86.7566 12.9935 86.1774 12.8852C86.1027 12.8702 86.0316 12.8591 85.9569 12.8441L85.8337 12.8217C85.3517 12.7357 84.8583 12.6498 84.3688 12.5751L84.2568 12.5564C84.1708 12.5415 84.0849 12.5302 83.999 12.5153C83.3937 12.4218 82.8331 12.3434 82.2913 12.2762L82.1792 12.2612L82.1119 12.2537C81.6187 12.1939 81.1181 12.1379 80.5875 12.0856L80.5202 12.0781L80.24 12.0519C79.1414 11.9473 78.0354 11.8726 76.9555 11.8315C76.8546 11.8278 76.7537 11.824 76.6528 11.8203C76.0026 11.7979 75.3488 11.7866 74.7135 11.7866C74.2988 11.7866 73.8804 11.7904 73.4731 11.8016H73.3198L73.2414 11.8091C72.7407 11.824 72.2549 11.8427 71.7916 11.8688H71.7579L71.6869 11.8726C71.175 11.9025 70.6556 11.9399 70.1362 11.9847L70.0467 11.9922H70.0018C69.5347 12.037 69.0639 12.0856 68.6006 12.1416L68.5407 12.1491H68.5071C68.1709 10.5461 67.5506 9.03649 66.6538 7.64648C66.4147 7.27656 66.1567 6.9179 65.8877 6.57787C65.6149 6.23785 65.3272 5.90524 65.0245 5.59137C63.8027 4.3284 62.3679 3.32327 60.7574 2.60584C58.99 1.81743 57.1142 1.42138 55.175 1.42138L55.1638 1.41016Z" fill="#212121"/>
<path d="M26.5561 113.302C28.9923 114.718 33.3006 113.971 37.7434 110.126C41.4874 106.883 45.4071 103.886 47.8247 101.218C50.4851 98.285 51.0793 94.0626 48.5085 91.1219C45.934 88.1812 43.6247 87.9757 39.4958 91.0285C39.4398 91.0696 34.3356 94.6866 31.1744 97.5974C31.0287 97.7319 30.8045 97.7095 30.6924 97.5526C24.755 89.2723 21.7508 84.0897 21.6911 84.0037C18.5673 79.4003 14.0983 79.0976 11.1277 81.7133C8.15716 84.3251 6.0236 89.3694 7.5145 91.7197C10.1936 95.9495 17.4202 107.993 26.5561 113.31V113.302Z" fill="url(#paint1_linear_2531_5655)"/>
<path d="M30.3303 98.0869L27.98 100.284" stroke="#DE955C" stroke-width="2.90081" stroke-linecap="round" stroke-linejoin="round"/>
<path d="M20.1515 99.0624C20.372 98.6962 19.9834 98.274 19.606 98.472C17.6406 99.507 15.1296 100.232 13.3622 100.348C13.3024 100.352 13.2688 100.415 13.2987 100.464C13.7508 101.211 14.5168 102.25 15.3724 103.124C15.3948 103.146 15.4285 103.154 15.4584 103.143C17.1137 102.429 18.9633 101.032 20.1515 99.0624Z" fill="#212121"/>
<path d="M5.79577 82.0418C4.88404 79.7102 5.52671 77.7149 7.63414 76.0521C9.81256 74.3333 14.0348 73.9708 15.6939 76.9675C19.012 74.1427 25.1474 76.9675 25.4389 82.6546C25.6332 86.4584 23.8957 92.5491 18.6906 95.09C10.0404 99.3085 5.07465 93.2703 4.43943 92.7023C-1.01971 87.8074 2.29833 82.1315 5.79577 82.0418Z" fill="white"/>
<path d="M8.77735 92.6533C8.9866 93.5352 10.2159 95.1793 14.655 93.1915C19.094 91.2036 20.4429 89.3054 19.8488 87.9004C19.3481 86.7085 17.704 86.6338 16.243 86.3797C14.5616 86.0882 13.9787 83.8837 12.3121 84.6908C10.5634 85.5352 11.1165 88.0947 10.3878 89.0364C9.10619 90.6954 8.5681 91.7678 8.77735 92.6496V92.6533Z" fill="#DE978C"/>
<path d="M11.7519 83.0992C12.8019 82.3705 13.0784 80.9319 12.3722 79.8819C11.666 78.832 10.2423 78.5704 9.19228 79.299C8.1423 80.0276 7.86592 81.4663 8.57213 82.5162C9.27835 83.5662 10.7019 83.8278 11.7519 83.0992Z" fill="#DE978C"/>
<path d="M19.2327 84.3918C20.2603 83.6819 20.5294 82.2731 19.8381 81.2493C19.1468 80.2255 17.7567 79.9677 16.7291 80.6814C15.7016 81.3914 15.4327 82.8 16.124 83.8238C16.8152 84.8477 18.2052 85.1055 19.2327 84.3918Z" fill="#DE978C"/>
<path d="M8.10869 89.7469C9.13625 89.0369 9.40533 87.6282 8.71406 86.6043C8.0228 85.5805 6.63267 85.3227 5.60511 86.0364C4.58129 86.7463 4.30866 88.1551 4.99993 89.1789C5.69119 90.2027 7.08113 90.4605 8.10869 89.7469Z" fill="#DE978C"/>
<path d="M15.3653 77.5317C15.3653 77.5317 12.9031 79.7886 13.9979 82.4677" stroke="#F6D5D1" stroke-width="2.90081" stroke-linecap="round" stroke-linejoin="round"/>
<path d="M99.6548 137.522C99.6548 137.522 101.684 134.981 107.928 134.88C113.719 134.787 116.839 140.923 117.557 144.513C117.557 144.513 119.287 151.553 119.104 154.128C119.1 154.128 119.096 154.128 119.092 154.131C119.089 154.24 119.085 154.348 119.074 154.456C118.775 157.629 116.589 160.102 114.194 159.979C113.54 159.945 112.938 159.714 112.415 159.344C111.5 160.988 110.009 162.049 108.425 161.967C107.117 161.9 106.018 161.066 105.338 159.815C104.591 160.39 103.731 160.704 102.838 160.659C100.443 160.536 98.743 157.864 99.0419 154.692C99.1802 153.208 99.737 151.882 100.533 150.899C100.055 145.746 99.6622 137.526 99.6622 137.526L99.6548 137.522Z" fill="white"/>
<path d="M63.2455 144.797C63.2455 144.797 72.9233 160.618 84.3386 160.129C89.4913 159.908 93.8181 159.845 110.423 150.858C115.524 148.175 112.692 141.468 110.278 138.486C108.428 136.203 105.813 134.955 101.871 136.035C90.9 139.039 84.6711 145.563 72.6319 129.776C71.6267 128.457 69.6874 128.439 68.5141 129.717C63.2269 135.475 63.2417 144.801 63.2417 144.801L63.2455 144.797Z" fill="url(#paint2_linear_2531_5655)"/>
<path d="M112.083 159.277C112.161 159.266 112.236 159.239 112.311 159.195C112.587 159.026 112.692 158.66 112.543 158.38C111.616 156.642 112.442 154.584 112.449 154.561C112.576 154.255 112.442 153.915 112.154 153.799C111.866 153.683 111.53 153.836 111.403 154.139C111.358 154.244 110.338 156.751 111.537 158.993C111.649 159.198 111.866 159.303 112.083 159.273V159.277Z" fill="#F6D5D1"/>
<path d="M105.244 159.631C105.315 159.624 105.386 159.598 105.454 159.56C105.738 159.4 105.85 159.041 105.711 158.753C105.289 157.898 105.629 157.192 105.633 157.184C105.786 156.889 105.682 156.534 105.405 156.392C105.128 156.246 104.781 156.369 104.631 156.665C104.605 156.717 104 157.924 104.688 159.329C104.796 159.546 105.016 159.658 105.244 159.628V159.631Z" fill="#F6D5D1"/>
<path d="M108.466 140.194C105.495 138.584 102.218 137.519 99.5654 136.783C100.186 136.562 101.486 136.073 102.069 135.852C102.472 135.699 103.164 135.516 103.541 135.456C105.488 136.177 107.427 137.309 109.067 139.436C109.385 139.843 108.918 140.441 108.47 140.198L108.466 140.194Z" fill="#212121"/>
<path d="M102.464 142.369C99.4302 140.725 95.8058 139.484 93.1304 138.752C94.5652 138.262 95.843 137.877 97.1434 137.522C99.1125 138.236 101.396 139.447 103.066 141.61C103.383 142.018 102.916 142.615 102.468 142.373L102.464 142.369Z" fill="#212121"/>
<path d="M37.9713 111.826C32.3328 135.538 41.8574 149.304 67.9611 149.696C86.8084 149.98 100.118 144.611 96.3927 110.78C93.8444 87.6429 79.7202 79.3104 67.6959 77.6887C56.9345 76.2352 45.1156 81.7877 37.9713 111.826Z" fill="url(#paint3_linear_2531_5655)"/>
<path d="M42.2606 109.468C37.0257 125.928 43.9682 134.234 56.71 133.685C69.4778 133.132 86.6849 127.534 78.7185 115.043C75.4976 109.995 73.4387 110.114 61.7507 108.194C50.0627 106.269 43.2845 105.87 42.2606 109.472V109.468Z" fill="white"/>
<path d="M67.0499 108.321C65.9738 108.321 64.8715 108.13 63.7729 107.757C60.7164 106.718 58.5117 104.801 57.2226 102.062C54.3193 95.8969 57.3496 87.7735 57.4804 87.4334C57.8167 86.5516 58.6761 85.9575 59.6214 85.9575C59.898 85.9575 60.1745 86.0098 60.4361 86.1069C61.0078 86.3237 61.4599 86.7497 61.714 87.3102C61.9643 87.867 61.983 88.4909 61.7663 89.0626C61.7439 89.1262 59.3075 95.7473 61.3739 100.119C62.1249 101.707 63.3918 102.787 65.2526 103.419C65.8729 103.628 66.4782 103.736 67.0499 103.736C67.8122 103.736 68.5408 103.553 69.2769 103.179C73.488 101.042 75.771 93.8978 75.7935 93.8268C76.0961 92.8627 76.9742 92.2163 77.983 92.2163C78.2147 92.2163 78.4426 92.2499 78.663 92.3209C79.87 92.6983 80.5463 93.9837 80.1726 95.1869C80.0568 95.5568 77.2955 104.241 71.3656 107.26C69.9868 107.962 68.5371 108.317 67.0574 108.317L67.0499 108.321Z" fill="#3D77C0"/>
<path d="M59.6179 86.7382C59.7972 86.7382 59.9766 86.7719 60.1559 86.8354C60.9369 87.1306 61.3291 88.0049 61.0302 88.7859C61.0041 88.8531 58.4446 95.762 60.6604 100.455C61.5049 102.245 62.9247 103.459 64.991 104.162C65.6972 104.401 66.3773 104.521 67.0387 104.521C67.9242 104.521 68.78 104.308 69.6207 103.882C74.1307 101.591 76.5034 94.1403 76.5295 94.0656C76.7313 93.4192 77.3293 93.0045 77.972 93.0045C78.1214 93.0045 78.2708 93.0269 78.4203 93.0717C79.2162 93.3183 79.6609 94.1665 79.4143 94.9624C79.3022 95.3174 76.6454 103.698 70.9995 106.572C69.7253 107.222 68.4025 107.547 67.0461 107.547C66.0522 107.547 65.0433 107.372 64.0195 107.024C61.1685 106.056 59.1171 104.278 57.9214 101.737C55.1638 95.8779 58.0784 88.046 58.2017 87.7172C58.4296 87.1118 59.005 86.742 59.614 86.742M59.6179 85.1763C58.3512 85.1763 57.1965 85.9722 56.7481 87.1604C56.6136 87.5154 53.4749 95.9414 56.5127 102.398C57.8953 105.335 60.2531 107.387 63.5188 108.496C64.6996 108.896 65.8841 109.102 67.0461 109.102C68.6491 109.102 70.2148 108.717 71.7057 107.958C77.8263 104.842 80.6061 96.3749 80.9051 95.422C81.4058 93.8078 80.5015 92.0815 78.8873 91.5808C78.5884 91.4874 78.2821 91.4425 77.972 91.4425C76.6193 91.4425 75.4423 92.3094 75.0387 93.5985C74.4334 95.5117 72.1503 100.848 68.9144 102.492C68.2904 102.809 67.6776 102.962 67.0387 102.962C66.5454 102.962 66.0372 102.873 65.4917 102.686C63.8214 102.118 62.7342 101.199 62.0691 99.7901C60.1522 95.7321 62.465 89.3987 62.4874 89.3351C62.7752 88.5766 62.7528 87.7396 62.4165 86.9923C62.0802 86.245 61.4713 85.6733 60.7053 85.3818C60.354 85.2473 59.9877 85.18 59.614 85.18L59.6179 85.1763Z" fill="#212121"/>
<path d="M86.2746 134.667C69.8038 134.667 46.8874 130.266 34.949 121.851C34.2615 121.365 33.9028 120.551 34.0149 119.725C36.5558 101.117 48.2177 84.2198 48.3297 84.089C48.4792 83.9171 48.6959 83.8237 48.9163 83.8237C49.0023 83.8237 49.0844 83.8386 49.1666 83.8648L58.7398 87.1306C59.7263 87.4669 60.3504 88.4645 60.2233 89.4996C60.171 89.9368 60.1037 90.4076 60.0365 90.9008C59.3265 96.0124 58.3588 103.011 65.1818 104.991C65.7946 105.171 66.4072 105.26 67.0013 105.26C72.2139 105.26 75.5657 98.445 76.7652 95.5155C77.1127 94.6673 77.9271 94.118 78.8425 94.118C79.0854 94.118 79.3284 94.1591 79.5601 94.2375L95.8365 99.7901C95.9934 99.8424 96.1317 99.9471 96.2251 100.085C96.2886 100.179 101.98 113.563 98.8894 131.951C98.7362 132.855 98.0336 133.591 97.1443 133.778C94.3531 134.368 90.5941 134.679 86.2746 134.679V134.667Z" fill="#3D77C0"/>
<path d="M48.9233 84.601L58.4926 87.8668C59.1316 88.0835 59.5352 88.7224 59.453 89.4025C58.8477 94.3422 56.7776 103.359 64.9681 105.739C65.6743 105.944 66.3545 106.038 67.0046 106.038C72.5049 106.038 76.0547 99.3119 77.4895 95.807C77.7212 95.2391 78.2667 94.8915 78.8458 94.8915C78.999 94.8915 79.1559 94.9177 79.3091 94.97L95.5856 100.523C95.5856 100.526 101.164 113.69 98.1191 131.813C98.0183 132.407 97.5661 132.885 96.9832 133.008C94.2107 133.591 90.5189 133.89 86.2741 133.89C70.6926 133.89 47.6753 129.87 35.4006 121.216C34.9597 120.906 34.7169 120.375 34.7916 119.829C37.3213 101.307 48.9122 84.6122 48.9196 84.6048M48.9233 83.0391C48.4824 83.0391 48.049 83.226 47.7463 83.5735C47.5782 83.764 44.6 88.1246 41.4052 94.5777C38.4197 100.601 34.5822 109.838 33.2483 119.616C33.0951 120.734 33.5772 121.832 34.5039 122.486C41.8126 127.639 51.9985 130.677 59.2549 132.317C68.062 134.305 77.9079 135.448 86.2741 135.448C90.6459 135.448 94.461 135.131 97.3045 134.533C98.5077 134.279 99.4531 133.289 99.6587 132.07C101.269 122.482 100.477 114.284 99.5315 109.09C98.489 103.37 97.043 99.9135 96.9122 99.7005C96.7217 99.3941 96.4301 99.1624 96.0901 99.0429L79.8136 93.4903C79.4997 93.3819 79.1747 93.3296 78.8458 93.3296C77.6128 93.3296 76.5141 94.0695 76.0471 95.2129C75.1577 97.3876 71.8771 104.476 67.0046 104.476C66.4853 104.476 65.9471 104.397 65.4053 104.237C59.6921 102.578 59.9461 97.2605 60.813 91.0017C60.8803 90.5048 60.9475 90.0302 60.9998 89.5893C61.1717 88.1881 60.3274 86.8429 58.9934 86.387L49.4203 83.1213C49.2559 83.0652 49.084 83.0391 48.9158 83.0391H48.9233Z" fill="#212121"/>
<path d="M84.2788 98.4676C84.2788 98.4676 76.7832 115.14 62.1956 110.526C49.5211 106.516 53.6053 90.7104 53.6053 90.7104" stroke="white" stroke-width="2.90081" stroke-linecap="round" stroke-linejoin="round"/>
<path d="M77.9753 94.5106C77.9753 94.5106 73.5736 108.672 64.5087 105.589C54.3452 102.133 59.6176 88.248 59.6176 88.248" stroke="white" stroke-width="2.90081" stroke-linecap="round" stroke-linejoin="round"/>
<path d="M87.1148 145.904C84.97 150.604 81.7641 155.051 71.8771 153.605C63.5856 152.391 63.2567 151.101 59.6135 155.544C57.2184 158.459 54.7823 161.657 52.8505 164.415C50.9187 167.172 45.2651 178.771 39.6154 174.261C19.4752 158.186 25.7191 157.072 31.1894 150.021C43.1913 134.56 44.0732 129.198 55.3988 129.377C62.289 129.489 72.3666 134.085 80.6021 134.922C88.1462 137.825 88.4562 142.967 87.1148 145.904Z" fill="url(#paint4_linear_2531_5655)"/>
<path d="M42.9444 177.908C42.9444 177.908 45.2238 177.758 48.8744 171.335C53.022 164.975 51.3891 157.734 41.8944 150.582C35.8599 146.034 32.1345 148.714 32.1345 148.714C32.1345 148.714 28.4317 147.226 25.2855 148.463C22.1916 149.678 21.1116 152.263 21.1639 154.139C21.1826 154.763 42.9408 177.904 42.9408 177.904L42.9444 177.908Z" fill="white"/>
<path d="M34.6344 157.379C34.6344 157.379 36.9286 154.064 41.2256 158.642C46.7072 164.478 47.533 174.302 44.4242 177.018C41.3153 179.735 36.4839 176.764 32.9267 174.305C27.6432 170.658 21.149 159.194 21.1714 154.139C21.1789 151.856 24.7062 151.471 26.1224 153.896C26.4662 152.103 32.0711 151.038 34.6344 157.375V157.379Z" fill="#FCF4ED"/>
<path d="M35.6285 158.903C34.8288 159.516 34.8588 160.921 35.6958 162.034C36.5328 163.151 37.8593 163.559 38.659 162.942C39.4586 162.329 39.4286 160.924 38.5916 159.811C37.7546 158.694 36.4281 158.286 35.6285 158.903Z" fill="#EA9288"/>
<path d="M27.8491 155.197C27.098 155.772 27.1541 157.129 27.9724 158.22C28.7907 159.311 30.0648 159.729 30.8159 159.154C31.567 158.578 31.5109 157.222 30.6926 156.131C29.8743 155.04 28.6001 154.621 27.8491 155.197Z" fill="#EA9288"/>
<path d="M22.5578 155.152C21.889 155.664 21.9376 156.867 22.6625 157.831C23.3874 158.799 24.5159 159.169 25.1847 158.653C25.8536 158.141 25.8049 156.938 25.08 155.974C24.3551 155.006 23.2267 154.636 22.5578 155.152Z" fill="#EA9288"/>
<path d="M35.6361 163.772C34.4778 162.546 31.227 160.02 29.0971 160.136C27.1877 160.237 25.1289 161.792 26.2536 164.736C28.7795 171.357 32.0004 173.143 33.9547 174.003C35.9089 174.862 39.0701 174.335 39.5484 172.176C40.0753 169.799 38.5357 166.84 35.6361 163.772Z" fill="#EA9288"/>
<path d="M41.0055 153.178C41.0055 153.178 35.0905 151.792 34.6309 157.378" stroke="#F6D5D1" stroke-width="1.49881" stroke-linecap="round" stroke-linejoin="round"/>
<path d="M30.5952 149.636C30.5952 149.636 25.8161 149.323 26.1188 153.9" stroke="#F6D5D1" stroke-width="1.49881" stroke-linecap="round" stroke-linejoin="round"/>
<path d="M50.9634 153.848L56.7551 159.057C56.7962 159.094 56.8 159.154 56.7664 159.199C55.8957 160.346 55.0324 161.485 54.2739 162.494C54.2253 162.558 54.132 162.547 54.0984 162.476L50.1451 154.479C49.891 153.964 50.5337 153.463 50.9597 153.844L50.9634 153.848Z" fill="#212121"/>
<path d="M54.7631 149.969L61.0218 153.818C61.0779 153.852 61.0929 153.93 61.0481 153.983C60.3718 154.778 59.5647 155.746 58.7053 156.785C58.6604 156.841 58.5707 156.841 58.5296 156.781L54.1989 150.575C53.9411 150.205 54.3745 149.734 54.7594 149.973L54.7631 149.969Z" fill="#212121"/>
<path d="M92.6229 140.5C92.6229 140.5 88.2997 153.81 71.8774 153.605" stroke="#DE955C" stroke-width="1.87172" stroke-linecap="round" stroke-linejoin="round"/>
<path d="M72.0418 133.633C64.6172 130.931 60.7611 128.824 53.2505 129.418C45.7363 130.012 41.3159 136.42 41.3159 136.42" stroke="#DE955C" stroke-width="1.87172" stroke-linecap="round" stroke-linejoin="round"/>
<path d="M92.1186 102.705C90.2989 102.705 88.4157 102.638 86.5212 102.503C85.8823 102.459 85.2358 102.406 84.5856 102.347C80.651 101.98 76.5109 101.33 72.2848 100.415C70.1363 99.9476 67.9205 99.4021 65.6973 98.793C45.2918 93.1919 31.6533 82.0531 27.289 67.4281C23.6309 55.1647 27.1507 41.7616 36.9481 30.6565C37.1573 30.4211 37.3702 30.182 37.5832 29.9428L37.7289 29.7821C38.1811 29.2851 38.6407 28.7919 39.1041 28.3099L39.2011 28.209C41.0844 26.2548 42.9601 24.5359 44.9069 22.974C43.4309 21.1319 42.5079 18.9348 42.224 16.5733C41.387 9.56724 46.4687 3.15902 53.5496 2.28839C54.0839 2.22114 54.6258 2.1875 55.1639 2.1875C61.531 2.1875 66.9192 6.80963 67.8608 13.0086C70.084 12.7097 72.3895 12.5565 74.7211 12.5565C81.346 12.5565 88.5314 13.7821 96.0831 16.1997C102.689 18.3146 108.574 21.188 113.585 24.7452C116.133 21.8232 119.855 20.1641 123.913 20.1641C126.555 20.1641 129.193 20.8891 131.543 22.2567C138.568 26.3519 141.251 35.1403 137.522 41.8475C136.094 44.4145 133.931 46.365 131.229 47.5346C131.315 47.7662 131.397 47.9942 131.48 48.2184C131.696 48.8312 131.894 49.4141 132.078 49.9895L132.089 50.0307C132.261 50.5762 132.425 51.1254 132.575 51.6635L131.835 51.9213L132.586 51.7047C132.657 51.955 132.72 52.1904 132.784 52.4258L132.806 52.508C132.87 52.7434 132.929 52.9863 132.989 53.2217L133.18 54.0251C133.229 54.2418 133.277 54.451 133.322 54.6565C133.322 54.6565 133.329 54.6902 133.329 54.6939C133.374 54.9032 133.411 55.0825 133.449 55.2581C133.449 55.2581 133.557 55.7812 133.591 55.9606C134.409 60.1829 134.734 64.282 134.555 68.1456C134.51 69.1022 134.435 70.0587 134.327 70.9853C134.17 72.3754 133.938 73.7505 133.643 75.077C133.475 75.8243 133.277 76.5865 133.042 77.3974C132.87 77.9803 132.709 78.4884 132.552 78.948C132.178 80.0316 131.734 81.1302 131.226 82.2138C130.785 83.1554 130.318 84.0485 129.836 84.8705C129.574 85.3189 129.283 85.7785 128.924 86.324C128.277 87.303 127.586 88.2372 126.88 89.0891C126.334 89.7468 125.752 90.3932 125.146 91.0097C121.884 94.3427 117.834 97.0181 113.103 98.9612C112.849 99.0658 112.595 99.1667 112.337 99.2676C106.478 101.539 99.6815 102.694 92.1411 102.698H92.1186V102.705Z" fill="white"/>
<path d="M55.1635 2.97202C61.2056 2.97202 66.4143 7.4261 67.1392 13.513C67.1541 13.64 67.1654 13.7707 67.1766 13.8978C69.5531 13.5353 72.0603 13.341 74.7207 13.341C80.9235 13.341 87.9257 14.4097 95.8435 16.9469C103.152 19.286 109.011 22.3686 113.719 25.81C116.163 22.6601 119.941 20.9487 123.913 20.9487C126.342 20.9487 128.841 21.5915 131.147 22.9366C137.82 26.8264 140.365 35.1253 136.834 41.4775C135.328 44.1865 132.959 46.0997 130.22 47.1048C130.403 47.5756 130.579 48.0389 130.739 48.4911C130.743 48.5023 130.747 48.5135 130.751 48.5247C130.96 49.1114 131.151 49.6793 131.326 50.236C131.33 50.251 131.334 50.2622 131.341 50.2771C131.517 50.8302 131.674 51.3645 131.819 51.8839C131.823 51.8988 131.827 51.9175 131.834 51.9324C131.902 52.1716 131.965 52.407 132.025 52.6387C132.032 52.6611 132.036 52.6872 132.044 52.7097C132.107 52.9525 132.167 53.1879 132.227 53.4233C132.23 53.442 132.238 53.4645 132.242 53.4832C132.294 53.6887 132.339 53.8904 132.387 54.0884C132.399 54.1295 132.406 54.1744 132.417 54.2155C132.466 54.4285 132.514 54.634 132.555 54.8358C132.559 54.8582 132.563 54.8769 132.57 54.8993C132.608 55.0787 132.645 55.2543 132.683 55.4299C132.694 55.4785 132.705 55.5308 132.713 55.5793C132.75 55.7662 132.787 55.9492 132.821 56.1249C133.635 60.3322 133.945 64.3454 133.77 68.1231C133.725 69.0684 133.65 69.9988 133.549 70.9105C133.392 72.2819 133.168 73.6195 132.881 74.9199C132.709 75.6896 132.511 76.4482 132.29 77.1917C132.141 77.7037 131.984 78.2081 131.812 78.7051C131.435 79.7999 131.001 80.8611 130.519 81.8924C130.104 82.7817 129.656 83.6486 129.163 84.4855C128.879 84.9676 128.58 85.4384 128.273 85.9017C127.657 86.8359 126.995 87.7364 126.278 88.5995C125.744 89.246 125.179 89.87 124.589 90.4753C121.428 93.7074 117.482 96.3304 112.808 98.251C112.557 98.3519 112.307 98.4528 112.057 98.55C106.414 100.74 99.7521 101.924 92.1407 101.928C92.1332 101.928 92.1257 101.928 92.1183 101.928C90.321 101.928 88.4752 101.861 86.5732 101.73C85.938 101.685 85.2989 101.633 84.6562 101.573C80.7889 101.214 76.716 100.579 72.4489 99.6523C70.3153 99.1889 68.1331 98.6509 65.9024 98.0419C24.7215 86.735 17.1626 54.2641 37.5306 31.1758C37.7362 30.9404 37.9491 30.7049 38.1621 30.4695C38.2107 30.4172 38.2591 30.3612 38.3077 30.3089C38.7486 29.8231 39.2009 29.3411 39.6642 28.8553C39.6978 28.8217 39.7277 28.788 39.7613 28.7544C41.6258 26.8189 43.7034 24.8908 46.0275 23.0861C44.4059 21.3149 43.3073 19.0431 43.0009 16.4835C42.2162 9.89222 46.9804 3.88375 53.6465 3.06544C54.1584 3.00191 54.6628 2.97202 55.1635 2.97202ZM55.1635 1.41016C54.5956 1.41016 54.02 1.4438 53.4558 1.51479C45.949 2.43773 40.5647 9.23458 41.4502 16.6666C41.7193 18.9123 42.5339 21.0198 43.8305 22.8432C42.0668 24.2967 40.3591 25.8848 38.6403 27.6671L38.5432 27.7643C38.0762 28.2538 37.609 28.7507 37.1532 29.2514L36.9999 29.4195C36.7832 29.6587 36.5703 29.8979 36.3573 30.137C26.3769 41.4477 22.7972 55.1198 26.5375 67.6485C28.6636 74.7779 32.9681 81.1263 39.3353 86.522C46.091 92.2501 54.8907 96.6332 65.4877 99.5402C67.7184 100.153 69.949 100.702 72.1163 101.173C76.376 102.096 80.5461 102.754 84.5106 103.12C85.1645 103.18 85.8221 103.236 86.461 103.281C88.3779 103.415 90.2798 103.482 92.1144 103.482C92.1219 103.482 92.1369 103.482 92.1444 103.482C99.7819 103.482 106.669 102.309 112.613 99.9998C112.875 99.8989 113.137 99.7943 113.394 99.6897C118.222 97.7055 122.362 94.9704 125.699 91.5626C126.315 90.9311 126.913 90.2697 127.474 89.5934C128.199 88.7191 128.905 87.7662 129.57 86.7611C129.94 86.2006 130.235 85.7298 130.504 85.2739C130.997 84.4295 131.476 83.5141 131.928 82.55C132.443 81.444 132.899 80.3192 133.284 79.2095C133.449 78.7349 133.605 78.2342 133.785 77.6252C134.028 76.7994 134.23 76.0222 134.401 75.2525C134.704 73.8998 134.939 72.4986 135.1 71.0787C135.208 70.1296 135.287 69.1581 135.332 68.1865C135.515 64.2631 135.186 60.1006 134.353 55.8185C134.319 55.6354 134.278 55.4486 134.241 55.258L134.207 55.0973C134.174 54.9292 134.132 54.7461 134.095 54.5593L134.08 54.4845C134.039 54.2865 133.99 54.0735 133.938 53.8568L133.923 53.797L133.908 53.7297C133.86 53.5205 133.811 53.3113 133.759 53.102L133.751 53.0758L133.74 53.0311C133.684 52.7994 133.62 52.5564 133.553 52.3061L133.538 52.2538V52.2351C133.471 51.9997 133.404 51.7569 133.336 51.5102C133.336 51.5028 133.333 51.4953 133.329 51.4878C133.329 51.4878 133.322 51.4616 133.322 51.4579C133.168 50.9123 133.004 50.3556 132.828 49.8026L132.821 49.7764L132.813 49.7503C132.63 49.1749 132.432 48.5807 132.223 47.9941L132.204 47.9455C132.204 47.9455 132.204 47.9455 132.204 47.9418C134.734 46.6826 136.83 44.6947 138.202 42.2323C142.136 35.1552 139.326 25.8922 131.935 21.5877C129.469 20.1491 126.693 19.3906 123.913 19.3906C119.87 19.3906 116.144 20.9524 113.473 23.7213C108.522 20.2985 102.76 17.5223 96.3219 15.4635C88.6956 13.0235 81.4278 11.7829 74.7244 11.7829C72.6132 11.7829 70.5283 11.9062 68.4994 12.1491C67.1953 5.95383 61.6614 1.41763 55.1672 1.4139L55.1635 1.41016Z" fill="#212121"/>
<path d="M112.673 27.3908C109.142 33.7392 111.69 42.042 118.36 45.9317C125.034 49.8215 133.303 47.8261 136.834 41.4739C140.365 35.1255 137.816 26.8229 131.146 22.9331C124.473 19.0433 116.204 21.0386 112.673 27.3908Z" fill="url(#paint5_linear_2531_5655)"/>
<path d="M118.21 30.851C114.194 34.1915 113.588 39.9458 116.865 43.6973C120.138 47.4526 126.05 47.7851 130.07 44.4446C134.087 41.1041 134.692 35.3498 131.415 31.5983C128.142 27.843 122.231 27.5105 118.21 30.851Z" fill="white"/>
<path d="M58.3313 26.4075C64.8049 24.6073 68.6119 17.9662 66.8344 11.5741C65.0569 5.18194 58.368 1.45939 51.8944 3.25955C45.4208 5.05972 41.6138 11.7009 43.3913 18.093C45.1688 24.4852 51.8577 28.2076 58.3313 26.4075Z" fill="url(#paint6_linear_2531_5655)"/>
<path d="M59.0296 25.7926C62.9413 23.5251 63.9839 18.0149 61.3583 13.4854C58.7326 8.9559 53.433 7.12231 49.5212 9.38988C45.6095 11.6574 44.567 17.1674 47.1926 21.6969C49.8183 26.2264 55.1178 28.0602 59.0296 25.7926Z" fill="white"/>
<path d="M132.821 56.1178C139.349 89.7695 113.477 111.098 65.9026 98.0385C24.7218 86.7316 17.1628 54.2608 37.5309 31.1724C47.601 19.7572 64.5723 6.93321 95.8438 16.9435C124.922 26.2513 131.117 47.3182 132.825 56.1178H132.821Z" fill="url(#paint7_linear_2531_5655)"/>
<path d="M40.4789 28.0146C32.038 39.045 27.0871 54.8807 38.2968 62.1147C47.0441 67.7606 52.8246 64.3791 52.8246 64.3791C52.8246 64.3791 65.6672 67.7681 74.3958 71.0077C75.868 77.5131 90.8031 86.8433 104.998 82.0941C126.132 74.9685 120.629 54.3015 123.274 45.9988C124.455 42.2922 126.734 42.21 128.296 42.8153C130.986 48.1025 132.201 52.9227 132.821 56.1212C139.349 89.7728 113.477 111.101 65.9026 98.0419C24.7218 86.735 17.1628 54.2642 37.5309 31.1759C38.4538 30.1296 39.4364 29.0721 40.4789 28.0221V28.0146Z" fill="white"/>
<path d="M109.777 60.0556C109.437 59.1289 108.126 59.2747 107.958 60.2574C107.371 63.7025 105.667 68.4368 102.577 71.0599C100.242 73.0366 96.8489 73.653 94.1212 73.7875C92.705 73.8585 92.2193 75.7829 93.4412 76.4853C96.9162 78.4844 102.207 79.9753 106.844 74.8338C111.549 69.6175 111.052 63.5344 109.777 60.0556Z" fill="#212121"/>
<path d="M37.7585 38.4733C37.9939 38.208 38.3714 38.4734 38.2705 38.8358C37.7959 40.5733 37.0972 43.8465 37.4447 47.1011C37.8595 50.9871 39.9071 53.3374 42.2499 54.832C42.9748 55.2916 42.8365 56.5472 42.0331 56.8573C39.3167 57.8961 35.5428 56.7638 34.433 51.0768C33.256 45.0347 35.8902 40.5919 37.7585 38.477V38.4733Z" fill="#212121"/>
<path d="M76.3898 72.0367C77.2112 69.5675 75.1023 66.6428 71.6795 65.5042C68.2566 64.3655 64.816 65.4442 63.9946 67.9134C63.1732 70.3826 65.2821 73.3073 68.7049 74.4459C72.1278 75.5846 75.5684 74.506 76.3898 72.0367Z" fill="white"/>
<path d="M62.4052 67.7444C63.3104 65.0486 61.4908 62.0058 58.3411 60.9483C55.1915 59.8907 51.9044 61.2189 50.9992 63.9148C50.0941 66.6106 51.9136 69.6532 55.0633 70.7107C58.213 71.7683 61.5001 70.4403 62.4052 67.7444Z" fill="white"/>
<path d="M96.0902 63.2021L77.0262 56.8013C77.0262 56.8013 74.2014 63.1759 82.0221 66.9387C89.8427 70.7014 95.4588 66.1876 96.0902 63.2021Z" fill="white"/>
<path d="M42.2645 45.5806L60.8914 51.7236C60.8914 51.7236 58.0964 59.6899 49.1174 56.4765C40.7624 53.4872 41.4574 47.2097 42.2645 45.5843V45.5806Z" fill="white"/>
<path d="M80.5348 59.4131C79.8958 61.2926 80.8635 63.3141 82.6944 63.9269C84.5253 64.5435 86.5282 63.5159 87.1672 61.6401C87.8061 59.7606 86.1209 59.8503 84.29 59.2338C82.459 58.6172 81.1737 57.5336 80.5348 59.4131Z" fill="#212121"/>
<path d="M50.4745 49.7613C49.8356 51.6408 50.7585 53.6473 52.5371 54.2414C54.3157 54.8393 56.2738 53.8004 56.909 51.9209C57.5479 50.0414 55.9076 50.1461 54.129 49.5483C52.3504 48.9504 51.1097 47.8818 50.4745 49.7575V49.7613Z" fill="#212121"/>
<path d="M61.6429 59.3497C63.0441 58.7667 64.6658 59.4655 65.301 60.8069C65.5477 61.3263 66.1791 61.5505 66.7134 61.3114C68.0959 60.6911 69.7998 61.1843 70.4724 62.5108C71.1599 63.8709 70.5547 65.5075 69.146 66.139L65.9998 67.5477C65.8653 67.6411 65.7233 67.7234 65.5663 67.7906C64.8601 68.1045 64.0904 68.1082 63.4178 67.8579C62.7415 67.6224 62.1548 67.1367 61.8297 66.4529C61.7588 66.3034 61.7065 66.1502 61.6654 65.9933L60.2193 62.9405C59.5691 61.5729 60.208 59.9475 61.6466 59.3459L61.6429 59.3497Z" fill="#212121"/>
<path d="M96.0904 63.2021L77.0264 56.8013" stroke="#212121" stroke-width="2.24463" stroke-linecap="round" stroke-linejoin="round"/>
<path d="M60.8915 51.7236L42.2646 45.5806" stroke="#212121" stroke-width="2.24463" stroke-linecap="round" stroke-linejoin="round"/>
<path d="M86.0985 46.9067L75.5576 52.0146" stroke="#212121" stroke-width="2.24463" stroke-linecap="round" stroke-linejoin="round"/>
<path d="M63.7316 48.2554L58.6387 38.3833" stroke="#212121" stroke-width="2.24463" stroke-linecap="round" stroke-linejoin="round"/>
<path d="M75.8528 73.2311C75.8528 73.2311 73.5025 76.5305 68.8767 74.9724C64.3218 73.4367 63.3541 69.1059 63.7577 66.707C61.923 69.7112 59.0607 71.2731 55.6903 70.4212C52.2601 69.5543 51.184 67.1031 50.6982 65.0518" stroke="#212121" stroke-width="2.24463" stroke-linecap="round" stroke-linejoin="round"/>
<path d="M63.7277 28.2126C68.9178 26.9645 75.4866 24.4797 76.686 23.1084C74.8626 22.178 72.5386 22.0323 70.2667 21.9277C68.7646 21.8604 68.9065 20.8777 69.4296 20.5526C71.4063 19.327 74.9523 18.9907 78.4124 19.5475C79.4287 17.78 80.0564 16.4984 80.7104 15.7697C81.1251 15.3064 81.8614 15.5007 81.9884 16.1023C82.1939 17.0589 82.0966 18.4751 82.1041 20.5115C85.3923 21.7147 88.3144 23.7361 89.4242 25.7613C89.7194 26.2994 89.3494 27.2224 88.008 26.5498C85.979 25.5334 83.8827 24.5284 81.8313 24.4499C82.19 26.2285 86.6702 31.5904 90.5637 35.2074C92.0135 36.5526 91.4494 37.9053 90.59 37.6773C82.0333 35.4354 78.3228 27.2859 78.3228 27.2859C78.3228 27.2859 71.0364 32.5694 62.4759 30.3499C61.6165 30.1257 61.7995 28.6759 63.7314 28.2126H63.7277Z" fill="#212121"/>
<path d="M7.02885 83.0209C5.46323 82.4231 4.90283 81.2909 5.43716 79.4637C5.97149 77.6365 9.12506 73.0031 12.2451 74.4268C13.7696 75.1218 14.9542 77.5542 14.4199 79.3814C13.8856 81.2086 8.72526 83.6673 7.02885 83.0209Z" fill="white"/>
<path d="M13.2919 74.2964C13.2919 74.2964 15.1489 76.1311 14.9845 79.0904C14.5249 82.8831 7.8514 84.7924 5.38525 82.7709" stroke="#212121" stroke-width="1.12232" stroke-linecap="round" stroke-linejoin="round"/>
<path d="M3.05724 86.9781C1.95121 86.5559 1.55148 85.7563 1.93262 84.4597C2.31001 83.1668 4.31657 80.7605 6.52489 81.7656C7.60476 82.2588 8.66584 83.1071 8.28845 84.3999C7.91105 85.6928 4.25668 87.434 3.05724 86.9744V86.9781Z" fill="white"/>
<path d="M8.33727 83.5889C8.01219 86.2717 3.64423 88.2297 1.89551 86.7986" stroke="#212121" stroke-width="1.12232" stroke-linecap="round" stroke-linejoin="round"/>
<path d="M119.433 136.062C121.32 132.448 122.392 129.033 120.618 123.753C118.843 118.473 110.914 117.368 108.59 121.112C104.838 118.713 101.266 122.333 101.266 122.333C99.2406 124.938 98.4148 126.634 99.39 129.437C99.39 129.437 95.3396 131.712 96.9052 136.633C98.4709 141.558 102.921 143.023 107.405 142.675C112.644 142.268 116.257 140.665 116.257 140.665L119.433 136.065V136.062Z" fill="white" stroke="#212121" stroke-width="1.49881" stroke-linejoin="round"/>
<defs>
<linearGradient id="paint0_linear_2531_5655" x1="148.444" y1="104.319" x2="71.545" y2="135.983" gradientUnits="userSpaceOnUse">
<stop stop-color="#FBF5B6"/>
<stop offset="0.18" stop-color="#F5E8A7"/>
<stop offset="0.34" stop-color="#E9C67D"/>
<stop offset="0.5" stop-color="#EEB063"/>
<stop offset="0.84" stop-color="#F1BB74"/>
</linearGradient>
<linearGradient id="paint1_linear_2531_5655" x1="22.2111" y1="74.3531" x2="36.2773" y2="114.484" gradientUnits="userSpaceOnUse">
<stop stop-color="#FBF3BC"/>
<stop offset="0.18" stop-color="#F3E4AC"/>
<stop offset="0.34" stop-color="#E2C083"/>
<stop offset="0.66" stop-color="#E8AC70"/>
</linearGradient>
<linearGradient id="paint2_linear_2531_5655" x1="151.315" y1="118.524" x2="56.3508" y2="152.986" gradientUnits="userSpaceOnUse">
<stop stop-color="#FBF3BC"/>
<stop offset="0.18" stop-color="#F3E4AC"/>
<stop offset="0.34" stop-color="#E2C083"/>
<stop offset="0.66" stop-color="#E8AC70"/>
</linearGradient>
<linearGradient id="paint3_linear_2531_5655" x1="78.2495" y1="38.3657" x2="60.5034" y2="168.607" gradientUnits="userSpaceOnUse">
<stop stop-color="#FBF3BC"/>
<stop offset="0.18" stop-color="#F3E4AC"/>
<stop offset="0.34" stop-color="#E2C083"/>
<stop offset="0.66" stop-color="#E8AC70"/>
</linearGradient>
<linearGradient id="paint4_linear_2531_5655" x1="36.0457" y1="104.489" x2="65.7507" y2="170.686" gradientUnits="userSpaceOnUse">
<stop stop-color="#FBF3BC"/>
<stop offset="0.18" stop-color="#F3E4AC"/>
<stop offset="0.34" stop-color="#E2C083"/>
<stop offset="0.66" stop-color="#E8AC70"/>
</linearGradient>
<linearGradient id="paint5_linear_2531_5655" x1="111.081" y1="34.4305" x2="138.425" y2="34.4305" gradientUnits="userSpaceOnUse">
<stop stop-color="#FBF3BC"/>
<stop offset="0.18" stop-color="#F3E4AC"/>
<stop offset="0.34" stop-color="#E2C083"/>
<stop offset="0.5" stop-color="#E8AC70"/>
<stop offset="0.84" stop-color="#EFB77E"/>
</linearGradient>
<linearGradient id="paint6_linear_2531_5655" x1="42.8698" y1="14.9801" x2="67.1838" y2="14.9801" gradientUnits="userSpaceOnUse">
<stop stop-color="#FBF3BC"/>
<stop offset="0.18" stop-color="#F3E4AC"/>
<stop offset="0.34" stop-color="#E2C083"/>
<stop offset="0.5" stop-color="#E8AC70"/>
<stop offset="0.84" stop-color="#EFB77E"/>
</linearGradient>
<linearGradient id="paint7_linear_2531_5655" x1="59.894" y1="-13.6457" x2="90.23" y2="97.4467" gradientUnits="userSpaceOnUse">
<stop stop-color="#FBF5BD"/>
<stop offset="0.18" stop-color="#F3E9AF"/>
<stop offset="0.34" stop-color="#E2C786"/>
<stop offset="0.5" stop-color="#E5B36F"/>
<stop offset="0.84" stop-color="#ECBE7E"/>
</linearGradient>
</defs>
</svg>
