<svg width="369" height="191" viewBox="0 0 369 191" fill="none" xmlns="http://www.w3.org/2000/svg">
<path d="M66.3561 106.194C66.3561 102.756 66.3561 99.5192 66.1557 96.0816H20.0341L16.3961 98.7074L10.5332 88.1842C13.9708 88.5851 17.8192 88.996 21.4573 88.996H67.9797L67.7793 71.1968H30.9682L27.3302 74.0331L21.4673 63.5099C24.9049 63.7103 28.7533 64.3217 32.3913 64.3217H67.9897V47.3342H19.4428L15.8048 50.1705L9.9419 39.6473C13.5799 39.8478 17.4284 40.4591 20.866 40.4591H84.1754C87.8134 31.5595 96.1117 12.3472 96.1117 3.44759V1.41311C96.1117 1.01223 96.1117 0.601324 96.3121 0.200441C96.713 0 97.5248 0 97.9257 0C99.9501 0 118.15 7.48649 119.363 8.49872C120.375 9.11006 120.976 10.1123 120.976 11.335C120.976 13.3594 115.314 14.7725 113.69 14.973L92.6541 40.4591H124.214C125.226 39.2464 132.301 30.9482 134.125 30.9482C136.15 30.9482 149.7 41.8722 149.7 44.9089C149.7 46.5225 148.086 47.3342 146.663 47.3342H90.4292C89.2165 48.9478 87.8034 50.5714 86.3802 51.784V64.3217H112.879C114.492 62.7081 119.353 56.4343 122.179 56.4343C123.793 56.4343 126.018 58.0478 127.03 59.2705C128.643 60.4832 136.33 66.5566 136.33 69.1824C136.33 70.7959 134.506 71.2068 133.294 71.2068H86.3702V89.006H128.443C129.455 88.1942 136.942 81.1187 138.756 81.1187C141.381 81.1187 153.318 91.0305 153.318 93.6563C153.318 95.0694 151.704 96.0816 150.281 96.0816H73.4217C75.847 96.8934 90.2087 101.544 90.2087 103.769C90.2087 105.182 86.1598 108.018 85.1475 108.83C84.5362 113.68 83.7344 118.541 82.9226 123.592H129.044C130.658 122.179 137.944 114.292 140.369 114.292C142.594 114.292 151.494 123.392 152.907 124.404C153.719 125.416 155.943 127.24 155.943 128.653C155.943 130.066 153.919 130.477 152.907 130.477H88.3847C89.9982 133.915 91.6218 137.353 93.6462 140.79C98.9078 149.89 123.582 164.252 133.494 169.112C138.555 171.538 143.807 173.963 149.269 175.787C150.281 176.188 155.943 177.611 155.943 179.024C155.943 179.636 155.132 179.836 154.731 180.037C151.494 180.648 148.667 181.249 145.631 182.462C140.169 184.687 135.919 187.313 131.069 190.55C125.206 187.313 119.132 184.075 113.67 180.237C100.321 170.936 88.5851 155.964 85.7589 139.778L84.1453 130.477H81.72C80.9082 134.115 79.896 137.763 78.8837 141.401C77.2702 146.863 74.0331 151.714 70.385 156.164C52.7863 177.401 27.0997 182.863 1.41311 187.112C0.801766 187.313 0 187.112 0 186.3C0 185.288 0.611345 184.887 1.61355 184.687C10.1123 181.249 18.8114 178.212 26.8992 173.362C40.0482 165.474 56.6347 150.712 61.4854 135.539L63.099 130.477H13.5398L9.90181 133.314L4.03889 122.59C7.47647 122.991 11.3249 123.602 14.963 123.602H64.7225C65.5343 117.94 66.3361 112.077 66.3361 106.204L66.3561 106.194ZM35.0071 3.23713C37.0316 3.23713 45.5303 5.86291 47.7552 6.6747C56.2539 9.51095 65.5544 14.963 65.5544 25.2857C65.5544 30.1364 61.5055 34.7966 56.4543 34.7966C48.7674 34.7966 47.1538 29.535 45.9312 23.2713C45.3198 20.0341 44.1071 16.9974 42.4936 13.9708C40.2687 9.92185 38.0438 8.10786 34.6062 5.07117C34.2053 4.87073 33.594 4.45982 33.594 4.05894C33.594 3.24715 34.6062 3.24715 35.0071 3.24715V3.23713Z" fill="url(#paint0_linear_1_144614)"/>
<path d="M316.166 99.7196C319.604 107.407 323.242 114.693 327.291 121.969C335.379 136.731 351.364 164.242 364.102 173.953C365.114 174.765 368.151 176.579 368.151 177.792C368.151 179.004 366.938 179.405 366.127 179.405C362.288 179.004 358.44 178.794 354.601 178.794C348.738 178.794 344.078 181.219 338.826 183.644C317.59 149.459 302.617 118.922 297.365 78.6632C295.541 65.3138 295.14 51.9644 294.529 38.4146C289.879 80.0863 285.018 109.611 261.356 145.621C254.681 155.533 246.182 167.268 236.471 174.544C233.845 176.569 214.823 190.52 212.809 190.52C211.997 190.52 211.596 189.908 211.596 189.106C211.596 188.495 212.208 187.693 212.608 187.282C227.581 173.532 239.919 160.183 248.407 141.572C256.495 123.773 264.382 105.562 268.431 86.3501C270.456 76.8392 271.869 67.1378 273.082 57.6269C274.294 49.5391 275.707 41.2408 275.707 33.153C275.707 26.2778 275.507 18.5909 274.294 11.9162C273.893 9.6913 272.069 6.85506 272.069 4.84062C272.681 3.62795 273.683 3.0166 274.495 3.0166C277.331 3.0166 300.181 9.07996 302.206 10.3026C302.607 10.7035 304.03 11.7158 304.03 12.3271C304.03 13.7402 298.568 19.0018 297.355 20.2145C298.568 45.5002 306.054 76.6488 316.166 99.7096V99.7196Z" fill="url(#paint1_linear_1_144614)"/>
<defs>
<linearGradient id="paint0_linear_1_144614" x1="77.9817" y1="190.54" x2="77.9817" y2="0" gradientUnits="userSpaceOnUse">
<stop stop-color="white"/>
<stop offset="0.45" stop-color="#808285"/>
<stop offset="0.47" stop-color="white"/>
<stop offset="1" stop-color="#BCBEC0"/>
</linearGradient>
<linearGradient id="paint1_linear_1_144614" x1="289.879" y1="-4.24602e-05" x2="289.879" y2="3.03665" gradientUnits="userSpaceOnUse">
<stop stop-color="white"/>
<stop offset="0.45" stop-color="#808285"/>
<stop offset="0.47" stop-color="white"/>
<stop offset="1" stop-color="#BCBEC0"/>
</linearGradient>
</defs>
</svg>
