<svg width="397" height="84" viewBox="0 0 397 84" fill="none" xmlns="http://www.w3.org/2000/svg">
<g clip-path="url(#clip0_117_13537)">
<path d="M4.56864 18.5996V17.1998L9.82589 11.4448C10.4429 10.7708 10.951 10.1849 11.3502 9.68718C11.7494 9.18427 12.0449 8.71246 12.2368 8.27177C12.4338 7.82589 12.5323 7.35927 12.5323 6.87191C12.5323 6.31197 12.3975 5.8272 12.1279 5.41761C11.8635 5.00803 11.5005 4.69176 11.0391 4.46882C10.5777 4.24588 10.0592 4.13441 9.4837 4.13441C8.87191 4.13441 8.33789 4.26143 7.88164 4.51548C7.43058 4.76435 7.08061 5.11431 6.83175 5.56538C6.58807 6.01644 6.46623 6.54528 6.46623 7.15188H4.63086C4.63086 6.21864 4.84602 5.39947 5.27635 4.69435C5.70668 3.98924 6.29254 3.43967 7.03395 3.04563C7.78054 2.6516 8.61786 2.45458 9.54592 2.45458C10.4792 2.45458 11.3061 2.6516 12.0268 3.04563C12.7474 3.43967 13.3126 3.97109 13.7222 4.63991C14.1317 5.30874 14.3365 6.05273 14.3365 6.87191C14.3365 7.45778 14.2303 8.03068 14.0177 8.59063C13.8103 9.14538 13.4474 9.76495 12.9289 10.4493C12.4156 11.1285 11.7027 11.9581 10.7902 12.938L7.21282 16.7642V16.8887H14.6165V18.5996H4.56864ZM23.0234 18.8174C21.8517 18.8174 20.8537 18.4985 20.0293 17.8608C19.2049 17.2179 18.575 16.2873 18.1395 15.0689C17.704 13.8453 17.4862 12.3676 17.4862 10.636C17.4862 8.91467 17.704 7.44482 18.1395 6.22642C18.5802 5.00284 19.2127 4.0696 20.0371 3.4267C20.8666 2.77862 21.8621 2.45458 23.0234 2.45458C24.1848 2.45458 25.1777 2.77862 26.002 3.4267C26.8316 4.0696 27.4641 5.00284 27.8996 6.22642C28.3403 7.44482 28.5607 8.91467 28.5607 10.636C28.5607 12.3676 28.3429 13.8453 27.9074 15.0689C27.4719 16.2873 26.8419 17.2179 26.0176 17.8608C25.1932 18.4985 24.1952 18.8174 23.0234 18.8174ZM23.0234 17.1064C24.1848 17.1064 25.0869 16.5465 25.7298 15.4266C26.3727 14.3067 26.6942 12.7098 26.6942 10.636C26.6942 9.25685 26.5464 8.08253 26.2509 7.113C25.9605 6.14347 25.5406 5.40465 24.991 4.89656C24.4466 4.38846 23.7908 4.13441 23.0234 4.13441C21.8724 4.13441 20.9729 4.70213 20.3248 5.83757C19.6767 6.96783 19.3527 8.56729 19.3527 10.636C19.3527 12.0151 19.4979 13.1868 19.7882 14.1512C20.0786 15.1155 20.4959 15.8491 21.0403 16.3521C21.5899 16.855 22.2509 17.1064 23.0234 17.1064ZM31.5159 18.5996V17.1998L36.7732 11.4448C37.3901 10.7708 37.8982 10.1849 38.2974 9.68718C38.6967 9.18427 38.9922 8.71246 39.184 8.27177C39.381 7.82589 39.4795 7.35927 39.4795 6.87191C39.4795 6.31197 39.3447 5.8272 39.0751 5.41761C38.8107 5.00803 38.4478 4.69176 37.9864 4.46882C37.5249 4.24588 37.0065 4.13441 36.431 4.13441C35.8192 4.13441 35.2852 4.26143 34.8289 4.51548C34.3778 4.76435 34.0279 5.11431 33.779 5.56538C33.5353 6.01644 33.4135 6.54528 33.4135 7.15188H31.5781C31.5781 6.21864 31.7933 5.39947 32.2236 4.69435C32.6539 3.98924 33.2398 3.43967 33.9812 3.04563C34.7278 2.6516 35.5651 2.45458 36.4932 2.45458C37.4264 2.45458 38.2534 2.6516 38.974 3.04563C39.6947 3.43967 40.2598 3.97109 40.6694 4.63991C41.079 5.30874 41.2838 6.05273 41.2838 6.87191C41.2838 7.45778 41.1775 8.03068 40.965 8.59063C40.7576 9.14538 40.3946 9.76495 39.8762 10.4493C39.3629 11.1285 38.65 11.9581 37.7375 12.938L34.1601 16.7642V16.8887H41.5638V18.5996H31.5159ZM50.064 18.8174C49.4108 18.807 48.7575 18.6826 48.1042 18.4441C47.451 18.2056 46.8547 17.8038 46.3155 17.2386C45.7763 16.6683 45.3434 15.8984 45.0168 14.9289C44.6901 13.9542 44.5268 12.7306 44.5268 11.2581C44.5268 9.8479 44.659 8.5984 44.9234 7.50962C45.1879 6.41566 45.5715 5.49538 46.0744 4.74879C46.5773 3.99702 47.1839 3.4267 47.8942 3.03785C48.6097 2.64901 49.4159 2.45458 50.3129 2.45458C51.2047 2.45458 51.9979 2.63345 52.6926 2.99119C53.3926 3.34375 53.9629 3.83629 54.4036 4.46882C54.8443 5.10135 55.1294 5.82979 55.2591 6.65415H53.3615C53.1852 5.93867 52.843 5.34503 52.3349 4.87322C51.8268 4.40142 51.1528 4.16552 50.3129 4.16552C49.0789 4.16552 48.1068 4.70213 47.3965 5.77536C46.6914 6.84858 46.3363 8.35472 46.3311 10.2938H46.4555C46.7458 9.85309 47.0906 9.4772 47.4898 9.16612C47.8942 8.84986 48.3401 8.60618 48.8275 8.43509C49.3148 8.26399 49.8307 8.17844 50.3751 8.17844C51.2876 8.17844 52.1223 8.40657 52.8793 8.86282C53.6363 9.31388 54.2429 9.93864 54.6991 10.7371C55.1554 11.5303 55.3835 12.4402 55.3835 13.4668C55.3835 14.4519 55.1631 15.354 54.7224 16.1732C54.2817 16.9872 53.6622 17.6353 52.8637 18.1174C52.0705 18.5944 51.1373 18.8277 50.064 18.8174ZM50.064 17.1064C50.7173 17.1064 51.3032 16.9431 51.8216 16.6165C52.3453 16.2898 52.7575 15.8517 53.0582 15.3022C53.3641 14.7526 53.517 14.1408 53.517 13.4668C53.517 12.8083 53.3692 12.2095 53.0737 11.6703C52.7834 11.1259 52.3816 10.693 51.8683 10.3716C51.3602 10.0501 50.7795 9.88938 50.1262 9.88938C49.6337 9.88938 49.1749 9.98789 48.7497 10.1849C48.3246 10.3767 47.9513 10.6412 47.6298 10.9782C47.3136 11.3152 47.0647 11.7014 46.8832 12.1369C46.7018 12.5673 46.611 13.0209 46.611 13.4979C46.611 14.1304 46.7588 14.7215 47.0543 15.2711C47.355 15.8206 47.7646 16.2639 48.2831 16.6009C48.8067 16.9379 49.4004 17.1064 50.064 17.1064Z" fill="#CCCCCC"/>
<path d="M289.299 18.5996V17.1998L294.556 11.4448C295.173 10.7708 295.681 10.1849 296.081 9.68718C296.48 9.18427 296.775 8.71246 296.967 8.27177C297.164 7.82589 297.263 7.35927 297.263 6.87191C297.263 6.31197 297.128 5.8272 296.858 5.41761C296.594 5.00803 296.231 4.69176 295.77 4.46882C295.308 4.24588 294.79 4.13441 294.214 4.13441C293.602 4.13441 293.068 4.26143 292.612 4.51548C292.161 4.76435 291.811 5.11431 291.562 5.56538C291.319 6.01644 291.197 6.54528 291.197 7.15188H289.361C289.361 6.21864 289.576 5.39947 290.007 4.69435C290.437 3.98924 291.023 3.43967 291.764 3.04563C292.511 2.6516 293.348 2.45458 294.276 2.45458C295.21 2.45458 296.037 2.6516 296.757 3.04563C297.478 3.43967 298.043 3.97109 298.453 4.63991C298.862 5.30874 299.067 6.05273 299.067 6.87191C299.067 7.45778 298.961 8.03068 298.748 8.59063C298.541 9.14538 298.178 9.76495 297.659 10.4493C297.146 11.1285 296.433 11.9581 295.521 12.938L291.943 16.7642V16.8887H299.347V18.5996H289.299ZM307.754 18.8174C306.582 18.8174 305.584 18.4985 304.76 17.8608C303.935 17.2179 303.305 16.2873 302.87 15.0689C302.434 13.8453 302.217 12.3676 302.217 10.636C302.217 8.91467 302.434 7.44482 302.87 6.22642C303.311 5.00284 303.943 4.0696 304.768 3.4267C305.597 2.77862 306.593 2.45458 307.754 2.45458C308.915 2.45458 309.908 2.77862 310.732 3.4267C311.562 4.0696 312.195 5.00284 312.63 6.22642C313.071 7.44482 313.291 8.91467 313.291 10.636C313.291 12.3676 313.073 13.8453 312.638 15.0689C312.202 16.2873 311.572 17.2179 310.748 17.8608C309.924 18.4985 308.926 18.8174 307.754 18.8174ZM307.754 17.1064C308.915 17.1064 309.817 16.5465 310.46 15.4266C311.103 14.3067 311.425 12.7098 311.425 10.636C311.425 9.25685 311.277 8.08253 310.981 7.113C310.691 6.14347 310.271 5.40465 309.721 4.89656C309.177 4.38846 308.521 4.13441 307.754 4.13441C306.603 4.13441 305.703 4.70213 305.055 5.83757C304.407 6.96783 304.083 8.56729 304.083 10.636C304.083 12.0151 304.228 13.1868 304.519 14.1512C304.809 15.1155 305.226 15.8491 305.771 16.3521C306.32 16.855 306.981 17.1064 307.754 17.1064ZM316.246 18.5996V17.1998L321.504 11.4448C322.121 10.7708 322.629 10.1849 323.028 9.68718C323.427 9.18427 323.723 8.71246 323.914 8.27177C324.112 7.82589 324.21 7.35927 324.21 6.87191C324.21 6.31197 324.075 5.8272 323.806 5.41761C323.541 5.00803 323.178 4.69176 322.717 4.46882C322.255 4.24588 321.737 4.13441 321.161 4.13441C320.55 4.13441 320.016 4.26143 319.559 4.51548C319.108 4.76435 318.758 5.11431 318.509 5.56538C318.266 6.01644 318.144 6.54528 318.144 7.15188H316.309C316.309 6.21864 316.524 5.39947 316.954 4.69435C317.384 3.98924 317.97 3.43967 318.712 3.04563C319.458 2.6516 320.296 2.45458 321.224 2.45458C322.157 2.45458 322.984 2.6516 323.705 3.04563C324.425 3.43967 324.99 3.97109 325.4 4.63991C325.809 5.30874 326.014 6.05273 326.014 6.87191C326.014 7.45778 325.908 8.03068 325.695 8.59063C325.488 9.14538 325.125 9.76495 324.607 10.4493C324.093 11.1285 323.38 11.9581 322.468 12.938L318.891 16.7642V16.8887H326.294V18.5996H316.246ZM334.794 18.8174C334.141 18.807 333.488 18.6826 332.835 18.4441C332.181 18.2056 331.585 17.8038 331.046 17.2386C330.507 16.6683 330.074 15.8984 329.747 14.9289C329.421 13.9542 329.257 12.7306 329.257 11.2581C329.257 9.8479 329.389 8.5984 329.654 7.50962C329.918 6.41566 330.302 5.49538 330.805 4.74879C331.308 3.99702 331.914 3.4267 332.625 3.03785C333.34 2.64901 334.146 2.45458 335.043 2.45458C335.935 2.45458 336.728 2.63345 337.423 2.99119C338.123 3.34375 338.693 3.83629 339.134 4.46882C339.575 5.10135 339.86 5.82979 339.99 6.65415H338.092C337.916 5.93867 337.573 5.34503 337.065 4.87322C336.557 4.40142 335.883 4.16552 335.043 4.16552C333.809 4.16552 332.837 4.70213 332.127 5.77536C331.422 6.84858 331.067 8.35472 331.062 10.2938H331.186C331.476 9.85309 331.821 9.4772 332.22 9.16612C332.625 8.84986 333.071 8.60618 333.558 8.43509C334.045 8.26399 334.561 8.17844 335.106 8.17844C336.018 8.17844 336.853 8.40657 337.61 8.86282C338.367 9.31388 338.973 9.93864 339.43 10.7371C339.886 11.5303 340.114 12.4402 340.114 13.4668C340.114 14.4519 339.894 15.354 339.453 16.1732C339.012 16.9872 338.393 17.6353 337.594 18.1174C336.801 18.5944 335.868 18.8277 334.794 18.8174ZM334.794 17.1064C335.448 17.1064 336.034 16.9431 336.552 16.6165C337.076 16.2898 337.488 15.8517 337.789 15.3022C338.095 14.7526 338.247 14.1408 338.247 13.4668C338.247 12.8083 338.1 12.2095 337.804 11.6703C337.514 11.1259 337.112 10.693 336.599 10.3716C336.091 10.0501 335.51 9.88938 334.857 9.88938C334.364 9.88938 333.905 9.98789 333.48 10.1849C333.055 10.3767 332.682 10.6412 332.36 10.9782C332.044 11.3152 331.795 11.7014 331.614 12.1369C331.432 12.5673 331.342 13.0209 331.342 13.4979C331.342 14.1304 331.489 14.7215 331.785 15.2711C332.086 15.8206 332.495 16.2639 333.014 16.6009C333.537 16.9379 334.131 17.1064 334.794 17.1064Z" fill="#CCCCCC"/>
<path d="M13.6906 70.6856C11.3466 70.6856 9.35008 70.0478 7.70098 68.772C6.05188 67.4859 4.79172 65.6242 3.9205 63.1869C3.04928 60.7392 2.61366 57.7832 2.61366 54.3191C2.61366 50.8757 3.04928 47.9353 3.9205 45.498C4.80209 43.0503 6.06744 41.1833 7.71653 39.8973C9.376 38.6008 11.3674 37.9526 13.6906 37.9526C16.0139 37.9526 18.0001 38.6008 19.6492 39.8973C21.3086 41.1833 22.574 43.0503 23.4452 45.498C24.3268 47.9353 24.7676 50.8757 24.7676 54.3191C24.7676 57.7832 24.332 60.7392 23.4608 63.1869C22.5895 65.6242 21.3294 67.4859 19.6803 68.772C18.0312 70.0478 16.0346 70.6856 13.6906 70.6856ZM13.6906 67.263C16.0139 67.263 17.8186 66.1428 19.1046 63.9025C20.3907 61.6622 21.0338 58.4678 21.0338 54.3191C21.0338 51.5602 20.7382 49.211 20.147 47.2715C19.5662 45.332 18.7261 43.8541 17.6267 42.8376C16.5377 41.8212 15.2256 41.313 13.6906 41.313C11.3881 41.313 9.58862 42.4487 8.29216 44.7201C6.9957 46.9811 6.34747 50.1808 6.34747 54.3191C6.34747 57.078 6.63788 59.422 7.21869 61.3511C7.79951 63.2802 8.63443 64.7478 9.72346 65.7539C10.8229 66.7599 12.1452 67.263 13.6906 67.263ZM41.8809 38.3882V70.25H38.0226V42.4331H37.8359L30.0571 47.5982V43.6777L38.0226 38.3882H41.8809ZM51.8999 70.4989C51.1324 70.4989 50.4738 70.2241 49.9241 69.6744C49.3744 69.1247 49.0996 68.4661 49.0996 67.6986C49.0996 66.9311 49.3744 66.2725 49.9241 65.7228C50.4738 65.1731 51.1324 64.8982 51.8999 64.8982C52.6674 64.8982 53.326 65.1731 53.8757 65.7228C54.4254 66.2725 54.7003 66.9311 54.7003 67.6986C54.7003 68.2068 54.5706 68.6735 54.3113 69.0987C54.0624 69.524 53.7253 69.8662 53.3001 70.1255C52.8852 70.3745 52.4185 70.4989 51.8999 70.4989ZM61.2267 70.25V67.4496L71.7435 55.9371C72.9778 54.5888 73.9942 53.4168 74.7928 52.4211C75.5914 51.415 76.1826 50.4712 76.5664 49.5896C76.9605 48.6976 77.1576 47.7642 77.1576 46.7892C77.1576 45.6691 76.8879 44.6994 76.3486 43.88C75.8196 43.0606 75.0936 42.428 74.1705 41.982C73.2474 41.536 72.2103 41.313 71.059 41.313C69.8352 41.313 68.7669 41.5671 67.8542 42.0753C66.9518 42.5732 66.2517 43.2732 65.7539 44.1756C65.2664 45.0779 65.0227 46.1358 65.0227 47.3493H61.3511C61.3511 45.4824 61.7815 43.8437 62.6424 42.4331C63.5032 41.0226 64.6752 39.9232 66.1584 39.1349C67.6519 38.3467 69.3269 37.9526 71.1835 37.9526C73.0504 37.9526 74.7047 38.3467 76.1463 39.1349C77.588 39.9232 78.7185 40.9863 79.5379 42.3242C80.3572 43.6622 80.7669 45.1505 80.7669 46.7892C80.7669 47.9612 80.5543 49.1073 80.1291 50.2275C79.7142 51.3372 78.9882 52.5766 77.951 53.9457C76.9242 55.3044 75.4981 56.9639 73.6727 58.9241L66.5162 66.5784V66.8273H81.327V70.25H61.2267ZM98.3314 70.6856C97.0245 70.6649 95.7177 70.4159 94.4109 69.9388C93.104 69.4618 91.9113 68.6579 90.8326 67.5274C89.754 66.3865 88.8879 64.8464 88.2345 62.9068C87.5811 60.957 87.2544 58.5093 87.2544 55.5637C87.2544 52.7426 87.5189 50.243 88.0478 48.065C88.5768 45.8765 89.3443 44.0356 90.3503 42.542C91.3564 41.0381 92.5699 39.8973 93.9908 39.1194C95.4221 38.3415 97.0349 37.9526 98.8292 37.9526C100.613 37.9526 102.2 38.3104 103.59 39.026C104.99 39.7313 106.131 40.7166 107.012 41.982C107.894 43.2473 108.464 44.7045 108.724 46.3536H104.928C104.575 44.9223 103.891 43.7348 102.874 42.791C101.858 41.8471 100.509 41.3752 98.8292 41.3752C96.3607 41.3752 94.416 42.4487 92.9951 44.5956C91.5846 46.7426 90.8741 49.7555 90.8637 53.6346H91.1127C91.6935 52.753 92.3832 52.001 93.1818 51.3787C93.9908 50.746 94.8828 50.2586 95.8577 49.9163C96.8326 49.574 97.8646 49.4029 98.9537 49.4029C100.779 49.4029 102.449 49.8593 103.963 50.772C105.477 51.6743 106.691 52.9241 107.604 54.5213C108.516 56.1082 108.973 57.9284 108.973 59.982C108.973 61.9527 108.532 63.7573 107.65 65.3961C106.769 67.0244 105.529 68.3209 103.932 69.2854C102.345 70.2396 100.478 70.7064 98.3314 70.6856ZM98.3314 67.263C99.6382 67.263 100.81 66.9362 101.847 66.2828C102.895 65.6294 103.719 64.753 104.321 63.6536C104.933 62.5542 105.239 61.3303 105.239 59.982C105.239 58.6648 104.943 57.4669 104.352 56.3882C103.771 55.2992 102.968 54.4332 101.941 53.7901C100.924 53.1471 99.7626 52.8256 98.4558 52.8256C97.4705 52.8256 96.5526 53.0226 95.7021 53.4168C94.8517 53.8005 94.1049 54.3295 93.4618 55.0036C92.8292 55.6778 92.3313 56.4505 91.9683 57.3217C91.6053 58.1825 91.4238 59.0901 91.4238 60.0443C91.4238 61.3096 91.7194 62.492 92.3106 63.5914C92.9122 64.6908 93.7315 65.5776 94.7687 66.2517C95.8162 66.9259 97.0038 67.263 98.3314 67.263Z" fill="#CCCCCC"/>
<path d="M298.421 70.6856C296.077 70.6856 294.081 70.0478 292.431 68.772C290.782 67.4859 289.522 65.6242 288.651 63.1869C287.78 60.7392 287.344 57.7832 287.344 54.3191C287.344 50.8757 287.78 47.9353 288.651 45.498C289.533 43.0503 290.798 41.1833 292.447 39.8973C294.106 38.6008 296.098 37.9526 298.421 37.9526C300.744 37.9526 302.731 38.6008 304.38 39.8973C306.039 41.1833 307.304 43.0503 308.176 45.498C309.057 47.9353 309.498 50.8757 309.498 54.3191C309.498 57.7832 309.062 60.7392 308.191 63.1869C307.32 65.6242 306.06 67.4859 304.411 68.772C302.762 70.0478 300.765 70.6856 298.421 70.6856ZM298.421 67.263C300.744 67.263 302.549 66.1428 303.835 63.9025C305.121 61.6622 305.764 58.4678 305.764 54.3191C305.764 51.5602 305.469 49.211 304.877 47.2715C304.297 45.332 303.457 43.8541 302.357 42.8376C301.268 41.8212 299.956 41.313 298.421 41.313C296.119 41.313 294.319 42.4487 293.023 44.7201C291.726 46.9811 291.078 50.1808 291.078 54.3191C291.078 57.078 291.368 59.422 291.949 61.3511C292.53 63.2802 293.365 64.7478 294.454 65.7539C295.553 66.7599 296.876 67.263 298.421 67.263ZM326.176 70.6856C324.122 70.6856 322.292 70.333 320.684 69.6277C319.087 68.9224 317.816 67.9423 316.872 66.6873C315.939 65.422 315.431 63.9544 315.348 62.2845H319.268C319.351 63.3113 319.704 64.1981 320.326 64.9449C320.948 65.6813 321.763 66.2517 322.769 66.6562C323.775 67.0607 324.89 67.263 326.113 67.263C327.483 67.263 328.696 67.0244 329.754 66.5473C330.812 66.0702 331.642 65.4064 332.243 64.5559C332.845 63.7055 333.145 62.7202 333.145 61.6C333.145 60.428 332.855 59.396 332.274 58.5041C331.693 57.6017 330.843 56.8965 329.723 56.3882C328.603 55.88 327.234 55.6259 325.616 55.6259H323.064V52.2033H325.616C326.881 52.2033 327.991 51.9751 328.945 51.5187C329.91 51.0624 330.661 50.4193 331.201 49.5896C331.751 48.7599 332.025 47.7849 332.025 46.6648C332.025 45.5861 331.787 44.6475 331.31 43.8489C330.833 43.0503 330.158 42.428 329.287 41.982C328.426 41.536 327.41 41.313 326.238 41.313C325.139 41.313 324.101 41.5152 323.126 41.9197C322.162 42.3139 321.374 42.8895 320.762 43.6466C320.15 44.3934 319.818 45.2957 319.766 46.3536H316.032C316.094 44.6838 316.597 43.2214 317.541 41.9664C318.485 40.7011 319.719 39.7158 321.244 39.0105C322.779 38.3052 324.464 37.9526 326.3 37.9526C328.271 37.9526 329.961 38.3519 331.372 39.1505C332.782 39.9387 333.866 40.9811 334.623 42.2776C335.381 43.574 335.759 44.9742 335.759 46.4781C335.759 48.2724 335.287 49.8022 334.343 51.0676C333.41 52.3329 332.139 53.2093 330.532 53.6968V53.9457C332.544 54.2776 334.115 55.1333 335.246 56.5127C336.376 57.8818 336.942 59.5775 336.942 61.6C336.942 63.3321 336.47 64.8878 335.526 66.2673C334.592 67.6363 333.317 68.715 331.699 69.5032C330.081 70.2915 328.24 70.6856 326.176 70.6856ZM345.059 70.4989C344.291 70.4989 343.633 70.2241 343.083 69.6744C342.533 69.1247 342.258 68.4661 342.258 67.6986C342.258 66.9311 342.533 66.2725 343.083 65.7228C343.633 65.1731 344.291 64.8982 345.059 64.8982C345.826 64.8982 346.485 65.1731 347.034 65.7228C347.584 66.2725 347.859 66.9311 347.859 67.6986C347.859 68.2068 347.729 68.6735 347.47 69.0987C347.221 69.524 346.884 69.8662 346.459 70.1255C346.044 70.3745 345.577 70.4989 345.059 70.4989ZM363.953 70.6856C361.9 70.6856 360.069 70.333 358.461 69.6277C356.864 68.9224 355.594 67.9423 354.65 66.6873C353.716 65.422 353.208 63.9544 353.125 62.2845H357.046C357.129 63.3113 357.481 64.1981 358.104 64.9449C358.726 65.6813 359.54 66.2517 360.546 66.6562C361.552 67.0607 362.667 67.263 363.891 67.263C365.26 67.263 366.474 67.0244 367.532 66.5473C368.589 66.0702 369.419 65.4064 370.021 64.5559C370.622 63.7055 370.923 62.7202 370.923 61.6C370.923 60.428 370.633 59.396 370.052 58.5041C369.471 57.6017 368.621 56.8965 367.5 56.3882C366.38 55.88 365.011 55.6259 363.393 55.6259H360.842V52.2033H363.393C364.659 52.2033 365.768 51.9751 366.723 51.5187C367.687 51.0624 368.439 50.4193 368.978 49.5896C369.528 48.7599 369.803 47.7849 369.803 46.6648C369.803 45.5861 369.564 44.6475 369.087 43.8489C368.61 43.0503 367.936 42.428 367.065 41.982C366.204 41.536 365.188 41.313 364.016 41.313C362.916 41.313 361.879 41.5152 360.904 41.9197C359.939 42.3139 359.151 42.8895 358.539 43.6466C357.927 44.3934 357.595 45.2957 357.544 46.3536H353.81C353.872 44.6838 354.375 43.2214 355.319 41.9664C356.263 40.7011 357.497 39.7158 359.022 39.0105C360.557 38.3052 362.242 37.9526 364.078 37.9526C366.048 37.9526 367.739 38.3519 369.15 39.1505C370.56 39.9387 371.644 40.9811 372.401 42.2776C373.158 43.574 373.537 44.9742 373.537 46.4781C373.537 48.2724 373.065 49.8022 372.121 51.0676C371.188 52.3329 369.917 53.2093 368.309 53.6968V53.9457C370.322 54.2776 371.893 55.1333 373.023 56.5127C374.154 57.8818 374.719 59.5775 374.719 61.6C374.719 63.3321 374.247 64.8878 373.303 66.2673C372.37 67.6363 371.094 68.715 369.476 69.5032C367.858 70.2915 366.017 70.6856 363.953 70.6856ZM392.284 38.3882V70.25H388.425V42.4331H388.239L380.46 47.5982V43.6777L388.425 38.3882H392.284Z" fill="#CCCCCC"/>
<path d="M127.07 56.6797H267.1" stroke="#CCCCCC" stroke-width="1.46" stroke-miterlimit="10"/>
</g>
<defs>
<clipPath id="clip0_117_13537">
<rect width="396.38" height="83.51" fill="white"/>
</clipPath>
</defs>
</svg>
