<svg width="397" height="84" viewBox="0 0 397 84" fill="none" xmlns="http://www.w3.org/2000/svg">
<g clip-path="url(#clip0_117_13537)">
<path d="M4.56864 18.5996V17.1998L9.82589 11.4448C10.4429 10.7708 10.951 10.1849 11.3502 9.68718C11.7494 9.18427 12.0449 8.71246 12.2368 8.27177C12.4338 7.82589 12.5323 7.35927 12.5323 6.87191C12.5323 6.31197 12.3975 5.8272 12.1279 5.41761C11.8635 5.00803 11.5005 4.69176 11.0391 4.46882C10.5777 4.24588 10.0592 4.13441 9.4837 4.13441C8.87191 4.13441 8.33789 4.26143 7.88164 4.51548C7.43058 4.76435 7.08061 5.11431 6.83175 5.56538C6.58807 6.01644 6.46623 6.54528 6.46623 7.15188H4.63086C4.63086 6.21864 4.84602 5.39947 5.27635 4.69435C5.70668 3.98924 6.29254 3.43967 7.03395 3.04563C7.78054 2.6516 8.61786 2.45458 9.54592 2.45458C10.4792 2.45458 11.3061 2.6516 12.0268 3.04563C12.7474 3.43967 13.3126 3.97109 13.7222 4.63991C14.1317 5.30874 14.3365 6.05273 14.3365 6.87191C14.3365 7.45778 14.2303 8.03068 14.0177 8.59063C13.8103 9.14538 13.4474 9.76495 12.9289 10.4493C12.4156 11.1285 11.7027 11.9581 10.7902 12.938L7.21282 16.7642V16.8887H14.6165V18.5996H4.56864ZM23.0234 18.8174C21.8517 18.8174 20.8537 18.4985 20.0293 17.8608C19.2049 17.2179 18.575 16.2873 18.1395 15.0689C17.704 13.8453 17.4862 12.3676 17.4862 10.636C17.4862 8.91467 17.704 7.44482 18.1395 6.22642C18.5802 5.00284 19.2127 4.0696 20.0371 3.4267C20.8666 2.77862 21.8621 2.45458 23.0234 2.45458C24.1848 2.45458 25.1777 2.77862 26.002 3.4267C26.8316 4.0696 27.4641 5.00284 27.8996 6.22642C28.3403 7.44482 28.5607 8.91467 28.5607 10.636C28.5607 12.3676 28.3429 13.8453 27.9074 15.0689C27.4719 16.2873 26.8419 17.2179 26.0176 17.8608C25.1932 18.4985 24.1952 18.8174 23.0234 18.8174ZM23.0234 17.1064C24.1848 17.1064 25.0869 16.5465 25.7298 15.4266C26.3727 14.3067 26.6942 12.7098 26.6942 10.636C26.6942 9.25685 26.5464 8.08253 26.2509 7.113C25.9605 6.14347 25.5406 5.40465 24.991 4.89656C24.4466 4.38846 23.7908 4.13441 23.0234 4.13441C21.8724 4.13441 20.9729 4.70213 20.3248 5.83757C19.6767 6.96783 19.3527 8.56729 19.3527 10.636C19.3527 12.0151 19.4979 13.1868 19.7882 14.1512C20.0786 15.1155 20.4959 15.8491 21.0403 16.3521C21.5899 16.855 22.2509 17.1064 23.0234 17.1064ZM31.5159 18.5996V17.1998L36.7732 11.4448C37.3901 10.7708 37.8982 10.1849 38.2974 9.68718C38.6967 9.18427 38.9922 8.71246 39.184 8.27177C39.381 7.82589 39.4795 7.35927 39.4795 6.87191C39.4795 6.31197 39.3447 5.8272 39.0751 5.41761C38.8107 5.00803 38.4478 4.69176 37.9864 4.46882C37.5249 4.24588 37.0065 4.13441 36.431 4.13441C35.8192 4.13441 35.2852 4.26143 34.8289 4.51548C34.3778 4.76435 34.0279 5.11431 33.779 5.56538C33.5353 6.01644 33.4135 6.54528 33.4135 7.15188H31.5781C31.5781 6.21864 31.7933 5.39947 32.2236 4.69435C32.6539 3.98924 33.2398 3.43967 33.9812 3.04563C34.7278 2.6516 35.5651 2.45458 36.4932 2.45458C37.4264 2.45458 38.2534 2.6516 38.974 3.04563C39.6947 3.43967 40.2598 3.97109 40.6694 4.63991C41.079 5.30874 41.2838 6.05273 41.2838 6.87191C41.2838 7.45778 41.1775 8.03068 40.965 8.59063C40.7576 9.14538 40.3946 9.76495 39.8762 10.4493C39.3629 11.1285 38.65 11.9581 37.7375 12.938L34.1601 16.7642V16.8887H41.5638V18.5996H31.5159ZM49.7529 18.8174C48.8404 18.8174 48.0187 18.6359 47.2876 18.273C46.5566 17.91 45.9707 17.4123 45.53 16.7798C45.0893 16.1473 44.8483 15.4266 44.8068 14.6178H46.6733C46.7458 15.3385 47.0725 15.9347 47.6532 16.4065C48.239 16.8731 48.939 17.1064 49.7529 17.1064C50.4062 17.1064 50.9869 16.9535 51.495 16.6476C52.0083 16.3417 52.4101 15.9217 52.7004 15.3877C52.996 14.8485 53.1437 14.2393 53.1437 13.5601C53.1437 12.8654 52.9908 12.2458 52.6849 11.7014C52.3842 11.1518 51.9694 10.7189 51.4406 10.4027C50.9117 10.0864 50.3077 9.92567 49.6285 9.92049C49.1412 9.91531 48.6408 9.99048 48.1276 10.146C47.6143 10.2964 47.1917 10.4908 46.8599 10.7293L45.0556 10.5115L46.02 2.67234H54.2947V4.38327H47.6376L47.0777 9.08058H47.171C47.4976 8.82134 47.9072 8.60618 48.3998 8.43509C48.8923 8.26399 49.4056 8.17844 49.9396 8.17844C50.9143 8.17844 51.7827 8.41175 52.5449 8.87837C53.3122 9.33981 53.9136 9.97234 54.3491 10.776C54.7898 11.5796 55.0102 12.4973 55.0102 13.529C55.0102 14.5452 54.7821 15.4525 54.3258 16.251C53.8748 17.0442 53.2526 17.6716 52.4593 18.133C51.6661 18.5892 50.764 18.8174 49.7529 18.8174Z" fill="#CCCCCC"/>
<path d="M289.299 18.5996V17.1998L294.556 11.4448C295.173 10.7708 295.681 10.1849 296.081 9.68718C296.48 9.18427 296.775 8.71246 296.967 8.27177C297.164 7.82589 297.263 7.35927 297.263 6.87191C297.263 6.31197 297.128 5.8272 296.858 5.41761C296.594 5.00803 296.231 4.69176 295.77 4.46882C295.308 4.24588 294.79 4.13441 294.214 4.13441C293.602 4.13441 293.068 4.26143 292.612 4.51548C292.161 4.76435 291.811 5.11431 291.562 5.56538C291.319 6.01644 291.197 6.54528 291.197 7.15188H289.361C289.361 6.21864 289.576 5.39947 290.007 4.69435C290.437 3.98924 291.023 3.43967 291.764 3.04563C292.511 2.6516 293.348 2.45458 294.276 2.45458C295.21 2.45458 296.037 2.6516 296.757 3.04563C297.478 3.43967 298.043 3.97109 298.453 4.63991C298.862 5.30874 299.067 6.05273 299.067 6.87191C299.067 7.45778 298.961 8.03068 298.748 8.59063C298.541 9.14538 298.178 9.76495 297.659 10.4493C297.146 11.1285 296.433 11.9581 295.521 12.938L291.943 16.7642V16.8887H299.347V18.5996H289.299ZM307.754 18.8174C306.582 18.8174 305.584 18.4985 304.76 17.8608C303.935 17.2179 303.305 16.2873 302.87 15.0689C302.434 13.8453 302.217 12.3676 302.217 10.636C302.217 8.91467 302.434 7.44482 302.87 6.22642C303.311 5.00284 303.943 4.0696 304.768 3.4267C305.597 2.77862 306.593 2.45458 307.754 2.45458C308.915 2.45458 309.908 2.77862 310.732 3.4267C311.562 4.0696 312.195 5.00284 312.63 6.22642C313.071 7.44482 313.291 8.91467 313.291 10.636C313.291 12.3676 313.073 13.8453 312.638 15.0689C312.202 16.2873 311.572 17.2179 310.748 17.8608C309.924 18.4985 308.926 18.8174 307.754 18.8174ZM307.754 17.1064C308.915 17.1064 309.817 16.5465 310.46 15.4266C311.103 14.3067 311.425 12.7098 311.425 10.636C311.425 9.25685 311.277 8.08253 310.981 7.113C310.691 6.14347 310.271 5.40465 309.721 4.89656C309.177 4.38846 308.521 4.13441 307.754 4.13441C306.603 4.13441 305.703 4.70213 305.055 5.83757C304.407 6.96783 304.083 8.56729 304.083 10.636C304.083 12.0151 304.228 13.1868 304.519 14.1512C304.809 15.1155 305.226 15.8491 305.771 16.3521C306.32 16.855 306.981 17.1064 307.754 17.1064ZM316.246 18.5996V17.1998L321.504 11.4448C322.121 10.7708 322.629 10.1849 323.028 9.68718C323.427 9.18427 323.723 8.71246 323.914 8.27177C324.112 7.82589 324.21 7.35927 324.21 6.87191C324.21 6.31197 324.075 5.8272 323.806 5.41761C323.541 5.00803 323.178 4.69176 322.717 4.46882C322.255 4.24588 321.737 4.13441 321.161 4.13441C320.55 4.13441 320.016 4.26143 319.559 4.51548C319.108 4.76435 318.758 5.11431 318.509 5.56538C318.266 6.01644 318.144 6.54528 318.144 7.15188H316.309C316.309 6.21864 316.524 5.39947 316.954 4.69435C317.384 3.98924 317.97 3.43967 318.712 3.04563C319.458 2.6516 320.296 2.45458 321.224 2.45458C322.157 2.45458 322.984 2.6516 323.705 3.04563C324.425 3.43967 324.99 3.97109 325.4 4.63991C325.809 5.30874 326.014 6.05273 326.014 6.87191C326.014 7.45778 325.908 8.03068 325.695 8.59063C325.488 9.14538 325.125 9.76495 324.607 10.4493C324.093 11.1285 323.38 11.9581 322.468 12.938L318.891 16.7642V16.8887H326.294V18.5996H316.246ZM334.483 18.8174C333.571 18.8174 332.749 18.6359 332.018 18.273C331.287 17.91 330.701 17.4123 330.261 16.7798C329.82 16.1473 329.579 15.4266 329.537 14.6178H331.404C331.476 15.3385 331.803 15.9347 332.384 16.4065C332.969 16.8731 333.669 17.1064 334.483 17.1064C335.137 17.1064 335.717 16.9535 336.225 16.6476C336.739 16.3417 337.141 15.9217 337.431 15.3877C337.726 14.8485 337.874 14.2393 337.874 13.5601C337.874 12.8654 337.721 12.2458 337.415 11.7014C337.115 11.1518 336.7 10.7189 336.171 10.4027C335.642 10.0864 335.038 9.92567 334.359 9.92049C333.872 9.91531 333.371 9.99048 332.858 10.146C332.345 10.2964 331.922 10.4908 331.59 10.7293L329.786 10.5115L330.75 2.67234H339.025V4.38327H332.368L331.808 9.08058H331.901C332.228 8.82134 332.638 8.60618 333.13 8.43509C333.623 8.26399 334.136 8.17844 334.67 8.17844C335.645 8.17844 336.513 8.41175 337.275 8.87837C338.043 9.33981 338.644 9.97234 339.08 10.776C339.52 11.5796 339.741 12.4973 339.741 13.529C339.741 14.5452 339.513 15.4525 339.056 16.251C338.605 17.0442 337.983 17.6716 337.19 18.133C336.397 18.5892 335.494 18.8174 334.483 18.8174Z" fill="#CCCCCC"/>
<path d="M14.4996 38.3882V70.25H10.6414V42.4331H10.4547L2.6759 47.5982V43.6777L10.6414 38.3882H14.4996ZM34.0554 70.6856C31.7114 70.6856 29.7149 70.0478 28.0658 68.772C26.4167 67.4859 25.1565 65.6242 24.2853 63.1869C23.4141 60.7392 22.9785 57.7832 22.9785 54.3191C22.9785 50.8757 23.4141 47.9353 24.2853 45.498C25.1669 43.0503 26.4322 41.1833 28.0813 39.8973C29.7408 38.6008 31.7322 37.9526 34.0554 37.9526C36.3787 37.9526 38.3649 38.6008 40.014 39.8973C41.6734 41.1833 42.9388 43.0503 43.81 45.498C44.6916 47.9353 45.1324 50.8757 45.1324 54.3191C45.1324 57.7832 44.6968 60.7392 43.8256 63.1869C42.9543 65.6242 41.6942 67.4859 40.0451 68.772C38.396 70.0478 36.3994 70.6856 34.0554 70.6856ZM34.0554 67.263C36.3787 67.263 38.1834 66.1428 39.4695 63.9025C40.7555 61.6622 41.3986 58.4678 41.3986 54.3191C41.3986 51.5602 41.103 49.211 40.5118 47.2715C39.931 45.332 39.0909 43.8541 37.9915 42.8376C36.9025 41.8212 35.5904 41.313 34.0554 41.313C31.7529 41.313 29.9534 42.4487 28.657 44.7201C27.3605 46.9811 26.7123 50.1808 26.7123 54.3191C26.7123 57.078 27.0027 59.422 27.5835 61.3511C28.1643 63.2802 28.9992 64.7478 30.0883 65.7539C31.1877 66.7599 32.51 67.263 34.0554 67.263ZM52.67 70.4989C51.9025 70.4989 51.2439 70.2241 50.6942 69.6744C50.1445 69.1247 49.8697 68.4661 49.8697 67.6986C49.8697 66.9311 50.1445 66.2725 50.6942 65.7228C51.2439 65.1731 51.9025 64.8982 52.67 64.8982C53.4375 64.8982 54.0961 65.1731 54.6458 65.7228C55.1955 66.2725 55.4704 66.9311 55.4704 67.6986C55.4704 68.2068 55.3407 68.6735 55.0814 69.0987C54.8325 69.524 54.4954 69.8662 54.0702 70.1255C53.6553 70.3745 53.1886 70.4989 52.67 70.4989ZM61.9968 70.25V67.4496L72.5136 55.9371C73.7479 54.5888 74.7643 53.4168 75.5629 52.4211C76.3615 51.415 76.9527 50.4712 77.3365 49.5896C77.7306 48.6976 77.9277 47.7642 77.9277 46.7892C77.9277 45.6691 77.658 44.6994 77.1187 43.88C76.5897 43.0606 75.8637 42.428 74.9406 41.982C74.0175 41.536 72.9804 41.313 71.8291 41.313C70.6053 41.313 69.537 41.5671 68.6243 42.0753C67.7219 42.5732 67.0218 43.2732 66.524 44.1756C66.0365 45.0779 65.7928 46.1358 65.7928 47.3493H62.1212C62.1212 45.4824 62.5516 43.8437 63.4125 42.4331C64.2733 41.0226 65.4453 39.9232 66.9285 39.1349C68.422 38.3467 70.097 37.9526 71.9536 37.9526C73.8205 37.9526 75.4748 38.3467 76.9164 39.1349C78.3581 39.9232 79.4886 40.9863 80.308 42.3242C81.1273 43.6622 81.537 45.1505 81.537 46.7892C81.537 47.9612 81.3244 49.1073 80.8991 50.2275C80.4843 51.3372 79.7583 52.5766 78.7211 53.9457C77.6943 55.3044 76.2682 56.9639 74.4428 58.9241L67.2863 66.5784V66.8273H82.0971V70.25H61.9968ZM89.518 70.25L103.769 42.0598V41.8108H87.34V38.3882H107.751V41.9975L93.563 70.25H89.518Z" fill="#CCCCCC"/>
<path d="M299.23 38.3882V70.25H295.372V42.4331H295.185L287.406 47.5982V43.6777L295.372 38.3882H299.23ZM308.393 70.25V67.4496L318.91 55.9371C320.145 54.5888 321.161 53.4168 321.96 52.4211C322.758 51.415 323.349 50.4712 323.733 49.5896C324.127 48.6976 324.324 47.7642 324.324 46.7892C324.324 45.6691 324.055 44.6994 323.515 43.88C322.986 43.0606 322.26 42.428 321.337 41.982C320.414 41.536 319.377 41.313 318.226 41.313C317.002 41.313 315.934 41.5671 315.021 42.0753C314.119 42.5732 313.419 43.2732 312.921 44.1756C312.433 45.0779 312.19 46.1358 312.19 47.3493H308.518C308.518 45.4824 308.948 43.8437 309.809 42.4331C310.67 41.0226 311.842 39.9232 313.325 39.1349C314.819 38.3467 316.494 37.9526 318.35 37.9526C320.217 37.9526 321.871 38.3467 323.313 39.1349C324.755 39.9232 325.885 40.9863 326.705 42.3242C327.524 43.6622 327.934 45.1505 327.934 46.7892C327.934 47.9612 327.721 49.1073 327.296 50.2275C326.881 51.3372 326.155 52.5766 325.118 53.9457C324.091 55.3044 322.665 56.9639 320.839 58.9241L313.683 66.5784V66.8273H328.494V70.25H308.393ZM337.657 70.4989C336.89 70.4989 336.231 70.2241 335.681 69.6744C335.132 69.1247 334.857 68.4661 334.857 67.6986C334.857 66.9311 335.132 66.2725 335.681 65.7228C336.231 65.1731 336.89 64.8982 337.657 64.8982C338.425 64.8982 339.083 65.1731 339.633 65.7228C340.183 66.2725 340.458 66.9311 340.458 67.6986C340.458 68.2068 340.328 68.6735 340.069 69.0987C339.82 69.524 339.483 69.8662 339.057 70.1255C338.642 70.3745 338.176 70.4989 337.657 70.4989ZM356.552 70.6856C354.498 70.6856 352.668 70.333 351.06 69.6277C349.463 68.9224 348.192 67.9423 347.248 66.6873C346.315 65.422 345.807 63.9544 345.724 62.2845H349.644C349.727 63.3113 350.08 64.1981 350.702 64.9449C351.324 65.6813 352.139 66.2517 353.145 66.6562C354.151 67.0607 355.266 67.263 356.49 67.263C357.859 67.263 359.072 67.0244 360.13 66.5473C361.188 66.0702 362.018 65.4064 362.619 64.5559C363.221 63.7055 363.522 62.7202 363.522 61.6C363.522 60.428 363.231 59.396 362.65 58.5041C362.07 57.6017 361.219 56.8965 360.099 56.3882C358.979 55.88 357.61 55.6259 355.992 55.6259H353.44V52.2033H355.992C357.257 52.2033 358.367 51.9751 359.321 51.5187C360.286 51.0624 361.038 50.4193 361.577 49.5896C362.127 48.7599 362.401 47.7849 362.401 46.6648C362.401 45.5861 362.163 44.6475 361.686 43.8489C361.209 43.0503 360.535 42.428 359.663 41.982C358.802 41.536 357.786 41.313 356.614 41.313C355.515 41.313 354.477 41.5152 353.503 41.9197C352.538 42.3139 351.75 42.8895 351.138 43.6466C350.526 44.3934 350.194 45.2957 350.142 46.3536H346.408C346.471 44.6838 346.974 43.2214 347.917 41.9664C348.861 40.7011 350.095 39.7158 351.62 39.0105C353.155 38.3052 354.84 37.9526 356.676 37.9526C358.647 37.9526 360.337 38.3519 361.748 39.1505C363.159 39.9387 364.242 40.9811 365 42.2776C365.757 43.574 366.135 44.9742 366.135 46.4781C366.135 48.2724 365.663 49.8022 364.72 51.0676C363.786 52.3329 362.516 53.2093 360.908 53.6968V53.9457C362.92 54.2776 364.491 55.1333 365.622 56.5127C366.752 57.8818 367.318 59.5775 367.318 61.6C367.318 63.3321 366.846 64.8878 365.902 66.2673C364.968 67.6363 363.693 68.715 362.075 69.5032C360.457 70.2915 358.616 70.6856 356.552 70.6856ZM384.882 38.3882V70.25H381.024V42.4331H380.837L373.058 47.5982V43.6777L381.024 38.3882H384.882Z" fill="#CCCCCC"/>
<path d="M127.07 56.6797H267.1" stroke="#CCCCCC" stroke-width="1.46" stroke-miterlimit="10"/>
</g>
<defs>
<clipPath id="clip0_117_13537">
<rect width="396.38" height="83.51" fill="white"/>
</clipPath>
</defs>
</svg>
