<svg width="416" height="95" viewBox="0 0 416 95" fill="none" xmlns="http://www.w3.org/2000/svg">
<path d="M11.8561 0.791504L20.7457 3.75804C21.9985 4.14891 22.6198 4.84042 22.6198 5.83261C22.6198 6.75464 21.2969 7.44617 18.6711 7.90718C17.3582 10.1421 16.1355 12.1265 15.0131 13.8302H25.877C26.9995 9.68109 27.7511 5.8326 28.152 2.27477L36.2498 4.54978C37.6329 4.94064 38.3244 5.50189 38.3244 6.2335C38.3244 7.15553 37.0115 7.97733 34.3757 8.69892C32.8624 10.2824 31.0484 11.9962 28.9437 13.8302H36.4503L41.0905 8.69892L47.6048 13.2389C48.3264 13.8402 48.6872 14.4115 48.6872 14.9527C48.6872 16.1153 48.2964 16.6965 47.5046 16.6965H31.6998V24.8946H33.5739L37.9235 20.0539L44.047 24.4035C44.7686 24.9948 45.1294 25.5561 45.1294 26.0872C45.1294 27.0794 44.7385 27.5705 43.9468 27.5705H31.6998V36.2596H33.9748L38.3244 31.5192L44.4479 35.8688C45.1093 36.3999 45.4401 36.9511 45.4401 37.5525C45.4401 38.6048 45.0793 39.136 44.3577 39.136H31.7199V48.1258H35.6686L40.7999 42.6938L47.5146 47.5345C48.3064 48.1258 48.6973 48.7171 48.6973 49.3084C48.6973 50.4308 48.136 50.9921 47.0135 50.9921H16.1957V52.4753C16.1957 53.7281 15.5743 54.6501 14.3215 55.2414C13.0688 55.8327 11.8862 56.1334 10.7637 56.1334C9.25037 56.1334 8.42856 55.3116 8.29828 53.668L8.68914 43.4956V21.8679C6.91523 23.8423 4.70035 25.8868 2.07457 27.9914L0 26.8088C2.96653 22.4592 5.23152 18.5105 6.81501 14.9527C8.65907 10.9338 10.3328 6.2335 11.8561 0.831601V0.791504ZM13.9307 58.4786C18.2101 59.2703 22.5597 59.6611 26.9694 59.6611H71.5175L76.2579 54.9207L83.8647 60.5531C84.917 61.2146 85.4482 61.8059 85.4482 62.327C85.4482 63.1789 84.887 63.7402 83.7645 64.0108L80.6075 65.0931C76.7891 68.5808 72.3794 71.9081 67.3684 75.0651C65.1936 76.4482 63.1491 77.6708 61.2449 78.7232C65.0633 79.8456 69.2124 80.7276 73.6923 81.389C81.5296 82.3111 88.8657 82.9324 95.7208 83.2632L95.33 86.4201C93.8768 86.4201 92.634 86.7208 91.5817 87.3121C90.6597 87.5125 89.5071 89.4868 88.1241 93.2351C79.3648 91.8521 72.0587 90.2084 66.1958 88.2942C60.9943 86.7107 56.4543 84.9669 52.5658 83.0627C45.5203 85.8889 38.3444 88.194 31.0384 89.9779C22.1488 92.1527 14.081 93.5959 6.83505 94.3275L5.65245 91.5614C9.73143 91.1004 15.0632 90.018 21.6577 88.3043C29.6252 86.1295 36.7008 83.7943 42.8945 81.2888C44.2074 80.6975 45.4301 80.1362 46.5525 79.6151C44.2475 77.9715 42.0426 76.1575 39.938 74.1832C35.9893 70.8258 32.2711 66.877 28.7734 62.327H26.9995C23.2512 62.327 19.523 62.6277 15.8349 63.219L13.9607 58.4786H13.9307ZM24.4939 24.8946V16.6965H16.1957V24.8946H24.4939ZM24.4939 36.2496V27.5605H16.1957V36.2496H24.4939ZM16.1957 48.1057H24.4939V39.1159H16.1957V48.1057ZM31.9003 62.327C36.31 66.2757 40.3288 69.2723 43.9468 71.3168C46.9133 73.1609 49.94 74.7444 53.0368 76.0573C54.7506 75.0651 56.3641 74.0829 57.8775 73.0908C61.8262 70.2645 66.2058 66.6666 71.0164 62.327H31.9003ZM55.7027 1.48303L64.6925 4.54978C65.815 4.94064 66.3762 5.63217 66.3762 6.62436C66.3762 7.54639 65.0533 8.2379 62.4275 8.69892C61.1747 10.6131 59.9921 12.3169 58.8697 13.8302H70.2247C71.6678 9.68109 72.66 5.8326 73.1912 2.27477L81.289 4.54978C82.6721 4.94064 83.3636 5.50189 83.3636 6.2335C83.3636 7.15553 82.0507 7.97733 79.4149 8.69892C77.7713 10.2824 75.7569 11.9962 73.3916 13.8302H81.8904L87.0217 8.29804L93.6362 13.1387C94.4881 13.74 94.9191 14.3414 94.9191 14.9527C94.9191 16.1153 94.3578 16.6965 93.2353 16.6965H76.6388V24.8946H80.1966L84.9371 19.6631L91.4514 24.3033C92.1129 24.8946 92.4436 25.4859 92.4436 26.0772C92.4436 27.0694 92.0828 27.5605 91.3612 27.5605H76.6488V36.2496H80.2066L84.9471 31.1183L91.4614 35.7585C92.1229 36.3498 92.4536 36.9411 92.4536 37.5324C92.4536 38.5847 92.0928 39.1159 91.3712 39.1159H76.6588V48.1057H83.7745L88.9058 42.6738L95.7208 47.5144C96.4424 48.1057 96.8032 48.697 96.8032 49.2883C96.8032 50.4108 96.3121 50.972 95.3199 50.972H59.6614V52.4553C59.6614 53.708 59.03 54.6301 57.7873 55.2214C56.5345 55.8127 55.3218 56.1134 54.1292 56.1134C52.676 56.1134 51.9244 55.2915 51.8542 53.6479L52.2451 43.4755V21.1564C50.862 22.2788 49.2785 23.5316 47.5046 24.9146L45.4301 23.6318C48.0659 20.0138 50.0101 16.6865 51.2529 13.6598C52.8965 10.2323 54.3798 6.18338 55.6927 1.51309L55.7027 1.48303ZM69.6334 24.8946V16.6965H59.6614V24.8946H69.6334ZM69.6334 36.2496V27.5605H59.6614V36.2496H69.6334ZM59.6614 48.1057H69.6334V39.1159H59.6614V48.1057Z" fill="url(#paint0_linear_1_144617)"/>
<path d="M113.009 15.7144L119.624 19.2722H131.48V10.5831C131.48 4.9206 131.219 1.66343 130.688 0.801536L138.495 1.88391C139.878 2.08435 140.57 2.6055 140.57 3.4674C140.57 3.99857 140.239 4.41949 139.578 4.75022L138.295 5.54197V19.2722H148.567L152.416 16.1153L157.948 20.3646C158.539 20.8958 158.84 21.4871 158.84 22.1385C158.84 22.5294 158.509 22.8601 157.848 23.1307L155.974 24.0227V43.4855C155.974 45.5902 155.513 47.2739 154.591 48.5266C153.869 49.7794 152.676 50.8016 151.033 51.5834C149.319 52.4352 147.836 52.8662 146.583 52.8662C146.583 51.0221 146.383 49.7694 145.992 49.1179C145.601 48.2661 143.947 47.4342 141.051 46.6525L141.442 44.5779L146.573 44.9688C147.425 44.9688 148.056 44.8084 148.447 44.4777C148.968 44.0869 149.239 43.3553 149.239 42.3029V22.1586H138.275V47.8351C138.275 48.8273 137.713 49.609 136.591 50.2103C135.469 50.7415 134.446 51.0021 133.524 51.0021C132.011 51.0021 131.189 50.3106 131.059 48.9275L131.45 39.4466V30.9479C131.059 31.0181 130.688 31.0782 130.367 31.1484C129.185 34.0448 128.062 36.3799 127.01 38.1638C125.958 40.0079 124.544 41.882 122.761 43.7962L121.277 42.7139C122.269 39.8876 123.021 37.4422 123.552 35.4078C124.344 32.5114 125.036 29.2843 125.627 25.7264L131.45 27.7008V22.1686H120.486V51.0121C120.486 51.9342 119.954 52.5555 118.902 52.8862C117.98 53.4174 116.928 53.678 115.745 53.678C114.232 53.678 113.44 53.0566 113.37 51.8038L113.671 43.5056V21.7777C113.671 18.7511 113.44 16.7366 112.979 15.7545L113.009 15.7144ZM116.567 2.67566C120.455 4.85045 123.582 6.85486 125.948 8.69892C128.122 10.4127 129.205 12.1265 129.205 13.8302C129.205 16.7266 127.892 18.1798 125.256 18.1798C124.404 18.1798 123.642 17.4582 122.981 16.005C120.937 11.9862 118.11 7.96731 114.482 3.95848L116.557 2.67566H116.567ZM121.307 56.7949L129.606 60.7435H151.634C151.564 56.0031 151.333 53.237 150.943 52.4453L159.932 53.8283C161.576 54.0889 162.398 54.7203 162.398 55.7024C162.398 56.3639 161.967 56.9251 161.115 57.3761L159.632 58.4585V60.7335H185.218L188.876 56.3839L195.1 60.9239C195.952 61.4551 196.383 62.0765 196.383 62.7981C196.383 63.4595 195.992 63.9807 195.2 64.3816L192.825 65.8648V78.1118C192.825 81.2687 191.181 83.8043 187.884 85.7185C185.048 87.302 182.482 88.0938 180.177 88.0938C180.177 85.7186 179.916 84.1451 179.385 83.3533C178.794 82.5616 176.158 81.6396 171.488 80.5872V78.5127H181.66C184.035 78.5127 185.218 77.8913 185.218 76.6385V63.5998H159.632V91.1605C159.632 92.4133 158.96 93.3353 157.627 93.9266C156.365 94.4578 155.162 94.7184 154.029 94.7184C152.225 94.7184 151.293 93.7963 151.233 91.9523L151.534 81.379V63.5998H129.606V85.3277C129.606 86.38 129.014 87.1016 127.832 87.5025C126.709 88.1639 125.426 88.4947 123.983 88.4947C122.54 88.4947 121.778 87.6728 121.708 86.0292L122.009 76.6486V63.219C122.009 59.9217 121.778 57.787 121.317 56.7949H121.307ZM140.57 25.6863C142.805 27.6005 144.649 29.5348 146.102 31.5092C147.415 33.3532 148.076 34.9367 148.076 36.2496C148.076 38.6248 147.024 39.8074 144.919 39.8074C143.867 39.8074 143.176 38.8854 142.845 37.0414C142.123 33.6138 140.84 30.096 138.996 26.4681L140.58 25.6763L140.57 25.6863ZM147.685 2.67566L155.984 5.64218C157.036 6.17335 157.567 6.76466 157.567 7.41609C157.567 8.26797 156.284 8.9595 153.719 9.49067C151.945 11.465 150.331 13.0184 148.878 14.1309C147.295 15.4438 145.22 16.7968 142.654 18.1798L140.58 16.9972C142.294 14.622 143.576 12.5875 144.428 10.8737C145.681 8.43834 146.763 5.70232 147.685 2.67566ZM170.205 0.791504L179.485 3.94847C180.668 4.47964 181.259 5.101 181.259 5.82259C181.259 6.81477 179.806 7.63658 176.91 8.28801C175.326 11.6454 173.853 14.5418 172.47 16.9772H189.558L195.09 10.9539L202.206 16.0852C202.997 16.8068 203.388 17.4983 203.388 18.1598C203.388 19.1519 202.897 19.643 201.905 19.643H195.19C194.398 24.0527 193.115 27.8411 191.342 30.998C190.029 33.7641 188.475 36.0993 186.701 38.0135C188.145 38.8052 189.698 39.5569 191.342 40.2885C194.499 41.6715 198.818 42.9544 204.28 44.137L203.789 46.2115C202.015 46.2115 200.562 46.5423 199.439 47.2037C198.127 47.7349 196.974 49.3485 195.982 52.0444C191.632 50.3306 188.215 48.6168 185.709 46.9131C183.795 45.6002 182.181 44.3174 180.869 43.0646C179.155 44.2472 177.341 45.3396 175.437 46.3218C171.418 48.4264 165.465 50.4709 157.557 52.4453L156.765 50.5712C162.358 48.5266 166.868 46.5523 170.295 44.6481C172.861 43.1348 175.196 41.3609 177.311 39.3164C174.805 36.0892 172.771 32.5715 171.187 28.7431C170.466 26.8389 169.804 24.5939 169.213 22.0283C166.707 25.7765 163.52 29.5048 159.632 33.1929L157.557 31.5092C160.714 26.3778 162.989 22.0283 164.372 18.4704C166.677 13.1988 168.622 7.30585 170.195 0.791504H170.205ZM171.187 19.6631C171.909 21.898 172.771 23.9124 173.753 25.6863C175.727 28.6529 178.102 31.419 180.869 33.9846C181.129 34.185 181.36 34.3755 181.56 34.5759C182.683 32.9924 183.665 31.3187 184.527 29.5348C185.91 26.6384 186.902 23.3512 187.493 19.6631H171.197H171.187Z" fill="url(#paint1_linear_1_144617)"/>
<path d="M256.746 1.19238L266.718 2.37498C268.762 2.63555 269.774 3.29701 269.774 4.34933C269.774 5.66222 268.321 6.85485 265.425 7.90717V14.9226H296.143L302.166 10.1822L309.372 15.4137C310.364 15.8046 310.855 16.5963 310.855 17.7889C310.855 18.4504 310.163 18.9715 308.78 19.3724L306.014 20.0639C303.178 22.7599 299.4 25.6563 294.659 28.7531L292.194 27.9613C294.298 24.3434 295.912 20.9459 297.035 17.7889H226.609C226.018 22.1385 225.096 25.2654 223.843 27.1696C222.39 29.605 220.847 30.8276 219.203 30.8276C216.307 30.8276 214.854 29.4747 214.854 26.7787C214.854 25.6563 215.315 24.5438 216.237 23.4213C217.62 21.9782 218.832 20.4949 219.895 18.9816C221.408 16.8068 222.991 13.3892 224.635 8.70894L227.1 9.0998C227.03 11.2746 226.93 13.2189 226.8 14.9226H257.127V7.41608C257.127 6.36376 256.996 4.2892 256.736 1.19238H256.746ZM223.162 33.9846C227.441 34.7763 231.791 35.1672 236.201 35.1672H282.823L289.047 27.9613L297.245 34.0848C298.167 34.8064 298.628 35.548 298.628 36.2997C298.628 37.4622 297.936 38.0435 296.553 38.0435H265.836V58.4886H282.823L288.656 51.7738L296.463 57.4062C297.385 58.1979 297.846 58.9496 297.846 59.6812C297.846 60.6734 297.285 61.1644 296.163 61.1644H265.846V82.301C268.081 82.4313 270.456 82.5014 272.961 82.5014H310.494L310.003 85.3678C307.498 85.6985 306.014 86.0894 305.563 86.5504C304.842 86.9412 304.24 88.6249 303.789 91.5915C280.278 91.4612 266.718 91.0002 263.1 90.2084C259.873 89.6773 256.676 88.7252 253.519 87.3421C248.909 85.2375 244.789 81.7799 241.171 76.9693C240.049 75.3858 239.027 73.7722 238.115 72.1286C236.271 76.2777 233.635 80.1964 230.217 83.8845C227.782 86.4501 223.994 89.7073 218.862 93.6661L217.179 91.5915C221.919 86.9112 225.176 83.2631 226.96 80.6273C229.786 76.3479 231.801 71.4772 232.983 66.0051C234.567 60.6133 235.519 54.0488 235.85 46.3118L245.431 47.785C246.944 47.9854 247.706 48.5066 247.706 49.3584C247.706 50.3406 246.383 51.2626 243.757 52.1145C242.705 58.6088 241.352 64.0608 239.708 68.4706C240.891 70.3146 242.083 71.7979 243.266 72.9103C246.363 75.8769 249.229 77.9113 251.855 79.0338C253.569 79.9558 255.473 80.6474 257.588 81.1084V38.0435H236.251C232.563 38.0435 228.844 38.3041 225.086 38.8353L223.212 33.9946L223.162 33.9846Z" fill="white"/>
<path d="M320.276 12.6478C324.555 13.4396 328.905 13.8305 333.314 13.8305H349.219C350.933 9.42075 352.607 4.81059 354.26 0L363.15 1.87412C364.533 2.20485 365.225 2.89638 365.225 3.9487C365.225 4.94088 363.912 5.69253 361.276 6.2237C360.284 8.8595 359.231 11.3951 358.119 13.8305H398.027L404.842 6.2237L413.24 12.5476C414.162 13.3995 414.623 14.2113 414.623 14.9529C414.623 16.1155 414.002 16.6968 412.749 16.6968H356.746C352.988 24.2734 348.678 31.3791 343.807 38.0338C343.276 38.6952 342.785 39.2865 342.324 39.8077L346.674 43.0648C347.465 43.6561 347.856 44.3176 347.856 45.0392C347.856 45.43 347.465 45.9312 346.674 46.5225L343.908 47.9055V90.8701C343.908 92.1229 343.346 93.075 342.224 93.7364C341.302 94.1974 340.28 94.4279 339.167 94.4279C337.063 94.4279 336.01 93.7966 336.01 92.5538V46.7229C331.731 50.9422 326.89 55.0212 321.488 58.9698L319.905 56.8953C327.02 50.9723 333.435 43.4256 339.167 34.2755C342.324 29.2043 345.291 23.3414 348.057 16.6968H333.344C329.586 16.6968 325.868 16.9573 322.18 17.4885L320.306 12.6478H320.276ZM352.968 30.0361C357.377 30.7577 361.757 31.1185 366.107 31.1185H396.133L400.482 26.7689L406.806 33.2833C407.858 34.1352 408.39 34.8668 408.39 35.4581C408.39 36.5104 407.728 37.0416 406.415 37.0416H403.158C397.696 41.1907 392.455 44.6483 387.454 47.4144L388.345 47.7151C389.268 48.0458 389.729 48.7073 389.729 49.6894C389.729 50.411 388.406 51.1026 385.78 51.764V58.4788H400.101L406.325 51.3631L414.523 57.2861C415.375 58.0779 415.806 58.8696 415.806 59.6614C415.806 60.6536 415.185 61.1447 413.932 61.1447H385.78V83.7645C385.78 87.1219 384.036 89.8579 380.548 91.9625C377.582 93.546 374.856 94.3378 372.35 94.3378C372.35 91.9024 372.06 90.2187 371.458 89.2966C370.667 88.0439 367.019 86.731 360.494 85.348L360.885 82.8825L374.816 84.1654C376.59 84.1654 377.482 83.3436 377.482 81.6999V61.1547H359.702C356.084 61.1547 352.396 61.4152 348.638 61.9464L346.764 57.206C351.043 58.0579 355.353 58.4888 359.702 58.4888H377.482V51.3731C377.482 47.5547 377.221 44.9189 376.69 43.4757L383.405 45.9412C387.554 42.253 391.272 38.2743 394.569 33.9949H366.127C362.368 33.9949 358.68 34.2554 355.062 34.7866L352.988 30.0462L352.968 30.0361Z" fill="white"/>
<defs>
<linearGradient id="paint0_linear_1_144617" x1="48.3966" y1="94.3275" x2="48.3966" y2="0.791504" gradientUnits="userSpaceOnUse">
<stop stop-color="#EBB275"/>
<stop offset="0.03" stop-color="#F3C785"/>
<stop offset="0.06" stop-color="#FAD791"/>
<stop offset="0.1" stop-color="#FDE097"/>
<stop offset="0.14" stop-color="#FFE39A"/>
<stop offset="0.23" stop-color="#ECC683"/>
<stop offset="0.34" stop-color="#D5A369"/>
<stop offset="0.44" stop-color="#C78E59"/>
<stop offset="0.5" stop-color="#DDAF72"/>
<stop offset="0.51" stop-color="#FFE39A"/>
<stop offset="1" stop-color="#F3C070"/>
</linearGradient>
<linearGradient id="paint1_linear_1_144617" x1="158.65" y1="94.7284" x2="158.65" y2="-226.77" gradientUnits="userSpaceOnUse">
<stop stop-color="#EBB275"/>
<stop offset="0.03" stop-color="#F3C785"/>
<stop offset="0.06" stop-color="#FAD791"/>
<stop offset="0.1" stop-color="#FDE097"/>
<stop offset="0.14" stop-color="#FFE39A"/>
<stop offset="0.23" stop-color="#ECC683"/>
<stop offset="0.34" stop-color="#D5A369"/>
<stop offset="0.44" stop-color="#C78E59"/>
<stop offset="0.5" stop-color="#DDAF72"/>
<stop offset="0.51" stop-color="#FFE39A"/>
<stop offset="1" stop-color="#F3C070"/>
</linearGradient>
</defs>
</svg>
