<svg width="394" height="71" viewBox="0 0 394 71" fill="none" xmlns="http://www.w3.org/2000/svg">
<path d="M11.946 16.8772H2.01416V15.2636L6.8448 10.3929C8.44833 8.77934 9.43049 7.60675 9.80131 6.88516C10.1721 6.16357 10.3525 5.39187 10.3525 4.58009C10.3525 3.59792 10.0719 2.84627 9.52069 2.3151C8.96948 1.78393 8.16771 1.52335 7.13544 1.52335C5.65217 1.52335 4.23906 2.16477 2.86604 3.43757V1.53338C4.14886 0.511126 5.64215 0 7.36595 0C8.7991 0 9.94162 0.400883 10.8035 1.19263C11.6654 1.98437 12.0964 3.05673 12.0964 4.41973C12.0964 5.46203 11.8157 6.4943 11.2445 7.49651C10.6732 8.50874 9.60087 9.80159 8.0274 11.3851L4.15888 15.2135V15.2536H11.9561V16.8872L11.946 16.8772Z" fill="#CCCCCC"/>
<path d="M14.6421 8.91964C14.6421 5.9932 15.1232 3.7683 16.0752 2.26499C17.0273 0.761678 18.4104 0 20.2043 0C23.6519 0 25.3858 2.83625 25.3858 8.50874C25.3858 11.2648 24.9147 13.3995 23.9626 14.9028C23.0105 16.4061 21.6375 17.1578 19.8335 17.1578C18.1498 17.1578 16.857 16.4362 15.975 14.993C15.0931 13.5498 14.6421 11.5254 14.6421 8.91964ZM16.4661 8.81942C16.4661 13.3594 17.6487 15.6344 20.0239 15.6344C22.3992 15.6344 23.5517 13.3294 23.5517 8.7192C23.5517 4.10905 22.4092 1.52336 20.1141 1.52336C17.6888 1.52336 16.4661 3.9487 16.4661 8.8094V8.81942Z" fill="#CCCCCC"/>
<path d="M37.3918 16.8772H27.46V15.2636L32.2906 10.3929C33.8941 8.77934 34.8763 7.60675 35.2471 6.88516C35.6179 6.16357 35.7983 5.39187 35.7983 4.58009C35.7983 3.59792 35.5177 2.84627 34.9665 2.3151C34.4153 1.78393 33.6135 1.52335 32.5812 1.52335C31.098 1.52335 29.6849 2.16477 28.3118 3.43757V1.53338C29.5947 0.511126 31.088 0 32.8117 0C34.2449 0 35.3874 0.400883 36.2493 1.19263C37.1112 1.98437 37.5422 3.05673 37.5422 4.41973C37.5422 5.46203 37.2615 6.4943 36.6903 7.49651C36.119 8.50874 35.0467 9.80159 33.4732 11.3851L29.6047 15.2135V15.2536H37.4019V16.8872L37.3918 16.8772Z" fill="#CCCCCC"/>
<path d="M40.98 14.5321C42.1125 15.2638 43.255 15.6346 44.4276 15.6346C45.6002 15.6346 46.5523 15.2938 47.2939 14.6223C48.0255 13.9509 48.3963 13.0489 48.3963 11.9364C48.3963 10.824 48.0255 9.94204 47.2939 9.33069C46.5623 8.71935 45.4999 8.40866 44.1069 8.40866C43.6659 8.40866 42.804 8.44875 41.5011 8.53895V0.280762H49.4587V1.91436H43.2049V6.88531C43.8263 6.84522 44.2973 6.8352 44.618 6.8352C46.3618 6.8352 47.7248 7.27617 48.717 8.14809C49.7092 9.02001 50.2003 10.2527 50.2003 11.8362C50.2003 13.4197 49.6691 14.7827 48.5968 15.7348C47.5244 16.6869 46.1213 17.1579 44.3775 17.1579C42.8441 17.1579 41.7116 16.9274 40.98 16.4764V14.5321Z" fill="#CCCCCC"/>
<path d="M297.315 16.8772H287.383V15.2636L292.213 10.3929C293.817 8.77934 294.799 7.60675 295.17 6.88516C295.541 6.16357 295.721 5.39187 295.721 4.58009C295.721 3.59792 295.441 2.84627 294.889 2.3151C294.338 1.78393 293.536 1.52335 292.504 1.52335C291.021 1.52335 289.598 2.16477 288.235 3.43757V1.53338C289.518 0.511126 291.011 0 292.735 0C294.168 0 295.31 0.400883 296.172 1.19263C297.034 1.98437 297.465 3.05673 297.465 4.41973C297.465 5.46203 297.184 6.4943 296.613 7.49651C296.042 8.50874 294.97 9.80159 293.396 11.3851L289.528 15.2135V15.2536H297.325V16.8872L297.315 16.8772Z" fill="#CCCCCC"/>
<path d="M300 8.91964C300 5.9932 300.482 3.7683 301.434 2.26499C302.386 0.761678 303.769 0 305.563 0C309.01 0 310.744 2.83625 310.744 8.50874C310.744 11.2648 310.273 13.3995 309.321 14.9028C308.369 16.4061 306.996 17.1578 305.192 17.1578C303.508 17.1578 302.215 16.4362 301.333 14.993C300.451 13.5498 300 11.5254 300 8.91964ZM301.825 8.81942C301.825 13.3594 303.007 15.6344 305.382 15.6344C307.758 15.6344 308.91 13.3294 308.91 8.7192C308.91 4.10905 307.768 1.52336 305.473 1.52336C303.047 1.52336 301.825 3.9487 301.825 8.8094V8.81942Z" fill="#CCCCCC"/>
<path d="M322.76 16.8772H312.829V15.2636L317.659 10.3929C319.263 8.77934 320.245 7.60675 320.616 6.88516C320.987 6.16357 321.167 5.39187 321.167 4.58009C321.167 3.59792 320.886 2.84627 320.335 2.3151C319.784 1.78393 318.982 1.52335 317.95 1.52335C316.467 1.52335 315.043 2.16477 313.68 3.43757V1.53338C314.963 0.511126 316.457 0 318.18 0C319.614 0 320.756 0.400883 321.618 1.19263C322.48 1.98437 322.911 3.05673 322.911 4.41973C322.911 5.46203 322.63 6.4943 322.059 7.49651C321.488 8.50874 320.415 9.80159 318.842 11.3851L314.973 15.2135V15.2536H322.77V16.8872L322.76 16.8772Z" fill="#CCCCCC"/>
<path d="M326.338 14.5321C327.471 15.2638 328.613 15.6346 329.786 15.6346C330.959 15.6346 331.911 15.2938 332.652 14.6223C333.384 13.9509 333.755 13.0489 333.755 11.9364C333.755 10.824 333.384 9.94204 332.652 9.33069C331.921 8.71935 330.858 8.40866 329.465 8.40866C329.034 8.40866 328.162 8.44875 326.86 8.53895V0.280762H334.817V1.91436H328.563V6.88531C329.185 6.84522 329.656 6.8352 329.976 6.8352C331.72 6.8352 333.083 7.27617 334.075 8.14809C335.068 9.02001 335.559 10.2527 335.559 11.8362C335.559 13.4197 335.028 14.7827 333.955 15.7348C332.883 16.6869 331.48 17.1579 329.736 17.1579C328.202 17.1579 327.07 16.9274 326.338 16.4764V14.5321Z" fill="#CCCCCC"/>
<path d="M0 53.6383C0 47.7754 0.952097 43.3457 2.86631 40.329C4.77051 37.3124 7.52658 35.8091 11.1345 35.8091C18.0397 35.8091 21.4873 41.4816 21.4873 52.8266C21.4873 58.3387 20.5452 62.6081 18.6511 65.6147C16.7569 68.6213 14.0008 70.1247 10.3829 70.1247C7.00543 70.1247 4.43978 68.6815 2.66587 65.7951C0.891965 62.9088 0.0100221 58.8598 0.0100221 53.6383H0ZM3.64803 53.4479C3.64803 62.538 6.02327 67.0779 10.7637 67.0779C15.5041 67.0779 17.8192 62.4678 17.8192 53.2475C17.8192 44.0272 15.5242 38.8658 10.9341 38.8658C6.07338 38.8658 3.64803 43.7265 3.64803 53.4379V53.4479Z" fill="#CCCCCC"/>
<path d="M46.6931 37.4127L33.444 69.5635H29.7558L42.2333 39.6175H25.4062V36.3604H46.6931V37.4127Z" fill="#CCCCCC"/>
<path d="M51.4434 67.5693C51.4434 66.8677 51.6939 66.2764 52.195 65.7753C52.6961 65.2842 53.2774 65.0337 53.9288 65.0337C54.5803 65.0337 55.2016 65.2842 55.6827 65.7753C56.1638 66.2664 56.4143 66.8677 56.4143 67.5693C56.4143 68.2708 56.1638 68.8421 55.6727 69.3332C55.1816 69.8242 54.6003 70.0748 53.9288 70.0748C53.2574 70.0748 52.6961 69.8343 52.195 69.3532C51.6939 68.8721 51.4434 68.2808 51.4434 67.5593V67.5693Z" fill="#CCCCCC"/>
<path d="M81.0686 69.5634H61.1948V66.3263L70.8661 56.5949C74.0632 53.3678 76.0375 51.0226 76.7691 49.5794C77.5007 48.1362 77.8715 46.5928 77.8715 44.9592C77.8715 43.0049 77.3203 41.4916 76.2079 40.4393C75.0954 39.387 73.5119 38.8558 71.4374 38.8558C68.4809 38.8558 65.6346 40.1386 62.9086 42.6942V38.8758C65.4642 36.8313 68.4708 35.8091 71.9084 35.8091C74.7647 35.8091 77.0598 36.6008 78.7836 38.1843C80.5074 39.7678 81.3693 41.9225 81.3693 44.6385C81.3693 46.7231 80.798 48.7776 79.6655 50.8021C78.533 52.8266 76.3783 55.4123 73.2213 58.5692L65.4843 66.2261V66.3163H81.0686V69.5734V69.5634Z" fill="#CCCCCC"/>
<path d="M107.156 69.5637H88.5049V66.3666H96.0515V40.2591L88.3145 42.5943V39.1467L99.6294 35.6089V66.3666H107.156V69.5637Z" fill="#CCCCCC"/>
<path d="M285.358 53.6383C285.358 47.7754 286.31 43.3457 288.224 40.329C290.138 37.3124 292.884 35.8091 296.492 35.8091C303.398 35.8091 306.845 41.4816 306.845 52.8266C306.845 58.3387 305.903 62.6081 304.009 65.6147C302.115 68.6213 299.359 70.1247 295.741 70.1247C292.363 70.1247 289.798 68.6815 288.024 65.7951C286.25 62.9088 285.368 58.8598 285.368 53.6383H285.358ZM289.006 53.4479C289.006 62.538 291.381 67.0779 296.122 67.0779C300.862 67.0779 303.177 62.4678 303.177 53.2475C303.177 44.0272 300.882 38.8658 296.292 38.8658C291.431 38.8658 289.006 43.7265 289.006 53.4379V53.4479Z" fill="#CCCCCC"/>
<path d="M312.798 65.5145C314.672 66.5568 316.617 67.0779 318.651 67.0779C321.668 67.0779 324.023 65.8452 325.727 63.3798C327.431 60.9144 328.272 57.4066 328.272 52.8666C328.242 52.8967 328.212 52.8967 328.192 52.8666C326.759 55.753 324.274 57.1962 320.736 57.1962C317.88 57.1962 315.544 56.214 313.73 54.2597C311.916 52.3054 311.004 49.84 311.004 46.8634C311.004 43.7065 311.977 41.0707 313.911 38.966C315.845 36.8614 318.411 35.8091 321.598 35.8091C324.785 35.8091 327.481 37.112 329.255 39.7177C331.028 42.3234 331.91 46.0717 331.91 50.9625C331.91 56.9957 330.748 61.6961 328.423 65.0635C326.098 68.4409 322.79 70.1247 318.511 70.1247C316.296 70.1247 314.392 69.7538 312.808 69.0122V65.5145H312.798ZM314.662 46.3222C314.662 48.6373 315.274 50.4914 316.486 51.8845C317.699 53.2776 319.373 53.9791 321.498 53.9791C323.382 53.9791 324.945 53.3577 326.178 52.105C327.411 50.8522 328.032 49.3389 328.032 47.575C328.032 45.0995 327.411 43.035 326.178 41.3713C324.945 39.7077 323.291 38.8758 321.237 38.8758C319.313 38.8758 317.729 39.5974 316.496 41.0506C315.264 42.5038 314.652 44.2677 314.652 46.3323L314.662 46.3222Z" fill="#CCCCCC"/>
<path d="M336.812 67.5693C336.812 66.8677 337.062 66.2764 337.563 65.7753C338.064 65.2742 338.646 65.0337 339.297 65.0337C339.948 65.0337 340.57 65.2842 341.051 65.7753C341.532 66.2664 341.782 66.8677 341.782 67.5693C341.782 68.2708 341.532 68.8421 341.041 69.3332C340.55 69.8242 339.968 70.0748 339.297 70.0748C338.625 70.0748 338.064 69.8343 337.563 69.3532C337.062 68.8721 336.812 68.2808 336.812 67.5593V67.5693Z" fill="#CCCCCC"/>
<path d="M347.354 64.372C349.63 66.176 352.185 67.0679 355.031 67.0679C357.316 67.0679 359.181 66.4867 360.614 65.3341C362.047 64.1716 362.768 62.578 362.768 60.5536C362.768 56.1238 359.642 53.9089 353.398 53.9089H350.652V50.8422H353.268C358.81 50.8422 361.586 48.7676 361.586 44.6285C361.586 40.78 359.471 38.8658 355.242 38.8658C352.897 38.8658 350.702 39.6776 348.637 41.2912V37.7133C350.752 36.4405 353.257 35.8091 356.144 35.8091C358.77 35.8091 360.944 36.5307 362.668 37.9738C364.392 39.417 365.254 41.3312 365.254 43.7165C365.254 48.0561 363.029 50.8723 358.589 52.1651V52.2553C360.944 52.4557 362.849 53.2876 364.282 54.7408C365.715 56.204 366.437 58.018 366.437 60.1828C366.437 63.2094 365.344 65.6247 363.169 67.4287C360.995 69.2327 358.208 70.1247 354.821 70.1247C351.704 70.1247 349.219 69.5334 347.365 68.3507V64.382L347.354 64.372Z" fill="#CCCCCC"/>
<path d="M371.809 53.6383C371.809 47.7754 372.761 43.3457 374.675 40.329C376.589 37.3124 379.335 35.8091 382.943 35.8091C389.848 35.8091 393.296 41.4816 393.296 52.8266C393.296 58.3387 392.354 62.6081 390.46 65.6147C388.566 68.6213 385.809 70.1247 382.191 70.1247C378.814 70.1247 376.248 68.6815 374.474 65.7951C372.701 62.9088 371.819 58.8598 371.819 53.6383H371.809ZM375.457 53.4479C375.457 62.538 377.832 67.0779 382.572 67.0779C387.313 67.0779 389.628 62.4678 389.628 53.2475C389.628 44.0272 387.333 38.8658 382.743 38.8658C377.882 38.8658 375.457 43.7265 375.457 53.4379V53.4479Z" fill="#CCCCCC"/>
<path d="M125.336 54.1494H265.675" stroke="#CCCCCC" stroke-width="1.46" stroke-miterlimit="10"/>
</svg>
