<svg width="27" height="28" viewBox="0 0 27 28" fill="none" xmlns="http://www.w3.org/2000/svg">
<g clip-path="url(#clip0_79_6926)">
<path d="M0.590002 14.14L5.7 9.21998L5.52 1.95998C5.52 1.55998 5.62 1.20998 5.8 0.899982C6.29 0.0899822 7.33 -0.290018 8.22 0.239982L13.73 3.51998L14.21 3.79998L19.29 1.85998L20.71 1.31998C22.03 0.819982 23.36 2.02998 23.07 3.47998L21.66 10.6L25.86 16.33C26.72 17.5 26.02 19.21 24.63 19.38L22.79 19.6L17.78 20.21L17.63 20.44L13.88 26.22C13.27 27.17 12.08 27.28 11.31 26.67C11.08 26.49 10.88 26.25 10.75 25.95L7.92 19.35L1.31 17.34C-0.0399977 16.93 -0.429998 15.12 0.610002 14.12L0.590002 14.14Z" fill="white"/>
</g>
<defs>
<clipPath id="clip0_79_6926">
<rect width="26.23" height="27.07" fill="white"/>
</clipPath>
</defs>
</svg>
