<svg width="402" height="228" viewBox="0 0 402 228" fill="none" xmlns="http://www.w3.org/2000/svg">
<path d="M385.038 25.3131H18.5293C8.84636 25.3131 1 33.1595 1 42.8424V210.468C1 219.346 8.1977 226.544 17.0757 226.544H386.902C394.685 226.544 401 220.233 401 212.446V41.2715C401 32.4561 393.853 25.3131 385.042 25.3131H385.038Z" fill="#FFE3A3" stroke="black" stroke-width="1.97722" stroke-miterlimit="10"/>
<path d="M384.256 39.2708H17.7401C17.1617 39.2708 16.6929 39.7397 16.6929 40.3181V211.535C16.6929 212.113 17.1617 212.582 17.7401 212.582H384.256C384.835 212.582 385.304 212.113 385.304 211.535V40.3181C385.304 39.7397 384.835 39.2708 384.256 39.2708Z" fill="#FFE3A3"/>
<path d="M216.365 208.561H352.937C353.5 208.561 353.969 208.12 353.988 207.557C354.508 189.536 369.005 175.007 387.019 174.433C387.582 174.413 388.023 173.944 388.023 173.382V78.4753C388.023 77.9126 387.582 77.4398 387.019 77.4242C368.669 76.8419 353.973 61.7822 353.973 43.2956H353.609V42.7681H48.0235C47.4452 42.7681 46.9763 43.237 46.9763 43.8153V51.5953C46.9763 51.689 46.9646 51.7789 46.9411 51.8688C43.225 66.2329 30.3888 76.9357 14.9774 77.4242C14.4186 77.4437 13.9771 77.9126 13.9771 78.4714V173.386C13.9771 173.944 14.4186 174.413 14.9774 174.433C30.3888 174.921 43.225 185.624 46.9411 199.988C46.9646 200.078 46.9763 200.168 46.9763 200.262V207.229C46.9763 207.807 47.4452 208.276 48.0235 208.276C48.0235 208.37 48.0235 208.468 48.0235 208.561H185.632" fill="url(#paint0_linear_35_7638)"/>
<path d="M379.704 62.5364C384.7 62.5364 388.75 58.4864 388.75 53.4904C388.75 48.4944 384.7 44.4444 379.704 44.4444C374.708 44.4444 370.658 48.4944 370.658 53.4904C370.658 58.4864 374.708 62.5364 379.704 62.5364Z" fill="black"/>
<path d="M379.704 207.268C384.7 207.268 388.75 203.218 388.75 198.222C388.75 193.226 384.7 189.176 379.704 189.176C374.708 189.176 370.658 193.226 370.658 198.222C370.658 203.218 374.708 207.268 379.704 207.268Z" fill="black"/>
<path d="M21.8743 207.268C26.8703 207.268 30.9203 203.218 30.9203 198.222C30.9203 193.226 26.8703 189.176 21.8743 189.176C16.8784 189.176 12.8284 193.226 12.8284 198.222C12.8284 203.218 16.8784 207.268 21.8743 207.268Z" fill="black"/>
<path d="M21.8743 61.8643C26.8703 61.8643 30.9203 57.8143 30.9203 52.8183C30.9203 47.8224 26.8703 43.7723 21.8743 43.7723C16.8784 43.7723 12.8284 47.8224 12.8284 52.8183C12.8284 57.8143 16.8784 61.8643 21.8743 61.8643Z" fill="black"/>
<path d="M323.967 171.619C322.915 176 321.114 179.325 318.637 181.908C320.469 182.791 322.509 183.502 324.783 183.979C323.697 184.999 322.306 186.968 321.626 188.258C318.941 187.511 316.601 186.456 314.565 185.132C312.494 186.355 310.118 187.304 307.504 188.051C307.062 187 306.215 185.401 305.402 184.319C305.265 185.608 304.925 186.527 304.077 187.136C302.991 187.918 301.631 188.051 299.697 188.051C299.595 186.796 299.083 184.655 298.544 183.436C299.326 183.471 300.24 183.471 300.58 183.471C300.92 183.471 301.021 183.334 301.021 182.959V177.664C300.443 178.071 299.834 178.446 299.255 178.817L298.235 176.168C298.032 180.447 297.524 185.03 296.371 188.32C295.488 187.609 293.484 186.523 292.397 186.148C293.96 181.498 294.027 174.64 294.027 169.681V157.22H305.433V166.692C308.692 165.027 309.032 162.89 309.032 160.885V157.251H321.184V164.484C321.184 165.469 321.22 165.875 321.626 165.875H322.646C323.154 165.875 324.002 165.774 324.443 165.602C324.545 166.79 324.646 168.388 324.783 169.474C324.24 169.713 323.423 169.748 322.712 169.748H321.118C317.316 169.748 316.57 168.118 316.57 164.418V161.804H313.483C313.346 164.996 312.158 168.392 307.813 170.428C307.371 169.748 306.316 168.595 305.437 167.743V183.698C307.375 183.256 309.137 182.647 310.7 181.834C309.173 180.134 307.848 178.2 306.762 175.992L309.239 175.246H306.285V170.662H319.934L320.817 170.494L323.974 171.616L323.967 171.619ZM298.403 169.65C298.403 170.975 298.403 172.467 298.333 173.995C299.15 173.792 300.033 173.487 301.018 173.182V169.619L299.658 170.74C299.353 170.299 298.911 169.689 298.403 169.076V169.654V169.65ZM298.403 161.671V165.305L299.251 164.695C299.826 165.238 300.439 165.883 301.018 166.497V161.675H298.403V161.671ZM311.337 175.253C312.154 176.715 313.236 178.004 314.561 179.192C315.784 178.04 316.769 176.746 317.582 175.253H311.333H311.337Z" fill="#FDDFAC" stroke="black" stroke-width="5.66204" stroke-linecap="round" stroke-linejoin="round"/>
<path opacity="0.17" d="M201.074 193.213C238.569 193.213 268.964 162.817 268.964 125.323C268.964 87.8284 238.569 57.4331 201.074 57.4331C163.58 57.4331 133.185 87.8284 133.185 125.323C133.185 162.817 163.58 193.213 201.074 193.213Z" fill="#757575"/>
<path opacity="0.17" d="M334.408 151.011C348.595 151.011 360.096 139.51 360.096 125.323C360.096 111.136 348.595 99.6346 334.408 99.6346C320.221 99.6346 308.72 111.136 308.72 125.323C308.72 139.51 320.221 151.011 334.408 151.011Z" fill="#757575"/>
<path opacity="0.17" d="M53.0642 151.011C67.2514 151.011 78.7524 139.51 78.7524 125.323C78.7524 111.136 67.2514 99.6346 53.0642 99.6346C38.877 99.6346 27.376 111.136 27.376 125.323C27.376 139.51 38.877 151.011 53.0642 151.011Z" fill="#757575"/>
<g style="mix-blend-mode:soft-light" opacity="0.2">
<path d="M332.61 28.0367L226.087 226.474H186.519L287.881 26.5284C287.881 26.5284 331.086 26.5166 332.61 28.0367Z" fill="white"/>
</g>
<g style="mix-blend-mode:soft-light" opacity="0.2">
<path d="M230.705 27.1575L124.182 225.594H45.4641L146.826 25.6491C146.826 25.6491 229.185 25.6374 230.709 27.1575H230.705Z" fill="white"/>
</g>
<g opacity="0.71">
<path d="M72.7934 6.83034L335.24 6.81471C337.815 6.81471 339.351 9.47966 337.913 11.4608L324.307 30.217C323.58 31.2173 323.576 32.5264 324.299 33.5345L338.569 53.3927C339.992 55.3738 338.46 58.027 335.889 58.027L71.9337 58.0192C69.4056 58.0192 67.8621 55.4402 69.2063 53.4552L82.7225 33.4525C83.375 32.4873 83.375 31.2642 82.7303 30.2952L70.0581 11.3905C68.7256 9.40542 70.2691 6.83425 72.7934 6.83425V6.83034Z" fill="#F4C989"/>
<path d="M335.893 59.0938H71.9377C70.3239 59.0899 68.8899 58.3084 68.1083 56.9994C67.3268 55.6904 67.3698 54.1508 68.2256 52.8808L81.7418 32.8781C82.156 32.2646 82.156 31.4714 81.7418 30.8579L69.0696 11.9532C68.2178 10.6832 68.1787 9.14757 68.9641 7.84245C69.7456 6.53733 71.1797 5.75973 72.7896 5.75973L335.236 5.74409C336.858 5.74409 338.339 6.56859 339.101 7.89325C339.863 9.2179 339.773 10.8161 338.87 12.0626L325.264 30.8188C324.795 31.4636 324.795 32.2959 325.26 32.9406L339.531 52.7988C340.425 54.0453 340.507 55.6396 339.745 56.9603C338.983 58.2811 337.502 59.1017 335.889 59.1017L335.893 59.0938ZM72.7935 7.90497C72.0354 7.90497 71.3633 8.27228 70.9921 8.88576C70.6248 9.49925 70.6443 10.2221 71.0429 10.82L83.7151 29.7247C84.5904 31.0298 84.5865 32.714 83.7073 34.0152L70.1911 54.0179C69.7886 54.6158 69.7651 55.3387 70.1364 55.9561C70.5037 56.5735 71.1797 56.9408 71.9377 56.9408H335.889V56.9447C336.662 56.9447 337.338 56.5696 337.702 55.9365C338.065 55.3074 338.03 54.5728 337.6 53.9789L323.33 34.1207C322.345 32.7492 322.349 30.979 323.342 29.6114L336.948 10.8552C337.377 10.2612 337.42 9.5266 337.057 8.89358C336.694 8.26056 336.014 7.88152 335.24 7.88152L72.7935 7.89715V7.90497Z" fill="#F4C989"/>
<path d="M322.72 13.4849H85.1062V16.2358H322.72V13.4849Z" fill="#F4C989"/>
<path d="M322.72 49.0592H85.1062V51.8101H322.72V49.0592Z" fill="#F4C989"/>
</g>
<path d="M72.7934 1.08237L335.24 1.06674C337.815 1.06674 339.351 3.73169 337.913 5.71282L324.307 24.469C323.58 25.4694 323.576 26.7784 324.299 27.7866L338.569 47.6447C339.992 49.6258 338.46 52.2791 335.889 52.2791L71.9337 52.2712C69.4056 52.2712 67.8621 49.6923 69.2063 47.7072L82.7225 27.7045C83.375 26.7393 83.375 25.5163 82.7303 24.5472L70.0581 5.64248C68.7256 3.65745 70.2691 1.08628 72.7934 1.08628V1.08237Z" fill="url(#paint1_linear_35_7638)"/>
<path d="M335.893 53.3497H71.9377C70.3239 53.3458 68.8899 52.5643 68.1083 51.2553C67.3268 49.9463 67.3698 48.4067 68.2256 47.1367L81.7418 27.134C82.156 26.5205 82.156 25.7273 81.7418 25.1138L69.0696 6.20909C68.2178 4.93913 68.1787 3.40347 68.9641 2.09835C69.7456 0.793225 71.1797 0.0156226 72.7896 0.0156226L335.236 -7.62939e-06C336.858 -7.62939e-06 338.339 0.824485 339.101 2.14914C339.863 3.4738 339.773 5.07199 338.87 6.3185L325.264 25.0747C324.795 25.7195 324.795 26.5518 325.26 27.1965L339.531 47.0547C340.425 48.3012 340.507 49.8955 339.745 51.2162C338.983 52.537 337.502 53.3576 335.889 53.3576L335.893 53.3497ZM72.7935 2.15696C72.0354 2.15696 71.3633 2.52427 70.9921 3.13775C70.6248 3.75124 70.6443 4.47413 71.0429 5.07199L83.7151 23.9767C84.5904 25.2818 84.5865 26.966 83.7073 28.2672L70.1911 48.2699C69.7886 48.8678 69.7651 49.5907 70.1364 50.2081C70.5037 50.8255 71.1797 51.1928 71.9377 51.1928H335.889V51.1967C336.662 51.1967 337.338 50.8216 337.702 50.1885C338.065 49.5594 338.03 48.8248 337.6 48.2309L323.33 28.3727C322.345 27.0011 322.349 25.231 323.342 23.8634L336.948 5.10716C337.377 4.51321 337.42 3.77859 337.057 3.14557C336.694 2.51255 336.014 2.13351 335.24 2.13351L72.7935 2.14914V2.15696Z" fill="#070707"/>
<path d="M114.589 26.3447C114.295 25.8328 113.909 25.2271 113.448 24.6175C101.049 25.1529 99.1303 25.1998 97.6688 25.6882C97.4969 25.0083 96.9147 23.2577 96.5005 22.3082C97.2312 22.1363 97.7626 21.6986 98.5676 20.9484C99.396 20.1942 101.948 17.3026 103.479 14.4345L107.055 15.9662C105.668 17.9825 103.968 19.9754 102.241 21.6791L110.869 21.4602C110.04 20.5107 109.216 19.612 108.438 18.8109L111.185 16.9627C113.322 19.0766 116.265 22.0933 117.578 24.1565L114.589 26.3447ZM98.1807 27.0754H115.147V38.0869H111.33V36.8951H101.799V38.0869H98.1768V27.0754H98.1807ZM101.803 30.4554V33.4955H111.334V30.4554H101.803Z" fill="white" stroke="black" stroke-width="4.26704" stroke-linecap="round" stroke-linejoin="round"/>
<path d="M127.038 30.94C126.843 30.5023 126.553 29.9436 126.237 29.3613V38.1143H122.81V30.8697C122.204 32.2295 121.521 33.4955 120.794 34.4451C120.477 33.4252 119.723 31.9403 119.188 31.0416C120.477 29.5098 121.739 27.0793 122.568 24.8911H119.797V21.6088H122.81V19.4205C121.958 19.5417 121.134 19.6394 120.356 19.7136C120.235 18.9595 119.774 17.7442 119.407 17.0135C122.009 16.6501 124.826 15.9936 126.675 15.216L129.007 17.9396C128.156 18.2561 127.21 18.5218 126.237 18.7406V21.6088H128.281V21.1946H133.556V20.6358H129.422V18.6664H133.556V18.0842H129.058V16.0171H133.556V15.0206H137.08V16.0171H141.871V18.0842H137.08V18.6664H141.359V20.6358H137.08V21.1946H142.309V23.332H128.453V24.8872H126.241V25.278C127.042 26.0087 128.648 27.7085 129.035 28.1695L127.042 30.94H127.038ZM139.069 34.1481C140.406 34.9765 141.863 35.8987 142.766 36.5043L139.702 38.1338C138.827 37.4031 137.174 36.1644 135.814 35.2656L137.37 34.1481H133.482L135.111 35.2656C133.603 36.4067 131.149 37.5985 129.179 38.2315C128.667 37.5985 127.722 36.6528 127.042 36.0433C128.499 35.6291 130.152 34.8749 131.395 34.1481H129.742V23.9142H141.238V34.1481H139.073H139.069ZM132.895 26.712H137.905V26.0087H132.895V26.712ZM132.895 29.3848H137.905V28.6541H132.895V29.3848ZM132.895 32.0576H137.905V31.3268H132.895V32.0576Z" fill="white" stroke="black" stroke-width="4.26704" stroke-linecap="round" stroke-linejoin="round"/>
<path d="M153.098 25.0083C151.3 25.4694 149.526 25.9071 147.967 26.2705L147.311 24.3987H144.321V18.7602H153.484V18.1037H145.415V15.8412H165.008V18.1037H156.939V18.7602H166.297V24.3987H163.16L162.675 26.1259C161.386 25.6648 158.857 25.0318 157.036 24.7387L157.669 22.8201C157.888 22.8435 158.084 22.867 158.326 22.8943L157.451 21.5814C158.06 21.4603 158.81 21.2414 159.541 20.9992H156.939V25.7859H153.488V20.9992H150.839C151.617 21.1711 152.371 21.3626 152.883 21.558L152.082 23.2109L152.98 23.0897L153.102 25.0122L153.098 25.0083ZM162.554 35.1445C163.722 35.1445 163.965 34.8045 164.133 32.9563C164.836 33.4408 166.149 33.8785 167.052 34.0504C166.661 36.9928 165.715 37.7938 162.847 37.7938H158.033C154.434 37.7938 153.367 37.0162 153.293 34.3903H150.034V35.3633H146.654V26.2705H163.816V34.3903H156.693C156.739 35.0468 157.107 35.1445 158.369 35.1445H162.55H162.554ZM147.678 23.8165C148.795 23.6954 150.183 23.5 151.64 23.2812C150.667 22.9647 149.186 22.5505 148.041 22.3082L148.745 20.9953H147.674V23.8165H147.678ZM150.038 28.5837V29.3379H153.297V28.5837H150.038ZM150.038 32.0849H153.297V31.3542H150.038V32.0849ZM160.319 28.5837H156.673V29.3379H160.319V28.5837ZM160.319 32.0849V31.3542H156.673V32.0849H160.319ZM162.773 20.9992H161.8L162.652 22.1402C161.632 22.5309 160.389 22.8435 159.322 23.0624C160.561 23.2812 161.827 23.5469 162.773 23.84V20.9953V20.9992Z" fill="white" stroke="black" stroke-width="4.26704" stroke-linecap="round" stroke-linejoin="round"/>
<path d="M190.586 26.1532C189.832 29.291 188.543 31.6707 186.769 33.519C188.082 34.152 189.539 34.66 191.169 34.9999C190.391 35.7306 189.395 37.1374 188.906 38.0635C186.984 37.5281 185.307 36.774 183.85 35.8283C182.369 36.7036 180.665 37.3835 178.793 37.9189C178.477 37.1647 177.871 36.0237 177.285 35.2461C177.187 36.1683 176.945 36.8248 176.336 37.2624C175.558 37.8212 174.585 37.9189 173.202 37.9189C173.127 37.0201 172.764 35.4884 172.373 34.6131C172.932 34.6365 173.589 34.6365 173.831 34.6365C174.073 34.6365 174.147 34.5388 174.147 34.2731V30.4789C173.733 30.772 173.295 31.0377 172.881 31.3073L172.151 29.4121C172.006 32.4757 171.639 35.758 170.814 38.1143C170.181 37.6024 168.747 36.8248 167.969 36.559C169.087 33.2298 169.138 28.318 169.138 24.77V15.849H177.305V22.6325C179.637 21.4407 179.88 19.909 179.88 18.4749V15.8725H188.582V21.05C188.582 21.7533 188.605 22.0464 188.898 22.0464H189.629C189.992 22.0464 190.602 21.9722 190.919 21.851C190.993 22.7029 191.063 23.8439 191.161 24.6215C190.77 24.7895 190.188 24.8169 189.68 24.8169H188.539C185.815 24.8169 185.28 23.6485 185.28 20.9992V19.1275H183.068C182.971 21.4134 182.119 23.8439 179.008 25.3014C178.692 24.8169 177.938 23.9885 177.305 23.3828V34.8085C178.692 34.492 179.954 34.0543 181.071 33.4721C179.977 32.2568 179.028 30.8697 178.25 29.291L180.024 28.7557H177.91V25.4733H187.683L188.316 25.3522L190.579 26.1532H190.586ZM172.28 24.7426C172.28 25.6922 172.28 26.7589 172.233 27.853C172.815 27.7085 173.448 27.4896 174.151 27.2708V24.7192L173.178 25.5202C172.959 25.2037 172.643 24.7661 172.28 24.3284V24.7426ZM172.28 19.0298V21.6322L172.885 21.1946C173.299 21.5853 173.737 22.0464 174.151 22.4841V19.0337H172.28V19.0298ZM181.544 28.7518C182.127 29.7951 182.904 30.7212 183.854 31.573C184.729 30.7446 185.432 29.8224 186.018 28.7518H181.544Z" fill="white" stroke="black" stroke-width="4.26704" stroke-linecap="round" stroke-linejoin="round"/>
<path d="M215.044 32.3037H205.611V38.1377H202.11V32.3037H197.538L200.625 33.3744C199.289 35.1015 197.147 36.8248 195.326 37.8485C194.744 37.2155 193.478 36.0511 192.724 35.5157C194.498 34.7381 196.323 33.5229 197.343 32.3076H192.822V29.5606H215.04V32.3076L215.044 32.3037ZM199.609 18.471H193.216V15.724H214.559V18.471H207.948V19.4205H213.223V25.6179H194.627V19.4205H199.609V18.471ZM195.694 28.9003V26.2744H212.125V28.9003H195.694ZM197.882 23.1366H199.609V21.8706H197.882V23.1366ZM204.638 18.471H202.841V19.4205H204.638V18.471ZM202.841 23.1366H204.638V21.8706H202.841V23.1366ZM212.004 37.8446C210.933 36.7505 208.577 35.1211 206.752 34.0504L209.354 32.2998C211.128 33.2494 213.559 34.7538 214.825 35.8987L212.004 37.8446ZM207.944 21.8745V23.1405H209.718V21.8745H207.944Z" fill="white" stroke="black" stroke-width="4.26704" stroke-linecap="round" stroke-linejoin="round"/>
<path d="M239.548 16.4274V19.3932H235.684C236.168 19.8543 236.633 20.3427 236.899 20.7296L235.465 21.9683H238.552V24.9341H230.022V25.9071H236.973V28.5564H219.35V25.9071H226.352V24.9341H217.967V21.9683H223.558C223.047 21.386 222.343 20.7022 221.734 20.1942L222.632 19.3932H221.101C220.397 20.3427 219.62 21.218 218.866 21.8745C218.381 21.2688 217.236 20.0028 216.556 19.444C218.014 18.3264 219.424 16.5251 220.202 14.7784L223.289 15.7279C223.191 15.9702 223.07 16.189 222.949 16.4313H227.833V19.3971H225.11C225.547 19.7879 225.934 20.1747 226.204 20.4912L224.625 21.9722H226.352V20.9758H228.345C227.908 20.6592 227.517 20.3701 227.204 20.1747C228.541 18.8852 229.686 16.7947 230.291 14.7784L233.499 15.5794C233.402 15.8725 233.304 16.1382 233.206 16.4313H239.552L239.548 16.4274ZM234.738 29.8459H239.212V32.6906H234.738V35.0742C234.738 36.6294 234.375 37.3367 233.206 37.7001C232.038 38.0635 230.506 38.0635 228.541 38.0635C228.443 37.1882 228.08 36.0941 227.712 35.2696C228.662 35.3438 230.217 35.3438 230.557 35.3165C230.92 35.3165 231.069 35.2188 231.069 34.9023V32.6906H224.625C225.575 33.5424 226.595 34.4881 227.177 35.1719L224.551 37.2155C223.848 36.266 222.265 34.7108 221.124 33.6167L222.39 32.6945H217.31V29.8498H231.069V28.9511H234.738V29.8498V29.8459ZM233.933 21.9722C233.472 21.39 232.839 20.7335 232.327 20.2216L233.347 19.3932H231.815C231.256 20.3662 230.647 21.2649 230.041 21.9683H233.929L233.933 21.9722Z" fill="white" stroke="black" stroke-width="4.26704" stroke-linecap="round" stroke-linejoin="round"/>
<path d="M264.033 34.8554V37.7977H247.504V34.8554H249.497V21.4134H253.701C253.799 20.9992 253.873 20.5381 253.92 20.077H248.598V17.1854C248.039 18.5726 247.406 19.9793 246.703 21.343V38.0908H243.444V26.544C243.127 26.9347 242.834 27.3216 242.522 27.6616C242.205 26.7863 241.283 24.8169 240.724 23.9416C242.717 21.8041 244.64 18.471 245.757 15.1183L248.989 16.1616C248.868 16.4782 248.77 16.7673 248.649 17.0838H254.287C254.362 16.3805 254.409 15.724 254.432 15.091L258.152 15.1652C258.054 15.7982 257.957 16.4547 257.836 17.0877H263.595V20.077H257.226C257.128 20.5381 257.007 20.9992 256.909 21.4134H262.357V34.8554H264.033ZM252.584 23.9416V24.8638H259.121V23.9416H252.584ZM259.121 27.2474H252.584V28.1969H259.121V27.2474ZM252.584 30.5023V31.4753H259.121V30.5023H252.584ZM252.584 34.8554H259.121V33.8355H252.584V34.8554Z" fill="white" stroke="black" stroke-width="4.26704" stroke-linecap="round" stroke-linejoin="round"/>
<path d="M274.802 32.3037C271.738 33.2259 268.409 34.1754 265.807 34.9296L264.931 31.6004C265.881 31.405 267.045 31.1158 268.284 30.8228V26.5206H265.756V23.289H268.284V19.569H265.584V16.3101H274.239V19.569H271.688V23.289H273.973V26.5206H271.688V29.924C272.563 29.7052 273.462 29.4629 274.337 29.2207L274.798 32.3076L274.802 32.3037ZM285.329 34.9999C285.669 34.9999 285.766 34.6092 285.813 32.206C286.47 32.7414 287.88 33.2767 288.756 33.4955C288.463 37.0201 287.662 38.0166 285.716 38.0166H284.16C281.632 38.0166 281.097 37.0201 281.097 34.1754V29.7521H280.124C279.761 33.7612 278.713 36.6567 273.219 38.2862C272.879 37.4109 272.004 36.0511 271.297 35.3672C275.794 34.2966 276.377 32.4757 276.67 29.7521H275.091V15.8725H287.318V29.7521H284.473V34.152C284.473 34.9296 284.52 35.0038 284.813 35.0038H285.325L285.329 34.9999ZM278.377 19.6862H283.871V18.7133H278.377V19.6862ZM278.377 23.2851H283.871V22.3121H278.377V23.2851ZM278.377 26.88H283.871V25.9305H278.377V26.88Z" fill="white" stroke="black" stroke-width="4.26704" stroke-linecap="round" stroke-linejoin="round"/>
<path d="M303.03 25.1568V27.2474H310.419V30.4086H307.454L309.372 31.0885C308.595 32.3037 307.793 33.519 307.11 34.4685H311.803V37.6766H290.557V34.4685H294.957C294.543 33.4252 293.84 32.0615 293.132 31.0182L294.59 30.4125H291.796V27.2513H299.209V25.1607H294.445V24.0432C293.57 24.4339 292.648 24.7973 291.722 25.1138C291.237 24.094 290.264 22.7302 289.365 21.8315C293.984 20.5928 298.337 18.3538 300.647 14.7315L303.999 16.2125C303.78 16.5524 303.538 16.8924 303.319 17.2089C305.676 19.1548 309.47 20.9289 313.092 21.851C312.291 22.6052 311.197 24.0393 310.662 24.938C309.665 24.598 308.669 24.2073 307.696 23.7462V25.1568H303.03ZM296.391 30.4047C297.145 31.4753 297.872 32.7609 298.189 33.687L296.415 34.4646H299.209V30.4047H296.387H296.391ZM304.437 21.9214C303.296 21.1907 302.225 20.3896 301.252 19.5612C300.353 20.4365 299.357 21.2141 298.31 21.9214H304.437ZM303.03 30.4047V34.4646H305.34L304.027 33.9293C304.632 32.9797 305.34 31.573 305.801 30.4047H303.03Z" fill="white" stroke="black" stroke-width="4.26704" stroke-linecap="round" stroke-linejoin="round"/>
<path d="M114.589 26.3447C114.295 25.8328 113.909 25.2271 113.448 24.6175C101.049 25.1529 99.1303 25.1998 97.6688 25.6882C97.4969 25.0083 96.9147 23.2577 96.5005 22.3082C97.2312 22.1363 97.7626 21.6986 98.5676 20.9484C99.396 20.1942 101.948 17.3026 103.479 14.4345L107.055 15.9662C105.668 17.9825 103.968 19.9754 102.241 21.6791L110.869 21.4602C110.04 20.5107 109.216 19.612 108.438 18.8109L111.185 16.9627C113.322 19.0766 116.265 22.0933 117.578 24.1565L114.589 26.3447ZM98.1807 27.0754H115.147V38.0869H111.33V36.8951H101.799V38.0869H98.1768V27.0754H98.1807ZM101.803 30.4554V33.4955H111.334V30.4554H101.803Z" fill="white"/>
<path d="M127.038 30.94C126.843 30.5023 126.553 29.9436 126.237 29.3613V38.1143H122.81V30.8697C122.204 32.2295 121.521 33.4955 120.794 34.4451C120.477 33.4252 119.723 31.9403 119.188 31.0416C120.477 29.5098 121.739 27.0793 122.568 24.8911H119.797V21.6088H122.81V19.4205C121.958 19.5417 121.134 19.6394 120.356 19.7136C120.235 18.9595 119.774 17.7442 119.407 17.0135C122.009 16.6501 124.826 15.9936 126.675 15.216L129.007 17.9396C128.156 18.2561 127.21 18.5218 126.237 18.7406V21.6088H128.281V21.1946H133.556V20.6358H129.422V18.6664H133.556V18.0842H129.058V16.0171H133.556V15.0206H137.08V16.0171H141.871V18.0842H137.08V18.6664H141.359V20.6358H137.08V21.1946H142.309V23.332H128.453V24.8872H126.241V25.278C127.042 26.0087 128.648 27.7085 129.035 28.1695L127.042 30.94H127.038ZM139.069 34.1481C140.406 34.9765 141.863 35.8987 142.766 36.5043L139.702 38.1338C138.827 37.4031 137.174 36.1644 135.814 35.2656L137.37 34.1481H133.482L135.111 35.2656C133.603 36.4067 131.149 37.5985 129.179 38.2315C128.667 37.5985 127.722 36.6528 127.042 36.0433C128.499 35.6291 130.152 34.8749 131.395 34.1481H129.742V23.9142H141.238V34.1481H139.073H139.069ZM132.895 26.712H137.905V26.0087H132.895V26.712ZM132.895 29.3848H137.905V28.6541H132.895V29.3848ZM132.895 32.0576H137.905V31.3268H132.895V32.0576Z" fill="white"/>
<path d="M153.098 25.0083C151.3 25.4694 149.526 25.9071 147.967 26.2705L147.311 24.3987H144.321V18.7602H153.484V18.1037H145.415V15.8412H165.008V18.1037H156.939V18.7602H166.297V24.3987H163.16L162.675 26.1259C161.386 25.6648 158.857 25.0318 157.036 24.7387L157.669 22.8201C157.888 22.8435 158.084 22.867 158.326 22.8943L157.451 21.5814C158.06 21.4603 158.81 21.2414 159.541 20.9992H156.939V25.7859H153.488V20.9992H150.839C151.617 21.1711 152.371 21.3626 152.883 21.558L152.082 23.2109L152.98 23.0897L153.102 25.0122L153.098 25.0083ZM162.554 35.1445C163.722 35.1445 163.965 34.8045 164.133 32.9563C164.836 33.4408 166.149 33.8785 167.052 34.0504C166.661 36.9928 165.715 37.7938 162.847 37.7938H158.033C154.434 37.7938 153.367 37.0162 153.293 34.3903H150.034V35.3633H146.654V26.2705H163.816V34.3903H156.693C156.739 35.0468 157.107 35.1445 158.369 35.1445H162.55H162.554ZM147.678 23.8165C148.795 23.6954 150.183 23.5 151.64 23.2812C150.667 22.9647 149.186 22.5505 148.041 22.3082L148.745 20.9953H147.674V23.8165H147.678ZM150.038 28.5837V29.3379H153.297V28.5837H150.038ZM150.038 32.0849H153.297V31.3542H150.038V32.0849ZM160.319 28.5837H156.673V29.3379H160.319V28.5837ZM160.319 32.0849V31.3542H156.673V32.0849H160.319ZM162.773 20.9992H161.8L162.652 22.1402C161.632 22.5309 160.389 22.8435 159.322 23.0624C160.561 23.2812 161.827 23.5469 162.773 23.84V20.9953V20.9992Z" fill="white"/>
<path d="M190.586 26.1532C189.832 29.291 188.543 31.6707 186.769 33.519C188.082 34.152 189.539 34.66 191.169 34.9999C190.391 35.7306 189.395 37.1374 188.906 38.0635C186.984 37.5281 185.307 36.774 183.85 35.8283C182.369 36.7036 180.665 37.3835 178.793 37.9189C178.477 37.1647 177.871 36.0237 177.285 35.2461C177.187 36.1683 176.945 36.8248 176.336 37.2624C175.558 37.8212 174.585 37.9189 173.202 37.9189C173.127 37.0201 172.764 35.4884 172.373 34.6131C172.932 34.6365 173.589 34.6365 173.831 34.6365C174.073 34.6365 174.147 34.5388 174.147 34.2731V30.4789C173.733 30.772 173.295 31.0377 172.881 31.3073L172.151 29.4121C172.006 32.4757 171.639 35.758 170.814 38.1143C170.181 37.6024 168.747 36.8248 167.969 36.559C169.087 33.2298 169.138 28.318 169.138 24.77V15.849H177.305V22.6325C179.637 21.4407 179.88 19.909 179.88 18.4749V15.8725H188.582V21.05C188.582 21.7533 188.605 22.0464 188.898 22.0464H189.629C189.992 22.0464 190.602 21.9722 190.919 21.851C190.993 22.7029 191.063 23.8439 191.161 24.6215C190.77 24.7895 190.188 24.8169 189.68 24.8169H188.539C185.815 24.8169 185.28 23.6485 185.28 20.9992V19.1275H183.068C182.971 21.4134 182.119 23.8439 179.008 25.3014C178.692 24.8169 177.938 23.9885 177.305 23.3828V34.8085C178.692 34.492 179.954 34.0543 181.071 33.4721C179.977 32.2568 179.028 30.8697 178.25 29.291L180.024 28.7557H177.91V25.4733H187.683L188.316 25.3522L190.579 26.1532H190.586ZM172.28 24.7426C172.28 25.6922 172.28 26.7589 172.233 27.853C172.815 27.7085 173.448 27.4896 174.151 27.2708V24.7192L173.178 25.5202C172.959 25.2037 172.643 24.7661 172.28 24.3284V24.7426ZM172.28 19.0298V21.6322L172.885 21.1946C173.299 21.5853 173.737 22.0464 174.151 22.4841V19.0337H172.28V19.0298ZM181.544 28.7518C182.127 29.7951 182.904 30.7212 183.854 31.573C184.729 30.7446 185.432 29.8224 186.018 28.7518H181.544Z" fill="white"/>
<path d="M215.044 32.3037H205.611V38.1377H202.11V32.3037H197.538L200.625 33.3744C199.289 35.1015 197.147 36.8248 195.326 37.8485C194.744 37.2155 193.478 36.0511 192.724 35.5157C194.498 34.7381 196.323 33.5229 197.343 32.3076H192.822V29.5606H215.04V32.3076L215.044 32.3037ZM199.609 18.471H193.216V15.724H214.559V18.471H207.948V19.4205H213.223V25.6179H194.627V19.4205H199.609V18.471ZM195.694 28.9003V26.2744H212.125V28.9003H195.694ZM197.882 23.1366H199.609V21.8706H197.882V23.1366ZM204.638 18.471H202.841V19.4205H204.638V18.471ZM202.841 23.1366H204.638V21.8706H202.841V23.1366ZM212.004 37.8446C210.933 36.7505 208.577 35.1211 206.752 34.0504L209.354 32.2998C211.128 33.2494 213.559 34.7538 214.825 35.8987L212.004 37.8446ZM207.944 21.8745V23.1405H209.718V21.8745H207.944Z" fill="white"/>
<path d="M239.548 16.4274V19.3932H235.684C236.168 19.8543 236.633 20.3427 236.899 20.7296L235.465 21.9683H238.552V24.9341H230.022V25.9071H236.973V28.5564H219.35V25.9071H226.352V24.9341H217.967V21.9683H223.558C223.047 21.386 222.343 20.7022 221.734 20.1942L222.632 19.3932H221.101C220.397 20.3427 219.62 21.218 218.866 21.8745C218.381 21.2688 217.236 20.0028 216.556 19.444C218.014 18.3264 219.424 16.5251 220.202 14.7784L223.289 15.7279C223.191 15.9702 223.07 16.189 222.949 16.4313H227.833V19.3971H225.11C225.547 19.7879 225.934 20.1747 226.204 20.4912L224.625 21.9722H226.352V20.9758H228.345C227.908 20.6592 227.517 20.3701 227.204 20.1747C228.541 18.8852 229.686 16.7947 230.291 14.7784L233.499 15.5794C233.402 15.8725 233.304 16.1382 233.206 16.4313H239.552L239.548 16.4274ZM234.738 29.8459H239.212V32.6906H234.738V35.0742C234.738 36.6294 234.375 37.3367 233.206 37.7001C232.038 38.0635 230.506 38.0635 228.541 38.0635C228.443 37.1882 228.08 36.0941 227.712 35.2696C228.662 35.3438 230.217 35.3438 230.557 35.3165C230.92 35.3165 231.069 35.2188 231.069 34.9023V32.6906H224.625C225.575 33.5424 226.595 34.4881 227.177 35.1719L224.551 37.2155C223.848 36.266 222.265 34.7108 221.124 33.6167L222.39 32.6945H217.31V29.8498H231.069V28.9511H234.738V29.8498V29.8459ZM233.933 21.9722C233.472 21.39 232.839 20.7335 232.327 20.2216L233.347 19.3932H231.815C231.256 20.3662 230.647 21.2649 230.041 21.9683H233.929L233.933 21.9722Z" fill="white"/>
<path d="M264.033 34.8554V37.7977H247.504V34.8554H249.497V21.4134H253.701C253.799 20.9992 253.873 20.5381 253.92 20.077H248.598V17.1854C248.039 18.5726 247.406 19.9793 246.703 21.343V38.0908H243.444V26.544C243.127 26.9347 242.834 27.3216 242.522 27.6616C242.205 26.7863 241.283 24.8169 240.724 23.9416C242.717 21.8041 244.64 18.471 245.757 15.1183L248.989 16.1616C248.868 16.4782 248.77 16.7673 248.649 17.0838H254.287C254.362 16.3805 254.409 15.724 254.432 15.091L258.152 15.1652C258.054 15.7982 257.957 16.4547 257.836 17.0877H263.595V20.077H257.226C257.128 20.5381 257.007 20.9992 256.909 21.4134H262.357V34.8554H264.033ZM252.584 23.9416V24.8638H259.121V23.9416H252.584ZM259.121 27.2474H252.584V28.1969H259.121V27.2474ZM252.584 30.5023V31.4753H259.121V30.5023H252.584ZM252.584 34.8554H259.121V33.8355H252.584V34.8554Z" fill="white"/>
<path d="M274.802 32.3037C271.738 33.2259 268.409 34.1754 265.807 34.9296L264.931 31.6004C265.881 31.405 267.045 31.1158 268.284 30.8228V26.5206H265.756V23.289H268.284V19.569H265.584V16.3101H274.239V19.569H271.688V23.289H273.973V26.5206H271.688V29.924C272.563 29.7052 273.462 29.4629 274.337 29.2207L274.798 32.3076L274.802 32.3037ZM285.329 34.9999C285.669 34.9999 285.766 34.6092 285.813 32.206C286.47 32.7414 287.88 33.2767 288.756 33.4955C288.463 37.0201 287.662 38.0166 285.716 38.0166H284.16C281.632 38.0166 281.097 37.0201 281.097 34.1754V29.7521H280.124C279.761 33.7612 278.713 36.6567 273.219 38.2862C272.879 37.4109 272.004 36.0511 271.297 35.3672C275.794 34.2966 276.377 32.4757 276.67 29.7521H275.091V15.8725H287.318V29.7521H284.473V34.152C284.473 34.9296 284.52 35.0038 284.813 35.0038H285.325L285.329 34.9999ZM278.377 19.6862H283.871V18.7133H278.377V19.6862ZM278.377 23.2851H283.871V22.3121H278.377V23.2851ZM278.377 26.88H283.871V25.9305H278.377V26.88Z" fill="white"/>
<path d="M303.03 25.1568V27.2474H310.419V30.4086H307.454L309.372 31.0885C308.595 32.3037 307.793 33.519 307.11 34.4685H311.803V37.6766H290.557V34.4685H294.957C294.543 33.4252 293.84 32.0615 293.132 31.0182L294.59 30.4125H291.796V27.2513H299.209V25.1607H294.445V24.0432C293.57 24.4339 292.648 24.7973 291.722 25.1138C291.237 24.094 290.264 22.7302 289.365 21.8315C293.984 20.5928 298.337 18.3538 300.647 14.7315L303.999 16.2125C303.78 16.5524 303.538 16.8924 303.319 17.2089C305.676 19.1548 309.47 20.9289 313.092 21.851C312.291 22.6052 311.197 24.0393 310.662 24.938C309.665 24.598 308.669 24.2073 307.696 23.7462V25.1568H303.03ZM296.391 30.4047C297.145 31.4753 297.872 32.7609 298.189 33.687L296.415 34.4646H299.209V30.4047H296.387H296.391ZM304.437 21.9214C303.296 21.1907 302.225 20.3896 301.252 19.5612C300.353 20.4365 299.357 21.2141 298.31 21.9214H304.437ZM303.03 30.4047V34.4646H305.34L304.027 33.9293C304.632 32.9797 305.34 31.573 305.801 30.4047H303.03Z" fill="white"/>
<path d="M319.934 171.702C318.883 176.083 317.082 179.412 314.601 181.995C316.437 182.878 318.473 183.593 320.751 184.066C319.665 185.086 318.27 187.055 317.59 188.348C314.905 187.602 312.561 186.547 310.525 185.222C308.454 186.445 306.074 187.395 303.46 188.145C303.019 187.094 302.171 185.496 301.354 184.41C301.217 185.699 300.877 186.617 300.029 187.227C298.943 188.008 297.583 188.145 295.649 188.145C295.547 186.891 295.035 184.749 294.492 183.526C295.274 183.562 296.188 183.562 296.532 183.562C296.876 183.562 296.974 183.425 296.974 183.05V177.751C296.395 178.157 295.782 178.533 295.207 178.908L294.187 176.258C293.984 180.541 293.476 185.125 292.32 188.419C291.437 187.704 289.432 186.617 288.346 186.246C289.909 181.592 289.975 174.731 289.975 169.772V157.303H301.389V166.779C304.652 165.114 304.992 162.973 304.992 160.968V157.334H317.152V164.571C317.152 165.556 317.187 165.962 317.594 165.962H318.614C319.122 165.962 319.973 165.86 320.415 165.688C320.517 166.88 320.618 168.475 320.755 169.561C320.212 169.799 319.395 169.834 318.68 169.834H317.082C313.276 169.834 312.53 168.205 312.53 164.501V161.886H309.439C309.302 165.079 308.114 168.478 303.765 170.514C303.323 169.834 302.268 168.678 301.385 167.83V183.796C303.323 183.354 305.09 182.745 306.649 181.928C305.121 180.228 303.796 178.29 302.71 176.083L305.191 175.336H302.237V170.749H315.894L316.777 170.581L319.938 171.702H319.934ZM294.352 169.733C294.352 171.057 294.352 172.554 294.281 174.082C295.098 173.879 295.981 173.574 296.966 173.269V169.701L295.606 170.823C295.301 170.381 294.86 169.772 294.352 169.158V169.737V169.733ZM294.352 161.75V165.384L295.2 164.774C295.774 165.317 296.387 165.962 296.966 166.575V161.75H294.352ZM307.297 175.34C308.114 176.802 309.2 178.091 310.525 179.279C311.748 178.122 312.733 176.833 313.549 175.34H307.297Z" fill="url(#paint2_linear_35_7638)"/>
<path d="M172.956 101.695L141.574 105.571C140.75 101.179 139.366 98.0801 137.428 96.2748C135.494 94.4656 133.102 93.563 130.262 93.563C125.151 93.563 121.169 96.1458 118.328 101.312C116.265 105.032 114.737 112.987 113.756 125.175C117.527 121.353 121.399 118.524 125.377 116.692C129.355 114.859 133.95 113.941 139.171 113.941C149.291 113.941 157.857 117.555 164.855 124.788C171.854 132.021 175.355 141.188 175.355 152.293C175.355 159.784 173.585 166.626 170.044 172.824C166.508 179.021 161.6 183.71 155.325 186.887C149.049 190.064 141.183 191.65 131.731 191.65C120.368 191.65 111.251 189.712 104.382 185.84C97.5087 181.963 92.0225 175.778 87.9156 167.283C83.8088 158.788 81.7573 147.538 81.7573 133.541C81.7573 113.034 86.0673 98.0136 94.6952 88.487C103.323 78.9565 115.28 74.1893 130.566 74.1893C139.605 74.1893 146.748 75.2366 151.988 77.3271C157.232 79.4176 161.581 82.4811 165.043 86.5098C168.505 90.5385 171.139 95.6027 172.944 101.695H172.956ZM114.846 152.289C114.846 158.436 116.398 163.254 119.496 166.74C122.595 170.225 126.393 171.968 130.887 171.968C135.017 171.968 138.479 170.393 141.269 167.244C144.059 164.094 145.454 159.39 145.454 153.141C145.454 146.893 144.008 141.856 141.113 138.5C138.221 135.143 134.63 133.463 130.344 133.463C126.057 133.463 122.271 135.092 119.301 138.343C116.331 141.598 114.846 146.245 114.846 152.289Z" fill="url(#paint3_linear_35_7638)"/>
<path d="M278.795 101.695L247.414 105.571C246.589 101.179 245.206 98.0801 243.268 96.2748C241.334 94.4656 238.942 93.563 236.102 93.563C230.99 93.563 227.009 96.1459 224.168 101.312C222.105 105.032 220.577 112.987 219.596 125.175C223.367 121.353 227.239 118.524 231.217 116.692C235.195 114.859 239.79 113.941 245.011 113.941C255.131 113.941 263.697 117.555 270.695 124.788C277.693 132.021 281.195 141.188 281.195 152.293C281.195 159.784 279.425 166.626 275.884 172.824C272.348 179.021 267.44 183.71 261.165 186.887C254.889 190.064 247.023 191.65 237.571 191.65C226.208 191.65 217.091 189.712 210.222 185.84C203.349 181.963 197.862 175.778 193.755 167.283C189.649 158.788 187.597 147.538 187.597 133.541C187.597 113.034 191.907 98.0137 200.535 88.4871C209.163 78.9566 221.12 74.1893 236.406 74.1893C245.444 74.1893 252.587 75.2366 257.828 77.3271C263.071 79.4176 267.421 82.4812 270.883 86.5098C274.345 90.5385 276.978 95.6027 278.784 101.695H278.795ZM220.682 152.29C220.682 158.436 222.234 163.254 225.332 166.74C228.431 170.225 232.229 171.968 236.723 171.968C240.853 171.968 244.315 170.393 247.105 167.244C249.895 164.094 251.29 159.39 251.29 153.141C251.29 146.893 249.844 141.856 246.949 138.5C244.057 135.143 240.466 133.463 236.18 133.463C231.893 133.463 228.107 135.092 225.137 138.343C222.167 141.598 220.682 146.245 220.682 152.29Z" fill="url(#paint4_linear_35_7638)"/>
<mask id="mask0_35_7638" style="mask-type:luminance" maskUnits="userSpaceOnUse" x="134" y="119" width="47" height="77">
<path d="M176.496 119.763L134.548 195.163L173.839 194.632L180.743 130.915L176.496 119.763Z" fill="white"/>
</mask>
<g mask="url(#mask0_35_7638)">
<path d="M172.967 101.73L141.586 105.606C140.761 101.214 139.378 98.1153 137.44 96.31C135.506 94.5008 133.114 93.5982 130.273 93.5982C125.162 93.5982 121.181 96.181 118.34 101.347C116.277 105.067 114.749 113.023 113.768 125.21C117.539 121.389 121.411 118.56 125.389 116.727C129.367 114.894 133.962 113.976 139.183 113.976C149.303 113.976 157.869 117.59 164.867 124.823C171.865 132.056 175.367 141.223 175.367 152.329C175.367 159.819 173.596 166.661 170.056 172.859C166.52 179.056 161.612 183.745 155.336 186.922C149.061 190.099 141.195 191.685 131.743 191.685C120.38 191.685 111.263 189.747 104.394 185.875C97.5204 181.999 92.0342 175.813 87.9273 167.318C83.8205 158.823 81.769 147.573 81.769 133.576C81.769 113.069 86.0791 98.0489 94.7069 88.5222C103.335 78.9917 115.292 74.2245 130.578 74.2245C139.616 74.2245 146.759 75.2718 151.999 77.3623C157.243 79.4528 161.592 82.5163 165.055 86.545C168.517 90.5737 171.15 95.6379 172.956 101.73H172.967ZM114.858 152.325C114.858 158.471 116.409 163.289 119.508 166.775C122.607 170.26 126.405 172.003 130.899 172.003C135.029 172.003 138.491 170.428 141.281 167.279C144.071 164.129 145.466 159.425 145.466 153.177C145.466 146.928 144.02 141.892 141.125 138.535C138.233 135.178 134.642 133.498 130.355 133.498C126.069 133.498 122.282 135.128 119.313 138.379C116.343 141.634 114.858 146.28 114.858 152.325Z" fill="url(#paint5_linear_35_7638)"/>
</g>
<g opacity="0.46">
<mask id="mask1_35_7638" style="mask-type:luminance" maskUnits="userSpaceOnUse" x="242" y="119" width="47" height="77">
<path d="M284.286 119.763L242.338 195.163L281.632 194.632L288.533 130.915L284.286 119.763Z" fill="white"/>
</mask>
<g mask="url(#mask1_35_7638)">
<path d="M278.807 101.73L247.426 105.606C246.601 101.214 245.218 98.1153 243.28 96.31C241.345 94.5008 238.954 93.5982 236.113 93.5982C231.002 93.5982 227.02 96.181 224.18 101.347C222.116 105.067 220.589 113.023 219.608 125.21C223.379 121.389 227.251 118.56 231.229 116.727C235.207 114.894 239.802 113.976 245.022 113.976C255.143 113.976 263.708 117.59 270.707 124.823C277.705 132.056 281.206 141.223 281.206 152.329C281.206 159.819 279.436 166.661 275.896 172.859C272.36 179.056 267.452 183.745 261.176 186.922C254.901 190.099 247.035 191.685 237.583 191.685C226.219 191.685 217.103 189.747 210.234 185.875C203.36 181.999 197.874 175.813 193.767 167.318C189.66 158.823 187.609 147.573 187.609 133.576C187.609 113.069 191.919 98.0489 200.547 88.5222C209.175 78.9917 221.132 74.2245 236.418 74.2245C245.456 74.2245 252.599 75.2718 257.839 77.3623C263.083 79.4528 267.432 82.5163 270.894 86.545C274.356 90.5737 276.99 95.6379 278.795 101.73H278.807ZM220.694 152.325C220.694 158.471 222.245 163.289 225.344 166.775C228.443 170.26 232.241 172.003 236.735 172.003C240.865 172.003 244.327 170.428 247.117 167.279C249.907 164.129 251.302 159.425 251.302 153.177C251.302 146.928 249.856 141.892 246.961 138.535C244.069 135.178 240.478 133.498 236.191 133.498C231.905 133.498 228.118 135.128 225.149 138.379C222.179 141.63 220.694 146.28 220.694 152.325Z" fill="url(#paint6_linear_35_7638)"/>
</g>
</g>
<path opacity="0.56" d="M103.292 192.752H64.7595C62.3532 192.752 60.4026 194.702 60.4026 197.108C60.4026 199.515 62.3532 201.465 64.7595 201.465H103.292C105.698 201.465 107.649 199.515 107.649 197.108C107.649 194.702 105.698 192.752 103.292 192.752Z" fill="#606060"/>
<path opacity="0.56" d="M340.906 192.752H302.374C299.967 192.752 298.017 194.702 298.017 197.108C298.017 199.515 299.967 201.465 302.374 201.465H340.906C343.312 201.465 345.263 199.515 345.263 197.108C345.263 194.702 343.312 192.752 340.906 192.752Z" fill="#606060"/>
<defs>
<linearGradient id="paint0_linear_35_7638" x1="13.9731" y1="125.663" x2="388.023" y2="125.663" gradientUnits="userSpaceOnUse">
<stop stop-color="#3A3A3A"/>
<stop offset="0.25" stop-color="#353535"/>
<stop offset="0.53" stop-color="#282828"/>
<stop offset="0.81" stop-color="#121212"/>
<stop offset="1"/>
</linearGradient>
<linearGradient id="paint1_linear_35_7638" x1="203.266" y1="-9.02645" x2="204.185" y2="73.54" gradientUnits="userSpaceOnUse">
<stop stop-color="#8F8F8F"/>
<stop offset="0.04" stop-color="#E8E8E8"/>
<stop offset="0.05" stop-color="#E1E1E1"/>
<stop offset="0.09" stop-color="#BFBFBF"/>
<stop offset="0.11" stop-color="#B3B3B3"/>
<stop offset="0.17" stop-color="#BBBBBB"/>
<stop offset="0.22" stop-color="#C7C7C7"/>
<stop offset="0.53" stop-color="white"/>
<stop offset="0.54" stop-color="#FBFBFB"/>
<stop offset="0.63" stop-color="#C7C7C7"/>
<stop offset="0.68" stop-color="#B3B3B3"/>
<stop offset="0.71" stop-color="#BFBFBF"/>
<stop offset="0.78" stop-color="#DEDEDE"/>
<stop offset="0.81" stop-color="#EDEDED"/>
<stop offset="1" stop-color="#999999"/>
</linearGradient>
<linearGradient id="paint2_linear_35_7638" x1="286.951" y1="157.315" x2="339.664" y2="205.631" gradientUnits="userSpaceOnUse">
<stop stop-color="#E4AB57"/>
<stop offset="0.2" stop-color="#FDF9C7"/>
<stop offset="0.31" stop-color="#F5ECB8"/>
<stop offset="0.44" stop-color="#E1CB90"/>
<stop offset="0.57" stop-color="#E1B97A"/>
<stop offset="0.71" stop-color="#E8C388"/>
<stop offset="0.88" stop-color="#FDF9C7"/>
</linearGradient>
<linearGradient id="paint3_linear_35_7638" x1="73.9696" y1="81.0588" x2="331.485" y2="316.614" gradientUnits="userSpaceOnUse">
<stop stop-color="#E4AB57"/>
<stop offset="0.2" stop-color="#FDF9C7"/>
<stop offset="0.31" stop-color="#F5ECB8"/>
<stop offset="0.44" stop-color="#E1CB90"/>
<stop offset="0.57" stop-color="#E1B97A"/>
<stop offset="0.71" stop-color="#E8C388"/>
<stop offset="0.88" stop-color="#FDF9C7"/>
</linearGradient>
<linearGradient id="paint4_linear_35_7638" x1="122.185" y1="28.3499" x2="379.7" y2="263.901" gradientUnits="userSpaceOnUse">
<stop stop-color="#E4AB57"/>
<stop offset="0.2" stop-color="#FDF9C7"/>
<stop offset="0.31" stop-color="#F5ECB8"/>
<stop offset="0.44" stop-color="#E1CB90"/>
<stop offset="0.57" stop-color="#E1B97A"/>
<stop offset="0.71" stop-color="#E8C388"/>
<stop offset="0.88" stop-color="#FDF9C7"/>
</linearGradient>
<linearGradient id="paint5_linear_35_7638" x1="73.9813" y1="81.094" x2="331.497" y2="316.645" gradientUnits="userSpaceOnUse">
<stop stop-color="white" stop-opacity="0"/>
<stop offset="1" stop-color="white"/>
</linearGradient>
<linearGradient id="paint6_linear_35_7638" x1="122.197" y1="28.3812" x2="379.712" y2="263.936" gradientUnits="userSpaceOnUse">
<stop stop-color="white" stop-opacity="0"/>
<stop offset="1" stop-color="white"/>
</linearGradient>
</defs>
</svg>
