<svg width="600" height="164" viewBox="0 0 600 164" fill="none" xmlns="http://www.w3.org/2000/svg">
<g clip-path="url(#clip0_159_3412)">
<path d="M136.483 50.5633C136.303 53.0977 136.178 55.2166 135.998 57.1555H142.77V63.443H135.264C134.835 65.9774 134.35 67.5008 133.685 68.401C132.356 70.3399 130.722 70.9354 128.672 71.2401C126.678 71.5448 123.659 71.5448 120.57 71.3647C120.515 69.7859 119.781 67.4316 118.881 65.8666C121.595 66.1021 123.963 66.1713 125.237 66.1021C126.262 66.1021 126.747 65.9774 127.356 65.1326C127.592 64.7726 127.841 64.2878 128.076 63.443H95.5448C96.265 59.87 96.999 55.3413 97.7191 50.5633H89.3681V44.1512H98.6193C99.104 40.5227 99.5334 36.7696 99.8934 33.4458C98.3839 35.3154 96.8743 37.0189 95.4202 38.5284C93.9106 37.379 90.6976 35.3154 88.9526 34.3598C94.52 29.7065 99.7827 22.0757 102.857 14.6387L109.989 16.6883C109.449 17.8932 108.84 19.1673 108.231 20.4415H143.13V26.8536H104.478C103.453 28.4878 102.428 29.9974 101.334 31.5069H137.134C137.134 31.5069 137.078 33.8059 137.078 34.6507C136.954 38.1545 136.843 41.2429 136.718 44.1512H145.429V50.5633H136.483ZM104.907 50.3141C104.547 52.7377 104.242 54.9674 103.882 57.1417H117.122C115.003 55.5075 112.344 53.8179 109.92 52.6684L112.344 50.3141H104.907ZM106.541 37.7944C106.306 39.9687 106.001 42.1431 105.696 44.3866H117.731C115.612 42.8217 113.078 41.2429 110.71 40.218L113.189 37.7944H106.541ZM128.977 57.1555C129.101 55.2166 129.281 53.0423 129.406 50.3279H116.831C119.615 51.8375 122.274 53.6517 123.908 55.1059L121.844 57.1694H128.977V57.1555ZM129.641 44.3866C129.766 42.3369 129.821 40.218 129.877 37.7944H117.593C120.252 39.1793 122.855 40.9382 124.49 42.3369L122.426 44.3866H129.628H129.641Z" stroke="black" stroke-width="27.6983" stroke-linecap="round" stroke-linejoin="round"/>
<path d="M210.382 62.2381C210.382 66.5868 209.357 68.6503 206.574 69.8552C203.665 71.1293 199.441 71.2401 193.209 71.2401C192.78 69.1212 191.34 65.6727 190.19 63.6784C194.428 63.9139 199.511 63.8585 200.84 63.8585C202.294 63.8585 202.779 63.3738 202.779 62.0996V53.3331H176.895C175.316 60.1054 172.297 66.6976 166.674 71.4201C165.58 69.9106 162.686 67.2515 161.107 66.2128C170.234 58.4158 171.092 46.8656 171.092 37.6698V17.7686H210.41V62.2243L210.382 62.2381ZM202.751 46.3947V39.0131H178.501C178.446 41.3121 178.321 43.8465 178.072 46.3947H202.751ZM178.501 24.7901V32.1717H202.751V24.7901H178.501Z" stroke="black" stroke-width="27.6983" stroke-linecap="round" stroke-linejoin="round"/>
<path d="M287.91 47.0595C286.22 52.8623 283.492 57.5848 280.043 61.3933C283.063 63.3322 286.58 64.7864 290.5 65.742C289.045 67.0715 287.176 69.6751 286.262 71.3647C281.969 70.0906 278.285 68.2764 275.072 65.8666C271.983 68.1102 268.535 69.9244 264.851 71.2539C264.131 69.7998 262.732 67.7501 261.527 66.3513V71.434H254.63V66.3513C247.678 67.0715 240.781 67.8055 235.463 68.3456L234.798 62.2381C236.433 62.1135 238.247 62.0027 240.186 61.8781V43.3756H235.463V37.6836H289.405V43.3756H261.527V65.5065C264.671 64.4817 267.579 63.0829 270.169 61.2687C267.925 58.6097 266.056 55.5767 264.602 52.1975L268.59 51.1034H262.787V45.6053H282.259L283.464 45.3699L287.882 47.0595H287.91ZM248.357 36.2295H241.46V16.7576H283.672V36.2295H276.415V21.771H248.357V36.2295ZM246.722 43.3618V45.7161H254.644V43.3618H246.722ZM246.722 53.2223H254.644V50.7434H246.722V53.2223ZM246.722 61.3933C249.257 61.1579 251.93 60.964 254.644 60.7286V58.1942H246.722V61.3933ZM274.421 28.3631H250.351V24.1253H274.421V28.3631ZM250.351 30.7175H274.241V35.1908H250.351V30.7175ZM270.612 51.1034C271.706 53.347 273.147 55.3967 274.905 57.2109C276.595 55.3967 278.049 53.347 279.199 51.1034H270.612Z" stroke="black" stroke-width="27.6983" stroke-linecap="round" stroke-linejoin="round"/>
<path d="M361.629 20.566V26.6181H308.227V20.566H331.507C331.022 19.1118 330.538 17.6023 330.053 16.3282L337.49 14.5139C338.155 16.3835 339.124 18.6271 339.844 20.566H361.615H361.629ZM360.23 64.8278C360.23 67.9716 359.441 69.2457 357.142 70.1459C354.967 70.8661 351.699 70.9353 347.53 70.8661C347.17 69.2873 346.201 67.2376 345.412 65.7834H328.114V68.3178H321.466V52.3498H347.78V65.7834H346.935C349.054 65.8388 351.173 65.8388 351.768 65.7834C352.613 65.7834 352.973 65.548 352.973 64.7586V50.12H316.868V71.3508H309.916V44.3173H360.23V64.814V64.8278ZM354.427 41.8521H316.259V28.9032H354.427V41.8521ZM346.866 33.7504H323.461V37.0742H346.866V33.7504ZM341.423 57.3908H328.114V60.8393H341.423V57.3908Z" stroke="black" stroke-width="27.6983" stroke-linecap="round" stroke-linejoin="round"/>
<path d="M435.887 57.6399H428.99V63.6227C428.99 67.2512 428.201 69.19 425.667 70.2703C423.243 71.4198 419.615 71.4751 414.532 71.4751C414.172 69.5363 413.078 66.5172 412.053 64.7029C415.377 64.883 419.254 64.8276 420.335 64.8276C421.415 64.8276 421.789 64.5229 421.789 63.498V57.626H393.301V71.4751H386.169V57.626H379.272V50.9784H386.169V28.7783H403.771V24.7897H381.751V18.1975H433.464V24.7897H410.959V28.7783H428.977V50.9784H435.873V57.626L435.887 57.6399ZM393.301 35.2596V39.9822H403.757V35.2596H393.301ZM393.301 50.9784H403.757V46.0758H393.301V50.9784ZM410.973 35.2596V39.9822H421.803V35.2596H410.973ZM421.789 50.9784V46.0758H410.959V50.9784H421.789Z" stroke="black" stroke-width="27.6983" stroke-linecap="round" stroke-linejoin="round"/>
<path d="M485.467 16.5773C485.162 16.882 484.802 17.2421 484.498 17.5468C490.3 21.2306 500.216 24.499 508.692 26.1332C507.362 27.4074 505.493 29.8171 504.634 31.4513C501.241 30.6619 497.613 29.5124 494.109 28.1829V29.7479H466.535V28.0583C463.087 29.3878 459.334 30.5927 455.65 31.5621C454.86 30.1079 453.046 27.6289 451.841 26.4795C463.087 23.7512 474.152 19.3472 479.72 13.8352L485.467 16.5635V16.5773ZM483.708 58.1801H506.933V63.0827H483.708V65.077C483.708 68.3454 482.919 69.7303 480.509 70.5751C478.155 71.4199 474.817 71.4892 470.233 71.4199C469.873 69.7303 468.848 67.4314 467.934 65.9218C470.842 66.0465 474.402 66.0464 475.246 66.0464C476.216 65.9911 476.576 65.7418 476.576 64.897V63.0827H453.406V58.1801H476.576V55.9366H457.104V51.1032H476.576V48.9843C470.828 49.2197 464.97 49.289 459.514 49.2198C459.458 47.9456 458.849 46.0206 458.309 44.8711C471.673 44.9958 487.641 44.3864 496.172 42.8768L500.826 46.7408C495.923 47.6548 489.996 48.2503 483.708 48.6104V51.0894H503.609V55.9227H483.708V58.1663V58.1801ZM499.192 42.6414H461.093V31.756H499.192V42.6414ZM492.059 35.9246H467.809V38.4036H492.059V35.9246ZM487.946 25.5793C485.107 24.1944 482.379 22.671 480.024 21.1614C477.67 22.7402 475.066 24.2498 472.283 25.5793H487.946Z" stroke="black" stroke-width="27.6983" stroke-linecap="round" stroke-linejoin="round"/>
<path d="M162.007 144.059V100.766H170.51L188.223 129.67V100.766H196.339V144.059H187.572L170.122 115.834V144.059H162.007Z" stroke="black" stroke-width="27.6983" stroke-linecap="round" stroke-linejoin="round"/>
<path d="M227.431 144.059V108.093H214.593V100.766H248.994V108.093H236.184V144.059H227.445H227.431Z" stroke="black" stroke-width="27.6983" stroke-linecap="round" stroke-linejoin="round"/>
<path d="M276.761 137.646V125.279C272.897 124.171 270.072 122.509 268.272 120.28C266.471 118.05 265.571 115.336 265.571 112.15C265.571 108.965 266.596 106.209 268.632 104.021C270.668 101.833 273.382 100.559 276.761 100.226V97.304H281.041V100.226C284.17 100.6 286.663 101.666 288.505 103.425C290.361 105.184 291.538 107.538 292.051 110.502L284.586 111.472C284.129 109.145 282.952 107.58 281.041 106.749V118.299C285.763 119.573 288.99 121.235 290.693 123.271C292.411 125.307 293.269 127.924 293.269 131.11C293.269 134.669 292.189 137.674 290.042 140.112C287.882 142.549 284.891 144.045 281.054 144.599V150.125H276.775V144.751C273.368 144.336 270.598 143.075 268.479 140.943C266.36 138.81 264.989 135.818 264.408 131.941L272.122 131.11C272.44 132.688 273.022 134.046 273.894 135.181C274.753 136.331 275.722 137.148 276.789 137.66L276.761 137.646ZM276.761 106.638C275.598 107.026 274.67 107.705 273.991 108.646C273.299 109.588 272.953 110.641 272.953 111.776C272.953 112.815 273.271 113.784 273.894 114.685C274.531 115.585 275.473 116.305 276.761 116.859V106.638ZM281.041 138.062C282.522 137.785 283.713 137.106 284.641 136.012C285.569 134.918 286.026 133.63 286.026 132.162C286.026 130.847 285.638 129.711 284.863 128.755C284.087 127.8 282.813 127.066 281.041 126.553V138.076V138.062Z" stroke="black" stroke-width="27.6983" stroke-linecap="round" stroke-linejoin="round"/>
<path d="M338.722 111.375L330.689 112.261C330.496 110.613 329.983 109.38 329.152 108.605C328.321 107.815 327.255 107.428 325.939 107.428C324.18 107.428 322.712 108.217 321.494 109.796C320.289 111.375 319.513 114.643 319.209 119.629C321.272 117.191 323.848 115.973 326.909 115.973C330.371 115.973 333.335 117.288 335.814 119.933C338.279 122.565 339.525 125.972 339.525 130.154C339.525 134.586 338.223 138.131 335.634 140.818C333.03 143.491 329.692 144.834 325.621 144.834C321.244 144.834 317.657 143.131 314.846 139.738C312.035 136.345 310.622 130.777 310.622 123.036C310.622 115.294 312.09 109.38 315.026 105.876C317.962 102.373 321.771 100.628 326.452 100.628C329.734 100.628 332.462 101.556 334.623 103.384C336.783 105.226 338.154 107.898 338.736 111.402L338.722 111.375ZM319.915 129.475C319.915 132.176 320.538 134.253 321.771 135.721C323.017 137.189 324.43 137.923 326.022 137.923C327.615 137.923 328.834 137.328 329.859 136.123C330.883 134.918 331.396 132.952 331.396 130.223C331.396 127.495 330.842 125.348 329.748 124.033C328.64 122.731 327.269 122.066 325.621 122.066C323.973 122.066 322.671 122.689 321.577 123.936C320.483 125.182 319.929 127.038 319.929 129.475H319.915Z" stroke="black" stroke-width="27.6983" stroke-linecap="round" stroke-linejoin="round"/>
<path d="M370.367 100.586C374.563 100.586 377.832 102.082 380.2 105.073C383.011 108.619 384.424 114.491 384.424 122.703C384.424 130.916 383.011 136.774 380.172 140.361C377.832 143.311 374.563 144.793 370.367 144.793C366.171 144.793 362.764 143.172 360.174 139.932C357.598 136.691 356.31 130.916 356.31 122.62C356.31 114.325 357.723 108.605 360.562 105.018C362.902 102.068 366.171 100.586 370.367 100.586ZM370.367 107.469C369.37 107.469 368.47 107.788 367.68 108.425C366.891 109.062 366.281 110.211 365.852 111.859C365.284 114.006 364.993 117.621 364.993 122.703C364.993 127.786 365.243 131.276 365.755 133.173C366.268 135.071 366.905 136.331 367.694 136.968C368.483 137.605 369.37 137.91 370.367 137.91C371.364 137.91 372.264 137.591 373.054 136.954C373.843 136.317 374.452 135.167 374.882 133.519C375.45 131.387 375.74 127.786 375.74 122.717C375.74 117.648 375.477 114.144 374.979 112.247C374.466 110.35 373.829 109.076 373.04 108.439C372.25 107.802 371.364 107.483 370.367 107.483V107.469Z" stroke="black" stroke-width="27.6983" stroke-linecap="round" stroke-linejoin="round"/>
<path d="M416.097 100.586C420.293 100.586 423.562 102.082 425.93 105.073C428.741 108.619 430.154 114.491 430.154 122.703C430.154 130.916 428.741 136.774 425.902 140.361C423.562 143.311 420.293 144.793 416.097 144.793C411.901 144.793 408.494 143.172 405.904 139.932C403.328 136.691 402.04 130.916 402.04 122.62C402.04 114.325 403.453 108.605 406.292 105.018C408.632 102.068 411.901 100.586 416.097 100.586ZM416.097 107.469C415.1 107.469 414.2 107.788 413.41 108.425C412.621 109.062 412.011 110.211 411.582 111.859C411.014 114.006 410.723 117.621 410.723 122.703C410.723 127.786 410.973 131.276 411.485 133.173C411.998 135.071 412.635 136.331 413.424 136.968C414.213 137.605 415.1 137.91 416.097 137.91C417.094 137.91 417.994 137.591 418.784 136.954C419.573 136.317 420.182 135.167 420.612 133.519C421.18 131.387 421.47 127.786 421.47 122.717C421.47 117.648 421.207 114.144 420.709 112.247C420.196 110.35 419.559 109.076 418.77 108.439C417.98 107.802 417.094 107.483 416.097 107.483V107.469Z" stroke="black" stroke-width="27.6983" stroke-linecap="round" stroke-linejoin="round"/>
<path d="M136.483 50.5633C136.303 53.0977 136.178 55.2166 135.998 57.1555H142.77V63.443H135.264C134.835 65.9774 134.35 67.5008 133.685 68.401C132.356 70.3399 130.722 70.9354 128.672 71.2401C126.678 71.5448 123.659 71.5448 120.57 71.3647C120.515 69.7859 119.781 67.4316 118.881 65.8666C121.595 66.1021 123.963 66.1713 125.237 66.1021C126.262 66.1021 126.747 65.9774 127.356 65.1326C127.592 64.7726 127.841 64.2878 128.076 63.443H95.5448C96.265 59.87 96.999 55.3413 97.7191 50.5633H89.3681V44.1512H98.6193C99.104 40.5227 99.5334 36.7696 99.8934 33.4458C98.3839 35.3154 96.8743 37.0189 95.4202 38.5284C93.9106 37.379 90.6976 35.3154 88.9526 34.3598C94.52 29.7065 99.7827 22.0757 102.857 14.6387L109.989 16.6883C109.449 17.8932 108.84 19.1673 108.231 20.4415H143.13V26.8536H104.478C103.453 28.4878 102.428 29.9974 101.334 31.5069H137.134C137.134 31.5069 137.078 33.8059 137.078 34.6507C136.954 38.1545 136.843 41.2429 136.718 44.1512H145.429V50.5633H136.483ZM104.907 50.3141C104.547 52.7377 104.242 54.9674 103.882 57.1417H117.122C115.003 55.5075 112.344 53.8179 109.92 52.6684L112.344 50.3141H104.907ZM106.541 37.7944C106.306 39.9687 106.001 42.1431 105.696 44.3866H117.731C115.612 42.8217 113.078 41.2429 110.71 40.218L113.189 37.7944H106.541ZM128.977 57.1555C129.101 55.2166 129.281 53.0423 129.406 50.3279H116.831C119.615 51.8375 122.274 53.6517 123.908 55.1059L121.844 57.1694H128.977V57.1555ZM129.641 44.3866C129.766 42.3369 129.821 40.218 129.877 37.7944H117.593C120.252 39.1793 122.855 40.9382 124.49 42.3369L122.426 44.3866H129.628H129.641Z" stroke="#E8D09E" stroke-width="20.7737" stroke-linecap="round" stroke-linejoin="round"/>
<path d="M210.382 62.2381C210.382 66.5868 209.357 68.6503 206.574 69.8552C203.665 71.1293 199.441 71.2401 193.209 71.2401C192.78 69.1212 191.34 65.6727 190.19 63.6784C194.428 63.9139 199.511 63.8585 200.84 63.8585C202.294 63.8585 202.779 63.3738 202.779 62.0996V53.3331H176.895C175.316 60.1054 172.297 66.6976 166.674 71.4201C165.58 69.9106 162.686 67.2515 161.107 66.2128C170.234 58.4158 171.092 46.8656 171.092 37.6698V17.7686H210.41V62.2243L210.382 62.2381ZM202.751 46.3947V39.0131H178.501C178.446 41.3121 178.321 43.8465 178.072 46.3947H202.751ZM178.501 24.7901V32.1717H202.751V24.7901H178.501Z" stroke="#E8D09E" stroke-width="20.7737" stroke-linecap="round" stroke-linejoin="round"/>
<path d="M287.91 47.0595C286.22 52.8623 283.492 57.5848 280.043 61.3933C283.063 63.3322 286.58 64.7864 290.5 65.742C289.045 67.0715 287.176 69.6751 286.262 71.3647C281.969 70.0906 278.285 68.2764 275.072 65.8666C271.983 68.1102 268.535 69.9244 264.851 71.2539C264.131 69.7998 262.732 67.7501 261.527 66.3513V71.434H254.63V66.3513C247.678 67.0715 240.781 67.8055 235.463 68.3456L234.798 62.2381C236.433 62.1135 238.247 62.0027 240.186 61.8781V43.3756H235.463V37.6836H289.405V43.3756H261.527V65.5065C264.671 64.4817 267.579 63.0829 270.169 61.2687C267.925 58.6097 266.056 55.5767 264.602 52.1975L268.59 51.1034H262.787V45.6053H282.259L283.464 45.3699L287.882 47.0595H287.91ZM248.357 36.2295H241.46V16.7576H283.672V36.2295H276.415V21.771H248.357V36.2295ZM246.722 43.3618V45.7161H254.644V43.3618H246.722ZM246.722 53.2223H254.644V50.7434H246.722V53.2223ZM246.722 61.3933C249.257 61.1579 251.93 60.964 254.644 60.7286V58.1942H246.722V61.3933ZM274.421 28.3631H250.351V24.1253H274.421V28.3631ZM250.351 30.7175H274.241V35.1908H250.351V30.7175ZM270.612 51.1034C271.706 53.347 273.147 55.3967 274.905 57.2109C276.595 55.3967 278.049 53.347 279.199 51.1034H270.612Z" stroke="#E8D09E" stroke-width="20.7737" stroke-linecap="round" stroke-linejoin="round"/>
<path d="M361.629 20.566V26.6181H308.227V20.566H331.507C331.022 19.1118 330.538 17.6023 330.053 16.3282L337.49 14.5139C338.155 16.3835 339.124 18.6271 339.844 20.566H361.615H361.629ZM360.23 64.8278C360.23 67.9716 359.441 69.2457 357.142 70.1459C354.967 70.8661 351.699 70.9353 347.53 70.8661C347.17 69.2873 346.201 67.2376 345.412 65.7834H328.114V68.3178H321.466V52.3498H347.78V65.7834H346.935C349.054 65.8388 351.173 65.8388 351.768 65.7834C352.613 65.7834 352.973 65.548 352.973 64.7586V50.12H316.868V71.3508H309.916V44.3173H360.23V64.814V64.8278ZM354.427 41.8521H316.259V28.9032H354.427V41.8521ZM346.866 33.7504H323.461V37.0742H346.866V33.7504ZM341.423 57.3908H328.114V60.8393H341.423V57.3908Z" stroke="#E8D09E" stroke-width="20.7737" stroke-linecap="round" stroke-linejoin="round"/>
<path d="M435.887 57.6399H428.99V63.6227C428.99 67.2512 428.201 69.19 425.667 70.2703C423.243 71.4198 419.615 71.4751 414.532 71.4751C414.172 69.5363 413.078 66.5172 412.053 64.7029C415.377 64.883 419.254 64.8276 420.335 64.8276C421.415 64.8276 421.789 64.5229 421.789 63.498V57.626H393.301V71.4751H386.169V57.626H379.272V50.9784H386.169V28.7783H403.771V24.7897H381.751V18.1975H433.464V24.7897H410.959V28.7783H428.977V50.9784H435.873V57.626L435.887 57.6399ZM393.301 35.2596V39.9822H403.757V35.2596H393.301ZM393.301 50.9784H403.757V46.0758H393.301V50.9784ZM410.973 35.2596V39.9822H421.803V35.2596H410.973ZM421.789 50.9784V46.0758H410.959V50.9784H421.789Z" stroke="#E8D09E" stroke-width="20.7737" stroke-linecap="round" stroke-linejoin="round"/>
<path d="M485.467 16.5773C485.162 16.882 484.802 17.2421 484.498 17.5468C490.3 21.2306 500.216 24.499 508.692 26.1332C507.362 27.4074 505.493 29.8171 504.634 31.4513C501.241 30.6619 497.613 29.5124 494.109 28.1829V29.7479H466.535V28.0583C463.087 29.3878 459.334 30.5927 455.65 31.5621C454.86 30.1079 453.046 27.6289 451.841 26.4795C463.087 23.7512 474.152 19.3472 479.72 13.8352L485.467 16.5635V16.5773ZM483.708 58.1801H506.933V63.0827H483.708V65.077C483.708 68.3454 482.919 69.7303 480.509 70.5751C478.155 71.4199 474.817 71.4892 470.233 71.4199C469.873 69.7303 468.848 67.4314 467.934 65.9218C470.842 66.0465 474.402 66.0464 475.246 66.0464C476.216 65.9911 476.576 65.7418 476.576 64.897V63.0827H453.406V58.1801H476.576V55.9366H457.104V51.1032H476.576V48.9843C470.828 49.2197 464.97 49.289 459.514 49.2198C459.458 47.9456 458.849 46.0206 458.309 44.8711C471.673 44.9958 487.641 44.3864 496.172 42.8768L500.826 46.7408C495.923 47.6548 489.996 48.2503 483.708 48.6104V51.0894H503.609V55.9227H483.708V58.1663V58.1801ZM499.192 42.6414H461.093V31.756H499.192V42.6414ZM492.059 35.9246H467.809V38.4036H492.059V35.9246ZM487.946 25.5793C485.107 24.1944 482.379 22.671 480.024 21.1614C477.67 22.7402 475.066 24.2498 472.283 25.5793H487.946Z" stroke="#E8D09E" stroke-width="20.7737" stroke-linecap="round" stroke-linejoin="round"/>
<path d="M162.007 144.059V100.766H170.51L188.223 129.67V100.766H196.339V144.059H187.572L170.122 115.834V144.059H162.007Z" stroke="#E8D09E" stroke-width="20.7737" stroke-linecap="round" stroke-linejoin="round"/>
<path d="M227.431 144.059V108.093H214.593V100.766H248.994V108.093H236.184V144.059H227.445H227.431Z" stroke="#E8D09E" stroke-width="20.7737" stroke-linecap="round" stroke-linejoin="round"/>
<path d="M276.761 137.646V125.279C272.897 124.171 270.072 122.509 268.272 120.28C266.471 118.05 265.571 115.336 265.571 112.15C265.571 108.965 266.596 106.209 268.632 104.021C270.668 101.833 273.382 100.559 276.761 100.226V97.304H281.041V100.226C284.17 100.6 286.663 101.666 288.505 103.425C290.361 105.184 291.538 107.538 292.051 110.502L284.586 111.472C284.129 109.145 282.952 107.58 281.041 106.749V118.299C285.763 119.573 288.99 121.235 290.693 123.271C292.411 125.307 293.269 127.924 293.269 131.11C293.269 134.669 292.189 137.674 290.042 140.112C287.882 142.549 284.891 144.045 281.054 144.599V150.125H276.775V144.751C273.368 144.336 270.598 143.075 268.479 140.943C266.36 138.81 264.989 135.818 264.408 131.941L272.122 131.11C272.44 132.688 273.022 134.046 273.894 135.181C274.753 136.331 275.722 137.148 276.789 137.66L276.761 137.646ZM276.761 106.638C275.598 107.026 274.67 107.705 273.991 108.646C273.299 109.588 272.953 110.641 272.953 111.776C272.953 112.815 273.271 113.784 273.894 114.685C274.531 115.585 275.473 116.305 276.761 116.859V106.638ZM281.041 138.062C282.522 137.785 283.713 137.106 284.641 136.012C285.569 134.918 286.026 133.63 286.026 132.162C286.026 130.847 285.638 129.711 284.863 128.755C284.087 127.8 282.813 127.066 281.041 126.553V138.076V138.062Z" stroke="#E8D09E" stroke-width="20.7737" stroke-linecap="round" stroke-linejoin="round"/>
<path d="M338.722 111.375L330.689 112.261C330.496 110.613 329.983 109.38 329.152 108.605C328.321 107.815 327.255 107.428 325.939 107.428C324.18 107.428 322.712 108.217 321.494 109.796C320.289 111.375 319.513 114.643 319.209 119.629C321.272 117.191 323.848 115.973 326.909 115.973C330.371 115.973 333.335 117.288 335.814 119.933C338.279 122.565 339.525 125.972 339.525 130.154C339.525 134.586 338.223 138.131 335.634 140.818C333.03 143.491 329.692 144.834 325.621 144.834C321.244 144.834 317.657 143.131 314.846 139.738C312.035 136.345 310.622 130.777 310.622 123.036C310.622 115.294 312.09 109.38 315.026 105.876C317.962 102.373 321.771 100.628 326.452 100.628C329.734 100.628 332.462 101.556 334.623 103.384C336.783 105.226 338.154 107.898 338.736 111.402L338.722 111.375ZM319.915 129.475C319.915 132.176 320.538 134.253 321.771 135.721C323.017 137.189 324.43 137.923 326.022 137.923C327.615 137.923 328.834 137.328 329.859 136.123C330.883 134.918 331.396 132.952 331.396 130.223C331.396 127.495 330.842 125.348 329.748 124.033C328.64 122.731 327.269 122.066 325.621 122.066C323.973 122.066 322.671 122.689 321.577 123.936C320.483 125.182 319.929 127.038 319.929 129.475H319.915Z" stroke="#E8D09E" stroke-width="20.7737" stroke-linecap="round" stroke-linejoin="round"/>
<path d="M370.367 100.586C374.563 100.586 377.832 102.082 380.2 105.073C383.011 108.619 384.424 114.491 384.424 122.703C384.424 130.916 383.011 136.774 380.172 140.361C377.832 143.311 374.563 144.793 370.367 144.793C366.171 144.793 362.764 143.172 360.174 139.932C357.598 136.691 356.31 130.916 356.31 122.62C356.31 114.325 357.723 108.605 360.562 105.018C362.902 102.068 366.171 100.586 370.367 100.586ZM370.367 107.469C369.37 107.469 368.47 107.788 367.68 108.425C366.891 109.062 366.281 110.211 365.852 111.859C365.284 114.006 364.993 117.621 364.993 122.703C364.993 127.786 365.243 131.276 365.755 133.173C366.268 135.071 366.905 136.331 367.694 136.968C368.483 137.605 369.37 137.91 370.367 137.91C371.364 137.91 372.264 137.591 373.054 136.954C373.843 136.317 374.452 135.167 374.882 133.519C375.45 131.387 375.74 127.786 375.74 122.717C375.74 117.648 375.477 114.144 374.979 112.247C374.466 110.35 373.829 109.076 373.04 108.439C372.25 107.802 371.364 107.483 370.367 107.483V107.469Z" stroke="#E8D09E" stroke-width="20.7737" stroke-linecap="round" stroke-linejoin="round"/>
<path d="M416.097 100.586C420.293 100.586 423.562 102.082 425.93 105.073C428.741 108.619 430.154 114.491 430.154 122.703C430.154 130.916 428.741 136.774 425.902 140.361C423.562 143.311 420.293 144.793 416.097 144.793C411.901 144.793 408.494 143.172 405.904 139.932C403.328 136.691 402.04 130.916 402.04 122.62C402.04 114.325 403.453 108.605 406.292 105.018C408.632 102.068 411.901 100.586 416.097 100.586ZM416.097 107.469C415.1 107.469 414.2 107.788 413.41 108.425C412.621 109.062 412.011 110.211 411.582 111.859C411.014 114.006 410.723 117.621 410.723 122.703C410.723 127.786 410.973 131.276 411.485 133.173C411.998 135.071 412.635 136.331 413.424 136.968C414.213 137.605 415.1 137.91 416.097 137.91C417.094 137.91 417.994 137.591 418.784 136.954C419.573 136.317 420.182 135.167 420.612 133.519C421.18 131.387 421.47 127.786 421.47 122.717C421.47 117.648 421.207 114.144 420.709 112.247C420.196 110.35 419.559 109.076 418.77 108.439C417.98 107.802 417.094 107.483 416.097 107.483V107.469Z" stroke="#E8D09E" stroke-width="20.7737" stroke-linecap="round" stroke-linejoin="round"/>
<path d="M136.483 50.5633C136.303 53.0977 136.178 55.2166 135.998 57.1555H142.77V63.443H135.264C134.835 65.9774 134.35 67.5008 133.685 68.401C132.356 70.3399 130.722 70.9354 128.672 71.2401C126.678 71.5448 123.659 71.5448 120.57 71.3647C120.515 69.7859 119.781 67.4316 118.881 65.8666C121.595 66.1021 123.963 66.1713 125.237 66.1021C126.262 66.1021 126.747 65.9774 127.356 65.1326C127.592 64.7726 127.841 64.2878 128.076 63.443H95.5448C96.265 59.87 96.999 55.3413 97.7191 50.5633H89.3681V44.1512H98.6193C99.104 40.5227 99.5334 36.7696 99.8934 33.4458C98.3839 35.3154 96.8743 37.0189 95.4202 38.5284C93.9106 37.379 90.6976 35.3154 88.9526 34.3598C94.52 29.7065 99.7827 22.0757 102.857 14.6387L109.989 16.6883C109.449 17.8932 108.84 19.1673 108.231 20.4415H143.13V26.8536H104.478C103.453 28.4878 102.428 29.9974 101.334 31.5069H137.134C137.134 31.5069 137.078 33.8059 137.078 34.6507C136.954 38.1545 136.843 41.2429 136.718 44.1512H145.429V50.5633H136.483ZM104.907 50.3141C104.547 52.7377 104.242 54.9674 103.882 57.1417H117.122C115.003 55.5075 112.344 53.8179 109.92 52.6684L112.344 50.3141H104.907ZM106.541 37.7944C106.306 39.9687 106.001 42.1431 105.696 44.3866H117.731C115.612 42.8217 113.078 41.2429 110.71 40.218L113.189 37.7944H106.541ZM128.977 57.1555C129.101 55.2166 129.281 53.0423 129.406 50.3279H116.831C119.615 51.8375 122.274 53.6517 123.908 55.1059L121.844 57.1694H128.977V57.1555ZM129.641 44.3866C129.766 42.3369 129.821 40.218 129.877 37.7944H117.593C120.252 39.1793 122.855 40.9382 124.49 42.3369L122.426 44.3866H129.628H129.641Z" fill="black" stroke="white" stroke-width="13.8491" stroke-linecap="round" stroke-linejoin="round"/>
<path d="M210.382 62.2381C210.382 66.5868 209.357 68.6503 206.574 69.8552C203.665 71.1293 199.441 71.2401 193.209 71.2401C192.78 69.1212 191.34 65.6727 190.19 63.6784C194.428 63.9139 199.511 63.8585 200.84 63.8585C202.294 63.8585 202.779 63.3738 202.779 62.0996V53.3331H176.895C175.316 60.1054 172.297 66.6976 166.674 71.4201C165.58 69.9106 162.686 67.2515 161.107 66.2128C170.234 58.4158 171.092 46.8656 171.092 37.6698V17.7686H210.41V62.2243L210.382 62.2381ZM202.751 46.3947V39.0131H178.501C178.446 41.3121 178.321 43.8465 178.072 46.3947H202.751ZM178.501 24.7901V32.1717H202.751V24.7901H178.501Z" fill="black" stroke="white" stroke-width="13.8491" stroke-linecap="round" stroke-linejoin="round"/>
<path d="M287.91 47.0595C286.22 52.8623 283.492 57.5848 280.043 61.3933C283.063 63.3322 286.58 64.7864 290.5 65.742C289.045 67.0715 287.176 69.6751 286.262 71.3647C281.969 70.0906 278.285 68.2764 275.072 65.8666C271.983 68.1102 268.535 69.9244 264.851 71.2539C264.131 69.7998 262.732 67.7501 261.527 66.3513V71.434H254.63V66.3513C247.678 67.0715 240.781 67.8055 235.463 68.3456L234.798 62.2381C236.433 62.1135 238.247 62.0027 240.186 61.8781V43.3756H235.463V37.6836H289.405V43.3756H261.527V65.5065C264.671 64.4817 267.579 63.0829 270.169 61.2687C267.925 58.6097 266.056 55.5767 264.602 52.1975L268.59 51.1034H262.787V45.6053H282.259L283.464 45.3699L287.882 47.0595H287.91ZM248.357 36.2295H241.46V16.7576H283.672V36.2295H276.415V21.771H248.357V36.2295ZM246.722 43.3618V45.7161H254.644V43.3618H246.722ZM246.722 53.2223H254.644V50.7434H246.722V53.2223ZM246.722 61.3933C249.257 61.1579 251.93 60.964 254.644 60.7286V58.1942H246.722V61.3933ZM274.421 28.3631H250.351V24.1253H274.421V28.3631ZM250.351 30.7175H274.241V35.1908H250.351V30.7175ZM270.612 51.1034C271.706 53.347 273.147 55.3967 274.905 57.2109C276.595 55.3967 278.049 53.347 279.199 51.1034H270.612Z" fill="black" stroke="white" stroke-width="13.8491" stroke-linecap="round" stroke-linejoin="round"/>
<path d="M361.629 20.566V26.6181H308.227V20.566H331.507C331.022 19.1118 330.538 17.6023 330.053 16.3282L337.49 14.5139C338.155 16.3835 339.124 18.6271 339.844 20.566H361.615H361.629ZM360.23 64.8278C360.23 67.9716 359.441 69.2457 357.142 70.1459C354.967 70.8661 351.699 70.9353 347.53 70.8661C347.17 69.2873 346.201 67.2376 345.412 65.7834H328.114V68.3178H321.466V52.3498H347.78V65.7834H346.935C349.054 65.8388 351.173 65.8388 351.768 65.7834C352.613 65.7834 352.973 65.548 352.973 64.7586V50.12H316.868V71.3508H309.916V44.3173H360.23V64.814V64.8278ZM354.427 41.8521H316.259V28.9032H354.427V41.8521ZM346.866 33.7504H323.461V37.0742H346.866V33.7504ZM341.423 57.3908H328.114V60.8393H341.423V57.3908Z" fill="black" stroke="white" stroke-width="13.8491" stroke-linecap="round" stroke-linejoin="round"/>
<path d="M435.887 57.6399H428.99V63.6227C428.99 67.2512 428.201 69.19 425.667 70.2703C423.243 71.4198 419.615 71.4751 414.532 71.4751C414.172 69.5363 413.078 66.5172 412.053 64.7029C415.377 64.883 419.254 64.8276 420.335 64.8276C421.415 64.8276 421.789 64.5229 421.789 63.498V57.626H393.301V71.4751H386.169V57.626H379.272V50.9784H386.169V28.7783H403.771V24.7897H381.751V18.1975H433.464V24.7897H410.959V28.7783H428.977V50.9784H435.873V57.626L435.887 57.6399ZM393.301 35.2596V39.9822H403.757V35.2596H393.301ZM393.301 50.9784H403.757V46.0758H393.301V50.9784ZM410.959 35.2596V39.9822H421.789V35.2596H410.959ZM421.789 50.9784V46.0758H410.959V50.9784H421.789Z" fill="black" stroke="white" stroke-width="13.8491" stroke-linecap="round" stroke-linejoin="round"/>
<path d="M485.467 16.5773C485.162 16.882 484.802 17.2421 484.498 17.5468C490.3 21.2306 500.216 24.499 508.692 26.1332C507.362 27.4074 505.493 29.8171 504.634 31.4513C501.241 30.6619 497.613 29.5124 494.109 28.1829V29.7479H466.535V28.0583C463.087 29.3878 459.334 30.5927 455.65 31.5621C454.86 30.1079 453.046 27.6289 451.841 26.4795C463.087 23.7512 474.152 19.3472 479.72 13.8352L485.467 16.5635V16.5773ZM483.708 58.1801H506.933V63.0827H483.708V65.077C483.708 68.3454 482.919 69.7303 480.509 70.5751C478.155 71.4199 474.817 71.4892 470.233 71.4199C469.873 69.7303 468.848 67.4314 467.934 65.9218C470.842 66.0465 474.402 66.0464 475.246 66.0464C476.216 65.9911 476.576 65.7418 476.576 64.897V63.0827H453.406V58.1801H476.576V55.9366H457.104V51.1032H476.576V48.9843C470.828 49.2197 464.97 49.289 459.514 49.2198C459.458 47.9456 458.849 46.0206 458.309 44.8711C471.673 44.9958 487.641 44.3864 496.172 42.8768L500.826 46.7408C495.923 47.6548 489.996 48.2503 483.708 48.6104V51.0894H503.609V55.9227H483.708V58.1663V58.1801ZM499.192 42.6414H461.093V31.756H499.192V42.6414ZM492.059 35.9246H467.809V38.4036H492.059V35.9246ZM487.946 25.5793C485.107 24.1944 482.379 22.671 480.024 21.1614C477.67 22.7402 475.066 24.2498 472.283 25.5793H487.946Z" fill="black" stroke="white" stroke-width="13.8491" stroke-linecap="round" stroke-linejoin="round"/>
<path d="M162.007 144.059V100.766H170.51L188.223 129.67V100.766H196.339V144.059H187.572L170.122 115.834V144.059H162.007Z" fill="black" stroke="white" stroke-width="13.8491" stroke-linecap="round" stroke-linejoin="round"/>
<path d="M227.431 144.059V108.093H214.593V100.766H248.994V108.093H236.184V144.059H227.445H227.431Z" fill="black" stroke="white" stroke-width="13.8491" stroke-linecap="round" stroke-linejoin="round"/>
<path d="M276.761 137.646V125.279C272.897 124.171 270.072 122.509 268.272 120.28C266.471 118.05 265.571 115.336 265.571 112.15C265.571 108.965 266.596 106.209 268.632 104.021C270.668 101.833 273.382 100.559 276.761 100.226V97.304H281.041V100.226C284.17 100.6 286.663 101.666 288.505 103.425C290.361 105.184 291.538 107.538 292.051 110.502L284.586 111.472C284.129 109.145 282.952 107.58 281.041 106.749V118.299C285.763 119.573 288.99 121.235 290.693 123.271C292.411 125.307 293.269 127.924 293.269 131.11C293.269 134.669 292.189 137.674 290.042 140.112C287.882 142.549 284.891 144.045 281.054 144.599V150.125H276.775V144.751C273.368 144.336 270.598 143.075 268.479 140.943C266.36 138.81 264.989 135.818 264.408 131.941L272.122 131.11C272.44 132.688 273.022 134.046 273.894 135.181C274.753 136.331 275.722 137.148 276.789 137.66L276.761 137.646ZM276.761 106.638C275.598 107.026 274.67 107.705 273.991 108.646C273.299 109.588 272.953 110.641 272.953 111.776C272.953 112.815 273.271 113.784 273.894 114.685C274.531 115.585 275.473 116.305 276.761 116.859V106.638ZM281.041 138.062C282.522 137.785 283.713 137.106 284.641 136.012C285.569 134.918 286.026 133.63 286.026 132.162C286.026 130.847 285.638 129.711 284.863 128.755C284.087 127.8 282.813 127.066 281.041 126.553V138.076V138.062Z" fill="black" stroke="white" stroke-width="13.8491" stroke-linecap="round" stroke-linejoin="round"/>
<path d="M338.722 111.375L330.689 112.261C330.496 110.613 329.983 109.38 329.152 108.605C328.321 107.815 327.255 107.428 325.939 107.428C324.18 107.428 322.712 108.217 321.494 109.796C320.289 111.375 319.513 114.643 319.209 119.629C321.272 117.191 323.848 115.973 326.909 115.973C330.371 115.973 333.335 117.288 335.814 119.933C338.279 122.565 339.525 125.972 339.525 130.154C339.525 134.586 338.223 138.131 335.634 140.818C333.03 143.491 329.692 144.834 325.621 144.834C321.244 144.834 317.657 143.131 314.846 139.738C312.035 136.345 310.622 130.777 310.622 123.036C310.622 115.294 312.09 109.38 315.026 105.876C317.962 102.373 321.771 100.628 326.452 100.628C329.734 100.628 332.462 101.556 334.623 103.384C336.783 105.226 338.154 107.898 338.736 111.402L338.722 111.375ZM319.915 129.475C319.915 132.176 320.538 134.253 321.771 135.721C323.017 137.189 324.43 137.923 326.022 137.923C327.615 137.923 328.834 137.328 329.859 136.123C330.883 134.918 331.396 132.952 331.396 130.223C331.396 127.495 330.842 125.348 329.748 124.033C328.64 122.731 327.269 122.066 325.621 122.066C323.973 122.066 322.671 122.689 321.577 123.936C320.483 125.182 319.929 127.038 319.929 129.475H319.915Z" fill="black" stroke="white" stroke-width="13.8491" stroke-linecap="round" stroke-linejoin="round"/>
<path d="M370.367 100.586C374.563 100.586 377.832 102.082 380.2 105.073C383.011 108.619 384.424 114.491 384.424 122.703C384.424 130.916 383.011 136.774 380.172 140.361C377.832 143.311 374.563 144.793 370.367 144.793C366.171 144.793 362.764 143.172 360.174 139.932C357.598 136.691 356.31 130.916 356.31 122.62C356.31 114.325 357.723 108.605 360.562 105.018C362.902 102.068 366.171 100.586 370.367 100.586ZM370.367 107.469C369.37 107.469 368.47 107.788 367.68 108.425C366.891 109.062 366.281 110.211 365.852 111.859C365.284 114.006 364.993 117.621 364.993 122.703C364.993 127.786 365.243 131.276 365.755 133.173C366.268 135.071 366.905 136.331 367.694 136.968C368.483 137.605 369.37 137.91 370.367 137.91C371.364 137.91 372.264 137.591 373.054 136.954C373.843 136.317 374.452 135.167 374.882 133.519C375.45 131.387 375.74 127.786 375.74 122.717C375.74 117.648 375.477 114.144 374.979 112.247C374.466 110.35 373.829 109.076 373.04 108.439C372.25 107.802 371.364 107.483 370.367 107.483V107.469Z" fill="black" stroke="white" stroke-width="13.8491" stroke-linecap="round" stroke-linejoin="round"/>
<path d="M416.097 100.586C420.293 100.586 423.562 102.082 425.93 105.073C428.741 108.619 430.154 114.491 430.154 122.703C430.154 130.916 428.741 136.774 425.902 140.361C423.562 143.311 420.293 144.793 416.097 144.793C411.901 144.793 408.494 143.172 405.904 139.932C403.328 136.691 402.04 130.916 402.04 122.62C402.04 114.325 403.453 108.605 406.292 105.018C408.632 102.068 411.901 100.586 416.097 100.586ZM416.097 107.469C415.1 107.469 414.2 107.788 413.41 108.425C412.621 109.062 412.011 110.211 411.582 111.859C411.014 114.006 410.723 117.621 410.723 122.703C410.723 127.786 410.973 131.276 411.485 133.173C411.998 135.071 412.635 136.331 413.424 136.968C414.213 137.605 415.1 137.91 416.097 137.91C417.094 137.91 417.994 137.591 418.784 136.954C419.573 136.317 420.182 135.167 420.612 133.519C421.18 131.387 421.47 127.786 421.47 122.717C421.47 117.648 421.207 114.144 420.709 112.247C420.196 110.35 419.559 109.076 418.77 108.439C417.98 107.802 417.094 107.483 416.097 107.483V107.469Z" fill="black" stroke="white" stroke-width="13.8491" stroke-linecap="round" stroke-linejoin="round"/>
<path d="M136.483 50.5633C136.303 53.0977 136.178 55.2166 135.998 57.1555H142.77V63.443H135.264C134.835 65.9774 134.35 67.5008 133.685 68.401C132.356 70.3399 130.722 70.9354 128.672 71.2401C126.678 71.5448 123.659 71.5448 120.57 71.3647C120.515 69.7859 119.781 67.4316 118.881 65.8666C121.595 66.1021 123.963 66.1713 125.237 66.1021C126.262 66.1021 126.747 65.9774 127.356 65.1326C127.592 64.7726 127.841 64.2878 128.076 63.443H95.5448C96.265 59.87 96.999 55.3413 97.7191 50.5633H89.3681V44.1512H98.6193C99.104 40.5227 99.5334 36.7696 99.8934 33.4458C98.3839 35.3154 96.8743 37.0189 95.4202 38.5284C93.9106 37.379 90.6976 35.3154 88.9526 34.3598C94.52 29.7065 99.7827 22.0757 102.857 14.6387L109.989 16.6883C109.449 17.8932 108.84 19.1673 108.231 20.4415H143.13V26.8536H104.478C103.453 28.4878 102.428 29.9974 101.334 31.5069H137.134C137.134 31.5069 137.078 33.8059 137.078 34.6507C136.954 38.1545 136.843 41.2429 136.718 44.1512H145.429V50.5633H136.483ZM104.907 50.3141C104.547 52.7377 104.242 54.9674 103.882 57.1417H117.122C115.003 55.5075 112.344 53.8179 109.92 52.6684L112.344 50.3141H104.907ZM106.541 37.7944C106.306 39.9687 106.001 42.1431 105.696 44.3866H117.731C115.612 42.8217 113.078 41.2429 110.71 40.218L113.189 37.7944H106.541ZM128.977 57.1555C129.101 55.2166 129.281 53.0423 129.406 50.3279H116.831C119.615 51.8375 122.274 53.6517 123.908 55.1059L121.844 57.1694H128.977V57.1555ZM129.641 44.3866C129.766 42.3369 129.821 40.218 129.877 37.7944H117.593C120.252 39.1793 122.855 40.9382 124.49 42.3369L122.426 44.3866H129.628H129.641Z" fill="black"/>
<path d="M210.382 62.2381C210.382 66.5868 209.357 68.6503 206.574 69.8552C203.665 71.1293 199.441 71.2401 193.209 71.2401C192.78 69.1212 191.34 65.6727 190.19 63.6784C194.428 63.9139 199.511 63.8585 200.84 63.8585C202.294 63.8585 202.779 63.3738 202.779 62.0996V53.3331H176.895C175.316 60.1054 172.297 66.6976 166.674 71.4201C165.58 69.9106 162.686 67.2515 161.107 66.2128C170.234 58.4158 171.092 46.8656 171.092 37.6698V17.7686H210.41V62.2243L210.382 62.2381ZM202.751 46.3947V39.0131H178.501C178.446 41.3121 178.321 43.8465 178.072 46.3947H202.751ZM178.501 24.7901V32.1717H202.751V24.7901H178.501Z" fill="black"/>
<path d="M287.909 47.0595C286.22 52.8623 283.491 57.5848 280.043 61.3933C283.062 63.3322 286.58 64.7864 290.499 65.742C289.045 67.0715 287.175 69.6751 286.261 71.3647C281.968 70.0906 278.284 68.2764 275.071 65.8666C271.983 68.1102 268.534 69.9244 264.85 71.2539C264.13 69.7998 262.732 67.7501 261.527 66.3513V71.434H254.63V66.3513C247.678 67.0715 240.781 67.8055 235.463 68.3456L234.798 62.2381C236.432 62.1135 238.246 62.0027 240.185 61.8781V43.3756H235.463V37.6836H289.405V43.3756H261.527V65.5065C264.67 64.4817 267.579 63.0829 270.169 61.2687C267.925 58.6097 266.055 55.5767 264.601 52.1975L268.59 51.1034H262.787V45.6053H282.259L283.464 45.3699L287.882 47.0595H287.909ZM248.356 36.2295H241.459V16.7576H283.671V36.2295H276.415V21.771H248.356V36.2295ZM246.722 43.3618V45.7161H254.644V43.3618H246.722ZM246.722 53.2223H254.644V50.7434H246.722V53.2223ZM246.722 61.3933C249.256 61.1579 251.929 60.964 254.644 60.7286V58.1942H246.722V61.3933ZM274.42 28.3631H250.35V24.1253H274.42V28.3631ZM250.35 30.7175H274.24V35.1908H250.35V30.7175ZM270.612 51.1034C271.706 53.347 273.146 55.3967 274.905 57.2109C276.595 55.3967 278.049 53.347 279.198 51.1034H270.612Z" fill="black"/>
<path d="M361.628 20.566V26.6181H308.226V20.566H331.506C331.022 19.1118 330.537 17.6023 330.052 16.3282L337.489 14.5139C338.154 16.3835 339.124 18.6271 339.844 20.566H361.614H361.628ZM360.23 64.8278C360.23 67.9716 359.44 69.2457 357.141 70.1459C354.967 70.8661 351.699 70.9353 347.53 70.8661C347.17 69.2873 346.2 67.2376 345.411 65.7834H328.113V68.3178H321.466V52.3498H347.779V65.7834H346.934C349.053 65.8388 351.172 65.8388 351.768 65.7834C352.613 65.7834 352.973 65.548 352.973 64.7586V50.12H316.868V71.3508H309.916V44.3173H360.23V64.814V64.8278ZM354.427 41.8521H316.259V28.9032H354.427V41.8521ZM346.865 33.7504H323.46V37.0742H346.865V33.7504ZM341.422 57.3908H328.113V60.8393H341.422V57.3908Z" fill="black"/>
<path d="M435.887 57.6403H428.99V63.6232C428.99 67.2516 428.201 69.1905 425.667 70.2708C423.243 71.4202 419.615 71.4756 414.532 71.4756C414.172 69.5368 413.078 66.5176 412.053 64.7034C415.377 64.8834 419.254 64.828 420.335 64.828C421.415 64.828 421.789 64.5234 421.789 63.4985V57.6265H393.301V71.4756H386.169V57.6265H379.272V50.9789H386.169V28.7787H403.771V24.7902H381.751V18.198H433.464V24.7902H410.959V28.7787H428.977V50.9789H435.873V57.6265L435.887 57.6403ZM393.301 35.2601V39.9827H403.757V35.2601H393.301ZM393.301 50.9789H403.757V46.0763H393.301V50.9789ZM410.959 35.2601V39.9827H421.789V35.2601H410.959ZM421.789 50.9789V46.0763H410.959V50.9789H421.789Z" fill="black"/>
<path d="M485.467 16.5773C485.162 16.882 484.802 17.2421 484.498 17.5468C490.3 21.2306 500.216 24.499 508.692 26.1332C507.362 27.4074 505.493 29.8171 504.634 31.4513C501.241 30.6619 497.613 29.5124 494.109 28.1829V29.7479H466.535V28.0583C463.087 29.3878 459.334 30.5927 455.65 31.5621C454.86 30.1079 453.046 27.6289 451.841 26.4795C463.087 23.7512 474.152 19.3472 479.72 13.8352L485.467 16.5635V16.5773ZM483.708 58.1801H506.933V63.0827H483.708V65.077C483.708 68.3454 482.919 69.7303 480.509 70.5751C478.155 71.4199 474.817 71.4892 470.233 71.4199C469.873 69.7303 468.848 67.4314 467.934 65.9218C470.842 66.0465 474.402 66.0464 475.246 66.0464C476.216 65.9911 476.576 65.7418 476.576 64.897V63.0827H453.406V58.1801H476.576V55.9366H457.104V51.1032H476.576V48.9843C470.828 49.2197 464.97 49.289 459.514 49.2198C459.458 47.9456 458.849 46.0206 458.309 44.8711C471.673 44.9958 487.641 44.3864 496.172 42.8768L500.826 46.7408C495.923 47.6548 489.996 48.2503 483.708 48.6104V51.0894H503.609V55.9227H483.708V58.1663V58.1801ZM499.192 42.6414H461.093V31.756H499.192V42.6414ZM492.059 35.9246H467.809V38.4036H492.059V35.9246ZM487.946 25.5793C485.107 24.1944 482.379 22.671 480.024 21.1614C477.67 22.7402 475.066 24.2498 472.283 25.5793H487.946Z" fill="black"/>
<path d="M162.007 144.059V100.766H170.51L188.223 129.67V100.766H196.339V144.059H187.572L170.122 115.834V144.059H162.007Z" fill="#FF0000"/>
<path d="M227.43 144.059V108.093H214.592V100.766H248.994V108.093H236.183V144.059H227.444H227.43Z" fill="#FF0000"/>
<path d="M276.761 137.646V125.279C272.897 124.171 270.072 122.509 268.271 120.28C266.471 118.05 265.571 115.336 265.571 112.15C265.571 108.965 266.595 106.209 268.631 104.021C270.667 101.833 273.381 100.559 276.761 100.226V97.304H281.04V100.226C284.17 100.6 286.663 101.666 288.505 103.425C290.361 105.184 291.538 107.538 292.05 110.502L284.585 111.472C284.128 109.145 282.951 107.58 281.04 106.749V118.299C285.763 119.573 288.989 121.235 290.693 123.271C292.41 125.307 293.269 127.924 293.269 131.11C293.269 134.669 292.189 137.674 290.042 140.112C287.882 142.549 284.89 144.045 281.054 144.599V150.125H276.775V144.751C273.368 144.336 270.598 143.075 268.479 140.943C266.36 138.81 264.989 135.818 264.407 131.941L272.121 131.11C272.44 132.688 273.021 134.046 273.894 135.181C274.753 136.331 275.722 137.148 276.788 137.66L276.761 137.646ZM276.761 106.638C275.597 107.026 274.669 107.705 273.991 108.646C273.298 109.588 272.952 110.641 272.952 111.776C272.952 112.815 273.271 113.784 273.894 114.685C274.531 115.585 275.473 116.305 276.761 116.859V106.638ZM281.04 138.062C282.522 137.785 283.713 137.106 284.641 136.012C285.569 134.918 286.026 133.63 286.026 132.162C286.026 130.847 285.638 129.711 284.862 128.755C284.087 127.8 282.813 127.066 281.04 126.553V138.076V138.062Z" fill="#FF0000"/>
<path d="M338.722 111.375L330.689 112.261C330.496 110.613 329.983 109.381 329.152 108.605C328.321 107.816 327.255 107.428 325.939 107.428C324.18 107.428 322.712 108.217 321.494 109.796C320.289 111.375 319.513 114.643 319.209 119.629C321.272 117.191 323.848 115.973 326.909 115.973C330.371 115.973 333.335 117.288 335.814 119.934C338.279 122.565 339.525 125.972 339.525 130.154C339.525 134.586 338.223 138.131 335.634 140.818C333.03 143.491 329.692 144.834 325.621 144.834C321.244 144.834 317.657 143.131 314.846 139.738C312.035 136.345 310.622 130.777 310.622 123.036C310.622 115.294 312.09 109.381 315.026 105.877C317.962 102.373 321.771 100.628 326.452 100.628C329.734 100.628 332.462 101.556 334.623 103.384C336.783 105.226 338.154 107.899 338.736 111.403L338.722 111.375ZM319.915 129.476C319.915 132.176 320.538 134.254 321.771 135.722C323.017 137.19 324.43 137.924 326.022 137.924C327.615 137.924 328.834 137.328 329.859 136.123C330.883 134.918 331.396 132.952 331.396 130.224C331.396 127.495 330.842 125.349 329.748 124.033C328.64 122.731 327.269 122.066 325.621 122.066C323.973 122.066 322.671 122.69 321.577 123.936C320.483 125.182 319.929 127.038 319.929 129.476H319.915Z" fill="#FF0000"/>
<path d="M370.367 100.586C374.563 100.586 377.832 102.082 380.2 105.074C383.011 108.619 384.424 114.491 384.424 122.704C384.424 130.916 383.011 136.774 380.172 140.361C377.832 143.311 374.563 144.793 370.367 144.793C366.171 144.793 362.764 143.173 360.174 139.932C357.598 136.691 356.31 130.916 356.31 122.62C356.31 114.325 357.723 108.605 360.562 105.018C362.902 102.068 366.171 100.586 370.367 100.586ZM370.367 107.469C369.37 107.469 368.47 107.788 367.68 108.425C366.891 109.062 366.281 110.212 365.852 111.86C365.284 114.006 364.993 117.621 364.993 122.704C364.993 127.786 365.243 131.276 365.755 133.173C366.268 135.071 366.905 136.331 367.694 136.968C368.483 137.605 369.37 137.91 370.367 137.91C371.364 137.91 372.264 137.591 373.054 136.954C373.843 136.317 374.452 135.168 374.882 133.52C375.45 131.387 375.74 127.786 375.74 122.717C375.74 117.649 375.477 114.145 374.979 112.247C374.466 110.35 373.829 109.076 373.04 108.439C372.25 107.802 371.364 107.483 370.367 107.483V107.469Z" fill="#FF0000"/>
<path d="M416.097 100.586C420.293 100.586 423.562 102.082 425.93 105.074C428.741 108.619 430.154 114.491 430.154 122.704C430.154 130.916 428.741 136.774 425.902 140.361C423.562 143.311 420.293 144.793 416.097 144.793C411.901 144.793 408.494 143.173 405.904 139.932C403.328 136.691 402.04 130.916 402.04 122.62C402.04 114.325 403.453 108.605 406.292 105.018C408.632 102.068 411.901 100.586 416.097 100.586ZM416.097 107.469C415.1 107.469 414.2 107.788 413.41 108.425C412.621 109.062 412.011 110.212 411.582 111.86C411.014 114.006 410.723 117.621 410.723 122.704C410.723 127.786 410.973 131.276 411.485 133.173C411.998 135.071 412.635 136.331 413.424 136.968C414.213 137.605 415.1 137.91 416.097 137.91C417.094 137.91 417.994 137.591 418.784 136.954C419.573 136.317 420.182 135.168 420.612 133.52C421.18 131.387 421.47 127.786 421.47 122.717C421.47 117.649 421.207 114.145 420.709 112.247C420.196 110.35 419.559 109.076 418.77 108.439C417.98 107.802 417.094 107.483 416.097 107.483V107.469Z" fill="#FF0000"/>
</g>
<defs>
<clipPath id="clip0_159_3412">
<rect width="600" height="163.96" fill="white"/>
</clipPath>
</defs>
</svg>
