<svg width="46" height="46" viewBox="0 0 46 46" fill="none" xmlns="http://www.w3.org/2000/svg">
<g clip-path="url(#clip0_43_3840)">
<path d="M1.5 23C1.5 34.8741 11.1259 44.5 23 44.5C34.8741 44.5 44.5 34.8741 44.5 23C44.5 11.1259 34.8741 1.5 23 1.5C11.1259 1.5 1.5 11.1259 1.5 23Z" stroke="#292929" stroke-width="3"/>
<path d="M41.5 23C41.5 33.2173 33.2173 41.5 23 41.5C12.7827 41.5 4.5 33.2173 4.5 23C4.5 12.7827 12.7827 4.5 23 4.5C33.2173 4.5 41.5 12.7827 41.5 23Z" fill="#242424"/>
<path d="M41.5 23C41.5 33.2173 33.2173 41.5 23 41.5C12.7827 41.5 4.5 33.2173 4.5 23C4.5 12.7827 12.7827 4.5 23 4.5C33.2173 4.5 41.5 12.7827 41.5 23Z" stroke="white" stroke-width="3"/>
<path d="M18.3897 23.8125C17.7547 23.4178 17.7616 22.4911 18.4026 22.106L21.9505 19.9744L25.4925 17.888C26.1591 17.4953 27 17.9759 27 18.7496L27 22.9487L27 27.2504C27 28.0241 26.1591 28.5047 25.4925 28.112L21.9505 26.0256L18.3897 23.8125Z" fill="white"/>
</g>
<defs>
<clipPath id="clip0_43_3840">
<rect width="46" height="46" fill="white" transform="translate(46 46) rotate(-180)"/>
</clipPath>
</defs>
</svg>
