<svg width="420" height="62" viewBox="0 0 420 62" fill="none" xmlns="http://www.w3.org/2000/svg">
<g clip-path="url(#clip0_29_6730)">
<path d="M65.6901 38.91C64.6001 42.05 62.8101 45.63 61.2801 47.86C60.4901 47.2 58.8301 46.07 57.8701 45.5C59.3501 43.45 60.8001 40.48 61.7101 37.77L65.6801 38.91H65.6901ZM71.8001 36.38V50.88H66.7801V36.38H58.6601V32.01H66.7801V28.65H58.4001V24.37H62.6401C62.4201 23.06 61.9001 21.18 61.3701 19.83L64.9501 18.96H59.0501V14.72H66.5201C66.1301 13.54 65.6501 12.32 65.2101 11.27L70.4101 10C71.0701 11.44 71.8501 13.23 72.3701 14.72H78.6201V18.96H73.1601L76.7001 19.66C76.0401 21.32 75.3901 23.02 74.7301 24.38H79.2701V28.66H71.8001V32.02H78.5701V36.39H71.8001V36.38ZM65.5201 18.95C66.1701 20.39 66.7401 22.27 66.9601 23.49L63.8201 24.36H70.1101C70.7701 22.79 71.5501 20.56 71.9901 18.94H65.5301L65.5201 18.95ZM98.7501 29.56H94.6901V51H89.6201V29.56H85.5601V30.08C85.5601 36.5 84.9901 45.5 81.2801 51.09C80.4101 50.17 78.3501 48.51 77.2601 47.99C78.0901 46.72 78.7401 45.28 79.2201 43.75L76.1201 45.67C75.4201 43.92 73.9401 41.13 72.7101 39.12L76.1201 37.29C77.3001 39.04 78.6501 41.35 79.4001 43.01C80.6201 38.82 80.7501 34.1 80.7501 30.08V14.53C85.5101 13.66 90.7901 12.3 93.9801 10.82L97.9501 14.62C94.3701 16.06 89.8301 17.11 85.5501 17.9V24.76H98.7401V29.56H98.7501Z" stroke="black" stroke-width="20" stroke-linecap="round" stroke-linejoin="round"/>
<path d="M149.23 45.02C149.23 47.55 148.79 48.95 147.22 49.82C145.73 50.69 143.51 50.82 140.28 50.82C140.11 49.38 139.41 47.06 138.75 45.71C140.63 45.84 142.68 45.8 143.34 45.75C144 45.75 144.21 45.53 144.21 44.92V36.4H137.35C136.7 41.73 135.34 47.27 132.42 51.33C131.5 50.5 129.41 49.19 128.18 48.67C127.92 48.98 127.61 49.24 127.22 49.46C125.87 50.25 123.9 50.38 121.11 50.38C120.98 49.07 120.32 46.97 119.71 45.75C121.24 45.84 122.9 45.84 123.47 45.79C123.99 45.79 124.17 45.57 124.17 45.05V36.4H118.32C117.8 41.68 116.62 47.23 114.08 51.25C113.16 50.46 111.11 49.15 109.89 48.63C113.6 42.91 113.86 34.39 113.86 28.02V12.3H129.01V45.05C129.01 46.23 128.92 47.15 128.66 47.89C132.59 41.82 132.94 33.35 132.94 26.97V12.3H149.23V45.01V45.02ZM124.16 31.79V26.64H118.66V27.99C118.66 29.21 118.66 30.44 118.57 31.79H124.16ZM118.66 17.03V22.05H124.16V17.03H118.66ZM144.2 31.79V26.64H137.87V26.99C137.87 28.48 137.83 30.09 137.74 31.79H144.2ZM137.87 17.03V22.05H144.2V17.03H137.87Z" stroke="black" stroke-width="20" stroke-linecap="round" stroke-linejoin="round"/>
<path d="M198.52 27.73C196.9 33.63 194.28 38.25 190.83 41.92C194.32 43.93 198.47 45.41 203.36 46.29C202.22 47.38 200.7 49.61 200 51.01C194.76 49.87 190.39 48.04 186.68 45.51C183.32 47.96 179.39 49.83 175.11 51.14C174.45 49.83 173.19 47.78 172.18 46.73C176.02 45.77 179.56 44.2 182.57 42.1C180.3 39.74 178.33 37.03 176.76 33.85C174.75 39.61 171.74 45.34 167.02 49.62C165.93 48.27 164.27 46.91 162.56 45.95C170.12 39.75 173 29.88 174.18 21.93H164.22V16.86H174.79C175.01 14.02 175.05 11.71 175.14 10.35H180.56C180.47 11.92 180.39 14.19 180.12 16.86H202.17V21.93H179.55C179.33 23.37 179.07 24.86 178.72 26.43H194.01L194.97 26.21L198.51 27.74L198.52 27.73ZM180.79 31.44C182.28 34.23 184.15 36.72 186.55 38.78C188.6 36.73 190.35 34.24 191.57 31.44H180.78H180.79Z" stroke="black" stroke-width="20" stroke-linecap="round" stroke-linejoin="round"/>
<path d="M238.83 21C238.44 21.96 238 22.88 237.61 23.75H250.8V51.22H245.38V49.17H225.47V51.22H220.32V23.75H231.85C232.16 22.83 232.37 21.92 232.59 21H216V16.2H226C225.13 14.85 223.9 13.36 222.86 12.14L227.49 10.04C229.11 11.61 230.85 13.75 231.73 15.19L229.81 16.19H239.81C241.08 14.4 242.43 12.04 243.17 10.25L249.15 11.56C248.02 13.22 246.79 14.84 245.66 16.19H255.44V20.99H238.85L238.83 21ZM245.38 28.25H225.47V30.91H245.38V28.25ZM245.38 34.85H225.47V37.69H245.38V34.85ZM245.38 44.63V41.66H225.47V44.63H245.38Z" stroke="black" stroke-width="20" stroke-linecap="round" stroke-linejoin="round"/>
<path d="M300.92 40.88H294.02L298.34 41.8C297.64 43.28 296.9 44.68 296.24 45.91H307.33V50.32H268.86V45.91H279.56C279.17 44.69 278.47 43.16 277.77 41.98L281.22 40.89H274.84V29.54C273.36 30.59 271.83 31.46 270.26 32.25C269.56 31.11 268.12 29.32 267.07 28.36C269.6 27.31 272.22 25.65 274.49 23.69C273.27 22.47 271.43 21.03 269.86 20.02L272.65 17.14C274.31 18.1 276.36 19.45 277.54 20.68C278.85 19.24 279.99 17.75 280.86 16.18H270.42V11.99H283.35L284.22 11.77L287.67 13.52C286.53 16.66 284.92 19.5 282.95 22.04H293.43C291.07 19.07 289.19 15.62 287.67 11.95L292.3 10.55C292.91 12.08 293.7 13.61 294.53 15.01C296.19 13.7 297.89 12.13 298.99 10.82L302.92 13.61C301 15.23 298.73 16.93 296.85 18.28C297.46 19.07 298.12 19.76 298.81 20.51C300.64 19.11 302.61 17.32 303.88 15.88L307.68 18.59C305.85 20.21 303.66 21.87 301.78 23.22C304.01 25.01 306.5 26.5 309.2 27.54C307.98 28.5 306.45 30.6 305.66 31.95C303.96 31.16 302.38 30.25 300.9 29.2V40.9L300.92 40.88ZM280.66 24.67C279.17 26.24 277.56 27.6 275.86 28.82H300.4C298.74 27.6 297.26 26.29 295.81 24.8V26.33H280.66V24.67ZM295.33 32.93H280.13V36.77H295.33V32.93ZM291.05 45.9C291.88 44.37 292.8 42.36 293.32 40.88H282.71C283.63 42.28 284.41 43.98 284.76 45.16L282.58 45.9H291.05Z" stroke="black" stroke-width="20" stroke-linecap="round" stroke-linejoin="round"/>
<path d="M335.24 33.71L330.52 35.02V45.72C330.52 48.21 330.08 49.48 328.64 50.22C327.2 51.05 325.1 51.18 322.09 51.18C321.96 49.83 321.26 47.82 320.65 46.46C322.35 46.55 324.1 46.55 324.67 46.55C325.28 46.55 325.5 46.33 325.5 45.72V36.42C323.84 36.86 322.31 37.21 320.87 37.6L319.56 32.67C321.26 32.32 323.32 31.84 325.5 31.32V23.46H320.26V18.61H325.5V10.44H330.52V18.61H334.71V23.46H330.52V30.05L334.58 29L335.24 33.72V33.71ZM359.96 20.09V50.79H354.81V47.95H340.7V51.09H335.72V20.08H345.15V10.43H350.04V20.08H359.95L359.96 20.09ZM340.7 25.02V31.35H345.15V25.02H340.7ZM340.7 42.97H345.15V36.2H340.7V42.97ZM350.04 25.02V31.35H354.8V25.02H350.04ZM354.8 42.97V36.2H350.04V42.97H354.8Z" stroke="black" stroke-width="20" stroke-linecap="round" stroke-linejoin="round"/>
<path d="M65.6901 38.91C64.6001 42.05 62.8101 45.63 61.2801 47.86C60.4901 47.2 58.8301 46.07 57.8701 45.5C59.3501 43.45 60.8001 40.48 61.7101 37.77L65.6801 38.91H65.6901ZM71.8001 36.38V50.88H66.7801V36.38H58.6601V32.01H66.7801V28.65H58.4001V24.37H62.6401C62.4201 23.06 61.9001 21.18 61.3701 19.83L64.9501 18.96H59.0501V14.72H66.5201C66.1301 13.54 65.6501 12.32 65.2101 11.27L70.4101 10C71.0701 11.44 71.8501 13.23 72.3701 14.72H78.6201V18.96H73.1601L76.7001 19.66C76.0401 21.32 75.3901 23.02 74.7301 24.38H79.2701V28.66H71.8001V32.02H78.5701V36.39H71.8001V36.38ZM65.5201 18.95C66.1701 20.39 66.7401 22.27 66.9601 23.49L63.8201 24.36H70.1101C70.7701 22.79 71.5501 20.56 71.9901 18.94H65.5301L65.5201 18.95ZM98.7501 29.56H94.6901V51H89.6201V29.56H85.5601V30.08C85.5601 36.5 84.9901 45.5 81.2801 51.09C80.4101 50.17 78.3501 48.51 77.2601 47.99C78.0901 46.72 78.7401 45.28 79.2201 43.75L76.1201 45.67C75.4201 43.92 73.9401 41.13 72.7101 39.12L76.1201 37.29C77.3001 39.04 78.6501 41.35 79.4001 43.01C80.6201 38.82 80.7501 34.1 80.7501 30.08V14.53C85.5101 13.66 90.7901 12.3 93.9801 10.82L97.9501 14.62C94.3701 16.06 89.8301 17.11 85.5501 17.9V24.76H98.7401V29.56H98.7501Z" stroke="#E8D09E" stroke-width="15" stroke-linecap="round" stroke-linejoin="round"/>
<path d="M149.23 45.02C149.23 47.55 148.79 48.95 147.22 49.82C145.73 50.69 143.51 50.82 140.28 50.82C140.11 49.38 139.41 47.06 138.75 45.71C140.63 45.84 142.68 45.8 143.34 45.75C144 45.75 144.21 45.53 144.21 44.92V36.4H137.35C136.7 41.73 135.34 47.27 132.42 51.33C131.5 50.5 129.41 49.19 128.18 48.67C127.92 48.98 127.61 49.24 127.22 49.46C125.87 50.25 123.9 50.38 121.11 50.38C120.98 49.07 120.32 46.97 119.71 45.75C121.24 45.84 122.9 45.84 123.47 45.79C123.99 45.79 124.17 45.57 124.17 45.05V36.4H118.32C117.8 41.68 116.62 47.23 114.08 51.25C113.16 50.46 111.11 49.15 109.89 48.63C113.6 42.91 113.86 34.39 113.86 28.02V12.3H129.01V45.05C129.01 46.23 128.92 47.15 128.66 47.89C132.59 41.82 132.94 33.35 132.94 26.97V12.3H149.23V45.01V45.02ZM124.16 31.79V26.64H118.66V27.99C118.66 29.21 118.66 30.44 118.57 31.79H124.16ZM118.66 17.03V22.05H124.16V17.03H118.66ZM144.2 31.79V26.64H137.87V26.99C137.87 28.48 137.83 30.09 137.74 31.79H144.2ZM137.87 17.03V22.05H144.2V17.03H137.87Z" stroke="#E8D09E" stroke-width="15" stroke-linecap="round" stroke-linejoin="round"/>
<path d="M198.52 27.73C196.9 33.63 194.28 38.25 190.83 41.92C194.32 43.93 198.47 45.41 203.36 46.29C202.22 47.38 200.7 49.61 200 51.01C194.76 49.87 190.39 48.04 186.68 45.51C183.32 47.96 179.39 49.83 175.11 51.14C174.45 49.83 173.19 47.78 172.18 46.73C176.02 45.77 179.56 44.2 182.57 42.1C180.3 39.74 178.33 37.03 176.76 33.85C174.75 39.61 171.74 45.34 167.02 49.62C165.93 48.27 164.27 46.91 162.56 45.95C170.12 39.75 173 29.88 174.18 21.93H164.22V16.86H174.79C175.01 14.02 175.05 11.71 175.14 10.35H180.56C180.47 11.92 180.39 14.19 180.12 16.86H202.17V21.93H179.55C179.33 23.37 179.07 24.86 178.72 26.43H194.01L194.97 26.21L198.51 27.74L198.52 27.73ZM180.79 31.44C182.28 34.23 184.15 36.72 186.55 38.78C188.6 36.73 190.35 34.24 191.57 31.44H180.78H180.79Z" stroke="#E8D09E" stroke-width="15" stroke-linecap="round" stroke-linejoin="round"/>
<path d="M238.83 21C238.44 21.96 238 22.88 237.61 23.75H250.8V51.22H245.38V49.17H225.47V51.22H220.32V23.75H231.85C232.16 22.83 232.37 21.92 232.59 21H216V16.2H226C225.13 14.85 223.9 13.36 222.86 12.14L227.49 10.04C229.11 11.61 230.85 13.75 231.73 15.19L229.81 16.19H239.81C241.08 14.4 242.43 12.04 243.17 10.25L249.15 11.56C248.02 13.22 246.79 14.84 245.66 16.19H255.44V20.99H238.85L238.83 21ZM245.38 28.25H225.47V30.91H245.38V28.25ZM245.38 34.85H225.47V37.69H245.38V34.85ZM245.38 44.63V41.66H225.47V44.63H245.38Z" stroke="#E8D09E" stroke-width="15" stroke-linecap="round" stroke-linejoin="round"/>
<path d="M300.92 40.88H294.02L298.34 41.8C297.64 43.28 296.9 44.68 296.24 45.91H307.33V50.32H268.86V45.91H279.56C279.17 44.69 278.47 43.16 277.77 41.98L281.22 40.89H274.84V29.54C273.36 30.59 271.83 31.46 270.26 32.25C269.56 31.11 268.12 29.32 267.07 28.36C269.6 27.31 272.22 25.65 274.49 23.69C273.27 22.47 271.43 21.03 269.86 20.02L272.65 17.14C274.31 18.1 276.36 19.45 277.54 20.68C278.85 19.24 279.99 17.75 280.86 16.18H270.42V11.99H283.35L284.22 11.77L287.67 13.52C286.53 16.66 284.92 19.5 282.95 22.04H293.43C291.07 19.07 289.19 15.62 287.67 11.95L292.3 10.55C292.91 12.08 293.7 13.61 294.53 15.01C296.19 13.7 297.89 12.13 298.99 10.82L302.92 13.61C301 15.23 298.73 16.93 296.85 18.28C297.46 19.07 298.12 19.76 298.81 20.51C300.64 19.11 302.61 17.32 303.88 15.88L307.68 18.59C305.85 20.21 303.66 21.87 301.78 23.22C304.01 25.01 306.5 26.5 309.2 27.54C307.98 28.5 306.45 30.6 305.66 31.95C303.96 31.16 302.38 30.25 300.9 29.2V40.9L300.92 40.88ZM280.66 24.67C279.17 26.24 277.56 27.6 275.86 28.82H300.4C298.74 27.6 297.26 26.29 295.81 24.8V26.33H280.66V24.67ZM295.33 32.93H280.13V36.77H295.33V32.93ZM291.05 45.9C291.88 44.37 292.8 42.36 293.32 40.88H282.71C283.63 42.28 284.41 43.98 284.76 45.16L282.58 45.9H291.05Z" stroke="#E8D09E" stroke-width="15" stroke-linecap="round" stroke-linejoin="round"/>
<path d="M335.24 33.71L330.52 35.02V45.72C330.52 48.21 330.08 49.48 328.64 50.22C327.2 51.05 325.1 51.18 322.09 51.18C321.96 49.83 321.26 47.82 320.65 46.46C322.35 46.55 324.1 46.55 324.67 46.55C325.28 46.55 325.5 46.33 325.5 45.72V36.42C323.84 36.86 322.31 37.21 320.87 37.6L319.56 32.67C321.26 32.32 323.32 31.84 325.5 31.32V23.46H320.26V18.61H325.5V10.44H330.52V18.61H334.71V23.46H330.52V30.05L334.58 29L335.24 33.72V33.71ZM359.96 20.09V50.79H354.81V47.95H340.7V51.09H335.72V20.08H345.15V10.43H350.04V20.08H359.95L359.96 20.09ZM340.7 25.02V31.35H345.15V25.02H340.7ZM340.7 42.97H345.15V36.2H340.7V42.97ZM350.04 25.02V31.35H354.8V25.02H350.04ZM354.8 42.97V36.2H350.04V42.97H354.8Z" stroke="#E8D09E" stroke-width="15" stroke-linecap="round" stroke-linejoin="round"/>
<path d="M65.6901 38.91C64.6001 42.05 62.8101 45.63 61.2801 47.86C60.4901 47.2 58.8301 46.07 57.8701 45.5C59.3501 43.45 60.8001 40.48 61.7101 37.77L65.6801 38.91H65.6901ZM71.8001 36.38V50.88H66.7801V36.38H58.6601V32.01H66.7801V28.65H58.4001V24.37H62.6401C62.4201 23.06 61.9001 21.18 61.3701 19.83L64.9501 18.96H59.0501V14.72H66.5201C66.1301 13.54 65.6501 12.32 65.2101 11.27L70.4101 10C71.0701 11.44 71.8501 13.23 72.3701 14.72H78.6201V18.96H73.1601L76.7001 19.66C76.0401 21.32 75.3901 23.02 74.7301 24.38H79.2701V28.66H71.8001V32.02H78.5701V36.39H71.8001V36.38ZM65.5201 18.95C66.1701 20.39 66.7401 22.27 66.9601 23.49L63.8201 24.36H70.1101C70.7701 22.79 71.5501 20.56 71.9901 18.94H65.5301L65.5201 18.95ZM98.7501 29.56H94.6901V51H89.6201V29.56H85.5601V30.08C85.5601 36.5 84.9901 45.5 81.2801 51.09C80.4101 50.17 78.3501 48.51 77.2601 47.99C78.0901 46.72 78.7401 45.28 79.2201 43.75L76.1201 45.67C75.4201 43.92 73.9401 41.13 72.7101 39.12L76.1201 37.29C77.3001 39.04 78.6501 41.35 79.4001 43.01C80.6201 38.82 80.7501 34.1 80.7501 30.08V14.53C85.5101 13.66 90.7901 12.3 93.9801 10.82L97.9501 14.62C94.3701 16.06 89.8301 17.11 85.5501 17.9V24.76H98.7401V29.56H98.7501Z" fill="black" stroke="white" stroke-width="10" stroke-linecap="round" stroke-linejoin="round"/>
<path d="M149.23 45.02C149.23 47.55 148.79 48.95 147.22 49.82C145.73 50.69 143.51 50.82 140.28 50.82C140.11 49.38 139.41 47.06 138.75 45.71C140.63 45.84 142.68 45.8 143.34 45.75C144 45.75 144.21 45.53 144.21 44.92V36.4H137.35C136.7 41.73 135.34 47.27 132.42 51.33C131.5 50.5 129.41 49.19 128.18 48.67C127.92 48.98 127.61 49.24 127.22 49.46C125.87 50.25 123.9 50.38 121.11 50.38C120.98 49.07 120.32 46.97 119.71 45.75C121.24 45.84 122.9 45.84 123.47 45.79C123.99 45.79 124.17 45.57 124.17 45.05V36.4H118.32C117.8 41.68 116.62 47.23 114.08 51.25C113.16 50.46 111.11 49.15 109.89 48.63C113.6 42.91 113.86 34.39 113.86 28.02V12.3H129.01V45.05C129.01 46.23 128.92 47.15 128.66 47.89C132.59 41.82 132.94 33.35 132.94 26.97V12.3H149.23V45.01V45.02ZM124.16 31.79V26.64H118.66V27.99C118.66 29.21 118.66 30.44 118.57 31.79H124.16ZM118.66 17.03V22.05H124.16V17.03H118.66ZM144.2 31.79V26.64H137.87V26.99C137.87 28.48 137.83 30.09 137.74 31.79H144.2ZM137.87 17.03V22.05H144.2V17.03H137.87Z" fill="black" stroke="white" stroke-width="10" stroke-linecap="round" stroke-linejoin="round"/>
<path d="M198.52 27.73C196.9 33.63 194.28 38.25 190.83 41.92C194.32 43.93 198.47 45.41 203.36 46.29C202.22 47.38 200.7 49.61 200 51.01C194.76 49.87 190.39 48.04 186.68 45.51C183.32 47.96 179.39 49.83 175.11 51.14C174.45 49.83 173.19 47.78 172.18 46.73C176.02 45.77 179.56 44.2 182.57 42.1C180.3 39.74 178.33 37.03 176.76 33.85C174.75 39.61 171.74 45.34 167.02 49.62C165.93 48.27 164.27 46.91 162.56 45.95C170.12 39.75 173 29.88 174.18 21.93H164.22V16.86H174.79C175.01 14.02 175.05 11.71 175.14 10.35H180.56C180.47 11.92 180.39 14.19 180.12 16.86H202.17V21.93H179.55C179.33 23.37 179.07 24.86 178.72 26.43H194.01L194.97 26.21L198.51 27.74L198.52 27.73ZM180.79 31.44C182.28 34.23 184.15 36.72 186.55 38.78C188.6 36.73 190.35 34.24 191.57 31.44H180.78H180.79Z" fill="black" stroke="white" stroke-width="10" stroke-linecap="round" stroke-linejoin="round"/>
<path d="M238.83 21C238.44 21.96 238 22.88 237.61 23.75H250.8V51.22H245.38V49.17H225.47V51.22H220.32V23.75H231.85C232.16 22.83 232.37 21.92 232.59 21H216V16.2H226C225.13 14.85 223.9 13.36 222.86 12.14L227.49 10.04C229.11 11.61 230.85 13.75 231.73 15.19L229.81 16.19H239.81C241.08 14.4 242.43 12.04 243.17 10.25L249.15 11.56C248.02 13.22 246.79 14.84 245.66 16.19H255.44V20.99H238.85L238.83 21ZM245.38 28.25H225.47V30.91H245.38V28.25ZM245.38 34.85H225.47V37.69H245.38V34.85ZM245.38 44.63V41.66H225.47V44.63H245.38Z" fill="black" stroke="white" stroke-width="10" stroke-linecap="round" stroke-linejoin="round"/>
<path d="M300.92 40.88H294.02L298.34 41.8C297.64 43.28 296.9 44.68 296.24 45.91H307.33V50.32H268.86V45.91H279.56C279.17 44.69 278.47 43.16 277.77 41.98L281.22 40.89H274.84V29.54C273.36 30.59 271.83 31.46 270.26 32.25C269.56 31.11 268.12 29.32 267.07 28.36C269.6 27.31 272.22 25.65 274.49 23.69C273.27 22.47 271.43 21.03 269.86 20.02L272.65 17.14C274.31 18.1 276.36 19.45 277.54 20.68C278.85 19.24 279.99 17.75 280.86 16.18H270.42V11.99H283.35L284.22 11.77L287.67 13.52C286.53 16.66 284.92 19.5 282.95 22.04H293.43C291.07 19.07 289.19 15.62 287.67 11.95L292.3 10.55C292.91 12.08 293.7 13.61 294.53 15.01C296.19 13.7 297.89 12.13 298.99 10.82L302.92 13.61C301 15.23 298.73 16.93 296.85 18.28C297.46 19.07 298.12 19.76 298.81 20.51C300.64 19.11 302.61 17.32 303.88 15.88L307.68 18.59C305.85 20.21 303.66 21.87 301.78 23.22C304.01 25.01 306.5 26.5 309.2 27.54C307.98 28.5 306.45 30.6 305.66 31.95C303.96 31.16 302.38 30.25 300.9 29.2V40.9L300.92 40.88ZM280.66 24.67C279.17 26.24 277.56 27.6 275.86 28.82H300.4C298.74 27.6 297.26 26.29 295.81 24.8V26.33H280.66V24.67ZM295.33 32.93H280.13V36.77H295.33V32.93ZM291.05 45.9C291.88 44.37 292.8 42.36 293.32 40.88H282.71C283.63 42.28 284.41 43.98 284.76 45.16L282.58 45.9H291.05Z" fill="black" stroke="white" stroke-width="10" stroke-linecap="round" stroke-linejoin="round"/>
<path d="M335.24 33.71L330.52 35.02V45.72C330.52 48.21 330.08 49.48 328.64 50.22C327.2 51.05 325.1 51.18 322.09 51.18C321.96 49.83 321.26 47.82 320.65 46.46C322.35 46.55 324.1 46.55 324.67 46.55C325.28 46.55 325.5 46.33 325.5 45.72V36.42C323.84 36.86 322.31 37.21 320.87 37.6L319.56 32.67C321.26 32.32 323.32 31.84 325.5 31.32V23.46H320.26V18.61H325.5V10.44H330.52V18.61H334.71V23.46H330.52V30.05L334.58 29L335.24 33.72V33.71ZM359.96 20.09V50.79H354.81V47.95H340.7V51.09H335.72V20.08H345.15V10.43H350.04V20.08H359.95L359.96 20.09ZM340.7 25.02V31.35H345.15V25.02H340.7ZM340.7 42.97H345.15V36.2H340.7V42.97ZM350.04 25.02V31.35H354.8V25.02H350.04ZM354.8 42.97V36.2H350.04V42.97H354.8Z" fill="black" stroke="white" stroke-width="10" stroke-linecap="round" stroke-linejoin="round"/>
<path d="M65.6901 38.91C64.6001 42.05 62.8101 45.63 61.2801 47.86C60.4901 47.2 58.8301 46.07 57.8701 45.5C59.3501 43.45 60.8001 40.48 61.7101 37.77L65.6801 38.91H65.6901ZM71.8001 36.38V50.88H66.7801V36.38H58.6601V32.01H66.7801V28.65H58.4001V24.37H62.6401C62.4201 23.06 61.9001 21.18 61.3701 19.83L64.9501 18.96H59.0501V14.72H66.5201C66.1301 13.54 65.6501 12.32 65.2101 11.27L70.4101 10C71.0601 11.44 71.8501 13.23 72.3701 14.72H78.6101V18.96H73.1501L76.6901 19.66C76.0301 21.32 75.3801 23.02 74.7201 24.38H79.2601V28.66H71.7901V32.02H78.5601V36.39H71.7901L71.8001 36.38ZM65.5201 18.95C66.1701 20.39 66.7401 22.27 66.9601 23.49L63.8201 24.36H70.1101C70.7701 22.79 71.5501 20.56 71.9901 18.94H65.5301L65.5201 18.95ZM98.7501 29.56H94.6901V51H89.6201V29.56H85.5601V30.08C85.5601 36.5 84.9901 45.5 81.2801 51.09C80.4101 50.17 78.3501 48.51 77.2601 47.99C78.0901 46.72 78.7401 45.28 79.2201 43.75L76.1201 45.67C75.4201 43.92 73.9401 41.13 72.7101 39.12L76.1201 37.29C77.3001 39.04 78.6501 41.35 79.4001 43.01C80.6201 38.82 80.7501 34.1 80.7501 30.08V14.53C85.5101 13.66 90.7901 12.3 93.9801 10.82L97.9501 14.62C94.3701 16.06 89.8301 17.11 85.5501 17.9V24.76H98.7401V29.56H98.7501Z" fill="black"/>
<path d="M149.23 45.02C149.23 47.55 148.79 48.95 147.22 49.82C145.73 50.69 143.51 50.82 140.28 50.82C140.1 49.38 139.4 47.06 138.75 45.71C140.63 45.84 142.68 45.8 143.34 45.75C143.99 45.75 144.21 45.53 144.21 44.92V36.4H137.35C136.7 41.73 135.34 47.27 132.42 51.33C131.5 50.5 129.41 49.19 128.18 48.67C127.92 48.98 127.61 49.24 127.22 49.46C125.87 50.25 123.9 50.38 121.11 50.38C120.98 49.07 120.32 46.97 119.71 45.75C121.24 45.84 122.9 45.84 123.47 45.79C124 45.79 124.17 45.57 124.17 45.05V36.4H118.32C117.79 41.68 116.62 47.23 114.08 51.25C113.16 50.46 111.11 49.15 109.89 48.63C113.6 42.91 113.86 34.39 113.86 28.02V12.3H129.01V45.05C129.01 46.23 128.92 47.15 128.66 47.89C132.59 41.82 132.94 33.35 132.94 26.97V12.3H149.23V45.01V45.02ZM124.16 31.79V26.64H118.66V27.99C118.66 29.21 118.66 30.44 118.57 31.79H124.16ZM118.66 17.03V22.05H124.16V17.03H118.66ZM144.2 31.79V26.64H137.87V26.99C137.87 28.48 137.83 30.09 137.74 31.79H144.2ZM137.87 17.03V22.05H144.2V17.03H137.87Z" fill="black"/>
<path d="M198.53 27.73C196.91 33.63 194.29 38.25 190.84 41.92C194.33 43.93 198.48 45.41 203.38 46.29C202.24 47.38 200.72 49.61 200.02 51.01C194.78 49.87 190.41 48.04 186.7 45.51C183.34 47.96 179.41 49.83 175.13 51.14C174.48 49.83 173.21 47.78 172.2 46.73C176.04 45.77 179.58 44.2 182.59 42.1C180.32 39.74 178.35 37.03 176.78 33.85C174.77 39.61 171.76 45.34 167.04 49.62C165.95 48.27 164.29 46.91 162.58 45.95C170.13 39.75 173.02 29.88 174.2 21.93H164.24V16.86H174.81C175.03 14.02 175.07 11.71 175.16 10.35H180.58C180.49 11.92 180.41 14.19 180.14 16.86H202.19V21.93H179.57C179.35 23.37 179.09 24.86 178.74 26.43H194.03L194.99 26.21L198.53 27.74V27.73ZM180.79 31.44C182.27 34.23 184.15 36.72 186.55 38.78C188.6 36.73 190.35 34.24 191.57 31.44H180.78H180.79Z" fill="black"/>
<path d="M238.83 21C238.44 21.96 238 22.88 237.61 23.75H250.8V51.22H245.39V49.17H225.48V51.22H220.33V23.75H231.86C232.17 22.83 232.38 21.92 232.6 21H216.01V16.2H226.01C225.14 14.85 223.91 13.36 222.87 12.14L227.5 10.04C229.12 11.61 230.86 13.75 231.74 15.19L229.82 16.19H239.82C241.09 14.4 242.44 12.04 243.18 10.25L249.16 11.56C248.03 13.22 246.8 14.84 245.67 16.19H255.45V20.99H238.86L238.83 21ZM245.38 28.25H225.47V30.91H245.38V28.25ZM245.38 34.85H225.47V37.69H245.38V34.85ZM245.38 44.63V41.66H225.47V44.63H245.38Z" fill="#FF1A1A"/>
<path d="M300.92 40.87H294.02L298.34 41.79C297.64 43.27 296.9 44.67 296.24 45.9H307.33V50.31H268.86V45.9H279.56C279.17 44.68 278.47 43.15 277.77 41.97L281.22 40.88H274.84V29.53C273.36 30.58 271.83 31.45 270.25 32.24C269.55 31.1 268.11 29.31 267.06 28.35C269.59 27.3 272.21 25.64 274.48 23.68C273.26 22.46 271.42 21.02 269.85 20.01L272.64 17.13C274.3 18.09 276.35 19.44 277.53 20.67C278.84 19.23 279.98 17.74 280.85 16.17H270.41V11.98H283.34L284.21 11.76L287.66 13.51C286.52 16.65 284.91 19.49 282.94 22.03H293.42C291.06 19.06 289.18 15.61 287.66 11.94L292.29 10.54C292.9 12.07 293.69 13.6 294.52 15C296.18 13.69 297.88 12.12 298.98 10.81L302.91 13.6C300.99 15.22 298.72 16.92 296.84 18.27C297.45 19.06 298.11 19.75 298.8 20.5C300.63 19.1 302.6 17.31 303.87 15.87L307.67 18.58C305.84 20.2 303.65 21.86 301.78 23.21C304.01 25 306.49 26.49 309.2 27.53C307.98 28.49 306.45 30.59 305.66 31.94C303.96 31.15 302.38 30.24 300.9 29.19V40.89L300.92 40.87ZM280.66 24.67C279.17 26.24 277.56 27.6 275.86 28.82H300.4C298.74 27.6 297.26 26.29 295.81 24.8V26.33H280.66V24.67ZM295.33 32.93H280.13V36.77H295.33V32.93ZM291.05 45.9C291.88 44.37 292.8 42.36 293.32 40.88H282.71C283.63 42.28 284.41 43.98 284.76 45.16L282.58 45.9H291.05Z" fill="#FF1A1A"/>
<path d="M335.24 33.71L330.52 35.02V45.72C330.52 48.21 330.08 49.48 328.64 50.22C327.2 51.05 325.1 51.18 322.09 51.18C321.96 49.83 321.26 47.82 320.65 46.46C322.35 46.55 324.1 46.55 324.67 46.55C325.28 46.55 325.5 46.33 325.5 45.72V36.42C323.84 36.86 322.31 37.21 320.87 37.6L319.56 32.67C321.26 32.32 323.32 31.84 325.5 31.32V23.46H320.26V18.61H325.5V10.44H330.52V18.61H334.71V23.46H330.52V30.05L334.58 29L335.24 33.72V33.71ZM359.96 20.09V50.79H354.81V47.95H340.7V51.09H335.72V20.08H345.15V10.43H350.04V20.08H359.95L359.96 20.09ZM340.7 25.02V31.35H345.15V25.02H340.7ZM340.7 42.97H345.15V36.2H340.7V42.97ZM350.04 25.02V31.35H354.8V25.02H350.04ZM354.8 42.97V36.2H350.04V42.97H354.8Z" fill="#FF1A1A"/>
</g>
<defs>
<clipPath id="clip0_29_6730">
<rect width="419.67" height="61.36" fill="white"/>
</clipPath>
</defs>
</svg>
