<svg width="46" height="46" viewBox="0 0 46 46" fill="none" xmlns="http://www.w3.org/2000/svg">
<g clip-path="url(#clip0_43_3834)">
<path d="M44.5 23C44.5 11.1259 34.8741 1.5 23 1.5C11.1259 1.5 1.5 11.1259 1.5 23C1.5 34.8741 11.1259 44.5 23 44.5C34.8741 44.5 44.5 34.8741 44.5 23Z" stroke="#292929" stroke-width="3"/>
<path d="M4.5 23C4.5 12.7827 12.7827 4.5 23 4.5C33.2173 4.5 41.5 12.7827 41.5 23C41.5 33.2173 33.2173 41.5 23 41.5C12.7827 41.5 4.5 33.2173 4.5 23Z" fill="black"/>
<path d="M4.5 23C4.5 12.7827 12.7827 4.5 23 4.5C33.2173 4.5 41.5 12.7827 41.5 23C41.5 33.2173 33.2173 41.5 23 41.5C12.7827 41.5 4.5 33.2173 4.5 23Z" stroke="white" stroke-width="3"/>
<path d="M27.6103 22.1875C28.2453 22.5822 28.2384 23.5089 27.5974 23.894L24.0495 26.0256L20.5075 28.112C19.8409 28.5047 19 28.0241 19 27.2504V23.0513V18.7496C19 17.9759 19.8409 17.4953 20.5075 17.888L24.0495 19.9744L27.6103 22.1875Z" fill="white"/>
</g>
<defs>
<clipPath id="clip0_43_3834">
<rect width="46" height="46" fill="white"/>
</clipPath>
</defs>
</svg>
