<svg width="635" height="63" viewBox="0 0 635 63" fill="none" xmlns="http://www.w3.org/2000/svg">
<g clip-path="url(#clip0_40_3898)">
<path d="M98.55 36.5101C98.42 38.3401 98.33 39.8701 98.2 41.2701H103.09V45.8101H97.67C97.36 47.6401 97.01 48.7401 96.53 49.3901C95.57 50.7901 94.39 51.2201 92.91 51.4401C91.47 51.6601 89.29 51.6601 87.06 51.5301C87.02 50.3901 86.49 48.6901 85.84 47.5601C87.8 47.7301 89.51 47.7801 90.43 47.7301C91.17 47.7301 91.52 47.6401 91.96 47.0301C92.13 46.7701 92.31 46.4201 92.48 45.8101H68.99C69.51 43.2301 70.04 39.9601 70.56 36.5101H64.53V31.8801H71.21C71.56 29.2601 71.87 26.5501 72.13 24.1501C71.04 25.5001 69.95 26.7301 68.9 27.8201C67.81 26.9901 65.49 25.5001 64.23 24.8101C68.25 21.4501 72.05 15.9401 74.27 10.5701L79.42 12.0501C79.03 12.9201 78.59 13.8401 78.15 14.7601H103.35V19.3901H75.44C74.7 20.5701 73.96 21.6601 73.17 22.7501H99.02C99.02 22.7501 98.98 24.4101 98.98 25.0201C98.89 27.5501 98.81 29.7801 98.72 31.8801H105.01V36.5101H98.55ZM75.75 36.3301C75.49 38.0801 75.27 39.6901 75.01 41.2601H84.57C83.04 40.0801 81.12 38.8601 79.37 38.0301L81.12 36.3301H75.75ZM76.93 27.2901C76.76 28.8601 76.54 30.4301 76.32 32.0501H85.01C83.48 30.9201 81.65 29.7801 79.94 29.0401L81.73 27.2901H76.93ZM93.13 41.2701C93.22 39.8701 93.35 38.3001 93.44 36.3401H84.36C86.37 37.4301 88.29 38.7401 89.47 39.7901L87.98 41.2801H93.13V41.2701ZM93.61 32.0501C93.7 30.5701 93.74 29.0401 93.78 27.2901H84.91C86.83 28.2901 88.71 29.5601 89.89 30.5701L88.4 32.0501H93.6H93.61Z" stroke="black" stroke-width="20" stroke-linecap="round" stroke-linejoin="round"/>
<path d="M151.91 44.9401C151.91 48.0801 151.17 49.5701 149.16 50.4401C147.06 51.3601 144.01 51.4401 139.51 51.4401C139.2 49.9101 138.16 47.4201 137.33 45.9801C140.39 46.1501 144.06 46.1101 145.02 46.1101C146.07 46.1101 146.42 45.7601 146.42 44.8401V38.5101H127.73C126.59 43.4001 124.41 48.1601 120.35 51.5701C119.56 50.4801 117.47 48.5601 116.33 47.8101C122.92 42.1801 123.54 33.8401 123.54 27.2001V12.8301H151.93V44.9301L151.91 44.9401ZM146.4 33.5001V28.1701H128.89C128.85 29.8301 128.76 31.6601 128.58 33.5001H146.4ZM128.89 17.9001V23.2301H146.4V17.9001H128.89Z" stroke="black" stroke-width="20" stroke-linecap="round" stroke-linejoin="round"/>
<path d="M207.89 33.9801C206.67 38.1701 204.7 41.5801 202.21 44.3301C204.39 45.7301 206.93 46.7801 209.76 47.4701C208.71 48.4301 207.36 50.3101 206.7 51.5301C203.6 50.6101 200.94 49.3001 198.62 47.5601C196.39 49.1801 193.9 50.4901 191.24 51.4501C190.72 50.4001 189.71 48.9201 188.84 47.9101V51.5801H183.86V47.9101C178.84 48.4301 173.86 48.9601 170.02 49.3501L169.54 44.9401C170.72 44.8501 172.03 44.7701 173.43 44.6801V31.3201H170.02V27.2101H208.97V31.3201H188.84V47.3001C191.11 46.5601 193.21 45.5501 195.08 44.2401C193.46 42.3201 192.11 40.1301 191.06 37.6901L193.94 36.9001H189.75V32.9301H203.81L204.68 32.7601L207.87 33.9801H207.89ZM179.33 26.1601H174.35V12.1001H204.83V26.1601H199.59V15.7201H179.33V26.1601ZM178.15 31.3101V33.0101H183.87V31.3101H178.15ZM178.15 38.4301H183.87V36.6401H178.15V38.4301ZM178.15 44.3301C179.98 44.1601 181.91 44.0201 183.87 43.8501V42.0201H178.15V44.3301ZM198.15 20.4801H180.77V17.4201H198.15V20.4801ZM180.77 22.1801H198.02V25.4101H180.77V22.1801ZM195.4 36.9001C196.19 38.5201 197.23 40.0001 198.5 41.3101C199.72 40.0001 200.77 38.5201 201.6 36.9001H195.4Z" stroke="black" stroke-width="20" stroke-linecap="round" stroke-linejoin="round"/>
<path d="M261.12 14.85V19.22H222.56V14.85H239.37C239.02 13.8 238.67 12.71 238.32 11.79L243.69 10.48C244.17 11.83 244.87 13.45 245.39 14.85H261.11H261.12ZM260.11 46.81C260.11 49.08 259.54 50 257.88 50.65C256.31 51.17 253.95 51.22 250.94 51.17C250.68 50.03 249.98 48.55 249.41 47.5H236.92V49.33H232.12V37.8H251.12V47.5H250.51C252.04 47.54 253.57 47.54 254 47.5C254.61 47.5 254.87 47.33 254.87 46.76V36.19H228.8V51.52H223.78V32H260.11V46.8V46.81ZM255.92 30.22H228.36V20.87H255.92V30.22ZM250.46 24.37H233.56V26.77H250.46V24.37ZM246.53 41.44H236.92V43.93H246.53V41.44Z" stroke="black" stroke-width="20" stroke-linecap="round" stroke-linejoin="round"/>
<path d="M314.74 41.6199H309.76V45.9399C309.76 48.5599 309.19 49.9599 307.36 50.7399C305.61 51.5699 302.99 51.6099 299.32 51.6099C299.06 50.2099 298.27 48.0299 297.53 46.7199C299.93 46.8499 302.73 46.8099 303.51 46.8099C304.29 46.8099 304.56 46.5899 304.56 45.8499V41.6099H283.99V51.6099H278.84V41.6099H273.86V36.8099H278.84V20.7799H291.55V17.8999H275.65V13.1399H312.99V17.8999H296.74V20.7799H309.75V36.8099H314.73V41.6099L314.74 41.6199ZM283.99 25.4599V28.8699H291.54V25.4599H283.99ZM283.99 36.8099H291.54V33.2699H283.99V36.8099ZM296.75 25.4599V28.8699H304.57V25.4599H296.75ZM304.56 36.8099V33.2699H296.74V36.8099H304.56Z" stroke="black" stroke-width="20" stroke-linecap="round" stroke-linejoin="round"/>
<path d="M350.54 11.97C350.32 12.19 350.06 12.45 349.84 12.67C354.03 15.33 361.19 17.69 367.31 18.87C366.35 19.79 365 21.53 364.38 22.71C361.93 22.14 359.31 21.31 356.78 20.35V21.48H336.87V20.26C334.38 21.22 331.67 22.09 329.01 22.79C328.44 21.74 327.13 19.95 326.26 19.12C334.38 17.15 342.37 13.97 346.39 9.98999L350.54 11.96V11.97ZM349.27 42.01H366.04V45.55H349.27V46.99C349.27 49.35 348.7 50.35 346.96 50.96C345.26 51.57 342.85 51.62 339.54 51.57C339.28 50.35 338.54 48.69 337.88 47.6C339.98 47.69 342.55 47.69 343.16 47.69C343.86 47.65 344.12 47.47 344.12 46.86V45.55H327.39V42.01H344.12V40.39H330.06V36.9H344.12V35.37C339.97 35.54 335.74 35.59 331.8 35.54C331.76 34.62 331.32 33.23 330.93 32.4C340.58 32.49 352.11 32.05 358.27 30.96L361.63 33.75C358.09 34.41 353.81 34.84 349.27 35.1V36.89H363.64V40.38H349.27V42V42.01ZM360.45 30.79H332.94V22.93H360.45V30.79ZM355.3 25.94H337.79V27.73H355.3V25.94ZM352.33 18.47C350.28 17.47 348.31 16.37 346.61 15.28C344.91 16.42 343.03 17.51 341.02 18.47H352.33Z" stroke="black" stroke-width="20" stroke-linecap="round" stroke-linejoin="round"/>
<path d="M380.5 47.78V16.52H386.64L399.43 37.39V16.52H405.29V47.78H398.96L386.36 27.4V47.78H380.5Z" stroke="black" stroke-width="20" stroke-linecap="round" stroke-linejoin="round"/>
<path d="M427.74 47.78V21.81H418.47V16.52H443.31V21.81H434.06V47.78H427.75H427.74Z" stroke="black" stroke-width="20" stroke-linecap="round" stroke-linejoin="round"/>
<path d="M463.36 43.15V34.22C460.57 33.42 458.53 32.22 457.23 30.61C455.93 29 455.28 27.04 455.28 24.74C455.28 22.44 456.02 20.45 457.49 18.87C458.96 17.29 460.92 16.37 463.36 16.13V14.02H466.45V16.13C468.71 16.4 470.51 17.17 471.84 18.44C473.18 19.71 474.03 21.41 474.4 23.55L469.01 24.25C468.68 22.57 467.83 21.44 466.45 20.84V29.18C469.86 30.1 472.19 31.3 473.42 32.77C474.66 34.24 475.28 36.13 475.28 38.43C475.28 41 474.5 43.17 472.95 44.93C471.39 46.69 469.23 47.77 466.46 48.17V52.16H463.37V48.28C460.91 47.98 458.91 47.07 457.38 45.53C455.85 43.99 454.86 41.83 454.44 39.03L460.01 38.43C460.24 39.57 460.66 40.55 461.29 41.37C461.91 42.2 462.61 42.79 463.38 43.16L463.36 43.15ZM463.36 20.76C462.52 21.04 461.85 21.53 461.36 22.21C460.86 22.89 460.61 23.65 460.61 24.47C460.61 25.22 460.84 25.92 461.29 26.57C461.75 27.22 462.43 27.74 463.36 28.14V20.76ZM466.45 43.45C467.52 43.25 468.38 42.76 469.05 41.97C469.72 41.18 470.05 40.25 470.05 39.19C470.05 38.24 469.77 37.42 469.21 36.73C468.65 36.04 467.73 35.51 466.45 35.14V43.46V43.45Z" stroke="black" stroke-width="20" stroke-linecap="round" stroke-linejoin="round"/>
<path d="M508.1 24.1699L502.3 24.8099C502.16 23.6199 501.79 22.7299 501.19 22.1699C500.59 21.5999 499.82 21.3199 498.87 21.3199C497.6 21.3199 496.54 21.8899 495.66 23.0299C494.79 24.1699 494.23 26.5299 494.01 30.1299C495.5 28.3699 497.36 27.4899 499.57 27.4899C502.07 27.4899 504.21 28.4399 506 30.3499C507.78 32.2499 508.68 34.7099 508.68 37.7299C508.68 40.9299 507.74 43.4899 505.87 45.4299C503.99 47.3599 501.58 48.3299 498.64 48.3299C495.48 48.3299 492.89 47.0999 490.86 44.6499C488.83 42.1999 487.81 38.1799 487.81 32.5899C487.81 26.9999 488.87 22.7299 490.99 20.1999C493.11 17.6699 495.86 16.4099 499.24 16.4099C501.61 16.4099 503.58 17.0799 505.14 18.3999C506.7 19.7299 507.69 21.6599 508.11 24.1899L508.1 24.1699ZM494.52 37.2399C494.52 39.1899 494.97 40.6899 495.86 41.7499C496.76 42.8099 497.78 43.3399 498.93 43.3399C500.08 43.3399 500.96 42.9099 501.7 42.0399C502.44 41.1699 502.81 39.7499 502.81 37.7799C502.81 35.8099 502.41 34.2599 501.62 33.3099C500.82 32.3699 499.83 31.8899 498.64 31.8899C497.45 31.8899 496.51 32.3399 495.72 33.2399C494.93 34.1399 494.53 35.4799 494.53 37.2399H494.52Z" stroke="black" stroke-width="20" stroke-linecap="round" stroke-linejoin="round"/>
<path d="M530.95 16.3899C533.98 16.3899 536.34 17.4699 538.05 19.6299C540.08 22.1899 541.1 26.4299 541.1 32.3599C541.1 38.2899 540.08 42.5199 538.03 45.1099C536.34 47.2399 533.98 48.3099 530.95 48.3099C527.92 48.3099 525.46 47.1399 523.59 44.7999C521.73 42.4599 520.8 38.2899 520.8 32.2999C520.8 26.3099 521.82 22.1799 523.87 19.5899C525.56 17.4599 527.92 16.3899 530.95 16.3899ZM530.95 21.3599C530.23 21.3599 529.58 21.5899 529.01 22.0499C528.44 22.5099 528 23.3399 527.69 24.5299C527.28 26.0799 527.07 28.6899 527.07 32.3599C527.07 36.0299 527.25 38.5499 527.62 39.9199C527.99 41.2899 528.45 42.1999 529.02 42.6599C529.59 43.1199 530.23 43.3399 530.95 43.3399C531.67 43.3399 532.32 43.1099 532.89 42.6499C533.46 42.1899 533.9 41.3599 534.21 40.1699C534.62 38.6299 534.83 36.0299 534.83 32.3699C534.83 28.7099 534.64 26.1799 534.28 24.8099C533.91 23.4399 533.45 22.5199 532.88 22.0599C532.31 21.5999 531.67 21.3699 530.95 21.3699V21.3599Z" stroke="black" stroke-width="20" stroke-linecap="round" stroke-linejoin="round"/>
<path d="M563.97 16.3899C567 16.3899 569.36 17.4699 571.07 19.6299C573.1 22.1899 574.12 26.4299 574.12 32.3599C574.12 38.2899 573.1 42.5199 571.05 45.1099C569.36 47.2399 567 48.3099 563.97 48.3099C560.94 48.3099 558.48 47.1399 556.61 44.7999C554.75 42.4599 553.82 38.2899 553.82 32.2999C553.82 26.3099 554.84 22.1799 556.89 19.5899C558.58 17.4599 560.94 16.3899 563.97 16.3899ZM563.97 21.3599C563.25 21.3599 562.6 21.5899 562.03 22.0499C561.46 22.5099 561.02 23.3399 560.71 24.5299C560.3 26.0799 560.09 28.6899 560.09 32.3599C560.09 36.0299 560.27 38.5499 560.64 39.9199C561.01 41.2899 561.47 42.1999 562.04 42.6599C562.61 43.1199 563.25 43.3399 563.97 43.3399C564.69 43.3399 565.34 43.1099 565.91 42.6499C566.48 42.1899 566.92 41.3599 567.23 40.1699C567.64 38.6299 567.85 36.0299 567.85 32.3699C567.85 28.7099 567.66 26.1799 567.3 24.8099C566.93 23.4399 566.47 22.5199 565.9 22.0599C565.33 21.5999 564.69 21.3699 563.97 21.3699V21.3599Z" stroke="black" stroke-width="20" stroke-linecap="round" stroke-linejoin="round"/>
<path d="M98.55 36.5101C98.42 38.3401 98.33 39.8701 98.2 41.2701H103.09V45.8101H97.67C97.36 47.6401 97.01 48.7401 96.53 49.3901C95.57 50.7901 94.39 51.2201 92.91 51.4401C91.47 51.6601 89.29 51.6601 87.06 51.5301C87.02 50.3901 86.49 48.6901 85.84 47.5601C87.8 47.7301 89.51 47.7801 90.43 47.7301C91.17 47.7301 91.52 47.6401 91.96 47.0301C92.13 46.7701 92.31 46.4201 92.48 45.8101H68.99C69.51 43.2301 70.04 39.9601 70.56 36.5101H64.53V31.8801H71.21C71.56 29.2601 71.87 26.5501 72.13 24.1501C71.04 25.5001 69.95 26.7301 68.9 27.8201C67.81 26.9901 65.49 25.5001 64.23 24.8101C68.25 21.4501 72.05 15.9401 74.27 10.5701L79.42 12.0501C79.03 12.9201 78.59 13.8401 78.15 14.7601H103.35V19.3901H75.44C74.7 20.5701 73.96 21.6601 73.17 22.7501H99.02C99.02 22.7501 98.98 24.4101 98.98 25.0201C98.89 27.5501 98.81 29.7801 98.72 31.8801H105.01V36.5101H98.55ZM75.75 36.3301C75.49 38.0801 75.27 39.6901 75.01 41.2601H84.57C83.04 40.0801 81.12 38.8601 79.37 38.0301L81.12 36.3301H75.75ZM76.93 27.2901C76.76 28.8601 76.54 30.4301 76.32 32.0501H85.01C83.48 30.9201 81.65 29.7801 79.94 29.0401L81.73 27.2901H76.93ZM93.13 41.2701C93.22 39.8701 93.35 38.3001 93.44 36.3401H84.36C86.37 37.4301 88.29 38.7401 89.47 39.7901L87.98 41.2801H93.13V41.2701ZM93.61 32.0501C93.7 30.5701 93.74 29.0401 93.78 27.2901H84.91C86.83 28.2901 88.71 29.5601 89.89 30.5701L88.4 32.0501H93.6H93.61Z" stroke="#E8D09E" stroke-width="15" stroke-linecap="round" stroke-linejoin="round"/>
<path d="M151.91 44.9401C151.91 48.0801 151.17 49.5701 149.16 50.4401C147.06 51.3601 144.01 51.4401 139.51 51.4401C139.2 49.9101 138.16 47.4201 137.33 45.9801C140.39 46.1501 144.06 46.1101 145.02 46.1101C146.07 46.1101 146.42 45.7601 146.42 44.8401V38.5101H127.73C126.59 43.4001 124.41 48.1601 120.35 51.5701C119.56 50.4801 117.47 48.5601 116.33 47.8101C122.92 42.1801 123.54 33.8401 123.54 27.2001V12.8301H151.93V44.9301L151.91 44.9401ZM146.4 33.5001V28.1701H128.89C128.85 29.8301 128.76 31.6601 128.58 33.5001H146.4ZM128.89 17.9001V23.2301H146.4V17.9001H128.89Z" stroke="#E8D09E" stroke-width="15" stroke-linecap="round" stroke-linejoin="round"/>
<path d="M207.89 33.9801C206.67 38.1701 204.7 41.5801 202.21 44.3301C204.39 45.7301 206.93 46.7801 209.76 47.4701C208.71 48.4301 207.36 50.3101 206.7 51.5301C203.6 50.6101 200.94 49.3001 198.62 47.5601C196.39 49.1801 193.9 50.4901 191.24 51.4501C190.72 50.4001 189.71 48.9201 188.84 47.9101V51.5801H183.86V47.9101C178.84 48.4301 173.86 48.9601 170.02 49.3501L169.54 44.9401C170.72 44.8501 172.03 44.7701 173.43 44.6801V31.3201H170.02V27.2101H208.97V31.3201H188.84V47.3001C191.11 46.5601 193.21 45.5501 195.08 44.2401C193.46 42.3201 192.11 40.1301 191.06 37.6901L193.94 36.9001H189.75V32.9301H203.81L204.68 32.7601L207.87 33.9801H207.89ZM179.33 26.1601H174.35V12.1001H204.83V26.1601H199.59V15.7201H179.33V26.1601ZM178.15 31.3101V33.0101H183.87V31.3101H178.15ZM178.15 38.4301H183.87V36.6401H178.15V38.4301ZM178.15 44.3301C179.98 44.1601 181.91 44.0201 183.87 43.8501V42.0201H178.15V44.3301ZM198.15 20.4801H180.77V17.4201H198.15V20.4801ZM180.77 22.1801H198.02V25.4101H180.77V22.1801ZM195.4 36.9001C196.19 38.5201 197.23 40.0001 198.5 41.3101C199.72 40.0001 200.77 38.5201 201.6 36.9001H195.4Z" stroke="#E8D09E" stroke-width="15" stroke-linecap="round" stroke-linejoin="round"/>
<path d="M261.12 14.85V19.22H222.56V14.85H239.37C239.02 13.8 238.67 12.71 238.32 11.79L243.69 10.48C244.17 11.83 244.87 13.45 245.39 14.85H261.11H261.12ZM260.11 46.81C260.11 49.08 259.54 50 257.88 50.65C256.31 51.17 253.95 51.22 250.94 51.17C250.68 50.03 249.98 48.55 249.41 47.5H236.92V49.33H232.12V37.8H251.12V47.5H250.51C252.04 47.54 253.57 47.54 254 47.5C254.61 47.5 254.87 47.33 254.87 46.76V36.19H228.8V51.52H223.78V32H260.11V46.8V46.81ZM255.92 30.22H228.36V20.87H255.92V30.22ZM250.46 24.37H233.56V26.77H250.46V24.37ZM246.53 41.44H236.92V43.93H246.53V41.44Z" stroke="#E8D09E" stroke-width="15" stroke-linecap="round" stroke-linejoin="round"/>
<path d="M314.74 41.6199H309.76V45.9399C309.76 48.5599 309.19 49.9599 307.36 50.7399C305.61 51.5699 302.99 51.6099 299.32 51.6099C299.06 50.2099 298.27 48.0299 297.53 46.7199C299.93 46.8499 302.73 46.8099 303.51 46.8099C304.29 46.8099 304.56 46.5899 304.56 45.8499V41.6099H283.99V51.6099H278.84V41.6099H273.86V36.8099H278.84V20.7799H291.55V17.8999H275.65V13.1399H312.99V17.8999H296.74V20.7799H309.75V36.8099H314.73V41.6099L314.74 41.6199ZM283.99 25.4599V28.8699H291.54V25.4599H283.99ZM283.99 36.8099H291.54V33.2699H283.99V36.8099ZM296.75 25.4599V28.8699H304.57V25.4599H296.75ZM304.56 36.8099V33.2699H296.74V36.8099H304.56Z" stroke="#E8D09E" stroke-width="15" stroke-linecap="round" stroke-linejoin="round"/>
<path d="M350.54 11.97C350.32 12.19 350.06 12.45 349.84 12.67C354.03 15.33 361.19 17.69 367.31 18.87C366.35 19.79 365 21.53 364.38 22.71C361.93 22.14 359.31 21.31 356.78 20.35V21.48H336.87V20.26C334.38 21.22 331.67 22.09 329.01 22.79C328.44 21.74 327.13 19.95 326.26 19.12C334.38 17.15 342.37 13.97 346.39 9.98999L350.54 11.96V11.97ZM349.27 42.01H366.04V45.55H349.27V46.99C349.27 49.35 348.7 50.35 346.96 50.96C345.26 51.57 342.85 51.62 339.54 51.57C339.28 50.35 338.54 48.69 337.88 47.6C339.98 47.69 342.55 47.69 343.16 47.69C343.86 47.65 344.12 47.47 344.12 46.86V45.55H327.39V42.01H344.12V40.39H330.06V36.9H344.12V35.37C339.97 35.54 335.74 35.59 331.8 35.54C331.76 34.62 331.32 33.23 330.93 32.4C340.58 32.49 352.11 32.05 358.27 30.96L361.63 33.75C358.09 34.41 353.81 34.84 349.27 35.1V36.89H363.64V40.38H349.27V42V42.01ZM360.45 30.79H332.94V22.93H360.45V30.79ZM355.3 25.94H337.79V27.73H355.3V25.94ZM352.33 18.47C350.28 17.47 348.31 16.37 346.61 15.28C344.91 16.42 343.03 17.51 341.02 18.47H352.33Z" stroke="#E8D09E" stroke-width="15" stroke-linecap="round" stroke-linejoin="round"/>
<path d="M380.5 47.78V16.52H386.64L399.43 37.39V16.52H405.29V47.78H398.96L386.36 27.4V47.78H380.5Z" stroke="#E8D09E" stroke-width="15" stroke-linecap="round" stroke-linejoin="round"/>
<path d="M427.74 47.78V21.81H418.47V16.52H443.31V21.81H434.06V47.78H427.75H427.74Z" stroke="#E8D09E" stroke-width="15" stroke-linecap="round" stroke-linejoin="round"/>
<path d="M463.36 43.15V34.22C460.57 33.42 458.53 32.22 457.23 30.61C455.93 29 455.28 27.04 455.28 24.74C455.28 22.44 456.02 20.45 457.49 18.87C458.96 17.29 460.92 16.37 463.36 16.13V14.02H466.45V16.13C468.71 16.4 470.51 17.17 471.84 18.44C473.18 19.71 474.03 21.41 474.4 23.55L469.01 24.25C468.68 22.57 467.83 21.44 466.45 20.84V29.18C469.86 30.1 472.19 31.3 473.42 32.77C474.66 34.24 475.28 36.13 475.28 38.43C475.28 41 474.5 43.17 472.95 44.93C471.39 46.69 469.23 47.77 466.46 48.17V52.16H463.37V48.28C460.91 47.98 458.91 47.07 457.38 45.53C455.85 43.99 454.86 41.83 454.44 39.03L460.01 38.43C460.24 39.57 460.66 40.55 461.29 41.37C461.91 42.2 462.61 42.79 463.38 43.16L463.36 43.15ZM463.36 20.76C462.52 21.04 461.85 21.53 461.36 22.21C460.86 22.89 460.61 23.65 460.61 24.47C460.61 25.22 460.84 25.92 461.29 26.57C461.75 27.22 462.43 27.74 463.36 28.14V20.76ZM466.45 43.45C467.52 43.25 468.38 42.76 469.05 41.97C469.72 41.18 470.05 40.25 470.05 39.19C470.05 38.24 469.77 37.42 469.21 36.73C468.65 36.04 467.73 35.51 466.45 35.14V43.46V43.45Z" stroke="#E8D09E" stroke-width="15" stroke-linecap="round" stroke-linejoin="round"/>
<path d="M508.1 24.1699L502.3 24.8099C502.16 23.6199 501.79 22.7299 501.19 22.1699C500.59 21.5999 499.82 21.3199 498.87 21.3199C497.6 21.3199 496.54 21.8899 495.66 23.0299C494.79 24.1699 494.23 26.5299 494.01 30.1299C495.5 28.3699 497.36 27.4899 499.57 27.4899C502.07 27.4899 504.21 28.4399 506 30.3499C507.78 32.2499 508.68 34.7099 508.68 37.7299C508.68 40.9299 507.74 43.4899 505.87 45.4299C503.99 47.3599 501.58 48.3299 498.64 48.3299C495.48 48.3299 492.89 47.0999 490.86 44.6499C488.83 42.1999 487.81 38.1799 487.81 32.5899C487.81 26.9999 488.87 22.7299 490.99 20.1999C493.11 17.6699 495.86 16.4099 499.24 16.4099C501.61 16.4099 503.58 17.0799 505.14 18.3999C506.7 19.7299 507.69 21.6599 508.11 24.1899L508.1 24.1699ZM494.52 37.2399C494.52 39.1899 494.97 40.6899 495.86 41.7499C496.76 42.8099 497.78 43.3399 498.93 43.3399C500.08 43.3399 500.96 42.9099 501.7 42.0399C502.44 41.1699 502.81 39.7499 502.81 37.7799C502.81 35.8099 502.41 34.2599 501.62 33.3099C500.82 32.3699 499.83 31.8899 498.64 31.8899C497.45 31.8899 496.51 32.3399 495.72 33.2399C494.93 34.1399 494.53 35.4799 494.53 37.2399H494.52Z" stroke="#E8D09E" stroke-width="15" stroke-linecap="round" stroke-linejoin="round"/>
<path d="M530.95 16.3899C533.98 16.3899 536.34 17.4699 538.05 19.6299C540.08 22.1899 541.1 26.4299 541.1 32.3599C541.1 38.2899 540.08 42.5199 538.03 45.1099C536.34 47.2399 533.98 48.3099 530.95 48.3099C527.92 48.3099 525.46 47.1399 523.59 44.7999C521.73 42.4599 520.8 38.2899 520.8 32.2999C520.8 26.3099 521.82 22.1799 523.87 19.5899C525.56 17.4599 527.92 16.3899 530.95 16.3899ZM530.95 21.3599C530.23 21.3599 529.58 21.5899 529.01 22.0499C528.44 22.5099 528 23.3399 527.69 24.5299C527.28 26.0799 527.07 28.6899 527.07 32.3599C527.07 36.0299 527.25 38.5499 527.62 39.9199C527.99 41.2899 528.45 42.1999 529.02 42.6599C529.59 43.1199 530.23 43.3399 530.95 43.3399C531.67 43.3399 532.32 43.1099 532.89 42.6499C533.46 42.1899 533.9 41.3599 534.21 40.1699C534.62 38.6299 534.83 36.0299 534.83 32.3699C534.83 28.7099 534.64 26.1799 534.28 24.8099C533.91 23.4399 533.45 22.5199 532.88 22.0599C532.31 21.5999 531.67 21.3699 530.95 21.3699V21.3599Z" stroke="#E8D09E" stroke-width="15" stroke-linecap="round" stroke-linejoin="round"/>
<path d="M563.97 16.3899C567 16.3899 569.36 17.4699 571.07 19.6299C573.1 22.1899 574.12 26.4299 574.12 32.3599C574.12 38.2899 573.1 42.5199 571.05 45.1099C569.36 47.2399 567 48.3099 563.97 48.3099C560.94 48.3099 558.48 47.1399 556.61 44.7999C554.75 42.4599 553.82 38.2899 553.82 32.2999C553.82 26.3099 554.84 22.1799 556.89 19.5899C558.58 17.4599 560.94 16.3899 563.97 16.3899ZM563.97 21.3599C563.25 21.3599 562.6 21.5899 562.03 22.0499C561.46 22.5099 561.02 23.3399 560.71 24.5299C560.3 26.0799 560.09 28.6899 560.09 32.3599C560.09 36.0299 560.27 38.5499 560.64 39.9199C561.01 41.2899 561.47 42.1999 562.04 42.6599C562.61 43.1199 563.25 43.3399 563.97 43.3399C564.69 43.3399 565.34 43.1099 565.91 42.6499C566.48 42.1899 566.92 41.3599 567.23 40.1699C567.64 38.6299 567.85 36.0299 567.85 32.3699C567.85 28.7099 567.66 26.1799 567.3 24.8099C566.93 23.4399 566.47 22.5199 565.9 22.0599C565.33 21.5999 564.69 21.3699 563.97 21.3699V21.3599Z" stroke="#E8D09E" stroke-width="15" stroke-linecap="round" stroke-linejoin="round"/>
<path d="M98.55 36.5101C98.42 38.3401 98.33 39.8701 98.2 41.2701H103.09V45.8101H97.67C97.36 47.6401 97.01 48.7401 96.53 49.3901C95.57 50.7901 94.39 51.2201 92.91 51.4401C91.47 51.6601 89.29 51.6601 87.06 51.5301C87.02 50.3901 86.49 48.6901 85.84 47.5601C87.8 47.7301 89.51 47.7801 90.43 47.7301C91.17 47.7301 91.52 47.6401 91.96 47.0301C92.13 46.7701 92.31 46.4201 92.48 45.8101H68.99C69.51 43.2301 70.04 39.9601 70.56 36.5101H64.53V31.8801H71.21C71.56 29.2601 71.87 26.5501 72.13 24.1501C71.04 25.5001 69.95 26.7301 68.9 27.8201C67.81 26.9901 65.49 25.5001 64.23 24.8101C68.25 21.4501 72.05 15.9401 74.27 10.5701L79.42 12.0501C79.03 12.9201 78.59 13.8401 78.15 14.7601H103.35V19.3901H75.44C74.7 20.5701 73.96 21.6601 73.17 22.7501H99.02C99.02 22.7501 98.98 24.4101 98.98 25.0201C98.89 27.5501 98.81 29.7801 98.72 31.8801H105.01V36.5101H98.55ZM75.75 36.3301C75.49 38.0801 75.27 39.6901 75.01 41.2601H84.57C83.04 40.0801 81.12 38.8601 79.37 38.0301L81.12 36.3301H75.75ZM76.93 27.2901C76.76 28.8601 76.54 30.4301 76.32 32.0501H85.01C83.48 30.9201 81.65 29.7801 79.94 29.0401L81.73 27.2901H76.93ZM93.13 41.2701C93.22 39.8701 93.35 38.3001 93.44 36.3401H84.36C86.37 37.4301 88.29 38.7401 89.47 39.7901L87.98 41.2801H93.13V41.2701ZM93.61 32.0501C93.7 30.5701 93.74 29.0401 93.78 27.2901H84.91C86.83 28.2901 88.71 29.5601 89.89 30.5701L88.4 32.0501H93.6H93.61Z" fill="black" stroke="white" stroke-width="10" stroke-linecap="round" stroke-linejoin="round"/>
<path d="M151.91 44.9401C151.91 48.0801 151.17 49.5701 149.16 50.4401C147.06 51.3601 144.01 51.4401 139.51 51.4401C139.2 49.9101 138.16 47.4201 137.33 45.9801C140.39 46.1501 144.06 46.1101 145.02 46.1101C146.07 46.1101 146.42 45.7601 146.42 44.8401V38.5101H127.73C126.59 43.4001 124.41 48.1601 120.35 51.5701C119.56 50.4801 117.47 48.5601 116.33 47.8101C122.92 42.1801 123.54 33.8401 123.54 27.2001V12.8301H151.93V44.9301L151.91 44.9401ZM146.4 33.5001V28.1701H128.89C128.85 29.8301 128.76 31.6601 128.58 33.5001H146.4ZM128.89 17.9001V23.2301H146.4V17.9001H128.89Z" fill="black" stroke="white" stroke-width="10" stroke-linecap="round" stroke-linejoin="round"/>
<path d="M207.89 33.9801C206.67 38.1701 204.7 41.5801 202.21 44.3301C204.39 45.7301 206.93 46.7801 209.76 47.4701C208.71 48.4301 207.36 50.3101 206.7 51.5301C203.6 50.6101 200.94 49.3001 198.62 47.5601C196.39 49.1801 193.9 50.4901 191.24 51.4501C190.72 50.4001 189.71 48.9201 188.84 47.9101V51.5801H183.86V47.9101C178.84 48.4301 173.86 48.9601 170.02 49.3501L169.54 44.9401C170.72 44.8501 172.03 44.7701 173.43 44.6801V31.3201H170.02V27.2101H208.97V31.3201H188.84V47.3001C191.11 46.5601 193.21 45.5501 195.08 44.2401C193.46 42.3201 192.11 40.1301 191.06 37.6901L193.94 36.9001H189.75V32.9301H203.81L204.68 32.7601L207.87 33.9801H207.89ZM179.33 26.1601H174.35V12.1001H204.83V26.1601H199.59V15.7201H179.33V26.1601ZM178.15 31.3101V33.0101H183.87V31.3101H178.15ZM178.15 38.4301H183.87V36.6401H178.15V38.4301ZM178.15 44.3301C179.98 44.1601 181.91 44.0201 183.87 43.8501V42.0201H178.15V44.3301ZM198.15 20.4801H180.77V17.4201H198.15V20.4801ZM180.77 22.1801H198.02V25.4101H180.77V22.1801ZM195.4 36.9001C196.19 38.5201 197.23 40.0001 198.5 41.3101C199.72 40.0001 200.77 38.5201 201.6 36.9001H195.4Z" fill="black" stroke="white" stroke-width="10" stroke-linecap="round" stroke-linejoin="round"/>
<path d="M261.12 14.85V19.22H222.56V14.85H239.37C239.02 13.8 238.67 12.71 238.32 11.79L243.69 10.48C244.17 11.83 244.87 13.45 245.39 14.85H261.11H261.12ZM260.11 46.81C260.11 49.08 259.54 50 257.88 50.65C256.31 51.17 253.95 51.22 250.94 51.17C250.68 50.03 249.98 48.55 249.41 47.5H236.92V49.33H232.12V37.8H251.12V47.5H250.51C252.04 47.54 253.57 47.54 254 47.5C254.61 47.5 254.87 47.33 254.87 46.76V36.19H228.8V51.52H223.78V32H260.11V46.8V46.81ZM255.92 30.22H228.36V20.87H255.92V30.22ZM250.46 24.37H233.56V26.77H250.46V24.37ZM246.53 41.44H236.92V43.93H246.53V41.44Z" fill="black" stroke="white" stroke-width="10" stroke-linecap="round" stroke-linejoin="round"/>
<path d="M314.74 41.6199H309.76V45.9399C309.76 48.5599 309.19 49.9599 307.36 50.7399C305.61 51.5699 302.99 51.6099 299.32 51.6099C299.06 50.2099 298.27 48.0299 297.53 46.7199C299.93 46.8499 302.73 46.8099 303.51 46.8099C304.29 46.8099 304.56 46.5899 304.56 45.8499V41.6099H283.99V51.6099H278.84V41.6099H273.86V36.8099H278.84V20.7799H291.55V17.8999H275.65V13.1399H312.99V17.8999H296.74V20.7799H309.75V36.8099H314.73V41.6099L314.74 41.6199ZM283.99 25.4599V28.8699H291.54V25.4599H283.99ZM283.99 36.8099H291.54V33.2699H283.99V36.8099ZM296.74 25.4599V28.8699H304.56V25.4599H296.74ZM304.56 36.8099V33.2699H296.74V36.8099H304.56Z" fill="black" stroke="white" stroke-width="10" stroke-linecap="round" stroke-linejoin="round"/>
<path d="M350.54 11.97C350.32 12.19 350.06 12.45 349.84 12.67C354.03 15.33 361.19 17.69 367.31 18.87C366.35 19.79 365 21.53 364.38 22.71C361.93 22.14 359.31 21.31 356.78 20.35V21.48H336.87V20.26C334.38 21.22 331.67 22.09 329.01 22.79C328.44 21.74 327.13 19.95 326.26 19.12C334.38 17.15 342.37 13.97 346.39 9.98999L350.54 11.96V11.97ZM349.27 42.01H366.04V45.55H349.27V46.99C349.27 49.35 348.7 50.35 346.96 50.96C345.26 51.57 342.85 51.62 339.54 51.57C339.28 50.35 338.54 48.69 337.88 47.6C339.98 47.69 342.55 47.69 343.16 47.69C343.86 47.65 344.12 47.47 344.12 46.86V45.55H327.39V42.01H344.12V40.39H330.06V36.9H344.12V35.37C339.97 35.54 335.74 35.59 331.8 35.54C331.76 34.62 331.32 33.23 330.93 32.4C340.58 32.49 352.11 32.05 358.27 30.96L361.63 33.75C358.09 34.41 353.81 34.84 349.27 35.1V36.89H363.64V40.38H349.27V42V42.01ZM360.45 30.79H332.94V22.93H360.45V30.79ZM355.3 25.94H337.79V27.73H355.3V25.94ZM352.33 18.47C350.28 17.47 348.31 16.37 346.61 15.28C344.91 16.42 343.03 17.51 341.02 18.47H352.33Z" fill="black" stroke="white" stroke-width="10" stroke-linecap="round" stroke-linejoin="round"/>
<path d="M380.5 47.78V16.52H386.64L399.43 37.39V16.52H405.29V47.78H398.96L386.36 27.4V47.78H380.5Z" fill="black" stroke="white" stroke-width="10" stroke-linecap="round" stroke-linejoin="round"/>
<path d="M427.74 47.78V21.81H418.47V16.52H443.31V21.81H434.06V47.78H427.75H427.74Z" fill="black" stroke="white" stroke-width="10" stroke-linecap="round" stroke-linejoin="round"/>
<path d="M463.36 43.15V34.22C460.57 33.42 458.53 32.22 457.23 30.61C455.93 29 455.28 27.04 455.28 24.74C455.28 22.44 456.02 20.45 457.49 18.87C458.96 17.29 460.92 16.37 463.36 16.13V14.02H466.45V16.13C468.71 16.4 470.51 17.17 471.84 18.44C473.18 19.71 474.03 21.41 474.4 23.55L469.01 24.25C468.68 22.57 467.83 21.44 466.45 20.84V29.18C469.86 30.1 472.19 31.3 473.42 32.77C474.66 34.24 475.28 36.13 475.28 38.43C475.28 41 474.5 43.17 472.95 44.93C471.39 46.69 469.23 47.77 466.46 48.17V52.16H463.37V48.28C460.91 47.98 458.91 47.07 457.38 45.53C455.85 43.99 454.86 41.83 454.44 39.03L460.01 38.43C460.24 39.57 460.66 40.55 461.29 41.37C461.91 42.2 462.61 42.79 463.38 43.16L463.36 43.15ZM463.36 20.76C462.52 21.04 461.85 21.53 461.36 22.21C460.86 22.89 460.61 23.65 460.61 24.47C460.61 25.22 460.84 25.92 461.29 26.57C461.75 27.22 462.43 27.74 463.36 28.14V20.76ZM466.45 43.45C467.52 43.25 468.38 42.76 469.05 41.97C469.72 41.18 470.05 40.25 470.05 39.19C470.05 38.24 469.77 37.42 469.21 36.73C468.65 36.04 467.73 35.51 466.45 35.14V43.46V43.45Z" fill="black" stroke="white" stroke-width="10" stroke-linecap="round" stroke-linejoin="round"/>
<path d="M508.1 24.1699L502.3 24.8099C502.16 23.6199 501.79 22.7299 501.19 22.1699C500.59 21.5999 499.82 21.3199 498.87 21.3199C497.6 21.3199 496.54 21.8899 495.66 23.0299C494.79 24.1699 494.23 26.5299 494.01 30.1299C495.5 28.3699 497.36 27.4899 499.57 27.4899C502.07 27.4899 504.21 28.4399 506 30.3499C507.78 32.2499 508.68 34.7099 508.68 37.7299C508.68 40.9299 507.74 43.4899 505.87 45.4299C503.99 47.3599 501.58 48.3299 498.64 48.3299C495.48 48.3299 492.89 47.0999 490.86 44.6499C488.83 42.1999 487.81 38.1799 487.81 32.5899C487.81 26.9999 488.87 22.7299 490.99 20.1999C493.11 17.6699 495.86 16.4099 499.24 16.4099C501.61 16.4099 503.58 17.0799 505.14 18.3999C506.7 19.7299 507.69 21.6599 508.11 24.1899L508.1 24.1699ZM494.52 37.2399C494.52 39.1899 494.97 40.6899 495.86 41.7499C496.76 42.8099 497.78 43.3399 498.93 43.3399C500.08 43.3399 500.96 42.9099 501.7 42.0399C502.44 41.1699 502.81 39.7499 502.81 37.7799C502.81 35.8099 502.41 34.2599 501.62 33.3099C500.82 32.3699 499.83 31.8899 498.64 31.8899C497.45 31.8899 496.51 32.3399 495.72 33.2399C494.93 34.1399 494.53 35.4799 494.53 37.2399H494.52Z" fill="black" stroke="white" stroke-width="10" stroke-linecap="round" stroke-linejoin="round"/>
<path d="M530.95 16.3899C533.98 16.3899 536.34 17.4699 538.05 19.6299C540.08 22.1899 541.1 26.4299 541.1 32.3599C541.1 38.2899 540.08 42.5199 538.03 45.1099C536.34 47.2399 533.98 48.3099 530.95 48.3099C527.92 48.3099 525.46 47.1399 523.59 44.7999C521.73 42.4599 520.8 38.2899 520.8 32.2999C520.8 26.3099 521.82 22.1799 523.87 19.5899C525.56 17.4599 527.92 16.3899 530.95 16.3899ZM530.95 21.3599C530.23 21.3599 529.58 21.5899 529.01 22.0499C528.44 22.5099 528 23.3399 527.69 24.5299C527.28 26.0799 527.07 28.6899 527.07 32.3599C527.07 36.0299 527.25 38.5499 527.62 39.9199C527.99 41.2899 528.45 42.1999 529.02 42.6599C529.59 43.1199 530.23 43.3399 530.95 43.3399C531.67 43.3399 532.32 43.1099 532.89 42.6499C533.46 42.1899 533.9 41.3599 534.21 40.1699C534.62 38.6299 534.83 36.0299 534.83 32.3699C534.83 28.7099 534.64 26.1799 534.28 24.8099C533.91 23.4399 533.45 22.5199 532.88 22.0599C532.31 21.5999 531.67 21.3699 530.95 21.3699V21.3599Z" fill="black" stroke="white" stroke-width="10" stroke-linecap="round" stroke-linejoin="round"/>
<path d="M563.97 16.3899C567 16.3899 569.36 17.4699 571.07 19.6299C573.1 22.1899 574.12 26.4299 574.12 32.3599C574.12 38.2899 573.1 42.5199 571.05 45.1099C569.36 47.2399 567 48.3099 563.97 48.3099C560.94 48.3099 558.48 47.1399 556.61 44.7999C554.75 42.4599 553.82 38.2899 553.82 32.2999C553.82 26.3099 554.84 22.1799 556.89 19.5899C558.58 17.4599 560.94 16.3899 563.97 16.3899ZM563.97 21.3599C563.25 21.3599 562.6 21.5899 562.03 22.0499C561.46 22.5099 561.02 23.3399 560.71 24.5299C560.3 26.0799 560.09 28.6899 560.09 32.3599C560.09 36.0299 560.27 38.5499 560.64 39.9199C561.01 41.2899 561.47 42.1999 562.04 42.6599C562.61 43.1199 563.25 43.3399 563.97 43.3399C564.69 43.3399 565.34 43.1099 565.91 42.6499C566.48 42.1899 566.92 41.3599 567.23 40.1699C567.64 38.6299 567.85 36.0299 567.85 32.3699C567.85 28.7099 567.66 26.1799 567.3 24.8099C566.93 23.4399 566.47 22.5199 565.9 22.0599C565.33 21.5999 564.69 21.3699 563.97 21.3699V21.3599Z" fill="black" stroke="white" stroke-width="10" stroke-linecap="round" stroke-linejoin="round"/>
<path d="M98.55 36.5101C98.42 38.3401 98.33 39.8701 98.2 41.2701H103.09V45.8101H97.67C97.36 47.6401 97.01 48.7401 96.53 49.3901C95.57 50.7901 94.39 51.2201 92.91 51.4401C91.47 51.6601 89.29 51.6601 87.06 51.5301C87.02 50.3901 86.49 48.6901 85.84 47.5601C87.8 47.7301 89.51 47.7801 90.43 47.7301C91.17 47.7301 91.52 47.6401 91.96 47.0301C92.13 46.7701 92.31 46.4201 92.48 45.8101H68.99C69.51 43.2301 70.04 39.9601 70.56 36.5101H64.53V31.8801H71.21C71.56 29.2601 71.87 26.5501 72.13 24.1501C71.04 25.5001 69.95 26.7301 68.9 27.8201C67.81 26.9901 65.49 25.5001 64.23 24.8101C68.25 21.4501 72.05 15.9401 74.27 10.5701L79.42 12.0501C79.03 12.9201 78.59 13.8401 78.15 14.7601H103.35V19.3901H75.44C74.7 20.5701 73.96 21.6601 73.17 22.7501H99.02C99.02 22.7501 98.98 24.4101 98.98 25.0201C98.89 27.5501 98.81 29.7801 98.72 31.8801H105.01V36.5101H98.55ZM75.75 36.3301C75.49 38.0801 75.27 39.6901 75.01 41.2601H84.57C83.04 40.0801 81.12 38.8601 79.37 38.0301L81.12 36.3301H75.75ZM76.93 27.2901C76.76 28.8601 76.54 30.4301 76.32 32.0501H85.01C83.48 30.9201 81.65 29.7801 79.94 29.0401L81.73 27.2901H76.93ZM93.13 41.2701C93.22 39.8701 93.35 38.3001 93.44 36.3401H84.36C86.37 37.4301 88.29 38.7401 89.47 39.7901L87.98 41.2801H93.13V41.2701ZM93.61 32.0501C93.7 30.5701 93.74 29.0401 93.78 27.2901H84.91C86.83 28.2901 88.71 29.5601 89.89 30.5701L88.4 32.0501H93.6H93.61Z" fill="black"/>
<path d="M151.91 44.9401C151.91 48.0801 151.17 49.5701 149.16 50.4401C147.06 51.3601 144.01 51.4401 139.51 51.4401C139.2 49.9101 138.16 47.4201 137.33 45.9801C140.39 46.1501 144.06 46.1101 145.02 46.1101C146.07 46.1101 146.42 45.7601 146.42 44.8401V38.5101H127.73C126.59 43.4001 124.41 48.1601 120.35 51.5701C119.56 50.4801 117.47 48.5601 116.33 47.8101C122.92 42.1801 123.54 33.8401 123.54 27.2001V12.8301H151.93V44.9301L151.91 44.9401ZM146.4 33.5001V28.1701H128.89C128.85 29.8301 128.76 31.6601 128.58 33.5001H146.4ZM128.89 17.9001V23.2301H146.4V17.9001H128.89Z" fill="black"/>
<path d="M207.89 33.9801C206.67 38.1701 204.7 41.5801 202.21 44.3301C204.39 45.7301 206.93 46.7801 209.76 47.4701C208.71 48.4301 207.36 50.3101 206.7 51.5301C203.6 50.6101 200.94 49.3001 198.62 47.5601C196.39 49.1801 193.9 50.4901 191.24 51.4501C190.72 50.4001 189.71 48.9201 188.84 47.9101V51.5801H183.86V47.9101C178.84 48.4301 173.86 48.9601 170.02 49.3501L169.54 44.9401C170.72 44.8501 172.03 44.7701 173.43 44.6801V31.3201H170.02V27.2101H208.97V31.3201H188.84V47.3001C191.11 46.5601 193.21 45.5501 195.08 44.2401C193.46 42.3201 192.11 40.1301 191.06 37.6901L193.94 36.9001H189.75V32.9301H203.81L204.68 32.7601L207.87 33.9801H207.89ZM179.33 26.1601H174.35V12.1001H204.83V26.1601H199.59V15.7201H179.33V26.1601ZM178.15 31.3101V33.0101H183.87V31.3101H178.15ZM178.15 38.4301H183.87V36.6401H178.15V38.4301ZM178.15 44.3301C179.98 44.1601 181.91 44.0201 183.87 43.8501V42.0201H178.15V44.3301ZM198.15 20.4801H180.77V17.4201H198.15V20.4801ZM180.77 22.1801H198.02V25.4101H180.77V22.1801ZM195.4 36.9001C196.19 38.5201 197.23 40.0001 198.5 41.3101C199.72 40.0001 200.77 38.5201 201.6 36.9001H195.4Z" fill="black"/>
<path d="M261.12 14.85V19.22H222.56V14.85H239.37C239.02 13.8 238.67 12.71 238.32 11.79L243.69 10.48C244.17 11.83 244.87 13.45 245.39 14.85H261.11H261.12ZM260.11 46.81C260.11 49.08 259.54 50 257.88 50.65C256.31 51.17 253.95 51.22 250.94 51.17C250.68 50.03 249.98 48.55 249.41 47.5H236.92V49.33H232.12V37.8H251.12V47.5H250.51C252.04 47.54 253.57 47.54 254 47.5C254.61 47.5 254.87 47.33 254.87 46.76V36.19H228.8V51.52H223.78V32H260.11V46.8V46.81ZM255.92 30.22H228.36V20.87H255.92V30.22ZM250.46 24.37H233.56V26.77H250.46V24.37ZM246.53 41.44H236.92V43.93H246.53V41.44Z" fill="black"/>
<path d="M314.74 41.6199H309.76V45.9399C309.76 48.5599 309.19 49.9599 307.36 50.7399C305.61 51.5699 302.99 51.6099 299.32 51.6099C299.06 50.2099 298.27 48.0299 297.53 46.7199C299.93 46.8499 302.73 46.8099 303.51 46.8099C304.29 46.8099 304.56 46.5899 304.56 45.8499V41.6099H283.99V51.6099H278.84V41.6099H273.86V36.8099H278.84V20.7799H291.55V17.8999H275.65V13.1399H312.99V17.8999H296.74V20.7799H309.75V36.8099H314.73V41.6099L314.74 41.6199ZM283.99 25.4599V28.8699H291.54V25.4599H283.99ZM283.99 36.8099H291.54V33.2699H283.99V36.8099ZM296.74 25.4599V28.8699H304.56V25.4599H296.74ZM304.56 36.8099V33.2699H296.74V36.8099H304.56Z" fill="black"/>
<path d="M350.54 11.97C350.32 12.19 350.06 12.45 349.84 12.67C354.03 15.33 361.19 17.69 367.31 18.87C366.35 19.79 365 21.53 364.38 22.71C361.93 22.14 359.31 21.31 356.78 20.35V21.48H336.87V20.26C334.38 21.22 331.67 22.09 329.01 22.79C328.44 21.74 327.13 19.95 326.26 19.12C334.38 17.15 342.37 13.97 346.39 9.98999L350.54 11.96V11.97ZM349.27 42.01H366.04V45.55H349.27V46.99C349.27 49.35 348.7 50.35 346.96 50.96C345.26 51.57 342.85 51.62 339.54 51.57C339.28 50.35 338.54 48.69 337.88 47.6C339.98 47.69 342.55 47.69 343.16 47.69C343.86 47.65 344.12 47.47 344.12 46.86V45.55H327.39V42.01H344.12V40.39H330.06V36.9H344.12V35.37C339.97 35.54 335.74 35.59 331.8 35.54C331.76 34.62 331.32 33.23 330.93 32.4C340.58 32.49 352.11 32.05 358.27 30.96L361.63 33.75C358.09 34.41 353.81 34.84 349.27 35.1V36.89H363.64V40.38H349.27V42V42.01ZM360.45 30.79H332.94V22.93H360.45V30.79ZM355.3 25.94H337.79V27.73H355.3V25.94ZM352.33 18.47C350.28 17.47 348.31 16.37 346.61 15.28C344.91 16.42 343.03 17.51 341.02 18.47H352.33Z" fill="black"/>
<path d="M380.5 47.78V16.52H386.64L399.43 37.39V16.52H405.29V47.78H398.96L386.36 27.4V47.78H380.5Z" fill="#FF0000"/>
<path d="M427.74 47.78V21.81H418.47V16.52H443.31V21.81H434.06V47.78H427.75H427.74Z" fill="#FF0000"/>
<path d="M463.36 43.15V34.22C460.57 33.42 458.53 32.22 457.23 30.61C455.93 29 455.28 27.04 455.28 24.74C455.28 22.44 456.02 20.45 457.49 18.87C458.96 17.29 460.92 16.37 463.36 16.13V14.02H466.45V16.13C468.71 16.4 470.51 17.17 471.84 18.44C473.18 19.71 474.03 21.41 474.4 23.55L469.01 24.25C468.68 22.57 467.83 21.44 466.45 20.84V29.18C469.86 30.1 472.19 31.3 473.42 32.77C474.66 34.24 475.28 36.13 475.28 38.43C475.28 41 474.5 43.17 472.95 44.93C471.39 46.69 469.23 47.77 466.46 48.17V52.16H463.37V48.28C460.91 47.98 458.91 47.07 457.38 45.53C455.85 43.99 454.86 41.83 454.44 39.03L460.01 38.43C460.24 39.57 460.66 40.55 461.29 41.37C461.91 42.2 462.61 42.79 463.38 43.16L463.36 43.15ZM463.36 20.76C462.52 21.04 461.85 21.53 461.36 22.21C460.86 22.89 460.61 23.65 460.61 24.47C460.61 25.22 460.84 25.92 461.29 26.57C461.75 27.22 462.43 27.74 463.36 28.14V20.76ZM466.45 43.45C467.52 43.25 468.38 42.76 469.05 41.97C469.72 41.18 470.05 40.25 470.05 39.19C470.05 38.24 469.77 37.42 469.21 36.73C468.65 36.04 467.73 35.51 466.45 35.14V43.46V43.45Z" fill="#FF0000"/>
<path d="M508.1 24.1699L502.3 24.8099C502.16 23.6199 501.79 22.7299 501.19 22.1699C500.59 21.5999 499.82 21.3199 498.87 21.3199C497.6 21.3199 496.54 21.8899 495.66 23.0299C494.79 24.1699 494.23 26.5299 494.01 30.1299C495.5 28.3699 497.36 27.4899 499.57 27.4899C502.07 27.4899 504.21 28.4399 506 30.3499C507.78 32.2499 508.68 34.7099 508.68 37.7299C508.68 40.9299 507.74 43.4899 505.87 45.4299C503.99 47.3599 501.58 48.3299 498.64 48.3299C495.48 48.3299 492.89 47.0999 490.86 44.6499C488.83 42.1999 487.81 38.1799 487.81 32.5899C487.81 26.9999 488.87 22.7299 490.99 20.1999C493.11 17.6699 495.86 16.4099 499.24 16.4099C501.61 16.4099 503.58 17.0799 505.14 18.3999C506.7 19.7299 507.69 21.6599 508.11 24.1899L508.1 24.1699ZM494.52 37.2399C494.52 39.1899 494.97 40.6899 495.86 41.7499C496.76 42.8099 497.78 43.3399 498.93 43.3399C500.08 43.3399 500.96 42.9099 501.7 42.0399C502.44 41.1699 502.81 39.7499 502.81 37.7799C502.81 35.8099 502.41 34.2599 501.62 33.3099C500.82 32.3699 499.83 31.8899 498.64 31.8899C497.45 31.8899 496.51 32.3399 495.72 33.2399C494.93 34.1399 494.53 35.4799 494.53 37.2399H494.52Z" fill="#FF0000"/>
<path d="M530.95 16.3899C533.98 16.3899 536.34 17.4699 538.05 19.6299C540.08 22.1899 541.1 26.4299 541.1 32.3599C541.1 38.2899 540.08 42.5199 538.03 45.1099C536.34 47.2399 533.98 48.3099 530.95 48.3099C527.92 48.3099 525.46 47.1399 523.59 44.7999C521.73 42.4599 520.8 38.2899 520.8 32.2999C520.8 26.3099 521.82 22.1799 523.87 19.5899C525.56 17.4599 527.92 16.3899 530.95 16.3899ZM530.95 21.3599C530.23 21.3599 529.58 21.5899 529.01 22.0499C528.44 22.5099 528 23.3399 527.69 24.5299C527.28 26.0799 527.07 28.6899 527.07 32.3599C527.07 36.0299 527.25 38.5499 527.62 39.9199C527.99 41.2899 528.45 42.1999 529.02 42.6599C529.59 43.1199 530.23 43.3399 530.95 43.3399C531.67 43.3399 532.32 43.1099 532.89 42.6499C533.46 42.1899 533.9 41.3599 534.21 40.1699C534.62 38.6299 534.83 36.0299 534.83 32.3699C534.83 28.7099 534.64 26.1799 534.28 24.8099C533.91 23.4399 533.45 22.5199 532.88 22.0599C532.31 21.5999 531.67 21.3699 530.95 21.3699V21.3599Z" fill="#FF0000"/>
<path d="M563.97 16.3899C567 16.3899 569.36 17.4699 571.07 19.6299C573.1 22.1899 574.12 26.4299 574.12 32.3599C574.12 38.2899 573.1 42.5199 571.05 45.1099C569.36 47.2399 567 48.3099 563.97 48.3099C560.94 48.3099 558.48 47.1399 556.61 44.7999C554.75 42.4599 553.82 38.2899 553.82 32.2999C553.82 26.3099 554.84 22.1799 556.89 19.5899C558.58 17.4599 560.94 16.3899 563.97 16.3899ZM563.97 21.3599C563.25 21.3599 562.6 21.5899 562.03 22.0499C561.46 22.5099 561.02 23.3399 560.71 24.5299C560.3 26.0799 560.09 28.6899 560.09 32.3599C560.09 36.0299 560.27 38.5499 560.64 39.9199C561.01 41.2899 561.47 42.1999 562.04 42.6599C562.61 43.1199 563.25 43.3399 563.97 43.3399C564.69 43.3399 565.34 43.1099 565.91 42.6499C566.48 42.1899 566.92 41.3599 567.23 40.1699C567.64 38.6299 567.85 36.0299 567.85 32.3699C567.85 28.7099 567.66 26.1799 567.3 24.8099C566.93 23.4399 566.47 22.5199 565.9 22.0599C565.33 21.5999 564.69 21.3699 563.97 21.3699V21.3599Z" fill="#FF0000"/>
</g>
<defs>
<clipPath id="clip0_40_3898">
<rect width="634.11" height="62.15" fill="white"/>
</clipPath>
</defs>
</svg>
