<svg width="45" height="43" viewBox="0 0 45 43" fill="none" xmlns="http://www.w3.org/2000/svg">
<path d="M22.67 41.06C21.26 41.06 20.12 39.99 20.12 38.66C20.08 30.6 13.08 24.03 4.55002 24.03C3.14002 24.03 2 22.95 2 21.63C2 20.31 3.14002 19.12 4.55002 19.12C13.14 19.12 20.12 12.52 20.12 4.42C20.12 3.09 21.26 2 22.69 2C24.12 2 25.24 3.08 25.24 4.42C25.24 12.53 32.22 19.12 40.81 19.12C42.22 19.12 43.38 20.2 43.38 21.54C43.38 22.88 42.22 24.03 40.81 24.03C32.28 24.03 25.29 30.6 25.26 38.66C25.26 39.99 24.12 41.06 22.69 41.06H22.67Z" fill="#FFEEC8" stroke="black" stroke-width="3" stroke-linecap="round" stroke-linejoin="round"/>
</svg>
