<svg width="163" height="163" viewBox="0 0 163 163" fill="none" xmlns="http://www.w3.org/2000/svg">
<g clip-path="url(#clip0_14_1434)">
<path d="M54.2324 4.50781L4.50781 54.2324C5.4149 51.6486 6.45941 49.1473 7.61388 46.7009L46.7009 7.61388C49.1473 6.45941 51.6761 5.4149 54.2324 4.50781Z" fill="white"/>
<path d="M93.5118 0.714599L0.714499 93.5119C0.522087 92.1925 0.357163 90.9006 0.219727 89.5537L89.5536 0.247314C90.873 0.384751 92.1924 0.549675 93.5118 0.742087V0.714599Z" fill="white"/>
<path d="M3.10596 104.425L39.0869 68.4436C38.5097 70.3127 38.0424 72.2643 37.74 74.2434L4.17796 107.805C3.79314 106.706 3.43581 105.579 3.10596 104.425Z" fill="white"/>
<path d="M107.806 4.17796L74.271 37.7125C72.2919 38.0424 70.3678 38.4822 68.4712 39.0594L104.425 3.10596C105.552 3.43581 106.679 3.79314 107.806 4.17796Z" fill="white"/>
<path d="M37.5751 87.7121C37.7401 88.9765 37.9874 90.2409 38.2623 91.4503L9.56552 120.147C9.04326 119.185 8.54848 118.196 8.05371 117.206L37.5751 87.6846V87.7121Z" fill="white"/>
<path d="M120.147 9.56552L91.4502 38.2623C90.2133 37.9874 88.9763 37.7401 87.7119 37.5751L117.233 8.05371C118.223 8.521 119.212 9.04326 120.174 9.56552H120.147Z" fill="white"/>
<path d="M76.4973 0L0 76.4973C0.109949 74.8481 0.247386 73.2263 0.439798 71.632L71.632 0.439798C73.2538 0.247386 74.8755 0.109949 76.4973 0Z" fill="white"/>
<path d="M41.7809 101.263C42.2757 102.253 42.7979 103.188 43.3477 104.122L16.52 130.95C15.8878 130.098 15.2556 129.246 14.6509 128.393L41.7809 101.263Z" fill="white"/>
<path d="M130.95 16.52L104.122 43.3477C103.187 42.7979 102.225 42.2757 101.263 41.7809L128.393 14.6509C129.273 15.2556 130.125 15.8878 130.95 16.52Z" fill="white"/>
<path d="M158.492 108.74C157.585 111.324 156.541 113.825 155.386 116.272L116.299 155.359C113.853 156.513 111.324 157.558 108.768 158.465L158.492 108.74Z" fill="white"/>
<path d="M71.5221 124.738C72.7591 125.012 73.996 125.26 75.2604 125.425L45.739 154.946C44.7495 154.479 43.7599 153.957 42.7979 153.434L71.4947 124.738H71.5221Z" fill="white"/>
<path d="M154.919 45.7664L125.397 75.2879C125.232 74.0234 124.985 72.759 124.71 71.5496L153.407 42.8528C153.929 43.8148 154.424 44.8044 154.919 45.7939V45.7664Z" fill="white"/>
<path d="M51.2637 113.963L24.8759 140.35C24.1337 139.636 23.3916 138.894 22.6494 138.124L49.0373 111.736C49.7519 112.506 50.4941 113.248 51.2637 113.963Z" fill="white"/>
<path d="M140.323 24.8761L113.935 51.264C113.22 50.4943 112.478 49.7522 111.708 49.0375L138.096 22.6497C138.839 23.3643 139.581 24.1065 140.323 24.8761Z" fill="white"/>
<path d="M58.8779 119.652C59.8125 120.202 60.7746 120.724 61.7366 121.219L34.6066 148.349C33.7545 147.744 32.8749 147.112 32.0503 146.48L58.8779 119.652Z" fill="white"/>
<path d="M148.349 34.6066L121.219 61.7366C120.724 60.7471 120.202 59.8125 119.652 58.8779L146.48 32.0503C147.112 32.9024 147.744 33.7545 148.349 34.6066Z" fill="white"/>
<path d="M163 86.5027C162.89 88.1519 162.753 89.7737 162.56 91.368L91.3682 162.56C89.7464 162.753 88.1247 162.89 86.5029 163L163 86.5027Z" fill="white"/>
<path d="M162.752 73.4462L73.446 162.753C72.1266 162.615 70.8072 162.45 69.4878 162.258L162.258 69.488C162.45 70.8074 162.615 72.1268 162.752 73.4462Z" fill="white"/>
<path d="M88.729 125.26C90.7081 124.93 92.6323 124.49 94.5289 123.913L58.5479 159.894C57.421 159.564 56.294 159.207 55.167 158.822L88.7016 125.287L88.729 125.26Z" fill="white"/>
<path d="M159.867 58.548L123.886 94.529C124.463 92.6598 124.93 90.7082 125.233 88.7291L158.767 55.1946C159.152 56.2941 159.509 57.4211 159.839 58.5755L159.867 58.548Z" fill="white"/>
</g>
<defs>
<clipPath id="clip0_14_1434">
<rect width="163" height="163" fill="white"/>
</clipPath>
</defs>
</svg>
