<svg width="190" height="41" viewBox="0 0 190 41" fill="none" xmlns="http://www.w3.org/2000/svg">
<g clip-path="url(#clip0_30_2687)">
<path d="M187.576 4.89039C188.926 4.89039 190.021 3.79564 190.021 2.4452C190.021 1.09475 188.926 0 187.576 0C186.226 0 185.131 1.09475 185.131 2.4452C185.131 3.79564 186.226 4.89039 187.576 4.89039Z" fill="#252525"/>
<path d="M187.576 22.9185C188.926 22.9185 190.021 21.8237 190.021 20.4733C190.021 19.1228 188.926 18.0281 187.576 18.0281C186.226 18.0281 185.131 19.1228 185.131 20.4733C185.131 21.8237 186.226 22.9185 187.576 22.9185Z" fill="#252525"/>
<path d="M187.576 40.9674C188.926 40.9674 190.021 39.8727 190.021 38.5222C190.021 37.1718 188.926 36.077 187.576 36.077C186.226 36.077 185.131 37.1718 185.131 38.5222C185.131 39.8727 186.226 40.9674 187.576 40.9674Z" fill="#252525"/>
<path d="M164.43 4.89039C165.78 4.89039 166.875 3.79564 166.875 2.4452C166.875 1.09475 165.78 0 164.43 0C163.079 0 161.984 1.09475 161.984 2.4452C161.984 3.79564 163.079 4.89039 164.43 4.89039Z" fill="#252525"/>
<path d="M164.43 22.9185C165.78 22.9185 166.875 21.8237 166.875 20.4733C166.875 19.1228 165.78 18.0281 164.43 18.0281C163.079 18.0281 161.984 19.1228 161.984 20.4733C161.984 21.8237 163.079 22.9185 164.43 22.9185Z" fill="#252525"/>
<path d="M164.43 40.9674C165.78 40.9674 166.875 39.8727 166.875 38.5222C166.875 37.1718 165.78 36.077 164.43 36.077C163.079 36.077 161.984 37.1718 161.984 38.5222C161.984 39.8727 163.079 40.9674 164.43 40.9674Z" fill="#252525"/>
<path d="M141.283 4.89039C142.634 4.89039 143.728 3.79564 143.728 2.4452C143.728 1.09475 142.634 0 141.283 0C139.933 0 138.838 1.09475 138.838 2.4452C138.838 3.79564 139.933 4.89039 141.283 4.89039Z" fill="#252525"/>
<path d="M141.283 22.9185C142.634 22.9185 143.728 21.8237 143.728 20.4733C143.728 19.1228 142.634 18.0281 141.283 18.0281C139.933 18.0281 138.838 19.1228 138.838 20.4733C138.838 21.8237 139.933 22.9185 141.283 22.9185Z" fill="#252525"/>
<path d="M141.283 40.9674C142.634 40.9674 143.728 39.8727 143.728 38.5222C143.728 37.1718 142.634 36.077 141.283 36.077C139.933 36.077 138.838 37.1718 138.838 38.5222C138.838 39.8727 139.933 40.9674 141.283 40.9674Z" fill="#252525"/>
<path d="M118.156 4.89039C119.507 4.89039 120.601 3.79564 120.601 2.4452C120.601 1.09475 119.507 0 118.156 0C116.806 0 115.711 1.09475 115.711 2.4452C115.711 3.79564 116.806 4.89039 118.156 4.89039Z" fill="#252525"/>
<path d="M118.156 22.9185C119.507 22.9185 120.601 21.8237 120.601 20.4733C120.601 19.1228 119.507 18.0281 118.156 18.0281C116.806 18.0281 115.711 19.1228 115.711 20.4733C115.711 21.8237 116.806 22.9185 118.156 22.9185Z" fill="#252525"/>
<path d="M118.156 40.9674C119.507 40.9674 120.601 39.8727 120.601 38.5222C120.601 37.1718 119.507 36.077 118.156 36.077C116.806 36.077 115.711 37.1718 115.711 38.5222C115.711 39.8727 116.806 40.9674 118.156 40.9674Z" fill="#252525"/>
<path d="M95.0096 4.89039C96.3601 4.89039 97.4548 3.79564 97.4548 2.4452C97.4548 1.09475 96.3601 0 95.0096 0C93.6592 0 92.5645 1.09475 92.5645 2.4452C92.5645 3.79564 93.6592 4.89039 95.0096 4.89039Z" fill="#252525"/>
<path d="M95.0096 22.9185C96.3601 22.9185 97.4548 21.8237 97.4548 20.4733C97.4548 19.1228 96.3601 18.0281 95.0096 18.0281C93.6592 18.0281 92.5645 19.1228 92.5645 20.4733C92.5645 21.8237 93.6592 22.9185 95.0096 22.9185Z" fill="#252525"/>
<path d="M95.0096 40.9674C96.3601 40.9674 97.4548 39.8727 97.4548 38.5222C97.4548 37.1718 96.3601 36.077 95.0096 36.077C93.6592 36.077 92.5645 37.1718 92.5645 38.5222C92.5645 39.8727 93.6592 40.9674 95.0096 40.9674Z" fill="#252525"/>
<path d="M71.8632 4.86964C70.5162 4.86964 69.418 3.77137 69.418 2.42444C69.418 1.07751 70.5162 -0.020752 71.8632 -0.020752C73.2101 -0.020752 74.3084 1.07751 74.3084 2.42444C74.3084 3.77137 73.2101 4.86964 71.8632 4.86964Z" fill="#252525"/>
<path d="M71.8632 22.9185C70.5162 22.9185 69.418 21.8202 69.418 20.4733C69.418 19.1263 70.5162 18.0281 71.8632 18.0281C73.2101 18.0281 74.3084 19.1263 74.3084 20.4733C74.3084 21.8202 73.2101 22.9185 71.8632 22.9185Z" fill="#252525"/>
<path d="M71.8632 40.9467C70.5162 40.9467 69.418 39.8484 69.418 38.5015C69.418 37.1545 70.5162 36.0563 71.8632 36.0563C73.2101 36.0563 74.3084 37.1545 74.3084 38.5015C74.3084 39.8484 73.2101 40.9467 71.8632 40.9467Z" fill="#252525"/>
<path d="M48.7167 4.86964C47.3698 4.86964 46.2715 3.77137 46.2715 2.42444C46.2715 1.07751 47.3698 -0.020752 48.7167 -0.020752C50.0636 -0.020752 51.1619 1.07751 51.1619 2.42444C51.1619 3.77137 50.0636 4.86964 48.7167 4.86964Z" fill="#252525"/>
<path d="M48.7167 22.9185C47.3698 22.9185 46.2715 21.8202 46.2715 20.4733C46.2715 19.1263 47.3698 18.0281 48.7167 18.0281C50.0636 18.0281 51.1619 19.1263 51.1619 20.4733C51.1619 21.8202 50.0636 22.9185 48.7167 22.9185Z" fill="#252525"/>
<path d="M48.7167 40.9467C47.3698 40.9467 46.2715 39.8484 46.2715 38.5015C46.2715 37.1545 47.3698 36.0563 48.7167 36.0563C50.0636 36.0563 51.1619 37.1545 51.1619 38.5015C51.1619 39.8484 50.0636 40.9467 48.7167 40.9467Z" fill="#252525"/>
<path d="M25.5721 4.89039C26.9226 4.89039 28.0173 3.79564 28.0173 2.4452C28.0173 1.09475 26.9226 0 25.5721 0C24.2217 0 23.127 1.09475 23.127 2.4452C23.127 3.79564 24.2217 4.89039 25.5721 4.89039Z" fill="#252525"/>
<path d="M25.5721 22.9185C26.9226 22.9185 28.0173 21.8237 28.0173 20.4733C28.0173 19.1228 26.9226 18.0281 25.5721 18.0281C24.2217 18.0281 23.127 19.1228 23.127 20.4733C23.127 21.8237 24.2217 22.9185 25.5721 22.9185Z" fill="#252525"/>
<path d="M25.5721 40.9674C26.9226 40.9674 28.0173 39.8727 28.0173 38.5222C28.0173 37.1718 26.9226 36.077 25.5721 36.077C24.2217 36.077 23.127 37.1718 23.127 38.5222C23.127 39.8727 24.2217 40.9674 25.5721 40.9674Z" fill="#252525"/>
<path d="M2.4452 4.89039C3.79564 4.89039 4.89039 3.79564 4.89039 2.4452C4.89039 1.09475 3.79564 0 2.4452 0C1.09475 0 0 1.09475 0 2.4452C0 3.79564 1.09475 4.89039 2.4452 4.89039Z" fill="#252525"/>
<path d="M2.4452 22.9185C3.79564 22.9185 4.89039 21.8237 4.89039 20.4733C4.89039 19.1228 3.79564 18.0281 2.4452 18.0281C1.09475 18.0281 0 19.1228 0 20.4733C0 21.8237 1.09475 22.9185 2.4452 22.9185Z" fill="#252525"/>
<path d="M2.4452 40.9674C3.79564 40.9674 4.89039 39.8727 4.89039 38.5222C4.89039 37.1718 3.79564 36.077 2.4452 36.077C1.09475 36.077 0 37.1718 0 38.5222C0 39.8727 1.09475 40.9674 2.4452 40.9674Z" fill="#252525"/>
</g>
<defs>
<clipPath id="clip0_30_2687">
<rect width="190" height="40.9467" fill="white"/>
</clipPath>
</defs>
</svg>
