<svg width="95" height="98" viewBox="0 0 95 98" fill="none" xmlns="http://www.w3.org/2000/svg">
<path d="M4.08093 29.4581C5.26406 35.6481 4.61248 41.6152 2.53772 46.4849C1.95473 46.2963 0.685871 46.0219 0 45.9533C2.28052 41.3751 2.82922 35.751 1.68038 30.1269L4.06379 29.4581H4.08093ZM23.0796 32.1159C23.0796 32.1159 23.4911 32.8532 23.6111 33.1447C28.3951 42.9184 29.8697 46.6735 29.4582 48.4053C29.201 49.4684 28.7037 50.0171 27.692 50.703C26.749 51.3031 24.7942 52.3491 22.7881 53.275C22.4108 52.6749 21.6907 52.0062 20.9877 51.6289C23.1481 50.6859 25.1029 49.6399 25.8402 49.2455C26.4918 48.8854 26.7833 48.6454 26.9033 48.131C27.2805 46.9307 26.0117 43.5356 21.9993 35.3052L13.7346 39.8662C16.3066 46.4163 17.3868 53.1035 11.1797 60.2195C10.6139 59.8422 9.6022 59.3964 8.89918 59.1907C14.9005 52.7263 13.786 46.7764 11.5912 41.0494L5.10974 44.6159L4.01235 42.6269L23.0796 32.1159ZM13.1001 23.251C17.3354 27.2462 23.1481 29.8354 28.1893 29.9382C27.9664 30.6241 27.7606 31.773 27.7092 32.5617C22.6166 32.1673 16.9925 29.6639 12.6543 25.9602L7.13306 29.0123L6.08711 27.109L13.083 23.251H13.1001Z" fill="white"/>
<path d="M61.4026 1.78327L34.8079 16.4438L33.8306 14.6605L46.3649 7.75034C45.5761 7.09877 44.6159 6.39575 43.7928 5.84705L45.5761 4.35528C46.5878 4.95542 47.8223 5.79561 48.6454 6.49863L60.4424 0L61.4197 1.78327H61.4026ZM43.2099 22.428L39.8834 16.3752L58.8649 5.91564L62.1913 11.9684L43.2099 22.428ZM44.3758 19.7359L59.2078 11.5569L57.5789 8.60768L42.7469 16.7867L44.3758 19.7359ZM71.3992 19.0844L58.8134 26.0288L60.9053 29.8354C61.5398 31.0014 61.454 31.6872 60.631 32.5446C59.7736 33.3848 58.0418 34.2935 55.264 35.8196C54.8525 35.3738 54.1666 34.8594 53.6179 34.4822C55.8127 33.3848 57.8361 32.2359 58.3333 31.9273C58.8992 31.5672 58.9849 31.3615 58.7448 30.9328L56.6701 27.1948L44.1701 34.0878L43.1756 32.2702L55.6756 25.3772L54.6125 23.4396C56.5329 21.7764 58.5734 19.7359 60.1337 17.8326L43.8957 26.7833L42.9698 25.0857L61.9684 14.6091V14.5748L62.4657 14.2833L62.8772 13.9403L64.9005 14.3519C63.1173 17.3011 60.1852 20.559 57.2702 23.251L57.8018 24.1941L70.3875 17.2497L71.382 19.0672L71.3992 19.0844Z" fill="white"/>
<path d="M29.2693 72.6852C31.104 76.2346 32.9902 80.7271 33.1445 86.0426C35.4422 86.5055 37.5512 87.0542 39.043 87.6029L38.6658 90.0549C37.2254 89.4891 35.2535 88.9404 33.0759 88.4088C32.8359 91.2209 32.0814 94.2902 30.5382 97.5309C29.9552 97.2565 28.9092 97.0337 28.3091 96.9651C29.8866 93.7415 30.6411 90.6722 30.8125 87.8601C28.3777 87.3629 25.8057 86.8999 23.5594 86.6084C23.0622 84.1907 22.222 81.0529 21.2103 77.7778L18.7412 79.3382L17.4209 77.4692C18.3297 76.9376 19.3413 76.286 20.5073 75.6002C19.5985 73.011 18.6383 70.3876 17.6781 68.1585L19.7529 67.1297C20.6616 69.3588 21.5533 71.9136 22.4278 74.4685L26.3372 72.0336L25.0684 69.736L27.0059 68.6729L28.2062 70.8505L29.938 69.7703L30.9497 71.605L29.235 72.7195L29.2693 72.6852ZM23.1308 76.5775C24.0396 79.4411 24.8455 82.3217 25.4284 84.6708C27.1603 84.9109 29.0121 85.2195 30.864 85.5282C30.6582 80.95 28.995 76.9891 27.4003 73.8684L23.1308 76.5775ZM49.7769 69.856L42.901 73.6454L48.6966 84.1393C49.3825 85.391 49.3825 86.1626 48.6452 87.0199C47.8907 87.8258 46.519 88.666 44.1356 89.952C43.7069 89.4719 42.8839 88.8375 42.3009 88.4431C44.1527 87.4486 45.816 86.5398 46.3132 86.2655C46.7933 85.9568 46.8619 85.7339 46.6219 85.2881L40.8263 74.7943L33.6075 78.7723L32.5444 76.8347L39.7631 72.8567L37.757 69.2387C38.6486 67.0268 39.3002 63.9747 39.5402 61.4884L29.0979 67.2497L28.069 65.3807L39.9175 58.8478L40.3461 58.4534L42.318 58.6935C42.0951 61.7799 41.2721 65.5865 40.1404 68.6214L41.8551 71.725L48.7309 67.9356L49.794 69.8732L49.7769 69.856Z" fill="white"/>
<path d="M82.3385 47.9424C83.5216 52.9835 83.213 57.5103 81.8241 61.5912C85.6992 61.9341 89.8488 61.4026 94.3241 59.8594C94.1183 60.5795 93.9983 61.7284 94.0154 62.4314C89.3687 63.8717 85.0305 64.3004 80.9667 63.7345C79.3378 67.3868 76.9201 70.6104 73.988 73.5082C73.5079 73.0795 72.5305 72.548 71.8961 72.3765C74.7082 69.7874 77.0573 66.7181 78.6691 63.323C75.2397 62.5343 71.9647 60.9739 68.964 58.7105C70.13 64.1118 70.4386 70.0274 68.501 75.2229C67.798 74.9657 66.8206 74.8628 65.9804 74.8628C69.1012 67.3697 66.8206 58.0933 64.4372 51.6461L56.7898 55.8642L55.6924 53.8752L63.5799 49.5199C62.4997 46.8278 61.488 44.8731 61.0936 44.0843L63.1855 42.9355C63.6313 43.8957 64.6259 45.8333 65.6718 48.371L82.0298 39.3518L83.1272 41.3409L66.4777 50.5144C67.0264 51.9376 67.558 53.4808 68.0209 55.144L80.3323 48.3539L80.6067 48.0453L82.3385 47.9252V47.9424ZM69.7699 56.7558C72.6848 59.0706 75.9427 60.5624 79.5093 61.2826C80.6067 58.0418 81.0353 54.561 80.4523 50.8745L69.7699 56.773V56.7558Z" fill="white"/>
</svg>
