<svg width="150" height="144" viewBox="0 0 150 144" fill="none" xmlns="http://www.w3.org/2000/svg">
<g clip-path="url(#clip0_46_1836)">
<path d="M150 71.8794C150 79.5268 140.501 85.5625 138.272 92.4726C135.957 99.6228 140.003 110.082 135.682 116.032C131.31 122.034 120.096 121.399 114.095 125.772C108.162 130.11 105.315 141.015 98.1824 143.33C91.2894 145.576 82.6303 138.477 75 138.477C67.3697 138.477 58.7106 145.559 51.8176 143.33C44.6845 141.015 41.8553 130.11 35.9053 125.772C29.904 121.399 18.69 122.051 14.3176 116.032C9.99657 110.082 14.0432 99.6228 11.7284 92.4726C9.48217 85.5796 0 79.5268 0 71.8794C0 64.2319 9.49931 58.1962 11.7284 51.2861C14.0432 44.1359 9.99657 33.6763 14.3176 27.7264C18.69 21.725 29.904 22.3595 35.9053 17.987C41.8553 13.6661 44.6845 2.7607 51.8176 0.445889C58.7106 -1.80034 67.3697 5.29843 75 5.29843C82.6303 5.29843 91.3066 -1.80034 98.1824 0.445889C105.315 2.7607 108.145 13.6661 114.095 18.0042C120.096 22.3766 131.31 21.7422 135.682 27.7436C140.003 33.6935 135.957 44.153 138.272 51.3032C140.501 58.1962 150 64.249 150 71.8965V71.8794Z" fill="#C2191F"/>
<path d="M95.2676 138.923C94.2045 138.923 92.9013 138.666 91.1866 138.135L91.7696 136.283C93.2614 136.763 94.4102 136.986 95.2676 136.986C95.5933 136.986 95.8677 136.951 96.0906 136.883C96.3821 136.78 96.7079 136.608 97.068 136.334L98.2339 137.877C97.7024 138.272 97.2051 138.563 96.6907 138.718C96.2792 138.855 95.8163 138.923 95.2676 138.923ZM54.7326 138.923C54.5268 138.923 54.3382 138.923 54.1667 138.889L54.3553 136.969C54.4754 136.969 54.5954 136.986 54.7326 136.986C55.5042 136.986 56.4987 136.797 57.7847 136.42L58.3334 138.272C56.8588 138.718 55.6756 138.923 54.7154 138.923H54.7326ZM62.0714 136.969L61.3855 135.151C61.677 135.048 61.9514 134.928 62.2429 134.825C63.1345 134.482 64.0604 134.122 65.0206 133.779L65.6722 135.597C64.7291 135.94 63.8204 136.283 62.9287 136.626C62.6372 136.728 62.3457 136.849 62.0714 136.951V136.969ZM87.5001 136.797L87.0714 136.643C86.0426 136.248 84.9795 135.837 83.8821 135.46L84.5165 133.625C85.6311 134.019 86.7113 134.431 87.7401 134.825L88.1688 134.98L87.4829 136.797H87.5001ZM50.3601 136.54C49.64 135.751 48.8684 134.739 47.9424 133.351L49.5542 132.27C50.4459 133.591 51.1489 134.534 51.8005 135.254L50.3601 136.557V136.54ZM101.046 134.825L99.4857 133.676C100.223 132.682 100.943 131.567 101.629 130.521L103.258 131.584C102.555 132.665 101.818 133.814 101.046 134.842V134.825ZM69.2902 134.465L68.7929 132.596C70.199 132.219 71.485 131.979 72.7367 131.842L72.9596 133.762C71.8108 133.899 70.6105 134.122 69.3073 134.465H69.2902ZM80.2813 134.345C78.9781 134.019 77.7778 133.814 76.6119 133.711L76.7833 131.773C78.035 131.893 79.3382 132.116 80.7442 132.459L80.2813 134.345ZM45.7991 130.093C45.1818 129.132 44.4445 128.018 43.6386 126.938L45.199 125.789C46.022 126.903 46.7765 128.052 47.4109 129.03L45.782 130.093H45.7991ZM105.367 128.344L103.772 127.246C104.63 125.995 105.384 124.983 106.156 124.074L107.648 125.326C106.927 126.183 106.207 127.143 105.384 128.361L105.367 128.344ZM41.2552 124.057C40.4322 123.2 39.6263 122.48 38.7518 121.862C38.6489 121.794 38.5632 121.725 38.4603 121.656L39.5577 120.062C39.6606 120.13 39.7634 120.216 39.8835 120.285C40.8437 120.988 41.7353 121.776 42.6441 122.72L41.2381 124.057H41.2552ZM110.22 122.668L108.968 121.194C109.345 120.868 109.722 120.559 110.117 120.285C110.803 119.787 111.54 119.325 112.311 118.896L113.237 120.593C112.534 120.988 111.866 121.399 111.248 121.845C110.905 122.102 110.545 122.377 110.22 122.668ZM35.2538 119.839C34.225 119.376 33.0762 118.93 31.7387 118.519L32.3217 116.667C33.7278 117.113 34.9452 117.576 36.0426 118.073L35.2367 119.839H35.2538ZM116.632 119.067L115.964 117.25C117.044 116.855 118.244 116.478 119.719 116.049L120.25 117.918C118.81 118.33 117.661 118.69 116.632 119.067ZM28.0693 117.456L27.4863 117.301C26.4232 117.027 25.343 116.718 24.3142 116.41L24.88 114.558C25.8745 114.866 26.9548 115.141 27.9836 115.432L28.5837 115.587L28.0865 117.456H28.0693ZM123.988 116.907L123.474 115.038C124.606 114.729 125.926 114.352 127.092 113.906L127.778 115.724C126.543 116.187 125.172 116.581 124.006 116.907H123.988ZM20.5248 114.969C19.4617 114.421 18.7243 113.838 18.2442 113.169C17.9356 112.74 17.6955 112.243 17.5241 111.608L19.3759 111.06C19.4959 111.471 19.6331 111.78 19.8217 112.02C20.1132 112.432 20.6619 112.826 21.4335 113.237L20.5419 114.952L20.5248 114.969ZM131.464 113.546L130.041 112.226C130.041 112.226 130.161 112.089 130.213 112.02C130.607 111.488 130.847 110.528 130.967 109.174L132.905 109.328C132.768 111.094 132.407 112.311 131.79 113.152C131.704 113.272 131.602 113.409 131.482 113.529L131.464 113.546ZM17.044 107.51V107.322C17.044 106.121 17.0954 104.87 17.164 103.584L19.1016 103.687C19.033 104.938 18.9815 106.173 18.9815 107.322V107.51H17.044ZM130.984 105.436C130.95 104.733 130.916 104.012 130.881 103.309C130.847 102.726 130.83 102.143 130.796 101.578L132.733 101.492C132.75 102.058 132.785 102.624 132.819 103.189L131.859 103.258L132.819 103.207C132.853 103.91 132.888 104.647 132.922 105.367L130.984 105.436ZM19.273 99.7772L17.3354 99.7429C17.3354 99.3314 17.3354 98.937 17.3354 98.5598C17.3354 97.6167 17.3012 96.7594 17.2497 95.9535L19.1873 95.8163C19.2559 96.6736 19.2902 97.5653 19.2902 98.5598C19.2902 98.9541 19.2902 99.3485 19.2902 99.7772H19.273ZM132.665 97.6681L130.727 97.6338C130.761 96.1764 130.864 94.8732 131.053 93.6386L132.973 93.9473C132.802 95.079 132.699 96.2964 132.665 97.6853V97.6681ZM16.701 92.284C16.5981 91.8382 16.461 91.3924 16.3238 90.9637C16.1009 90.2607 15.8094 89.5406 15.4665 88.8204L17.2154 87.9802C17.5927 88.769 17.9184 89.5749 18.1756 90.3636C18.33 90.8266 18.4671 91.3238 18.5872 91.8211L16.701 92.284ZM133.882 90.3636L132.065 89.6949C132.51 88.4946 133.076 87.2943 133.831 86.0426L135.494 87.0371C134.808 88.186 134.294 89.2662 133.882 90.3636ZM13.5975 85.614C12.9802 84.7052 12.2772 83.7621 11.3341 82.5618L12.843 81.3616C13.8204 82.5961 14.5577 83.5735 15.1921 84.5337L13.5975 85.614ZM137.603 83.9336L136.06 82.7676C136.848 81.7045 137.689 80.6928 138.495 79.6983L140.003 80.9157C139.215 81.8931 138.392 82.9048 137.62 83.9164L137.603 83.9336ZM8.89924 79.544C8.19622 78.6524 7.27029 77.4864 6.53298 76.3547L8.16192 75.3087C8.8478 76.3718 9.72228 77.4864 10.4082 78.3437L8.89924 79.5611V79.544ZM142.421 77.8465L140.861 76.6976C141.77 75.4631 142.404 74.4343 142.781 73.5941L144.547 74.3828C144.102 75.3773 143.433 76.4919 142.404 77.8636L142.421 77.8465ZM4.86974 72.3938C4.8526 72.2223 4.83545 72.0509 4.83545 71.8794C4.83545 70.8163 5.24697 69.5817 6.08716 68.1414L7.76755 69.1188C7.11597 70.2333 6.79018 71.1592 6.79018 71.8794C6.79018 71.9823 6.79018 72.068 6.80733 72.1709L4.88689 72.3938H4.86974ZM142.953 70.5591C142.627 69.7017 142.044 68.6901 141.135 67.4384L142.713 66.3067C143.724 67.7127 144.376 68.8444 144.77 69.8732L142.953 70.5591ZM9.9109 66.0666L8.38483 64.8664C8.91638 64.1976 9.46508 63.5118 9.99663 62.8602C10.271 62.5172 10.5453 62.1915 10.8197 61.8485L12.3286 63.0659C12.0542 63.4089 11.7799 63.7518 11.5055 64.0948C10.974 64.7463 10.4253 65.4151 9.9109 66.0838V66.0666ZM138.786 64.4377L138.495 64.0948C137.792 63.2203 137.054 62.3286 136.351 61.4027L137.894 60.2196C138.58 61.1284 139.318 62.02 140.003 62.8773L140.295 63.2203L138.786 64.4377ZM14.7291 59.9281L13.1516 58.7964C13.9575 57.6647 14.592 56.6359 15.1235 55.6242L16.8382 56.533C16.2723 57.6133 15.5693 58.7278 14.7291 59.9281ZM134.088 58.1277C133.316 56.8931 132.716 55.71 132.253 54.5268L134.054 53.8067C134.482 54.8869 135.031 55.9672 135.734 57.0989L134.088 58.1105V58.1277ZM18.3643 52.7607L16.4953 52.2292C16.821 51.0975 17.044 49.9144 17.1811 48.5941L19.1016 48.7998C18.9472 50.2402 18.7072 51.5262 18.3471 52.7779L18.3643 52.7607ZM131.139 50.6174C130.916 49.3828 130.796 48.0797 130.744 46.6222L132.682 46.5536C132.733 47.9253 132.853 49.1256 133.059 50.2744L131.156 50.6174H131.139ZM17.3354 44.8389C17.3354 43.5529 17.2669 42.2326 17.1983 40.998L19.1359 40.8952C19.2044 42.1469 19.2559 43.4843 19.273 44.8046H17.3354V44.8389ZM132.716 42.747L130.779 42.6784C130.813 41.9411 130.847 41.2038 130.881 40.4665C130.916 39.9178 130.933 39.352 130.967 38.8033L132.905 38.889C132.888 39.4377 132.853 40.0035 132.819 40.5694C132.785 41.3067 132.75 42.0269 132.716 42.7642V42.747ZM17.0611 37.0886C17.0611 36.8657 17.0611 36.6599 17.0611 36.437C17.0611 35.0481 17.1468 33.9336 17.3012 33.0248L19.2044 33.3677C19.0673 34.1565 18.9815 35.151 18.9815 36.4199C18.9815 36.6256 18.9815 36.8314 18.9815 37.0371L17.044 37.0714L17.0611 37.0886ZM130.984 35.0138C130.899 33.4706 130.641 32.3732 130.247 31.7731L131.859 30.6928C132.476 31.6188 132.819 32.9562 132.922 34.9109L130.984 35.0138ZM20.7648 30.8814L19.7189 29.2525C20.6276 28.6695 21.8279 28.1551 23.4911 27.6064L24.0913 29.4583C22.6167 29.9384 21.5193 30.4013 20.7648 30.8814ZM127.503 30.0241C126.595 29.664 125.48 29.3039 123.92 28.8581L124.434 26.9891C126.063 27.4521 127.229 27.8293 128.224 28.2237L127.503 30.0241ZM27.7778 28.3952L27.2806 26.5262L27.4863 26.4747C28.6352 26.1661 29.8183 25.8403 30.9843 25.4974L31.5501 27.3492C30.367 27.7093 29.1667 28.0351 28.0007 28.3437L27.795 28.3952H27.7778ZM120.199 27.8293C118.673 27.4006 117.507 27.0406 116.427 26.6633L117.078 24.8286C118.107 25.1887 119.222 25.5316 120.713 25.9432L120.199 27.8122V27.8293ZM35.271 26.0289L34.5337 24.2456C35.7682 23.7312 36.8485 23.1825 37.8258 22.5481L38.8547 24.1942C37.7744 24.8801 36.6084 25.4802 35.271 26.0289ZM112.74 25.103C111.797 24.6057 110.905 24.0742 110.1 23.474C109.842 23.2854 109.585 23.0797 109.328 22.891L110.545 21.3821C110.768 21.5707 111.008 21.7422 111.231 21.9137C111.951 22.4452 112.757 22.9425 113.615 23.3883L112.723 25.103H112.74ZM42.044 21.6565L40.6894 20.2676C41.5124 19.4617 42.3183 18.5529 43.1585 17.4727L44.6846 18.6558C43.7929 19.8218 42.9184 20.7991 42.0268 21.6565H42.044ZM106.447 20.0618C105.676 19.1702 104.87 18.1242 104.03 16.9068L105.624 15.7923C106.43 16.9583 107.185 17.9356 107.922 18.793L106.464 20.0618H106.447ZM46.9651 15.4322L45.3533 14.3691C45.7305 13.8033 46.0906 13.2374 46.4678 12.6716C46.8108 12.1572 47.1365 11.6428 47.4623 11.1284L49.0741 12.1915C48.7483 12.6887 48.4226 13.2031 48.0796 13.7175C47.7024 14.3005 47.3252 14.8664 46.9479 15.4493L46.9651 15.4322ZM101.886 13.6489C101.235 12.6373 100.48 11.4713 99.76 10.4596L101.338 9.32795C102.092 10.3739 102.846 11.557 103.515 12.5858L101.886 13.6318V13.6489ZM75.0001 12.0714C74.0056 12.0714 72.9596 11.9857 71.8793 11.8314L72.1708 9.91094C73.1482 10.0653 74.1084 10.1338 75.0001 10.1338C75.2744 10.1338 75.5488 10.1338 75.8403 10.1167L75.926 12.0543C75.6173 12.0543 75.3087 12.0714 75.0001 12.0714ZM79.9212 11.4884L79.5097 9.6023C80.6242 9.36224 81.8073 9.01931 83.1448 8.57349L83.7621 10.4082C82.3732 10.8712 81.1215 11.2312 79.9383 11.4884H79.9212ZM67.987 10.9397C66.8725 10.614 65.6894 10.2196 64.249 9.68803L64.9178 7.87047C66.3238 8.38487 67.4555 8.77925 68.5186 9.08789L67.9699 10.9569L67.987 10.9397ZM51.2861 9.10504L49.7943 7.87047C51.0117 6.39585 52.0748 5.50422 53.1208 5.10984L53.8066 6.9274C53.1036 7.20175 52.2463 7.93906 51.2861 9.10504ZM87.4315 9.07075L86.7456 7.25319L87.0885 7.11601C88.1859 6.68734 89.3176 6.25867 90.415 5.89859L91.0323 7.7333C89.9692 8.09338 88.8547 8.52205 87.7744 8.93357L87.4315 9.07075ZM60.6139 8.31629C59.5851 7.93906 58.2477 7.4418 57.0302 7.13316L57.5103 5.26416C58.8135 5.6071 60.2024 6.10435 61.2826 6.49873L60.6139 8.31629ZM97.3938 7.699C96.9308 7.28748 96.485 7.01313 96.1077 6.8931C95.7477 6.77308 95.2333 6.75593 94.5817 6.82452L94.3588 4.90408C95.3018 4.8012 96.0735 4.83549 96.7079 5.04125C97.3595 5.24701 97.9939 5.64139 98.6626 6.22438L97.3938 7.68186V7.699Z" fill="white"/>
</g>
<defs>
<clipPath id="clip0_46_1836">
<rect width="150" height="143.759" fill="white"/>
</clipPath>
</defs>
</svg>
