<svg width="260" height="237" viewBox="0 0 260 237" fill="none" xmlns="http://www.w3.org/2000/svg">

<style>
  #sparkle {
    animation: twinkle 2s ease-out infinite;
  }
  @keyframes twinkle {
    0%, 100% {
      opacity: 0;
      // transform: scale(1);
    }
    50% {
      opacity: 1;
      // transform: scale(1.2);
    }
  }


</style>



<g clip-path="url(#clip0_26_2656)">
  <!-- 錢袋 -->
  <g id="money-bag"  transform="translate(0,10)">
    <path d="M252.614 133.025C251.176 125.698 248.78 119.588 246.464 114.897C246.424 114.817 246.385 114.717 246.325 114.617C241.314 105.873 234.326 95.551 224.603 84.7501C213.902 72.8711 202.882 63.7872 193.398 57.0391C192.061 56.0808 191.302 54.6633 191.302 53.2059V49.9317C191.302 49.0133 191.601 48.1149 192.18 47.3163C197.83 39.4502 203.461 31.6041 209.091 23.738C211.726 20.0445 208.032 15.4327 203.021 16.1914C198.749 16.8302 194.476 17.4491 190.224 18.108C188.307 18.4074 186.371 17.8684 184.993 16.6705L174.492 7.58658C172.196 5.59012 168.383 5.59012 166.067 7.58658L155.565 16.6705C154.188 17.8484 152.251 18.3675 150.334 18.108C146.062 17.4691 141.79 16.8502 137.537 16.1914C132.526 15.4527 128.833 20.0645 131.468 23.738C137.118 31.6041 142.748 39.4502 148.378 47.3163C148.937 48.1149 149.256 49.0133 149.256 49.9317V53.2059C149.256 54.6833 148.498 56.1008 147.16 57.0391C137.697 63.7872 126.676 72.8711 115.955 84.7501C106.233 95.551 99.2449 105.873 94.2537 114.617C94.2138 114.697 94.1539 114.777 94.114 114.897C91.7981 119.588 89.3823 125.718 87.9648 133.025C86.0083 143.027 86.6072 151.572 87.6454 157.681C87.6454 157.781 87.6853 157.861 87.7053 157.98C88.3841 160.895 89.8215 165.627 92.8362 171.017C92.8362 171.017 93.1157 171.556 93.6947 172.475C96.4898 176.867 106.772 190.263 131.388 197.79C141.69 200.944 154.467 203.061 170.299 203.061C186.131 203.061 198.929 200.944 209.21 197.79C233.827 190.263 244.109 176.867 246.904 172.475C247.203 171.996 247.483 171.497 247.762 171.017C250.797 165.627 252.194 160.875 252.893 157.98C252.913 157.881 252.933 157.801 252.953 157.681C253.971 151.572 254.57 143.007 252.634 133.025H252.594H252.614Z" fill="url(#paint0_linear_26_2656)"/>
    <path d="M246.923 172.455C244.128 176.847 233.847 190.243 209.23 197.77C198.928 200.925 186.151 203.041 170.319 203.041C154.487 203.041 141.69 200.925 131.408 197.77M246.923 172.455H90.1807M246.923 172.455C247.223 171.976 247.502 171.477 247.782 170.997M246.923 172.455L247.782 170.997M131.408 197.77C106.791 190.243 96.5096 176.847 93.7145 172.455C93.1355 171.537 92.856 170.997 92.856 170.997L90.2007 172.475C90.2007 172.475 90.2007 172.435 90.1807 172.435M131.408 197.77L130.509 200.665M247.782 170.997C250.817 165.607 252.214 160.855 252.913 157.961M247.782 170.997L252.913 157.961M130.509 200.665C141.111 203.919 154.207 206.075 170.319 206.075C186.43 206.075 199.527 203.919 210.129 200.665C235.544 192.879 246.364 178.963 249.499 174.072C249.499 174.072 249.519 174.032 249.539 174.012C249.858 173.493 250.158 172.974 250.437 172.475C253.652 166.765 255.149 161.714 255.868 158.639C255.868 158.599 255.868 158.559 255.888 158.54C255.888 158.54 255.888 158.5 255.888 158.46C255.888 158.46 255.908 158.34 255.928 158.26C255.928 158.22 255.928 158.2 255.928 158.16C256.986 151.791 257.625 142.847 255.608 132.426C255.568 132.246 255.528 132.086 255.468 131.927C253.971 124.5 251.515 118.311 249.16 113.539C249.16 113.539 249.16 113.499 249.14 113.479C249.14 113.459 249.12 113.439 249.1 113.399C249.06 113.32 249 113.18 248.88 113.02C243.789 104.136 236.682 93.6543 226.839 82.7137C215.958 70.655 204.758 61.4113 195.155 54.5635C194.536 54.1043 194.336 53.5652 194.336 53.1859V49.9117C194.336 49.6521 194.416 49.3726 194.616 49.0931V49.0532C197.471 45.1202 200.286 41.1871 203.101 37.2541C205.916 33.321 208.731 29.388 211.546 25.4749C213.742 22.4004 213.243 18.8267 211.287 16.371C209.37 13.9753 206.096 12.6376 202.582 13.1567C200.625 13.4562 198.629 13.7557 196.632 14.0352C194.336 14.3746 192.041 14.714 189.785 15.0534C188.686 15.2131 187.648 14.8936 186.989 14.3346L176.488 5.25071C173.034 2.27597 167.564 2.27597 164.09 5.25071L153.589 14.3346C152.95 14.8936 151.912 15.2131 150.774 15.0534C148.757 14.7539 146.781 14.4544 144.804 14.155C142.528 13.8156 140.272 13.4762 137.996 13.1368C134.462 12.6177 131.208 13.9553 129.292 16.3511C127.315 18.8067 126.836 22.3804 129.032 25.455C131.847 29.388 134.662 33.3011 137.477 37.2341L137.497 37.274C140.312 41.1871 143.107 45.1002 145.922 49.0332C146.162 49.3527 146.222 49.6721 146.222 49.8917V53.1659C146.222 53.5453 146.022 54.0843 145.403 54.5435C135.8 61.3914 124.6 70.6151 113.719 82.6937C103.837 93.6743 96.7292 104.176 91.6382 113.08C91.6382 113.1 91.6182 113.12 91.5982 113.14V113.18C91.5982 113.18 91.4585 113.379 91.3786 113.579C88.9629 118.45 86.4673 124.819 85.0099 132.406C82.9935 142.787 83.5924 151.652 84.6705 158.02C84.7104 158.3 84.7504 158.5 84.7903 158.599V158.639C85.529 161.734 87.0463 166.725 90.1807 172.395M130.509 200.665C105.094 192.879 94.2735 178.963 91.1391 174.072C90.8196 173.573 90.58 173.154 90.4203 172.854C90.3405 172.714 90.2806 172.595 90.2207 172.495C90.2207 172.455 90.1807 172.435 90.1807 172.415M252.913 157.961C252.913 157.961 252.933 157.861 252.953 157.821C252.973 157.781 252.973 157.721 252.993 157.681L252.933 157.98L252.913 157.961Z" stroke="#202121" stroke-width="6.06926" stroke-linejoin="round"/>
    <path opacity="0.12" d="M139.373 32.0033C145.303 44.0021 151.272 55.9809 157.202 67.9797C144.744 85.7083 139.014 94.8521 140.032 95.4311C141.13 96.05 149.915 86.9062 166.386 67.9797C164.01 54.9627 161.654 41.9657 159.298 28.9487C158.46 29.6874 157.721 30.3263 157.102 30.8653C154.946 32.7221 154.187 33.2012 153.089 33.4807C152.331 33.6604 151.592 33.7003 151.512 33.7003C150.953 33.7003 150.514 33.6804 149.256 33.4807C148.378 33.3609 147.958 33.301 147.279 33.1613C146.88 33.1014 145.922 32.9616 144.065 32.6622C142.947 32.5024 141.35 32.2429 139.354 31.9834L139.373 32.0033Z" fill="#202121"/>
    <path opacity="0.12" d="M166.905 203.001C193.078 198.589 209.589 184.713 213.802 180.72C240.634 155.345 227.597 109.127 210.967 91.7377C199.966 80.258 182.597 62.1101 178.684 59.6345C178.384 59.4548 177.067 58.6363 176.168 57.1389C175.05 55.2623 175.29 53.4255 175.45 52.1877C176.388 44.4015 175.769 46.6774 176.308 43.1836C178.065 31.644 181.938 22.5801 184.973 16.6306C186.35 17.8085 188.287 18.3276 190.204 18.0681C194.476 17.4292 198.748 16.8103 203.001 16.1514C208.012 15.4128 211.705 20.0246 209.07 23.6981C203.42 31.5642 197.79 39.4103 192.16 47.2764C191.601 48.075 191.282 48.9734 191.282 49.8918V53.166C191.282 54.6433 192.04 56.0608 193.378 56.9992C202.841 63.7472 213.862 72.8312 224.583 84.7102C234.286 95.511 241.293 105.833 246.284 114.577C246.324 114.657 246.384 114.737 246.424 114.857C248.74 119.549 251.156 125.678 252.573 132.985C254.53 142.987 253.931 151.532 252.893 157.641C252.893 157.741 252.853 157.821 252.833 157.941C251.575 163.211 248.161 174.072 235.703 184.054C231.57 187.369 220.59 193.478 214.041 195.933C193.198 203.72 166.885 203.021 166.885 203.021H166.945L166.905 203.001Z" fill="#202121"/>
    <path d="M191.262 55.7613H149.296C147.1 55.7613 145.283 53.9844 145.283 51.7484C145.283 49.5123 147.06 47.7355 149.296 47.7355H191.262C193.458 47.7355 195.275 49.5123 195.275 51.7484C195.275 53.9844 193.498 55.7613 191.262 55.7613Z" fill="url(#paint1_linear_26_2656)"/>
    <path d="M149.296 58.796H191.261C195.174 58.796 198.309 55.6216 198.309 51.7485C198.309 47.8753 195.134 44.7009 191.261 44.7009H149.296C145.382 44.7009 142.248 47.8753 142.248 51.7485C142.248 55.6216 145.422 58.796 149.296 58.796Z" stroke="#202121" stroke-width="6.06926" stroke-linejoin="round"/>
    <path d="M153.109 123.162C150.454 120.746 149.096 117.173 149.096 112.401C149.096 107.15 151.273 102.978 155.605 99.8833C158.26 97.9667 161.694 96.7089 165.767 96.11V90.0208H177.686V96.1898C183.176 97.1881 188.507 99.5239 193.578 103.277L184.933 112.461C183.016 110.205 180.681 108.688 177.686 107.789V121.785C185.352 122.603 190.343 124.54 192.759 127.534C195.015 130.03 196.073 133.524 196.073 138.036C196.073 142.787 194.316 146.621 190.663 149.635C187.169 152.131 182.757 153.728 177.686 154.387V160.296H165.767V154.387C156.783 152.87 149.875 148.877 145.283 142.528L154.607 134.522C156.603 138.615 160.337 141.709 165.747 143.526V127.674C159.598 126.856 155.266 125.338 153.089 123.082L153.109 123.162ZM165.767 107.47C164.769 107.709 163.85 107.969 163.271 108.388C161.514 109.466 160.696 110.884 160.696 112.401C160.696 114.997 161.355 116.913 162.613 118.151C163.351 118.89 164.449 119.389 165.767 119.908V107.47ZM177.666 143.766C179.263 143.426 180.661 142.947 181.918 142.248C183.416 141.17 184.254 139.833 184.254 138.076C184.254 135.48 183.675 133.484 182.418 132.246C181.08 130.569 179.423 129.651 177.666 129.331V143.766Z" fill="url(#paint2_linear_26_2656)"/>
    <path d="M125.278 178.664C125.198 175.969 122.962 173.853 120.267 173.932C117.572 174.012 115.456 176.248 115.535 178.943C115.615 181.639 117.851 183.755 120.547 183.675C123.242 183.595 125.358 181.359 125.278 178.664Z" fill="url(#paint3_linear_26_2656)"/>
    <path d="M105.153 192.28C108.707 186.131 106.591 178.284 100.461 174.751C94.3123 171.197 86.4661 173.313 82.9324 179.442C79.3787 185.592 81.4949 193.438 87.6241 196.971C93.7732 200.525 101.619 198.409 105.153 192.28Z" fill="url(#paint4_linear_26_2656)"/>
    <animateTransform attributeName="transform" type="translate" values="0,0; 0,-10; 0,0; 0,0" keyTimes="0; 0.1; 0.2; 1" dur="4s" repeatCount="indefinite" additive="sum"/>
  </g>
  <!-- 鈔票 -->
  <g>
    <g id="">
      <path d="M123.382 125.797L17.5496 154.147C14.1157 155.066 12.0793 158.599 12.9977 162.033L27.4521 215.998C28.3705 219.432 31.9042 221.468 35.3381 220.55L141.171 192.2C144.605 191.282 146.641 187.748 145.723 184.314L131.268 130.349C130.35 126.915 126.816 124.879 123.382 125.797Z" fill="url(#paint5_linear_26_2656)" stroke="#202121" stroke-width="7.72633"/>
      <path d="M130.708 171.517L124.659 148.956C119.248 150.414 113.518 146.601 111.881 140.471L34.8377 161.115C36.4748 167.264 33.4202 173.413 28.0098 174.851L34.0591 197.411C39.4695 195.953 45.1994 199.767 46.8365 205.896L123.88 185.252C122.243 179.103 125.298 172.954 130.708 171.517Z" fill="#B27C4A"/>
    </g>
    <path d="M52.6874 181.699C52.308 178.285 49.2534 175.829 45.8395 176.208C42.4255 176.588 39.9699 179.642 40.3492 183.056C40.7285 186.47 43.7831 188.926 47.1971 188.546C50.611 188.167 53.0667 185.113 52.6874 181.699Z" fill="url(#paint6_linear_26_2656)"/>
    <path d="M135.48 155.505H10.3216C6.76793 155.505 3.87305 158.4 3.87305 161.953V226.12C3.87305 229.674 6.76793 232.569 10.3216 232.569H135.48C139.034 232.569 141.929 229.674 141.929 226.12V161.953C141.929 158.4 139.034 155.505 135.48 155.505Z" fill="url(#paint7_linear_26_2656)" stroke="#202121" stroke-width="7.72633"/>
    <path d="M129.75 207.293V180.76C123.381 180.76 118.21 174.911 118.21 167.683H27.5904C27.5904 174.911 22.4195 180.76 16.0508 180.76V207.293C22.4195 207.293 27.5904 213.143 27.5904 220.37H118.21C118.21 213.143 123.381 207.293 129.75 207.293Z" fill="#B27C4A"/>

    <path d="M61.3322 182.677L50.711 183.994C50.4315 182.517 49.9723 181.459 49.3135 180.84C48.6546 180.221 47.856 179.922 46.8778 179.922C45.1408 179.922 43.8032 180.8 42.8449 182.537C42.1461 183.795 41.6271 186.49 41.2877 190.623C42.5654 189.325 43.8831 188.367 45.2207 187.748C46.5583 187.129 48.1156 186.809 49.8924 186.809C53.3264 186.809 56.2212 188.027 58.597 190.483C60.9728 192.939 62.1507 196.033 62.1507 199.786C62.1507 202.322 61.5518 204.638 60.3539 206.734C59.156 208.83 57.499 210.428 55.3627 211.486C53.2465 212.564 50.5712 213.103 47.3769 213.103C43.5237 213.103 40.4491 212.444 38.1133 211.126C35.7774 209.809 33.9207 207.712 32.5431 204.838C31.1456 201.963 30.4668 198.149 30.4668 193.418C30.4668 186.47 31.9242 181.399 34.8391 178.165C37.7539 174.93 41.8067 173.333 46.9776 173.333C50.0322 173.333 52.4479 173.693 54.2248 174.391C56.0016 175.11 57.479 176.128 58.637 177.506C59.8149 178.863 60.6933 180.58 61.3122 182.657L61.3322 182.677ZM41.647 199.806C41.647 201.883 42.1661 203.52 43.2242 204.698C44.2824 205.876 45.5601 206.475 47.0774 206.475C48.4749 206.475 49.6529 205.936 50.5912 204.877C51.5295 203.819 52.0087 202.222 52.0087 200.106C52.0087 197.99 51.5096 196.293 50.5313 195.155C49.553 194.017 48.3352 193.458 46.8778 193.458C45.4203 193.458 44.1426 194.017 43.1444 195.115C42.1461 196.213 41.6271 197.79 41.6271 199.826L41.647 199.806Z" fill="url(#paint8_linear_26_2656)"/>
    <path d="M97.1681 182.677L86.5469 183.994C86.2674 182.517 85.8082 181.459 85.1494 180.84C84.4906 180.221 83.692 179.922 82.7137 179.922C80.9768 179.922 79.6391 180.8 78.6808 182.537C77.9821 183.795 77.463 186.49 77.1236 190.623C78.4013 189.325 79.719 188.367 81.0566 187.748C82.3943 187.129 83.9515 186.809 85.7284 186.809C89.1623 186.809 92.0572 188.027 94.433 190.483C96.8088 192.939 97.9867 196.033 97.9867 199.786C97.9867 202.322 97.3877 204.638 96.1899 206.734C94.992 208.83 93.3349 210.428 91.1987 211.486C89.0824 212.564 86.4072 213.103 83.2128 213.103C79.3596 213.103 76.2851 212.444 73.9492 211.126C71.6133 209.809 69.7566 207.712 68.3791 204.838C66.9815 201.963 66.3027 198.149 66.3027 193.418C66.3027 186.47 67.7602 181.399 70.675 178.165C73.5898 174.93 77.6427 173.333 82.8135 173.333C85.8681 173.333 88.2838 173.693 90.0607 174.391C91.8376 175.11 93.3149 176.128 94.4729 177.506C95.6508 178.863 96.5293 180.58 97.1482 182.657L97.1681 182.677ZM77.483 199.806C77.483 201.883 78.002 203.52 79.0602 204.698C80.1183 205.876 81.396 206.475 82.9133 206.475C84.3109 206.475 85.4888 205.936 86.4271 204.877C87.3655 203.819 87.8446 202.222 87.8446 200.106C87.8446 197.99 87.3455 196.293 86.3672 195.155C85.389 194.017 84.1711 193.458 82.7137 193.458C81.2563 193.458 79.9785 194.017 78.9803 195.115C77.9821 196.213 77.463 197.79 77.463 199.826L77.483 199.806Z" fill="url(#paint9_linear_26_2656)"/>
    <path d="M116.474 202.502C115.895 204.778 114.857 206.515 113.5 207.872C114.518 208.451 115.696 208.89 116.993 209.19C116.534 209.629 115.915 210.467 115.636 211.027C114.158 210.607 112.881 210.008 111.783 209.23C110.645 209.968 109.327 210.507 107.89 210.947C107.69 210.408 107.211 209.629 106.831 209.17C106.772 209.789 106.592 210.228 106.173 210.487C105.673 210.827 104.955 210.887 103.917 210.887C103.857 210.348 103.637 209.429 103.378 208.91C103.937 208.91 104.476 208.91 104.655 208.91C104.835 208.91 104.915 208.83 104.915 208.631V205.077C104.436 205.377 103.976 205.676 103.537 205.955L103.018 204.678C102.898 206.914 102.579 209.31 101.9 211.066C101.521 210.747 100.642 210.288 100.203 210.108C101.141 207.652 101.181 204.079 101.181 201.483V194.995H106.811V200.345C108.748 199.387 108.968 198.089 108.968 196.931V195.015H114.977V198.928C114.977 199.447 115.017 199.647 115.237 199.647H115.935C116.175 199.647 116.574 199.587 116.814 199.527C116.874 200.046 116.894 200.745 116.973 201.204C116.714 201.304 116.315 201.324 115.955 201.324H115.037C113.34 201.324 113 200.605 113 198.888V196.971H110.904C110.904 198.688 110.385 200.645 108.049 201.843C107.83 201.503 107.211 200.845 106.811 200.505V208.691C106.811 208.83 106.811 208.97 106.811 209.11C108.029 208.83 109.147 208.391 110.146 207.832C109.207 206.834 108.449 205.676 107.85 204.338L108.728 204.079H107.45V202.102H114.717L115.117 202.022L116.454 202.522L116.474 202.502ZM103.138 201.463C103.138 202.202 103.138 203.041 103.078 203.899C103.617 203.719 104.236 203.48 104.935 203.22V201.264L104.216 201.843C103.976 201.503 103.577 200.984 103.118 200.485V201.463H103.138ZM103.138 196.911V199.128L103.637 198.768C104.076 199.187 104.555 199.667 104.935 200.106V196.911H103.138ZM109.846 204.079C110.305 205.017 110.984 205.876 111.803 206.614C112.581 205.916 113.26 205.057 113.739 204.079H109.866H109.846Z" fill="url(#paint10_linear_26_2656)"/>
  </g>
   <!-- star -->
  <g id="sparkle">
    <path d="M67.4014 114.737C64.9257 114.737 62.7696 112.96 62.3303 110.524L60.6134 101.64C60.0743 98.905 57.9581 96.7887 55.2429 96.2297L46.3586 94.4728C43.9229 93.9937 42.166 91.8375 42.166 89.3818C42.166 86.9262 43.9429 84.75 46.3786 84.3108L55.2628 82.5938C57.998 82.0548 60.1143 79.9385 60.6733 77.2233L62.4302 68.3391C62.9093 65.9034 65.0655 64.1465 67.5212 64.1465C69.9768 64.1465 72.153 65.9233 72.6121 68.359L74.3291 77.2633C74.8682 79.9984 76.9844 82.1147 79.6996 82.6737L88.5839 84.4306C91.0196 84.9098 92.7765 87.0659 92.7765 89.5216C92.7765 91.9772 90.9996 94.1534 88.5639 94.5926L79.6796 96.3096C76.9445 96.8486 74.8282 98.9649 74.2692 101.68L72.5123 110.564C72.0332 112.98 69.897 114.757 67.4213 114.757L67.4014 114.737Z" fill="white" stroke="#202121" stroke-width="6.06926"/>
  </g>
</g>













<defs>
<linearGradient id="paint0_linear_26_2656" x1="119.569" y1="43.9423" x2="236.462" y2="233.148" gradientUnits="userSpaceOnUse">
<stop stop-color="#393A3A"/>
<stop offset="0.25" stop-color="#353535"/>
<stop offset="0.53" stop-color="#282828"/>
<stop offset="0.81" stop-color="#121212"/>
<stop offset="1" stop-color="#040000"/>
</linearGradient>
<linearGradient id="paint1_linear_26_2656" x1="145.283" y1="51.7683" x2="195.275" y2="51.7683" gradientUnits="userSpaceOnUse">
<stop stop-color="#F7F5CA"/>
<stop offset="0.18" stop-color="#EEE8BC"/>
<stop offset="0.34" stop-color="#D8C794"/>
<stop offset="0.5" stop-color="#D5B681"/>
<stop offset="0.84" stop-color="#DCBF8D"/>
</linearGradient>
<linearGradient id="paint2_linear_26_2656" x1="170.678" y1="87.5651" x2="170.678" y2="166.046" gradientUnits="userSpaceOnUse">
<stop stop-color="#F7F5CA"/>
<stop offset="0.18" stop-color="#EEE8BC"/>
<stop offset="0.34" stop-color="#D8C794"/>
<stop offset="0.5" stop-color="#D5B681"/>
<stop offset="0.84" stop-color="#DCBF8D"/>
</linearGradient>
<linearGradient id="paint3_linear_26_2656" x1="115.176" y1="178.943" x2="126.057" y2="178.644" gradientUnits="userSpaceOnUse">
<stop stop-color="#F7F5CA"/>
<stop offset="0.18" stop-color="#EEE8BC"/>
<stop offset="0.34" stop-color="#D8C794"/>
<stop offset="0.5" stop-color="#D5B681"/>
<stop offset="0.84" stop-color="#DCBF8D"/>
</linearGradient>
<linearGradient id="paint4_linear_26_2656" x1="82.1138" y1="179.003" x2="106.95" y2="193.338" gradientUnits="userSpaceOnUse">
<stop stop-color="#F7F5CA"/>
<stop offset="0.18" stop-color="#EEE8BC"/>
<stop offset="0.34" stop-color="#D8C794"/>
<stop offset="0.5" stop-color="#D5B681"/>
<stop offset="0.84" stop-color="#DCBF8D"/>
</linearGradient>
<linearGradient id="paint5_linear_26_2656" x1="72.4525" y1="141.33" x2="85.8088" y2="203.001" gradientUnits="userSpaceOnUse">
<stop stop-color="#F9F5C5"/>
<stop offset="0.18" stop-color="#F1E8B6"/>
<stop offset="0.34" stop-color="#DCC78E"/>
<stop offset="0.5" stop-color="#DBB578"/>
<stop offset="0.84" stop-color="#E2BF86"/>
</linearGradient>
<linearGradient id="paint6_linear_26_2656" x1="39.91" y1="183.116" x2="53.6856" y2="181.599" gradientUnits="userSpaceOnUse">
<stop stop-color="#F7F5CA"/>
<stop offset="0.18" stop-color="#EEE8BC"/>
<stop offset="0.34" stop-color="#D8C794"/>
<stop offset="0.5" stop-color="#D5B681"/>
<stop offset="0.84" stop-color="#DCBF8D"/>
</linearGradient>
<linearGradient id="paint7_linear_26_2656" x1="74.6878" y1="157.042" x2="71.2339" y2="228.636" gradientUnits="userSpaceOnUse">
<stop stop-color="#F9F5C5"/>
<stop offset="0.18" stop-color="#F1E8B6"/>
<stop offset="0.34" stop-color="#DCC78E"/>
<stop offset="0.5" stop-color="#DBB578"/>
<stop offset="0.84" stop-color="#E2BF86"/>
</linearGradient>
<linearGradient id="paint8_linear_26_2656" x1="36.9553" y1="183.934" x2="172.396" y2="309.532" gradientUnits="userSpaceOnUse">
<stop stop-color="#F7F5CA"/>
<stop offset="0.18" stop-color="#EEE8BC"/>
<stop offset="0.34" stop-color="#D8C794"/>
<stop offset="0.5" stop-color="#D5B681"/>
<stop offset="0.84" stop-color="#DCBF8D"/>
</linearGradient>
<linearGradient id="paint9_linear_26_2656" x1="53.5253" y1="166.066" x2="188.966" y2="291.664" gradientUnits="userSpaceOnUse">
<stop stop-color="#F7F5CA"/>
<stop offset="0.18" stop-color="#EEE8BC"/>
<stop offset="0.34" stop-color="#D8C794"/>
<stop offset="0.5" stop-color="#D5B681"/>
<stop offset="0.84" stop-color="#DCBF8D"/>
</linearGradient>
<linearGradient id="paint10_linear_26_2656" x1="60.3536" y1="158.699" x2="195.794" y2="284.297" gradientUnits="userSpaceOnUse">
<stop stop-color="#F7F5CA"/>
<stop offset="0.18" stop-color="#EEE8BC"/>
<stop offset="0.34" stop-color="#D8C794"/>
<stop offset="0.5" stop-color="#D5B681"/>
<stop offset="0.84" stop-color="#DCBF8D"/>
</linearGradient>
<clipPath id="clip0_26_2656">
<rect width="260" height="236.422" fill="white"/>
</clipPath>
</defs>
</svg>
