<svg width="1000" height="211" viewBox="0 0 1000 211" fill="none" xmlns="http://www.w3.org/2000/svg">

<style>
  <!-- #typewriter path {
    stroke: #000;
    stroke-width: 1.5;
    stroke-dasharray: 1000;
    stroke-dashoffset: 1000;
    animation: draw 5s linear forwards infinite;
  }

  @keyframes draw {
    to {
      stroke-dashoffset: 0;
    }
  } -->


</style>
<g id="typewriter">
  <path d="M139.054 53.7986C136.924 70.1069 130.687 82.3934 120.343 90.6754C119.269 91.2377 118.622 91.3059 118.366 90.8628C118.111 90.3686 118.213 89.8915 118.656 89.4484C123.291 79.7862 125.609 58.093 125.609 24.3688V4.43086C125.677 3.30615 125.915 2.64155 126.358 2.4541C126.802 2.19848 132.186 4.14116 142.53 8.28212H186.462L192.017 1.7043C192.512 1.02266 192.989 0.664795 193.432 0.664795C193.994 0.664795 194.505 0.852246 194.931 1.22715L204.338 8.55478C205.412 9.44091 205.94 10.3782 205.94 11.3836C205.872 12.5765 205.156 13.4455 203.776 14.0249C202.464 14.7236 201.799 15.8142 201.799 17.3139V75.151C201.799 81.5414 201.1 85.529 199.737 87.0967C198.425 88.6645 196.499 89.8574 193.994 90.6754C189.103 91.8001 185.627 91.9875 183.548 91.2377C183.241 91.1184 183.054 90.4538 182.986 89.261C183.105 85.6823 182.577 83.0239 181.384 81.2687C180.004 79.2068 177.533 77.2811 173.954 75.5259C173.136 75.151 172.761 74.6739 172.829 74.1115C173.017 73.5491 173.613 73.3958 174.619 73.6344C181.895 74.8272 185.746 75.2362 186.189 74.8613C186.564 74.6057 186.752 73.6003 186.752 71.845V53.7816H170.955V84.4383C170.955 86.8922 170.461 88.4259 169.455 89.0394C168.382 89.7211 166.354 90.096 163.337 90.1641C159.759 90.3516 157.561 90.13 156.76 89.4995C155.942 88.8008 155.533 87.1138 155.533 84.4213V53.7645H139.071L139.054 53.7986ZM155.516 31.6112H140.468C140.162 39.1945 139.77 45.7212 139.344 51.1743H155.516V31.6112ZM155.516 10.9235H140.554V28.9869H155.516V10.9235ZM170.938 28.9699H186.735V10.9235H170.938V28.9869V28.9699ZM170.938 51.1743H186.735V31.6112H170.938V51.1743Z" fill="#443B38"/>
  <path d="M266.998 89.3632C266.998 90.6753 266.777 91.5614 266.334 92.0045C265.84 92.4987 265.26 92.8566 264.647 93.044C263.897 93.2996 262.073 93.453 259.194 93.5212C255.802 93.6404 253.792 93.4871 253.178 93.044C252.548 92.5498 252.139 92.0045 251.951 91.4422C251.764 90.8798 251.696 90.1811 251.764 89.3802V60.5979C249.378 60.5298 247.878 60.2912 247.248 59.8481C246.43 59.1665 246.021 57.4624 246.021 54.7699V36.519C242.698 37.337 239.443 37.8653 236.239 38.1209C235.49 38.1209 235.115 37.9334 235.115 37.5585C234.995 37.1836 235.234 36.8769 235.864 36.6213C242.442 33.7413 249.122 28.8847 255.905 22.0342C262.056 15.8312 266.47 9.59424 269.163 3.32316C269.418 2.88009 269.657 2.53927 269.912 2.28366C270.355 2.02804 270.594 1.94284 270.662 1.99396L287.976 8.29913C289.288 8.74219 289.85 9.45792 289.663 10.4633C289.407 11.0939 288.964 11.588 288.351 11.9629C296.19 17.1604 308.595 19.904 325.602 20.1426C326.352 20.0745 326.761 20.2619 326.829 20.705C326.897 21.1992 326.642 21.5911 326.079 21.8297C323.251 23.2782 321.086 27.0953 319.587 33.2983C319.212 35.3091 318.888 36.4338 318.65 36.6894C318.394 36.8769 318.087 36.9791 317.712 36.9791C317.337 37.4222 316.826 37.763 316.213 38.0186C315.207 38.5128 314.747 39.4671 314.798 40.8474V57.1216C314.73 58.0588 314.389 58.7575 313.759 59.1835C312.753 60.0697 309.72 60.4957 304.642 60.4957L310.282 63.7846C313.231 65.5398 313.196 67.1076 310.18 68.4879C309.175 68.9821 308.698 69.9364 308.766 71.3167V90.2152C308.698 91.1525 308.357 91.8511 307.726 92.2772C306.84 93.0951 304.778 93.5382 301.523 93.5893C297.57 93.7768 295.218 93.5552 294.468 92.9247C293.77 92.3624 293.429 91.4251 293.429 90.0959V88.034H266.998V89.3461V89.3632ZM300.296 30.9466C298.661 29.7537 297.059 28.4757 295.508 27.0953H268.328C265.448 28.5438 262.022 30.2991 258.069 32.361H298.882L300.296 30.9466ZM299.444 57.6669V56.4399H261.358C261.051 57.9396 260.574 58.9109 259.943 59.354C259.449 59.6096 258.87 59.8311 258.256 60.0186L267.101 62.8474H292.867L297.57 58.144C298.013 57.701 298.456 57.4794 298.882 57.4794C299.069 57.5476 299.257 57.5987 299.444 57.6669ZM272.929 44.9714V35.0024H261.46V36.4168C263.914 36.9791 266.197 38.0186 268.328 39.5182C270.645 41.086 272.128 42.756 272.741 44.5112C272.809 44.5794 272.86 44.7328 272.929 44.9884V44.9714ZM272.929 53.7986V49.6576C272.622 50.3563 272.23 50.9187 271.804 51.3447C270.73 52.2819 269.606 52.7591 268.413 52.7591C265.771 52.7591 264.374 51.072 264.187 47.6809C263.692 43.0457 262.772 39.9443 261.46 38.3765V53.7986H272.929ZM293.429 73.7536V65.4717H266.998V73.7536H293.429ZM293.429 85.4096V76.3779H266.998V85.4096H293.429ZM291.265 22.5795C289.203 20.0063 287.192 16.8026 285.249 12.9854C284.806 13.1729 284.499 13.4626 284.312 13.8375C280.682 17.8591 276.661 21.3866 272.281 24.471H280.461C283.528 21.3355 285.351 19.7677 285.914 19.7677C286.408 19.7677 286.885 19.887 287.328 20.1426C288.777 20.9606 290.089 21.7786 291.282 22.5965L291.265 22.5795ZM299.444 39.7909V35.0024H287.209V51.3617C288.709 48.6011 290.055 44.1193 291.248 37.9164C291.367 37.2347 291.554 36.7576 291.81 36.502C292.066 36.4338 292.304 36.4338 292.56 36.502L299.427 39.7909H299.444ZM299.444 53.7986V44.3068C299.189 44.3749 299.035 44.5283 298.967 44.7839C296.394 47.6127 292.764 50.6119 288.061 53.8156H299.444V53.7986Z" fill="#443B38"/>
  <path d="M406.428 89.3631C406.428 90.6753 406.206 91.5614 405.763 92.0045C405.269 92.4987 404.69 92.8566 404.076 93.044C403.327 93.2996 401.503 93.453 398.623 93.5212C395.232 93.6404 393.221 93.4871 392.608 93.044C391.977 92.5498 391.568 92.0045 391.381 91.4422C391.193 90.8798 391.125 90.1811 391.193 89.3802V54.7699C391.262 54.4632 391.313 54.2076 391.381 54.0201C390.256 53.7645 389.472 53.5259 389.029 53.2703C388.33 52.708 387.99 51.4469 387.99 49.5043V27.1124C386.729 27.4873 385.536 27.8622 384.411 28.2371C386.797 31.7475 387.887 33.9799 387.7 34.9172C387.632 35.2239 387.513 35.3943 387.325 35.3943H377.629V62.3873C382.894 61.1944 386.405 60.3764 388.16 59.9333C389.165 59.6266 389.762 59.5925 389.949 59.8311C390.018 60.1378 389.728 60.5809 389.097 61.1433C388.654 61.5863 383.269 66.4089 372.925 75.6281C367.404 79.8372 364.643 82.24 364.643 82.8705C364.763 84.1827 364.609 85.0688 364.166 85.5119C363.791 85.8868 363.382 85.989 362.939 85.8016C361.815 84.9154 358.798 79.1215 353.908 68.4027C353.277 67.2099 353.567 66.5793 354.76 66.5282C356.208 66.4089 358.901 66.034 362.854 65.4035V35.3943H354.862C353.976 35.3943 353.55 34.9172 353.55 33.9799C353.618 33.1619 354.044 32.753 354.862 32.753H362.854V6.96992C362.786 6.28828 362.854 5.81113 363.042 5.55552C363.297 5.18062 363.911 5.02725 364.916 5.07837L376.76 5.55552C378.634 5.62368 379.861 5.86226 380.423 6.30532C381.054 6.68022 381.361 7.24258 381.361 7.99238C381.293 8.87851 380.662 9.62832 379.486 10.2418C378.174 10.9916 377.544 11.7755 377.612 12.5935V32.7189H378.276C379.469 30.7762 380.662 28.7654 381.855 26.7034C382.162 26.3967 382.451 26.2262 382.707 26.2262C382.894 26.2262 383.116 26.3455 383.372 26.6012C389.523 20.0744 393.341 13.0536 394.84 5.53848C395.096 4.72051 395.334 4.27744 395.59 4.22632C395.777 4.10703 396.255 4.15816 397.004 4.41377L408.388 8.82739C410.211 9.57719 411.029 10.3611 410.842 11.179C410.586 11.9289 410.058 12.406 409.24 12.5935C407.979 12.8491 406.956 13.5307 406.138 14.6554C404.315 16.5981 402.56 18.3192 400.873 19.8359L402.56 21.0628H427.388C425.071 17.808 423.316 13.7863 422.123 9.03188H412.426C411.932 8.96372 411.54 8.81035 411.302 8.55473C411.046 8.248 410.927 7.89014 410.927 7.51523C410.995 7.14033 411.148 6.85063 411.404 6.66318C411.591 6.40757 411.881 6.32236 412.256 6.37349H420.351L423.265 2.52222C423.452 2.07915 423.742 1.8917 424.117 1.95987C424.423 1.8917 424.781 2.06211 425.156 2.43702L429.484 5.72593C430.047 6.22012 430.234 6.79951 430.047 7.41299C429.859 8.11167 429.076 8.53769 427.695 8.72514C426.434 9.03188 426.127 9.69648 426.758 10.7019C427.695 11.4517 429.672 12.0141 432.688 12.389C436.13 12.832 439.777 12.6446 443.594 11.8266C444.651 11.8948 445.23 12.1333 445.281 12.5764C445.35 13.1388 445.094 13.65 444.532 14.076C442.146 16.3936 440.732 20.8754 440.306 27.5214C440.118 28.4075 439.897 28.9358 439.641 29.1232C439.573 29.1232 439.539 29.1573 439.539 29.2255V47.9365C439.539 50.1859 439.062 51.6344 438.124 52.2649C436.863 53.0147 433.864 53.3896 429.093 53.3896L438.397 58.8427C441.345 60.5979 441.311 62.1657 438.295 63.546C437.289 64.0402 436.812 64.9945 436.88 66.3748V90.1641C436.812 91.1013 436.471 91.8 435.841 92.226C434.955 93.044 432.893 93.4871 429.638 93.5382C425.684 93.7256 423.333 93.5041 422.583 92.8736C421.884 92.3112 421.543 91.374 421.543 90.0448V87.216H406.394V89.2779L406.428 89.3631ZM426.281 52.7761C425.531 52.2819 425.156 51.3617 425.156 50.0496H402.117C401.997 51.873 401.333 52.9977 400.14 53.4407C398.947 53.6963 397.038 53.9179 394.397 54.1053L406.633 57.9566H421.015L425.718 53.2533C425.838 52.9977 426.025 52.8443 426.281 52.7761ZM408.592 32.6507V23.7212H402.202V26.2603C403.889 27.3339 405.235 28.4245 406.241 29.5492C407.178 30.4865 407.962 31.526 408.592 32.6507ZM402.202 26.9931V40.9156C402.27 40.7963 402.321 40.6941 402.389 40.6259C404.145 35.1046 404.622 31.2874 403.804 29.1573C403.497 28.3393 402.952 27.6236 402.202 26.9931ZM408.592 47.4082V43.182C408.03 43.8807 407.433 44.409 406.803 44.7839C405.798 45.1588 404.894 45.1588 404.076 44.7839C403.19 44.2897 402.577 43.6251 402.202 42.8071V47.4082H408.592ZM421.577 70.7373V60.5809H406.428V70.7373H421.577ZM421.577 84.6598V73.3787H406.428V84.6598H421.577ZM425.054 27.8451V23.7042H418.374V43.9318C419.447 38.2231 420.061 32.6507 420.248 27.1976C420.248 26.8227 420.351 26.6012 420.538 26.533C420.657 26.4648 420.845 26.4648 421.1 26.533L425.054 27.8451ZM425.054 47.4082V37.6267C423.554 40.3192 421.475 43.591 418.851 47.4082H425.054Z" fill="#D82B17"/>
  <path d="M474.183 55.5027C473.433 56.1332 472.87 56.2184 472.496 55.7924C472.189 55.3493 472.206 54.9233 472.598 54.4802C479.499 43.4377 483.231 27.368 483.794 6.23717C483.794 5.4192 483.913 4.89093 484.169 4.63531C484.356 4.44786 485.021 4.3797 486.145 4.44786L501.755 5.38512C503.953 5.50441 505.078 6.0838 505.146 7.07218C505.214 8.19688 504.635 9.13414 503.459 9.90098C502.147 10.5997 501.397 11.5028 501.21 12.6275C499.71 19.3417 497.444 25.698 494.444 31.7135C496.08 31.9691 496.881 32.5655 496.881 33.5028C496.881 34.3207 496.472 35.0024 495.654 35.5647C494.904 36.1271 494.564 36.911 494.615 37.9164V89.7381C494.495 91.3058 494.121 92.3794 493.49 92.9418C492.74 93.5041 490.729 93.9131 487.475 94.1687C484.152 94.3562 482.209 94.2369 481.647 93.7938C480.76 92.9759 480.334 91.6296 480.334 89.7551V50.3393C478.392 52.0945 476.347 53.8156 474.217 55.5197L474.183 55.5027ZM512.644 88.4259V89.3632C512.576 91.5614 512.15 92.8395 511.332 93.2144C510.258 93.7086 508.316 93.9983 505.504 94.0665C502.249 94.0665 500.306 93.8449 499.676 93.4019C498.79 92.8395 498.364 91.4933 498.364 89.3632V28.2201C498.296 27.6577 498.398 27.2487 498.653 26.9931C498.909 26.6864 499.25 26.55 499.693 26.6182L511.536 27.4703C512.917 27.5895 513.82 27.8792 514.263 28.3223C515.524 29.447 515.354 30.674 513.786 31.9861C512.968 32.5485 512.593 33.3324 512.661 34.3378V85.7846H543.13C544.511 83.91 545.891 82.0867 547.271 80.3314C544.886 80.3314 543.42 80.1099 542.858 79.6668C542.227 79.0363 541.886 78.1331 541.818 76.9403V75.6281H531.1V77.6901C531.031 79.7009 530.691 80.9279 530.06 81.3539C529.361 81.9844 527.299 82.3934 523.857 82.5808C520.722 82.7001 518.779 82.4786 518.029 81.9162C517.211 81.3539 516.802 79.9395 516.802 77.6901V22.6817C516.802 22.1875 516.921 21.8297 517.177 21.6422C517.364 21.4548 517.671 21.4548 518.114 21.6422L528.271 25.8684V16.9389H503.715C502.897 16.9389 502.488 16.4618 502.488 15.5245C502.488 14.7065 502.897 14.2976 503.715 14.2976H528.271V5.84523C528.203 5.16359 528.271 4.68644 528.458 4.43082C528.714 4.05592 529.344 3.90255 530.333 3.95367L542.193 4.43082C544.068 4.49899 545.295 4.73756 545.857 5.18063C546.488 5.55553 546.794 6.11788 546.794 6.86769C546.726 7.75382 546.096 8.50362 544.92 9.1171C543.608 9.8669 542.977 10.6508 543.028 11.4688V14.2976H545.482C549.061 9.52608 550.969 7.15738 551.225 7.15738C551.6 7.15738 552.077 7.34483 552.639 7.71974C558.587 12.7298 561.569 15.3711 561.569 15.6268C561.569 16.1209 561.484 16.5129 561.296 16.7515C561.109 16.8708 560.972 16.9389 560.921 16.9389H543.045V25.4083L545.772 22.7669C546.147 22.3239 546.556 22.1023 546.999 22.1023C547.493 22.1023 548.055 22.3239 548.686 22.7669L557.718 28.0326C558.962 28.7824 559.592 29.4811 559.592 30.0946C559.592 31.1 558.927 31.8839 557.615 32.4462C556.729 32.9404 556.303 33.8606 556.303 35.1728V77.1277C556.303 78.0139 555.979 78.6614 555.366 79.1045C554.872 79.4794 554.105 79.8032 553.116 80.0417C558.757 84.3701 561.586 86.7218 561.586 87.0967C561.586 87.5909 561.467 87.9658 561.211 88.2214C561.023 88.3407 560.904 88.4089 560.836 88.4089H512.678L512.644 88.4259ZM541.801 42.1426V29.7197H531.082V42.1426H541.801ZM541.801 57.5647V44.7669H531.082V57.5647H541.801ZM541.801 72.9868V60.189H531.082V72.9868H541.801Z" fill="#D82B17"/>
  <path d="M630.721 46.3687V85.6823C630.653 86.6196 630.312 87.3183 629.682 87.7443C628.796 88.5623 626.734 89.0053 623.479 89.0564C619.525 89.2439 617.174 89.0224 616.424 88.3918C615.725 87.8295 615.384 86.8922 615.384 85.563V79.735H606.642V86.6877C606.642 88.7497 606.267 90.0789 605.517 90.6413C604.768 91.2718 602.569 91.6808 598.94 91.8682C595.617 91.9875 593.572 91.766 592.822 91.2036C591.936 90.5049 591.51 89.0053 591.51 86.6877V20.4153C591.51 19.8529 591.629 19.478 591.885 19.2906C592.14 19.1031 592.481 19.1372 592.924 19.3928L603.745 23.8065C604.87 16.2743 605.245 10.3611 604.87 6.0327C604.683 4.90799 605.057 4.37972 605.995 4.43084C608.431 4.55013 613.237 5.09544 620.377 6.0327C622.388 6.22015 623.598 6.54393 624.041 6.96995C624.416 7.46414 624.518 8.04353 624.331 8.65701C624.075 9.28753 623.359 9.8158 622.167 10.2589C620.854 10.7019 620.002 11.2302 619.627 11.8607C616.611 16.3084 613.322 20.8924 609.744 25.5958H614.822L619.525 20.8924C619.968 20.4494 620.394 20.2278 620.837 20.2278C621.28 20.2278 621.877 20.4494 622.627 20.8924L632.221 26.533C635.169 28.2882 635.135 29.856 632.118 31.2363C631.113 31.7305 630.653 32.6848 630.704 34.0651V41.7847C634.964 32.6337 637.384 20.8072 637.946 6.32239C638.015 5.50442 638.168 4.97615 638.424 4.72054C638.611 4.60125 639.208 4.56717 640.213 4.61829L654.885 6.0327C656.947 6.15198 658.021 6.69729 658.089 7.63455C658.157 8.75926 657.595 9.64539 656.402 10.2759C655.141 10.9746 654.425 11.8096 654.238 12.815C653.3 16.0187 652.176 19.1543 650.847 22.2216H661.003L666.831 15.4564C667.018 15.0815 667.308 14.894 667.683 14.894C668.058 14.894 668.433 15.0133 668.808 15.2689L679.066 22.2216C680.191 22.9714 680.788 23.8235 680.856 24.7608C680.856 26.0218 680.259 27.0442 679.066 27.8622C677.942 28.7483 677.379 29.7708 677.379 30.9637C677.124 61.7568 674.994 80.2462 670.989 86.4492C667.853 91.0332 662.111 93.2144 653.778 93.027C653.266 92.9077 652.994 92.7373 652.926 92.5498C652.738 92.2942 652.636 91.8852 652.636 91.3229C652.704 84.4895 649.807 79.5646 643.979 76.5483C643.417 76.3609 643.161 75.986 643.229 75.4236C643.348 74.9806 643.706 74.8613 644.269 75.0487C648.154 75.6111 651.511 75.8667 654.34 75.7985C655.976 75.8667 657.169 75.3896 657.919 74.3841C659.043 72.9357 660.083 68.1471 661.02 60.0015C661.957 50.9187 662.332 39.1774 662.145 24.8289H649.534C647.592 28.7143 644.797 32.8211 641.167 37.1496C644.303 38.4617 647.132 40.2851 649.637 42.6027C652.891 45.4826 654.834 48.2773 655.465 50.9698C656.146 53.0318 656.129 55.196 655.362 57.4624C654.596 59.7289 653.454 61.3478 651.886 62.3532C649.756 63.6142 647.711 64.0403 645.768 63.6654C641.372 62.6088 639.463 59.3029 640.025 53.7816C640.707 47.323 640.315 42.5856 638.799 39.5864C636.294 41.9722 633.601 44.2216 630.704 46.3517L630.721 46.3687ZM615.401 50.0496V28.2371H606.659V50.0496H615.401ZM615.401 77.1277V52.6739H606.659V77.1277H615.401Z" fill="#443B38"/>
  <path d="M721.618 37.3541C722.061 37.2348 722.402 37.4563 722.658 38.0187C724.975 41.7848 726.696 46.3347 727.838 51.6515C728.894 56.6104 728.877 61.5523 727.736 66.5112C726.73 70.9078 725.163 73.9411 723.032 75.6282C720.834 77.3834 718.431 78.1673 715.79 77.9798C713.285 77.7924 711.172 76.6336 709.485 74.5035C708.599 73.3788 708.036 72.22 707.798 71.0271C706.792 66.7669 707.832 63.5631 710.899 61.433C717.852 56.0481 721.243 48.4478 721.056 38.6663C720.987 37.8483 721.175 37.4052 721.618 37.3541ZM763.011 92.4647H749.276C741.369 92.9589 736.58 92.0898 734.893 89.8233C734.075 88.7497 733.666 87.1649 733.666 85.0348V27.9475C733.785 27.2658 733.973 26.7205 734.228 26.3456C734.535 25.9025 735.08 25.7151 735.83 25.7833L748.338 26.7205C750.468 26.8398 751.729 27.2147 752.104 27.8452C753.229 29.6004 752.479 30.8956 749.855 31.6965C749.293 31.8839 749.003 32.3611 749.003 33.1109V75.0658C749.003 76.5654 749.224 77.4516 749.668 77.7072C750.162 78.2014 751.951 78.4229 755.035 78.3718H762.567C764.953 78.4399 766.93 77.9628 768.498 76.9574C770.44 75.8327 772.758 71.4702 775.45 63.8869C775.706 63.3246 776.047 63.069 776.49 63.1371C776.984 63.2564 777.206 63.6313 777.155 64.2618C776.524 69.5275 777.086 72.8505 778.842 74.2308C780.716 75.4918 781.688 76.7018 781.756 77.8946C782.131 79.2749 782.011 80.9961 781.381 83.0751C780.307 86.8412 777.717 89.4143 773.576 90.7947C770.185 91.9875 766.674 92.5499 763.045 92.4817L763.011 92.4647ZM741.471 6.59509C741.471 6.22019 741.76 6.03274 742.323 6.03274C745.901 5.726 750.162 6.13498 755.121 7.25969C764.34 9.1342 770.202 12.7128 772.707 17.9785C773.832 20.9266 773.985 23.7554 773.184 26.4479C772.179 29.2767 770.56 31.083 768.293 31.901C763.334 33.7755 759.926 32.3781 758.035 27.6748C754.149 18.8305 748.918 12.1505 742.323 7.63459C741.76 7.19153 741.471 6.85071 741.471 6.59509ZM774.394 35.9397C774.581 35.633 774.888 35.5989 775.331 35.8374C778.961 37.4734 782.949 40.0977 787.277 43.7445C795.235 50.3223 799.12 56.9172 798.933 63.495C798.677 66.6305 797.587 69.2378 795.644 71.2998C793.514 73.2424 791.282 74.1797 788.964 74.1286C788.027 74.0093 787.175 73.8389 786.425 73.6514C783.17 72.3904 781.534 68.9481 781.534 63.3075C781.279 53.4578 778.995 44.784 774.667 37.2518C774.411 36.6213 774.326 36.1953 774.377 35.9397H774.394Z" fill="#443B38"/>
  <path d="M839.508 66.7838C839.883 66.7838 840.173 67.0054 840.36 67.4484C844.433 75.0998 845.404 80.9279 843.274 84.9495C841.825 87.5227 839.849 89.3972 837.344 90.5901C835.333 91.4762 833.305 91.4933 831.226 90.6924C828.96 89.7551 827.528 88.2214 826.898 86.0913C826.335 84.1486 826.454 82.1037 827.272 79.9736C828.142 78.2183 829.437 76.9403 831.124 76.1223C834.702 74.8101 836.952 73.4639 837.889 72.0836C838.775 70.8226 839.116 69.5104 838.928 68.1301C838.86 67.3121 839.048 66.869 839.491 66.8179L839.508 66.7838ZM828.687 31.9861C827.869 31.9861 827.46 31.509 827.46 30.5717C827.46 29.7537 827.869 29.3448 828.687 29.3448H852.578C851.317 27.777 850.704 26.1411 850.704 24.454C850.005 20.313 848.727 17.3138 846.853 15.4223H832.078C831.26 15.4223 830.851 14.9451 830.851 14.0079C830.851 13.1899 831.26 12.7809 832.078 12.7809H863.587V5.07838C863.519 4.39674 863.621 3.91959 863.877 3.66398C864.132 3.28908 864.746 3.13571 865.751 3.18683L877.884 3.66398C879.827 3.73214 881.088 3.97072 881.65 4.41378C883.474 5.7941 883.15 7.14034 880.713 8.4525C879.333 9.27047 878.668 10.0884 878.736 10.9064V12.7809H892.182C896.442 7.07218 898.794 4.22633 899.237 4.22633C899.68 4.22633 900.208 4.44786 900.838 4.89093C907.604 10.6678 910.995 13.7352 910.995 14.1101C910.995 14.6043 910.876 14.9962 910.62 15.2348C910.433 15.3541 910.313 15.4223 910.245 15.4223H888.995C894.755 16.4958 898.027 17.2968 898.776 17.8762C899.407 18.5749 899.594 19.2224 899.339 19.8529C898.896 20.5516 898.18 20.9265 897.175 20.9776C895.794 21.0969 894.891 21.2844 894.448 21.54C891.313 23.9257 887.921 26.533 884.292 29.3448H895.385C899.714 23.4486 902.151 20.5005 902.713 20.5005C903.156 20.5686 903.684 20.8072 904.315 21.2503C911.268 26.959 914.761 30.0946 914.761 30.6569C914.761 31.1511 914.642 31.5431 914.386 31.7816C914.199 31.9009 914.079 31.9691 914.011 31.9691H828.704L828.687 31.9861ZM854.743 61.7056C854.299 62.1998 853.771 62.5577 853.141 62.7451C852.442 63.0007 850.755 63.1541 848.062 63.2223C844.859 63.3416 842.95 63.1882 842.32 62.7451C841.246 61.7397 840.82 60.5809 841.007 59.2688V34.2526C841.007 33.8777 841.127 33.5709 841.382 33.3153C841.689 33.0597 842.132 33.0256 842.695 33.2131L855.39 37.2518H887.376L891.04 33.1108C891.483 32.6166 891.909 32.361 892.352 32.361C892.795 32.4292 893.392 32.5826 894.141 32.8382L903.258 37.2518C904.315 37.8141 904.826 38.4106 904.758 39.0411C903.821 40.3021 902.883 41.5802 901.929 42.8924V61.041C901.997 62.1657 901.708 62.9496 901.077 63.3927C900.378 63.8869 898.691 64.2447 895.999 64.4322C892.676 64.6878 890.409 64.6878 889.234 64.4322C888.109 64.1254 887.547 63.3756 887.547 62.1828V60.206H855.288C855.169 60.9558 854.981 61.467 854.726 61.7056H854.743ZM880.151 92.4646H865.189C856.975 92.9588 852.016 92.0897 850.329 89.8233C849.443 88.7497 849.017 87.1649 849.017 85.0347V67.8233C849.136 67.1417 849.323 66.5964 849.579 66.2215C849.886 65.7784 850.431 65.591 851.181 65.6591L863.689 66.5964C865.819 66.7157 867.08 67.0906 867.455 67.7211C868.58 69.4763 867.83 70.7714 865.189 71.5724C864.626 71.7598 864.337 72.237 864.337 72.9868V75.0487C864.337 76.5483 864.626 77.4345 865.189 77.6901C865.751 78.1843 867.847 78.4058 871.494 78.3547H879.674C882.434 78.4228 884.684 77.9457 886.439 76.9403C887.938 76.0712 890.017 72.3392 892.642 65.7443C892.897 65.182 893.238 64.9264 893.681 64.9945C894.175 65.1138 894.397 65.4717 894.346 66.034C894.227 70.8055 895.01 73.6854 896.698 74.6909C898.333 75.6963 899.271 76.7017 899.526 77.7071C899.969 79.0874 899.901 80.8086 899.339 82.8876C898.265 86.7729 895.675 89.4143 891.534 90.7946C887.955 91.9875 884.172 92.5498 880.151 92.4817V92.4646ZM887.581 47.4082V39.8761H855.407V47.4082H887.581ZM887.581 57.5647V50.0325H855.407V57.5647H887.581ZM877.22 29.3448C879.469 23.4486 880.832 18.8134 881.258 15.4223H856.14C858.969 16.2402 860.963 17.4331 862.155 19.0009C863.212 20.4494 863.723 22.1364 863.655 24.0791C863.536 26.2774 862.803 28.0326 861.491 29.3448H877.203H877.22ZM874.97 61.6204C878.106 62.4384 880.355 63.6312 881.735 65.199C882.928 66.4601 883.61 68.0278 883.797 69.9023C884.053 71.845 883.763 73.4128 882.945 74.6057C881.872 76.1734 880.56 77.1448 878.992 77.5197C877.305 77.9627 875.754 77.673 874.391 76.6676C873.198 75.7985 872.295 74.3841 871.664 72.4414C869.909 67.3632 867.711 63.9721 865.086 62.285C864.831 62.0294 864.712 61.7908 864.712 61.5352C864.831 61.2796 865.121 61.1262 865.564 61.0581C868.631 60.615 871.767 60.8024 874.97 61.6204ZM908.456 69.8853C911.898 71.828 914.199 74.0263 915.323 76.4631C916.397 78.1502 916.789 80.0758 916.55 82.2059C916.295 84.4042 915.579 86.0913 914.386 87.2842C912.699 88.7838 910.961 89.5336 909.206 89.5336C907.144 89.6529 905.44 88.9371 904.127 87.3694C903.241 86.2447 902.525 83.7055 901.963 79.752C901.145 74.4182 899.39 70.2602 896.698 67.2439C896.442 66.9372 896.357 66.6475 896.408 66.3919C896.527 66.0852 896.885 65.9488 897.447 66.017C901.333 66.6475 904.996 67.9256 908.456 69.8683V69.8853Z" fill="#443B38"/>
  <!-- 第二段 -->
  <path d="M1.31216 181.419C0.426025 181.419 0 180.942 0 180.004C0.068164 179.186 0.494189 178.777 1.31216 178.777H7.42988L5.64057 125.269C5.64057 124.826 5.75986 124.587 6.01547 124.519C6.39037 124.331 6.69711 124.263 6.95273 124.331L17.1092 127.722C19.8698 125.081 22.2215 122.525 24.1641 120.003C24.3516 119.628 24.5731 119.441 24.8287 119.441C25.0843 119.372 25.3911 119.475 25.766 119.73L33.3833 125.183C33.3833 122.678 33.4856 121.332 33.673 121.145C33.9286 120.77 34.1672 120.582 34.4228 120.582L45.2439 121.809C47.4933 122.116 48.6521 122.593 48.7202 123.224C48.8395 124.417 48.2431 125.132 46.9309 125.388C45.9937 125.575 45.5165 126.274 45.5165 127.45C45.3972 128.575 45.3291 129.648 45.3291 130.654H51.532C52.5374 128.523 53.628 126.478 54.8209 124.536C55.1276 124.042 55.4173 123.786 55.6729 123.786C55.9286 123.786 56.2353 123.973 56.6102 124.348C57.8031 125.797 58.8596 127.075 59.8139 128.2C61.6884 130.33 62.5405 131.966 62.353 133.09C62.2337 133.21 62.1315 133.278 62.0633 133.278H45.1416C44.886 137.913 44.6645 141.56 44.477 144.184H47.3058L51.532 139.856C51.975 139.413 52.3159 139.191 52.5715 139.191C52.9464 139.191 53.3554 139.379 53.7984 139.753L61.7055 145.394C64.2786 147.405 64.1253 149.058 61.2283 150.387C60.3422 150.881 59.8821 151.546 59.8139 152.364L58.2121 178.794H66.6814L67.6187 162.997H61.501C60.6148 162.929 60.1888 162.503 60.1888 161.685C60.257 160.816 60.683 160.373 61.501 160.373H67.8061L68.7434 145.326H62.2508C61.3646 145.258 60.9386 144.832 60.9386 144.014C61.0068 143.128 61.4328 142.702 62.2508 142.702H68.8286L69.8681 127.279H62.1485C61.3987 127.16 61.0238 126.683 61.0238 125.865C61.0238 124.996 61.3987 124.587 62.1485 124.638H69.7658L74.2817 119.85C74.6566 119.406 75.0315 119.185 75.4064 119.185C75.7132 119.185 76.1562 119.406 76.7186 119.85L85.188 125.865C86.3808 126.751 87.0113 127.586 87.0625 128.404C87.0625 129.529 86.2786 130.466 84.7108 131.233C83.7054 131.727 83.1771 132.46 83.109 133.397L80.1949 176.937C82.3932 173.052 83.7736 171.109 84.3359 171.109C84.6426 171.109 84.9323 171.296 85.188 171.671C88.6984 176.937 90.3684 180.038 90.181 180.976C89.9935 181.282 89.8742 181.453 89.8061 181.453H1.31216V181.419ZM41.1029 190.638C42.6707 191.456 43.2671 192.325 42.8922 193.279C42.1935 194.285 41.1711 194.66 39.7907 194.404C38.4104 194.216 37.3198 194.404 36.5018 194.966C25.5956 201.544 14.553 206.247 3.39116 209.076C2.82881 209.264 2.4539 209.178 2.26645 208.786C2.079 208.48 2.19829 208.088 2.64135 207.662C11.8605 200.709 19.0007 192.989 24.0789 184.52C24.4538 183.89 24.7606 183.549 25.0162 183.481C25.3911 183.293 25.9023 183.378 26.5158 183.77L41.0858 190.638H41.1029ZM33.1959 128.285C32.4972 128.166 31.8837 128.217 31.3214 128.472C27.436 129.784 23.5847 130.943 19.7505 131.949L20.1254 143.417H21.8125C22.7497 141.543 23.7211 139.651 24.7265 137.777C25.0332 137.334 25.3229 137.112 25.5785 137.112C25.8853 137.112 27.9302 139.361 31.6963 143.877C32.3268 137.112 32.821 131.898 33.1959 128.268V128.285ZM45.704 178.777L47.4933 146.791H44.2896V146.894C44.0339 149.211 42.2787 150.591 39.0239 151.035C35.5134 151.409 33.3492 151.375 32.5313 150.932C31.6451 150.183 31.2532 149.109 31.3043 147.729C31.3043 147.047 31.3384 146.468 31.4066 146.042H20.2106L20.773 160.339H21.8125C22.7497 158.464 23.7211 156.573 24.7265 154.698C25.0332 154.255 25.3229 154.034 25.5785 154.034C25.8853 154.034 26.175 154.221 26.4306 154.596C30.1285 158.856 32.003 161.174 32.0712 161.549L32.4461 153.267C32.5654 153.148 32.9403 153.114 33.5708 153.165C38.8364 153.795 42.3128 154.289 44.0169 154.664C45.0734 154.92 45.6188 155.363 45.6188 155.976C45.6869 156.607 45.3972 157.101 44.7667 157.476C43.8806 157.97 43.4205 158.822 43.3523 160.015L41.9379 178.726H45.704V178.777ZM30.9465 178.777C31.5088 171.944 31.8837 166.235 32.0712 161.651C32.003 162.162 31.9519 162.537 31.8837 162.776C31.8155 162.895 31.7644 162.963 31.6963 162.963H20.8752L21.5398 178.76H30.9465V178.777ZM67.346 185.457C72.9184 186.65 77.0424 188.661 79.6667 191.473C81.4901 192.734 82.8022 194.421 83.6202 196.551C84.4381 198.8 84.5234 200.811 83.9099 202.567C82.9726 204.816 81.6264 206.418 79.8712 207.355C77.9285 208.36 75.9177 208.446 73.8557 207.645C72.1686 206.759 70.652 205.259 69.3398 203.129C65.8294 198.119 62.9154 194.472 60.5978 192.223C58.2121 189.973 54.8209 188.15 50.4414 186.77C50.0665 186.582 49.8449 186.361 49.7768 186.105C49.7086 185.73 49.9642 185.423 50.5266 185.168C56.0478 184.162 61.6543 184.265 67.3631 185.457H67.346Z" fill="#443B38"/>
  <path d="M137.538 187.247C135.22 196.773 129.699 204.083 120.991 209.161C119.986 209.792 119.355 209.877 119.117 209.451C118.861 209.008 118.963 208.565 119.406 208.139C123.411 201.425 125.422 187.042 125.422 164.974V121.52C125.422 120.514 125.643 119.918 126.086 119.73C126.581 119.475 130.5 120.855 137.845 123.871H146.502L151.29 118.418C151.665 117.924 152.04 117.668 152.415 117.668C152.858 117.736 153.454 117.975 154.204 118.418L163.423 124.246C164.429 124.945 164.923 125.695 164.923 126.496C164.855 127.688 164.139 128.506 162.759 128.949C161.685 129.256 161.157 129.887 161.157 130.824V198.068C161.157 201.203 160.271 203.453 158.516 204.833C156.454 206.401 152.585 207.287 146.945 207.474C146.382 207.543 145.871 207.44 145.445 207.185C145.189 206.929 144.951 205.361 144.695 202.481C144.389 199.653 142.31 197.216 138.492 195.137C137.93 194.83 137.674 194.455 137.743 194.012C137.862 193.637 138.237 193.484 138.867 193.535C143.059 194.029 145.547 194.097 146.297 193.722C146.74 193.347 146.962 192.938 146.962 192.495V169.354H139.344C139.157 176.886 138.561 182.833 137.555 187.23L137.538 187.247ZM146.945 145.309V126.683H139.515V145.309H146.945ZM139.515 147.933V166.746H146.945V147.933H139.515ZM178.556 188.286C175.795 197.625 169.149 204.867 158.618 210.013C157.612 210.576 156.982 210.644 156.743 210.201C156.488 209.758 156.59 209.315 157.033 208.889C163.56 202.55 166.814 188.286 166.814 166.099V121.145C166.814 120.139 167.036 119.543 167.479 119.355C167.667 119.168 171.893 120.668 180.175 123.871H189.019L193.62 117.941C194.063 117.379 194.506 117.089 194.932 117.089C195.426 117.021 195.903 117.191 196.347 117.566L205.566 123.769C208.02 125.456 207.696 127.348 204.628 129.41C203.879 129.972 203.504 130.568 203.504 131.199V197.42C203.504 201.493 202.532 204.509 200.59 206.452C198.579 208.463 194.165 209.587 187.332 209.843C186.633 209.656 186.207 209.434 186.02 209.178C185.9 208.872 185.866 208.292 185.917 207.491C186.412 202.089 184.009 197.897 178.675 194.881C178.232 194.625 178.044 194.285 178.113 193.842C178.368 193.399 178.709 193.211 179.152 193.279C184.98 193.586 188.184 193.569 188.746 193.177C189.24 192.802 189.496 192.12 189.496 191.115V169.388H180.839C180.532 177.414 179.766 183.719 178.59 188.286H178.556ZM189.462 145.309V126.496H180.907V145.309H189.462ZM180.907 147.933V166.746H189.462V147.933H180.907Z" fill="#443B38"/>
  <path d="M275.553 155.465C274.855 158.788 274.139 161.992 273.389 165.059C268.311 185.117 256.28 199.584 237.279 208.412C236.649 208.718 236.24 208.667 236.052 208.224C235.933 207.917 236.052 207.628 236.427 207.372C252.173 195.58 260.591 172.762 261.733 138.901H238.029C237.211 138.901 236.802 138.424 236.802 137.487C236.802 136.669 237.211 136.26 238.029 136.26H261.921C262.176 125.217 262.329 119.611 262.398 119.424C262.653 119.049 262.994 118.895 263.437 118.946L278.399 120.446C281.228 120.753 282.625 121.605 282.625 122.985C282.557 124.178 281.654 124.996 279.899 125.439C278.706 125.746 278.109 126.7 278.109 128.268C278.041 130.96 277.922 133.636 277.735 136.26H303.978C308.749 129.87 311.442 126.666 312.072 126.666C312.566 126.734 313.129 126.973 313.759 127.416C318.088 131.045 321.496 133.942 324.018 136.073C324.58 136.635 324.87 137.146 324.87 137.572C324.87 138.083 324.751 138.458 324.495 138.697C324.239 138.816 324.086 138.884 324.018 138.884H277.649C277.274 143.656 276.712 148.291 275.962 152.807H296.838L302.478 147.439C303.04 146.757 303.535 146.382 303.978 146.314C304.472 146.382 305.136 146.723 305.954 147.354L317.9 155.908C319.025 156.607 319.621 157.408 319.69 158.362C319.758 159.862 318.803 160.935 316.861 161.566C315.293 162.128 314.287 162.98 313.844 164.105C309.703 172.438 305.477 179.186 301.149 184.333C307.42 188.286 315.071 191.319 324.103 193.45C325.296 193.637 325.892 194.046 325.892 194.677C325.773 195.239 325.296 195.648 324.478 195.904C321.155 197.028 318.241 201.101 315.736 208.139C315.48 208.957 315.174 209.4 314.799 209.451C314.356 209.707 313.265 209.417 311.51 208.599C303.364 205.089 296.36 200.419 290.532 194.591C279.933 202.686 267.834 207.508 254.235 209.076C253.417 209.144 252.974 208.957 252.923 208.514C252.855 208.02 253.23 207.628 254.048 207.389C264.323 203.811 274.088 196.006 283.307 183.975C280.171 178.334 277.939 168.825 276.627 155.482H275.587L275.553 155.465ZM289.288 175.114C292.305 170.291 294.963 163.73 297.281 155.448H278.467C280.41 161.787 282.983 167.104 286.187 171.433C287.124 172.694 288.164 173.904 289.288 175.096V175.114Z" fill="#443B38"/>
  <path d="M354.129 164.497C353.311 164.497 352.902 164.02 352.902 163.083C352.902 162.265 353.311 161.856 354.129 161.856H421.748C426.946 155.022 429.877 151.597 430.49 151.597C431.052 151.597 431.649 151.887 432.279 152.449C436.727 156.266 440.306 159.316 442.998 161.566C443.629 162.196 443.935 162.725 443.935 163.168C443.867 163.662 443.714 164.054 443.458 164.292C443.339 164.412 443.169 164.48 442.981 164.48H354.095L354.129 164.497Z" fill="#443B38"/>
  <path d="M546.045 187.911H530.435C525.544 188.218 522.409 187.434 521.029 185.56C519.767 183.992 519.154 181.299 519.154 177.465V172.387H505.981V189.973C515.064 191.354 533.162 191.456 560.257 190.263C562.131 190.144 563.171 190.365 563.358 190.928C563.614 191.677 563.324 192.376 562.506 192.99C560.121 194.557 558.74 198.443 558.365 204.646C558.246 205.907 558.059 206.656 557.803 206.895C557.547 207.202 556.269 207.236 553.952 206.997C547.987 206.878 538.973 206.776 526.857 206.708C516.632 206.639 509.049 205.77 504.09 204.066C499.455 202.567 495.723 200.181 492.894 196.926C490.696 194.677 488.293 190.127 485.651 183.293C483.078 193.33 478.596 201.629 472.206 208.224C471.644 208.855 471.269 209.076 471.081 208.889C470.894 208.701 470.928 208.292 471.184 207.662C471.184 207.406 471.286 207.185 471.473 206.997C475.291 195.648 476.364 180.294 474.677 160.918C474.745 160.169 474.796 159.691 474.864 159.504C474.984 159.385 475.171 159.316 475.427 159.316L489.537 161.004C490.167 161.123 490.593 161.293 490.849 161.481V153.199H473.263C472.445 153.199 472.036 152.722 472.036 151.784C472.036 150.966 472.445 150.557 473.263 150.557H488.974V136.635H474.779C473.961 136.635 473.552 136.158 473.552 135.221C473.552 134.403 473.961 133.994 474.779 133.994H488.974V120.259C488.906 119.577 489.008 119.1 489.264 118.844C489.52 118.469 490.133 118.316 491.139 118.367L503.272 118.844C505.214 118.912 506.476 119.151 507.038 119.594C508.861 120.974 508.537 122.32 506.101 123.633C504.72 124.451 504.056 125.269 504.124 126.087V133.994H505.351C508.929 128.984 510.923 126.461 511.366 126.461C511.86 126.461 514.468 128.438 519.171 132.392V123.837C519.103 122.832 519.29 122.235 519.733 122.048C520.228 121.86 520.705 121.894 521.148 122.15L532.531 127.228H540.149L544.852 122.525C545.295 122.082 545.721 121.86 546.164 121.86C546.607 121.86 547.203 122.082 547.953 122.525L557.547 128.166C560.495 129.921 560.461 131.489 557.462 132.869C556.457 133.363 555.98 134.317 556.048 135.698V153.846C555.98 154.784 555.639 155.482 555.008 155.908C554.122 156.726 552.06 157.169 548.805 157.22C544.852 157.408 542.5 157.186 541.75 156.556C541.052 155.994 540.711 155.056 540.711 153.727V152.04H533.843V167.939C533.843 170.819 534.031 172.574 534.406 173.205C534.781 174.023 535.667 174.33 537.03 174.142H542.773C545.602 174.21 547.51 173.835 548.516 173.017C550.152 172.131 552.128 168.28 554.446 161.447C554.633 160.765 554.94 160.441 555.383 160.509C555.826 160.629 556.048 160.987 556.048 161.549C556.048 166.44 556.798 169.354 558.297 170.291C559.797 171.364 560.683 172.677 560.939 174.244C561.245 176.63 560.717 178.982 559.337 181.299C558.212 183.174 556.235 184.776 553.406 186.088C551.157 187.536 548.703 188.133 546.079 187.877L546.045 187.911ZM490.832 164.684C490.576 164.753 490.423 164.804 490.355 164.872C489.605 164.991 489.196 165.571 489.128 166.559C488.429 170.768 487.713 174.585 486.964 178.028C488.225 179.851 489.503 181.453 490.815 182.816V164.667L490.832 164.684ZM519.137 136.652H504.09V150.574H506.441C510.02 145.564 512.014 143.042 512.457 143.042C513.139 143.111 515.371 144.763 519.137 148.018V136.635V136.652ZM519.137 153.199H505.964V169.558C508.844 165.366 510.565 163.253 511.145 163.253C511.895 163.253 514.553 165.076 519.137 168.706V153.182V153.199ZM533.809 149.433H540.677V129.87H533.809V149.433Z" fill="#443B38"/>
  <path d="M616.424 204.56C616.424 206.622 616.049 207.951 615.299 208.514C614.549 209.144 612.351 209.553 608.721 209.741C605.398 209.86 603.353 209.639 602.604 209.076C601.717 208.377 601.291 206.878 601.291 204.56V167.223C601.291 166.661 601.411 166.286 601.666 166.099C601.922 165.911 602.263 165.945 602.706 166.201L616.066 171.654H654.34L658.106 167.888C656.981 168.195 655.448 168.382 653.505 168.45C649.875 168.57 647.677 168.348 646.927 167.786C646.297 167.155 645.956 166.252 645.888 165.059V164.497H623.496C623.428 165.502 623.274 166.218 623.019 166.661C622.576 167.104 622.047 167.411 621.417 167.598C620.718 167.854 619.133 168.007 616.628 168.076C613.612 168.195 611.84 168.041 611.26 167.598C610.187 166.712 609.761 165.622 609.948 164.309V144.849C609.948 144.474 610.068 144.167 610.323 143.911C610.579 143.792 610.988 143.758 611.55 143.809L622.081 147.2H645.411L649.824 142.872C650.199 142.429 650.608 142.207 651.051 142.207C651.545 142.207 652.125 142.429 652.738 142.872L658.191 146.076C658.822 144.695 659.538 142.94 660.356 140.81H608.057C609.369 144.815 609.556 148.461 608.619 151.716C607.614 154.92 605.773 157.203 603.064 158.584C601.308 159.589 599.298 159.777 597.048 159.146C594.799 158.396 593.163 157.05 592.157 155.107C591.084 153.233 590.965 151.154 591.783 148.904C592.532 146.842 593.759 145.394 595.446 144.576C598.463 143.076 600.559 141.56 601.752 140.06C602.689 138.561 602.944 136.771 602.501 134.692C602.314 134.13 602.416 133.721 602.791 133.465C603.098 133.278 603.473 133.397 603.916 133.84C605.177 134.965 606.199 136.413 607.017 138.169H613.595C611.908 137.044 610.834 135.255 610.391 132.801C609.198 127.603 607.29 123.922 604.649 121.792C604.393 121.537 604.274 121.298 604.274 121.042C604.342 120.736 604.648 120.565 605.211 120.565C608.466 120.378 611.738 120.787 614.992 121.792C618.196 122.866 620.445 124.263 621.758 126.018C622.951 127.467 623.581 129.154 623.632 131.097C623.751 133.227 623.325 134.897 622.32 136.09C621.57 137.027 620.82 137.726 620.054 138.152H627.586V120.65C627.518 119.969 627.62 119.492 627.875 119.236C628.131 118.861 628.744 118.708 629.75 118.759L641.883 119.236C643.826 119.304 645.087 119.543 645.649 119.986C647.473 121.366 647.149 122.712 644.712 124.025C643.332 124.843 642.667 125.66 642.735 126.478V138.134H646.024C648.853 131.114 650.472 125.626 650.915 121.673C650.915 120.736 651.392 120.293 652.329 120.361C663.184 122.372 668.876 123.564 669.438 123.939C670.188 124.689 670.376 125.388 670.001 126.001C669.558 126.819 668.842 127.262 667.837 127.313C666.337 127.501 665.366 127.722 664.923 127.978C661.225 131.114 657.084 134.505 652.5 138.134H660.492L666.32 131.829C666.695 131.523 667.07 131.352 667.445 131.352C667.819 131.42 668.297 131.659 668.859 132.102L677.601 140.094C679.356 141.73 680.14 143.417 679.953 145.172C679.697 147.115 678.828 148.41 677.311 149.024C676.493 149.399 675.113 149.365 673.17 148.921C669.336 147.166 666.644 146.314 665.076 146.382C663.951 146.451 662.605 146.877 661.037 147.694L661.702 148.069C662.963 148.819 663.576 149.518 663.576 150.131C663.576 151.137 662.912 151.921 661.599 152.483C660.713 152.977 660.287 153.897 660.287 155.21V165.179C660.287 165.553 660.185 165.928 659.998 166.303C659.929 166.235 660.032 166.201 660.287 166.201C660.73 166.201 661.327 166.423 662.077 166.866L671.671 172.506C674.431 174.33 674.397 175.897 671.586 177.209C670.58 177.704 670.103 178.658 670.171 180.038V206.469C670.103 207.406 669.762 208.105 669.132 208.531C668.246 209.349 666.184 209.792 662.929 209.843C658.975 210.03 656.624 209.809 655.874 209.178C655.175 208.616 654.834 207.679 654.834 206.35V203.896H616.373V204.458L616.424 204.56ZM628.37 174.278H616.424V186.701H628.37V174.278ZM628.37 201.357V189.326H616.424V201.357H628.37ZM645.871 161.856V149.825H623.581V161.856H645.871ZM642.667 186.684H654.902V174.261H642.667V186.684ZM654.902 201.357V189.326H642.667V201.357H654.902Z" fill="#443B38"/>
  <path d="M751.9 179.067C748.458 185.781 743.805 191.507 737.977 196.278C731.587 201.663 722.743 205.719 711.462 208.412C710.388 208.718 709.775 208.667 709.587 208.224C709.4 207.662 709.621 207.253 710.252 206.997C718.091 203.299 724.856 197.318 730.565 189.036C738.216 177.755 742.408 163.423 743.175 146.059H710.729C709.911 146.059 709.502 145.581 709.502 144.644C709.502 143.826 709.911 143.417 710.729 143.417H743.277C743.397 140.776 743.465 138.049 743.465 135.238V120.003C743.465 119.372 743.584 118.878 743.84 118.503C744.027 118.197 749.293 118.401 759.637 119.168C762.585 119.287 764.05 119.918 764.05 121.042C764.118 122.116 763.386 122.951 761.886 123.582C760.574 124.144 759.909 125.03 759.909 126.223V134.028C759.909 137.095 759.824 140.231 759.62 143.434H775.706C780.904 136.601 783.818 133.176 784.448 133.176C785.011 133.176 785.607 133.465 786.238 134.028C790.685 137.845 794.264 140.895 796.956 143.145C797.587 143.775 797.894 144.303 797.894 144.746C797.825 145.241 797.672 145.633 797.416 145.871C797.297 145.99 797.127 146.059 796.939 146.059H759.5C760.693 150.506 762.039 154.46 763.539 157.902C769.503 172.08 780.563 181.504 796.735 186.207C798.303 186.582 799.121 187.059 799.189 187.622C799.308 188.184 798.967 188.661 798.149 189.036C796.956 189.735 795.798 191.32 794.673 193.825C793.293 196.96 792.406 200.59 792.031 204.731C791.912 206.418 791.623 207.304 791.179 207.372C790.685 207.491 789.833 207.338 788.64 206.895C787.073 206.077 785.692 205.293 784.499 204.543C771.702 196.398 763.062 179.987 758.546 155.346C756.723 165.69 754.507 173.597 751.866 179.05L751.9 179.067Z" fill="#D82B17"/>
  <path d="M851.556 176.443C849.238 191.746 842.337 203.061 830.868 210.388C829.794 210.951 829.147 211.019 828.891 210.576C828.636 210.082 828.738 209.604 829.181 209.161C835.077 201.203 838.025 182.254 838.025 152.347V131.284C838.093 130.159 838.332 129.495 838.775 129.307C839.269 129.052 843.853 130.722 852.51 134.3C870.88 129.41 884.019 124.297 891.909 118.963C892.352 118.589 892.795 118.367 893.221 118.299C893.664 118.231 894.09 118.401 894.533 118.776L909.018 129.495C910.33 130.381 910.773 131.216 910.33 132.034C909.768 132.971 908.694 133.159 907.126 132.596C905.746 132.221 904.28 132.119 902.713 132.307C891.432 133.994 882.485 135.033 875.907 135.408C871.016 135.595 864.677 136.004 856.907 136.635C856.719 136.567 856.532 136.567 856.344 136.635C856.089 136.635 855.85 136.669 855.594 136.737C855.475 136.669 855.373 136.669 855.305 136.737C854.555 136.737 853.805 136.771 853.055 136.839V144.934H893.681L898.384 140.231C898.827 139.788 899.253 139.566 899.697 139.566C900.14 139.566 900.736 139.788 901.486 140.231L911.08 145.871C913.841 147.695 913.806 149.262 910.978 150.574C909.972 151.069 909.512 152.023 909.563 153.403V173.069C909.495 174.006 909.154 174.705 908.524 175.131C907.638 175.949 905.576 176.392 902.321 176.443C898.367 176.63 896.016 176.409 895.266 175.778C894.567 175.216 894.226 174.279 894.226 172.949V168.996H852.374C852.067 171.688 851.777 174.176 851.522 176.426L851.556 176.443ZM894.243 166.371V147.558H853.055V151.222C852.936 156.811 852.749 161.856 852.493 166.371H894.243Z" fill="#D82B17"/>
  <path d="M997.085 127.722C999.028 129.546 999.999 131.608 999.999 133.925C999.931 136.175 998.551 141.1 995.858 148.7C993.03 157.22 991.223 168.365 990.405 182.083C990.286 183.089 989.809 183.583 988.991 183.583C988.173 183.583 987.764 183.089 987.764 182.083C986.878 168.859 984.628 156.846 980.999 146.059C979.124 140.282 978.17 136.243 978.17 133.925C978.238 131.676 979.141 129.597 980.896 127.722C982.583 125.899 985.31 124.996 989.076 124.996C992.655 125.064 995.313 125.967 997.068 127.722H997.085ZM996.148 193.177C997.784 195.375 998.585 197.625 998.585 199.942C998.585 202.584 997.801 204.731 996.233 206.435C994.291 208.497 991.905 209.536 989.093 209.536C986.52 209.468 984.305 208.565 982.413 206.81C980.59 204.935 979.687 202.635 979.687 199.942C979.687 197.25 980.624 195.051 982.515 192.989C984.083 191.115 986.281 190.161 989.093 190.161C992.229 190.229 994.58 191.234 996.148 193.177Z" fill="#443B38"/>
</g>


</svg>
