<svg width="298" height="71" viewBox="0 0 298 71" fill="none" xmlns="http://www.w3.org/2000/svg">
<path d="M81.2578 64.2618C81.2578 66.2298 80.6072 67.6774 79.2897 68.6208C77.9723 69.5641 76.1507 70.0358 73.8085 70.0358C72.4748 70.0358 71.3363 69.9545 70.4255 69.8081C69.5147 69.6454 68.7502 69.4502 68.1484 69.2225V66.0347C68.6201 66.3274 69.352 66.5877 70.3442 66.8316C71.3526 67.0756 72.3285 67.1895 73.3043 67.1895C74.6706 67.1895 75.5977 67.0105 76.1181 66.6527C76.6386 66.2949 76.8826 65.6931 76.8826 64.8473C76.8826 64.3106 76.7037 63.8227 76.3296 63.3998C75.9555 62.9769 74.9145 62.4239 73.1742 61.7408C71.7917 61.1878 70.7345 60.4721 69.9701 59.6101C69.2219 58.7481 68.8316 57.5608 68.8316 56.0644C68.8316 54.5681 69.4496 53.4295 70.6532 52.4537C71.873 51.4615 73.5646 50.9736 75.7115 50.9736C76.7525 50.9736 77.6958 51.0549 78.5253 51.2338C79.3548 51.3965 79.9403 51.5428 80.2819 51.6892V54.5193C79.5825 54.3404 78.8669 54.194 78.1837 54.0639C77.4844 53.9337 76.7362 53.8687 75.9555 53.8687C74.8332 53.8687 74.0363 54.0476 73.5483 54.3892C73.0604 54.7307 72.8164 55.1699 72.8164 55.6741C72.8164 56.3247 72.9953 56.8289 73.3694 57.1704C73.7435 57.512 74.817 57.9999 76.6223 58.6668C78.2976 59.2686 79.4849 60.0493 80.2006 60.9763C80.9162 61.9034 81.2578 63.0257 81.2578 64.3106" fill="#040000"/>
<path d="M87.8617 52.4698C87.8617 53.0553 87.6665 53.5595 87.2599 53.9499C86.8533 54.3402 86.3653 54.5517 85.7961 54.5517C85.2268 54.5517 84.7389 54.3565 84.3323 53.9499C83.9256 53.5433 83.7305 53.0553 83.7305 52.4698C83.7305 51.8843 83.9256 51.4126 84.3323 51.006C84.7389 50.5994 85.2268 50.4042 85.7961 50.4042C86.3653 50.4042 86.8533 50.5994 87.2599 51.006C87.6665 51.4126 87.8617 51.9005 87.8617 52.4698ZM87.7478 69.7754H83.8281V55.6089H87.7478V69.7754Z" fill="#040000"/>
<path d="M103.67 69.7755H99.7507V59.8378C99.7507 59.4637 99.588 59.1221 99.279 58.7968C98.97 58.4715 98.5146 58.3252 97.9128 58.3252C97.311 58.3252 96.8556 58.439 96.4164 58.683C95.9935 58.927 95.6194 59.2197 95.3104 59.5938V69.7755H91.3906V55.609H95.164L95.2454 57.8697C95.5381 57.2029 96.0911 56.6011 96.9044 56.0969C97.7176 55.5764 98.7097 55.3325 99.8808 55.3325C101.052 55.3325 101.995 55.7065 102.662 56.4385C103.345 57.1866 103.67 58.3089 103.67 59.8378V69.7755Z" fill="#040000"/>
<path d="M120.959 63.1232C120.959 65.3189 120.325 67.0267 119.073 68.2466C117.82 69.4664 116.08 70.0845 113.884 70.0845C111.689 70.0845 109.965 69.4502 108.68 68.1978C107.395 66.9454 106.744 65.2539 106.744 63.1069V62.2124C106.744 60.1305 107.378 58.439 108.647 57.1703C109.916 55.8854 111.656 55.2511 113.852 55.2511C116.048 55.2511 117.804 55.9017 119.057 57.1866C120.309 58.4715 120.943 60.1468 120.943 62.2124V63.1069L120.959 63.1232ZM116.91 62.7816V62.5702C116.91 60.651 116.617 59.3498 116.031 58.6504C115.446 57.951 114.714 57.6095 113.868 57.6095C113.022 57.6095 112.242 57.9836 111.689 58.7317C111.119 59.4799 110.843 60.7648 110.843 62.5702V62.7816C110.843 64.7659 111.119 66.0996 111.656 66.7502C112.193 67.4008 112.941 67.7261 113.868 67.7261C114.714 67.7261 115.429 67.4008 116.015 66.7665C116.617 66.1322 116.91 64.7985 116.91 62.7654" fill="#040000"/>
<path d="M136.348 57.4793C136.348 59.057 135.86 60.2443 134.9 61.0413C133.94 61.8383 132.558 62.2449 130.736 62.2449H128.215V69.7754H124.035V51.2012H130.996C132.997 51.2012 134.379 51.6891 135.16 52.6487C135.941 53.6083 136.331 54.7306 136.331 56.0155V57.4793H136.348ZM132.07 57.7558V55.9667C132.07 55.2673 131.875 54.7469 131.484 54.4053C131.094 54.0638 130.443 53.9011 129.533 53.9011H128.231V59.6913H129.76C130.411 59.6913 130.964 59.5287 131.403 59.1871C131.842 58.8456 132.07 58.3739 132.07 57.7396" fill="#040000"/>
<path d="M150.433 69.7755H146.757L146.676 67.9376C146.367 68.5232 145.863 69.0111 145.147 69.3852C144.432 69.7593 143.602 69.9544 142.643 69.9544C141.081 69.9544 139.894 69.5641 139.081 68.7671C138.284 67.9864 137.877 66.7828 137.877 65.1889V64.9449C137.877 63.3672 138.414 62.1474 139.487 61.2854C140.561 60.4233 142.008 60.0005 143.814 60.0005C144.367 60.0005 144.903 60.0818 145.44 60.2444C145.977 60.4071 146.367 60.6022 146.611 60.8462V59.4637C146.611 58.9758 146.383 58.5692 145.944 58.2276C145.505 57.886 144.871 57.7234 144.058 57.7234C143.196 57.7234 142.415 57.821 141.732 58.0162C141.049 58.2113 140.463 58.4553 139.959 58.7318V56.3084C140.609 56.0481 141.325 55.8204 142.138 55.6253C142.935 55.4301 143.911 55.3488 145.05 55.3488C146.888 55.3488 148.238 55.7554 149.1 56.5849C149.978 57.4144 150.417 58.7318 150.417 60.5372V69.7918L150.433 69.7755ZM146.66 65.0425V64.6684C146.66 63.8227 146.465 63.1721 146.058 62.7167C145.651 62.2612 145.066 62.0498 144.269 62.0498C143.537 62.0498 142.952 62.2612 142.512 62.6841C142.073 63.107 141.862 63.7739 141.862 64.7009V65.0913C141.862 66.0509 142.09 66.6852 142.545 67.0105C143 67.3358 143.586 67.4985 144.285 67.4985C144.887 67.4985 145.44 67.3033 145.928 66.9129C146.416 66.5226 146.66 65.9045 146.66 65.075" fill="#040000"/>
<path d="M164.663 69.0273C164.501 69.1574 164.045 69.3688 163.265 69.6616C162.5 69.9544 161.687 70.1008 160.857 70.1008C158.564 70.1008 156.742 69.5152 155.392 68.3279C154.042 67.1406 153.359 65.3677 153.359 62.9931V62.3913C153.359 60.2444 154.026 58.5203 155.36 57.2191C156.694 55.918 158.483 55.2836 160.744 55.2836C161.638 55.2836 162.451 55.3975 163.167 55.6252C163.883 55.8529 164.387 56.0969 164.663 56.3571V58.8619C164.306 58.5366 163.834 58.2763 163.248 58.0486C162.663 57.8372 162.028 57.7233 161.329 57.7233C160.125 57.7233 159.215 58.1462 158.58 59.0082C157.946 59.8703 157.621 61.0413 157.621 62.5377V62.7979C157.621 64.4732 157.881 65.6605 158.401 66.3599C158.922 67.0593 159.751 67.4008 160.906 67.4008C161.671 67.4008 162.435 67.287 163.151 67.043C163.883 66.8153 164.387 66.5713 164.647 66.3274V69.0273H164.663Z" fill="#040000"/>
<path d="M186.279 64.2618C186.279 66.2298 185.629 67.6774 184.311 68.6208C182.994 69.5641 181.172 70.0358 178.83 70.0358C177.496 70.0358 176.358 69.9545 175.447 69.8081C174.52 69.6454 173.772 69.4502 173.17 69.2225V66.0347C173.642 66.3274 174.374 66.5877 175.366 66.8316C176.358 67.0756 177.35 67.1895 178.326 67.1895C179.692 67.1895 180.619 67.0105 181.14 66.6527C181.644 66.2949 181.904 65.6931 181.904 64.8473C181.904 64.3106 181.725 63.8227 181.351 63.3998C180.977 62.9769 179.936 62.4239 178.196 61.7408C176.813 61.1878 175.756 60.4721 174.992 59.6101C174.243 58.7481 173.853 57.5608 173.853 56.0644C173.853 54.5681 174.455 53.4295 175.675 52.4537C176.895 51.4615 178.57 50.9736 180.733 50.9736C181.774 50.9736 182.717 51.0549 183.547 51.2338C184.376 51.3965 184.962 51.5428 185.303 51.6892V54.5193C184.604 54.3404 183.888 54.194 183.205 54.0639C182.506 53.9337 181.758 53.8687 180.977 53.8687C179.855 53.8687 179.058 54.0476 178.57 54.3892C178.082 54.7307 177.838 55.1699 177.838 55.6741C177.838 56.3247 178.017 56.8289 178.391 57.1704C178.765 57.512 179.838 57.9999 181.644 58.6668C183.319 59.2686 184.506 60.0493 185.222 60.9763C185.938 61.9034 186.279 63.0257 186.279 64.3106" fill="#040000"/>
<path d="M201.91 63.4485H192.281C192.281 65.0262 192.639 66.1159 193.355 66.734C194.07 67.352 194.997 67.6611 196.136 67.6611C196.884 67.6611 197.665 67.5635 198.462 67.3683C199.259 67.1731 200.072 66.8804 200.901 66.5063V68.8646C200.186 69.2713 199.389 69.564 198.51 69.7755C197.632 69.9869 196.624 70.0845 195.485 70.0845C193.306 70.0845 191.565 69.499 190.264 68.3442C188.963 67.1894 188.312 65.4816 188.312 63.2533V62.2449C188.312 60.2932 188.898 58.6342 190.085 57.2842C191.273 55.9342 192.997 55.2511 195.241 55.2511C197.486 55.2511 199.031 55.8854 200.169 57.1541C201.308 58.4227 201.877 60.0817 201.877 62.1311V63.4485H201.91ZM198.25 61.4317C198.169 60.0329 197.86 59.0408 197.339 58.439C196.803 57.8372 196.12 57.5282 195.274 57.5282C194.526 57.5282 193.859 57.8209 193.273 58.4227C192.688 59.0245 192.362 60.0167 192.314 61.4317H198.25Z" fill="#040000"/>
<path d="M215.654 69.0273C215.491 69.1574 215.036 69.3688 214.255 69.6616C213.49 69.9544 212.677 70.1008 211.848 70.1008C209.554 70.1008 207.733 69.5152 206.383 68.3279C205.033 67.1406 204.35 65.3677 204.35 62.9931V62.3913C204.35 60.2444 205.016 58.5203 206.35 57.2191C207.684 55.918 209.473 55.2836 211.734 55.2836C212.628 55.2836 213.442 55.3975 214.157 55.6252C214.873 55.8529 215.377 56.0969 215.654 56.3571V58.8619C215.296 58.5366 214.824 58.2763 214.239 58.0486C213.653 57.8372 213.019 57.7233 212.319 57.7233C211.116 57.7233 210.205 58.1462 209.571 59.0082C208.936 59.8703 208.611 61.0413 208.611 62.5377V62.7979C208.611 64.4732 208.871 65.6605 209.392 66.3599C209.912 67.0593 210.742 67.4008 211.896 67.4008C212.661 67.4008 213.425 67.287 214.141 67.043C214.873 66.8153 215.377 66.5713 215.637 66.3274V69.0273H215.654Z" fill="#040000"/>
<path d="M231.056 69.7755H227.282L227.201 67.5635C226.746 68.1816 226.111 68.7671 225.314 69.2875C224.517 69.808 223.509 70.0683 222.338 70.0683C221.232 70.0683 220.354 69.743 219.719 69.0761C219.085 68.4093 218.76 67.2382 218.76 65.5304V55.6252H222.68V65.1726C222.68 65.9045 222.842 66.4087 223.151 66.6527C223.46 66.9129 223.851 67.0268 224.29 67.0268C224.859 67.0268 225.396 66.9292 225.884 66.7177C226.372 66.5063 226.778 66.181 227.12 65.7418V55.6089H231.04V69.7755H231.056Z" fill="#040000"/>
<path d="M245.337 59.9191H241.71C241.71 59.5125 241.629 59.1709 241.466 58.8782C241.303 58.5854 240.962 58.4553 240.474 58.4553C240.002 58.4553 239.612 58.5854 239.287 58.8294C238.961 59.0896 238.75 59.3498 238.652 59.6426V69.7755H234.732V55.609H238.506L238.571 57.8535C238.945 57.0565 239.417 56.4222 240.002 55.983C240.588 55.5439 241.287 55.3325 242.068 55.3325C243.255 55.3325 244.15 55.7228 244.735 56.5035C245.321 57.2842 245.516 58.4227 245.321 59.9191" fill="#040000"/>
<path d="M251.256 52.4698C251.256 53.0553 251.061 53.5595 250.654 53.9499C250.248 54.3565 249.76 54.5517 249.191 54.5517C248.621 54.5517 248.133 54.3565 247.727 53.9499C247.32 53.5433 247.125 53.0553 247.125 52.4698C247.125 51.8843 247.32 51.4126 247.727 51.006C248.133 50.5994 248.621 50.4042 249.191 50.4042C249.76 50.4042 250.248 50.5994 250.654 51.006C251.061 51.4126 251.256 51.9005 251.256 52.4698ZM251.142 69.7754H247.223V55.6089H251.142V69.7754Z" fill="#040000"/>
<path d="M262.69 58.0649H258.949V65.3352C258.949 66.0672 259.079 66.6202 259.323 66.9617C259.567 67.3033 260.039 67.4822 260.755 67.4822C261.096 67.4822 261.421 67.4497 261.73 67.4009C262.04 67.3521 262.332 67.287 262.593 67.2057V69.4177C262.17 69.5966 261.665 69.7104 261.047 69.7918C260.429 69.8731 259.828 69.9219 259.242 69.9219C257.941 69.9219 256.916 69.499 256.168 68.6695C255.42 67.84 255.029 66.6364 255.029 65.0913V58.0649H253.338V56.0481L255.176 55.9505L256.493 51.2338H258.949V55.918H262.69V58.0812V58.0649Z" fill="#040000"/>
<path d="M269.213 52.4698C269.213 53.0553 269.018 53.5595 268.611 53.9499C268.205 54.3565 267.717 54.5517 267.148 54.5517C266.578 54.5517 266.09 54.3565 265.684 53.9499C265.277 53.5433 265.082 53.0553 265.082 52.4698C265.082 51.8843 265.277 51.4126 265.684 51.006C266.09 50.5994 266.578 50.4042 267.148 50.4042C267.717 50.4042 268.205 50.5994 268.611 51.006C269.018 51.4126 269.213 51.9005 269.213 52.4698ZM269.116 69.7754H265.196V55.6089H269.116V69.7754Z" fill="#040000"/>
<path d="M285.754 63.4485H276.125C276.125 65.0262 276.483 66.1159 277.198 66.734C277.914 67.352 278.841 67.6611 279.98 67.6611C280.728 67.6611 281.508 67.5635 282.305 67.3683C283.102 67.1731 283.916 66.8804 284.745 66.5063V68.8646C284.029 69.2713 283.216 69.564 282.354 69.7755C281.476 69.9869 280.468 70.0845 279.329 70.0845C277.15 70.0845 275.409 69.499 274.108 68.3442C272.807 67.1894 272.156 65.4816 272.156 63.2533V62.2449C272.156 60.2932 272.742 58.6342 273.929 57.2842C275.116 55.9342 276.84 55.2511 279.085 55.2511C281.33 55.2511 282.875 55.8854 284.013 57.1541C285.152 58.4227 285.721 60.0817 285.721 62.1311V63.4485H285.754ZM282.094 61.4317C282.013 60.0329 281.704 59.0408 281.183 58.439C280.663 57.8372 279.963 57.5282 279.118 57.5282C278.369 57.5282 277.703 57.8209 277.117 58.4227C276.531 59.0245 276.206 60.0167 276.157 61.4317H282.094Z" fill="#040000"/>
<path d="M297.741 65.4816C297.741 66.799 297.269 67.8887 296.31 68.767C295.35 69.6453 293.789 70.0845 291.609 70.0845C290.698 70.0845 289.869 70.0031 289.121 69.8568C288.372 69.7104 287.836 69.5152 287.494 69.3038V66.799C287.884 67.0267 288.421 67.2381 289.137 67.4659C289.836 67.6936 290.568 67.8074 291.3 67.8074C292.243 67.8074 292.975 67.6448 293.48 67.3357C293.984 67.0104 294.244 66.6038 294.244 66.0996C294.244 65.5954 294.081 65.2213 293.74 64.9123C293.398 64.6033 292.552 64.2454 291.17 63.8226C289.869 63.4322 288.99 62.8955 288.519 62.1798C288.047 61.4642 287.819 60.5696 287.819 59.4474C287.819 58.3251 288.242 57.3492 289.072 56.5523C289.901 55.7715 291.235 55.3649 293.04 55.3649C293.87 55.3649 294.586 55.43 295.171 55.5601C295.757 55.6902 296.293 55.8691 296.798 56.1131V58.4064C296.423 58.195 295.903 58.0161 295.22 57.8697C294.537 57.7233 293.886 57.6582 293.268 57.6582C292.552 57.6582 291.967 57.7884 291.512 58.0323C291.056 58.2763 290.845 58.6179 290.845 59.0407C290.845 59.5287 291.024 59.8702 291.365 60.0492C291.707 60.2443 292.487 60.5208 293.675 60.8624C295.204 61.3178 296.261 61.9033 296.863 62.6352C297.464 63.3672 297.757 64.3105 297.757 65.449" fill="#040000"/>
<path d="M152.466 17.7936L150.758 14.8497C159.069 12.0359 164.534 8.91311 167.006 5.4162L169.999 6.03426L169.56 6.65232C173.821 10.2305 178.847 12.963 184.605 14.8172L182.783 17.7286C177.139 15.4027 172.146 12.41 167.803 8.83178C164.892 11.7432 159.752 14.7359 152.466 17.7936ZM166.193 26.2513H152.026V23.161H166.193V18.8671H157.849V15.7768H177.66V18.8671H169.251V23.161H183.352V26.2513H169.251V35.2456H183.645V38.3359H151.734V35.2456H166.193V26.2513ZM157.247 26.6091C158.597 28.3657 159.915 30.6102 161.216 33.424L158.451 34.9203C157.069 32.0415 155.751 29.8132 154.58 28.2518L157.247 26.6091ZM180.522 28.3982C178.961 30.9843 177.464 33.2125 176.18 34.9203L173.805 33.0174C175.334 30.9843 176.798 28.7886 178.001 26.6091L180.522 28.3982Z" fill="#040000"/>
<path d="M204.089 14.199H193.225V11.4015H204.089V14.199ZM196.478 37.9617H193.534V27.0969C193.534 26.5114 193.859 26.1861 194.477 26.1861H202.642C203.292 26.1861 203.634 26.5114 203.634 27.0969V35.9449C203.634 36.628 203.309 36.9696 202.609 36.9696H196.494V37.9455L196.478 37.9617ZM202.967 9.22203H194.119V6.40824H202.967V9.22203ZM203.114 19.3061H194.119V16.4923H203.114V19.3061ZM203.114 24.2994H194.119V21.4856H203.114V24.2994ZM196.949 28.9836C196.624 28.9836 196.478 29.13 196.478 29.4553V34.1558H200.04C200.446 34.1558 200.658 33.9444 200.658 33.5377V29.4553C200.658 29.13 200.479 28.9836 200.153 28.9836H196.949ZM209.457 17.0779C208.4 17.8423 207.229 18.5742 205.992 19.1923L204.252 16.7851L208.221 14.5894L204.984 11.9382L206.871 9.88889L210.286 12.8816C211.669 11.5641 212.872 10.1817 213.751 8.83168H207.44V6.18054H215.93C216.337 6.18054 216.662 6.32692 216.906 6.65221L218.223 8.58771C219.313 7.3516 220.224 6.26186 220.81 5.30225L222.924 6.94498C222.159 8.11604 221.167 9.35215 219.899 10.7021L220.956 11.9382C222.306 10.4094 223.363 9.09192 224.095 8.00218L226.242 9.64492C225.396 10.9136 224.306 12.2961 222.924 13.8412C224.095 14.7846 225.477 15.7442 227.071 16.6062L224.957 18.7857L222.582 17.1429V18.9971H209.619V16.9152L209.441 17.0616L209.457 17.0779ZM226.616 35.5871V38.3846H205.927V35.5871H211.392L210.124 30.4149H207.749C207.245 30.4149 206.985 30.171 206.985 29.6505V21.6808C206.985 21.1766 207.245 20.9163 207.749 20.9163H224.258C224.811 20.9163 225.055 21.1766 225.055 21.6808V29.6505C225.055 30.1547 224.794 30.4149 224.258 30.4149H222.143L221.525 32.9685L220.793 35.5871H226.616ZM209.928 23.7139L209.815 23.8277V27.471L209.928 27.6174H222.094C222.094 27.6174 222.208 27.5849 222.208 27.471V23.8277L222.094 23.7139H209.928ZM221.509 16.1996C219.72 14.6707 217.931 12.6701 216.223 10.1491C214.84 12.0684 212.937 14.1502 210.579 16.1996H221.509ZM219.134 30.4149H213.133L214.336 35.5871H217.719L218.809 31.9438L219.134 30.4149Z" fill="#040000"/>
<path d="M243.303 28.1867V26.1536C241.807 27.6174 240.067 28.9511 238.05 30.1222L235.643 27.8289C238.554 26.0398 241.254 23.9253 243.661 21.6646H236.261V18.7206H246.133C247.077 17.452 247.841 16.1346 248.427 14.8984V14.8171H237.529V11.8732H249.614C250.118 9.87266 250.557 7.49801 250.85 4.94446L254.087 5.26975C253.875 6.94501 253.355 9.20581 252.672 11.8569H257.258C258.934 9.27086 260.202 7.01007 260.967 5.18843L263.732 6.65225C263.081 8.24619 262.121 9.97025 260.967 11.8569H267.749V14.8009H257.177C257.909 16.2647 258.673 17.5333 259.405 18.7044H269.018V21.6483H261.731C263.634 23.6976 266.285 25.6982 269.571 27.6662L267.05 30.0246C265.732 29.1463 264.529 28.2355 263.374 27.2921L263.26 33.0498C263.146 34.8715 262.788 36.1401 262.121 36.9859C261.585 37.7178 260.772 38.222 259.796 38.5473C258.088 39.1003 255.567 38.9051 252.33 37.9943V34.351C253.648 34.8877 254.77 35.2618 255.713 35.4407C257.275 35.701 258.592 35.4733 259.503 34.6763C259.909 34.2372 260.153 33.554 260.235 32.5944C260.381 30.1547 260.381 28.7722 260.202 28.3981C260.137 28.2192 259.991 28.1379 259.812 28.1379H252.883C252.558 29.2276 252.037 30.2523 251.419 31.2282L250.687 32.3179C248.101 35.6359 243.661 37.7015 237.497 38.5148L236.7 35.2781L240.603 34.66C245.092 33.6842 248.069 31.4884 249.533 28.1379H243.271L243.303 28.1867ZM243.368 4.99325C244.458 6.16431 245.548 7.75825 246.719 9.72628L244.1 11.4015C242.897 9.40098 241.807 7.8721 240.815 6.84743L243.368 4.99325ZM261.194 25.2428L257.99 21.6808H247.581C246.816 22.5916 245.727 23.8278 244.295 25.2428H261.194ZM253.973 14.8171H251.793L249.712 18.7206H256.022L253.989 14.8171H253.973Z" fill="#040000"/>
<path d="M51.0548 25.5193C51.0548 39.6208 39.6208 51.0548 25.5356 51.0548C11.4503 51.0548 0 39.6208 0 25.5193C0 11.4178 11.4341 0 25.5356 0C39.637 0 51.0548 11.4341 51.0548 25.5193Z" fill="#CF3339"/>
<path d="M34.741 9.22198H28.3652V15.5977H34.741V9.22198Z" fill="white"/>
<path d="M5.67578 26.9506V32.6107H11.3522V38.2871H17.0123V26.9506H5.67578Z" fill="white"/>
<path d="M7.0918 15.5978V21.2742H22.6896V38.2871H28.366V15.5978H7.0918Z" fill="white"/>
<path d="M34.043 21.2742V38.2871H39.7193V26.9343H46.8107V21.2742H34.043Z" fill="white"/>
<path d="M117.643 33.18H112.731C112.47 33.18 112.373 33.0336 112.373 32.7896V27.0807C112.373 26.8205 112.487 26.7229 112.731 26.7229H138.917C139.177 26.7229 139.307 26.8367 139.307 27.0807V32.7896C139.307 33.0336 139.161 33.18 138.917 33.18H134.298L133.322 35.5546H142.284V38.3359H109.348V35.5546H118.667L117.659 33.18H117.643ZM141.828 25.6331H109.754V23.1446H141.828V25.6331ZM128.556 17.4683V15.2237H131.728V13.4834H128.556V11.2877H131.728V9.41724H128.41V7.17271H131.728V5.30228H134.216V7.17271H137.323V9.41724H134.216V11.2877H137.177V13.4834H134.216V15.2237H137.323V17.4683H134.216V19.1598H138.152C138.478 19.1598 138.624 19.0459 138.624 18.7206V5.72516H141.405V20.461C141.405 21.2579 141.015 21.6808 140.169 21.6808H111.462C110.665 21.6808 110.275 21.2417 110.275 20.461V5.72516H113.056V18.7206C113.056 19.0459 113.202 19.1598 113.495 19.1598H117.334V17.4683H114.146V15.2237H117.334V13.3533H114.292V11.1576H117.334V9.41724H114.146V7.17271H117.334V5.30228H119.855V7.17271H122.668V9.41724H119.855V11.1576H122.668V13.3533H119.855V15.2237H122.815V17.4683H119.855V19.1598H124.262V5.28601H127.044V19.1598H131.744V17.4683H128.573H128.556ZM115.284 29.0975C115.187 29.0975 115.138 29.13 115.187 29.2114V30.6915L115.284 30.8378H136.38L136.493 30.6915V29.2114L136.38 29.0975H115.284ZM130.313 35.5546L131.175 33.6354L131.354 33.1637H120.635L121.579 35.5383H130.313V35.5546Z" fill="#040000"/>
<path d="M80.6238 19.1435L81.5347 20.3471C80.7702 26.0722 76.6227 31.3095 69.2223 36.01L66.8477 33.31C69.6127 31.9275 71.7596 30.545 73.2559 29.2276C74.4921 28.1379 75.6631 26.8204 76.7528 25.259C77.5498 24.0554 77.9564 23.2585 78.0703 22.7868C78.1516 22.6079 78.1516 22.5265 78.0703 22.429C77.9239 22.3151 77.6799 22.25 77.3058 22.25H68.1326V19.1435H80.6238ZM86.7882 34.7739C86.7882 36.1889 86.284 37.3274 85.2918 38.1244C84.5924 38.775 83.3563 39.1003 81.5835 39.0677C79.6154 39.0352 77.7287 38.7424 75.8258 38.222L75.6469 34.7901C79.4365 35.9612 81.7624 36.2539 82.6081 35.766C83.2262 35.2943 83.519 34.5949 83.5515 33.6516V16.0207C83.5515 15.6954 83.3726 15.5165 82.9985 15.5165H69.0759V12.4262H85.7635C86.4466 12.4587 86.8207 12.8328 86.7882 13.5159V14.9309C88.317 19.485 89.9923 23.0633 91.7001 25.568C93.8145 28.5933 96.9048 31.651 100.987 34.7413L98.2222 36.8557C93.3428 32.8384 89.5206 28.2192 86.7882 23.0795V34.7413V34.7739ZM73.565 5.67633L82.6407 6.61968C86.8695 7.09136 90.5778 7.64436 93.8633 8.36L93.1639 11.4991C87.0484 10.1166 80.2986 9.17324 73.1258 8.84794L73.565 5.67633ZM100.776 14.199C98.9867 16.4598 96.4331 18.867 93.2615 21.3718L91.1959 19.0784C94.5139 16.3785 96.9536 14.0039 98.5475 12.0033L100.776 14.1828V14.199Z" fill="#040000"/>
<path d="M173.154 70.0195V51.0549" stroke="#00A0E9" stroke-width="0.341558" stroke-miterlimit="10" stroke-dasharray="2.68 2.68"/>
<path d="M164.615 70.0195V51.0549" stroke="#00A0E9" stroke-width="0.341558" stroke-miterlimit="10" stroke-dasharray="2.68 2.68"/>
</svg>
