<svg width="750" height="272" viewBox="0 0 750 272" fill="none" xmlns="http://www.w3.org/2000/svg">

<style>
    #money-left {
      animation: shakeLeft 2s ease-in-out infinite;
    }

    #money-right {
      animation: shakeRight 2s ease-in-out infinite;
    }

    @keyframes shakeLeft {
      0%, 100% {
        transform: translateX(0);
      }
      50% {
        transform: translateX(15px);
      }
    }

    @keyframes shakeRight {
      0%, 100% {
        transform: translateX(0);
      }
      50% {
        transform: translateX(-15px);
      }
    }

</style>

<g clip-path="url(#clip0_11_1400)">
  <!-- 1 -->
  <g id="money-left">
    <path d="M386.893 1.44232H18.985C9.25694 1.44232 1.38037 9.79845 1.38037 20.0986V198.54C1.38037 207.994 8.59794 215.66 17.5101 215.66H388.744C396.558 215.66 402.897 208.935 402.897 200.657V18.4368C402.897 9.06161 395.727 1.44232 386.877 1.44232H386.893Z" fill="#FADFA2"/>
    <path d="M388.76 216.711H17.526C8.08037 216.711 0.39209 208.558 0.39209 198.54V20.0986C0.39209 9.23404 8.73937 0.391907 18.9852 0.391907H386.893C396.276 0.391907 403.902 8.48152 403.902 18.4368V200.657C403.902 209.515 397.108 216.711 388.76 216.711ZM18.9852 2.4927C9.82201 2.4927 2.38477 10.3942 2.38477 20.0986V198.54C2.38477 207.398 9.1787 214.594 17.526 214.594H388.76C396.009 214.594 401.925 208.339 401.925 200.641V18.4368C401.925 9.65734 395.178 2.50838 386.893 2.50838H18.9852V2.4927Z" fill="#040000"/>
    <path d="M388.76 217.103H17.5262C7.86088 217.103 0 208.778 0 198.54V20.0986C0 9.01459 8.51988 0 18.9854 0H386.893C396.496 0 404.294 8.26207 404.294 18.4368V200.657C404.294 209.734 397.327 217.103 388.76 217.103ZM18.9854 0.783877C8.94352 0.783877 0.784519 9.45356 0.784519 20.0986V198.54C0.784519 208.339 8.30021 216.319 17.5262 216.319H388.76C396.888 216.319 403.509 209.295 403.509 200.657V18.4368C403.509 8.70104 396.056 0.783877 386.893 0.783877H18.9854ZM388.76 215.002H17.5262C8.95921 215.002 1.99268 207.618 1.99268 198.556V20.0986C1.99268 10.1747 9.6182 2.10079 18.9854 2.10079H386.893C395.397 2.10079 402.317 9.42221 402.317 18.4211V200.641C402.317 208.558 396.245 214.986 388.76 214.986V215.002ZM18.9854 2.88467C10.0418 2.88467 2.7772 10.6137 2.7772 20.0986V198.54C2.7772 207.179 9.39854 214.202 17.5262 214.202H388.76C395.805 214.202 401.532 208.119 401.532 200.641V18.4368C401.532 9.86118 394.974 2.90035 386.893 2.90035H18.9854V2.88467Z" fill="#040000"/>
    <path d="M17.1338 17.4178V199.685C17.1338 200.296 17.6045 200.798 18.185 200.798H386.109C386.689 200.798 387.16 200.296 387.16 199.685V17.4178C387.16 16.8064 386.689 16.3047 386.109 16.3047H18.185C17.6045 16.3047 17.1338 16.8064 17.1338 17.4178Z" fill="#FADFA2"/>
    <path d="M218.363 199.293H355.466C356.03 199.293 356.501 198.854 356.517 198.29C357.035 180.213 371.595 165.633 389.671 165.069C390.235 165.053 390.675 164.583 390.675 164.019V54.699C390.675 54.1346 390.235 53.6643 389.671 53.6486C371.25 53.0685 356.501 37.9554 356.501 19.4245H356.14V18.8915H49.3777C48.7972 18.8915 48.3265 19.3618 48.3265 19.9419V27.7493C48.3265 27.8434 48.3265 27.9374 48.2951 28.0158C44.5608 42.4235 31.679 53.1626 16.2083 53.6486C15.6434 53.6643 15.2041 54.1346 15.2041 54.699V164.003C15.2041 164.567 15.6434 165.038 16.2083 165.053C31.679 165.539 44.5608 176.278 48.2951 190.686C48.3108 190.78 48.3265 190.874 48.3265 190.953V197.945C48.3265 198.525 48.7972 198.995 49.3777 198.995C49.3777 199.089 49.3777 199.183 49.3777 199.277H187.516" fill="url(#paint0_linear_11_1400)"/>
    <path d="M379.064 38.7236C384.081 38.7236 388.148 34.6595 388.148 29.6463C388.148 24.633 384.081 20.569 379.064 20.569C374.046 20.569 369.979 24.633 369.979 29.6463C369.979 34.6595 374.046 38.7236 379.064 38.7236Z" fill="#040000"/>
    <path d="M24.3201 38.7236C29.3374 38.7236 33.4048 34.6595 33.4048 29.6463C33.4048 24.633 29.3374 20.569 24.3201 20.569C19.3027 20.569 15.2354 24.633 15.2354 29.6463C15.2354 34.6595 19.3027 38.7236 24.3201 38.7236Z" fill="#040000"/>
    <path d="M24.3201 196.565C29.3374 196.565 33.4048 192.501 33.4048 187.488C33.4048 182.474 29.3374 178.41 24.3201 178.41C19.3027 178.41 15.2354 182.474 15.2354 187.488C15.2354 192.501 19.3027 196.565 24.3201 196.565Z" fill="#040000"/>
    <path d="M379.064 196.565C384.081 196.565 388.148 192.501 388.148 187.488C388.148 182.474 384.081 178.41 379.064 178.41C374.046 178.41 369.979 182.474 369.979 187.488C369.979 192.501 374.046 196.565 379.064 196.565Z" fill="#040000"/>
    <path d="M325.465 148.137C324.414 152.527 322.609 155.866 320.115 158.453C321.95 159.331 324.006 160.052 326.281 160.522C325.183 161.541 323.786 163.517 323.112 164.818C320.413 164.066 318.075 163.015 316.02 161.683C313.948 162.905 311.548 163.862 308.927 164.614C308.488 163.564 307.641 161.965 306.809 160.867C306.668 162.169 306.339 163.078 305.476 163.689C304.377 164.473 303.028 164.614 301.082 164.614C300.972 163.36 300.47 161.212 299.921 159.989C300.706 160.021 301.631 160.021 301.961 160.021C302.29 160.021 302.4 159.88 302.4 159.503V154.189C301.82 154.596 301.208 154.973 300.627 155.349L299.607 152.699C299.403 156.995 298.886 161.588 297.74 164.896C296.846 164.175 294.838 163.094 293.755 162.717C295.324 158.045 295.387 151.179 295.387 146.209V133.714H306.841V143.214C310.12 141.553 310.449 139.405 310.449 137.398V133.761H322.657V141.02C322.657 142.007 322.688 142.415 323.096 142.415H324.116C324.634 142.415 325.481 142.321 325.92 142.148C326.03 143.34 326.124 144.939 326.265 146.036C325.716 146.272 324.9 146.303 324.179 146.303H322.578C318.765 146.303 318.012 144.672 318.012 140.957V138.339H314.906C314.764 141.537 313.572 144.939 309.21 146.993C308.771 146.319 307.704 145.158 306.825 144.296V160.303C308.771 159.864 310.544 159.253 312.113 158.437C310.575 156.728 309.257 154.784 308.159 152.574L310.653 151.821H307.688V147.228H321.386L322.264 147.055L325.434 148.184L325.465 148.137ZM299.796 146.162C299.796 147.494 299.796 148.984 299.733 150.52C300.549 150.316 301.443 150.003 302.432 149.705V146.13L301.067 147.259C300.753 146.82 300.313 146.209 299.811 145.597V146.177L299.796 146.162ZM299.796 138.151V141.788L300.643 141.176C301.224 141.725 301.835 142.368 302.416 142.979V138.135H299.796V138.151ZM312.787 151.774C313.603 153.232 314.702 154.534 316.02 155.725C317.243 154.565 318.232 153.279 319.048 151.774H312.772H312.787Z" fill="#F9DBAA"/>
    <path d="M297.756 167.718C297.113 167.718 296.485 167.499 295.968 167.091C295.356 166.605 293.63 165.665 292.845 165.382C291.37 164.881 290.586 163.266 291.072 161.792C292.563 157.371 292.563 150.097 292.563 146.177V133.682C292.563 132.115 293.834 130.845 295.403 130.845H306.857C307.547 130.845 308.19 131.096 308.677 131.503C309.163 131.111 309.791 130.876 310.466 130.876H322.673C324.242 130.876 325.513 132.146 325.513 133.714V139.279C326.172 139.17 326.862 139.311 327.443 139.671C328.196 140.142 328.698 140.941 328.776 141.835C328.808 142.195 328.839 142.603 328.87 143.026C328.949 143.951 329.012 144.923 329.106 145.613C329.216 146.491 328.902 147.353 328.305 147.965C328.305 148.231 328.305 148.498 328.227 148.78C327.458 151.994 326.297 154.784 324.728 157.183C325.434 157.403 326.14 157.575 326.862 157.732C327.898 157.951 328.729 158.719 329.012 159.739C329.294 160.758 328.996 161.855 328.211 162.576C327.442 163.297 326.234 164.943 325.607 166.119C324.979 167.295 323.614 167.891 322.327 167.53C320.021 166.887 317.871 166.025 315.926 164.928C314.09 165.853 312.035 166.652 309.681 167.311C308.52 167.64 307.327 167.201 306.621 166.292C304.864 167.326 302.918 167.421 301.051 167.421C300.502 167.421 300 167.264 299.561 166.997C299.247 167.264 298.886 167.468 298.478 167.577C298.227 167.656 297.96 167.687 297.694 167.687L297.756 167.718ZM316.02 158.845C316.475 158.845 316.946 158.955 317.369 159.19C317.354 159.111 317.338 159.033 317.322 158.955C317.275 158.735 317.275 158.5 317.275 158.28C316.553 158.641 315.722 158.672 314.984 158.375C314.984 158.547 314.984 158.719 314.937 158.892C314.937 158.955 314.906 159.017 314.89 159.08C315.251 158.923 315.643 158.845 316.02 158.845ZM321.292 150.018C321.37 150.112 321.433 150.222 321.512 150.332C321.59 150.457 321.653 150.583 321.7 150.708C321.794 150.457 321.888 150.222 321.982 149.956H321.951C321.778 149.987 321.59 150.018 321.417 150.018H321.292Z" fill="#040000"/>
    <path opacity="0.17" d="M201.684 175.416C237.23 175.416 266.046 146.624 266.046 111.107C266.046 75.5897 237.23 46.7975 201.684 46.7975C166.138 46.7975 137.322 75.5897 137.322 111.107C137.322 146.624 166.138 175.416 201.684 175.416Z" fill="#757575"/>
    <path opacity="0.17" d="M328.101 135.438C341.55 135.438 352.453 124.545 352.453 111.107C352.453 97.6688 341.55 86.7752 328.101 86.7752C314.653 86.7752 303.75 97.6688 303.75 111.107C303.75 124.545 314.653 135.438 328.101 135.438Z" fill="#757575"/>
    <path opacity="0.56" d="M342.458 181.091H303.781C301.364 181.091 299.404 183.05 299.404 185.465C299.404 187.881 301.364 189.839 303.781 189.839H342.458C344.876 189.839 346.836 187.881 346.836 185.465C346.836 183.05 344.876 181.091 342.458 181.091Z" fill="#606060"/>
    <path d="M77.9815 49.3529C77.9815 49.98 77.7775 50.4503 77.3538 50.7639C76.9302 51.0618 76.3497 51.2185 75.5965 51.2185C75.1729 51.2185 74.7963 51.1872 74.4982 51.1401C74.2001 51.0931 73.9647 51.0304 73.7607 50.952V49.933C73.9176 50.027 74.153 50.1054 74.4668 50.1838C74.7963 50.2622 75.1101 50.2936 75.4239 50.2936C75.8633 50.2936 76.1614 50.2308 76.334 50.1211C76.5066 50.0114 76.585 49.8076 76.585 49.541C76.585 49.3686 76.5223 49.2118 76.4124 49.0707C76.2869 48.9296 75.9574 48.7572 75.3925 48.5377C74.9532 48.3652 74.608 48.1301 74.357 47.8479C74.1059 47.5657 73.9961 47.1894 73.9961 46.7034C73.9961 46.2174 74.2001 45.8568 74.5923 45.5433C74.9846 45.2297 75.5338 45.0729 76.2241 45.0729C76.5536 45.0729 76.8674 45.1043 77.1342 45.1513C77.4009 45.1984 77.5892 45.2454 77.699 45.2924V46.2017C77.4794 46.139 77.244 46.092 77.0243 46.0606C76.8047 46.0136 76.5536 45.9979 76.3026 45.9979C75.9417 45.9979 75.6907 46.0606 75.5181 46.1704C75.3612 46.2801 75.2827 46.4212 75.2827 46.5937C75.2827 46.7975 75.3455 46.9699 75.4553 47.0797C75.5808 47.1894 75.926 47.3462 76.5066 47.5657C77.04 47.7538 77.4323 48.0046 77.652 48.3025C77.8873 48.6004 77.9971 48.961 77.9971 49.3686" fill="white"/>
    <path d="M80.1149 45.5589C80.1149 45.747 80.0522 45.9038 79.9266 46.0449C79.8011 46.186 79.6442 46.233 79.4559 46.233C79.2677 46.233 79.1107 46.1703 78.9852 46.0449C78.8597 45.9195 78.7812 45.7627 78.7812 45.5589C78.7812 45.3551 78.844 45.214 78.9852 45.0886C79.1107 44.9632 79.2677 44.9005 79.4559 44.9005C79.6442 44.9005 79.8011 44.9632 79.9266 45.0886C80.0522 45.214 80.1149 45.3708 80.1149 45.5589ZM80.0836 51.1244H78.8126V46.5623H80.0836V51.1244Z" fill="white"/>
    <path d="M85.2144 51.1244H83.9434V47.9262C83.9434 47.8008 83.8964 47.6911 83.7865 47.597C83.6924 47.4872 83.5355 47.4402 83.3472 47.4402C83.1589 47.4402 83.002 47.4716 82.8608 47.55C82.7196 47.6283 82.6098 47.7224 82.4999 47.8478V51.1244H81.229V46.5623H82.4529L82.4842 47.2991C82.5784 47.0796 82.751 46.8915 83.0177 46.719C83.2844 46.5466 83.5983 46.4682 83.9748 46.4682C84.3514 46.4682 84.6495 46.5936 84.8692 46.8288C85.0888 47.0639 85.1987 47.4402 85.1987 47.9262V51.1244H85.2144Z" fill="white"/>
    <path d="M90.7848 48.9767C90.7848 49.6822 90.5808 50.2309 90.1729 50.6228C89.7649 51.0147 89.2157 51.2185 88.494 51.2185C87.7722 51.2185 87.2388 51.0147 86.8151 50.6071C86.4072 50.1995 86.1875 49.6508 86.1875 48.9767V48.6945C86.1875 48.0203 86.3915 47.4873 86.7994 47.064C87.2074 46.6564 87.7722 46.4526 88.4783 46.4526C89.1844 46.4526 89.7492 46.6564 90.1572 47.0797C90.5651 47.4873 90.7691 48.036 90.7691 48.6945V48.9767H90.7848ZM89.4825 48.8669V48.8042C89.4825 48.1928 89.3883 47.7695 89.2 47.55C89.0118 47.3305 88.7764 47.2208 88.494 47.2208C88.2116 47.2208 87.9762 47.3462 87.7879 47.5814C87.5996 47.8165 87.5212 48.2398 87.5212 48.8199V48.8826C87.5212 49.5254 87.6153 49.9487 87.7879 50.1682C87.9605 50.3876 88.1959 50.4817 88.494 50.4817C88.7607 50.4817 88.9961 50.372 89.1844 50.1682C89.3726 49.9643 89.4668 49.5411 89.4668 48.8826" fill="white"/>
    <path d="M95.7431 47.1737C95.7431 47.6754 95.5862 48.0673 95.2724 48.3182C94.9586 48.569 94.5192 48.7101 93.9387 48.7101H93.1228V51.1401H91.7734V45.1513H94.0172C94.6605 45.1513 95.0998 45.3081 95.3665 45.6216C95.6176 45.9352 95.7431 46.2958 95.7431 46.7034V47.1737ZM94.3623 47.2521V46.672C94.3623 46.4525 94.2996 46.2801 94.1741 46.1703C94.0485 46.0606 93.8446 46.0136 93.5464 46.0136H93.1228V47.8792H93.6092C93.8132 47.8792 94.0015 47.8322 94.1427 47.7224C94.2839 47.6127 94.3623 47.4559 94.3623 47.2521Z" fill="white"/>
    <path d="M100.277 51.1245H99.0847L99.0533 50.5288C98.9591 50.7169 98.7865 50.8737 98.5669 50.9991C98.3315 51.1245 98.0648 51.1872 97.7667 51.1872C97.2646 51.1872 96.8723 51.0618 96.6213 50.811C96.3545 50.5601 96.229 50.1682 96.229 49.6508V49.5724C96.229 49.0551 96.4016 48.6631 96.7468 48.3966C97.092 48.1144 97.5627 47.989 98.1432 47.989C98.3158 47.989 98.4884 48.0203 98.661 48.0674C98.8336 48.1144 98.9591 48.1771 99.0376 48.2555V47.8009C99.0376 47.6441 98.9591 47.5187 98.8179 47.4089C98.6767 47.2992 98.4727 47.2521 98.206 47.2521C97.9236 47.2521 97.6725 47.2835 97.4529 47.3462C97.2332 47.4089 97.0449 47.4873 96.888 47.5814V46.7975C97.092 46.7191 97.3273 46.6407 97.5941 46.578C97.8451 46.5153 98.1589 46.4839 98.5355 46.4839C99.1317 46.4839 99.5554 46.6094 99.8378 46.8759C100.12 47.1424 100.261 47.5657 100.261 48.1458V51.1245H100.277ZM99.069 49.6038V49.4784C99.069 49.1962 99.0062 48.9924 98.8807 48.8513C98.7552 48.7102 98.5669 48.6318 98.3001 48.6318C98.0648 48.6318 97.8765 48.6945 97.7353 48.8356C97.5941 48.9767 97.5313 49.1805 97.5313 49.4784V49.6038C97.5313 49.9173 97.6098 50.1211 97.751 50.2152C97.8922 50.3249 98.0805 50.372 98.3158 50.372C98.5041 50.372 98.6924 50.3093 98.8493 50.1838C99.0062 50.0584 99.0847 49.8546 99.0847 49.5881" fill="white"/>
    <path d="M104.875 50.8893C104.875 50.8893 104.671 50.9991 104.42 51.0931C104.169 51.1872 103.917 51.2342 103.635 51.2342C102.898 51.2342 102.317 51.0461 101.878 50.6542C101.438 50.2779 101.219 49.6978 101.219 48.9296V48.7415C101.219 48.0517 101.438 47.4873 101.862 47.0797C102.286 46.6564 102.866 46.4526 103.604 46.4526C103.886 46.4526 104.153 46.4839 104.388 46.5623C104.624 46.6407 104.78 46.7191 104.875 46.7975V47.597C104.765 47.4873 104.608 47.4089 104.42 47.3305C104.231 47.2678 104.027 47.2208 103.808 47.2208C103.415 47.2208 103.133 47.3619 102.913 47.6284C102.709 47.9106 102.599 48.2869 102.599 48.7572V48.8356C102.599 49.3686 102.678 49.7605 102.851 49.98C103.023 50.1995 103.29 50.3249 103.651 50.3249C103.902 50.3249 104.137 50.2936 104.373 50.2152C104.608 50.1368 104.765 50.0584 104.859 49.98V50.858L104.875 50.8893Z" fill="white"/>
    <path d="M111.841 49.3529C111.841 49.98 111.637 50.4503 111.214 50.7639C110.79 51.0774 110.21 51.2185 109.441 51.2185C109.017 51.2185 108.641 51.1872 108.342 51.1401C108.044 51.0931 107.809 51.0304 107.605 50.952V49.933C107.762 50.027 107.997 50.1054 108.311 50.1838C108.641 50.2622 108.954 50.2936 109.268 50.2936C109.707 50.2936 110.006 50.2308 110.178 50.1211C110.351 50.0114 110.429 49.8076 110.429 49.541C110.429 49.3686 110.366 49.2118 110.257 49.0707C110.131 48.9296 109.802 48.7572 109.237 48.5377C108.797 48.3652 108.452 48.1301 108.201 47.8479C107.95 47.5657 107.84 47.1894 107.84 46.7034C107.84 46.2174 108.044 45.8568 108.437 45.5433C108.829 45.2297 109.378 45.0729 110.068 45.0729C110.398 45.0729 110.712 45.1043 110.978 45.1513C111.245 45.1984 111.433 45.2454 111.543 45.2924V46.2017C111.308 46.139 111.088 46.092 110.869 46.0606C110.649 46.0136 110.398 45.9979 110.147 45.9979C109.786 45.9979 109.535 46.0606 109.362 46.1704C109.205 46.2801 109.127 46.4212 109.127 46.5937C109.127 46.7975 109.19 46.9699 109.3 47.0797C109.425 47.1894 109.77 47.3462 110.351 47.5657C110.884 47.7538 111.277 48.0046 111.496 48.3025C111.732 48.6004 111.841 48.961 111.841 49.3686" fill="white"/>
    <path d="M116.878 49.0863H113.771C113.771 49.588 113.881 49.9486 114.117 50.1367C114.352 50.3405 114.65 50.4346 115.011 50.4346C115.262 50.4346 115.497 50.4032 115.764 50.3405C116.015 50.2778 116.282 50.1838 116.549 50.0583V50.8265C116.313 50.9519 116.062 51.046 115.78 51.1244C115.497 51.1871 115.168 51.2185 114.807 51.2185C114.101 51.2185 113.536 51.0303 113.128 50.6541C112.704 50.2778 112.5 49.7291 112.5 49.0079V48.6787C112.5 48.0516 112.689 47.5186 113.081 47.0796C113.458 46.6406 114.022 46.4211 114.744 46.4211C115.466 46.4211 115.968 46.6249 116.329 47.0326C116.69 47.4402 116.878 47.9732 116.878 48.6317V49.055V49.0863ZM115.701 48.4435C115.67 47.9889 115.576 47.6753 115.403 47.4715C115.231 47.2834 115.011 47.1737 114.729 47.1737C114.493 47.1737 114.274 47.2677 114.085 47.4559C113.897 47.644 113.787 47.9732 113.771 48.4279H115.686L115.701 48.4435Z" fill="white"/>
    <path d="M121.302 50.8893C121.302 50.8893 121.098 50.9991 120.847 51.0931C120.596 51.1872 120.345 51.2342 120.063 51.2342C119.325 51.2342 118.745 51.0461 118.305 50.6542C117.866 50.2779 117.646 49.6978 117.646 48.9296V48.7415C117.646 48.0517 117.866 47.4873 118.29 47.0797C118.713 46.6564 119.294 46.4526 120.031 46.4526C120.314 46.4526 120.581 46.4839 120.816 46.5623C121.051 46.6407 121.208 46.7191 121.302 46.7975V47.597C121.193 47.4873 121.036 47.4089 120.847 47.3305C120.659 47.2678 120.455 47.2208 120.235 47.2208C119.843 47.2208 119.561 47.3619 119.341 47.6284C119.137 47.9106 119.027 48.2869 119.027 48.7572V48.8356C119.027 49.3686 119.106 49.7605 119.278 49.98C119.451 50.1995 119.718 50.3249 120.078 50.3249C120.33 50.3249 120.565 50.2936 120.8 50.2152C121.036 50.1368 121.193 50.0584 121.287 49.98V50.858L121.302 50.8893Z" fill="white"/>
    <path d="M126.276 51.1244H125.068L125.037 50.4189C124.896 50.6227 124.692 50.8109 124.425 50.9676C124.158 51.1401 123.844 51.2185 123.468 51.2185C123.107 51.2185 122.824 51.1087 122.62 50.9049C122.416 50.6855 122.307 50.3092 122.307 49.7605V46.5623H123.578V49.6351C123.578 49.8702 123.625 50.027 123.734 50.1211C123.829 50.1994 123.954 50.2465 124.111 50.2465C124.299 50.2465 124.472 50.2151 124.629 50.1524C124.786 50.0897 124.911 49.98 125.021 49.8389V46.5779H126.292V51.1401L126.276 51.1244Z" fill="white"/>
    <path d="M130.874 47.9576H129.697C129.697 47.8322 129.665 47.7224 129.618 47.6284C129.571 47.5343 129.461 47.4873 129.305 47.4873C129.148 47.4873 129.022 47.5343 128.928 47.6127C128.818 47.6911 128.755 47.7851 128.724 47.8792V51.1401H127.453V46.578H128.677V47.2991C128.818 47.0326 128.975 46.8445 129.163 46.7034C129.352 46.5623 129.571 46.4996 129.838 46.4996C130.215 46.4996 130.513 46.625 130.701 46.8758C130.889 47.1267 130.952 47.4873 130.889 47.9733" fill="white"/>
    <path d="M132.788 45.5589C132.788 45.747 132.725 45.9038 132.6 46.0449C132.474 46.1703 132.317 46.233 132.129 46.233C131.941 46.233 131.784 46.1703 131.658 46.0449C131.533 45.9195 131.454 45.7627 131.454 45.5589C131.454 45.3551 131.517 45.214 131.658 45.0886C131.784 44.9632 131.941 44.9005 132.129 44.9005C132.317 44.9005 132.474 44.9632 132.6 45.0886C132.725 45.214 132.788 45.3708 132.788 45.5589ZM132.741 51.1244H131.47V46.5623H132.741V51.1244Z" fill="white"/>
    <path d="M136.475 47.3618H135.267V49.6978C135.267 49.933 135.314 50.1054 135.392 50.2152C135.471 50.3249 135.628 50.3876 135.847 50.3876C135.957 50.3876 136.067 50.3876 136.161 50.3563C136.255 50.3406 136.349 50.3249 136.444 50.2935V50.999C136.302 51.0617 136.145 51.0931 135.941 51.1245C135.738 51.1558 135.549 51.1715 135.361 51.1715C134.937 51.1715 134.608 51.0304 134.372 50.7639C134.121 50.4974 134.012 50.1054 134.012 49.6037V47.3462H133.462V46.7034L134.059 46.672L134.482 45.1513H135.282V46.6564H136.491V47.3462L136.475 47.3618Z" fill="white"/>
    <path d="M138.577 45.5589C138.577 45.747 138.515 45.9038 138.389 46.0449C138.264 46.1703 138.107 46.233 137.918 46.233C137.73 46.233 137.573 46.1703 137.448 46.0449C137.322 45.9195 137.244 45.7627 137.244 45.5589C137.244 45.3551 137.306 45.214 137.448 45.0886C137.573 44.9632 137.73 44.9005 137.918 44.9005C138.107 44.9005 138.264 44.9632 138.389 45.0886C138.515 45.214 138.577 45.3708 138.577 45.5589ZM138.53 51.1244H137.259V46.5623H138.53V51.1244Z" fill="white"/>
    <path d="M143.897 49.0863H140.79C140.79 49.588 140.9 49.9486 141.135 50.1367C141.371 50.3405 141.669 50.4346 142.03 50.4346C142.265 50.4346 142.516 50.4032 142.783 50.3405C143.034 50.2778 143.3 50.1838 143.567 50.0583V50.8265C143.332 50.9519 143.081 51.046 142.798 51.1244C142.516 51.1871 142.186 51.2185 141.826 51.2185C141.119 51.2185 140.555 51.0303 140.147 50.6541C139.723 50.2778 139.519 49.7291 139.519 49.0079V48.6787C139.519 48.0516 139.707 47.5186 140.1 47.0796C140.476 46.6406 141.041 46.4211 141.763 46.4211C142.485 46.4211 142.987 46.6249 143.347 47.0326C143.708 47.4402 143.897 47.9732 143.897 48.6317V49.055V49.0863ZM142.72 48.4435C142.689 47.9889 142.594 47.6753 142.422 47.4715C142.249 47.2834 142.03 47.1737 141.747 47.1737C141.512 47.1737 141.292 47.2677 141.104 47.4559C140.915 47.644 140.806 47.9732 140.79 48.4279H142.704L142.72 48.4435Z" fill="white"/>
    <path d="M147.756 49.7448C147.756 50.1681 147.599 50.5287 147.301 50.8109C146.988 51.0931 146.485 51.2342 145.779 51.2342C145.481 51.2342 145.215 51.2028 144.979 51.1558C144.744 51.1088 144.571 51.0461 144.461 50.9677V50.1681C144.587 50.2465 144.76 50.3092 144.995 50.3876C145.215 50.466 145.45 50.4974 145.701 50.4974C145.999 50.4974 146.234 50.4503 146.407 50.3406C146.564 50.2308 146.658 50.1054 146.658 49.9486C146.658 49.7919 146.611 49.6664 146.501 49.5724C146.391 49.4783 146.109 49.3529 145.67 49.2275C145.246 49.1021 144.964 48.9296 144.822 48.6944C144.665 48.4593 144.603 48.1771 144.603 47.8165C144.603 47.4559 144.744 47.1424 145.011 46.8915C145.277 46.6407 145.701 46.5153 146.282 46.5153C146.548 46.5153 146.784 46.5309 146.972 46.578C147.16 46.625 147.333 46.672 147.49 46.7504V47.4873C147.364 47.4246 147.207 47.3618 146.988 47.3148C146.768 47.2678 146.564 47.2521 146.36 47.2521C146.125 47.2521 145.936 47.2991 145.795 47.3775C145.654 47.4559 145.575 47.5657 145.575 47.7068C145.575 47.8635 145.638 47.9733 145.748 48.036C145.858 48.0987 146.109 48.1928 146.501 48.3025C146.988 48.4436 147.333 48.6317 147.521 48.8669C147.709 49.1021 147.803 49.3999 147.803 49.7762" fill="white"/>
    <path d="M100.936 34.3808L100.387 33.4245C103.07 32.5152 104.828 31.5118 105.628 30.3831L106.585 30.5869L106.444 30.7907C107.824 31.9351 109.441 32.8288 111.292 33.4245L110.711 34.3652C108.891 33.6126 107.275 32.6563 105.879 31.4962C104.937 32.4368 103.29 33.3931 100.936 34.3808ZM105.361 37.1087H100.795V36.1054H105.361V34.7257H102.678V33.7224H109.064V34.7257H106.35V36.1054H110.9V37.1087H106.35V40.0091H110.994V41.0124H100.701V40.0091H105.361V37.1087ZM102.474 37.2185C102.913 37.7829 103.337 38.504 103.761 39.4133L102.866 39.8993C102.427 38.9744 102.003 38.2532 101.627 37.7515L102.49 37.2185H102.474ZM109.974 37.7985C109.472 38.6294 108.986 39.3506 108.578 39.8993L107.809 39.2879C108.295 38.6294 108.766 37.924 109.158 37.2185L109.974 37.7985Z" fill="white"/>
    <path d="M117.584 33.2207H114.085V32.3114H117.584V33.2207ZM115.121 40.8713H114.163V37.3752C114.163 37.1871 114.273 37.0774 114.462 37.0774H117.098C117.317 37.0774 117.411 37.1871 117.411 37.3752V40.2285C117.411 40.448 117.301 40.5578 117.082 40.5578H115.105V40.8713H115.121ZM117.223 31.6216H114.367V30.7123H117.223V31.6216ZM117.27 34.8668H114.367V33.9575H117.27V34.8668ZM117.27 36.4816H114.367V35.5723H117.27V36.4816ZM115.277 37.9867C115.168 37.9867 115.121 38.0337 115.121 38.1434V39.6642H116.266C116.391 39.6642 116.47 39.6014 116.47 39.4603V38.1434C116.47 38.0337 116.407 37.9867 116.313 37.9867H115.277ZM119.31 34.1613C118.965 34.4122 118.588 34.6473 118.196 34.8355L117.631 34.0673L118.918 33.3618L117.866 32.4995L118.478 31.8411L119.577 32.7974C120.016 32.3741 120.408 31.9351 120.691 31.4962H118.651V30.6339H121.381C121.507 30.6339 121.616 30.6809 121.695 30.7907L122.118 31.4178C122.464 31.0258 122.762 30.6652 122.95 30.3674L123.625 30.9004C123.374 31.2767 123.06 31.6686 122.652 32.1076L122.997 32.4995C123.436 31.9978 123.766 31.5902 124.001 31.2296L124.692 31.7627C124.425 32.1703 124.064 32.6249 123.625 33.1109C124.001 33.4088 124.441 33.7224 124.958 34.0046L124.284 34.71L123.515 34.177V34.7728H119.341V34.0986L119.278 34.1457L119.31 34.1613ZM124.833 40.1188V41.0281H118.164V40.1188H119.922L119.514 38.457H118.745C118.588 38.457 118.494 38.3786 118.494 38.2061V35.635C118.494 35.4782 118.572 35.3842 118.745 35.3842H124.064C124.237 35.3842 124.315 35.4626 124.315 35.635V38.2061C124.315 38.3786 124.237 38.457 124.064 38.457H123.389L123.185 39.2722L122.95 40.1188H124.833ZM119.451 36.2935L119.42 36.3248V37.5007L119.451 37.5477H123.374C123.374 37.5477 123.405 37.5477 123.405 37.5007V36.3248L123.374 36.2935H119.451ZM123.185 33.8791C122.605 33.3931 122.04 32.7347 121.475 31.9351C121.036 32.5622 120.424 33.2207 119.655 33.8791H123.185ZM122.432 38.457H120.502L120.895 40.1188H121.993L122.338 38.943L122.448 38.457H122.432Z" fill="white"/>
    <path d="M130.215 37.7359V37.0774C129.728 37.5477 129.164 37.9867 128.52 38.363L127.751 37.6261C128.693 37.046 129.556 36.3719 130.34 35.6351H127.955V34.6787H131.141C131.439 34.2711 131.69 33.8478 131.878 33.4402V33.4089H128.363V32.4525H132.255C132.412 31.8098 132.553 31.0416 132.647 30.2263L133.698 30.3361C133.635 30.8691 133.463 31.6059 133.243 32.4525H134.718C135.251 31.6216 135.675 30.8848 135.91 30.3047L136.805 30.775C136.601 31.2924 136.287 31.8411 135.91 32.4525H138.091V33.4089H134.687C134.922 33.8792 135.173 34.2868 135.408 34.6631H138.515V35.6194H136.162C136.773 36.2778 137.636 36.9206 138.688 37.5634L137.872 38.3316C137.448 38.0494 137.056 37.7515 136.679 37.4537L136.648 39.3036C136.617 39.8837 136.491 40.307 136.287 40.5735C136.114 40.8087 135.848 40.9654 135.534 41.0752C134.985 41.2476 134.169 41.1849 133.133 40.9027V39.7269C133.557 39.8994 133.918 40.0248 134.232 40.0718C134.734 40.1502 135.157 40.0718 135.455 39.821C135.581 39.6799 135.659 39.4604 135.691 39.1468C135.738 38.363 135.738 37.9083 135.691 37.7986C135.675 37.7359 135.628 37.7202 135.565 37.7202H133.337C133.227 38.0651 133.071 38.3943 132.867 38.7235L132.631 39.0685C131.8 40.1345 130.372 40.8087 128.379 41.0595L128.128 40.0091L129.383 39.8053C130.827 39.4917 131.784 38.7863 132.255 37.7045H130.231L130.215 37.7359ZM130.246 30.2577C130.591 30.6339 130.952 31.1513 131.329 31.7784L130.482 32.3114C130.089 31.6687 129.744 31.167 129.43 30.8534L130.246 30.2577ZM135.989 36.7795L134.953 35.6351H131.596C131.345 35.9329 130.999 36.3249 130.544 36.7795H135.989ZM133.651 33.4245H132.945L132.27 34.6787H134.294L133.635 33.4245H133.651Z" fill="white"/>
    <path d="M68.2532 36.8735C68.2532 41.42 64.5659 45.1043 60.0314 45.1043C55.4969 45.1043 51.7939 41.42 51.7939 36.8735C51.7939 32.3271 55.4812 28.6585 60.0314 28.6585C64.5816 28.6585 68.2532 32.3427 68.2532 36.8735Z" fill="#CF3339"/>
    <path d="M62.9968 31.6216H60.9414V33.6753H62.9968V31.6216Z" fill="white"/>
    <path d="M53.6138 37.3282V39.1625H55.4495V40.9811H57.2853V37.3282H53.6138Z" fill="white"/>
    <path d="M54.085 33.6754V35.5096H59.1059V40.9811H60.9417V33.6754H54.085Z" fill="white"/>
    <path d="M62.7617 35.5096V40.981H64.5975V37.3282H66.8726V35.5096H62.7617Z" fill="white"/>
    <path d="M89.7177 39.335H88.133C88.0545 39.335 88.0232 39.2879 88.0232 39.2095V37.3753C88.0232 37.2969 88.0545 37.2655 88.133 37.2655H96.5744C96.6529 37.2655 96.6999 37.2969 96.6999 37.3753V39.2095C96.6999 39.2879 96.6529 39.335 96.5744 39.335H95.0838L94.77 40.1032H97.6571V40.9968H87.0347V40.1032H90.0315L89.702 39.335H89.7177ZM97.5158 36.905H87.1759V36.1054H97.5158V36.905ZM93.2324 34.2711V33.55H94.2522V32.9856H93.2324V32.2801H94.2522V31.6687H93.1853V30.9475H94.2522V30.3361H95.0525V30.9475H96.0566V31.6687H95.0525V32.2801H96.0096V32.9856H95.0525V33.55H96.0566V34.2711H95.0525V34.8198H96.3234C96.4332 34.8198 96.4803 34.7885 96.4803 34.6787V30.4928H97.3746V35.2431C97.3746 35.494 97.2491 35.6351 96.9824 35.6351H87.725C87.474 35.6351 87.3485 35.494 87.3485 35.2431V30.4928H88.2428V34.6787C88.2428 34.7885 88.2899 34.8198 88.384 34.8198H89.6236V34.2711H88.6037V33.55H89.6236V32.9385H88.6508V32.233H89.6236V31.6687H88.6037V30.9475H89.6236V30.3361H90.4395V30.9475H91.3495V31.6687H90.4395V32.233H91.3495V32.9385H90.4395V33.55H91.3966V34.2711H90.4395V34.8198H91.8673V30.3517H92.7617V34.8198H94.2679V34.2711H93.2481H93.2324ZM88.9489 38.0181C88.9489 38.0181 88.9018 38.0181 88.9175 38.0494V38.5197L88.9489 38.5668H95.7428L95.7742 38.5197V38.0494L95.7428 38.0181H88.9489ZM93.7972 40.1032L94.0796 39.4917L94.1424 39.335H90.6905L90.9886 40.1032H93.8129H93.7972Z" fill="white"/>
    <path d="M77.7773 34.8198L78.0754 35.2117C77.8244 37.046 76.4907 38.7392 74.1057 40.2599L73.3369 39.3976C74.2313 38.9587 74.9216 38.504 75.408 38.0807C75.8003 37.7358 76.1769 37.3125 76.5377 36.7952C76.7888 36.4032 76.93 36.1524 76.9614 35.9956C76.9928 35.9329 76.9928 35.9172 76.9614 35.8859C76.9143 35.8545 76.8359 35.8231 76.7103 35.8231H73.7449V34.8198H77.7773ZM79.77 39.8523C79.77 40.3069 79.6131 40.6675 79.2836 40.934C79.0639 41.1378 78.6559 41.2476 78.0911 41.2319C77.4635 41.2319 76.8516 41.1222 76.2396 40.9654L76.1769 39.868C77.4007 40.2442 78.1539 40.3383 78.4206 40.1815C78.6246 40.0247 78.7187 39.8052 78.7187 39.5074V33.8321C78.7187 33.7224 78.656 33.6753 78.5461 33.6753H74.0587V32.672H79.4405C79.6601 32.672 79.7857 32.7974 79.77 33.0169V33.4715C80.2564 34.9452 80.8055 36.0897 81.3547 36.9049C82.0294 37.8769 83.0336 38.8646 84.3516 39.868L83.4572 40.5421C81.8882 39.2565 80.6486 37.7672 79.77 36.1053V39.8523ZM75.5022 30.4771L78.4206 30.775C79.7857 30.9318 80.9781 31.1042 82.0294 31.3394L81.8097 32.3427C79.8327 31.9038 77.6675 31.5902 75.3453 31.4805L75.4865 30.4614L75.5022 30.4771ZM84.2731 33.2207C83.6926 33.9418 82.8767 34.7257 81.8568 35.5253L81.1821 34.7884C82.249 33.9262 83.0336 33.158 83.5513 32.5152L84.2731 33.2207Z" fill="white"/>
    <path d="M90.9257 126.189L84.6652 127.176C84.3514 126.377 84.069 125.828 83.8179 125.514C83.5669 125.201 83.1432 124.887 82.5627 124.574V129.434C85.9675 130.343 88.2583 131.299 89.4037 132.318C90.9257 133.682 91.6788 135.407 91.6788 137.492C91.6788 138.715 91.4121 139.844 90.8629 140.863C90.3138 141.882 89.6234 142.744 88.7761 143.418C87.9288 144.108 87.0345 144.594 86.0774 144.908C85.1202 145.221 83.9592 145.394 82.5784 145.456V148.639H80.115V145.456C78.4675 145.315 77.1338 145.049 76.0983 144.657C75.0784 144.265 74.184 143.732 73.4309 143.058C72.6778 142.368 72.1129 141.631 71.705 140.847C71.297 140.063 70.9989 139.107 70.7949 137.978L77.6045 137.194C77.8085 138.307 78.0753 139.107 78.4204 139.593C78.7656 140.079 79.3305 140.518 80.115 140.91V134.968C77.8556 134.341 76.2395 133.792 75.2981 133.338C74.3566 132.883 73.525 132.146 72.8347 131.127C72.1443 130.108 71.7991 128.869 71.7991 127.411C71.7991 125.42 72.5052 123.743 73.9016 122.41C75.2981 121.062 77.3849 120.325 80.1464 120.184V118.522H82.6098V120.184C85.1202 120.341 87.0502 120.937 88.3838 121.971C89.7175 123.006 90.5805 124.417 90.9884 126.204L90.9257 126.189ZM80.0993 124.511C79.3776 124.746 78.8755 125.044 78.6087 125.389C78.3263 125.734 78.1851 126.157 78.1851 126.628C78.1851 127.129 78.3263 127.552 78.6087 127.929C78.8912 128.305 79.3932 128.603 80.0993 128.854V124.527V124.511ZM82.5627 141.082C83.5198 140.863 84.2102 140.518 84.6652 140.032C85.1045 139.546 85.3242 138.997 85.3242 138.386C85.3242 137.853 85.1359 137.367 84.7594 136.928C84.3828 136.489 83.6453 136.065 82.5627 135.689V141.082Z" fill="url(#paint1_linear_11_1400)"/>
    <path d="M119.059 61.942H175.073V80.7551H137.134L135.11 93.4852C137.73 92.2467 140.335 91.3217 142.908 90.7103C145.481 90.0989 148.007 89.7853 150.518 89.7853C159.006 89.7853 165.91 92.3565 171.198 97.483C176.485 102.61 179.137 109.084 179.137 116.876C179.137 122.363 177.772 127.631 175.057 132.679C172.343 137.727 168.468 141.6 163.478 144.249C158.473 146.914 152.071 148.247 144.273 148.247C138.671 148.247 133.87 147.714 129.885 146.648C125.884 145.582 122.495 143.998 119.686 141.898C116.878 139.797 114.618 137.414 112.877 134.749C111.135 132.083 109.691 128.775 108.53 124.793L132.395 122.191C132.976 126.016 134.325 128.916 136.443 130.908C138.562 132.899 141.104 133.886 144.038 133.886C147.317 133.886 150.031 132.648 152.181 130.155C154.33 127.662 155.397 123.947 155.397 119.008C155.397 114.07 154.315 110.245 152.15 107.893C149.984 105.541 147.113 104.365 143.52 104.365C141.245 104.365 139.032 104.93 136.914 106.043C135.329 106.858 133.588 108.316 131.705 110.448L111.606 107.548L119.074 61.942H119.059Z" fill="url(#paint2_linear_11_1400)"/>
    <path d="M188.63 104.021C188.63 87.8884 191.533 76.6005 197.354 70.1571C203.159 63.7136 212.024 60.484 223.918 60.484C229.629 60.484 234.32 61.1895 237.992 62.6005C241.663 64.0115 244.66 65.8457 246.967 68.1033C249.289 70.3609 251.109 72.7282 252.443 75.2209C253.776 77.7136 254.843 80.614 255.659 83.9376C257.244 90.2713 258.028 96.8716 258.028 103.738C258.028 119.134 255.424 130.406 250.215 137.539C245.005 144.672 236.015 148.247 223.274 148.247C216.135 148.247 210.361 147.102 205.952 144.829C201.543 142.556 197.934 139.217 195.126 134.811C193.086 131.691 191.486 127.411 190.34 121.987C189.195 116.563 188.63 110.574 188.63 104.021ZM212.04 104.068C212.04 114.869 212.997 122.254 214.911 126.204C216.825 130.155 219.587 132.13 223.227 132.13C225.628 132.13 227.699 131.284 229.456 129.606C231.214 127.929 232.5 125.279 233.332 121.642C234.163 118.021 234.571 112.361 234.571 104.679C234.571 93.4068 233.614 85.8346 231.7 81.9622C229.786 78.0899 226.914 76.1459 223.102 76.1459C219.289 76.1459 216.386 78.1212 214.645 82.072C212.903 86.0227 212.04 93.3441 212.04 104.036V104.068Z" fill="url(#paint3_linear_11_1400)"/>
    <path d="M267.756 104.021C267.756 87.8884 270.659 76.6005 276.48 70.1571C282.286 63.7136 291.151 60.484 303.044 60.484C308.755 60.484 313.447 61.1895 317.118 62.6005C320.79 64.0115 323.787 65.8457 326.093 68.1033C328.415 70.3609 330.235 72.7282 331.569 75.2209C332.903 77.7136 333.97 80.614 334.786 83.9376C336.37 90.2713 337.155 96.8716 337.155 103.738C337.155 119.134 334.55 130.406 329.341 137.539C324.132 144.672 315.141 148.247 302.401 148.247C295.262 148.247 289.488 147.102 285.079 144.829C280.67 142.556 277.061 139.217 274.252 134.811C272.212 131.691 270.612 127.411 269.467 121.987C268.321 116.563 267.756 110.574 267.756 104.021ZM291.166 104.068C291.166 114.869 292.124 122.254 294.038 126.204C295.952 130.155 298.713 132.13 302.354 132.13C304.754 132.13 306.825 131.284 308.583 129.606C310.34 127.929 311.627 125.279 312.458 121.642C313.29 118.021 313.698 112.361 313.698 104.679C313.698 93.4068 312.741 85.8346 310.826 81.9622C308.912 78.0899 306.041 76.1459 302.228 76.1459C298.415 76.1459 295.513 78.1212 293.771 82.072C292.029 86.0227 291.166 93.3441 291.166 104.036V104.068Z" fill="url(#paint4_linear_11_1400)"/>
    <path d="M138.891 188.397C138.891 189.839 138.044 190.576 136.365 190.576C136.004 190.576 135.612 190.561 135.204 190.514L134.357 188.256C134.671 188.272 135.33 188.287 136.334 188.287C136.585 188.287 136.695 188.162 136.695 187.942V181.734C135.91 182.722 135.204 183.553 134.576 184.211L133.808 182.91C133.541 186.516 132.992 189.103 132.16 190.67L130.293 189.228C131.187 187.237 131.642 184.399 131.642 180.715V168.534H138.876V188.428L138.891 188.397ZM136.71 175.98V170.76H133.855V173.676L135.157 172.72C135.832 173.911 136.349 175.008 136.71 175.98ZM136.71 178.081V176.608L135.188 177.752C134.969 176.764 134.514 175.651 133.855 174.397V181.609C134.922 180.496 135.879 179.32 136.71 178.081ZM153.091 188.695L151.946 190.655C149.812 190.122 147.819 189.165 145.968 187.786C144.477 188.899 142.641 189.839 140.46 190.655L139.205 188.695C141.057 188.146 142.72 187.362 144.195 186.328C142.924 184.979 141.888 183.176 141.057 180.888H139.927V178.724H151.365V180.888C150.283 183.161 149.074 184.948 147.772 186.218C149.247 187.268 151.02 188.084 153.107 188.695H153.091ZM152.824 177.313H149.168C148.666 177.313 148.258 177.141 147.945 176.78C147.631 176.419 147.474 176.012 147.474 175.541V170.885H143.897V172.045C143.897 174.617 143.065 176.623 141.402 178.066L139.519 176.592C140.915 175.557 141.606 174.005 141.606 171.967V168.706H149.718V174.805C149.718 175.087 149.859 175.212 150.126 175.212H152.824V177.329V177.313ZM148.761 180.888H143.489C144.195 182.612 145.058 183.913 146.077 184.838C147.239 183.553 148.133 182.236 148.761 180.888Z" fill="#FADFA2"/>
    <path d="M168.358 185.795C166.695 187.535 164.31 189.087 161.187 190.435L159.932 188.585C162.96 187.253 165.141 185.873 166.491 184.462L168.358 185.779V185.795ZM182.416 170.478H175.293V171.904H181.146V177.36H161.344V171.904H167.212V170.478H159.995V168.487H182.432V170.478H182.416ZM182.464 183.929H172.437V190.623H170.099V183.929H159.995V181.938H182.448V183.929H182.464ZM180.753 180.59H161.799V178.661H180.753V180.59ZM167.197 175.479V173.739H163.588V175.479H167.197ZM173.049 171.889V170.462H169.44V171.889H173.049ZM173.049 175.479V173.739H169.44V175.479H173.049ZM182.683 188.82L181.193 190.545C178.98 188.914 176.642 187.441 174.132 186.092L175.638 184.493C178.086 185.669 180.439 187.111 182.683 188.82ZM178.886 175.479V173.739H175.293V175.479H178.886Z" fill="#FADFA2"/>
    <path d="M197.589 182.236L196.036 183.96C195.659 183.145 195.141 182.251 194.467 181.279V190.592H192.254V182.487L190.513 184.086L189.336 182.001C191.517 180.48 193.149 178.05 194.2 174.726H189.854V172.547H196.491V174.726C196.35 175.494 195.847 176.811 195 178.693C196.13 179.931 196.993 181.107 197.605 182.251L197.589 182.236ZM195.063 171.011L193.133 172.014C192.16 170.525 191.36 169.474 190.764 168.847L192.756 167.797C193.886 169.082 194.655 170.148 195.063 171.011ZM212.04 190.137H196.899V188.225H201.104C201.01 187.692 200.806 187.08 200.476 186.375H198.829V181.718H210.518V186.375H208.949C208.714 187.017 208.478 187.629 208.227 188.225H212.04V190.137ZM211.805 180.637H197.432V178.771H211.805V180.637ZM211.554 177.768H197.746V169.992H201.716V168.142H203.724V169.992H205.544V168.142H207.6V169.992H211.538V177.768H211.554ZM201.716 173.017V171.795H199.88V173.017H201.716ZM201.716 175.949V174.648H199.88V175.949H201.716ZM208.274 184.54V183.459H201.041V184.54H208.274ZM206.533 186.375H202.72C202.908 186.861 203.112 187.488 203.332 188.225H205.827C206.093 187.613 206.329 187.002 206.533 186.375ZM205.544 173.017V171.795H203.724V173.017H205.544ZM205.544 175.98V174.648H203.724V175.98H205.544ZM209.404 173.017V171.795H207.6V173.017H209.404ZM209.404 175.98V174.648H207.6V175.98H209.404Z" fill="#FADFA2"/>
    <path d="M229.346 190.513H227.056V189.212H222.286V190.513H220.042V178.943H229.331V190.513H229.346ZM227.056 187.127V181.076H222.286V187.127H227.056ZM238.384 176.686H222.568V168.549H238.384V176.686ZM236.078 174.648V170.65H224.922V174.648H236.078ZM240.863 190.513H238.619V189.212H233.802V190.513H231.543V178.943H240.879V190.513H240.863ZM238.604 187.143V181.076H233.787V187.143H238.604Z" fill="#FADFA2"/>
    <path d="M271.318 179.038H259.817V180.935C263.771 181.954 267.145 183.239 269.969 184.776L268.965 186.861C266.407 185.418 263.348 184.164 259.817 183.098V190.498H257.385V179.022H248.803V176.811H257.401V168.142H259.802V171.026H269.781V173.268H259.802V176.827H271.303V179.038H271.318Z" fill="#FADFA2"/>
    <g style="mix-blend-mode:soft-light" opacity="0.2">
      <path d="M326.768 15.1602L219.838 214.202H180.126L281.862 13.6395C281.862 13.6395 325.231 13.6395 326.768 15.1602Z" fill="white"/>
    </g>
  </g>

  <!-- 2 -->
  <g id="money-right">
    <path d="M732.599 55.8278H364.691C354.979 55.8278 347.102 64.1839 347.102 74.484V252.926C347.102 262.379 354.32 270.046 363.232 270.046H734.466C742.28 270.046 748.619 263.32 748.619 255.042V72.8065C748.619 63.4314 741.448 55.8121 732.599 55.8121V55.8278Z" fill="#FADFA2"/>
    <path d="M734.466 271.08H363.232C353.786 271.08 346.098 262.928 346.098 252.91V74.484C346.098 63.6195 354.445 54.7773 364.691 54.7773H732.599C741.982 54.7773 749.608 62.867 749.608 72.8222V255.042C749.608 263.9 742.814 271.096 734.466 271.096V271.08ZM364.676 56.8781C355.528 56.8781 348.075 64.7796 348.075 74.484V252.926C348.075 261.784 354.869 268.98 363.216 268.98H734.451C741.7 268.98 747.615 262.724 747.615 255.027V72.8065C747.615 64.0271 740.868 56.8781 732.583 56.8781H364.676Z" fill="#040000"/>
    <path d="M734.466 271.472H363.232C353.567 271.472 345.706 263.148 345.706 252.91V74.4841C345.706 63.4 354.226 54.3854 364.691 54.3854H732.599C742.202 54.3854 750 62.6475 750 72.8222V255.042C750 264.12 743.033 271.488 734.466 271.488V271.472ZM364.676 55.1536C354.634 55.1536 346.475 63.8233 346.475 74.4684V252.91C346.475 262.709 353.991 270.689 363.217 270.689H734.451C742.578 270.689 749.2 263.665 749.2 255.027V72.8066C749.2 63.0708 741.747 55.1536 732.584 55.1536H364.676ZM734.466 269.372H363.232C354.665 269.372 347.699 261.988 347.699 252.926V74.4841C347.699 64.5602 355.324 56.4862 364.691 56.4862H732.599C741.104 56.4862 748.023 63.8076 748.023 72.8066V255.027C748.023 262.944 741.951 269.372 734.466 269.372ZM364.676 57.2701C355.732 57.2701 348.468 64.9991 348.468 74.4841V252.926C348.468 261.564 355.089 268.588 363.217 268.588H734.451C741.496 268.588 747.223 262.505 747.223 255.027V72.8066C747.223 64.2309 740.664 57.2701 732.584 57.2701H364.676Z" fill="#040000"/>
    <path d="M362.84 71.8032V254.07C362.84 254.682 363.311 255.183 363.891 255.183H731.815C732.395 255.183 732.866 254.682 732.866 254.07V71.8032C732.866 71.1917 732.395 70.6901 731.815 70.6901H363.891C363.311 70.6901 362.84 71.1917 362.84 71.8032Z" fill="#FADFA2"/>
    <path d="M564.069 253.663H701.171C701.736 253.663 702.207 253.224 702.222 252.659C702.74 234.583 717.301 220.003 735.376 219.439C735.941 219.423 736.38 218.953 736.38 218.388V109.084C736.38 108.52 735.941 108.05 735.376 108.034C716.956 107.454 702.207 92.3408 702.207 73.8099H701.846V73.2769H395.083C394.503 73.2769 394.032 73.7472 394.032 74.3272V82.1347C394.032 82.2287 394.032 82.3228 394.001 82.4012C390.266 96.8088 377.385 107.548 361.914 108.034C361.349 108.05 360.91 108.52 360.91 109.084V218.388C360.91 218.953 361.349 219.423 361.914 219.439C377.385 219.925 390.266 230.664 394.001 245.071C394.016 245.165 394.032 245.26 394.032 245.338V252.33C394.032 252.91 394.503 253.38 395.083 253.38C395.083 253.475 395.083 253.569 395.083 253.663H533.221" fill="url(#paint5_linear_11_1400)"/>
    <path d="M724.754 93.0933C729.772 93.0933 733.839 89.0292 733.839 84.016C733.839 79.0027 729.772 74.9387 724.754 74.9387C719.737 74.9387 715.669 79.0027 715.669 84.016C715.669 89.0292 719.737 93.0933 724.754 93.0933Z" fill="#040000"/>
    <path d="M724.754 250.95C729.772 250.95 733.839 246.886 733.839 241.873C733.839 236.86 729.772 232.796 724.754 232.796C719.737 232.796 715.669 236.86 715.669 241.873C715.669 246.886 719.737 250.95 724.754 250.95Z" fill="#040000"/>
    <path d="M671.156 202.507C670.104 206.897 668.3 210.236 665.805 212.823C667.641 213.701 669.696 214.422 671.971 214.892C670.873 215.911 669.477 217.887 668.802 219.188C666.103 218.435 663.765 217.385 661.71 216.052C659.639 217.275 657.238 218.231 654.618 218.984C654.179 217.934 653.331 216.334 652.5 215.237C652.358 216.538 652.029 217.448 651.166 218.059C650.068 218.843 648.718 218.984 646.773 218.984C646.663 217.73 646.161 215.582 645.612 214.359C646.396 214.39 647.322 214.39 647.651 214.39C647.981 214.39 648.091 214.249 648.091 213.873V208.558C647.51 208.966 646.898 209.342 646.318 209.719L645.298 207.069C645.094 211.365 644.576 215.958 643.431 219.266C642.536 218.545 640.528 217.463 639.445 217.087C641.014 212.415 641.077 205.548 641.077 200.579V188.083H652.531V197.584C655.81 195.922 656.14 193.774 656.14 191.768V188.131H668.347V195.389C668.347 196.377 668.378 196.785 668.786 196.785H669.806C670.324 196.785 671.171 196.69 671.611 196.518C671.72 197.71 671.815 199.309 671.956 200.406C671.407 200.641 670.591 200.673 669.869 200.673H668.269C664.456 200.673 663.703 199.042 663.703 195.327V192.708H660.596C660.455 195.907 659.262 199.309 654.9 201.362C654.461 200.688 653.394 199.528 652.515 198.666V214.673C654.461 214.234 656.234 213.622 657.803 212.807C656.265 211.098 654.947 209.154 653.849 206.944L656.344 206.191H653.378V201.598H667.076L667.955 201.425L671.124 202.554L671.156 202.507ZM645.502 200.531C645.502 201.864 645.502 203.353 645.439 204.89C646.255 204.686 647.149 204.372 648.138 204.075V200.5L646.773 201.629C646.459 201.19 646.02 200.579 645.517 199.967V200.547L645.502 200.531ZM645.502 192.536V196.173L646.349 195.562C646.93 196.11 647.542 196.753 648.122 197.365V192.52H645.502V192.536ZM658.478 206.144C659.294 207.602 660.392 208.903 661.71 210.095C662.934 208.935 663.922 207.649 664.738 206.144H658.462H658.478Z" fill="#F9DBAA"/>
    <path d="M643.462 222.104C642.819 222.104 642.191 221.884 641.674 221.477C641.062 220.991 639.336 220.05 638.551 219.768C637.076 219.266 636.292 217.651 636.778 216.178C638.269 211.757 638.269 204.482 638.269 200.563V188.068C638.269 186.5 639.54 185.23 641.109 185.23H652.563C653.253 185.23 653.896 185.481 654.383 185.889C654.869 185.497 655.497 185.262 656.172 185.262H668.379C669.948 185.262 671.219 186.531 671.219 188.099V193.665C671.878 193.555 672.568 193.696 673.149 194.057C673.902 194.527 674.404 195.327 674.482 196.22C674.514 196.581 674.545 196.988 674.576 197.412C674.655 198.337 674.718 199.309 674.812 199.998C674.922 200.876 674.608 201.739 674.012 202.35C674.012 202.617 674.012 202.883 673.933 203.165C673.164 206.379 672.003 209.17 670.434 211.568C671.14 211.788 671.846 211.96 672.568 212.117C673.604 212.337 674.435 213.105 674.718 214.124C675 215.143 674.702 216.24 673.917 216.962C673.149 217.683 671.94 219.329 671.313 220.505C670.685 221.681 669.32 222.276 668.034 221.916C665.727 221.273 663.577 220.411 661.632 219.313C659.796 220.238 657.741 221.038 655.387 221.696C654.226 222.025 653.033 221.586 652.327 220.677C650.57 221.712 648.625 221.806 646.757 221.806C646.208 221.806 645.706 221.649 645.267 221.383C644.953 221.649 644.592 221.853 644.184 221.963C643.933 222.041 643.666 222.072 643.4 222.072L643.462 222.104ZM661.726 213.215C662.181 213.215 662.652 213.324 663.075 213.56C663.06 213.481 663.044 213.403 663.028 213.324C662.981 213.105 662.981 212.87 662.981 212.65C662.259 213.011 661.428 213.042 660.69 212.744C660.69 212.917 660.69 213.089 660.643 213.262C660.643 213.324 660.612 213.387 660.596 213.45C660.957 213.293 661.349 213.215 661.726 213.215ZM666.982 204.388C667.061 204.482 667.123 204.592 667.202 204.702C667.28 204.827 667.343 204.953 667.39 205.078C667.484 204.827 667.578 204.592 667.673 204.325H667.641C667.469 204.357 667.28 204.388 667.108 204.388H666.982Z" fill="#040000"/>
    <path opacity="0.17" d="M547.39 229.786C582.936 229.786 611.752 200.994 611.752 165.476C611.752 129.959 582.936 101.167 547.39 101.167C511.844 101.167 483.028 129.959 483.028 165.476C483.028 200.994 511.844 229.786 547.39 229.786Z" fill="#757575"/>
    <path opacity="0.17" d="M673.808 189.808C687.256 189.808 698.159 178.914 698.159 165.477C698.159 152.039 687.256 141.145 673.808 141.145C660.359 141.145 649.456 152.039 649.456 165.477C649.456 178.914 660.359 189.808 673.808 189.808Z" fill="#757575"/>

    <g style="mix-blend-mode:soft-light" opacity="0.2">
      <path d="M672.474 69.5299L565.544 268.572H525.832L627.584 68.0249C627.584 68.0249 670.952 68.0249 672.489 69.5456L672.474 69.5299Z" fill="white"/>
    </g>

    <path opacity="0.56" d="M688.164 235.461H649.487C647.07 235.461 645.11 237.419 645.11 239.835C645.11 242.251 647.07 244.209 649.487 244.209H688.164C690.582 244.209 692.542 242.251 692.542 239.835C692.542 237.419 690.582 235.461 688.164 235.461Z" fill="#606060"/>
    <path d="M423.687 103.723C423.687 104.35 423.483 104.82 423.059 105.134C422.636 105.432 422.055 105.588 421.302 105.588C420.878 105.588 420.502 105.557 420.204 105.51C419.906 105.463 419.67 105.4 419.466 105.322V104.303C419.623 104.397 419.859 104.475 420.172 104.554C420.502 104.632 420.816 104.663 421.129 104.663C421.569 104.663 421.867 104.601 422.04 104.491C422.212 104.381 422.291 104.177 422.291 103.911C422.291 103.738 422.228 103.582 422.118 103.44C421.992 103.299 421.663 103.127 421.098 102.907C420.659 102.735 420.314 102.5 420.063 102.218C419.812 101.935 419.702 101.559 419.702 101.073C419.702 100.587 419.906 100.227 420.298 99.913C420.69 99.5995 421.239 99.4427 421.93 99.4427C422.259 99.4427 422.573 99.474 422.84 99.5211C423.106 99.5681 423.295 99.6151 423.405 99.6622V100.571C423.185 100.509 422.95 100.462 422.73 100.43C422.51 100.383 422.259 100.368 422.008 100.368C421.647 100.368 421.396 100.43 421.224 100.54C421.067 100.65 420.988 100.791 420.988 100.963C420.988 101.167 421.051 101.34 421.161 101.449C421.286 101.559 421.632 101.716 422.212 101.935C422.746 102.124 423.138 102.374 423.358 102.672C423.593 102.97 423.703 103.331 423.703 103.738" fill="white"/>
    <path d="M425.805 99.9287C425.805 100.117 425.743 100.274 425.617 100.415C425.492 100.556 425.335 100.603 425.146 100.603C424.958 100.603 424.801 100.54 424.676 100.415C424.55 100.289 424.472 100.133 424.472 99.9287C424.472 99.7249 424.534 99.5838 424.676 99.4584C424.801 99.333 424.958 99.2703 425.146 99.2703C425.335 99.2703 425.492 99.333 425.617 99.4584C425.743 99.5838 425.805 99.7406 425.805 99.9287ZM425.774 105.51H424.503V100.948H425.774V105.51Z" fill="white"/>
    <path d="M430.905 105.51H429.634V102.312C429.634 102.186 429.587 102.077 429.477 101.982C429.383 101.873 429.226 101.826 429.038 101.826C428.849 101.826 428.692 101.857 428.551 101.935C428.41 102.014 428.3 102.108 428.19 102.233V105.51H426.919V100.948H428.143L428.175 101.685C428.269 101.465 428.441 101.277 428.708 101.105C428.975 100.932 429.289 100.854 429.665 100.854C430.042 100.854 430.34 100.979 430.56 101.214C430.779 101.449 430.889 101.826 430.889 102.312V105.51H430.905Z" fill="white"/>
    <path d="M436.491 103.362C436.491 104.068 436.287 104.616 435.879 105.008C435.471 105.4 434.922 105.604 434.2 105.604C433.478 105.604 432.945 105.4 432.521 104.993C432.113 104.585 431.894 104.036 431.894 103.362V103.08C431.894 102.406 432.098 101.873 432.505 101.449C432.913 101.042 433.478 100.838 434.184 100.838C434.89 100.838 435.455 101.042 435.863 101.465C436.271 101.873 436.475 102.421 436.475 103.08V103.362H436.491ZM435.173 103.252V103.19C435.173 102.578 435.079 102.155 434.89 101.935C434.702 101.716 434.467 101.606 434.184 101.606C433.902 101.606 433.667 101.732 433.478 101.967C433.29 102.202 433.212 102.625 433.212 103.205V103.268C433.212 103.911 433.306 104.334 433.478 104.554C433.651 104.773 433.886 104.867 434.184 104.867C434.451 104.867 434.686 104.757 434.875 104.554C435.063 104.35 435.157 103.926 435.157 103.268" fill="white"/>
    <path d="M441.449 101.543C441.449 102.045 441.292 102.437 440.978 102.688C440.664 102.939 440.225 103.08 439.644 103.08H438.828V105.51H437.479V99.5211H439.723C440.366 99.5211 440.805 99.6778 441.072 99.9914C441.323 100.305 441.449 100.666 441.449 101.073V101.543ZM440.068 101.638V101.057C440.068 100.838 440.005 100.666 439.88 100.556C439.754 100.446 439.55 100.399 439.252 100.399H438.828V102.265H439.315C439.519 102.265 439.707 102.218 439.848 102.108C439.989 101.998 440.068 101.841 440.068 101.638Z" fill="white"/>
    <path d="M445.983 105.51H444.791L444.759 104.914C444.665 105.102 444.493 105.259 444.273 105.384C444.038 105.51 443.771 105.573 443.473 105.573C442.971 105.573 442.578 105.447 442.327 105.196C442.061 104.945 441.935 104.554 441.935 104.036V103.958C441.935 103.44 442.108 103.049 442.453 102.782C442.798 102.5 443.269 102.374 443.849 102.374C444.022 102.374 444.194 102.406 444.367 102.453C444.54 102.5 444.665 102.563 444.744 102.641V102.186C444.744 102.029 444.665 101.904 444.524 101.794C444.383 101.685 444.179 101.638 443.912 101.638C443.63 101.638 443.379 101.669 443.159 101.732C442.939 101.794 442.751 101.873 442.594 101.967V101.183C442.798 101.104 443.033 101.026 443.3 100.963C443.551 100.901 443.865 100.869 444.242 100.869C444.838 100.869 445.261 100.995 445.544 101.261C445.826 101.528 445.967 101.951 445.967 102.531V105.51H445.983ZM444.759 103.973V103.848C444.759 103.566 444.697 103.362 444.571 103.221C444.446 103.08 444.257 103.001 443.99 103.001C443.755 103.001 443.567 103.064 443.426 103.205C443.284 103.346 443.222 103.55 443.222 103.848V103.973C443.222 104.287 443.3 104.491 443.441 104.585C443.583 104.695 443.771 104.742 444.006 104.742C444.194 104.742 444.383 104.679 444.54 104.554C444.697 104.428 444.775 104.224 444.775 103.958" fill="white"/>
    <path d="M450.565 105.259C450.565 105.259 450.361 105.369 450.11 105.463C449.858 105.557 449.607 105.604 449.325 105.604C448.588 105.604 448.007 105.416 447.568 105.024C447.128 104.648 446.909 104.068 446.909 103.299V103.111C446.909 102.421 447.128 101.857 447.552 101.449C447.976 101.026 448.556 100.822 449.294 100.822C449.576 100.822 449.843 100.854 450.078 100.932C450.314 101.01 450.47 101.089 450.565 101.167V101.967C450.455 101.857 450.298 101.779 450.11 101.7C449.921 101.638 449.717 101.591 449.498 101.591C449.105 101.591 448.823 101.732 448.603 101.998C448.399 102.28 448.289 102.657 448.289 103.127V103.205C448.289 103.738 448.368 104.13 448.541 104.35C448.713 104.569 448.98 104.695 449.341 104.695C449.592 104.695 449.827 104.663 450.062 104.585C450.298 104.507 450.455 104.428 450.549 104.35V105.228L450.565 105.259Z" fill="white"/>
    <path d="M457.531 103.723C457.531 104.35 457.327 104.82 456.904 105.134C456.48 105.447 455.9 105.588 455.131 105.588C454.707 105.588 454.33 105.557 454.032 105.51C453.734 105.463 453.499 105.4 453.295 105.322V104.303C453.452 104.397 453.687 104.475 454.001 104.554C454.331 104.632 454.644 104.663 454.958 104.663C455.397 104.663 455.696 104.601 455.868 104.491C456.041 104.381 456.119 104.177 456.119 103.911C456.119 103.738 456.056 103.582 455.947 103.44C455.821 103.299 455.492 103.127 454.927 102.907C454.487 102.735 454.142 102.5 453.891 102.218C453.64 101.935 453.53 101.559 453.53 101.073C453.53 100.587 453.734 100.227 454.127 99.913C454.519 99.5995 455.068 99.4427 455.758 99.4427C456.088 99.4427 456.402 99.474 456.668 99.5211C456.935 99.5681 457.123 99.6151 457.233 99.6622V100.571C456.998 100.509 456.778 100.462 456.559 100.43C456.339 100.383 456.088 100.368 455.837 100.368C455.476 100.368 455.225 100.43 455.052 100.54C454.895 100.65 454.817 100.791 454.817 100.963C454.817 101.167 454.88 101.34 454.99 101.449C455.115 101.559 455.46 101.716 456.041 101.935C456.574 102.124 456.966 102.374 457.186 102.672C457.422 102.97 457.531 103.331 457.531 103.738" fill="white"/>
    <path d="M462.568 103.472H459.461C459.461 103.973 459.571 104.334 459.807 104.522C460.042 104.726 460.34 104.82 460.701 104.82C460.952 104.82 461.187 104.789 461.454 104.726C461.705 104.663 461.972 104.569 462.239 104.444V105.212C462.003 105.337 461.752 105.432 461.47 105.51C461.187 105.573 460.858 105.604 460.497 105.604C459.791 105.604 459.226 105.416 458.818 105.04C458.394 104.663 458.19 104.115 458.19 103.393V103.064C458.19 102.437 458.379 101.904 458.771 101.465C459.148 101.026 459.712 100.807 460.434 100.807C461.156 100.807 461.658 101.01 462.019 101.418C462.38 101.826 462.568 102.359 462.568 103.017V103.44V103.472ZM461.391 102.813C461.36 102.359 461.266 102.045 461.093 101.841C460.921 101.653 460.701 101.543 460.418 101.543C460.183 101.543 459.963 101.638 459.775 101.826C459.587 102.014 459.477 102.343 459.461 102.798H461.376L461.391 102.813Z" fill="white"/>
    <path d="M467.008 105.259C467.008 105.259 466.804 105.369 466.553 105.463C466.302 105.557 466.051 105.604 465.769 105.604C465.031 105.604 464.451 105.416 464.012 105.024C463.572 104.648 463.353 104.068 463.353 103.299V103.111C463.353 102.421 463.572 101.857 463.996 101.449C464.419 101.026 465 100.822 465.737 100.822C466.02 100.822 466.287 100.854 466.522 100.932C466.757 101.01 466.914 101.089 467.008 101.167V101.967C466.899 101.857 466.742 101.779 466.553 101.7C466.365 101.638 466.161 101.591 465.941 101.591C465.549 101.591 465.267 101.732 465.047 101.998C464.843 102.28 464.733 102.657 464.733 103.127V103.205C464.733 103.738 464.812 104.13 464.984 104.35C465.157 104.569 465.424 104.695 465.785 104.695C466.036 104.695 466.271 104.663 466.506 104.585C466.742 104.507 466.899 104.428 466.993 104.35V105.228L467.008 105.259Z" fill="white"/>
    <path d="M471.966 105.51H470.758L470.727 104.804C470.586 105.008 470.382 105.196 470.115 105.353C469.848 105.526 469.534 105.604 469.158 105.604C468.797 105.604 468.514 105.494 468.31 105.29C468.106 105.071 467.997 104.695 467.997 104.146V100.948H469.267V104.02C469.267 104.256 469.315 104.412 469.424 104.507C469.519 104.585 469.644 104.632 469.801 104.632C469.989 104.632 470.162 104.601 470.319 104.538C470.476 104.475 470.601 104.365 470.711 104.224V100.963H471.982V105.526L471.966 105.51Z" fill="white"/>
    <path d="M476.564 102.327H475.387C475.387 102.202 475.356 102.092 475.309 101.998C475.262 101.904 475.152 101.857 474.995 101.857C474.838 101.857 474.713 101.904 474.618 101.982C474.509 102.061 474.446 102.155 474.414 102.249V105.51H473.144V100.948H474.367V101.669C474.509 101.402 474.666 101.214 474.854 101.073C475.042 100.932 475.262 100.869 475.529 100.869C475.905 100.869 476.203 100.995 476.391 101.246C476.58 101.496 476.643 101.857 476.58 102.343" fill="white"/>
    <path d="M478.478 99.9287C478.478 100.117 478.415 100.274 478.289 100.415C478.164 100.54 478.007 100.603 477.819 100.603C477.63 100.603 477.474 100.54 477.348 100.415C477.223 100.289 477.144 100.133 477.144 99.9287C477.144 99.7249 477.207 99.5838 477.348 99.4584C477.474 99.333 477.63 99.2703 477.819 99.2703C478.007 99.2703 478.164 99.333 478.289 99.4584C478.415 99.5838 478.478 99.7406 478.478 99.9287ZM478.446 105.51H477.175V100.948H478.446V105.51Z" fill="white"/>
    <path d="M482.165 101.732H480.957V104.068C480.957 104.303 481.004 104.475 481.083 104.585C481.161 104.695 481.318 104.757 481.538 104.757C481.648 104.757 481.757 104.757 481.852 104.726C481.946 104.71 482.04 104.695 482.134 104.663V105.369C481.993 105.431 481.836 105.463 481.632 105.494C481.428 105.526 481.24 105.541 481.051 105.541C480.628 105.541 480.298 105.4 480.063 105.134C479.812 104.867 479.702 104.475 479.702 103.973V101.716H479.153V101.073L479.749 101.042L480.173 99.5211H480.973V101.026H482.181V101.716L482.165 101.732Z" fill="white"/>
    <path d="M484.268 99.9287C484.268 100.117 484.205 100.274 484.079 100.415C483.954 100.54 483.797 100.603 483.609 100.603C483.42 100.603 483.264 100.54 483.138 100.415C483.013 100.289 482.934 100.133 482.934 99.9287C482.934 99.7249 482.997 99.5838 483.138 99.4584C483.264 99.333 483.42 99.2703 483.609 99.2703C483.797 99.2703 483.954 99.333 484.079 99.4584C484.205 99.5838 484.268 99.7406 484.268 99.9287ZM484.236 105.51H482.965V100.948H484.236V105.51Z" fill="white"/>
    <path d="M489.603 103.472H486.496C486.496 103.973 486.606 104.334 486.841 104.522C487.077 104.726 487.375 104.82 487.736 104.82C487.971 104.82 488.222 104.789 488.489 104.726C488.74 104.663 489.006 104.569 489.273 104.444V105.212C489.038 105.337 488.787 105.432 488.504 105.51C488.222 105.573 487.892 105.604 487.532 105.604C486.826 105.604 486.261 105.416 485.853 105.04C485.429 104.663 485.225 104.115 485.225 103.393V103.064C485.225 102.437 485.413 101.904 485.806 101.465C486.182 101.026 486.747 100.807 487.469 100.807C488.191 100.807 488.693 101.01 489.054 101.418C489.414 101.826 489.603 102.359 489.603 103.017V103.44V103.472ZM488.426 102.813C488.395 102.359 488.3 102.045 488.128 101.841C487.955 101.653 487.736 101.543 487.453 101.543C487.218 101.543 486.998 101.638 486.81 101.826C486.622 102.014 486.512 102.343 486.496 102.798H488.41L488.426 102.813Z" fill="white"/>
    <path d="M493.462 104.115C493.462 104.538 493.305 104.898 493.007 105.181C492.693 105.463 492.191 105.604 491.485 105.604C491.187 105.604 490.92 105.573 490.685 105.526C490.449 105.479 490.277 105.416 490.167 105.337V104.538C490.293 104.616 490.465 104.679 490.7 104.757C490.92 104.836 491.155 104.867 491.407 104.867C491.705 104.867 491.94 104.82 492.113 104.71C492.27 104.601 492.364 104.475 492.364 104.318C492.364 104.162 492.317 104.036 492.207 103.942C492.097 103.848 491.815 103.723 491.375 103.597C490.952 103.472 490.669 103.299 490.528 103.064C490.371 102.829 490.308 102.547 490.308 102.186C490.308 101.826 490.449 101.512 490.716 101.261C490.983 101.01 491.407 100.885 491.987 100.885C492.254 100.885 492.489 100.901 492.677 100.948C492.866 100.995 493.038 101.042 493.195 101.12V101.857C493.07 101.794 492.913 101.732 492.693 101.685C492.474 101.638 492.269 101.622 492.066 101.622C491.83 101.622 491.642 101.669 491.501 101.747C491.359 101.826 491.281 101.935 491.281 102.077C491.281 102.233 491.344 102.343 491.454 102.406C491.563 102.468 491.815 102.563 492.207 102.672C492.693 102.813 493.038 103.001 493.227 103.237C493.415 103.472 493.509 103.77 493.509 104.146" fill="white"/>
    <path d="M446.642 88.7663L446.093 87.8099C448.776 86.9006 450.534 85.8973 451.334 84.7685L452.291 84.9723L452.15 85.1761C453.531 86.3206 455.147 87.2142 456.998 87.8099L456.418 88.7506C454.597 87.9981 452.981 87.0417 451.585 85.8816C450.643 86.8223 448.996 87.7786 446.642 88.7663ZM451.067 91.4785H446.501V90.4751H451.067V89.0955H448.384V88.0921H454.77V89.0955H452.056V90.4751H456.606V91.4785H452.056V94.3788H456.7V95.3822H446.407V94.3788H451.067V91.4785ZM448.18 91.6039C448.619 92.1683 449.043 92.8895 449.467 93.7988L448.572 94.2848C448.133 93.3598 447.709 92.6386 447.333 92.1369L448.196 91.6039H448.18ZM455.68 92.1683C455.178 92.9992 454.692 93.7204 454.284 94.2691L453.515 93.6577C454.001 92.9992 454.472 92.2937 454.864 91.5882L455.68 92.1683Z" fill="white"/>
    <path d="M463.274 87.6061H459.775V86.6968H463.274V87.6061ZM460.826 95.2568H459.869V91.7607C459.869 91.5725 459.979 91.4628 460.167 91.4628H462.803C463.023 91.4628 463.117 91.5725 463.117 91.7607V94.614C463.117 94.8335 463.007 94.9432 462.787 94.9432H460.81V95.2568H460.826ZM462.913 85.9913H460.057V85.082H462.913V85.9913ZM462.96 89.2523H460.057V88.343H462.96V89.2523ZM462.96 90.8514H460.057V89.9421H462.96V90.8514ZM460.983 92.3721C460.873 92.3721 460.826 92.4191 460.826 92.5289V94.0496H461.972C462.097 94.0496 462.176 93.9869 462.176 93.8458V92.5289C462.176 92.4191 462.113 92.3721 462.019 92.3721H460.983ZM465 88.5311C464.655 88.7819 464.278 89.0171 463.886 89.2052L463.321 88.437L464.608 87.7315L463.556 86.8693L464.168 86.2108L465.267 87.1671C465.706 86.7438 466.098 86.3049 466.381 85.8659H464.341V85.0036H467.071C467.196 85.0036 467.306 85.0507 467.385 85.1604L467.808 85.7875C468.154 85.3956 468.452 85.035 468.64 84.7371L469.315 85.2702C469.064 85.6464 468.75 86.0384 468.342 86.4773L468.687 86.8693C469.126 86.3676 469.456 85.96 469.691 85.5994L470.382 86.1324C470.115 86.54 469.754 86.9947 469.315 87.4807C469.691 87.7786 470.131 88.0921 470.648 88.3743L469.974 89.0798L469.205 88.5468V89.1425H465.031V88.4684L464.968 88.5154L465 88.5311ZM470.539 94.4886V95.3979H463.87V94.4886H465.627L465.219 92.8267H464.451C464.294 92.8267 464.2 92.7483 464.2 92.5759V90.0048C464.2 89.848 464.278 89.7539 464.451 89.7539H469.77C469.942 89.7539 470.021 89.8323 470.021 90.0048V92.5759C470.021 92.7483 469.942 92.8267 469.77 92.8267H469.095L468.891 93.642L468.656 94.4886H470.539ZM465.157 90.6632L465.125 90.6946V91.8704L465.157 91.9174H469.079C469.079 91.9174 469.111 91.9174 469.111 91.8704V90.6946L469.079 90.6632H465.157ZM468.891 88.2489C468.31 87.7629 467.746 87.1044 467.181 86.3049C466.741 86.932 466.13 87.5904 465.361 88.2489H468.891ZM468.122 92.8267H466.192L466.585 94.4886H467.683L468.028 93.3127L468.138 92.8267H468.122Z" fill="white"/>
    <path d="M475.921 92.1056V91.4472C475.435 91.9175 474.87 92.3565 474.226 92.7327L473.458 91.9959C474.399 91.4158 475.262 90.7417 476.046 90.0048H473.662V89.0485H476.847C477.145 88.6409 477.396 88.2176 477.584 87.81V87.7786H474.069V86.8223H477.961C478.118 86.1795 478.259 85.4113 478.353 84.5961L479.404 84.7058C479.341 85.2388 479.169 85.9757 478.949 86.8223H480.424C480.958 85.9914 481.381 85.2545 481.617 84.6745L482.511 85.1448C482.307 85.6621 481.993 86.2109 481.617 86.8223H483.797V87.7786H480.393C480.628 88.2489 480.879 88.6566 481.114 89.0328H484.221V89.9891H481.868C482.479 90.6476 483.342 91.2904 484.394 91.9332L483.578 92.7014C483.154 92.4192 482.762 92.1213 482.385 91.8234L482.354 93.6734C482.323 94.2534 482.197 94.6767 481.993 94.9433C481.82 95.1784 481.554 95.3352 481.24 95.4449C480.691 95.6174 479.875 95.5547 478.839 95.2725V94.0967C479.263 94.2691 479.624 94.3945 479.938 94.4416C480.44 94.52 480.863 94.4416 481.162 94.1907C481.287 94.0496 481.365 93.8301 481.397 93.5166C481.444 92.7327 481.444 92.2781 481.397 92.1683C481.381 92.1056 481.334 92.0899 481.271 92.0899H479.043C478.933 92.4348 478.777 92.7641 478.573 93.0933L478.337 93.4382C477.506 94.5043 476.078 95.1784 474.085 95.4293L473.834 94.3789L475.089 94.1751C476.533 93.8615 477.49 93.156 477.961 92.0743H475.937L475.921 92.1056ZM475.937 84.6274C476.282 85.0037 476.643 85.521 477.019 86.1481L476.172 86.6812C475.78 86.0384 475.435 85.5367 475.121 85.2232L475.937 84.6274ZM481.679 91.165L480.644 90.0205H477.286C477.035 90.3184 476.69 90.7103 476.235 91.165H481.679ZM479.357 87.81H478.651L477.976 89.0642H480L479.341 87.81H479.357Z" fill="white"/>
    <path d="M413.944 91.2433C413.944 95.7898 410.256 99.474 405.722 99.474C401.187 99.474 397.484 95.7898 397.484 91.2433C397.484 86.6968 401.172 83.0283 405.722 83.0283C410.272 83.0283 413.944 86.7125 413.944 91.2433Z" fill="#CF3339"/>
    <path d="M408.687 85.9913H406.632V88.0451H408.687V85.9913Z" fill="white"/>
    <path d="M399.32 91.7136V93.5322H401.156V95.3665H402.976V91.7136H399.32Z" fill="white"/>
    <path d="M399.775 88.0451V89.8794H404.812V95.3665H406.632V88.0451H399.775Z" fill="white"/>
    <path d="M408.467 89.8794V95.3665H410.287V91.7137H412.578V89.8794H408.467Z" fill="white"/>
    <path d="M435.408 93.7203H433.823C433.744 93.7203 433.713 93.6733 433.713 93.5949V91.7606C433.713 91.6823 433.744 91.6509 433.823 91.6509H442.264C442.343 91.6509 442.39 91.6823 442.39 91.7606V93.5949C442.39 93.6733 442.343 93.7203 442.264 93.7203H440.774L440.46 94.4885H443.347V95.3822H432.725V94.4885H435.721L435.392 93.7203H435.408ZM443.206 91.2903H432.866V90.4908H443.206V91.2903ZM438.922 88.6565V87.9353H439.942V87.3709H438.922V86.6654H439.942V86.054H438.875V85.3329H439.942V84.7214H440.742V85.3329H441.747V86.054H440.742V86.6654H441.7V87.3709H440.742V87.9353H441.747V88.6565H440.742V89.2052H442.013C442.123 89.2052 442.17 89.1739 442.17 89.0641V84.8782H443.065V89.6285C443.065 89.8793 442.939 90.0204 442.672 90.0204H433.415C433.164 90.0204 433.038 89.8793 433.038 89.6285V84.8782H433.933V89.0641C433.933 89.1739 433.98 89.2052 434.074 89.2052H435.314V88.6565H434.294V87.9353H435.314V87.3239H434.341V86.6184H435.314V86.054H434.294V85.3329H435.314V84.7214H436.129V85.3329H437.039V86.054H436.129V86.6184H437.039V87.3239H436.129V87.9353H437.087V88.6565H436.129V89.2052H437.557V84.7371H438.452V89.2052H439.958V88.6565H438.938H438.922ZM434.654 92.4034C434.654 92.4034 434.607 92.4034 434.623 92.4348V92.9051L434.654 92.9521H441.448L441.48 92.9051V92.4348L441.448 92.4034H434.654ZM439.503 94.4729L439.785 93.8614L439.848 93.7047H436.396L436.694 94.4729H439.519H439.503Z" fill="white"/>
    <path d="M423.483 89.1896L423.781 89.5815C423.53 91.4158 422.197 93.109 419.812 94.6297L419.043 93.7675C419.937 93.3285 420.628 92.8738 421.114 92.4505C421.506 92.1056 421.883 91.6823 422.244 91.165C422.495 90.773 422.636 90.5222 422.667 90.3654C422.699 90.3027 422.699 90.287 422.667 90.2557C422.62 90.2243 422.542 90.193 422.416 90.193H419.451V89.1896H423.483ZM425.46 94.2221C425.46 94.6767 425.303 95.0373 424.974 95.3038C424.754 95.5077 424.346 95.6174 423.781 95.6017C423.154 95.6017 422.542 95.492 421.93 95.3352L421.867 94.2378C423.091 94.614 423.844 94.7081 424.111 94.5513C424.315 94.3946 424.409 94.1751 424.409 93.8772V88.2019C424.409 88.0922 424.346 88.0451 424.236 88.0451H419.749V87.0418H425.131C425.351 87.0418 425.476 87.1672 425.46 87.3867V87.8413C425.947 89.315 426.496 90.4595 427.045 91.2747C427.72 92.2467 428.724 93.2344 430.042 94.2378L429.148 94.9119C427.579 93.6264 426.339 92.137 425.46 90.4752V94.2221ZM421.208 84.8626L424.127 85.1605C425.492 85.3173 426.684 85.4897 427.735 85.7249L427.516 86.7282C425.539 86.2893 423.374 85.9757 421.051 85.866L421.193 84.8469L421.208 84.8626ZM429.979 87.6062C429.399 88.3273 428.583 89.1112 427.563 89.9108L426.888 89.1739C427.955 88.3117 428.74 87.5435 429.257 86.9007L429.979 87.6062Z" fill="white"/>
    <path d="M485.742 242.782C485.742 244.225 484.895 244.962 483.216 244.962C482.84 244.962 482.463 244.946 482.055 244.899L481.208 242.641C481.522 242.657 482.181 242.673 483.185 242.673C483.42 242.673 483.546 242.547 483.546 242.328V236.119C482.761 237.107 482.055 237.938 481.427 238.597L480.659 237.295C480.392 240.901 479.843 243.488 479.011 245.056L477.144 243.613C478.038 241.622 478.493 238.785 478.493 235.1V222.919H485.727V242.814L485.742 242.782ZM483.546 230.35V225.13H480.69V228.046L481.992 227.089C482.667 228.281 483.185 229.378 483.546 230.35ZM483.546 232.467V230.993L482.024 232.137C481.804 231.15 481.349 230.037 480.69 228.782V235.994C481.757 234.881 482.714 233.705 483.546 232.467ZM499.926 243.065L498.781 245.024C496.647 244.491 494.654 243.535 492.803 242.155C491.312 243.268 489.477 244.209 487.296 245.024L486.04 243.065C487.892 242.516 489.555 241.732 491.03 240.697C489.759 239.349 488.724 237.546 487.892 235.257H486.762V233.094H498.201V235.257C497.118 237.53 495.91 239.318 494.607 240.588C496.067 241.638 497.855 242.453 499.942 243.065H499.926ZM499.675 231.698H496.02C495.517 231.698 495.11 231.526 494.796 231.165C494.482 230.805 494.325 230.397 494.325 229.927V225.271H490.748V226.431C490.748 229.002 489.916 231.009 488.253 232.451L486.37 230.977C487.766 229.943 488.457 228.39 488.457 226.352V223.091H496.569V229.19C496.569 229.472 496.71 229.598 496.977 229.598H499.675V231.714V231.698ZM495.596 235.257H490.324C491.03 236.982 491.893 238.283 492.913 239.208C494.074 237.922 494.968 236.605 495.596 235.257Z" fill="#FADFA2"/>
    <path d="M515.209 240.164C513.546 241.905 511.161 243.457 508.038 244.805L506.783 242.955C509.811 241.622 511.992 240.243 513.342 238.832L515.209 240.149V240.164ZM529.268 224.847H522.144V226.274H527.997V231.73H508.195V226.274H514.064V224.847H506.846V222.856H529.283V224.847H529.268ZM529.315 238.299H519.288V244.993H516.951V238.299H506.846V236.308H529.299V238.299H529.315ZM527.589 234.959H508.635V233.031H527.589V234.959ZM514.048 229.864V228.124H510.439V229.864H514.048ZM519.9 226.274V224.847H516.292V226.274H519.9ZM519.9 229.864V228.124H516.292V229.864H519.9ZM529.519 243.19L528.028 244.915C525.816 243.284 523.478 241.81 520.967 240.462L522.474 238.863C524.921 240.039 527.275 241.481 529.519 243.19ZM525.721 229.864V228.124H522.128V229.864H525.721Z" fill="#FADFA2"/>
    <path d="M544.425 236.606L542.871 238.33C542.495 237.515 541.977 236.621 541.302 235.649V244.962H539.09V236.856L537.348 238.455L536.171 236.37C538.352 234.85 539.984 232.42 541.035 229.096H536.689V226.917H543.326V229.096C543.185 229.864 542.683 231.181 541.836 233.062C542.965 234.301 543.828 235.477 544.44 236.621L544.425 236.606ZM541.898 225.38L539.968 226.384C538.98 224.894 538.195 223.844 537.584 223.217L539.576 222.167C540.706 223.452 541.475 224.518 541.883 225.38H541.898ZM558.875 244.507H543.734V242.594H547.939C547.845 242.061 547.641 241.45 547.312 240.744H545.664V236.088H557.353V240.744H555.784C555.549 241.387 555.314 241.999 555.063 242.594H558.875V244.507ZM558.656 235.006H544.283V233.141H558.656V235.006ZM558.389 232.137H544.581V224.361H548.551V222.511H550.559V224.361H552.38V222.511H554.435V224.361H558.373V232.137H558.389ZM548.551 227.403V226.18H546.715V227.403H548.551ZM548.551 230.334V229.033H546.715V230.334H548.551ZM555.125 238.926V237.844H547.892V238.926H555.125ZM553.368 240.76H549.555C549.744 241.246 549.948 241.873 550.167 242.61H552.662C552.929 241.999 553.164 241.387 553.368 240.76ZM552.395 227.403V226.18H550.575V227.403H552.395ZM552.395 230.35V229.018H550.575V230.35H552.395ZM556.255 227.403V226.18H554.451V227.403H556.255ZM556.255 230.35V229.018H554.451V230.35H556.255Z" fill="#FADFA2"/>
    <path d="M576.182 244.883H573.891V243.582H569.121V244.883H566.877V233.313H576.166V244.883H576.182ZM573.891 241.497V235.445H569.121V241.497H573.891ZM585.235 231.056H569.419V222.919H585.235V231.056ZM582.913 229.018V225.02H571.757V229.018H582.913ZM587.699 244.883H585.455V243.582H580.638V244.883H578.378V233.313H587.714V244.883H587.699ZM585.455 241.528V235.461H580.638V241.528H585.455Z" fill="#FADFA2"/>
    <path d="M618.17 233.423H606.668V235.32C610.622 236.339 613.996 237.625 616.82 239.161L615.816 241.246C613.243 239.804 610.199 238.55 606.668 237.483V244.883H604.236V233.407H595.654V231.197H604.252V222.527H606.653V225.412H616.632V227.654H606.653V231.212H618.154V233.423H618.17Z" fill="#FADFA2"/>
    <path d="M413.19 185.293L406.93 186.281C406.616 185.481 406.334 184.932 406.083 184.619C405.832 184.305 405.408 183.992 404.827 183.678V188.538C408.232 189.448 410.523 190.404 411.668 191.423C413.19 192.787 413.943 194.511 413.943 196.596C413.943 197.819 413.677 198.948 413.128 199.967C412.578 200.986 411.888 201.848 411.041 202.523C410.193 203.212 409.299 203.698 408.342 204.012C407.385 204.326 406.224 204.498 404.843 204.561V207.743H402.38V204.561C400.732 204.42 399.398 204.153 398.363 203.761C397.343 203.369 396.449 202.836 395.696 202.162C394.942 201.472 394.378 200.735 393.97 199.951C393.562 199.168 393.264 198.211 393.06 197.082L399.869 196.299C400.073 197.412 400.34 198.211 400.685 198.697C401.03 199.183 401.595 199.622 402.38 200.014V194.072C400.12 193.445 398.504 192.897 397.563 192.442C396.621 191.987 395.79 191.25 395.099 190.231C394.409 189.212 394.064 187.974 394.064 186.516C394.064 184.525 394.77 182.847 396.166 181.515C397.563 180.166 399.65 179.43 402.411 179.288V177.627H404.874V179.288C407.385 179.445 409.315 180.041 410.648 181.076C411.982 182.11 412.845 183.521 413.253 185.309L413.19 185.293ZM402.364 183.615C401.642 183.851 401.14 184.149 400.873 184.493C400.591 184.838 400.45 185.262 400.45 185.732C400.45 186.234 400.591 186.657 400.873 187.033C401.156 187.409 401.658 187.707 402.364 187.958V183.631V183.615ZM404.812 200.187C405.769 199.967 406.459 199.622 406.914 199.136C407.354 198.65 407.573 198.102 407.573 197.49C407.573 196.957 407.385 196.471 407.008 196.032C406.632 195.593 405.894 195.17 404.812 194.794V200.187Z" fill="url(#paint6_linear_11_1400)"/>
    <path d="M455.272 120.905V207.21H431.407V150.661C427.547 153.593 423.813 155.96 420.204 157.779C416.595 159.597 412.061 161.322 406.616 162.984V143.653C414.65 141.067 420.879 137.962 425.335 134.341C429.775 130.719 433.258 126.236 435.769 120.905H455.288H455.272Z" fill="url(#paint7_linear_11_1400)"/>
    <path d="M480.926 164.426C480.926 148.294 483.828 137.006 489.65 130.563C495.455 124.119 504.32 120.89 516.213 120.89C521.925 120.89 526.616 121.595 530.288 123.006C533.959 124.417 536.956 126.251 539.263 128.509C541.585 130.766 543.405 133.134 544.739 135.626C546.072 138.119 547.139 141.019 547.955 144.343C549.54 150.677 550.324 157.277 550.324 164.144C550.324 179.539 547.72 190.811 542.511 197.945C537.301 205.078 528.311 208.652 515.57 208.652C508.431 208.652 502.657 207.508 498.248 205.235C493.839 202.961 490.23 199.622 487.422 195.217C485.382 192.097 483.781 187.817 482.636 182.393C481.491 176.968 480.926 170.979 480.926 164.426ZM504.336 164.489C504.336 175.291 505.293 182.675 507.207 186.625C509.121 190.576 511.883 192.552 515.523 192.552C517.924 192.552 519.995 191.705 521.752 190.027C523.509 188.35 524.796 185.7 525.628 182.063C526.459 178.442 526.867 172.782 526.867 165.1C526.867 153.828 525.91 146.256 523.996 142.383C522.082 138.511 519.21 136.567 515.398 136.567C511.585 136.567 508.682 138.542 506.94 142.493C505.199 146.444 504.336 153.765 504.336 164.457V164.489Z" fill="url(#paint8_linear_11_1400)"/>
    <path d="M560.052 164.426C560.052 148.294 562.955 137.006 568.776 130.563C574.582 124.119 583.447 120.89 595.34 120.89C601.051 120.89 605.743 121.595 609.414 123.006C613.086 124.417 616.083 126.251 618.389 128.509C620.711 130.766 622.531 133.134 623.865 135.626C625.199 138.119 626.266 141.019 627.082 144.343C628.666 150.677 629.451 157.277 629.451 164.144C629.451 179.539 626.846 190.811 621.637 197.945C616.428 205.078 607.437 208.652 594.697 208.652C587.557 208.652 581.783 207.508 577.374 205.235C572.965 202.961 569.357 199.622 566.548 195.217C564.508 192.097 562.908 187.817 561.762 182.393C560.617 176.968 560.052 170.979 560.052 164.426ZM583.462 164.489C583.462 175.291 584.419 182.675 586.334 186.625C588.248 190.576 591.009 192.552 594.65 192.552C597.05 192.552 599.121 191.705 600.879 190.027C602.636 188.35 603.923 185.7 604.754 182.063C605.586 178.442 605.994 172.782 605.994 165.1C605.994 153.828 605.037 146.256 603.122 142.383C601.208 138.511 598.337 136.567 594.524 136.567C590.711 136.567 587.809 138.542 586.067 142.493C584.325 146.444 583.462 153.765 583.462 164.457V164.489Z" fill="url(#paint9_linear_11_1400)"/>
    <path d="M639.194 164.426C639.194 148.294 642.097 137.006 647.918 130.563C653.724 124.119 662.589 120.89 674.482 120.89C680.193 120.89 684.885 121.595 688.556 123.006C692.228 124.417 695.225 126.251 697.531 128.509C699.853 130.766 701.673 133.134 703.007 135.626C704.341 138.119 705.408 141.019 706.224 144.343C707.808 150.677 708.593 157.277 708.593 164.144C708.593 179.539 705.988 190.811 700.779 197.945C695.57 205.078 686.579 208.652 673.839 208.652C666.7 208.652 660.926 207.508 656.517 205.235C652.108 202.961 648.499 199.622 645.69 195.217C643.635 192.097 642.05 187.817 640.905 182.393C639.759 176.968 639.194 170.979 639.194 164.426ZM662.589 164.489C662.589 175.291 663.546 182.675 665.46 186.625C667.374 190.576 670.136 192.552 673.776 192.552C676.177 192.552 678.248 191.705 680.005 190.027C681.762 188.35 683.049 185.7 683.88 182.063C684.712 178.442 685.12 172.782 685.12 165.1C685.12 153.828 684.163 146.256 682.249 142.383C680.335 138.511 677.463 136.567 673.65 136.567C669.838 136.567 666.935 138.542 665.193 142.493C663.452 146.444 662.589 153.765 662.589 164.457V164.489Z" fill="url(#paint10_linear_11_1400)"/>
    <path d="M370.999 93.0933C376.016 93.0933 380.084 89.0292 380.084 84.016C380.084 79.0027 376.016 74.9387 370.999 74.9387C365.981 74.9387 361.914 79.0027 361.914 84.016C361.914 89.0292 365.981 93.0933 370.999 93.0933Z" fill="#040000"/>
    <path d="M370.999 250.95C376.016 250.95 380.084 246.886 380.084 241.873C380.084 236.86 376.016 232.796 370.999 232.796C365.981 232.796 361.914 236.86 361.914 241.873C361.914 246.886 365.981 250.95 370.999 250.95Z" fill="#040000"/>
  </g>
  </g>














<defs>
<linearGradient id="paint0_linear_11_1400" x1="15.2041" y1="109.084" x2="390.675" y2="109.084" gradientUnits="userSpaceOnUse">
<stop stop-color="#393A3A"/>
<stop offset="0.25" stop-color="#353535"/>
<stop offset="0.53" stop-color="#282828"/>
<stop offset="0.81" stop-color="#121212"/>
<stop offset="1" stop-color="#040000"/>
</linearGradient>
<linearGradient id="paint1_linear_11_1400" x1="-27.8505" y1="50.7639" x2="475.605" y2="431.184" gradientUnits="userSpaceOnUse">
<stop stop-color="#DDA858"/>
<stop offset="0.2" stop-color="#F9F5C5"/>
<stop offset="0.31" stop-color="#F1E8B6"/>
<stop offset="0.44" stop-color="#DCC78E"/>
<stop offset="0.57" stop-color="#DBB578"/>
<stop offset="0.71" stop-color="#E2BF86"/>
<stop offset="0.88" stop-color="#F9F5C5"/>
</linearGradient>
<linearGradient id="paint2_linear_11_1400" x1="143.818" y1="7.80745" x2="143.818" y2="326.877" gradientUnits="userSpaceOnUse">
<stop stop-color="#DDA858"/>
<stop offset="0.2" stop-color="#F9F5C5"/>
<stop offset="0.31" stop-color="#F1E8B6"/>
<stop offset="0.44" stop-color="#DCC78E"/>
<stop offset="0.57" stop-color="#DBB578"/>
<stop offset="0.71" stop-color="#E2BF86"/>
<stop offset="0.88" stop-color="#F9F5C5"/>
</linearGradient>
<linearGradient id="paint3_linear_11_1400" x1="223.337" y1="7.80746" x2="223.337" y2="326.877" gradientUnits="userSpaceOnUse">
<stop stop-color="#DDA858"/>
<stop offset="0.2" stop-color="#F9F5C5"/>
<stop offset="0.31" stop-color="#F1E8B6"/>
<stop offset="0.44" stop-color="#DCC78E"/>
<stop offset="0.57" stop-color="#DBB578"/>
<stop offset="0.71" stop-color="#E2BF86"/>
<stop offset="0.88" stop-color="#F9F5C5"/>
</linearGradient>
<linearGradient id="paint4_linear_11_1400" x1="302.463" y1="7.80746" x2="302.463" y2="326.877" gradientUnits="userSpaceOnUse">
<stop stop-color="#DDA858"/>
<stop offset="0.2" stop-color="#F9F5C5"/>
<stop offset="0.31" stop-color="#F1E8B6"/>
<stop offset="0.44" stop-color="#DCC78E"/>
<stop offset="0.57" stop-color="#DBB578"/>
<stop offset="0.71" stop-color="#E2BF86"/>
<stop offset="0.88" stop-color="#F9F5C5"/>
</linearGradient>
<linearGradient id="paint5_linear_11_1400" x1="360.894" y1="163.47" x2="736.38" y2="163.47" gradientUnits="userSpaceOnUse">
<stop stop-color="#393A3A"/>
<stop offset="0.25" stop-color="#353535"/>
<stop offset="0.53" stop-color="#282828"/>
<stop offset="0.81" stop-color="#121212"/>
<stop offset="1" stop-color="#040000"/>
</linearGradient>
<linearGradient id="paint6_linear_11_1400" x1="294.414" y1="109.853" x2="797.854" y2="490.289" gradientUnits="userSpaceOnUse">
<stop stop-color="#DDA858"/>
<stop offset="0.2" stop-color="#F9F5C5"/>
<stop offset="0.31" stop-color="#F1E8B6"/>
<stop offset="0.44" stop-color="#DCC78E"/>
<stop offset="0.57" stop-color="#DBB578"/>
<stop offset="0.71" stop-color="#E2BF86"/>
<stop offset="0.88" stop-color="#F9F5C5"/>
</linearGradient>
<linearGradient id="paint7_linear_11_1400" x1="430.936" y1="32.3114" x2="430.936" y2="382.219" gradientUnits="userSpaceOnUse">
<stop stop-color="#DDA858"/>
<stop offset="0.2" stop-color="#F9F5C5"/>
<stop offset="0.31" stop-color="#F1E8B6"/>
<stop offset="0.44" stop-color="#DCC78E"/>
<stop offset="0.57" stop-color="#DBB578"/>
<stop offset="0.71" stop-color="#E2BF86"/>
<stop offset="0.88" stop-color="#F9F5C5"/>
</linearGradient>
<linearGradient id="paint8_linear_11_1400" x1="515.633" y1="32.3114" x2="515.633" y2="382.219" gradientUnits="userSpaceOnUse">
<stop stop-color="#DDA858"/>
<stop offset="0.2" stop-color="#F9F5C5"/>
<stop offset="0.31" stop-color="#F1E8B6"/>
<stop offset="0.44" stop-color="#DCC78E"/>
<stop offset="0.57" stop-color="#DBB578"/>
<stop offset="0.71" stop-color="#E2BF86"/>
<stop offset="0.88" stop-color="#F9F5C5"/>
</linearGradient>
<linearGradient id="paint9_linear_11_1400" x1="594.759" y1="32.3114" x2="594.759" y2="382.219" gradientUnits="userSpaceOnUse">
<stop stop-color="#DDA858"/>
<stop offset="0.2" stop-color="#F9F5C5"/>
<stop offset="0.31" stop-color="#F1E8B6"/>
<stop offset="0.44" stop-color="#DCC78E"/>
<stop offset="0.57" stop-color="#DBB578"/>
<stop offset="0.71" stop-color="#E2BF86"/>
<stop offset="0.88" stop-color="#F9F5C5"/>
</linearGradient>
<linearGradient id="paint10_linear_11_1400" x1="673.886" y1="32.3114" x2="673.886" y2="382.219" gradientUnits="userSpaceOnUse">
<stop stop-color="#DDA858"/>
<stop offset="0.2" stop-color="#F9F5C5"/>
<stop offset="0.31" stop-color="#F1E8B6"/>
<stop offset="0.44" stop-color="#DCC78E"/>
<stop offset="0.57" stop-color="#DBB578"/>
<stop offset="0.71" stop-color="#E2BF86"/>
<stop offset="0.88" stop-color="#F9F5C5"/>
</linearGradient>
<clipPath id="clip0_11_1400">
<rect width="750" height="271.472" fill="white"/>
</clipPath>
</defs>
</svg>
