<svg width="445" height="99" viewBox="0 0 445 99" fill="none" xmlns="http://www.w3.org/2000/svg">
<path d="M49.2574 97.9213C75.8822 97.9213 97.4659 76.3376 97.4659 49.7127C97.4659 23.0879 75.8822 1.50421 49.2574 1.50421C22.6325 1.50421 1.04883 23.0879 1.04883 49.7127C1.04883 76.3376 22.6325 97.9213 49.2574 97.9213Z" fill="#443B38"/>
<path d="M135.769 97.4171C162.394 97.4171 183.978 75.8334 183.978 49.2085C183.978 22.5837 162.394 1 135.769 1C109.144 1 87.5605 22.5837 87.5605 49.2085C87.5605 75.8334 109.144 97.4171 135.769 97.4171Z" fill="#443B38"/>
<path d="M222.281 97.4171C248.906 97.4171 270.489 75.8334 270.489 49.2085C270.489 22.5837 248.906 1 222.281 1C195.656 1 174.072 22.5837 174.072 49.2085C174.072 75.8334 195.656 97.4171 222.281 97.4171Z" fill="#443B38"/>
<path d="M308.81 97.4171C335.435 97.4171 357.019 75.8334 357.019 49.2085C357.019 22.5837 335.435 1 308.81 1C282.185 1 260.602 22.5837 260.602 49.2085C260.602 75.8334 282.185 97.4171 308.81 97.4171Z" fill="#443B38"/>
<path d="M395.322 97.4171C421.947 97.4171 443.53 75.8334 443.53 49.2085C443.53 22.5837 421.947 1 395.322 1C368.697 1 347.113 22.5837 347.113 49.2085C347.113 75.8334 368.697 97.4171 395.322 97.4171Z" fill="#443B38"/>
<path d="M395.321 1.01633C376.34 1.01633 359.929 11.995 352.057 27.9507C344.201 11.995 327.79 1.01633 308.793 1.01633C289.796 1.01633 273.401 11.995 265.529 27.9507C257.673 11.995 241.262 1.01633 222.265 1.01633C203.268 1.01633 186.873 11.995 179.001 27.9507C171.145 11.995 154.734 1.01633 135.737 1.01633C116.74 1.01633 100.166 12.1088 92.3425 28.1946C84.4378 12.3853 68.0918 1.52053 49.2085 1.52053C22.5832 1.52053 1 23.1038 1 49.7291C1 76.3544 22.5832 97.9376 49.2085 97.9376C68.287 97.9376 84.7794 86.8451 92.6027 70.7593C100.507 86.5686 116.853 97.4334 135.737 97.4334C154.62 97.4334 171.129 86.4547 179.001 70.4991C186.857 86.4547 203.268 97.4334 222.265 97.4334C241.262 97.4334 257.657 86.4547 265.529 70.4991C273.385 86.4547 289.796 97.4334 308.793 97.4334C327.79 97.4334 344.185 86.4547 352.057 70.4991C359.913 86.4547 376.324 97.4334 395.321 97.4334C421.946 97.4334 443.53 75.8502 443.53 49.2249C443.53 22.5996 421.946 1.01633 395.321 1.01633Z" stroke="#E7C892" stroke-width="1.51262"/>
<path d="M41.3212 72.0441C41.3212 75.785 39.1417 77.6555 34.799 77.6555C33.8556 77.6555 32.8472 77.6067 31.8226 77.4928L29.6431 71.6538C30.4401 71.7026 32.1316 71.7189 34.734 71.7189C35.3683 71.7189 35.6773 71.4098 35.6773 70.808V54.7873C33.6442 57.3409 31.8226 59.4715 30.2286 61.1793L28.2443 57.8451C27.5775 67.1322 26.1625 73.8007 23.9992 77.8506L19.2012 74.126C21.5108 69.0026 22.6656 61.6835 22.6656 52.1524V20.7291H41.3049V72.0441H41.3212ZM35.6773 39.9865V26.503H28.3257V34.0173L31.6925 31.5613C33.4491 34.6516 34.7665 37.4654 35.6773 39.9865ZM35.6773 45.4351V41.6455L31.7575 44.5894C31.172 42.0683 30.0335 39.1732 28.3257 35.9365V54.5433C31.0744 51.6645 33.5304 48.6393 35.6773 45.4351ZM77.933 72.7923L74.9891 77.8506C69.4753 76.4681 64.3519 73.9959 59.5864 70.4665C55.7642 73.3128 51.0312 75.785 45.3873 77.8506L42.1506 72.7923C46.9325 71.3936 51.2101 69.3605 55.016 66.6931C51.7468 63.2287 49.0469 58.5607 46.9162 52.6566H44.0048V47.0779H73.4764V52.6566C70.6626 58.5282 67.5723 63.1148 64.2056 66.4003C67.9952 69.1002 72.5656 71.2309 77.9492 72.7923H77.933ZM77.2498 43.4508H67.8163C66.5151 43.4508 65.4742 42.9792 64.661 42.0521C63.8477 41.125 63.4411 40.0515 63.4411 38.8479V26.8609H54.2028V29.8373C54.2028 36.4733 52.0559 41.6454 47.7782 45.3701L42.9151 41.5804C46.5096 38.8967 48.2987 34.9281 48.2987 29.6584V21.2333H69.2151V36.9612C69.2151 37.6769 69.5729 38.0347 70.2886 38.0347H77.2661V43.4834L77.2498 43.4508ZM66.7428 52.6566H53.1618C54.9835 57.0806 57.1955 60.48 59.8466 62.8383C62.8231 59.5041 65.1327 56.121 66.7591 52.6566H66.7428Z" fill="#E7C892"/>
<path d="M127.249 65.3106C122.971 69.7996 116.807 73.8008 108.772 77.2977L105.535 72.5321C113.342 69.1003 118.97 65.5546 122.45 61.895L127.249 65.2943V65.3106ZM163.486 25.7874H145.107V29.447H160.185V43.5159H109.13V29.447H124.272V25.7874H105.665V20.664H163.503V25.7874H163.486ZM163.616 60.5125H137.772V77.7856H131.738V60.5125H105.714V55.3891H163.616V60.5125ZM159.176 51.8922H110.317V46.899H159.176V51.8922ZM124.272 38.7178V34.2125H114.969V38.7178H124.272ZM139.333 29.447V25.7874H130.03V29.447H139.333ZM139.333 38.7178V34.2125H130.03V38.7178H139.333ZM164.169 73.1176L160.315 77.5579C154.622 73.3616 148.572 69.5394 142.131 66.075L146.018 61.9601C152.329 65.0016 158.379 68.7262 164.169 73.1176ZM154.378 38.7178V34.2125H145.107V38.7178H154.378Z" fill="#E7C892"/>
<path d="M212.556 56.1373L208.571 60.5775C207.595 58.4631 206.245 56.1535 204.521 53.665V77.688H198.812V56.7716L194.307 60.8866L191.266 55.503C196.909 51.5669 201.09 45.3213 203.806 36.7335H192.583V31.0897H209.694V36.7335C209.319 38.7178 208.035 42.1334 205.839 46.9477C208.734 50.1193 210.978 53.1771 212.556 56.121V56.1373ZM206.034 27.1861L201.073 29.7722C198.552 25.95 196.503 23.2176 194.941 21.6073L200.065 18.8911C202.976 22.1929 204.977 24.9579 206.034 27.1861ZM249.802 76.5169H210.767V71.5887H221.599C221.355 70.2062 220.819 68.6123 219.973 66.8232H215.728V54.8036H245.882V66.8232H241.833C241.231 68.4822 240.613 70.0761 239.978 71.5887H249.802V76.5169ZM249.217 52.006H212.166V47.208H249.217V52.006ZM248.534 44.5893H212.946V24.5187H223.193V19.7532H228.382V24.5187H233.082V19.7532H238.401V24.5187H248.55V44.5893H248.534ZM223.177 32.3746V29.2355H218.444V32.3746H223.177ZM223.177 39.9214V36.5546H218.444V39.9214H223.177ZM240.108 62.0902V59.3089H221.469V62.0902H240.108ZM235.603 66.8232H225.779C226.251 68.0918 226.788 69.6858 227.373 71.5887H233.798C234.497 70.0111 235.099 68.4171 235.619 66.8232H235.603ZM233.066 32.3746V29.2355H228.365V32.3746H233.066ZM233.066 39.9864V36.5546H228.365V39.9864H233.066ZM243.02 32.3746V29.2355H238.384V32.3746H243.02ZM243.02 39.9864V36.5546H238.384V39.9864H243.02Z" fill="#E7C892"/>
<path d="M304.37 77.4928H298.466V74.126H286.186V77.4928H280.412V47.6309H304.37V77.4928ZM298.466 68.7424V53.1446H286.186V68.7424H298.466ZM327.677 41.8081H286.902V20.7941H327.677V41.8081ZM321.708 36.5546V26.2428H292.952V36.5546H321.708ZM334.069 77.4928H328.263V74.126H315.853V77.4928H310.014V47.6309H334.069V77.4928ZM328.263 68.8075V53.1446H315.853V68.8075H328.263Z" fill="#E7C892"/>
<path d="M422.548 47.8911H392.881V52.7868C403.063 55.4217 411.781 58.7234 419.035 62.7083L416.449 68.0919C409.829 64.351 401.973 61.1143 392.881 58.3981V77.4929H386.619V47.8911H364.516V42.1822H386.684V19.8183H392.881V27.235H418.628V33.009H392.881V42.1822H422.548V47.8911Z" fill="#E7C892"/>
</svg>
