<svg width="2059" height="383" viewBox="0 0 2059 383" fill="none" xmlns="http://www.w3.org/2000/svg">
<path d="M2054.25 180.29V174.422H2054.04V174.113H2050.9V173.695H2049.91L2049.54 172.781H2048.56V168.849H2048.1V171.032L2047.85 171.249V172.657H2046.65V173.308L2045.12 174.221H2042.27V180.275H2036.12L2035.37 179.191H2034.21L2033.61 178.417H2032.12V177.767L2031.48 177.349H2028.16L2027.74 177.952H2026.04V178.85H2018.86V136.986L2017.12 120.111H2016.76L2016.07 116.256L2015.27 115.048H2012.04V111.627H2011.64V112.168H2003.55V112.757H2003.77V114.506H1999.6V117.665L1998.47 119.012V119.6H1997.42L1997.07 132.419V168.57L1996.59 168.926V171.574H1995.89V173.354L1995.57 173.432V176.962H1990.38V174.701H1988.82V174.949H1987.19V176.59H1979.18V174.19H1972.91V172.642H1969.03V154.296H1967.8V153.134H1965.14L1964.8 152.144H1961.39L1961.18 151.71H1952.96V153.769H1950.69V170.598H1949.54V109.475H1940.55V109.088H1938.04V109.428H1914.88V170.474H1912.06V143.086H1910.68L1909.96 142.219H1902.7V122.216H1901.68V120.142H1897.76V111.456H1876.97V112.06H1871.75L1871.46 111.472H1867.4V126.505H1863.48V124.368H1863.04V125.917H1860.57L1859.66 126.784H1858.17V130.855H1855.22V167.61H1850.45V162.052L1849.94 161.696V160.427H1848.6V133.704L1848.09 132.977H1847.5L1847.02 132.11H1846.22V131.49H1844.44V131.815H1820.22L1816.81 134.54V159.776H1815.58V160.829H1807.49V161.99H1807.81V163.662H1806.58V169.375L1806.93 169.855V172.255H1806.58V180.275L1805.73 180.708V185.988H1802.44V182.024L1802.67 181.807V167.873H1801.73V159.838H1800.57V150.564H1791.11L1790.89 150.239H1786.62V135.392L1787.03 135.005V133.472H1785.97V112.679L1786.39 112.215V110.682H1784.96V96.8875L1785.1 96.6709V95.3393H1783.71V91.9178L1783.85 91.8558V90.4934H1782.39V90.6328H1779.13V88.5427H1777.49V89.1309H1770.9V89.8122H1770.55V90.5089H1756.75V95.3084H1755.26V110.574H1753.69V116.922H1749.92L1748.07 114.104V113.407H1747.53V113.949H1734.95V113.407H1733.71V109.583H1733.47V113.407H1725.63L1723.16 116.674V117.03H1716.36L1716.15 117.758V182.984H1713.75V157.609H1707.27V156.726H1706.75V154.59H1705.67C1705.2 147.561 1702.53 107.555 1701.39 91.6545C1700.14 74.2061 1698.06 45.9821 1698.06 45.9821H1697.53V46.2762H1694.06L1692.9 36.7702C1692.9 36.7702 1691.06 35.0516 1688.56 33.906C1686.29 32.8687 1685.23 32.3732 1685.23 32.3732V31.8933H1687.48L1688.35 31.305H1688.7V30.8715H1681.49V31.1966C1681.49 31.1966 1680.41 30.4379 1679.42 30.3915C1678.45 30.3605 1672.89 30.3915 1672.89 30.3915V29.2303H1670.5L1670.07 29.4471V30.5309H1669.13L1667.95 0.154784H1666.93L1666.8 30.4845H1666.53V40.8575L1666.35 41.0123V46.6788H1665.82V46.3846H1664.51V46.911L1664.17 47.1742L1663.12 149.62L1657.16 149.558V87.5982H1655.6V85.0127L1655.79 84.8269V81.6686H1654.91V78.7888H1654.03V75.8318H1652.24V76.1878H1649.18V75.8318H1648.67V76.1414H1639.66V73.3546H1639.41V76.095H1637.99V75.6769H1636.91V76.064H1636.18V75.7544H1632.29V78.7733H1631.43V81.4827H1630.35V87.1338H1628.02V136.383H1623.59V134.927H1623.08V137.761H1610.2V163.864H1607.84V159.08L1608 159.002V158.213H1606.14V156.819H1606.64V155.999H1605.26V154.234H1605.65V153.754H1601.88V152.84H1589.9V153.227H1585.15V153.614H1585.97V155.534H1584.08V156.448H1584.83V158.213H1583.99V158.94H1582.93V155.503L1582.77 155.348V153.816H1574.39V80.9409H1556.96V77.8444H1556.58V79.2998H1551.5V81.0183H1545.99V63.446L1545.82 63.028V57.795H1534.12V55.8597H1532.83V54.3735H1532.46V55.8597H1530.02V56.2933L1529.3 56.8042V57.3305H1520.76V54.8069H1520.33V57.4234H1518.01V55.8442H1517.68V57.3924H1513.65V56.9745H1513.29V62.3004L1512.87 62.5945V77.5968H1483.19V128.425H1477.32V127.295H1476.84V127.914H1475.07V124.926H1474.36V120.343H1473.93V124.972H1472.61L1472.35 125.622V125.886H1471.03V124.214H1470.73V125.808H1468.29V122.371H1467.98V129.385H1465.04V127.635H1464.6V128.394H1464.08V130.097H1463V129.075H1462.24V129.772H1460.88V103.545H1460.57V99.7363H1456.02V97.8629H1455.71V99.5505H1452.08V97.0579H1451.84V99.2409H1445.4V101.424H1441.8V102.693H1441.06V99.0241H1440.12V101.362H1436.94V102.693H1430.43V102.291H1430.15V133.642H1423.43V135.686H1419.17V124.879H1415.45V89.069H1409.91V87.5982H1409.57V88.9143H1398.46V86.8241H1398.12V88.8678H1389.32V67.1308H1389.13V67.394H1386.08V54.8534H1385.64V33.5189H1383.95L1383.76 33.3486H1382.6V25.4836H1382.29V23.7496H1382.53V21.5512L1382.7 21.3499V17.2936L1382.48 17.1078V15.606H1380.81V14.6926H1378.82L1378.71 14.2435H1378.22V13.7946H1376.12V13.3765H1375.78V13.7791H1373V11.8903H1372.77V13.7636H1365.79V14.1972H1366.09V15.0177H1361.21V16.9839L1361.02 17.1233V20.1423L1361.22 20.2816V23.2078H1361.45V25.0502H1361.02V33.7976H1358.12V54.0638H1357.29V66.914H1353.55V90.1063H1352.86V145.022H1350.54V157.315L1346.51 163.585H1345.97V149.682H1345.54V163.585H1342.53V91.1591H1342.25V79.6558H1336.93V71.3574H1312.15V71.0942H1310.7V72.2089H1310.05V79.9191H1304.62V81.2351H1301.62V120.575H1299.06V118.717H1298.66V120.575H1293.9V118.934H1293.42V120.575H1290.41V151.772H1289.18V73.1534H1285.41V56.8196L1280.38 54.2031H1274.67L1274.28 53.2897H1270.18V54.2651H1269.2V52.0821H1268.68V54.4044H1243.44V170.614H1241.46V169.979H1235.23V65.3968H1234.7V59.4516H1234.24V52.949H1224.24V51.0603H1223.93V51.4008H1222.55V52.7169C1222.55 52.7169 1216.49 52.8407 1216.49 52.7169V48.1341H1209.52V47.0658H1203.81V45.8118H1198.6V46.6788H1195.51V44.1088H1194.78V46.3382H1171.67V77.0084H1170.73V80.8635H1162.03V142.73H1160.08V141.043L1159.22 140.377H1156.61V139.046L1154.72 138.426V137.513H1147.64V136.445H1142.48V138.999H1141.26V141.91H1134.02V153.475H1129.99V152.407H1126.52V124.864H1119.53V123.641H1118.09V121.907H1107.24V122.418H1096.05V125.7H1089.18V171.249H1084.21V169.809H1081.35V170.211H1080.29V158.956H1079.47V159.823H1075.29V158.6H1075.75V157.268H1052.39V158.29H1052.7V159.575H1048.52V167.502H1045.97V168.57H1034.13V182.628H1033.27V178.99H1027.97V180.135H1026.27V174.268H1026.07V173.958H1022.92V173.54H1021.94L1021.57 172.627H1020.59V168.694H1020.13V170.877L1019.88 171.094V172.503H1018.68V173.153L1017.15 174.066H1014.29V180.12H1008.15L1007.39 179.036H1006.24L1005.63 178.262H1004.15V177.612L1003.5 177.194H1000.19L999.768 177.798H998.07V178.696H990.892V136.832L989.148 119.956H988.793L988.098 116.101L987.296 114.893H984.069V111.472H983.668V112.014H975.579V112.602H975.795V114.352H971.627V117.51L970.5 118.857V119.445H969.451L969.095 132.264V168.415L968.617 168.771V171.419H967.922V173.199L967.598 173.277V176.807H962.411V174.546H960.852V174.794H959.216V176.435H951.204V174.035H944.937V172.487H941.062V154.141H939.827V152.98H937.172L936.832 151.989H933.421L933.205 151.555H924.992V153.614H922.723V170.443H921.565V109.32H912.581V108.933H910.065V109.273H886.91V170.32H884.085V142.932H882.711L881.985 142.065H874.73V122.062H873.711V119.987H869.79V111.301H848.997V111.905H843.779L843.486 111.317H839.426V126.35H835.505V124.214H835.073V125.762H832.603L831.692 126.629H830.195V130.701H827.246V167.455H822.476V161.897L821.967 161.541V160.272H820.624V133.549L820.114 132.822H819.528L819.049 131.955H818.246V131.335H816.471V131.661H792.251L788.839 134.385V159.621H787.604V160.674H779.515V161.835H779.84V163.507H778.605V169.22L778.96 169.7V172.1H778.605V180.12L777.756 180.553V185.833H774.468V181.869L774.699 181.653V167.719H773.757V159.683H772.6V150.41H763.137L762.921 150.084H758.645V135.237L759.062 134.85V133.317H757.996V112.525L758.413 112.06V110.527H756.993V96.7328L757.132 96.516V95.1845H755.743V91.7629L755.881 91.701V90.3386H754.415V90.478H751.158V88.3878H749.521V88.9762H742.93V89.6574H742.575V90.3541H728.774V95.1535H727.292V110.419H725.718V116.767H721.951L720.099 113.949V113.252H719.559V113.794H706.978V113.252H705.743V109.428H705.496V113.252H697.654L695.184 116.519V116.875H688.392L688.175 117.603V182.829H685.783V157.454H679.299V156.571H678.774V154.435H677.694C677.231 147.406 674.56 107.4 673.418 91.4998C672.167 74.0513 670.083 45.8273 670.083 45.8273H669.559V46.1214H666.085L664.927 36.6153C664.927 36.6153 663.091 34.8969 660.59 33.7512C658.32 32.7139 657.255 32.2185 657.255 32.2185V31.7385H659.509L660.374 31.1502H660.729V30.7166H653.52V31.0418C653.52 31.0418 652.439 30.2831 651.451 30.2367C650.479 30.2057 644.921 30.2367 644.921 30.2367V29.0755H642.529L642.096 29.2923V30.3761H641.155L639.982 0H638.963L638.824 30.3296H638.561V40.7027L638.376 40.8575V46.524H637.851V46.2298H636.539V46.7562L636.199 47.0194L635.15 149.465L629.191 149.403V87.4434H627.632V84.8579L627.817 84.6721V81.5137H626.937V78.6341H626.057V75.6769H624.267V76.0331H621.21V75.6769H620.701V75.9866H611.686V73.1998H611.439V75.9402H610.019V75.5221H608.938V75.9092H608.212V75.5995H604.322V78.6186H603.458V81.3279H602.377V86.979H600.046V136.228H595.616V134.773H595.107V137.606H582.232V163.709H579.87V158.925L580.025 158.847V158.058H578.172V156.664H578.666V155.844H577.292V154.079H577.678V153.599H573.912V152.685H561.933V153.073H557.178V153.46H557.996V155.379H556.113V156.293H556.854V158.058H556.02V158.785H554.955V155.348L554.801 155.194V153.661H546.419V80.7861H528.99V77.6897H528.605V79.145H523.526V80.8635H518.015V63.2911L517.845 62.8732V57.6402H506.144V55.7049H504.863V54.2186H504.492V55.7049H502.053V56.1384L501.328 56.6493V57.1758H492.791V54.6521H492.359V57.2686H490.043V55.6894H489.704V57.2376H485.675V56.8196H485.32V62.1455L484.903 62.4396V77.4419H455.218V128.27H449.352V127.14H448.873V127.759H447.098V124.771H446.388V120.188H445.956V124.817H444.643L444.381 125.468V125.731H443.053V124.059H442.76V125.653H440.321V122.216H440.012V129.23H437.064V127.48H436.632V128.239H436.107V129.942H435.026V128.92H434.27V129.617H432.911V103.39H432.603V99.5814H428.049V97.7081H427.74V99.3956H424.112V96.903H423.865V99.0861H417.428V101.269H413.831V102.539H413.09V98.8693H412.149V101.207H408.969V102.539H402.454V102.136H402.177V133.487H395.462V135.531H391.201V124.725H387.481V88.9143H381.939V87.4434H381.599V88.7594H370.485V86.6693H370.145V88.713H361.346V66.9759H361.161V67.2392H358.104V54.6985H357.672V33.3641H355.974L355.789 33.1938H354.631V25.3289H354.322V23.5949H354.554V21.3963L354.724 21.1951V17.1387L354.508 16.9529V15.4512H352.84V14.5377H350.849L350.741 14.0888H350.247V13.6398H348.148V13.2218H347.808V13.6243H345.029V11.7354H344.798V13.6088H337.82V14.0423H338.114V14.8629H333.236V16.8291L333.05 16.9684V19.9875L333.251 20.1269V23.0529H333.483V24.8953H333.05V33.6428H330.148V53.9089H329.315V66.7592H325.579V89.9515H324.884V144.867H322.569V157.16L318.54 163.43H317.999V149.527H317.567V163.43H314.557V91.0043H314.279V79.5011H308.953V71.2026H284.177V70.9394H282.726V72.0541H282.078V79.7642H276.644V81.0803H273.649V120.421H271.087V118.563H270.685V120.421H265.931V118.779H265.452V120.421H262.442V151.617H261.207V72.9985H257.441V56.6648L252.408 54.0483H246.697L246.311 53.1348H242.204V54.1102H241.232V51.9273H240.707V54.2496H215.468V170.459H213.492V169.824H207.255V65.2419H206.73V59.2968H206.267V52.7943H196.264V50.9054H195.956V51.246H194.582V52.562C194.582 52.562 188.515 52.6859 188.515 52.562V47.9793H181.553V46.911H175.841V45.657H170.624V46.524H167.536V43.9539H166.811V46.1833H143.702V76.8536H142.76V80.7086H134.054V142.576H132.109V140.888L131.244 140.222H128.635V138.891L126.752 138.272V137.358H119.667V136.29H114.511V138.844H113.291V141.755H106.051V153.32H102.022V152.252H98.549V124.709H91.556V123.486H90.1204V121.752H79.2683V122.263H68.0766V125.545H61.2072V171.094H56.2365V169.654H53.3807V170.056H52.3155V158.801H51.4974V159.668H47.314V158.445H47.7771V157.113H24.4211V158.135H24.7299V159.42H20.5465V167.347H17.9994V168.415H6.15931V182.473H5.29484V178.835H0V282H2059V179.981H2054.08L2054.25 180.29Z" fill="url(#paint0_linear_71_15708)"/>
<rect y="282" width="2059" height="101" fill="url(#paint1_linear_71_15708)"/>
<defs>
<linearGradient id="paint0_linear_71_15708" x1="1029.5" y1="0" x2="1029.5" y2="282" gradientUnits="userSpaceOnUse">
<stop stop-color="#F2DDC0"/>
<stop offset="0.788462" stop-color="#F8EBD9"/>
<stop offset="1" stop-color="#F9EEDE"/>
</linearGradient>
<linearGradient id="paint1_linear_71_15708" x1="0" y1="332.5" x2="2059" y2="332.5" gradientUnits="userSpaceOnUse">
<stop stop-color="#F2DDC0"/>
<stop offset="0.0001" stop-color="#F8EBD9"/>
<stop offset="1" stop-color="#F9EEDE"/>
</linearGradient>
</defs>
</svg>
