<svg width="300" height="49" viewBox="0 0 300 49" fill="none" xmlns="http://www.w3.org/2000/svg">
<g clip-path="url(#clip0_134_25056)">
<path fill-rule="evenodd" clip-rule="evenodd" d="M201.031 13.8733C198.43 13.8733 196.476 14.7588 195.227 16.5004C194.037 14.7884 192.259 13.8733 189.982 13.8733C187.705 13.8733 185.824 14.6703 184.737 16.1167V15.4082C184.737 14.9065 184.326 14.4637 183.811 14.4637H179.433C178.949 14.4637 178.507 14.8769 178.507 15.4082V34.1817C178.507 34.6835 178.919 35.1263 179.433 35.1263H183.811C184.296 35.1263 184.737 34.7131 184.737 34.1817V23.4814C184.737 21.0609 185.81 19.7326 187.763 19.7326C189.718 19.7326 190.526 20.8838 190.526 22.9796V34.1817C190.526 34.6835 190.937 35.1263 191.451 35.1263H195.829C196.315 35.1263 196.755 34.7131 196.755 34.1817V23.4814C196.755 21.0609 197.828 19.7326 199.752 19.7326C201.677 19.7326 202.529 20.8838 202.529 22.9796V34.1817C202.529 34.6835 202.941 35.1263 203.454 35.1263H207.833C208.318 35.1263 208.759 34.7131 208.759 34.1817V22.4483C208.759 17.2384 205.732 13.8733 201.06 13.8733H201.031Z" fill="#08BF5B"/>
<path fill-rule="evenodd" clip-rule="evenodd" d="M268.82 13.8733C262.546 13.8733 257.977 18.4191 257.977 24.7212C257.977 31.0233 262.59 35.5691 269.26 35.5691C275.93 35.5691 275.534 34.4178 277.517 32.145C277.694 31.9384 277.781 31.6431 277.723 31.3775C277.664 31.1118 277.517 30.8462 277.253 30.7281L273.771 28.7061C273.447 28.4995 273.021 28.5585 272.728 28.7947C271.861 29.5326 270.612 29.9459 269.319 29.9459C266.91 29.9459 265.337 29.0604 264.647 27.304H278.105C278.575 27.304 278.942 26.9498 279.031 26.4775C279.119 25.9167 279.148 25.3263 279.148 24.7507C279.148 18.5667 274.696 13.9028 268.805 13.9028L268.834 13.8733H268.82ZM264.515 22.4926C265.088 20.5591 266.601 19.4964 268.761 19.4964C270.92 19.4964 272.302 20.5739 272.889 22.4926H264.515Z" fill="#08BF5B"/>
<path fill-rule="evenodd" clip-rule="evenodd" d="M299.834 14.8772C299.658 14.641 299.394 14.4934 299.07 14.4934H294.369C293.958 14.4934 293.605 14.7591 293.502 15.1281L289.976 26.5958L285.803 15.069C285.656 14.7148 285.304 14.4639 284.922 14.4639H280.044C279.721 14.4639 279.427 14.6115 279.281 14.8772C279.104 15.1428 279.075 15.4528 279.192 15.7479L286.744 33.813C285.95 35.9678 284.76 36.8681 282.541 37.0452C282.042 37.0748 281.675 37.488 281.675 37.975V42.0485C281.675 42.2847 281.763 42.5208 281.939 42.6831C282.115 42.8603 282.35 42.9489 282.615 42.9489C287.948 42.9489 291.284 40.2479 293.414 34.1967L299.952 15.7184C300.04 15.4232 300.011 15.1133 299.834 14.8772Z" fill="#08BF5B"/>
<path fill-rule="evenodd" clip-rule="evenodd" d="M247.648 13.9028C245.224 13.9028 243.153 14.7293 241.948 16.2052V15.4082C241.948 14.9065 241.537 14.4637 241.007 14.4637H236.571C236.041 14.4637 235.63 14.8769 235.63 15.4082V34.1817C235.63 34.6835 236.041 35.1263 236.571 35.1263H241.007C241.507 35.1263 241.948 34.7131 241.948 34.1817V23.8356C241.948 21.2085 243.299 19.7326 245.607 19.7326C247.913 19.7326 249.029 20.6772 249.029 23.3634V34.1817C249.029 34.6835 249.441 35.1263 249.97 35.1263H254.407C254.907 35.1263 255.347 34.7131 255.347 34.1817V22.4483C255.347 16.5299 251.498 13.8733 247.663 13.8733V13.9028H247.648Z" fill="#08BF5B"/>
<path fill-rule="evenodd" clip-rule="evenodd" d="M222.202 13.8733C216.149 13.8733 211.403 18.6257 211.403 24.7212C211.403 30.8167 216.149 35.5691 222.202 35.5691C228.255 35.5691 233.001 30.8167 233.001 24.7212C233.001 18.6257 228.255 13.8733 222.202 13.8733ZM222.261 19.4964C219.337 19.4964 217.046 21.7989 217.046 24.7359C217.046 27.673 219.337 29.9754 222.261 29.9754C225.185 29.9754 227.476 27.6878 227.476 24.7359C227.476 21.7841 225.185 19.4964 222.261 19.4964Z" fill="#08BF5B"/>
<path fill-rule="evenodd" clip-rule="evenodd" d="M164.771 0H93.0594C91.4724 0 90.209 1.28404 90.209 2.87802V46.122C90.209 47.716 91.487 49 93.0594 49H164.771C166.358 49 167.621 47.716 167.621 46.122V2.87802C167.621 1.28404 166.343 0 164.771 0Z" fill="#08BF5B"/>
<path d="M106.855 27.0978H110.234C114.656 27.0978 118.094 23.6295 118.094 19.3346C118.094 15.0397 114.656 11.5713 110.234 11.5713H102.491C102.08 11.5713 101.742 11.896 101.742 12.324V33.4442C101.742 33.8575 102.065 34.197 102.491 34.197H106.106C106.517 34.197 106.855 33.8427 106.855 33.4442V27.0831V27.0978Z" fill="white"/>
<path d="M136.812 34.0934C137.047 34.0934 137.224 33.9163 137.224 33.6801V18.3307C137.224 18.0946 137.047 17.9175 136.812 17.9175H132.801C132.566 17.9175 132.389 18.0946 132.389 18.3307V19.4377C131.346 18.2127 129.76 17.46 127.629 17.46C123.442 17.46 119.858 21.194 119.858 26.0054C119.858 30.8169 123.442 34.5509 127.629 34.5509C131.817 34.5509 131.332 33.7982 132.389 32.5732V33.6801C132.389 33.9163 132.566 34.0934 132.801 34.0934H136.812Z" fill="white"/>
<path d="M149.138 40.5727C149.402 40.5727 149.653 40.3957 149.741 40.13H149.77L158.291 18.4342C158.38 18.1685 158.203 17.8733 157.91 17.8733H153.811C153.546 17.8733 153.296 18.0504 153.208 18.3161L149.52 27.7029L145.715 18.3161C145.627 18.08 145.363 17.9029 145.113 17.9029H141.014C140.719 17.9029 140.528 18.198 140.632 18.4637L146.979 34.123L144.672 40.0119C144.584 40.2776 144.76 40.5727 145.054 40.5727H149.153H149.138Z" fill="white"/>
<path fill-rule="evenodd" clip-rule="evenodd" d="M128.54 22.1238C126.277 22.1238 124.646 23.6588 124.646 26.1088C124.646 28.5588 126.277 30.0937 128.54 30.0937C130.802 30.0937 132.433 28.5588 132.433 26.1088C132.433 23.6588 130.817 22.1238 128.54 22.1238Z" fill="#08BF5B"/>
<path fill-rule="evenodd" clip-rule="evenodd" d="M110.132 16.3823H106.796V22.1384H110.132C111.674 22.1384 112.82 20.8986 112.82 19.2603C112.82 17.622 111.674 16.3823 110.132 16.3823Z" fill="#08BF5B"/>
<path fill-rule="evenodd" clip-rule="evenodd" d="M78.1908 17.0025C78.8225 17.0025 79.322 16.4859 79.322 15.8661V11.7778C79.322 11.1431 78.8078 10.6414 78.1908 10.6414H61.9561C61.3243 10.6414 60.8248 11.1431 60.8248 11.7778V37.2519C60.8248 37.8718 61.3391 38.3883 61.9561 38.3883H78.1908C78.8225 38.3883 79.322 37.8865 79.322 37.2519V33.1636C79.322 32.5437 78.8078 32.0272 78.1908 32.0272H67.1717V27.7027H78.1908C78.8225 27.7027 79.322 27.201 79.322 26.5664V22.4781C79.322 21.8582 78.8078 21.3417 78.1908 21.3417H67.1717V17.0172H78.1908V17.0025Z" fill="black"/>
<path fill-rule="evenodd" clip-rule="evenodd" d="M55.2715 10.6266H51.2018C50.5847 10.6266 50.0705 11.1284 50.0705 11.7631V26.4926L39.4041 11.1727C39.0956 10.7447 38.6548 10.6118 38.1553 10.6118C38.0966 10.6118 38.0231 10.6118 37.9643 10.6118H33.8946C33.2628 10.6118 32.7633 11.1137 32.7633 11.7483V37.2224C32.7633 37.8423 33.2628 38.3588 33.8946 38.3588H37.9643C38.5961 38.3588 39.0956 37.857 39.0956 37.2224V21.8287L50.2174 37.798C50.2615 37.857 50.3056 37.9013 50.3496 37.9604C50.5406 38.1818 50.8198 38.3441 51.1283 38.3588H55.2861C55.9179 38.3588 56.4175 37.857 56.4175 37.2224V11.7483C56.4175 11.1137 55.9179 10.6118 55.2861 10.6118L55.2715 10.6266Z" fill="black"/>
<path fill-rule="evenodd" clip-rule="evenodd" d="M17.3659 31.9978H6.34694V11.7632C6.34694 11.1286 5.83272 10.6267 5.21566 10.6267H1.13128C0.49953 10.6267 0 11.1286 0 11.7632V37.2373C0 37.8719 0.514222 38.3737 1.13128 38.3737H17.3659C17.9977 38.3737 18.4972 37.8719 18.4972 37.2373V33.149C18.4972 32.5144 17.983 32.0126 17.3659 32.0126" fill="black"/>
<path fill-rule="evenodd" clip-rule="evenodd" d="M27.18 10.6267H23.0222C22.3904 10.6267 21.8615 11.1286 21.8615 11.7632V37.2373C21.8615 37.8572 22.3757 38.3737 23.0222 38.3737H27.18C27.8118 38.3737 28.3406 37.8719 28.3406 37.2373V11.7632C28.3406 11.1286 27.8264 10.6267 27.18 10.6267Z" fill="black"/>
</g>
<defs>
<clipPath id="clip0_134_25056">
<rect width="300" height="49" fill="white"/>
</clipPath>
</defs>
</svg>
