<svg width="161" height="42" viewBox="0 0 161 42" fill="none" xmlns="http://www.w3.org/2000/svg">
<path d="M46.6126 35.356C46.6126 36.4195 46.2791 37.2486 45.6212 37.8254C44.9633 38.4022 44.044 38.6996 42.8904 38.6996H39.2584V28.173H42.9535C44.008 28.173 44.756 28.3623 45.2066 28.7318C45.6573 29.1013 45.8736 29.6241 45.8736 30.291C45.8736 30.8768 45.7384 31.3454 45.459 31.6879C45.1886 32.0304 44.765 32.2557 44.1972 32.3638C44.9002 32.454 45.4771 32.7604 45.9277 33.2741C46.3873 33.7878 46.6036 34.4818 46.6036 35.347H46.6126V35.356ZM43.6655 30.8678C43.6655 30.4532 43.5574 30.1468 43.3321 29.9665C43.1068 29.7863 42.7823 29.6871 42.3407 29.6871H41.5296V32.0033H42.3497C42.8274 32.0033 43.1698 31.8952 43.3681 31.6879C43.5664 31.4806 43.6655 31.2012 43.6655 30.8588V30.8678ZM44.2784 35.2298C44.2784 34.662 44.1252 34.2204 43.8187 33.887C43.5123 33.5625 43.0166 33.4003 42.3137 33.4003H41.5206V37.1765H42.4398C43.0977 37.1765 43.5754 37.0143 43.8548 36.6808C44.1342 36.3564 44.2784 35.8607 44.2784 35.2388V35.2298Z" fill="black"/>
<path d="M54.8139 38.6996H52.75L52.705 37.6452C52.5338 37.9786 52.2454 38.258 51.8398 38.4653C51.4433 38.6726 50.9746 38.7897 50.4429 38.7897C49.5686 38.7897 48.8927 38.5644 48.4511 38.1138C47.9915 37.6722 47.7752 36.9872 47.7752 36.086V35.9508C47.7752 35.0586 48.0726 34.3646 48.6764 33.8779C49.2803 33.3913 50.0914 33.1479 51.1098 33.1479C51.4162 33.1479 51.7226 33.193 52.02 33.2831C52.3175 33.3732 52.5428 33.4814 52.678 33.6166V32.8235C52.678 32.5531 52.5518 32.3188 52.3084 32.1295C52.0561 31.9403 51.7046 31.8411 51.254 31.8411C50.7673 31.8411 50.3257 31.8952 49.9472 32.0123C49.5596 32.1205 49.2352 32.2557 48.9558 32.4269V31.057C49.3163 30.9128 49.7219 30.7867 50.1815 30.6695C50.6321 30.5613 51.1729 30.5073 51.8128 30.5073C52.8402 30.5073 53.5973 30.7416 54.0839 31.2102C54.5706 31.6789 54.823 32.4179 54.823 33.4543V38.6996H54.8139ZM52.696 36.0049V35.7976C52.696 35.3109 52.5788 34.9414 52.3535 34.6891C52.1282 34.4367 51.7947 34.3105 51.3531 34.3105C50.9385 34.3105 50.6141 34.4367 50.3798 34.671C50.1365 34.9144 50.0193 35.2929 50.0193 35.8066V36.0139C50.0193 36.5546 50.1455 36.9242 50.4068 37.1044C50.6592 37.2847 50.9836 37.3748 51.3802 37.3748C51.7227 37.3748 52.0201 37.2666 52.2905 37.0503C52.5608 36.825 52.696 36.4825 52.696 36.0049Z" fill="black"/>
<path d="M63.7093 38.6997H61.5012V33.0668C61.5012 32.8596 61.4111 32.6703 61.2308 32.481C61.0596 32.3008 60.7982 32.2107 60.4647 32.2107C60.1313 32.2107 59.8609 32.2738 59.6356 32.4089C59.3923 32.5441 59.194 32.7154 59.0138 32.9227V38.6906H56.8057V30.6695H58.9327L58.9777 31.9403C59.1399 31.5618 59.4464 31.2283 59.897 30.9309C60.3566 30.6335 60.9154 30.4983 61.5733 30.4983C62.2312 30.4983 62.7539 30.7056 63.1325 31.1292C63.52 31.5528 63.7003 32.1926 63.7003 33.0578V38.6906L63.7093 38.6997Z" fill="black"/>
<path d="M73.1002 38.6996H70.5046L67.9721 35.4281V38.6996H65.7641V28.173H67.9721V33.923L70.6308 30.6695H72.6677L69.6034 34.2384L73.1002 38.6906V38.6996Z" fill="black"/>
<path d="M84.0144 35.5633C84.0144 36.6809 83.6449 37.501 82.9059 38.0327C82.1669 38.5645 81.1485 38.8348 79.8326 38.8348C79.0846 38.8348 78.4447 38.7898 77.931 38.6997C77.4173 38.6095 76.9847 38.5014 76.6512 38.3662V36.5637C76.9126 36.7259 77.3271 36.8701 77.8859 37.0053C78.4447 37.1405 78.9945 37.2126 79.5442 37.2126C80.3103 37.2126 80.833 37.1044 81.1214 36.9062C81.4098 36.6989 81.545 36.3654 81.545 35.8878C81.545 35.5813 81.4459 35.311 81.2386 35.0676C81.0313 34.8243 80.4365 34.5179 79.4721 34.1303C78.6971 33.8149 78.1022 33.4093 77.6787 32.9227C77.2551 32.436 77.0478 31.76 77.0478 30.9129C77.0478 30.0657 77.3902 29.4168 78.0662 28.858C78.7511 28.2992 79.6975 28.0289 80.8961 28.0289C81.4819 28.0289 82.0047 28.0739 82.4733 28.1641C82.942 28.2632 83.2664 28.3443 83.4556 28.4164V30.0026C83.0591 29.9035 82.6715 29.8224 82.275 29.7503C81.8784 29.6782 81.4729 29.6421 81.0223 29.6421C80.4004 29.6421 79.9408 29.7412 79.6704 29.9395C79.391 30.1378 79.2558 30.3811 79.2558 30.6785C79.2558 31.0481 79.364 31.3274 79.5622 31.5167C79.7695 31.706 80.3824 31.9854 81.3828 32.3549C82.3201 32.6973 82.996 33.1299 83.3925 33.6617C83.7891 34.1934 83.9964 34.8153 83.9964 35.5453V35.5633H84.0144Z" fill="black"/>
<path d="M87.7275 28.894C87.7275 29.2275 87.6104 29.5159 87.3851 29.7322C87.1597 29.9575 86.8803 30.0747 86.5559 30.0747C86.2314 30.0747 85.9611 29.9575 85.7358 29.7322C85.5104 29.5069 85.3933 29.2275 85.3933 28.894C85.3933 28.5606 85.5104 28.2902 85.7358 28.0649C85.9611 27.8396 86.2314 27.7224 86.5559 27.7224C86.8803 27.7224 87.1597 27.8396 87.3851 28.0649C87.6104 28.2902 87.7275 28.5696 87.7275 28.894ZM87.6644 38.6996H85.4564V30.6785H87.6644V38.6996Z" fill="black"/>
<path d="M96.6139 38.6997H94.4058V33.0668C94.4058 32.8596 94.3157 32.6703 94.1355 32.481C93.9552 32.3008 93.7118 32.2107 93.3784 32.2107C93.0449 32.2107 92.7746 32.2738 92.5402 32.4089C92.2969 32.5441 92.0986 32.7154 91.9274 32.9227V38.6906H89.7193V30.6695H91.8462L91.8914 31.9403C92.0536 31.5618 92.36 31.2283 92.8196 30.9309C93.2793 30.6335 93.838 30.4983 94.4959 30.4983C95.1538 30.4983 95.6766 30.7056 96.0551 31.1292C96.4427 31.5528 96.6229 32.1926 96.6229 33.0578V38.6906H96.6139V38.6997Z" fill="black"/>
<path d="M106.32 34.9324C106.32 36.1761 105.96 37.1404 105.266 37.8434C104.563 38.5374 103.59 38.8889 102.346 38.8889C101.102 38.8889 100.147 38.5284 99.4259 37.8254C98.7049 37.1134 98.3443 36.1491 98.3443 34.9414V34.4277C98.3443 33.247 98.7048 32.2917 99.4168 31.5617C100.129 30.8317 101.102 30.4712 102.337 30.4712C103.572 30.4712 104.554 30.8407 105.266 31.5707C105.969 32.3097 106.32 33.2561 106.32 34.4277V34.9414V34.9324ZM104.058 34.7341V34.6169C104.058 33.5354 103.896 32.7964 103.563 32.3999C103.229 32.0033 102.824 31.8141 102.346 31.8141C101.868 31.8141 101.436 32.0213 101.12 32.4449C100.805 32.8685 100.652 33.5895 100.652 34.6259V34.7431C100.652 35.8697 100.805 36.6267 101.111 36.9962C101.418 37.3657 101.832 37.555 102.355 37.555C102.824 37.555 103.229 37.3748 103.563 37.0143C103.896 36.6538 104.058 35.8877 104.058 34.7431V34.7341Z" fill="black"/>
<path d="M114.972 31.742C114.972 32.6342 114.702 33.3102 114.161 33.7608C113.62 34.2204 112.845 34.4457 111.818 34.4457H110.394V38.6996H108.051V28.173H111.962C113.08 28.173 113.864 28.4434 114.305 28.9932C114.747 29.5429 114.963 30.1738 114.963 30.9038V31.733L114.972 31.742ZM112.566 31.8952V30.8858C112.566 30.4892 112.458 30.1918 112.233 30.0026C112.007 29.8043 111.647 29.7142 111.142 29.7142H110.403V33.0037H111.259C111.629 33.0037 111.935 32.9046 112.197 32.7153C112.449 32.5261 112.566 32.2557 112.566 31.8952Z" fill="black"/>
<path d="M122.867 38.6996H120.803L120.758 37.6452C120.596 37.9786 120.299 38.258 119.902 38.4653C119.506 38.6726 119.037 38.7897 118.505 38.7897C117.631 38.7897 116.964 38.5644 116.513 38.1138C116.054 37.6722 115.838 36.9872 115.838 36.086V35.9508C115.838 35.0586 116.135 34.3646 116.748 33.8779C117.352 33.3913 118.163 33.1479 119.172 33.1479C119.488 33.1479 119.785 33.193 120.082 33.2831C120.38 33.3732 120.596 33.4814 120.74 33.6166V32.8235C120.74 32.5531 120.614 32.3188 120.371 32.1295C120.127 31.9403 119.767 31.8411 119.316 31.8411C118.83 31.8411 118.388 31.8952 118.01 32.0123C117.631 32.1205 117.298 32.2557 117.018 32.4269V31.057C117.379 30.9128 117.784 30.7867 118.235 30.6695C118.676 30.5613 119.226 30.5073 119.866 30.5073C120.894 30.5073 121.651 30.7416 122.137 31.2102C122.624 31.6789 122.876 32.4179 122.876 33.4543V38.6996H122.867ZM120.74 36.0049V35.7976C120.74 35.3109 120.623 34.9414 120.398 34.6891C120.173 34.4367 119.839 34.3105 119.406 34.3105C118.992 34.3105 118.667 34.4367 118.424 34.671C118.181 34.9144 118.064 35.2929 118.064 35.8066V36.0139C118.064 36.5546 118.19 36.9242 118.451 37.1044C118.704 37.2847 119.037 37.3748 119.425 37.3748C119.767 37.3748 120.064 37.2666 120.335 37.0503C120.605 36.825 120.74 36.4825 120.74 36.0049Z" fill="black"/>
<path d="M130.861 38.267C130.771 38.3391 130.51 38.4653 130.086 38.6275C129.654 38.7987 129.203 38.8709 128.734 38.8709C127.455 38.8709 126.418 38.5374 125.67 37.8614C124.913 37.1855 124.535 36.1851 124.535 34.8423V34.4998C124.535 33.2831 124.913 32.3007 125.652 31.5617C126.4 30.8227 127.41 30.4532 128.671 30.4532C129.176 30.4532 129.627 30.5163 130.032 30.6515C130.438 30.7776 130.717 30.9218 130.861 31.066V32.49C130.663 32.3098 130.402 32.1656 130.068 32.0394C129.744 31.9132 129.383 31.8591 128.996 31.8591C128.32 31.8591 127.815 32.1025 127.455 32.5891C127.094 33.0758 126.923 33.7427 126.923 34.5899V34.7341C126.923 35.6804 127.067 36.3564 127.355 36.7529C127.644 37.1495 128.112 37.3387 128.752 37.3387C129.176 37.3387 129.6 37.2756 130.014 37.1404C130.429 37.0053 130.699 36.8701 130.852 36.7439V38.276H130.843L130.861 38.258V38.267Z" fill="black"/>
<path d="M40.0874 11.4008H47.2884L47.8202 12.1038C47.3515 15.4384 44.9902 18.4756 40.7183 21.2064L39.3484 19.6472C40.9526 18.8271 42.1784 18.025 43.0436 17.2679C43.7736 16.6371 44.4405 15.853 45.0804 14.9517C45.54 14.2668 45.7833 13.7891 45.8374 13.5277C45.8825 13.4286 45.8825 13.3565 45.8374 13.3024C45.7473 13.2393 45.585 13.1943 45.3778 13.1943H40.0874V11.3918V11.4008ZM50.8393 13.6179V20.5124C50.8393 21.3416 50.551 21.9905 49.9742 22.4591C49.5506 22.8467 48.8386 23.0359 47.8382 23.0359C46.7026 23.0269 45.5941 22.8827 44.5126 22.6214L44.3864 20.6296C46.5134 21.2154 47.8562 21.3776 48.424 21.0892C48.7665 20.8189 48.9467 20.4043 48.9557 19.8725V9.60732C48.9557 9.40904 48.8476 9.31892 48.6493 9.31892H40.6282V7.51642H50.2535C50.6501 7.52543 50.8394 7.74173 50.8304 8.1563V8.88632C51.7496 11.5901 52.7049 13.6719 53.7053 15.141C54.922 16.9345 56.7335 18.728 59.1218 20.5214L57.5176 21.7381C54.5525 19.3048 52.3174 16.61 50.8213 13.6269H50.8304L50.8393 13.6179ZM42.9534 5.39849L43.2238 3.55994C44.1972 3.62302 45.9456 3.81229 48.4511 4.11871C50.8664 4.38008 53.0294 4.72255 54.913 5.12811L54.5164 6.94863C50.9475 6.11949 47.0902 5.59676 42.9444 5.39849H42.9534ZM57.6348 7.25506L58.9326 8.51681C57.8601 9.84164 56.4181 11.2386 54.6065 12.6986L53.3989 11.3467C55.3095 9.76954 56.7335 8.40866 57.6438 7.24605L57.6348 7.25506Z" fill="black"/>
<path d="M68.8824 21.4137C68.8013 21.2154 68.7202 21.0351 68.6301 20.8549C68.4589 20.5304 68.3146 20.2421 68.2155 20.0258H65.5928C65.4667 20.0258 65.4126 19.9627 65.4126 19.8185V16.4298C65.4126 16.3036 65.4757 16.2405 65.5928 16.2405H80.6978C80.833 16.2405 80.9051 16.3036 80.9051 16.4298V19.8185C80.9051 19.9536 80.842 20.0258 80.6978 20.0258H77.994C77.9039 20.2871 77.7597 20.6116 77.5795 20.9991C77.4984 21.1343 77.4262 21.2695 77.3722 21.4137H82.9509V22.8827H63.3037V21.4137H68.8734H68.8824ZM63.8174 14.0054H82.5453V15.3933H63.8174V14.0054ZM76.6692 10.6257H74.7405V9.31891H76.6692V8.30952H74.7405V7.0027H76.6692V5.90318H74.7405V4.59637H76.6692V3.39771H78.1292V4.59637H79.8506V5.90318H78.1292V7.0027H79.7695V8.30952H78.1292V9.31891H79.7695V10.6257H78.1292V11.6802H80.3463C80.5176 11.6802 80.6167 11.5901 80.6167 11.4098V3.75821H82.2389V12.3922C82.2389 12.8518 82.0136 13.0771 81.563 13.0771H64.7727C64.3401 13.0771 64.1148 12.8518 64.1148 12.3922V3.75821H65.7371V11.4098C65.7371 11.5901 65.8181 11.6802 65.9894 11.6802H68.2335V10.6257H66.3859V9.31891H68.2335V8.21939H66.4671V6.91258H68.2335V5.90318H66.3859V4.59637H68.2335V3.47882H69.6936V4.59637H71.3338V5.90318H69.6936V6.91258H71.3338V8.21939H69.6936V9.31891H71.4149V10.6257H69.6936V11.6802H72.2531V3.48783H73.8753V11.6892H76.6872V10.6347L76.6692 10.6257ZM79.373 17.6284H66.9357C66.8817 17.6284 66.8636 17.6465 66.8726 17.6915V18.5567C66.8636 18.6018 66.8727 18.6198 66.9357 18.6378H79.373C79.427 18.6288 79.454 18.5928 79.454 18.5567V17.6915C79.454 17.6915 79.427 17.6284 79.373 17.6284ZM70.6399 21.4137H75.6058C75.8311 20.945 76.0654 20.4764 76.2817 20.0258H70C70.1351 20.2871 70.3515 20.7558 70.6308 21.4137H70.6399Z" fill="black"/>
<path d="M92.378 4.9569C91.5759 6.02939 90.3411 7.16496 88.7009 8.37264L87.1687 7.31817C89.4579 5.90321 90.945 4.56936 91.6389 3.28058H93.2612C93.2161 3.38873 93.1711 3.50589 93.117 3.63207L93.153 3.587C94.0903 4.47924 95.0457 5.3174 96.0461 6.07445L94.7032 7.29113C93.856 6.53408 93.0719 5.75 92.3599 4.9569H92.378ZM87.349 15.5556L88.9082 15.0779C89.3678 16.1594 89.7102 17.4843 89.9806 19.0705L88.3764 19.458C88.07 17.7727 87.7365 16.4659 87.349 15.5466V15.5556ZM90.8098 20.4133V14.0866H87.6825V12.4553H90.8098V10.2833H88.6017V8.65202H94.7753V10.2833H92.5222V12.4553H95.4422V14.0866H92.5222V20.0258C93.838 19.6653 94.7032 19.4219 95.1268 19.2958L95.4783 20.9721C92.387 21.8012 89.8725 22.36 87.9438 22.6484L87.7185 20.9721C88.6648 20.8189 89.7013 20.6386 90.8188 20.4133H90.8098ZM94.0002 15.096L95.4332 15.6097C95.1719 16.592 94.8474 17.6014 94.4689 18.6288L93.072 18.025C93.5046 16.9075 93.82 15.9251 93.9912 15.0869L94.0002 15.096ZM102.472 17.0246C103.77 16.0062 104.77 15.114 105.473 14.3479L106.582 15.5646C105.744 16.4929 104.653 17.4572 103.292 18.4576C104.32 19.7554 105.545 20.8639 106.978 21.7832L105.464 22.9819C103.95 21.8012 102.977 20.918 102.571 20.3322C101.03 18.5297 100.183 16.3036 100.048 13.6449H98.182V20.6386C99.3446 20.2781 100.336 19.9357 101.156 19.5842L101.715 21.2154C100.057 21.9635 98.0108 22.5853 95.5684 23.099L95.0998 21.4227C95.5684 21.2965 96.028 21.1884 96.4696 21.0983V4.39813C96.4696 4.07368 96.6318 3.90244 96.9653 3.90244H105.131C105.473 3.90244 105.644 4.06466 105.644 4.39813V13.1042C105.635 13.4647 105.446 13.6449 105.113 13.6449H101.751C101.859 14.9968 102.102 16.1144 102.472 16.9976V17.0246ZM98.182 7.9851H103.95V5.95729C103.941 5.69593 103.797 5.56074 103.535 5.56074H98.5876C98.2992 5.56975 98.164 5.71395 98.173 5.97531V7.9851H98.182ZM103.95 9.62537H98.182V12.0497H103.499C103.797 12.0497 103.959 11.8965 103.959 11.5901V9.62537H103.95Z" fill="black"/>
<path d="M114.071 14.7985C113.575 15.3122 113.125 15.7538 112.701 16.1233L111.241 14.9607C113.296 13.2303 114.819 11.2025 115.819 8.83222L117.442 9.58026C116.892 10.6978 116.36 11.6531 115.864 12.4552V23.0539H114.08V14.7985H114.071ZM115.035 3.50584L116.694 4.14573C115.594 6.7954 114.332 8.76913 112.899 10.0399L111.385 8.98544C113.044 7.48035 114.26 5.65982 115.035 3.49683V3.50584ZM125.724 11.2205H118.208V9.41803H130.789V11.2205H127.5V20.7377C127.491 21.5398 127.175 22.1527 126.553 22.5582C125.418 23.3063 123.354 23.2342 120.353 22.351L120.398 20.4673C121.47 20.7828 122.516 21.0351 123.534 21.2154C124.444 21.3235 125.111 21.2154 125.526 20.8639C125.652 20.7557 125.715 20.5485 125.715 20.2601V11.2205H125.724ZM118.875 4.45215H129.978V6.25465H118.875V4.45215Z" fill="black"/>
<path d="M29.4528 14.8526C29.4528 23.0539 22.8647 29.7052 14.7264 29.7052C6.5881 29.7052 0 23.0539 0 14.8526C0 6.65121 6.59711 0 14.7264 0C22.8556 0 29.4528 6.65121 29.4528 14.8526Z" fill="#E72410"/>
<path d="M20.0437 5.36243H16.3577V9.07558H20.0437V5.36243Z" fill="white"/>
<path d="M3.26245 15.6817V18.9803H6.53399V22.2788H9.80553V15.6817H3.25343H3.26245Z" fill="white"/>
<path d="M4.08261 9.0756V12.3742H13.0771V22.2699H16.3486V9.06659H4.07364L4.08261 9.0756Z" fill="white"/>
<path d="M19.6292 12.3741V22.2698H22.9007V15.6727H27.0015V12.3741H19.6292Z" fill="white"/>
<path d="M160 0V41.6667" stroke="black" stroke-width="0.809362"/>
</svg>
