<svg width="127" height="124" viewBox="0 0 127 124" fill="none" xmlns="http://www.w3.org/2000/svg">
<path d="M119.75 53.06C119.75 58.13 116.37 61.51 111.3 61.51H89.4604C86.8604 61.51 85.5603 62.81 85.5603 65.41V96.48C85.5603 102.2 86.2103 102.85 90.7603 102.85C92.7103 102.85 99.8603 102.85 102.07 102.85C103.76 102.85 104.93 102.46 105.71 101.03C106.88 92.58 110.39 84.26 118.19 87.77C123.13 89.98 123.65 98.3 123 103.76C120.27 116.24 114.94 120.4 103.76 120.4C100.38 120.4 91.0204 120.4 87.7704 120.4C72.0403 120.4 67.1003 115.07 67.1003 96.61V52.02C67.1003 46.95 70.4803 43.57 75.5503 43.57H97.6504C100.25 43.57 101.55 42.27 101.55 39.67V26.93C101.55 24.33 100.25 23.03 97.6504 23.03H75.6803C69.5703 23.03 66.5804 20.04 66.5804 13.93C66.5804 7.82 69.5703 4.83 75.6803 4.83H111.3C116.37 4.83 119.75 8.20999 119.75 13.28V53.06ZM41.8803 99.21C44.4803 99.21 45.7803 97.91 45.7803 95.31V92.84H19.0003V96.48C19.0003 98.3 19.9103 99.21 21.7303 99.21H41.8803ZM29.9203 65.15C29.4003 67.23 28.7503 69.31 27.9703 71.26C26.2803 74.12 23.4203 74.64 20.9503 72.3C20.3003 71.78 19.5203 71.26 19.0003 70.87V80.1H45.7803V73.08H44.7403C43.7003 73.08 42.6603 73.08 41.4903 73.08C35.5103 73.08 33.8203 71 33.8203 62.55V43.31H30.9603V53.58C30.9603 57.09 30.7003 61.12 29.9203 65.15ZM5.09033 36.29C5.09033 31.22 8.47034 27.84 13.5403 27.84H19.6503V19.91H11.3303C5.87032 19.91 3.14032 17.05 3.14032 11.59C3.14032 6.13 5.87032 3.39999 11.3303 3.39999H54.6203C60.0803 3.39999 62.8103 6.13 62.8103 11.59C62.8103 17.05 60.0803 19.91 54.6203 19.91H47.4703V27.84H54.3603C58.1303 27.84 60.4703 30.18 60.4703 33.95V105.19C60.4703 110.26 57.0904 113.64 52.0204 113.64H13.5403C8.47034 113.64 5.09033 110.26 5.09033 105.19V36.29ZM35.3803 19.91H31.4803V27.84H35.3803V19.91ZM22.3803 61.77C22.9003 58.91 22.9003 56.05 22.9003 53.45V43.31H20.5603C19.5203 43.31 19.0003 43.83 19.0003 44.87V70.09C20.8203 67.49 21.8603 64.63 22.3803 61.77ZM42.0103 63.46C42.0103 63.72 42.1404 63.98 42.1404 64.11C42.1404 64.37 42.4003 64.37 42.6603 64.37C42.9203 64.37 43.1803 64.37 43.4403 64.37C44.2203 64.37 44.6103 64.24 44.8703 64.11C45.0003 63.98 45.1303 63.98 45.3904 64.11L45.7803 64.37V46.69C45.7803 44.35 44.7404 43.31 42.4004 43.31H42.0103V62.42C42.0103 62.81 42.0103 63.2 42.0103 63.46Z" fill="url(#paint0_linear_4503_28162)"/>
<path d="M112.279 84.2916C114.555 83.6323 116.977 83.9338 119.422 85.0338H119.421C123.204 86.729 124.887 90.5529 125.622 93.9039C126.381 97.3679 126.33 101.169 125.979 104.115L125.963 104.259L125.931 104.401C124.51 110.898 122.297 115.824 118.487 119.049C114.639 122.307 109.676 123.4 103.76 123.4H87.7702C79.7403 123.4 73.393 122.081 69.2839 117.409C65.2881 112.865 64.1003 105.888 64.1003 96.61V52.0201C64.1003 48.8034 65.1853 45.8892 67.3024 43.7721C69.4195 41.655 72.3337 40.5699 75.5505 40.5699V43.5699L75.0798 43.5797C70.2723 43.7828 67.1003 47.1086 67.1003 52.0201V96.61C67.1003 115.07 72.0403 120.4 87.7702 120.4H103.76L104.792 120.387C114.933 120.14 120.022 116.122 122.737 104.906L123.001 103.76C123.641 98.3857 123.146 90.2399 118.419 87.8785L118.19 87.7701C110.39 84.2603 106.881 92.58 105.711 101.03C104.931 102.46 103.76 102.85 102.07 102.85V99.8502C102.493 99.8502 102.734 99.8128 102.861 99.7838C103.506 95.6509 104.752 91.2351 107.053 88.1285C108.321 86.4176 110.031 84.9429 112.279 84.2916ZM2.09052 105.19V36.2896C2.09059 33.0731 3.17573 30.1596 5.29266 28.0426C7.40975 25.9255 10.324 24.8404 13.5407 24.8404V27.8404L13.07 27.8502C8.26251 28.0533 5.09067 31.3783 5.09052 36.2896V105.19L5.10028 105.661C5.29695 110.313 8.4176 113.434 13.07 113.63L13.5407 113.64H52.0202L52.4909 113.63C57.1432 113.434 60.264 110.313 60.4606 105.661L60.4704 105.19V33.9498C60.4703 30.2978 58.2743 27.9881 54.7097 27.8473L54.36 27.8404V24.8404C56.8724 24.8404 59.2233 25.6323 60.9509 27.36C62.6782 29.0875 63.4704 31.4376 63.4704 33.9498V105.19C63.4704 108.407 62.3851 111.32 60.2682 113.437C58.1512 115.554 55.2369 116.64 52.0202 116.64H13.5407C10.324 116.64 7.40975 115.554 5.29266 113.437C3.17577 111.32 2.09052 108.407 2.09052 105.19ZM102.07 99.8502V102.85H90.7604V99.8502H102.07ZM85.5602 96.4801V65.4098C85.5603 62.8912 86.7805 61.593 89.2204 61.5143L89.4606 61.5103H111.3L111.77 61.5006C116.423 61.3043 119.545 58.1828 119.741 53.5299L119.751 53.0602V13.2799C119.751 8.36822 116.578 5.04231 111.77 4.83945L111.3 4.82968V1.82968C114.517 1.82972 117.43 2.91575 119.548 5.03281C121.665 7.14986 122.751 10.0632 122.751 13.2799V53.0602C122.751 56.2768 121.665 59.1902 119.548 61.3072C117.43 63.4243 114.517 64.5103 111.3 64.5103H89.4606C88.9862 64.5103 88.7562 64.5783 88.6657 64.6158C88.6282 64.7066 88.5603 64.9364 88.5602 65.4098V96.4801C88.5602 97.8947 88.6038 98.8125 88.6989 99.4361C88.7182 99.5623 88.7377 99.6629 88.7556 99.7418C89.1275 99.8079 89.7283 99.8502 90.7604 99.8502V102.85L89.9518 102.841C86.3862 102.755 85.6512 101.96 85.569 97.4937L85.5602 96.4801ZM19.0007 96.4801V92.8404H45.78V95.3102C45.7799 97.91 44.4804 99.2095 41.8806 99.2096V96.2096C42.3534 96.2095 42.5825 96.1407 42.6735 96.1031C42.6928 96.0564 42.7214 95.9742 42.7429 95.8404H22.0007V96.2096H41.8806V99.2096H21.7302C20.0239 99.2095 19.1179 98.41 19.0114 96.8102L19.0007 96.4801ZM33.82 43.3102V62.5504L33.8249 63.3238C33.9297 71.1278 35.6972 73.0796 41.4899 73.0797H45.78V80.1002H19.0007V70.8697C19.5206 71.2597 20.2999 71.7804 20.9499 72.3004C23.3427 74.5673 26.1017 74.1496 27.8083 71.5211L27.9704 71.2603C28.653 69.5539 29.236 67.7477 29.7194 65.9293L29.9206 65.15C30.7006 61.12 30.9606 57.0897 30.9606 53.5797V43.3102H33.82ZM31.6345 69.9801C31.3621 70.7896 31.0692 71.5905 30.7556 72.3746L30.6706 72.5875L30.5534 72.7857C29.3809 74.7699 27.5608 76.3234 25.2204 76.693C24.1035 76.8693 23.0188 76.7493 22.0007 76.4039V77.1002H42.78V76.0797H41.4899C38.3189 76.0796 35.0785 75.5674 33.0036 72.7721C32.3817 71.9342 31.9468 70.9884 31.6345 69.9801ZM20.5602 43.3102H22.9001V53.4498C22.9001 56.0498 22.9006 58.9101 22.3806 61.7701L22.277 62.3062C21.7276 64.9865 20.7069 67.6529 19.0007 70.0904V44.8697C19.0008 43.8948 19.4576 43.3768 20.3718 43.316L20.5602 43.3102ZM42.4001 43.3102C44.7401 43.3102 45.78 44.35 45.78 46.69V64.3697L45.3903 64.11C45.1305 63.9801 45.0007 63.9802 44.8708 64.11C44.6108 64.24 44.2201 64.3697 43.4401 64.3697H42.6599C42.4 64.3697 42.1403 64.3698 42.1403 64.11C42.1403 63.9962 42.0412 63.7829 42.0163 63.5572L42.0104 63.4596V43.3102H42.4001ZM97.6501 40.5699V43.5699H75.5505V40.5699H97.6501ZM98.5505 39.6695V26.9303C98.5505 26.4555 98.4815 26.2257 98.444 26.1353C98.3529 26.0978 98.1229 26.0299 97.6501 26.0299H75.6804C72.1792 26.0299 68.9978 25.1726 66.7175 22.8922C65.444 21.6186 64.6148 20.064 64.1306 18.3297C63.7845 18.887 63.3802 19.4116 62.9089 19.8941C60.7948 22.0584 57.8489 22.9097 54.6208 22.9098H50.4704V24.8404H54.36V27.8404H47.4704V19.9098H54.6208L55.1247 19.9019C60.0831 19.7345 62.6424 17.0603 62.8024 12.0943L62.8102 11.5904C62.8102 6.30121 60.2485 3.57325 55.1247 3.40781L54.6208 3.39999V0.399994C57.813 0.40007 60.7585 1.19987 62.8845 3.32578C63.9457 4.387 64.6754 5.65304 65.1413 7.05136C65.566 6.29611 66.0875 5.59738 66.7175 4.96738C68.9978 2.687 72.1792 1.82968 75.6804 1.82968V4.82968L75.1169 4.83847C69.3864 5.01955 66.5807 8.01112 66.5807 13.9303L66.5895 14.4937C66.7649 20.0392 69.5713 22.8458 75.1169 23.0211L75.6804 23.0299H97.6501C100.25 23.0299 101.55 24.3303 101.55 26.9303V39.6695L101.547 39.9098C101.468 42.3499 100.169 43.5699 97.6501 43.5699V40.5699C98.1236 40.5699 98.3532 40.501 98.444 40.4635C98.4816 40.3724 98.5505 40.1425 98.5505 39.6695ZM0.14032 11.5904C0.14032 8.39799 0.940062 5.45181 3.0661 3.32578C5.19214 1.19974 8.13831 0.399994 11.3307 0.399994V3.39999L10.8268 3.40781C5.70249 3.57297 3.14032 6.30091 3.14032 11.5904L3.14813 12.0943C3.30812 17.0606 5.86781 19.7347 10.8268 19.9019L11.3307 19.9098H19.6501V27.8404H13.5407V24.8404H16.6501V22.9098H11.3307C8.10243 22.9098 5.1559 22.0585 3.04169 19.8941C0.939927 17.7423 0.140391 14.7827 0.14032 11.5904ZM35.3806 19.9098V27.8404H31.4802V19.9098H35.3806ZM111.3 1.82968V4.82968H75.6804V1.82968H111.3ZM54.6208 0.399994V3.39999H11.3307V0.399994H54.6208Z" fill="url(#paint1_linear_4503_28162)"/>
<defs>
<linearGradient id="paint0_linear_4503_28162" x1="-110" y1="128" x2="-110" y2="-17" gradientUnits="userSpaceOnUse">
<stop offset="0.173077" stop-color="#5A4E4C"/>
<stop offset="0.485577" stop-color="#A48883"/>
<stop offset="0.706761" stop-color="#8C7773"/>
</linearGradient>
<linearGradient id="paint1_linear_4503_28162" x1="-403.822" y1="-16.799" x2="209.638" y2="203.109" gradientUnits="userSpaceOnUse">
<stop stop-color="#FCF5EC"/>
<stop offset="1" stop-color="#FEFBF8"/>
</linearGradient>
</defs>
</svg>
