<svg width="123" height="126" viewBox="0 0 123 126" fill="none" xmlns="http://www.w3.org/2000/svg">
<path d="M82.7299 32.25C84.6798 32.25 85.5899 31.34 85.5899 29.39V29H36.4498V31.08C36.4498 31.86 36.8398 32.25 37.6198 32.25H82.7299ZM85.5899 17.95V16C85.5899 15.22 85.1999 14.83 84.4199 14.83H39.1798C37.3598 14.83 36.4498 15.74 36.4498 17.56V17.95H85.5899ZM95.9899 3C101.06 3 104.44 6.38 104.44 11.45V35.63C104.44 40.7 101.06 44.08 95.9899 44.08H26.9598C21.8898 44.08 18.5098 40.7 18.5098 35.63V11.45C18.5098 6.38 21.8898 3 26.9598 3H95.9899ZM29.9498 62.15V65.27H43.2099V62.15H29.9498ZM61.1498 62.15V103.23C61.1498 105.83 62.3198 106.61 64.7898 105.57C68.8199 103.88 72.5899 101.67 76.0999 99.2C73.8899 96.47 71.8099 93.48 69.8598 90.36C67.3898 85.29 69.2098 81 74.4099 79.57L75.4499 79.31H70.5098C65.8299 79.31 63.4899 76.84 63.4899 72.16C63.4899 67.48 65.8299 65.14 70.5098 65.14H106.65C112.37 65.14 115.1 68.65 113.28 76.06C110.16 86.07 106 93.22 101.19 99.33C103.79 100.89 106.65 102.32 109.77 103.62C117.7 106.09 120.3 109.73 115.36 116.49C112.24 120.65 108.34 121.17 103.4 119.48C98.0698 117.27 93.1299 114.67 88.8399 111.42C84.9398 114.28 80.9099 116.88 76.4898 119.09C71.8099 121.3 67.2599 119.74 64.9198 115.71C63.7498 113.89 62.4498 112.07 61.1498 110.51V113.37C61.1498 119.35 58.1598 122.34 52.1798 122.34C46.1998 122.34 43.2099 119.35 43.2099 113.37V112.98L11.6198 115.32C6.28985 115.71 3.42985 113.24 3.03985 107.91C2.64985 102.45 5.11984 99.72 10.5798 99.46L13.0498 99.33V62.15H10.9698C6.02985 62.15 3.55985 59.68 3.55985 54.74C3.55985 49.8 6.02985 47.33 10.9698 47.33H112.11C117.05 47.33 119.52 49.8 119.52 54.74C119.52 59.68 117.05 62.15 112.11 62.15H61.1498ZM90.9198 83.99C91.9598 82.43 92.8699 80.87 93.6498 79.31H85.1999C82.5999 79.31 81.9498 80.48 83.2499 82.69C83.6399 83.08 83.8999 83.6 84.1599 83.99C85.3299 85.55 86.4999 86.98 87.6699 88.41C88.8399 86.98 89.8799 85.55 90.9198 83.99ZM29.9498 78.01V81.52H43.2099V78.01H29.9498ZM29.9498 94.26V98.42L43.2099 97.64V94.26H29.9498Z" fill="url(#paint0_linear_4503_28152)"/>
<path d="M0.559533 54.7402C0.559533 51.8079 1.29507 49.0575 3.29098 47.0615C5.28699 45.0655 8.0373 44.3301 10.9697 44.3301V47.3301L10.5136 47.3369C5.87774 47.4866 3.55953 49.9547 3.55953 54.7402L3.56735 55.1963C3.7122 59.6824 6.02744 61.9978 10.5136 62.1426L10.9697 62.1504H13.0498V99.3301L10.58 99.46L10.0771 99.4912C4.96833 99.8928 2.66218 102.621 3.04 107.91C3.41785 113.073 6.11338 115.553 11.1269 115.349L11.6201 115.32L43.2099 112.98V113.37C43.21 119.35 46.1998 122.34 52.1796 122.34C58.1596 122.34 61.1493 119.35 61.1494 113.37V110.51C62.4494 112.07 63.7499 113.89 64.9199 115.71C67.1868 119.614 71.5277 121.2 76.0517 119.286L76.4902 119.09C80.9101 116.88 84.9399 114.28 88.8398 111.42C93.1297 114.67 98.0695 117.27 103.399 119.48C108.185 121.118 111.995 120.68 115.065 116.869L115.359 116.49C120.299 109.73 117.699 106.09 109.769 103.62C106.65 102.32 103.789 100.89 101.189 99.3301C105.849 93.411 109.899 86.5159 112.984 76.9902L113.28 76.0596C115.1 68.6499 112.369 65.1396 106.649 65.1396H70.5097C65.8298 65.1397 63.4902 67.4802 63.4902 72.1602C63.4902 76.84 65.8298 79.3095 70.5097 79.3096H75.4502L74.4101 79.5703C69.2101 81.0003 67.3893 85.2904 69.8593 90.3604C71.8093 93.4803 73.8896 96.4702 76.0996 99.2002C72.5897 101.67 68.8199 103.88 64.79 105.57C62.4744 106.545 61.3017 105.92 61.164 103.696L61.1494 103.23V62.1504H112.109L112.565 62.1426C117.052 61.998 119.368 59.6827 119.513 55.1963L119.519 54.7402C119.519 49.9545 117.202 47.4864 112.565 47.3369L112.109 47.3301V44.3301C115.042 44.3301 117.793 45.0655 119.789 47.0615C121.785 49.0575 122.519 51.808 122.519 54.7402C122.519 57.6725 121.785 60.423 119.789 62.4189C118.315 63.893 116.429 64.6768 114.362 64.9873C114.705 65.3479 115.023 65.7468 115.31 66.1885C117.143 69.0155 117.182 72.7494 116.193 76.7754L116.171 76.8652L116.144 76.9531C113.368 85.8571 109.78 92.6202 105.647 98.3887C107.272 99.2375 108.997 100.044 110.822 100.808C114.772 102.055 118.472 103.876 120.078 107.113C121.88 110.747 120.429 114.637 117.782 118.26L117.771 118.275L117.76 118.29C115.851 120.834 113.516 122.487 110.711 123.107C107.988 123.71 105.181 123.26 102.429 122.318L102.339 122.288L102.251 122.251C97.4788 120.272 92.9335 117.959 88.833 115.118C85.3765 117.555 81.762 119.808 77.831 121.773L77.8017 121.788L77.7705 121.803C74.8282 123.192 71.7511 123.467 68.9482 122.608C66.6901 121.916 64.7524 120.53 63.291 118.648C62.7909 119.985 62.0535 121.193 61.0283 122.219C58.7723 124.475 55.632 125.34 52.1796 125.34C48.7273 125.34 45.587 124.475 43.331 122.219C41.7089 120.597 40.8081 118.517 40.4287 116.193L11.8418 118.312H11.8388C8.71263 118.54 5.76111 117.969 3.51656 116.03C1.27204 114.092 0.27656 111.255 0.0478145 108.129V108.124C-0.178057 104.962 0.378292 101.97 2.38082 99.7334C4.29635 97.5941 7.04932 96.6904 10.0498 96.4873V65.1221C7.46635 64.9783 5.0767 64.2046 3.29098 62.4189C1.29499 60.423 0.559572 57.6726 0.559533 54.7402ZM64.1494 102.58C66.7888 101.435 69.3268 100.049 71.7636 98.4961C70.2068 96.3994 68.7227 94.2019 67.3154 91.9502L67.2324 91.8164L67.163 91.6738C65.665 88.5988 65.2706 85.3313 66.4951 82.4326C66.5875 82.2137 66.6882 82.0007 66.7959 81.793C65.8435 81.501 64.9518 81.0772 64.1494 80.4941V102.58ZM43.2099 94.2598V97.6396L29.9502 98.4199V94.2598H43.2099ZM85.2002 79.3096H93.6494C92.8694 80.8696 91.9599 82.4302 90.9199 83.9902L90.1377 85.1377C89.3516 86.265 88.5474 87.3377 87.6699 88.4102C86.5 86.9802 85.33 85.5501 84.1601 83.9902C83.9002 83.6003 83.6398 83.0804 83.25 82.6904C82.0312 80.6185 82.5262 79.4598 84.7353 79.3232L85.2002 79.3096ZM86.6504 82.3096C86.9643 82.7264 87.28 83.1334 87.5957 83.5361C87.8722 83.1416 88.148 82.7398 88.4238 82.3262C88.4274 82.3207 88.4309 82.315 88.4345 82.3096H86.6504ZM43.2099 78.0098V81.5195H29.9502V78.0098H43.2099ZM43.2099 62.1504V65.2695H29.9502V62.1504H43.2099ZM15.5097 35.6299V11.4502C15.5097 8.23347 16.5948 5.31923 18.7119 3.20215C20.829 1.08506 23.7432 0 26.9599 0V3L26.4892 3.00977C21.6817 3.21293 18.5097 6.53872 18.5097 11.4502V35.6299C18.5097 40.5413 21.6817 43.8671 26.4892 44.0703L26.9599 44.0801H95.9902L96.4599 44.0703C101.268 43.8674 104.439 40.5415 104.439 35.6299V11.4502C104.439 6.53856 101.268 3.21273 96.4599 3.00977L95.9902 3V0C99.2067 8.58009e-05 102.12 1.08527 104.237 3.20215C106.354 5.31924 107.439 8.23345 107.439 11.4502V35.6299C107.439 38.8466 106.354 41.7608 104.237 43.8779C104.08 44.0349 103.917 44.1845 103.752 44.3301H112.109V47.3301H10.9697V44.3301H19.1972C19.0317 44.1845 18.8688 44.0349 18.7119 43.8779C16.5948 41.7608 15.5097 38.8466 15.5097 35.6299ZM85.5898 29V29.3896C85.5898 31.3396 84.6795 32.25 82.7295 32.25H37.6201L37.4785 32.2451C36.7927 32.1995 36.4502 31.8114 36.4502 31.0801V29H85.5898ZM39.1796 14.8301H84.4199C85.1998 14.8301 85.5898 15.22 85.5898 16V17.9502H36.4502V17.5596C36.4503 15.8535 37.2499 14.9473 38.8496 14.8408L39.1796 14.8301ZM95.9902 0V3H26.9599V0H95.9902Z" fill="url(#paint1_linear_4503_28152)"/>
<defs>
<linearGradient id="paint0_linear_4503_28152" x1="367.54" y1="127.99" x2="367.54" y2="-17.01" gradientUnits="userSpaceOnUse">
<stop offset="0.173077" stop-color="#5A4E4C"/>
<stop offset="0.485577" stop-color="#A48883"/>
<stop offset="0.706761" stop-color="#8C7773"/>
</linearGradient>
<linearGradient id="paint1_linear_4503_28152" x1="73.7178" y1="-16.809" x2="687.177" y2="203.099" gradientUnits="userSpaceOnUse">
<stop stop-color="#FCF5EC"/>
<stop offset="1" stop-color="#FEFBF8"/>
</linearGradient>
</defs>
</svg>
