<svg width="128" height="131" viewBox="0 0 128 131" fill="none" xmlns="http://www.w3.org/2000/svg">
<path d="M16.1271 64.69C16.1271 64.82 15.9971 64.82 15.9971 64.95C12.3571 69.11 8.32707 67.03 5.85707 61.96C3.12707 56.24 2.34706 49.74 6.50706 45.06C13.6571 36.22 20.2871 24.91 25.3571 13.21C27.4371 7.61999 31.5971 5.27999 37.3171 7.09999C43.1671 9.04999 45.1171 12.69 42.7771 18.41C40.4371 24.13 37.7071 30.11 34.5871 35.83V117.99C34.5871 124.1 31.4671 127.22 25.3571 127.22C19.2471 127.22 16.1271 124.1 16.1271 117.99V64.69ZM50.9671 63C45.1171 63 42.1271 59.88 42.1271 54.03C42.1271 48.18 45.1171 45.19 50.9671 45.19H72.4171V34.4H56.5571C50.7071 34.4 47.8471 31.41 47.8471 25.56C47.8471 19.71 50.7071 16.85 56.5571 16.85H72.4171V13.34C72.4171 6.96999 75.6671 3.84999 82.0371 3.84999C88.4071 3.84999 91.5271 6.96999 91.5271 13.34V16.85H108.167C114.017 16.85 116.877 19.71 116.877 25.56C116.877 31.41 114.017 34.4 108.167 34.4H91.5271V45.19H113.757C119.607 45.19 122.597 48.18 122.597 54.03C122.597 59.88 119.607 63 113.757 63H50.9671ZM47.5871 123.58C41.4771 123.58 38.4871 120.59 38.4871 114.48C38.4871 108.37 41.4771 105.38 47.5871 105.38H72.4171V93.29H54.0871C48.2371 93.29 45.2471 90.17 45.2471 84.32C45.2471 78.47 48.2371 75.48 54.0871 75.48H72.4171V75.22C72.4171 69.11 75.9271 65.99 82.0371 65.99C88.1471 65.99 91.5271 69.11 91.5271 75.22V75.48H110.767C116.617 75.48 119.607 78.47 119.607 84.32C119.607 90.17 116.617 93.29 110.767 93.29H91.5271V105.38H115.707C121.817 105.38 124.807 108.37 124.807 114.48C124.807 120.59 121.817 123.58 115.707 123.58H47.5871Z" fill="url(#paint0_linear_4503_28157)"/>
<path d="M28.5795 4.71913C31.2904 3.29819 34.389 3.16386 37.5864 4.05019L38.227 4.24159L38.2465 4.24745L38.2661 4.25429C41.5533 5.3501 44.3748 7.12154 45.8061 10.0092C47.2608 12.9442 46.9008 16.2545 45.5541 19.5463C43.2755 25.1163 40.6196 30.9539 37.5874 36.5863V106.749C37.8944 106.315 38.2388 105.903 38.6245 105.517C40.9048 103.237 44.0863 102.38 47.5874 102.38V105.38L47.0239 105.389C41.2933 105.57 38.4868 108.561 38.4868 114.48C38.4868 120.399 41.2933 123.391 47.0239 123.572L47.5874 123.58H115.707L116.271 123.572C122.001 123.39 124.807 120.399 124.807 114.48C124.807 108.561 122.001 105.57 116.271 105.389L115.707 105.38V102.38C119.208 102.38 122.389 103.237 124.669 105.517C126.95 107.797 127.807 110.979 127.807 114.48C127.807 117.981 126.95 121.162 124.669 123.443C122.389 125.723 119.208 126.58 115.707 126.58H47.5874C44.0863 126.58 40.9048 125.723 38.6245 123.443C38.0727 122.891 37.6045 122.286 37.2114 121.637C36.7546 123.701 35.8568 125.545 34.3842 127.018C32.0875 129.314 28.8901 130.22 25.3569 130.22C21.8236 130.22 18.6262 129.314 16.3295 127.018C14.0328 124.721 13.1274 121.523 13.1274 117.99V70.0609C11.8813 70.2804 10.6424 70.1572 9.47798 69.7406C6.63642 68.7239 4.54458 66.1146 3.1606 63.2738L3.15474 63.2631L3.14985 63.2523C0.248203 57.1727 -1.09724 49.1889 4.19087 43.1517C11.131 34.5663 17.6161 23.5183 22.5913 12.0434C23.8073 8.83869 25.7558 6.19931 28.5795 4.71913ZM119.607 84.3197C119.607 78.4699 116.617 75.4799 110.767 75.4799V72.4799C114.171 72.4799 117.271 73.354 119.502 75.5853C121.733 77.8166 122.607 80.9159 122.607 84.3197C122.607 87.7235 121.734 90.8393 119.525 93.0971C117.305 95.3661 114.204 96.2904 110.767 96.2904H94.5268V102.38H115.707V105.38H91.5268V93.2904H110.767L111.307 93.2807C116.801 93.0921 119.607 89.9869 119.607 84.3197ZM42.2475 84.3197C42.2476 80.9158 43.1208 77.8166 45.352 75.5853C47.5834 73.354 50.6832 72.4799 54.0874 72.4799V75.4799L53.5473 75.4887C48.0533 75.6695 45.2476 78.6526 45.2475 84.3197L45.2563 84.8607C45.4315 90.1847 48.2306 93.0983 53.5473 93.2807L54.0874 93.2904H72.4174V105.38H47.5874V102.38H69.4174V96.2904H54.0874C50.6501 96.2904 47.5499 95.366 45.3295 93.0971C43.1203 90.8393 42.2475 87.7235 42.2475 84.3197ZM39.1274 54.0297C39.1274 50.6258 40.0008 47.5266 42.2319 45.2953C44.4633 43.0639 47.5631 42.1898 50.9672 42.1898V45.1898L50.4272 45.1986C44.9333 45.3795 42.1275 48.3626 42.1274 54.0297L42.1362 54.5707C42.3113 59.8946 45.1105 62.8082 50.4272 62.9906L50.9672 63.0004H113.757L114.297 62.9906C119.614 62.8081 122.413 59.8945 122.588 54.5707L122.597 54.0297C122.597 48.3628 119.791 45.3796 114.297 45.1986L113.757 45.1898V42.1898C117.161 42.1899 120.261 43.064 122.493 45.2953C124.724 47.5266 125.597 50.6259 125.597 54.0297C125.597 57.4335 124.724 60.5493 122.515 62.807C120.295 65.0761 117.195 66.0003 113.757 66.0004H90.9907C91.0442 66.0495 91.0982 66.0983 91.1508 66.1488C92.8995 67.8269 93.9024 70.008 94.31 72.4799H110.767V75.4799H91.5268V75.2201C91.5268 69.1103 88.1472 65.9898 82.0376 65.9896C75.9276 65.9896 72.4174 69.1101 72.4174 75.2201V75.4799H54.0874V72.4799H69.6391C70.061 69.9879 71.1006 67.8023 72.8803 66.1283C72.9266 66.0848 72.9741 66.0429 73.021 66.0004H50.9672C47.53 66.0004 44.4297 65.076 42.2094 62.807C40.0002 60.5493 39.1274 57.4335 39.1274 54.0297ZM116.877 25.56C116.877 19.8927 114.193 17.032 108.706 16.8588L108.167 16.85V13.85C111.538 13.85 114.622 14.6744 116.837 16.89C119.053 19.1057 119.877 22.1897 119.877 25.56C119.877 28.9305 119.053 32.029 116.861 34.2709C114.656 36.5251 111.572 37.3997 108.167 37.3998H94.5268V42.1898H113.757V45.1898H91.5268V34.3998H108.167L108.706 34.391C114.016 34.216 116.701 31.4168 116.869 26.1L116.877 25.56ZM44.8471 25.56C44.8471 22.1896 45.6714 19.1058 47.8872 16.89C50.1029 14.6743 53.1867 13.85 56.5571 13.85V16.85L56.017 16.8588C50.531 17.0322 47.8471 19.8929 47.8471 25.56L47.8559 26.1C48.0236 31.4166 50.708 34.2158 56.017 34.391L56.5571 34.3998H72.4174V45.1898H50.9672V42.1898H69.4174V37.3998H56.5571C53.1527 37.3998 50.0685 36.5252 47.8637 34.2709C45.6712 32.0289 44.8471 28.9306 44.8471 25.56ZM91.5268 13.3402C91.5268 7.16919 88.5989 4.04772 82.6245 3.85878L82.0376 3.84999C75.6675 3.84999 72.4174 6.97023 72.4174 13.3402V16.85H56.5571V13.85H69.4174V13.3402C69.4174 9.67739 70.3558 6.39882 72.7387 4.06386C75.1105 1.73998 78.4055 0.849991 82.0376 0.849991C85.6692 0.850069 88.9475 1.7404 91.2924 4.08534C93.6372 6.43036 94.5268 9.70861 94.5268 13.3402V13.85H108.167V16.85H91.5268V13.3402ZM16.1362 118.554C16.3189 124.107 19.2404 127.029 24.7934 127.211L25.3569 127.22C31.2759 127.22 34.3888 124.292 34.5776 118.554L34.5874 117.99V35.8305C37.7074 30.1105 40.4368 24.1296 42.7768 18.4096C45.0435 12.8684 43.2847 9.2792 37.854 7.28749L37.3168 7.09999C31.597 5.28011 27.4369 7.62041 25.3569 13.2103C20.2869 24.9102 13.6572 36.2201 6.50728 45.06C2.34728 49.74 3.12688 56.2403 5.85688 61.9603C8.32689 67.0302 12.3576 69.1095 15.9975 64.9496C15.9978 64.82 16.1274 64.8197 16.1274 64.6898V117.99L16.1362 118.554Z" fill="url(#paint1_linear_4503_28157)"/>
<defs>
<linearGradient id="paint0_linear_4503_28157" x1="223" y1="133" x2="223" y2="-12" gradientUnits="userSpaceOnUse">
<stop offset="0.173077" stop-color="#5A4E4C"/>
<stop offset="0.485577" stop-color="#A48883"/>
<stop offset="0.706761" stop-color="#8C7773"/>
</linearGradient>
<linearGradient id="paint1_linear_4503_28157" x1="-70.822" y1="-11.799" x2="542.638" y2="208.109" gradientUnits="userSpaceOnUse">
<stop stop-color="#FCF5EC"/>
<stop offset="1" stop-color="#FEFBF8"/>
</linearGradient>
</defs>
</svg>
