<svg width="115" height="122" viewBox="0 0 115 122" fill="none" xmlns="http://www.w3.org/2000/svg">
<path d="M5.77826 118L40.9167 4.67487H73.4691L108.608 118H80.01L65.8634 61.4135C64.3423 55.7346 62.8211 49.7007 61.3 43.3119C59.8802 36.9231 58.4098 30.8385 56.8887 25.0582H56.2802C54.9619 30.9399 53.5422 37.0752 52.021 43.464C50.4999 49.7514 49.0294 55.7346 47.6097 61.4135L33.4631 118H5.77826ZM29.6602 91.9885V70.9967H84.4213V91.9885H29.6602Z" fill="url(#paint0_linear_4497_28113)"/>
<path d="M76.4228 0.666077L114.048 122.009H76.8798L70.3769 95.9971H43.0956L36.5927 122.009H0.338806L37.9628 0.666077H76.4228ZM40.9169 4.67487L5.77826 118H33.4628L39.9658 91.9883H73.5068L80.0097 118H108.607L73.4687 4.67487H40.9169ZM56.8886 25.0587C58.4097 30.8388 59.8801 36.9231 61.2997 43.3116C62.8209 49.7002 64.3421 55.7343 65.8632 61.4131L68.2587 70.9971H45.2138L47.6093 61.4131C48.6741 57.1539 49.7677 52.7236 50.8896 48.1221L52.0214 43.4639C53.5425 37.0753 54.9619 30.9402 56.2802 25.0587H56.8886ZM55.9208 44.3926L55.9169 44.4063C54.3936 50.7026 52.9214 56.6961 51.499 62.3858L50.3486 66.9883H63.1249L61.9824 62.419C60.4533 56.7094 58.9263 50.6494 57.4003 44.2403L57.3867 44.1817C57.1577 43.1514 56.9268 42.1293 56.6953 41.1153C56.4394 42.2001 56.1827 43.293 55.9208 44.3926Z" fill="#5A4E4C"/>
<defs>
<linearGradient id="paint0_linear_4497_28113" x1="-83.7524" y1="2.69999" x2="104.494" y2="-3.01331" gradientUnits="userSpaceOnUse">
<stop offset="0.189744" stop-color="#CEB071"/>
<stop offset="0.487749" stop-color="#FDF9C7"/>
<stop offset="0.803989" stop-color="#CEB071"/>
</linearGradient>
</defs>
</svg>
