<svg width="98" height="122" viewBox="0 0 98 122" fill="none" xmlns="http://www.w3.org/2000/svg">
<path d="M4.08182 118V4.67487H36.6343C48.195 4.67487 58.2345 6.65235 66.7529 10.6073C75.3727 14.4609 82.0657 20.4948 86.832 28.7089C91.5982 36.9231 93.9814 47.6218 93.9814 60.805C93.9814 73.8869 91.5982 84.687 86.832 93.2054C82.1672 101.622 75.6262 107.859 67.2093 111.915C58.8937 115.972 49.2091 118 38.1554 118H4.08182ZM31.3103 96.0956H34.961C41.0456 96.0956 46.4203 95.0308 51.0851 92.9012C55.8514 90.7716 59.5528 87.1208 62.1895 81.9489C64.8261 76.777 66.1445 69.7291 66.1445 60.805C66.1445 51.7796 64.8261 44.7823 62.1895 39.8133C59.5528 34.8442 55.8514 31.3963 51.0851 29.4695C46.4203 27.4413 41.0456 26.4272 34.961 26.4272H31.3103V96.0956Z" fill="url(#paint0_linear_4497_28112)"/>
<path d="M93.9812 60.8047C93.9812 48.0337 91.7451 37.5942 87.2722 29.4864L86.8318 28.709C82.0656 20.4949 75.3725 14.461 66.7527 10.6075C58.5005 6.77613 48.8209 4.80046 37.7137 4.68073L36.6346 4.67487V0.666077C48.6234 0.666108 59.2447 2.71362 68.3875 6.94733H68.3885C77.7812 11.1465 85.1137 17.7599 90.2996 26.6973C95.5318 35.7148 97.99 47.1767 97.99 60.8047C97.99 74.3475 95.5255 85.8773 90.3299 95.1631C85.2794 104.269 78.1402 111.092 68.9656 115.518L68.9666 115.519C60.0072 119.889 49.7003 122.009 38.1551 122.009H0.0730286V0.666077H36.6346V4.67487H4.08182V118H38.1551L39.1873 117.994C49.8127 117.871 59.153 115.845 67.2088 111.915C75.6258 107.859 82.167 101.622 86.8318 93.2051C91.598 84.6868 93.9812 73.8865 93.9812 60.8047ZM62.1355 60.8047C62.1355 52.0802 60.8462 45.8348 58.6482 41.6924C56.4091 37.4725 53.39 34.7247 49.5828 33.1856L49.5349 33.1661L49.4871 33.1456C45.5019 31.4129 40.8056 30.4775 35.3191 30.4385V92.0821C40.7808 92.0412 45.4532 91.0662 49.4207 89.2549L49.45 89.2413C53.2852 87.5276 56.348 84.5806 58.618 80.128C60.8537 75.7424 62.1355 69.4046 62.1355 60.8047ZM66.1443 60.8047C66.1443 69.7288 64.8259 76.7774 62.1892 81.9493L61.9392 82.4297C59.3205 87.3478 55.702 90.8384 51.0847 92.9014L50.2019 93.2881C45.7455 95.1598 40.6649 96.0958 34.9607 96.0958H31.3103V26.4268H34.9607C41.0452 26.4268 46.42 27.4417 51.0847 29.4698C55.851 31.3966 59.5526 34.8445 62.1892 39.8135C64.8258 44.7825 66.1443 51.7795 66.1443 60.8047Z" fill="#5A4E4C"/>
<defs>
<linearGradient id="paint0_linear_4497_28112" x1="8.24757" y1="2.69998" x2="196.494" y2="-3.01331" gradientUnits="userSpaceOnUse">
<stop offset="0.189744" stop-color="#CEB071"/>
<stop offset="0.487749" stop-color="#FDF9C7"/>
<stop offset="0.803989" stop-color="#CEB071"/>
</linearGradient>
</defs>
</svg>
