<svg width="318" height="62" viewBox="0 0 318 62" fill="none" xmlns="http://www.w3.org/2000/svg">
<g clip-path="url(#clip0_50_3829)">
<path d="M78.49 60.83H73.77C71.67 60.83 69.73 60.18 68.12 59.08C67.12 59.64 66.03 60.02 64.88 60.21C62.06 60.68 59.17 59.91 56.95 58.12L52.58 54.58C48.49 51.26 47.67 45.34 50.71 41.04C51.69 39.65 52.95 37.74 54.26 35.58C53.96 35.42 53.7 35.27 53.5 35.16C50.97 33.79 49.15 31.39 48.51 28.58C47.87 25.77 48.48 22.82 50.18 20.49L51.38 18.84C50.98 18.05 50.69 17.19 50.51 16.31C49.94 13.46 50.65 10.51 52.43 8.22004L55.36 4.47004C58.29 0.710041 63.45 -0.459959 67.72 1.67004C69.29 2.46004 70.96 3.30004 72.5 4.12004C79.58 3.37004 86.15 2.07004 89.41 0.760041C93.18 -0.749959 97.49 0.170041 100.31 3.09004L104.28 7.20004C106.62 9.62004 107.59 13.06 106.85 16.35C106.82 16.49 106.78 16.63 106.75 16.76C107.98 18.42 108.71 20.48 108.71 22.71V27.69C108.71 30.05 107.89 32.22 106.53 33.93V50.62C106.53 56.14 102.05 60.62 96.53 60.62H91.6C89.62 60.62 87.77 60.04 86.22 59.05H84.22C82.6 60.18 80.63 60.84 78.51 60.84L78.49 60.83Z" fill="black"/>
<path d="M131.41 61.14C130.84 61.14 130.27 61.09 129.7 60.99C127.63 60.63 125.74 59.63 124.29 58.16C119.79 58.62 115.43 59.06 111.89 59.35C106.6 59.8 101.89 56.03 101.15 50.77L100.54 46.4C100.24 44.29 100.63 42.16 101.62 40.3V38.11C101.62 37.47 101.68 36.84 101.79 36.24V25.76C101.09 24.4 100.7 22.85 100.7 21.21V17.45C100.7 16.52 100.83 15.62 101.06 14.77C100.43 12.24 100.81 9.55002 102.17 7.25002C103.87 4.38002 106.91 2.58002 110.24 2.40002C117.14 2.03002 123.74 1.29002 127.47 0.480025C129.62 0.0100246 131.8 0.270025 133.72 1.14002C134.62 0.880025 135.57 0.730025 136.55 0.730025H141.53C146.78 0.730025 151.09 4.78003 151.5 9.93003C153.76 10.2 155.87 11.23 157.47 12.88C159.35 14.81 160.38 17.42 160.31 20.12C160.31 20.13 160.27 21.64 160.27 22.18C160.27 22.25 160.27 22.33 160.27 22.4C159.78 44.54 159.39 49.71 156.34 54.09C153.24 58.53 149.39 59.79 146.76 60.34C146.72 60.34 146.69 60.36 146.65 60.36C144.27 60.84 141.76 60.78 139.1 60.73C137.95 60.71 136.84 60.49 135.81 60.1C134.44 60.77 132.94 61.12 131.41 61.12V61.14Z" fill="black"/>
<path d="M166.08 60.92C165.55 60.92 165.01 60.88 164.47 60.79C161.73 60.34 159.3 58.78 157.76 56.47C157.61 56.26 157.07 55.67 156.83 55.46C154.31 53.49 152.92 50.45 153.04 47.25C153.09 45.75 153.49 44.3 154.18 43.01C153.77 41.92 153.55 40.75 153.55 39.52V35.33C153.55 35.21 153.55 35.09 153.55 34.96C153.18 33.91 152.98 32.79 152.98 31.61V27.42C152.98 25.92 153.31 24.5 153.9 23.22C153.47 22.11 153.24 20.9 153.24 19.64V15.45C153.24 12.43 154.58 9.72998 156.69 7.88998C156.71 7.82998 156.74 7.77998 156.76 7.71998C157.95 5.03998 160.25 3.01998 163.06 2.18998L167.34 0.91998C169.61 0.24998 171.95 0.41998 174.01 1.26998C175.49 0.43998 177.18 -0.0200195 178.92 -0.0200195H182.89C185.25 -0.0200195 187.43 0.799981 189.14 2.16998C189.34 2.08998 189.53 2.02998 189.73 1.95998L193.92 0.64998C198.6 -0.81002 203.65 1.32998 205.85 5.71998C205.86 5.73998 205.87 5.76998 205.89 5.78998C210.04 7.00998 213.07 10.84 213.07 15.39V19.58C213.07 20.72 212.88 21.83 212.52 22.85C213.23 24.22 213.63 25.79 213.63 27.44V31.63C213.63 32.88 213.4 34.07 212.99 35.17C213.01 35.44 213.02 35.72 213.02 36V40.19C213.02 43.37 211.53 46.2 209.22 48.04V50.76C209.22 56.28 204.74 60.76 199.22 60.76H194.55C192.46 60.76 190.52 60.12 188.92 59.02C188.16 59.31 187.36 59.55 186.51 59.72C184.52 60.15 182.6 60.15 180.75 60.15C180.59 60.15 180.43 60.15 180.28 60.14C179.41 60.47 178.5 60.69 177.55 60.77C175.4 60.95 173.26 60.44 171.45 59.33C169.84 60.36 167.97 60.9 166.07 60.9L166.08 60.92Z" fill="black"/>
<path d="M251.01 60.83C249.56 60.83 248.11 60.52 246.76 59.88C245.63 59.35 244.63 58.63 243.79 57.75C239.91 58.23 236.51 58.69 235.35 58.95C232.77 60.1 229.82 60.12 227.22 58.97C227.07 58.9 226.91 58.83 226.76 58.76C225.66 59.47 224.42 59.96 223.11 60.2C220.28 60.7 217.38 59.98 215.14 58.19L210.73 54.7C206.56 51.4 205.71 45.41 208.79 41.07C209.77 39.69 211.03 37.78 212.33 35.62C212.02 35.47 211.71 35.33 211.4 35.19C208.65 33.98 206.58 31.6 205.77 28.71C204.96 25.81 205.51 22.71 207.24 20.25L208.73 18.14C208.56 17.72 208.41 17.29 208.3 16.84C207.54 13.92 208.14 10.81 209.93 8.38001L212.77 4.54001C215.47 0.890009 220.28 -0.48999 224.5 1.19001C226.32 1.91001 228.66 3.00001 230.87 4.22001C232.68 1.67001 235.66 0.0100098 239.02 0.0100098H244.3C248.6 0.0100098 252.26 2.72001 253.68 6.53001C258.99 6.77001 263.21 11.15 263.21 16.52V21.45C263.21 21.68 263.21 21.9 263.19 22.12C264.23 23.7 264.83 25.58 264.83 27.61V32.5C264.83 35.02 263.9 37.33 262.35 39.09C263.48 41.16 264.51 43.34 265.18 45.43C266.68 50.11 264.56 55.19 260.16 57.41L255.49 59.77C254.07 60.48 252.53 60.84 250.98 60.84L251.01 60.83Z" fill="black"/>
<path d="M78.49 58.3301H73.77C71.59 58.3301 69.63 57.4 68.26 55.92C67.21 56.87 65.89 57.51 64.47 57.75C62.35 58.1 60.19 57.53 58.52 56.18L54.15 52.64C51.08 50.15 50.47 45.71 52.75 42.48C54.09 40.58 55.92 37.74 57.74 34.64C56.52 33.96 55.37 33.3401 54.69 32.9701C52.79 31.9401 51.43 30.1401 50.95 28.0301C50.47 25.9201 50.93 23.7101 52.2 21.9601L54.39 18.9501C53.69 18.0401 53.19 16.9701 52.96 15.8201C52.54 13.6801 53.06 11.4701 54.4 9.75005L57.33 6.00005C59.53 3.18005 63.4 2.31005 66.6 3.90005C68.39 4.80005 70.3 5.76005 71.99 6.68005C79.68 5.91005 86.71 4.53005 90.33 3.08005C93.16 1.94005 96.39 2.64005 98.5 4.83005L102.47 8.94005C104.23 10.7601 104.95 13.3401 104.4 15.8001C104.28 16.3201 104.11 16.82 103.89 17.3C105.31 18.66 106.2 20.5901 106.2 22.7101V27.6901C106.2 29.7601 105.37 31.6301 104.01 32.9801C104.01 33.0501 104.01 33.1201 104.01 33.1901V50.6101C104.01 54.7501 100.65 58.1101 96.51 58.1101H91.58C89.85 58.1101 88.25 57.5201 86.98 56.5401H83.34C82.03 57.6601 80.33 58.3301 78.48 58.3301H78.49Z" fill="#E8D09E"/>
<path d="M131.41 58.64C130.98 58.64 130.56 58.6 130.13 58.53C128.2 58.2 126.48 57.12 125.34 55.54C120.39 56.05 115.54 56.54 111.68 56.86C107.7 57.2 104.18 54.37 103.63 50.43L103.02 46.06C102.77 44.28 103.17 42.48 104.13 40.98V38.12C104.13 37.56 104.19 37.02 104.3 36.5V25.12C103.61 23.98 103.21 22.65 103.21 21.22V17.46C103.21 16.52 103.38 15.62 103.7 14.79C103.02 12.73 103.25 10.45 104.37 8.55995C105.65 6.41995 107.9 5.02995 110.39 4.89995C117.41 4.51995 124.17 3.75995 128.02 2.91995C129.96 2.49995 131.93 2.86995 133.55 3.85995C134.47 3.44995 135.49 3.22995 136.57 3.22995H141.55C145.69 3.22995 149.05 6.58995 149.05 10.73V12.36H150.33C152.35 12.36 154.29 13.18 155.7 14.63C157.11 16.08 157.88 18.04 157.83 20.06C157.83 20.07 157.79 21.62 157.79 22.18C157.79 22.23 157.79 22.29 157.79 22.35C157.32 43.87 156.96 48.85 154.31 52.67C151.72 56.38 148.48 57.44 146.26 57.91C144.07 58.35 141.69 58.3 139.17 58.25C137.91 58.22 136.73 57.89 135.69 57.32C134.43 58.19 132.94 58.65 131.43 58.65L131.41 58.64Z" fill="#E8D09E"/>
<path d="M166.08 58.42C165.68 58.42 165.28 58.39 164.87 58.32C162.81 57.99 160.99 56.81 159.83 55.08C159.57 54.7 158.76 53.82 158.43 53.55C156.54 52.07 155.47 49.78 155.56 47.38C155.61 45.86 156.13 44.42 157.01 43.22C156.39 42.13 156.04 40.87 156.04 39.53V35.34C156.04 35.09 156.05 34.83 156.08 34.58C155.69 33.67 155.47 32.67 155.47 31.62V27.43C155.47 25.92 155.92 24.51 156.69 23.33C156.08 22.25 155.73 20.99 155.73 19.66V15.47C155.73 13 156.93 10.8 158.78 9.43001C158.86 9.20001 158.94 8.98001 159.04 8.76001C159.93 6.75001 161.66 5.23001 163.77 4.61001L168.05 3.34001C170.18 2.71001 172.4 3.07001 174.18 4.19001C175.51 3.11001 177.18 2.51001 178.91 2.51001H182.88C185.2 2.51001 187.28 3.57001 188.66 5.23001C189.22 4.87001 189.83 4.59001 190.47 4.38001L194.66 3.07001C198.17 1.98001 201.96 3.58001 203.61 6.87001C203.8 7.24001 203.99 7.62001 204.17 8.00001C207.79 8.54001 210.56 11.65 210.56 15.42V19.61C210.56 20.86 210.25 22.04 209.71 23.08C210.6 24.31 211.13 25.83 211.13 27.47V31.66C211.13 32.8 210.88 33.87 210.42 34.84C210.48 35.23 210.51 35.62 210.51 36.03V40.22C210.51 43.02 208.98 45.46 206.71 46.75V50.79C206.71 54.93 203.35 58.29 199.21 58.29H194.54C192.49 58.29 190.63 57.47 189.28 56.14C188.29 56.68 187.2 57.06 185.99 57.31C184.25 57.69 182.47 57.69 180.74 57.69C180.44 57.69 180.15 57.67 179.86 57.64C179.07 58.01 178.22 58.24 177.33 58.32C175.16 58.52 173.01 57.74 171.45 56.22C171.2 56.44 170.94 56.65 170.67 56.86C169.35 57.89 167.72 58.44 166.07 58.44L166.08 58.42Z" fill="#E8D09E"/>
<path d="M251.01 58.33C249.92 58.33 248.84 58.09 247.83 57.62C246.62 57.05 245.6 56.18 244.85 55.1C239.97 55.7 235.64 56.27 234.53 56.58C232.55 57.53 230.26 57.57 228.24 56.68C227.65 56.42 227.11 56.09 226.61 55.7C225.54 56.75 224.18 57.46 222.68 57.73C220.57 58.11 218.39 57.56 216.7 56.23L212.29 52.74C209.16 50.26 208.52 45.77 210.83 42.52C212.18 40.62 214.02 37.75 215.83 34.62C214.79 34.03 213.58 33.42 212.4 32.9C210.33 32 208.78 30.21 208.18 28.04C207.58 25.87 207.98 23.54 209.28 21.7L211.65 18.35C211.24 17.7 210.92 16.98 210.72 16.22C210.15 14.03 210.6 11.7 211.94 9.88002L214.78 6.04002C216.8 3.30002 220.42 2.27002 223.58 3.53002C225.97 4.48002 229.29 6.08002 231.88 7.72002C232.85 4.70002 235.68 2.52002 239.02 2.52002H244.3C248.11 2.52002 251.25 5.35002 251.73 9.03002H253.2C257.34 9.03002 260.7 12.39 260.7 16.53V21.46C260.7 21.92 260.66 22.38 260.58 22.82C261.66 24.12 262.32 25.8 262.32 27.62V32.51C262.32 35.03 261.08 37.25 259.18 38.61C260.61 41.02 261.99 43.71 262.79 46.2C263.92 49.71 262.32 53.52 259.03 55.19L254.36 57.55C253.3 58.09 252.14 58.35 250.98 58.35L251.01 58.33Z" fill="#E8D09E"/>
<path d="M66.39 31.09C64.6 29.82 60.84 27.77 58.27 26.37L61.06 22.53C63.46 23.71 67.35 25.59 69.27 26.77L66.39 31.09ZM58.88 46.81C61.19 43.54 64.56 38.12 67.18 33.05L70.98 36.54C68.67 41.13 65.91 46.1 63.25 50.34L58.88 46.8V46.81ZM68.27 19.17C66.57 17.86 62.85 15.81 60.32 14.37L63.25 10.62C65.7 11.84 69.5 13.76 71.37 14.99L68.27 19.18V19.17ZM87.61 27.69V33.19H96.52V50.61H91.59V49.04H78.49V50.83H73.77V33.19H82.68V27.69H71.06V22.71H82.68V17.6C79.84 18.04 76.92 18.34 74.21 18.6C73.99 17.33 73.29 15.32 72.68 14.15C80.1 13.41 88.31 11.97 93.12 10.04L97.09 14.15C94.3 15.2 91.02 16.07 87.61 16.73V22.71H98.7V27.69H87.61ZM91.59 37.91H78.49V44.33H91.59V37.91Z" fill="black"/>
<path d="M78.49 55.83H73.77C71.04 55.83 68.81 53.64 68.77 50.91C68.33 51.63 67.9 52.33 67.48 53.01C66.72 54.22 65.48 55.05 64.06 55.28C62.65 55.51 61.21 55.13 60.1 54.23L55.73 50.69C53.68 49.03 53.27 46.07 54.79 43.92C56.47 41.54 58.91 37.7 61.14 33.7C59.29 32.62 57.06 31.41 55.87 30.77C54.6 30.08 53.7 28.88 53.38 27.48C53.06 26.07 53.37 24.6 54.21 23.44L57 19.6C57.24 19.27 57.52 18.97 57.82 18.72C56.56 18 55.68 16.77 55.4 15.35C55.12 13.93 55.47 12.45 56.36 11.3L59.29 7.54998C60.75 5.66998 63.34 5.08998 65.47 6.14998C67.51 7.16998 69.7 8.27998 71.53 9.28998C71.74 9.23998 71.95 9.20998 72.17 9.17998C80.1 8.38998 87.41 6.93998 91.25 5.40998C93.13 4.65998 95.29 5.11998 96.7 6.57998L100.67 10.69C101.84 11.9 102.33 13.62 101.96 15.27C101.72 16.35 101.13 17.3 100.3 17.99C102.27 18.66 103.69 20.53 103.69 22.73V27.71C103.69 29.5 102.75 31.06 101.35 31.95C101.46 32.35 101.51 32.78 101.51 33.21V50.63C101.51 53.39 99.27 55.63 96.51 55.63H91.58C90.15 55.63 88.85 55.03 87.94 54.06H82.31C81.39 55.15 80.02 55.85 78.48 55.85L78.49 55.83Z" fill="white"/>
<path d="M150.32 19.87C150.32 19.87 150.28 21.57 150.28 22.18C149.89 40.04 149.54 46.37 148.14 48.38C147.14 49.82 146.13 50.26 144.69 50.56C143.38 50.82 141.37 50.78 139.27 50.73C139.18 49.29 138.61 47.19 137.74 45.75C139.66 45.92 141.32 45.97 142.15 45.97C142.8 45.97 143.24 45.8 143.63 45.23C144.55 44.05 144.98 38.72 145.25 24.62H141.32C140.75 36.32 138.74 45.32 131.41 51.13C130.75 50.08 129.49 48.64 128.35 47.68C122.06 48.34 115.77 48.99 111.06 49.38L110.45 45.01C112.9 44.84 115.95 44.62 119.32 44.4V41.78H111.63V38.11H119.32V36.41H111.81V22.92H119.32V21.22H110.72V17.46H119.32V15.71C116.79 15.88 114.3 16.02 111.94 16.06C111.77 15.01 111.28 13.4 110.8 12.39C117.26 12.04 124.82 11.3 129.62 10.25L131.89 14.14C129.58 14.62 126.87 15.01 124.03 15.32V17.46H132.41V19.86H136.52C136.56 16.98 136.56 13.96 136.56 10.73H141.54C141.54 13.92 141.54 16.97 141.45 19.86H150.32V19.87ZM115.91 28.12H119.32V26.2H115.91V28.12ZM119.31 33.19V31.23H115.9V33.19H119.31ZM124.03 44.02C126.52 43.85 129.1 43.63 131.63 43.41C135.04 38.69 136.09 32.45 136.39 24.63H132.42V21.22H124.04V22.92H131.77V36.41H124.04V38.11H131.94V41.78H124.04V44.01L124.03 44.02ZM127.43 28.12V26.2H124.02V28.12H127.43ZM124.03 31.22V33.18H127.44V31.22H124.03Z" fill="black"/>
<path d="M131.41 56.14C131.13 56.14 130.84 56.12 130.56 56.07C129.16 55.83 127.93 55 127.17 53.79C127.03 53.56 126.79 53.25 126.5 52.91C121.08 53.47 115.68 54.03 111.47 54.38C108.84 54.6 106.47 52.72 106.1 50.09L105.49 45.72C105.3 44.35 105.68 42.96 106.55 41.88C106.57 41.85 106.59 41.83 106.62 41.8V38.12C106.62 37.65 106.69 37.19 106.81 36.76C106.81 36.65 106.8 36.53 106.8 36.41V24.33C106.12 23.47 105.71 22.39 105.71 21.21V17.45C105.71 16.51 105.97 15.62 106.43 14.87C106.38 14.75 106.33 14.63 106.29 14.54C105.57 13.03 105.65 11.27 106.5 9.82999C107.35 8.38999 108.86 7.47999 110.53 7.38999C117.68 6.99999 124.58 6.21999 128.56 5.35999C130.34 4.96999 132.16 5.58999 133.35 6.89999C134.22 6.15999 135.35 5.71999 136.57 5.71999H141.55C144.31 5.71999 146.55 7.95999 146.55 10.72C146.55 12.13 146.55 13.5 146.55 14.85H150.34C151.69 14.85 152.98 15.39 153.92 16.36C154.86 17.32 155.37 18.63 155.34 19.98C155.34 19.98 155.3 21.59 155.3 22.17C155.3 22.21 155.3 22.24 155.3 22.28C154.85 42.86 154.51 48 152.27 51.23C150.22 54.16 147.83 55.01 145.75 55.45C143.86 55.83 141.61 55.78 139.23 55.73C137.82 55.7 136.54 55.09 135.64 54.12C135.28 54.43 134.92 54.74 134.54 55.04C133.65 55.74 132.55 56.12 131.44 56.12L131.41 56.14Z" fill="white"/>
<path d="M171.62 39.52C171.23 43.67 169.79 48.04 166.07 50.92C165.46 50 164.06 48.43 163.06 47.64C165.85 45.76 166.77 42.49 167.03 39.52H163.54V35.33H167.12V31.62H162.97V27.43H165.02C165.02 25.55 164.63 22.85 163.97 20.75L167.33 19.83C168.12 21.97 168.6 24.81 168.6 26.69L165.94 27.43H169.61C170.22 25.16 170.88 21.97 171.23 19.66H163.24V15.47H167.43C166.99 14.2 166.43 12.89 165.9 11.8L170.18 10.53C170.97 12.06 171.84 13.94 172.36 15.46H175.94V19.65H171.44L175.06 20.44C174.4 22.8 173.71 25.37 173.1 27.43H175.98V31.62H171.7V35.33H175.19V39.52H171.61H171.62ZM188.57 19.61C188.57 19.61 188.53 21.09 188.53 21.62C188.27 40.09 188.09 46.38 187.05 48.13C186.35 49.35 185.61 49.75 184.47 49.96C183.51 50.18 182.2 50.18 180.76 50.18C180.72 48.91 180.32 47.12 179.67 45.94C180.72 46.07 181.64 46.07 182.2 46.07C182.72 46.07 183.03 45.9 183.34 45.28C184 44.19 184.21 39.08 184.39 24.06H182.64C182.16 35.15 180.76 44.15 176.7 50.83C176.09 50.13 174.21 48.51 173.34 47.9C177.1 42.27 178.41 34.01 178.8 24.06H176.97V19.61H178.93C178.97 16.55 178.97 13.32 178.93 10H182.9C182.9 13.32 182.86 16.55 182.81 19.61H188.57ZM199.22 31.66V36.03H203.02V40.22H199.22V50.79H194.55V40.22H190.93V36.03H194.55V31.66H190.14V27.47H192.32C192.32 25.55 191.93 22.75 191.23 20.57L194.55 19.7C195.34 21.84 195.86 24.72 195.9 26.6L192.93 27.47H197.21C197.73 25.2 198.35 21.97 198.61 19.61H190.31V15.42H194.37C193.85 14.11 193.28 12.71 192.71 11.53L196.9 10.22C197.69 11.79 198.65 13.76 199.21 15.42H203.05V19.61H198.81L202.48 20.35C201.87 22.75 201.26 25.42 200.78 27.47H203.62V31.66H199.21H199.22Z" fill="black"/>
<path d="M166.08 55.92C165.81 55.92 165.54 55.9 165.28 55.86C163.91 55.64 162.69 54.85 161.92 53.7C161.57 53.18 160.53 52.02 159.99 51.59C158.73 50.6 158.02 49.07 158.07 47.47C158.13 45.87 158.95 44.39 160.28 43.5C160.32 43.47 160.36 43.44 160.4 43.41C159.27 42.49 158.55 41.09 158.55 39.52V35.33C158.55 34.93 158.6 34.54 158.68 34.17C158.23 33.42 157.98 32.55 157.98 31.61V27.42C157.98 25.96 158.6 24.65 159.6 23.74C159.53 23.43 159.46 23.13 159.38 22.83C158.67 21.97 158.24 20.86 158.24 19.65V15.46C158.24 13.52 159.35 11.83 160.97 11.01C161.04 10.59 161.16 10.17 161.34 9.77C161.93 8.43 163.09 7.42 164.49 7L168.77 5.73C170.93 5.09 173.23 5.97 174.41 7.85C174.65 7.35 174.97 6.89 175.36 6.49C176.3 5.54 177.58 5 178.92 5H182.89C185.65 5 187.89 7.24 187.89 10V10.22C187.95 9.99 188.03 9.76 188.13 9.54C188.71 8.21 189.84 7.19 191.22 6.76L195.41 5.45C197.75 4.72 200.28 5.79 201.37 7.99C201.77 8.79 202.17 9.61 202.55 10.42H203.06C205.82 10.42 208.06 12.66 208.06 15.42V19.61C208.06 20.72 207.7 21.74 207.09 22.57C207 22.92 206.92 23.28 206.83 23.63C207.93 24.55 208.63 25.93 208.63 27.47V31.66C208.63 32.7 208.31 33.66 207.77 34.46C207.93 34.95 208.02 35.48 208.02 36.02V40.21C208.02 42.56 206.4 44.53 204.22 45.07V50.78C204.22 53.54 201.98 55.78 199.22 55.78H194.55C192.43 55.78 190.61 54.46 189.89 52.59C188.73 53.76 187.29 54.49 185.49 54.85C184.01 55.17 182.43 55.17 180.75 55.17C180.3 55.17 179.86 55.11 179.44 55C178.75 55.45 177.96 55.74 177.12 55.81C175.51 55.95 173.97 55.32 172.92 54.12C172.7 53.88 172.03 53.28 171.41 52.76C170.72 53.53 169.96 54.23 169.14 54.87C168.26 55.56 167.18 55.92 166.07 55.92H166.08Z" fill="white"/>
<path d="M223.59 30.74C221.89 29.3 218.22 27.25 215.42 26.02L218.17 22.13C220.88 23.18 224.59 24.97 226.47 26.41L223.59 30.73V30.74ZM216.95 46.86C219.31 43.54 222.63 38.17 225.2 33.1L229.04 36.59C226.73 41.13 223.93 46.11 221.35 50.35L216.94 46.86H216.95ZM226.12 19.17C224.37 17.69 220.79 15.59 218 14.32L220.84 10.48C223.59 11.57 227.3 13.49 229.14 14.89L226.13 19.17H226.12ZM251.01 50.83C250.75 49.69 250.18 48.34 249.53 46.99C234.94 48.74 232.72 49.09 231.28 49.83C230.97 48.69 230.1 46.12 229.45 44.63C230.45 44.32 231.28 43.41 232.29 41.84C233.08 40.66 235.17 36.82 236.92 32.5H228.71V27.61H239.06V21.45H230.46V16.52H239.06V10.01H244.34V16.52H253.25V21.45H244.34V27.61H254.87V32.5H242.99C241.24 36.47 239.06 40.4 236.92 43.72L247.18 42.67C246.26 41.1 245.26 39.53 244.25 38.17L248.49 36.07C251.37 39.87 254.56 44.93 255.7 48.47L251.03 50.83H251.01Z" fill="black"/>
<path d="M251.01 55.83C250.29 55.83 249.56 55.67 248.89 55.36C247.64 54.78 246.7 53.71 246.27 52.42C239.93 53.19 234.27 53.91 233.56 54.28C232.22 54.97 230.63 55.02 229.25 54.41C227.97 53.84 226.99 52.77 226.54 51.45C226.24 51.96 225.93 52.46 225.63 52.96C224.88 54.18 223.65 55.03 222.24 55.28C220.82 55.53 219.38 55.17 218.25 54.28L213.84 50.79C211.76 49.14 211.33 46.14 212.87 43.97C214.56 41.59 217 37.75 219.21 33.74C217.76 32.79 215.52 31.54 213.42 30.62C212.04 30.02 211.01 28.83 210.61 27.38C210.21 25.93 210.48 24.38 211.35 23.15L214.1 19.26C214.35 18.9 214.65 18.58 214.98 18.31C214.1 17.64 213.45 16.69 213.17 15.59C212.79 14.13 213.09 12.58 213.99 11.36L216.83 7.52C218.18 5.7 220.58 5.01 222.7 5.84C225.62 7 229.81 9.12 232.18 10.92C232.42 11.1 232.64 11.3 232.83 11.51H234.06V10C234.06 7.24 236.3 5 239.06 5H244.34C247.1 5 249.34 7.24 249.34 10V11.51H253.25C256.01 11.51 258.25 13.75 258.25 16.51V21.44C258.25 22.19 258.08 22.9 257.79 23.54C259.05 24.45 259.87 25.93 259.87 27.6V32.49C259.87 35.01 258 37.1 255.57 37.44C257.39 40.23 259.45 43.78 260.46 46.94C261.21 49.28 260.15 51.82 257.95 52.93L253.28 55.29C252.57 55.65 251.8 55.83 251.03 55.83H251.01Z" fill="white"/>
<path d="M66.39 31.09C64.6 29.82 60.84 27.77 58.27 26.37L61.06 22.53C63.46 23.71 67.35 25.59 69.27 26.77L66.39 31.09ZM58.88 46.81C61.19 43.54 64.56 38.12 67.18 33.05L70.98 36.54C68.67 41.13 65.91 46.1 63.25 50.34L58.88 46.8V46.81ZM68.27 19.17C66.57 17.86 62.85 15.81 60.32 14.37L63.25 10.62C65.7 11.84 69.5 13.76 71.37 14.99L68.27 19.18V19.17ZM87.61 27.69V33.19H96.52V50.61H91.59V49.04H78.49V50.83H73.77V33.19H82.68V27.69H71.06V22.71H82.68V17.6C79.84 18.04 76.92 18.34 74.21 18.6C73.99 17.33 73.29 15.32 72.68 14.15C80.1 13.41 88.31 11.97 93.12 10.04L97.09 14.15C94.3 15.2 91.02 16.07 87.61 16.73V22.71H98.7V27.69H87.61ZM91.59 37.9H78.49V44.32H91.59V37.9Z" fill="black"/>
<path d="M150.32 19.87C150.32 19.87 150.28 21.57 150.28 22.18C149.89 40.04 149.54 46.37 148.14 48.38C147.14 49.82 146.13 50.26 144.69 50.56C143.38 50.82 141.37 50.78 139.27 50.73C139.18 49.29 138.61 47.19 137.74 45.75C139.66 45.92 141.32 45.97 142.15 45.97C142.8 45.97 143.24 45.8 143.63 45.23C144.55 44.05 144.98 38.72 145.25 24.62H141.32C140.75 36.32 138.74 45.32 131.41 51.13C130.75 50.08 129.49 48.64 128.35 47.68C122.06 48.34 115.77 48.99 111.06 49.38L110.45 45.01C112.9 44.84 115.95 44.62 119.32 44.4V41.78H111.63V38.11H119.32V36.41H111.81V22.92H119.32V21.22H110.72V17.46H119.32V15.71C116.79 15.88 114.3 16.02 111.94 16.06C111.77 15.01 111.28 13.4 110.8 12.39C117.26 12.04 124.82 11.3 129.62 10.25L131.89 14.14C129.58 14.62 126.87 15.01 124.03 15.32V17.46H132.41V19.86H136.52C136.56 16.98 136.56 13.96 136.56 10.73H141.54C141.54 13.92 141.54 16.97 141.45 19.86H150.32V19.87ZM115.91 28.12H119.32V26.2H115.91V28.12ZM119.31 33.19V31.23H115.9V33.19H119.31ZM124.03 44.02C126.52 43.85 129.1 43.63 131.63 43.41C135.04 38.69 136.09 32.45 136.39 24.63H132.42V21.22H124.04V22.92H131.77V36.41H124.04V38.11H131.94V41.78H124.04V44.01L124.03 44.02ZM127.43 28.12V26.2H124.02V28.12H127.43ZM124.03 31.22V33.18H127.44V31.22H124.03Z" fill="black"/>
<path d="M171.62 39.52C171.23 43.67 169.79 48.04 166.07 50.92C165.46 50 164.06 48.43 163.06 47.64C165.85 45.76 166.77 42.49 167.03 39.52H163.54V35.33H167.12V31.62H162.97V27.43H165.02C165.02 25.55 164.63 22.85 163.97 20.75L167.33 19.83C168.12 21.97 168.6 24.81 168.6 26.69L165.94 27.43H169.61C170.22 25.16 170.88 21.97 171.23 19.66H163.24V15.47H167.43C166.99 14.2 166.43 12.89 165.9 11.8L170.18 10.53C170.97 12.06 171.84 13.94 172.36 15.46H175.94V19.65H171.44L175.06 20.44C174.4 22.8 173.71 25.37 173.1 27.43H175.98V31.62H171.7V35.33H175.19V39.52H171.61H171.62ZM188.57 19.61C188.57 19.61 188.53 21.09 188.53 21.62C188.27 40.09 188.09 46.38 187.05 48.13C186.35 49.35 185.61 49.75 184.47 49.96C183.51 50.18 182.2 50.18 180.76 50.18C180.72 48.91 180.32 47.12 179.67 45.94C180.72 46.07 181.64 46.07 182.2 46.07C182.72 46.07 183.03 45.9 183.34 45.28C184 44.19 184.21 39.08 184.39 24.06H182.64C182.16 35.15 180.76 44.15 176.7 50.83C176.09 50.13 174.21 48.51 173.34 47.9C177.1 42.27 178.41 34.01 178.8 24.06H176.97V19.61H178.93C178.97 16.55 178.97 13.32 178.93 10H182.9C182.9 13.32 182.86 16.55 182.81 19.61H188.57ZM199.22 31.66V36.03H203.02V40.22H199.22V50.79H194.55V40.22H190.93V36.03H194.55V31.66H190.14V27.47H192.32C192.32 25.55 191.93 22.75 191.23 20.57L194.55 19.7C195.34 21.84 195.86 24.72 195.9 26.6L192.93 27.47H197.21C197.73 25.2 198.35 21.97 198.61 19.61H190.31V15.42H194.37C193.85 14.11 193.28 12.71 192.71 11.53L196.9 10.22C197.69 11.79 198.65 13.76 199.21 15.42H203.05V19.61H198.81L202.48 20.35C201.87 22.75 201.26 25.42 200.78 27.47H203.62V31.66H199.21H199.22Z" fill="black"/>
<path d="M223.59 30.74C221.89 29.3 218.22 27.25 215.42 26.02L218.17 22.13C220.88 23.18 224.59 24.97 226.47 26.41L223.59 30.73V30.74ZM216.95 46.86C219.31 43.54 222.63 38.17 225.2 33.1L229.04 36.59C226.73 41.13 223.93 46.11 221.35 50.35L216.94 46.86H216.95ZM226.12 19.17C224.37 17.69 220.79 15.59 218 14.32L220.84 10.48C223.59 11.57 227.3 13.49 229.14 14.89L226.13 19.17H226.12ZM251.01 50.83C250.75 49.69 250.18 48.34 249.53 46.99C234.94 48.74 232.72 49.09 231.28 49.83C230.97 48.69 230.1 46.12 229.45 44.63C230.45 44.32 231.28 43.41 232.29 41.84C233.08 40.66 235.17 36.82 236.92 32.5H228.71V27.61H239.06V21.45H230.46V16.52H239.06V10.01H244.34V16.52H253.25V21.45H244.34V27.61H254.87V32.5H242.99C241.24 36.47 239.06 40.4 236.92 43.72L247.18 42.67C246.26 41.1 245.26 39.53 244.25 38.17L248.49 36.07C251.37 39.87 254.56 44.93 255.7 48.47L251.03 50.83H251.01Z" fill="black"/>
</g>
<defs>
<clipPath id="clip0_50_3829">
<rect width="317.21" height="61.14" fill="white"/>
</clipPath>
</defs>
</svg>
