<svg width="318" height="62" viewBox="0 0 318 62" fill="none" xmlns="http://www.w3.org/2000/svg">
<g clip-path="url(#clip0_6_181)">
<path d="M98.88 46.1696V50.3596H66.78V46.1696H80.01V43.6396H70.75V40.4997C69.96 41.4997 69.09 42.4196 68.26 43.2096C67.95 42.2896 66.95 40.0697 66.21 38.8397C65.69 43.3797 64.42 48.3997 61.54 51.9397C60.75 50.9797 58.61 49.1497 57.52 48.5797C61.06 44.2097 61.41 38.0096 61.41 33.5096V25.7397H67.31C66.61 24.9997 65.74 24.2097 65.13 23.7297C68.27 23.2497 71.72 22.6396 75.09 21.8496C72.34 21.1496 69.5 20.5397 66.92 20.0597L69.37 18.1797H61.86V14.1196H77.06C76.54 13.2896 75.93 12.4997 75.4 11.8497L78.89 10.1497C79.89 11.2897 81.07 12.8096 81.82 14.1196H96.93V18.1797H90.6L92.7 19.4897C91.13 20.2297 89.29 20.9797 87.33 21.6697C89.91 22.3697 92.26 23.0697 94.23 23.7197L91.78 25.7297H98.2V29.8797H66.49V33.5497C66.49 34.9497 66.45 36.4797 66.27 38.1297C68.37 36.0797 70.16 33.2796 71.25 30.2696L75.66 31.5797C75.44 32.1497 75.22 32.7196 74.96 33.3296H80.03V30.6697H85.14V33.3296H95.93V37.3897H85.14V39.6597H94.66V43.6297H85.14V46.1597H98.9L98.88 46.1696ZM80.01 39.6597V37.3897H72.89C72.41 38.1797 71.93 38.9197 71.41 39.6597H80.01ZM88.92 25.7297C86.78 24.9897 84.16 24.2397 81.41 23.4997C78.27 24.3297 75.08 25.0697 72.02 25.7297H88.92ZM73.2 18.1797C75.95 18.7897 78.83 19.4497 81.72 20.1397C83.82 19.5697 85.83 18.8697 87.44 18.1797H73.2Z" stroke="black" stroke-width="20" stroke-linecap="round" stroke-linejoin="round"/>
<path d="M112.19 31.7596H128.79V51.1896H123.59V49.2296H117.08V51.4096H112.19V31.7596ZM117.08 36.7396V44.2496H123.59V36.7396H117.08ZM143.77 28.1296H118.18V12.3196H143.77V28.1296ZM138.48 17.2996H123.2V23.1996H138.48V17.2996ZM149.66 31.7596V51.2396H144.42V49.2296H137.48V51.4096H132.5V31.7596H149.66ZM144.42 44.2496V36.7396H137.48V44.2496H144.42Z" stroke="black" stroke-width="20" stroke-linecap="round" stroke-linejoin="round"/>
<path d="M177.91 48.3997C177.04 47.2597 175.51 45.4697 174.07 43.9897C172.63 46.6497 170.23 49.2297 166.34 51.4097C165.6 50.3597 164.07 48.8297 162.93 47.9997C167.43 45.8197 169.48 43.0697 170.44 40.4497H163.23V36.1697H166.59C165.59 35.4697 163.88 34.5997 162.92 34.1597C164.67 31.9297 165.85 28.4397 166.41 25.0797L171.04 25.9497C170.87 26.8197 170.65 27.6497 170.43 28.5297H180.91L180.95 32.6797H176.1V36.1697H181.65V40.4497H175.93C177.68 41.7197 180.17 43.7297 180.87 44.3797L177.9 48.3997H177.91ZM171.41 25.2497C166.56 25.2497 165.34 23.4997 165.34 19.0497V10.8397H170.36V13.6297H180.75V17.6497H170.36V19.0897C170.36 20.4397 170.58 20.9197 171.71 20.9197H177.04C178.18 20.9197 179.97 20.7897 180.75 20.5697C180.88 21.9197 181.06 23.7097 181.23 24.8897C180.36 25.1497 178.7 25.2397 177.21 25.2397H171.4L171.41 25.2497ZM171.27 36.1697V32.6797H169C168.43 33.9897 167.82 35.1697 167.25 36.1697H171.27ZM194.68 46.3897C195.86 46.6497 197.04 46.7397 198.26 46.7397C199.18 46.7397 202.54 46.7397 203.85 46.6997C203.28 47.6997 202.71 49.7097 202.54 50.8897H197.91C193.11 50.8897 189.09 49.7097 186.25 44.8597C185.46 47.4797 184.33 49.7097 182.67 51.5797C181.93 50.8397 179.88 49.3097 178.78 48.7897C182.45 45.2497 183.28 39.4897 183.41 32.3697L187.95 32.5397C187.86 34.8997 187.73 37.1697 187.43 39.1797C188.17 41.2797 189.05 42.7597 190.09 43.8497V30.2297H182.05V25.9497H194.28C191.57 24.1197 187.42 21.9797 184.15 20.4897L187.25 17.2997C188.52 17.8197 190 18.4397 191.53 19.1797C192.88 18.2597 194.24 17.0797 195.37 15.8997H182.92V11.8797H198.82L199.74 11.6197L202.84 13.6297C201.09 16.3797 198.47 19.1297 195.77 21.3597C197.04 22.0597 198.17 22.7597 199.05 23.3197L196.69 25.9397H199.62L200.32 25.8097L203.51 26.5097C202.77 29.4397 201.76 32.7097 200.72 34.7597L197.01 33.7097C197.4 32.7897 197.75 31.5297 198.1 30.2197H194.69V36.0297H201.85V40.3097H194.69V46.3797L194.68 46.3897Z" stroke="black" stroke-width="20" stroke-linecap="round" stroke-linejoin="round"/>
<path d="M222.54 28.5296V51.4096H217.39V12.2796H234.07V28.5296H222.54ZM222.54 16.2496V18.6096H229.22V16.2496H222.54ZM229.22 24.5996V22.1096H222.54V24.5996H229.22ZM231.88 45.2496V47.6996H227.03V31.5396H243.93V45.2496H231.88ZM231.88 35.8196V40.9697H239.09V35.8196H231.88ZM254.16 45.2096C254.16 48.0896 253.59 49.5796 251.76 50.4096C249.97 51.2796 247.22 51.4096 243.2 51.4096C243.03 49.9196 242.2 47.4796 241.45 46.0796C243.98 46.2496 246.95 46.2096 247.78 46.1696C248.61 46.1696 248.92 45.9096 248.92 45.1196V28.5696H237.09V12.2796H254.17V45.2096H254.16ZM242.01 16.2096V18.6096H248.91V16.2096H242.01ZM248.91 24.6396V22.1096H242.01V24.6396H248.91Z" stroke="black" stroke-width="20" stroke-linecap="round" stroke-linejoin="round"/>
<path d="M98.88 46.1696V50.3596H66.78V46.1696H80.01V43.6396H70.75V40.4997C69.96 41.4997 69.09 42.4196 68.26 43.2096C67.95 42.2896 66.95 40.0697 66.21 38.8397C65.69 43.3797 64.42 48.3997 61.54 51.9397C60.75 50.9797 58.61 49.1497 57.52 48.5797C61.06 44.2097 61.41 38.0096 61.41 33.5096V25.7397H67.31C66.61 24.9997 65.74 24.2097 65.13 23.7297C68.27 23.2497 71.72 22.6396 75.09 21.8496C72.34 21.1496 69.5 20.5397 66.92 20.0597L69.37 18.1797H61.86V14.1196H77.06C76.54 13.2896 75.93 12.4997 75.4 11.8497L78.89 10.1497C79.89 11.2897 81.07 12.8096 81.82 14.1196H96.93V18.1797H90.6L92.7 19.4897C91.13 20.2297 89.29 20.9797 87.33 21.6697C89.91 22.3697 92.26 23.0697 94.23 23.7197L91.78 25.7297H98.2V29.8797H66.49V33.5497C66.49 34.9497 66.45 36.4797 66.27 38.1297C68.37 36.0797 70.16 33.2796 71.25 30.2696L75.66 31.5797C75.44 32.1497 75.22 32.7196 74.96 33.3296H80.03V30.6697H85.14V33.3296H95.93V37.3897H85.14V39.6597H94.66V43.6297H85.14V46.1597H98.9L98.88 46.1696ZM80.01 39.6597V37.3897H72.89C72.41 38.1797 71.93 38.9197 71.41 39.6597H80.01ZM88.92 25.7297C86.78 24.9897 84.16 24.2397 81.41 23.4997C78.27 24.3297 75.08 25.0697 72.02 25.7297H88.92ZM73.2 18.1797C75.95 18.7897 78.83 19.4497 81.72 20.1397C83.82 19.5697 85.83 18.8697 87.44 18.1797H73.2Z" stroke="#E8D09E" stroke-width="15" stroke-linecap="round" stroke-linejoin="round"/>
<path d="M112.19 31.7596H128.79V51.1896H123.59V49.2296H117.08V51.4096H112.19V31.7596ZM117.08 36.7396V44.2496H123.59V36.7396H117.08ZM143.77 28.1296H118.18V12.3196H143.77V28.1296ZM138.48 17.2996H123.2V23.1996H138.48V17.2996ZM149.66 31.7596V51.2396H144.42V49.2296H137.48V51.4096H132.5V31.7596H149.66ZM144.42 44.2496V36.7396H137.48V44.2496H144.42Z" stroke="#E8D09E" stroke-width="15" stroke-linecap="round" stroke-linejoin="round"/>
<path d="M177.91 48.3997C177.04 47.2597 175.51 45.4697 174.07 43.9897C172.63 46.6497 170.23 49.2297 166.34 51.4097C165.6 50.3597 164.07 48.8297 162.93 47.9997C167.43 45.8197 169.48 43.0697 170.44 40.4497H163.23V36.1697H166.59C165.59 35.4697 163.88 34.5997 162.92 34.1597C164.67 31.9297 165.85 28.4397 166.41 25.0797L171.04 25.9497C170.87 26.8197 170.65 27.6497 170.43 28.5297H180.91L180.95 32.6797H176.1V36.1697H181.65V40.4497H175.93C177.68 41.7197 180.17 43.7297 180.87 44.3797L177.9 48.3997H177.91ZM171.41 25.2497C166.56 25.2497 165.34 23.4997 165.34 19.0497V10.8397H170.36V13.6297H180.75V17.6497H170.36V19.0897C170.36 20.4397 170.58 20.9197 171.71 20.9197H177.04C178.18 20.9197 179.97 20.7897 180.75 20.5697C180.88 21.9197 181.06 23.7097 181.23 24.8897C180.36 25.1497 178.7 25.2397 177.21 25.2397H171.4L171.41 25.2497ZM171.27 36.1697V32.6797H169C168.43 33.9897 167.82 35.1697 167.25 36.1697H171.27ZM194.68 46.3897C195.86 46.6497 197.04 46.7397 198.26 46.7397C199.18 46.7397 202.54 46.7397 203.85 46.6997C203.28 47.6997 202.71 49.7097 202.54 50.8897H197.91C193.11 50.8897 189.09 49.7097 186.25 44.8597C185.46 47.4797 184.33 49.7097 182.67 51.5797C181.93 50.8397 179.88 49.3097 178.78 48.7897C182.45 45.2497 183.28 39.4897 183.41 32.3697L187.95 32.5397C187.86 34.8997 187.73 37.1697 187.43 39.1797C188.17 41.2797 189.05 42.7597 190.09 43.8497V30.2297H182.05V25.9497H194.28C191.57 24.1197 187.42 21.9797 184.15 20.4897L187.25 17.2997C188.52 17.8197 190 18.4397 191.53 19.1797C192.88 18.2597 194.24 17.0797 195.37 15.8997H182.92V11.8797H198.82L199.74 11.6197L202.84 13.6297C201.09 16.3797 198.47 19.1297 195.77 21.3597C197.04 22.0597 198.17 22.7597 199.05 23.3197L196.69 25.9397H199.62L200.32 25.8097L203.51 26.5097C202.77 29.4397 201.76 32.7097 200.72 34.7597L197.01 33.7097C197.4 32.7897 197.75 31.5297 198.1 30.2197H194.69V36.0297H201.85V40.3097H194.69V46.3797L194.68 46.3897Z" stroke="#E8D09E" stroke-width="15" stroke-linecap="round" stroke-linejoin="round"/>
<path d="M222.54 28.5296V51.4096H217.39V12.2796H234.07V28.5296H222.54ZM222.54 16.2496V18.6096H229.22V16.2496H222.54ZM229.22 24.5996V22.1096H222.54V24.5996H229.22ZM231.88 45.2496V47.6996H227.03V31.5396H243.93V45.2496H231.88ZM231.88 35.8196V40.9697H239.09V35.8196H231.88ZM254.16 45.2096C254.16 48.0896 253.59 49.5796 251.76 50.4096C249.97 51.2796 247.22 51.4096 243.2 51.4096C243.03 49.9196 242.2 47.4796 241.45 46.0796C243.98 46.2496 246.95 46.2096 247.78 46.1696C248.61 46.1696 248.92 45.9096 248.92 45.1196V28.5696H237.09V12.2796H254.17V45.2096H254.16ZM242.01 16.2096V18.6096H248.91V16.2096H242.01ZM248.91 24.6396V22.1096H242.01V24.6396H248.91Z" stroke="#E8D09E" stroke-width="15" stroke-linecap="round" stroke-linejoin="round"/>
<path d="M98.88 46.1696V50.3596H66.78V46.1696H80.01V43.6396H70.75V40.4997C69.96 41.4997 69.09 42.4196 68.26 43.2096C67.95 42.2896 66.95 40.0697 66.21 38.8397C65.69 43.3797 64.42 48.3997 61.54 51.9397C60.75 50.9797 58.61 49.1497 57.52 48.5797C61.06 44.2097 61.41 38.0096 61.41 33.5096V25.7397H67.31C66.61 24.9997 65.74 24.2097 65.13 23.7297C68.27 23.2497 71.72 22.6396 75.09 21.8496C72.34 21.1496 69.5 20.5397 66.92 20.0597L69.37 18.1797H61.86V14.1196H77.06C76.54 13.2896 75.93 12.4997 75.4 11.8497L78.89 10.1497C79.89 11.2897 81.07 12.8096 81.82 14.1196H96.93V18.1797H90.6L92.7 19.4897C91.13 20.2297 89.29 20.9797 87.33 21.6697C89.91 22.3697 92.26 23.0697 94.23 23.7197L91.78 25.7297H98.2V29.8797H66.49V33.5497C66.49 34.9497 66.45 36.4797 66.27 38.1297C68.37 36.0797 70.16 33.2796 71.25 30.2696L75.66 31.5797C75.44 32.1497 75.22 32.7196 74.96 33.3296H80.03V30.6697H85.14V33.3296H95.93V37.3897H85.14V39.6597H94.66V43.6297H85.14V46.1597H98.9L98.88 46.1696ZM80.01 39.6597V37.3897H72.89C72.41 38.1797 71.93 38.9197 71.41 39.6597H80.01ZM88.92 25.7297C86.78 24.9897 84.16 24.2397 81.41 23.4997C78.27 24.3297 75.08 25.0697 72.02 25.7297H88.92ZM73.2 18.1797C75.95 18.7897 78.83 19.4497 81.72 20.1397C83.82 19.5697 85.83 18.8697 87.44 18.1797H73.2Z" fill="black" stroke="white" stroke-width="10" stroke-linecap="round" stroke-linejoin="round"/>
<path d="M112.19 31.7596H128.79V51.1896H123.59V49.2296H117.08V51.4096H112.19V31.7596ZM117.08 36.7396V44.2496H123.59V36.7396H117.08ZM143.77 28.1296H118.18V12.3196H143.77V28.1296ZM138.48 17.2996H123.2V23.1996H138.48V17.2996ZM149.66 31.7596V51.2396H144.42V49.2296H137.48V51.4096H132.5V31.7596H149.66ZM144.42 44.2496V36.7396H137.48V44.2496H144.42Z" fill="black" stroke="white" stroke-width="10" stroke-linecap="round" stroke-linejoin="round"/>
<path d="M177.91 48.3997C177.04 47.2597 175.51 45.4697 174.07 43.9897C172.63 46.6497 170.23 49.2297 166.34 51.4097C165.6 50.3597 164.07 48.8297 162.93 47.9997C167.43 45.8197 169.48 43.0697 170.44 40.4497H163.23V36.1697H166.59C165.59 35.4697 163.88 34.5997 162.92 34.1597C164.67 31.9297 165.85 28.4397 166.41 25.0797L171.04 25.9497C170.87 26.8197 170.65 27.6497 170.43 28.5297H180.91L180.95 32.6797H176.1V36.1697H181.65V40.4497H175.93C177.68 41.7197 180.17 43.7297 180.87 44.3797L177.9 48.3997H177.91ZM171.41 25.2497C166.56 25.2497 165.34 23.4997 165.34 19.0497V10.8397H170.36V13.6297H180.75V17.6497H170.36V19.0897C170.36 20.4397 170.58 20.9197 171.71 20.9197H177.04C178.18 20.9197 179.97 20.7897 180.75 20.5697C180.88 21.9197 181.06 23.7097 181.23 24.8897C180.36 25.1497 178.7 25.2397 177.21 25.2397H171.4L171.41 25.2497ZM171.27 36.1697V32.6797H169C168.43 33.9897 167.82 35.1697 167.25 36.1697H171.27ZM194.68 46.3897C195.86 46.6497 197.04 46.7397 198.26 46.7397C199.18 46.7397 202.54 46.7397 203.85 46.6997C203.28 47.6997 202.71 49.7097 202.54 50.8897H197.91C193.11 50.8897 189.09 49.7097 186.25 44.8597C185.46 47.4797 184.33 49.7097 182.67 51.5797C181.93 50.8397 179.88 49.3097 178.78 48.7897C182.45 45.2497 183.28 39.4897 183.41 32.3697L187.95 32.5397C187.86 34.8997 187.73 37.1697 187.43 39.1797C188.17 41.2797 189.05 42.7597 190.09 43.8497V30.2297H182.05V25.9497H194.28C191.57 24.1197 187.42 21.9797 184.15 20.4897L187.25 17.2997C188.52 17.8197 190 18.4397 191.53 19.1797C192.88 18.2597 194.24 17.0797 195.37 15.8997H182.92V11.8797H198.82L199.74 11.6197L202.84 13.6297C201.09 16.3797 198.47 19.1297 195.77 21.3597C197.04 22.0597 198.17 22.7597 199.05 23.3197L196.69 25.9397H199.62L200.32 25.8097L203.51 26.5097C202.77 29.4397 201.76 32.7097 200.72 34.7597L197.01 33.7097C197.4 32.7897 197.75 31.5297 198.1 30.2197H194.69V36.0297H201.85V40.3097H194.69V46.3797L194.68 46.3897Z" fill="black" stroke="white" stroke-width="10" stroke-linecap="round" stroke-linejoin="round"/>
<path d="M222.54 28.5296V51.4096H217.39V12.2796H234.07V28.5296H222.54ZM222.54 16.2496V18.6096H229.22V16.2496H222.54ZM229.22 24.5996V22.1096H222.54V24.5996H229.22ZM231.88 45.2496V47.6996H227.03V31.5396H243.93V45.2496H231.88ZM231.88 35.8196V40.9697H239.09V35.8196H231.88ZM254.16 45.2096C254.16 48.0896 253.59 49.5796 251.76 50.4096C249.97 51.2796 247.22 51.4096 243.2 51.4096C243.03 49.9196 242.2 47.4796 241.45 46.0796C243.98 46.2496 246.95 46.2096 247.78 46.1696C248.61 46.1696 248.92 45.9096 248.92 45.1196V28.5696H237.09V12.2796H254.17V45.2096H254.16ZM242.01 16.2096V18.6096H248.91V16.2096H242.01ZM248.91 24.6396V22.1096H242.01V24.6396H248.91Z" fill="black" stroke="white" stroke-width="10" stroke-linecap="round" stroke-linejoin="round"/>
<path d="M98.88 46.1696V50.3596H66.78V46.1696H80.01V43.6396H70.75V40.4997C69.96 41.4997 69.09 42.4196 68.26 43.2096C67.95 42.2896 66.95 40.0697 66.21 38.8397C65.69 43.3797 64.42 48.3997 61.54 51.9397C60.75 50.9797 58.61 49.1497 57.52 48.5797C61.06 44.2097 61.41 38.0096 61.41 33.5096V25.7397H67.31C66.61 24.9997 65.74 24.2097 65.13 23.7297C68.27 23.2497 71.72 22.6396 75.09 21.8496C72.34 21.1496 69.5 20.5397 66.92 20.0597L69.37 18.1797H61.86V14.1196H77.06C76.54 13.2896 75.93 12.4997 75.4 11.8497L78.89 10.1497C79.89 11.2897 81.07 12.8096 81.82 14.1196H96.93V18.1797H90.6L92.7 19.4897C91.13 20.2297 89.29 20.9797 87.33 21.6697C89.91 22.3697 92.26 23.0697 94.23 23.7197L91.78 25.7297H98.2V29.8797H66.49V33.5497C66.49 34.9497 66.45 36.4797 66.27 38.1297C68.37 36.0797 70.16 33.2796 71.25 30.2696L75.66 31.5797C75.44 32.1497 75.22 32.7196 74.96 33.3296H80.03V30.6697H85.14V33.3296H95.93V37.3897H85.14V39.6597H94.66V43.6297H85.14V46.1597H98.9L98.88 46.1696ZM80.01 39.6597V37.3897H72.89C72.41 38.1797 71.93 38.9197 71.41 39.6597H80.01ZM88.92 25.7297C86.78 24.9897 84.16 24.2397 81.41 23.4997C78.27 24.3297 75.08 25.0697 72.02 25.7297H88.92ZM73.2 18.1797C75.95 18.7897 78.83 19.4497 81.72 20.1397C83.82 19.5697 85.83 18.8697 87.44 18.1797H73.2Z" fill="black"/>
<path d="M112.19 31.7596H128.79V51.1896H123.59V49.2296H117.08V51.4096H112.19V31.7596ZM117.08 36.7396V44.2496H123.59V36.7396H117.08ZM143.77 28.1296H118.18V12.3196H143.77V28.1296ZM138.48 17.2996H123.2V23.1996H138.48V17.2996ZM149.66 31.7596V51.2396H144.42V49.2296H137.48V51.4096H132.5V31.7596H149.66ZM144.42 44.2496V36.7396H137.48V44.2496H144.42Z" fill="black"/>
<path d="M177.91 48.3997C177.04 47.2597 175.51 45.4697 174.07 43.9897C172.63 46.6497 170.23 49.2297 166.34 51.4097C165.6 50.3597 164.07 48.8297 162.93 47.9997C167.43 45.8197 169.48 43.0697 170.44 40.4497H163.23V36.1697H166.59C165.59 35.4697 163.88 34.5997 162.92 34.1597C164.67 31.9297 165.85 28.4397 166.41 25.0797L171.04 25.9497C170.87 26.8197 170.65 27.6497 170.43 28.5297H180.91L180.95 32.6797H176.1V36.1697H181.65V40.4497H175.93C177.68 41.7197 180.17 43.7297 180.87 44.3797L177.9 48.3997H177.91ZM171.41 25.2497C166.56 25.2497 165.34 23.4997 165.34 19.0497V10.8397H170.36V13.6297H180.75V17.6497H170.36V19.0897C170.36 20.4397 170.58 20.9197 171.71 20.9197H177.04C178.18 20.9197 179.97 20.7897 180.75 20.5697C180.88 21.9197 181.06 23.7097 181.23 24.8897C180.36 25.1497 178.7 25.2397 177.21 25.2397H171.4L171.41 25.2497ZM171.27 36.1697V32.6797H169C168.43 33.9897 167.82 35.1697 167.25 36.1697H171.27ZM194.68 46.3897C195.86 46.6497 197.04 46.7397 198.26 46.7397C199.18 46.7397 202.54 46.7397 203.85 46.6997C203.28 47.6997 202.71 49.7097 202.54 50.8897H197.91C193.11 50.8897 189.09 49.7097 186.25 44.8597C185.46 47.4797 184.33 49.7097 182.67 51.5797C181.93 50.8397 179.88 49.3097 178.78 48.7897C182.45 45.2497 183.28 39.4897 183.41 32.3697L187.95 32.5397C187.86 34.8997 187.73 37.1697 187.43 39.1797C188.17 41.2797 189.05 42.7597 190.09 43.8497V30.2297H182.05V25.9497H194.28C191.57 24.1197 187.42 21.9797 184.15 20.4897L187.25 17.2997C188.52 17.8197 190 18.4397 191.53 19.1797C192.88 18.2597 194.24 17.0797 195.37 15.8997H182.92V11.8797H198.82L199.74 11.6197L202.84 13.6297C201.09 16.3797 198.47 19.1297 195.77 21.3597C197.04 22.0597 198.17 22.7597 199.05 23.3197L196.69 25.9397H199.62L200.32 25.8097L203.51 26.5097C202.77 29.4397 201.76 32.7097 200.72 34.7597L197.01 33.7097C197.4 32.7897 197.75 31.5297 198.1 30.2197H194.69V36.0297H201.85V40.3097H194.69V46.3797L194.68 46.3897Z" fill="black"/>
<path d="M222.54 28.5296V51.4096H217.39V12.2796H234.07V28.5296H222.54ZM222.54 16.2496V18.6096H229.22V16.2496H222.54ZM229.22 24.5996V22.1096H222.54V24.5996H229.22ZM231.88 45.2496V47.6996H227.03V31.5396H243.93V45.2496H231.88ZM231.88 35.8196V40.9697H239.09V35.8196H231.88ZM254.16 45.2096C254.16 48.0896 253.59 49.5796 251.76 50.4096C249.97 51.2796 247.22 51.4096 243.2 51.4096C243.03 49.9196 242.2 47.4796 241.45 46.0796C243.98 46.2496 246.95 46.2096 247.78 46.1696C248.61 46.1696 248.92 45.9096 248.92 45.1196V28.5696H237.09V12.2796H254.17V45.2096H254.16ZM242.01 16.2096V18.6096H248.91V16.2096H242.01ZM248.91 24.6396V22.1096H242.01V24.6396H248.91Z" fill="black"/>
</g>
<defs>
<clipPath id="clip0_6_181">
<rect width="317.21" height="61.79" fill="white" transform="translate(0 0.139648)"/>
</clipPath>
</defs>
</svg>
