<svg width="16" height="16" viewBox="0 0 16 16" fill="none" xmlns="http://www.w3.org/2000/svg">
    <path d="M16 0H0v16h16V0z" fill="#DBBA6E"/>
    <path d="M.782 11.567v-.5h.106l.064.341.062-.341h.107v.5h-.065v-.393l-.07.393H.92l-.069-.393v.393H.782zM1.176 11.567v-.5h.26v.084h-.189v.11h.176v.084h-.176v.137h.196v.084h-.267v.001zM1.488 11.567v-.5h.106l.064.341.062-.341h.107v.5h-.065v-.393l-.07.393h-.067l-.069-.393v.393h-.068zM1.882 11.067h.14c.028 0 .05.001.062.005a.08.08 0 0 1 .036.02.145.145 0 0 1 .038.1.15.15 0 0 1-.014.064.098.098 0 0 1-.036.044.095.095 0 0 1 .049.045.159.159 0 0 1 .017.076.2.2 0 0 1-.01.066.136.136 0 0 1-.031.052.082.082 0 0 1-.048.023c-.011.002-.04.003-.085.004h-.12v-.5h.002zm.072.084v.115h.097a.044.044 0 0 0 .03-.018c.007-.01.01-.023.01-.04a.07.07 0 0 0-.01-.037.04.04 0 0 0-.026-.018h-.101v-.002zm0 .198v.134h.065a.339.339 0 0 0 .049-.002.039.039 0 0 0 .025-.02.082.082 0 0 0 .01-.043.084.084 0 0 0-.008-.037.049.049 0 0 0-.022-.023.164.164 0 0 0-.063-.008h-.056zM2.22 11.567v-.5h.26v.084h-.19v.11h.177v.084H2.29v.137h.196v.084H2.22v.001zM2.533 11.567v-.5h.15c.037 0 .065.005.081.014a.09.09 0 0 1 .04.047c.01.023.015.05.015.08a.172.172 0 0 1-.022.092.1.1 0 0 1-.07.047.192.192 0 0 1 .038.041c.01.015.024.043.04.082l.043.097h-.084l-.051-.109a.524.524 0 0 0-.038-.074.058.058 0 0 0-.021-.021.082.082 0 0 0-.035-.005h-.014v.21h-.072zm.072-.288h.052a.204.204 0 0 0 .064-.006.042.042 0 0 0 .02-.022.084.084 0 0 0 .008-.037.084.084 0 0 0-.01-.042.047.047 0 0 0-.026-.02l-.052-.001h-.055v.128h-.001zM3.102 11.32c0-.051.005-.094.016-.128a.25.25 0 0 1 .032-.069.135.135 0 0 1 .12-.065c.052 0 .094.023.125.07.031.044.046.108.046.19a.33.33 0 0 1-.046.19.142.142 0 0 1-.123.068.142.142 0 0 1-.124-.068.34.34 0 0 1-.046-.188zm.072-.004c0 .057.01.1.028.13.019.029.041.044.07.044.028 0 .052-.015.07-.044a.256.256 0 0 0 .027-.13c0-.059-.01-.101-.027-.129-.017-.027-.041-.042-.07-.042-.029 0-.053.014-.07.042a.25.25 0 0 0-.028.13zM3.482 11.567v-.5h.24v.084h-.17v.118H3.7v.084h-.146v.213h-.07v.001zM4.236 11.383l.069.031a.234.234 0 0 1-.053.122.12.12 0 0 1-.093.04c-.046 0-.085-.023-.114-.068A.333.333 0 0 1 4 11.323c0-.083.015-.149.045-.195a.137.137 0 0 1 .12-.069c.042 0 .077.018.103.054a.24.24 0 0 1 .037.092l-.07.023a.11.11 0 0 0-.027-.061.06.06 0 0 0-.047-.023c-.027 0-.047.014-.063.04a.26.26 0 0 0-.024.13.28.28 0 0 0 .024.135c.016.027.036.04.063.04a.063.063 0 0 0 .048-.025.246.246 0 0 0 .027-.081zM4.35 11.567v-.5h.26v.084h-.19v.11h.175v.084H4.42v.137h.196v.084H4.35v.001zM4.663 11.567v-.5h.07l.142.333v-.333h.065v.5H4.87l-.142-.326v.326h-.064zM5.08 11.567v-.415h-.104v-.084h.28v.084H5.15v.415H5.08zM5.286 11.567v-.5h.15c.037 0 .065.005.08.014a.09.09 0 0 1 .041.047c.01.023.015.05.015.08a.172.172 0 0 1-.022.092.1.1 0 0 1-.07.047.192.192 0 0 1 .038.041c.01.015.024.043.04.082l.043.097h-.084l-.052-.109a.524.524 0 0 0-.037-.074.07.07 0 0 0-.021-.021.082.082 0 0 0-.036-.005h-.013v.21h-.072zm.07-.288h.053a.204.204 0 0 0 .064-.006.042.042 0 0 0 .02-.022.084.084 0 0 0 .008-.037.084.084 0 0 0-.01-.042.047.047 0 0 0-.027-.02l-.051-.001h-.055v.128h-.002z" fill="#ED1C24"/>
    <path d="M5.941 11.567h-.076l-.03-.114h-.141l-.029.114H5.59l.137-.5h.075l.14.5zm-.13-.198-.048-.185-.048.185h.096zM5.966 11.567v-.497h.07v.412h.176v.084h-.246v.001zM6.483 11.067h.129c.029 0 .051.004.066.01.02.009.038.024.053.046a.243.243 0 0 1 .034.082.529.529 0 0 1 0 .224.237.237 0 0 1-.038.088.122.122 0 0 1-.05.04.144.144 0 0 1-.063.01h-.133v-.5h.002zm.071.085v.331h.053c.02 0 .034 0 .043-.005a.06.06 0 0 0 .028-.021.134.134 0 0 0 .02-.048.438.438 0 0 0 .007-.091.397.397 0 0 0-.008-.09.137.137 0 0 0-.02-.048.067.067 0 0 0-.032-.024.195.195 0 0 0-.058-.005h-.033v.001zM6.823 11.567v-.5h.26v.084h-.19v.11h.176v.084h-.176v.137h.196v.084h-.266v.001zM7.136 11.567v-.5h.113a.29.29 0 0 1 .084.007.1.1 0 0 1 .05.05c.014.024.02.057.02.097 0 .03-.004.057-.011.078a.116.116 0 0 1-.03.049.087.087 0 0 1-.037.024.269.269 0 0 1-.073.007h-.046v.188h-.07zm.07-.415v.142h.039a.143.143 0 0 0 .056-.008.063.063 0 0 0 .023-.025.093.093 0 0 0 .007-.039.083.083 0 0 0-.01-.045.05.05 0 0 0-.03-.022.22.22 0 0 0-.051-.004h-.034v.001zM7.433 11.32c0-.051.005-.094.016-.128a.25.25 0 0 1 .033-.069.135.135 0 0 1 .12-.065c.051 0 .093.023.124.07.031.044.047.108.047.19a.33.33 0 0 1-.047.19.144.144 0 0 1-.123.068.141.141 0 0 1-.124-.068.329.329 0 0 1-.046-.188zm.072-.004c0 .057.01.1.028.13.019.029.041.044.07.044.028 0 .052-.015.07-.044a.256.256 0 0 0 .027-.13c0-.059-.009-.101-.027-.129-.017-.027-.041-.042-.07-.042-.029 0-.052.014-.07.042a.238.238 0 0 0-.028.13zM7.795 11.404l.069-.01a.141.141 0 0 0 .025.073c.013.015.03.024.051.024.023 0 .04-.006.052-.02a.074.074 0 0 0 .017-.048.06.06 0 0 0-.007-.03.062.062 0 0 0-.025-.021.95.95 0 0 0-.057-.021.192.192 0 0 1-.08-.05.174.174 0 0 1-.018-.172.108.108 0 0 1 .044-.05.13.13 0 0 1 .07-.017c.043 0 .076.014.098.041a.176.176 0 0 1 .036.11L8 11.22a.095.095 0 0 0-.02-.055c-.01-.012-.026-.017-.046-.017a.065.065 0 0 0-.048.018c-.007.007-.01.017-.01.031 0 .011.003.023.01.03.008.012.03.022.064.034.034.011.06.024.077.037a.126.126 0 0 1 .039.051.21.21 0 0 1 .014.08.191.191 0 0 1-.017.08.11.11 0 0 1-.047.056.14.14 0 0 1-.077.019.125.125 0 0 1-.101-.044.275.275 0 0 1-.043-.135zM8.124 11.567v-.5h.07v.5h-.07zM8.326 11.567v-.415h-.104v-.084H8.5v.084h-.104v.415h-.07zM8.773 11.567v-.5h.07v.5h-.07zM8.897 11.567v-.5h.07l.142.333v-.333h.066v.5h-.072l-.142-.326v.326h-.064zM9.219 11.404l.069-.01a.141.141 0 0 0 .025.073c.012.015.03.024.051.024.023 0 .04-.006.052-.02a.074.074 0 0 0 .017-.048.06.06 0 0 0-.007-.03.062.062 0 0 0-.025-.021.95.95 0 0 0-.057-.021.192.192 0 0 1-.08-.05.174.174 0 0 1-.018-.172.108.108 0 0 1 .044-.05.13.13 0 0 1 .07-.017c.043 0 .076.014.098.041a.176.176 0 0 1 .035.11l-.07.006a.095.095 0 0 0-.02-.055c-.01-.012-.025-.017-.045-.017a.065.065 0 0 0-.048.018c-.007.007-.011.017-.011.031 0 .011.004.023.01.03.009.012.03.022.065.034.034.011.06.024.077.037a.127.127 0 0 1 .039.051.21.21 0 0 1 .013.08.191.191 0 0 1-.016.08.11.11 0 0 1-.047.056.144.144 0 0 1-.077.019.125.125 0 0 1-.102-.044.274.274 0 0 1-.042-.135zM9.549 11.067h.07v.27c0 .043.001.072.003.085.002.02.01.036.021.049a.059.059 0 0 0 .046.019c.02 0 .036-.007.046-.018a.083.083 0 0 0 .018-.043c.003-.017.003-.045.003-.085v-.277h.07v.263a.92.92 0 0 1-.006.127.176.176 0 0 1-.021.063.105.105 0 0 1-.042.04.135.135 0 0 1-.068.015.142.142 0 0 1-.076-.016.122.122 0 0 1-.041-.043.182.182 0 0 1-.02-.055.797.797 0 0 1-.008-.127v-.267h.005zM9.889 11.567v-.5h.149c.038 0 .065.005.082.014a.09.09 0 0 1 .04.047c.01.023.015.05.015.08a.173.173 0 0 1-.023.092.1.1 0 0 1-.069.047.192.192 0 0 1 .038.041c.01.015.024.043.04.082l.043.097h-.085l-.051-.109a.521.521 0 0 0-.038-.074.069.069 0 0 0-.02-.021.082.082 0 0 0-.036-.005h-.015v.21h-.07zm.07-.288h.053a.204.204 0 0 0 .064-.006.042.042 0 0 0 .02-.022.083.083 0 0 0 .007-.037.083.083 0 0 0-.01-.042.047.047 0 0 0-.026-.02l-.052-.001H9.96v.128z" fill="#ED1C24"/>
    <path d="M10.544 11.567h-.077l-.03-.114h-.14l-.03.114h-.075l.137-.5h.075l.14.5zm-.13-.198-.048-.185-.048.185h.095zM10.567 11.567v-.5h.07l.142.333v-.333h.066v.5h-.07l-.142-.326v.326h-.066zM11.13 11.383l.068.031a.234.234 0 0 1-.052.122.12.12 0 0 1-.093.04c-.047 0-.085-.023-.114-.068a.333.333 0 0 1-.045-.185c0-.083.015-.149.045-.195a.137.137 0 0 1 .119-.069c.043 0 .078.018.104.054a.24.24 0 0 1 .036.092l-.07.023a.111.111 0 0 0-.026-.061.06.06 0 0 0-.048-.023c-.026 0-.048.014-.063.04a.26.26 0 0 0-.023.13c0 .062.007.108.023.135.017.027.037.04.063.04a.063.063 0 0 0 .049-.025.2.2 0 0 0 .026-.081zM11.244 11.567v-.5h.26v.084h-.19v.11h.176v.084h-.176v.137h.196v.084h-.266v.001zM12.025 11.383l.069.031a.234.234 0 0 1-.053.122.12.12 0 0 1-.093.04c-.046 0-.085-.023-.114-.068a.333.333 0 0 1-.045-.185c0-.083.015-.149.045-.195a.137.137 0 0 1 .12-.069c.042 0 .077.018.103.054a.24.24 0 0 1 .037.092l-.07.023a.11.11 0 0 0-.027-.061.06.06 0 0 0-.047-.023c-.027 0-.048.014-.063.04a.26.26 0 0 0-.024.13c0 .062.008.108.024.135.016.027.036.04.063.04a.063.063 0 0 0 .049-.025.245.245 0 0 0 .026-.081zM12.125 11.32c0-.051.005-.094.016-.128a.25.25 0 0 1 .033-.069.135.135 0 0 1 .12-.065c.052 0 .093.023.125.07.03.044.046.108.046.19a.33.33 0 0 1-.046.19.144.144 0 0 1-.123.068.142.142 0 0 1-.125-.068.33.33 0 0 1-.046-.188zm.073-.004c0 .057.008.1.027.13.02.029.042.044.07.044.028 0 .052-.015.07-.044a.257.257 0 0 0 .027-.13c0-.059-.009-.101-.026-.129-.018-.027-.042-.042-.07-.042-.03 0-.053.014-.07.042a.238.238 0 0 0-.028.13zM12.506 11.567v-.5h.15c.037 0 .064.005.08.014a.09.09 0 0 1 .04.047c.01.023.016.05.016.08a.173.173 0 0 1-.023.092.1.1 0 0 1-.069.047.192.192 0 0 1 .038.041c.01.015.024.043.04.082l.043.097h-.084l-.052-.109a.521.521 0 0 0-.037-.074.069.069 0 0 0-.022-.021.083.083 0 0 0-.035-.005h-.014v.21h-.071zm.07-.288h.053a.205.205 0 0 0 .064-.006.042.042 0 0 0 .02-.022.084.084 0 0 0 .007-.037.083.083 0 0 0-.01-.042.047.047 0 0 0-.026-.02l-.051-.001h-.056v.128zM12.845 11.567v-.5h.113a.29.29 0 0 1 .084.007.1.1 0 0 1 .05.05c.014.024.02.057.02.097 0 .03-.004.057-.011.078a.117.117 0 0 1-.03.049.087.087 0 0 1-.037.024.269.269 0 0 1-.073.007h-.046v.188h-.07zm.07-.415v.142h.039a.143.143 0 0 0 .056-.008.063.063 0 0 0 .023-.025.094.094 0 0 0 .007-.039.083.083 0 0 0-.01-.045.056.056 0 0 0-.03-.022.22.22 0 0 0-.051-.004h-.034v.001zM13.143 11.32c0-.051.005-.094.016-.128a.25.25 0 0 1 .032-.069.135.135 0 0 1 .12-.065c.052 0 .094.023.125.07.031.044.046.108.046.19a.33.33 0 0 1-.046.19.144.144 0 0 1-.123.068.142.142 0 0 1-.124-.068.34.34 0 0 1-.046-.188zm.072-.004c0 .057.01.1.028.13.019.029.041.044.07.044.029 0 .052-.015.07-.044a.257.257 0 0 0 .027-.13c0-.059-.009-.101-.027-.129-.017-.027-.041-.042-.07-.042-.029 0-.053.014-.07.042a.238.238 0 0 0-.028.13zM13.523 11.567v-.5h.15c.037 0 .065.005.081.014.018.008.03.025.04.047.01.023.015.05.015.08a.172.172 0 0 1-.022.092.1.1 0 0 1-.07.047.192.192 0 0 1 .038.041c.01.015.024.043.04.082l.043.097h-.084l-.051-.109a.533.533 0 0 0-.038-.074.07.07 0 0 0-.021-.021.083.083 0 0 0-.035-.005h-.014v.21h-.072zm.07-.288h.053a.203.203 0 0 0 .064-.006.042.042 0 0 0 .02-.022.084.084 0 0 0 .008-.037.083.083 0 0 0-.01-.042.047.047 0 0 0-.026-.02l-.052-.001h-.055v.128h-.001z" fill="#ED1C24"/>
    <path d="M14.178 11.567h-.076l-.03-.114h-.14l-.03.114h-.075l.137-.5h.075l.14.5zm-.13-.198L14 11.184l-.047.185h.095zM14.244 11.567v-.415h-.104v-.084h.278v.084h-.104v.415h-.07zM14.448 11.567v-.5h.07v.5h-.07zM14.557 11.32c0-.051.005-.094.016-.128a.252.252 0 0 1 .033-.069.135.135 0 0 1 .12-.065c.051 0 .093.023.124.07.032.044.047.108.047.19a.33.33 0 0 1-.047.19.143.143 0 0 1-.123.068.141.141 0 0 1-.124-.068.329.329 0 0 1-.046-.188zm.072-.004c0 .057.01.1.028.13.019.029.041.044.07.044.03 0 .052-.015.07-.044a.256.256 0 0 0 .027-.13c0-.059-.009-.101-.027-.129-.017-.027-.04-.042-.07-.042-.029 0-.053.014-.07.042a.238.238 0 0 0-.028.13zM14.938 11.567v-.5h.07l.143.333v-.333h.065v.5h-.072l-.142-.326v.326h-.064zM8.168 8.886h-.335v.335h.335v-.335zM8.168 11.895h-.335v.334h.335v-.334zM.84 10.39l-.064-.163a1.89 1.89 0 0 0 .454-.154l-.397.05a2.233 2.233 0 0 0-.048-.15l.09-.01c.053-.053.106-.11.157-.173a1.927 1.927 0 0 0-.031-.11l.132-.01c.043-.055.084-.114.123-.176l.122.086a1.12 1.12 0 0 1-.043.074l.188-.015a.207.207 0 0 1-.02-.016l.104-.107c.086.068.159.136.22.203l-.111.1a1.783 1.783 0 0 0-.05-.05l-.037.004.08.054a.938.938 0 0 1-.048.084l.109-.01a.287.287 0 0 0-.028-.027l.113-.102c.068.06.137.143.208.246l-.119.094a1.305 1.305 0 0 0-.059-.079l-.257.033c.153.07.309.12.467.15l-.064.163a2.29 2.29 0 0 1-.602-.258c-.12.093-.318.182-.59.268zm.659-.085c-.213.137-.404.215-.575.237l-.056-.149c.202-.031.384-.104.543-.218l.088.13zm.035.236c.097-.048.197-.115.3-.202l.103.124c-.224.182-.47.295-.744.339l-.038-.136a.904.904 0 0 1-.104.023l-.063-.15c.236-.043.444-.136.625-.277l.092.125a1.916 1.916 0 0 1-.433.24 1.4 1.4 0 0 0 .262-.086zm-.08-.61c.037-.05.072-.1.108-.153l-.48.046.068.058-.04.054.075-.007a.173.173 0 0 0-.017-.02l.121-.087c.042.05.073.09.092.117l.074-.008zM2.294 9.841v-.16h.158v-.122h.16v.12h.247c.014 0 .025.002.034.007.01.005.016.014.02.026a.179.179 0 0 1 .008.062c0 .195-.001.368-.005.518-.008.257-.047.411-.116.464-.046.036-.143.035-.29-.005l-.003-.195a.85.85 0 0 0 .14.04c.03.005.05.004.056-.005a.198.198 0 0 0 .033-.089c.005-.026.008-.06.012-.101.011-.335.011-.516 0-.545-.005-.008-.013-.013-.022-.013h-.118c-.003.057-.015.173-.033.346-.044.26-.102.449-.175.568l-.167-.038c.138-.257.21-.55.215-.876h-.154V9.84zm1.162.915h-.425c-.029 0-.044-.015-.044-.046V9.647c.001-.029.015-.044.044-.044h.425c.03.001.046.015.046.044v1.063c-.002.03-.017.046-.046.046zm-.3-.99c-.006.001-.007.004-.007.006v.814c.001.005.004.008.006.008h.176c.005 0 .007-.003.007-.008v-.814c0-.005-.002-.006-.007-.006h-.176zM4.134 10.405v-.16h.327a2.274 2.274 0 0 0-.074-.138h.084l.148-.11h-.391v-.125a1.067 1.067 0 0 1-.173.245v.644h-.16v-.493l-.067.053-.13-.11c.095-.07.182-.148.26-.229a.84.84 0 0 0 .127-.2H3.77V9.62h.365a4.52 4.52 0 0 1 .028-.107l.162.035-.017.072h.638v.16h-.685l-.015.044a.026.026 0 0 0-.007.015h.565l.13.117-.31.247c.004.013.01.025.016.039h.323v.16h-.273c.012.058.019.11.019.153-.004.1-.037.17-.1.208-.084.05-.213.046-.39-.017l.007-.185c.089.04.154.061.195.065.037.003.063 0 .077-.013a.088.088 0 0 0 .032-.045.337.337 0 0 0-.012-.167h-.385v.003zM5.439 10.627c.014-.008.02-.017.02-.027v-.266h-.246v-.15h.612v.15H5.62v.357c-.002.028-.01.05-.028.065a.179.179 0 0 1-.071.037c-.048.013-.118 0-.211-.037v-.116l-.02.037-.136-.07c.06-.102.1-.187.122-.256l.138.062a1.376 1.376 0 0 1-.082.185c.063.024.098.034.107.029zm.01-.872h-.236v-.15h.236v-.068h.16v.067h.218v.15H5.61V9.8h.168v.15H5.24V9.8h.208v-.045zm.296.234v.15h-.462v-.15h.462zm.098.812-.133-.118a.644.644 0 0 0 .123-.1l-.098.037a1.066 1.066 0 0 0-.1-.192l.135-.064c.044.076.075.137.094.184a.861.861 0 0 0 .172-.555v-.197h-.021a1 1 0 0 1-.1.315l-.155-.039c.082-.165.123-.341.122-.524h.155a1.181 1.181 0 0 0-.005.093h.328l.1.056c-.019.183-.045.34-.079.47l-.157-.027c.037-.12.063-.236.077-.345h-.104v.197c0 .03-.002.061-.005.094.02.14.051.25.089.329.044.093.115.19.213.293l-.158.082a1.574 1.574 0 0 1-.218-.356.848.848 0 0 1-.275.367zM7.51 10.767h-.161v-.332a1.28 1.28 0 0 1-.324.263l-.1-.113v.182h-.16v-.604l-.144-.064c.127-.173.205-.362.236-.565l.16.03c.007-.012.02-.019.04-.019h.748c.03.002.045.016.045.044v.414c0 .03-.015.045-.045.045H7.51v.067h.379v.16h-.319c.09.11.217.215.382.313l-.128.115a1.764 1.764 0 0 1-.313-.266v.33zm-.224-.493h-.341v-.16h.402v-.067h-.292c-.029 0-.044-.015-.044-.045v-.405a1.954 1.954 0 0 1-.088.3v.665a1.314 1.314 0 0 0 .363-.288zm-.105-.568c-.005.001-.007.004-.007.006v.166c.002.005.004.007.007.007h.5c.005 0 .008-.002.008-.007v-.166c0-.005-.003-.006-.008-.006h-.5zM8.66 10.628a.826.826 0 0 1-.13.162l-.139-.09a.938.938 0 0 0 .229-.36H8.533a.253.253 0 0 1-.058.151.152.152 0 0 1-.084.05.2.2 0 0 1-.113-.01v.235h-.15V9.569c0-.017.009-.026.025-.026h.27l.09.065-.024.105c.2-.065.33-.139.393-.22l.139.046a.17.17 0 0 0-.015.021c.112.07.245.12.399.152l-.063.152a4.283 4.283 0 0 1-.155-.054v.103h-.51v-.11a3.74 3.74 0 0 1-.17.075l-.038-.083-.031.144c-.008.035-.005.063.006.082.031.059.055.114.072.161v-.216c0-.014.006-.02.02-.02h.357c.014 0 .021.006.021.02v.35c0 .015-.007.022-.02.022H8.64l.13.046c-.01.03-.023.058-.035.086.063.05.122.104.18.16l-.116.12a2.494 2.494 0 0 0-.131-.145c0 .009-.005.017-.01.023zm-.298-.95H8.3c-.013 0-.02.007-.02.018v.67a.143.143 0 0 0 .03.018.09.09 0 0 0 .069 0c.01-.007.018-.033.022-.076 0-.072-.035-.17-.105-.295-.007-.011-.005-.027.004-.046l.063-.29zm.313.407c-.005.001-.006.003-.005.006v.1c0 .005.001.008.005.008h.086c.005-.001.007-.005.007-.008v-.1c-.002-.005-.004-.006-.007-.006h-.086zm.428-.313-.018-.01a2.002 2.002 0 0 1-.174-.101c-.04.03-.097.067-.173.11h.365v.001zm.314.927-.118.118a2.7 2.7 0 0 0-.173-.197v.002a.873.873 0 0 1-.116.166l-.143-.081a.885.885 0 0 0 .2-.366h-.1c-.014 0-.02-.008-.02-.022v-.357c0-.014.006-.02.02-.02h.351c.014 0 .022.006.022.02v.357c0 .014-.008.022-.022.022h-.237l.142.04c-.011.036-.024.069-.035.1.08.068.155.142.23.218zm-.314-.62c-.005.002-.007.005-.005.007v.105c0 .005 0 .008.005.008h.081c.005-.001.006-.005.006-.008v-.105c0-.005-.003-.006-.006-.006h-.081zM9.702 10.363l.109-.063h-.19v-.16h.508v-.104h-.303v-.094c-.062.03-.127.061-.195.091l-.086-.17c.319-.108.525-.23.623-.365l.166.045a.275.275 0 0 0-.02.031c.163.124.351.218.566.282l-.09.17a3.447 3.447 0 0 1-.188-.083v.093h-.305v.104h.501v.16h-.212l.12.068a18.5 18.5 0 0 1-.116.23h.192v.161H9.639v-.16h.194a1.772 1.772 0 0 0-.131-.236zm.429.237v-.298h-.276c.05.072.099.163.145.272l-.052.027h.183zm.342-.725-.029-.017a2.379 2.379 0 0 1-.236-.161c-.056.051-.141.11-.255.178h.52zm-.065.725a2.68 2.68 0 0 0 .153-.298h-.264v.298h.11zM11.184 10.536v.235h-.15v-.675c0-.023.01-.034.033-.034h.61c.025 0 .036.011.036.034v.556l.212-.032v-.252h-.178c-.015-.001-.021-.009-.021-.022v-.658c0-.013.007-.02.02-.02h.179v-.131h.15v.13h.184c.015 0 .022.008.022.021v.658c-.001.015-.008.022-.022.022h-.184v.231l.058-.008a6.98 6.98 0 0 1-.045-.132l.143-.04c.05.151.084.267.1.346l-.145.027a.566.566 0 0 1-.013-.05l-.432.068-.03-.123c-.002.045-.026.08-.07.104a.39.39 0 0 1-.201.021l-.008-.079h-.135v-.197h-.113zm.461-.508h-.565c-.013 0-.02-.006-.02-.02V9.74c.002-.013.008-.019.02-.019h.565c.014.001.02.008.02.019v.268c0 .014-.006.02-.02.02zm.01-.483v.15h-.585v-.15h.585zm-.217 1.105c.042.012.07.015.087.01.026-.013.039-.03.039-.05v-.22h-.124c-.038 0-.057-.018-.057-.057v-.148h-.03a.363.363 0 0 1-.009.064c-.02.061-.072.114-.159.157v.007h.374v.123h-.12v.114zm-.208-.465h-.035c-.008.001-.011.005-.011.011v.07a.138.138 0 0 0 .041-.048.16.16 0 0 0 .005-.033zm-.014-.341c-.005.001-.006.004-.005.006v.047c0 .005.002.007.005.007h.293c.005-.001.006-.005.006-.007V9.85c-.001-.005-.004-.006-.006-.006h-.293zm.348.434v-.083c0-.007-.004-.011-.013-.011h-.046v.063c0 .02.01.03.03.03h.029zm.362-.455h-.044c-.005-.002-.006 0-.006.006v.376c.001.005.004.008.006.008h.044v-.39zm.15.39h.048c.005 0 .008-.002.008-.007V9.83c-.001-.005-.005-.007-.008-.006h-.047v.39zM13.742 10.205v.14h-.167l.088.062c-.034.05-.069.095-.105.137.03.039.051.058.064.058.005 0 .009-.004.01-.013a.611.611 0 0 0 .007-.115l.15.041c-.022.14-.05.227-.086.26a.076.076 0 0 1-.045.017c-.06 0-.128-.051-.204-.154-.097.069-.22.123-.368.16l-.07-.14c.15-.036.268-.085.357-.148a.779.779 0 0 1-.075-.168h-.237c-.011 0-.017.005-.019.016.076.034.15.07.221.108l-.069.133a1.765 1.765 0 0 0-.153-.093.435.435 0 0 1-.152.295l-.096-.061v.03h-.15v-.448a.583.583 0 0 0-.023.051l-.148-.032c.077-.134.129-.275.154-.42h-.1V9.77h.116v-.236h.15v.236h.052a.272.272 0 0 0-.034-.033l.094-.102c.004 0 .01.005.015.013.022-.046.04-.094.057-.143l.125.06a1.627 1.627 0 0 1-.089.191.235.235 0 0 1 .023.032.76.76 0 0 0 .036-.107l.108.03a2.733 2.733 0 0 1-.006-.18l.152.008v.155l.064-.064.012.012c.02-.044.039-.09.058-.137l.124.063c-.018.048-.049.11-.092.187l.033.046a.811.811 0 0 0 .073-.189l.134.036a.804.804 0 0 1-.12.254l.102-.028c.04.13.066.217.073.26l-.13.024c-.004-.02-.008-.04-.014-.058l-.074.015c.02.018.04.036.059.059l-.032.03h.147v.001zm-.499-.041-.107.017-.007-.035-.177.02-.125.077a1.523 1.523 0 0 0-.033-.065v.509a.398.398 0 0 0 .073-.105.402.402 0 0 0 .025-.15v-.187c0-.027.014-.04.04-.04h.322a.255.255 0 0 1-.01-.041zm-.349-.132c.024-.03.048-.065.073-.104a.898.898 0 0 0-.083-.11v.105h-.088l.076.11h.022zm.186-.053-.021.033.031-.004a.202.202 0 0 1-.01-.028zm.107-.195a3.76 3.76 0 0 1-.056.115.482.482 0 0 0-.04.068l.106-.025a.244.244 0 0 0 .012.037 2.441 2.441 0 0 1-.022-.195zm.173.227.034-.006c.017-.022.035-.044.052-.07a1.186 1.186 0 0 0-.114-.159c.006.082.015.16.028.235zm.104.123-.08.014c.005.02.01.039.013.057h.07a.578.578 0 0 0-.038-.031l.035-.04zm.059.21h-.08c.002.003.005.006.005.008.007.02.015.039.023.055.018-.019.034-.04.052-.063zm.069-.412-.027.039.037-.007-.01-.032zM14.556 10.76H14.4v-.196h-.07v-.134h.07v-.226l-.088.056a1.573 1.573 0 0 0-.049-.09v.597h-.155v-.457a.458.458 0 0 1-.028.056l-.145-.035a1.23 1.23 0 0 0 .163-.412h-.116v-.155h.124v-.222h.156v.222h.1v.155h-.1v.001c.046.063.093.13.137.197.005-.016.016-.024.036-.024h.27v-.038h-.333v-.133h.192v-.04h-.149V9.76h.15v-.034h-.181V9.59h.18v-.054h.15v.054h.154v-.05h.15v.05h.173v.134h-.173v.034h.152v.123h-.152v.038h.201v.135h-.362v.039h.278c.025 0 .038.012.038.036v.298h.051v.135h-.051v.092c-.002.05-.027.088-.073.116a.487.487 0 0 1-.252.027l-.018-.171c.07.013.12.017.146.007.027-.012.04-.03.04-.051v-.02h-.462v.197h.002zm.15-.531h-.14c-.007.001-.01.005-.01.011v.023h.15v-.034zm0 .2v-.033h-.15v.034h.15zm.162-.704h-.153v.034h.153v-.034zm0 .197v-.04h-.153v.04h.153zm-.011.34h.16v-.023c0-.008-.004-.011-.012-.011h-.15v.034h.002zm.16.168v-.034h-.16v.034h.16z" fill="#ED1C24"/>
    <path d="M15.832 12.884H.167v.537h15.665v-.537z" fill="#FFCA00"/>
    <path d="M11.248 1.074H4.753a.272.272 0 0 0-.273.272V7.84c0 .15.122.272.273.272h6.495c.15 0 .272-.122.272-.272V1.346a.272.272 0 0 0-.272-.272z" fill="#004095"/>
    <path d="m7.497 1.89-2.073.507s-.28.085-.282.528l-.02 3.406s-.022.432.517.57l2.124.475.01-1.955-.354-.002s.188.646-.533.642l-.742-.004s.38-.565.39-2.432l.002-.298s-.047-.231.262-.23l.682.004.017-1.212zM8.535 1.896l2.066.531s.278.088.276.53l-.02 3.406s.016.433-.523.565l-2.13.45.011-1.954.357.002s-.196.645.525.649l.74.004s-.371-.571-.361-2.437l.001-.299s.05-.23-.258-.232l-.684-.004V1.896z" fill="#FFCA00"/>
    <path d="M15.832 13.477H.167v2.38h15.665v-2.38z" fill="#004095"/>
    <path d="M.758 15.616v-.54h.076v.539H.758v.001zM.872 15.44l.074-.01a.156.156 0 0 0 .028.078.07.07 0 0 0 .055.025c.025 0 .043-.007.055-.022a.08.08 0 0 0 .011-.084.066.066 0 0 0-.027-.024.474.474 0 0 0-.062-.024.193.193 0 0 1-.085-.053.174.174 0 0 1-.035-.107c0-.028.005-.053.016-.077a.112.112 0 0 1 .048-.054.138.138 0 0 1 .074-.019c.048 0 .083.015.106.044a.19.19 0 0 1 .038.12l-.076.004c-.004-.027-.01-.047-.022-.06-.011-.012-.026-.017-.047-.017-.023 0-.04.006-.052.02a.051.051 0 0 0-.012.034.05.05 0 0 0 .01.032c.01.011.034.024.071.037a.3.3 0 0 1 .083.039.133.133 0 0 1 .041.055c.01.022.015.051.015.085 0 .031-.006.06-.017.087a.136.136 0 0 1-.052.06.164.164 0 0 1-.081.02.136.136 0 0 1-.11-.048.26.26 0 0 1-.047-.14zM1.208 15.44l.074-.01a.156.156 0 0 0 .028.078.07.07 0 0 0 .055.025c.025 0 .042-.007.055-.022a.08.08 0 0 0 .011-.084.066.066 0 0 0-.027-.024.474.474 0 0 0-.062-.024.193.193 0 0 1-.085-.053.174.174 0 0 1-.035-.107c0-.028.005-.053.016-.077a.112.112 0 0 1 .048-.054.138.138 0 0 1 .074-.019c.047 0 .083.015.106.044a.19.19 0 0 1 .038.12l-.076.004c-.004-.027-.01-.047-.022-.06-.011-.012-.026-.017-.047-.017-.023 0-.04.006-.052.02a.051.051 0 0 0-.012.034.05.05 0 0 0 .01.032c.01.011.033.024.071.037a.3.3 0 0 1 .083.039.133.133 0 0 1 .041.055c.01.022.015.051.015.085 0 .031-.006.06-.017.087a.136.136 0 0 1-.052.06.164.164 0 0 1-.081.02.136.136 0 0 1-.11-.048.26.26 0 0 1-.047-.14zM1.563 15.077h.077v.292c0 .046.001.076.003.09.003.023.01.04.023.053.013.014.03.02.05.02.022 0 .038-.006.05-.019a.083.083 0 0 0 .02-.046.776.776 0 0 0 .003-.092v-.298h.077v.283c0 .065-.003.11-.007.137a.18.18 0 0 1-.022.068.134.134 0 0 1-.044.043.139.139 0 0 1-.073.017.157.157 0 0 1-.081-.018.12.12 0 0 1-.044-.046.173.173 0 0 1-.021-.06.925.925 0 0 1-.008-.137v-.287h-.003zM1.928 15.616v-.54h.28v.092h-.204v.12h.19v.09h-.19v.146h.211v.09h-.287v.002zM2.265 15.077h.139c.031 0 .055.003.071.01a.12.12 0 0 1 .057.05.267.267 0 0 1 .036.088.52.52 0 0 1 .013.126.502.502 0 0 1-.012.114.28.28 0 0 1-.04.096.13.13 0 0 1-.054.043.165.165 0 0 1-.067.01h-.143v-.537zm.075.091v.356h.056a.142.142 0 0 0 .047-.005.06.06 0 0 0 .03-.022.145.145 0 0 0 .02-.052.503.503 0 0 0 .007-.099.453.453 0 0 0-.007-.095.16.16 0 0 0-.021-.053.064.064 0 0 0-.036-.025.231.231 0 0 0-.062-.005H2.34zM2.761 15.077h.15c.03 0 .053 0 .067.005a.081.081 0 0 1 .039.022.132.132 0 0 1 .029.045c.007.02.011.04.011.063a.174.174 0 0 1-.014.07.115.115 0 0 1-.039.047.11.11 0 0 1 .053.049.195.195 0 0 1-.026.208.087.087 0 0 1-.052.025.65.65 0 0 1-.091.004H2.76v-.538h.001zm.075.09v.124h.05l.056-.001a.045.045 0 0 0 .03-.019.072.072 0 0 0 .011-.043.076.076 0 0 0-.01-.04.043.043 0 0 0-.029-.019h-.108v-.002zm0 .215v.144h.07a.218.218 0 0 0 .053-.004c.011-.003.02-.01.028-.021a.08.08 0 0 0 .011-.045.084.084 0 0 0-.009-.042.051.051 0 0 0-.024-.025.187.187 0 0 0-.067-.007h-.062zM3.224 15.616v-.227l-.138-.312h.089l.09.213.086-.213h.087l-.139.312v.226h-.075v.001zM3.825 15.418l.074.034a.258.258 0 0 1-.057.13.13.13 0 0 1-.1.043c-.05 0-.091-.024-.123-.073a.357.357 0 0 1-.049-.2c0-.09.017-.16.05-.21.032-.05.074-.074.127-.074.047 0 .084.02.113.059.018.022.03.056.039.099l-.075.026a.14.14 0 0 0-.028-.066.065.065 0 0 0-.051-.024c-.028 0-.05.014-.068.043a.278.278 0 0 0-.026.139c0 .068.008.117.025.145.017.03.039.044.066.044.02 0 .038-.009.053-.027a.262.262 0 0 0 .03-.088zM3.947 15.616v-.54h.28v.092h-.203v.12h.19v.09h-.19v.146h.21v.09h-.287v.002zM4.285 15.616v-.54h.074l.154.36v-.36h.07v.539h-.076l-.152-.351v.35h-.07v.002zM4.734 15.616v-.448h-.112v-.091h.3v.091H4.81v.448h-.076zM4.956 15.616v-.54h.16c.04 0 .07.006.088.016a.1.1 0 0 1 .044.051.203.203 0 0 1 .017.085c0 .04-.01.074-.025.1a.112.112 0 0 1-.074.05c.016.015.03.03.04.046a.612.612 0 0 1 .044.088l.046.105h-.092l-.055-.116c-.02-.042-.032-.068-.04-.08a.064.064 0 0 0-.022-.022.096.096 0 0 0-.04-.006h-.014v.224h-.077v-.001zm.075-.311h.057a.245.245 0 0 0 .069-.006.053.053 0 0 0 .021-.023.096.096 0 0 0 .008-.04.09.09 0 0 0-.01-.044.046.046 0 0 0-.03-.021c-.006-.002-.024-.002-.054-.002h-.06v.136z" fill="#fff"/>
    <path d="M5.66 15.616h-.082l-.033-.123h-.15l-.032.123h-.08l.147-.538h.08l.15.538zm-.14-.213-.051-.2-.052.2h.103zM5.688 15.616v-.534h.076v.444h.19v.09h-.266zM6.113 15.077h.14c.03 0 .055.003.071.01a.12.12 0 0 1 .056.05.267.267 0 0 1 .037.088.52.52 0 0 1 .012.126.501.501 0 0 1-.01.114.28.28 0 0 1-.041.096.13.13 0 0 1-.054.043.166.166 0 0 1-.068.01h-.143v-.537zm.076.091v.356h.056a.142.142 0 0 0 .046-.005.07.07 0 0 0 .032-.022.136.136 0 0 0 .02-.052.503.503 0 0 0 .007-.099.453.453 0 0 0-.007-.095.16.16 0 0 0-.021-.053.064.064 0 0 0-.036-.025.231.231 0 0 0-.062-.005h-.035zM6.479 15.616v-.54h.28v.092h-.204v.12h.19v.09h-.19v.146h.21v.09H6.48v.002zM6.814 15.616v-.54h.122c.047 0 .077.003.09.008a.1.1 0 0 1 .054.053.216.216 0 0 1 .022.105.238.238 0 0 1-.013.084.135.135 0 0 1-.032.053.096.096 0 0 1-.04.025.304.304 0 0 1-.078.008h-.05v.203h-.075v.001zm.076-.448v.153h.041c.03 0 .05-.002.06-.008a.061.061 0 0 0 .024-.027.09.09 0 0 0 .009-.041.086.086 0 0 0-.013-.05.05.05 0 0 0-.03-.023.253.253 0 0 0-.055-.004H6.89zM7.135 15.35c0-.055.006-.1.017-.138a.288.288 0 0 1 .035-.074.181.181 0 0 1 .05-.049.158.158 0 0 1 .08-.021c.056 0 .101.025.134.074.034.049.05.118.05.206a.357.357 0 0 1-.05.204.153.153 0 0 1-.133.074.155.155 0 0 1-.134-.073.38.38 0 0 1-.05-.203zm.079-.004c0 .062.01.107.03.14.02.03.045.047.075.047s.055-.015.075-.046a.264.264 0 0 0 .03-.14.266.266 0 0 0-.03-.139c-.018-.03-.043-.045-.075-.045-.031 0-.056.015-.075.047-.02.028-.03.074-.03.136zM7.526 15.44l.074-.01a.156.156 0 0 0 .028.078.07.07 0 0 0 .055.025c.025 0 .043-.007.055-.022a.08.08 0 0 0 .012-.084.066.066 0 0 0-.028-.024.474.474 0 0 0-.061-.024.193.193 0 0 1-.086-.053.174.174 0 0 1-.035-.107c0-.028.005-.053.016-.077a.112.112 0 0 1 .048-.054.138.138 0 0 1 .074-.019c.048 0 .083.015.107.044a.19.19 0 0 1 .037.12l-.076.004c-.004-.027-.01-.047-.021-.06-.012-.012-.027-.017-.048-.017-.023 0-.039.006-.052.02a.051.051 0 0 0-.012.034.05.05 0 0 0 .011.032c.01.011.033.024.07.037a.273.273 0 0 1 .082.039.133.133 0 0 1 .041.055c.01.022.015.051.015.085 0 .031-.006.06-.017.087a.136.136 0 0 1-.052.06.164.164 0 0 1-.081.02.136.136 0 0 1-.11-.048.27.27 0 0 1-.046-.14zM7.879 15.616v-.54h.076v.539H7.88v.001zM8.097 15.616v-.448h-.112v-.091h.3v.091h-.111v.448h-.077zM8.446 15.616v-.54h.077v.539h-.077v.001zM8.581 15.616v-.54h.074l.154.36v-.36h.07v.539h-.076l-.152-.351v.35h-.07v.002zM8.926 15.44 9 15.43a.156.156 0 0 0 .027.078.07.07 0 0 0 .056.025c.025 0 .042-.007.055-.022a.08.08 0 0 0 .011-.084.066.066 0 0 0-.028-.024.474.474 0 0 0-.061-.024.193.193 0 0 1-.085-.053.174.174 0 0 1-.035-.107c0-.028.005-.053.016-.077a.112.112 0 0 1 .048-.054.138.138 0 0 1 .074-.019c.047 0 .082.015.106.044.024.03.037.07.038.12l-.077.004c-.003-.027-.01-.047-.021-.06-.011-.012-.026-.017-.048-.017-.022 0-.039.006-.051.02a.051.051 0 0 0-.013.034.05.05 0 0 0 .012.032c.01.011.032.024.07.037a.273.273 0 0 1 .081.039.133.133 0 0 1 .042.055c.01.022.015.051.015.085 0 .031-.006.06-.018.087a.136.136 0 0 1-.051.06.16.16 0 0 1-.082.02.136.136 0 0 1-.11-.048.282.282 0 0 1-.045-.14zM9.281 15.077h.077v.292c0 .046.001.076.002.09.004.023.012.04.024.053.013.014.029.02.05.02.022 0 .038-.006.05-.019a.083.083 0 0 0 .02-.046.775.775 0 0 0 .003-.092v-.298h.077v.283c0 .065-.003.11-.007.137a.18.18 0 0 1-.022.068.134.134 0 0 1-.044.043.139.139 0 0 1-.073.017.157.157 0 0 1-.081-.018.12.12 0 0 1-.044-.046.173.173 0 0 1-.022-.06.926.926 0 0 1-.007-.137v-.287H9.28zM9.647 15.616v-.54h.161c.04 0 .069.006.088.016a.1.1 0 0 1 .044.051.203.203 0 0 1 .016.085.19.19 0 0 1-.025.1.112.112 0 0 1-.074.05c.016.015.03.03.04.046a.612.612 0 0 1 .044.088l.046.105h-.091l-.055-.116-.04-.08a.064.064 0 0 0-.023-.022.096.096 0 0 0-.039-.006h-.015v.224h-.077v-.001zm.077-.311h.056a.245.245 0 0 0 .07-.006.053.053 0 0 0 .02-.023.095.095 0 0 0 .008-.04.09.09 0 0 0-.01-.044.046.046 0 0 0-.029-.021c-.006-.002-.025-.002-.055-.002h-.059v.136h-.001z" fill="#fff"/>
    <path d="M10.352 15.616h-.083l-.032-.123h-.15l-.032.123h-.08l.146-.538h.08l.151.538zm-.14-.213-.052-.2-.051.2h.103zM10.377 15.616v-.54h.074l.154.36v-.36h.07v.539H10.6l-.152-.351v.35h-.07v.002zM10.983 15.418l.074.034a.257.257 0 0 1-.056.13.13.13 0 0 1-.1.043c-.05 0-.092-.024-.124-.073a.357.357 0 0 1-.048-.2c0-.09.016-.16.048-.21a.146.146 0 0 1 .128-.074c.047 0 .084.02.113.059.018.022.03.056.04.099l-.076.026a.14.14 0 0 0-.028-.066.065.065 0 0 0-.051-.024c-.028 0-.05.014-.068.043a.279.279 0 0 0-.026.139c0 .068.009.117.026.145.018.03.039.044.067.044.02 0 .037-.009.052-.027a.238.238 0 0 0 .03-.088zM11.107 15.616v-.54h.28v.092h-.203v.12h.19v.09h-.19v.146h.21v.09h-.287v.002zM11.816 15.418l.074.034a.258.258 0 0 1-.056.13.13.13 0 0 1-.1.043c-.05 0-.092-.024-.124-.073a.357.357 0 0 1-.048-.2c0-.09.016-.16.048-.21.033-.05.076-.074.128-.074.047 0 .084.02.113.059.018.022.03.056.04.099l-.076.026a.14.14 0 0 0-.028-.066.065.065 0 0 0-.051-.024c-.028 0-.05.014-.068.043a.279.279 0 0 0-.026.139c0 .068.009.117.026.145.018.03.039.044.067.044.02 0 .037-.009.052-.027a.296.296 0 0 0 .03-.088zM11.924 15.35c0-.055.006-.1.017-.138a.29.29 0 0 1 .035-.074.183.183 0 0 1 .05-.049.158.158 0 0 1 .081-.021c.055 0 .1.025.133.074a.37.37 0 0 1 .05.206.357.357 0 0 1-.05.204.154.154 0 0 1-.133.074.155.155 0 0 1-.134-.073.37.37 0 0 1-.05-.203zm.079-.004c0 .062.01.107.03.14.02.03.045.047.075.047s.055-.015.075-.046a.265.265 0 0 0 .03-.14.266.266 0 0 0-.03-.139c-.018-.03-.043-.045-.075-.045-.031 0-.056.015-.075.047-.021.028-.03.074-.03.136zM12.334 15.616v-.54h.16c.04 0 .07.006.088.016a.1.1 0 0 1 .044.051.203.203 0 0 1 .017.085.19.19 0 0 1-.026.1.112.112 0 0 1-.074.05c.017.015.03.03.04.046a.61.61 0 0 1 .044.088l.047.105h-.092l-.055-.116c-.02-.042-.032-.068-.04-.08a.063.063 0 0 0-.023-.022.096.096 0 0 0-.039-.006h-.014v.224h-.077v-.001zm.077-.311h.056a.245.245 0 0 0 .069-.006.054.054 0 0 0 .021-.023.096.096 0 0 0 .008-.04.09.09 0 0 0-.01-.044.046.046 0 0 0-.03-.021c-.005-.002-.024-.002-.054-.002h-.06v.136zM12.7 15.616v-.54h.12c.047 0 .077.003.091.008a.1.1 0 0 1 .054.053.215.215 0 0 1 .021.105.237.237 0 0 1-.012.084.135.135 0 0 1-.033.053.096.096 0 0 1-.039.025.304.304 0 0 1-.079.008h-.05v.203H12.7v.001zm.075-.448v.153h.04c.031 0 .051-.002.061-.008a.062.062 0 0 0 .024-.027.09.09 0 0 0 .009-.041.086.086 0 0 0-.013-.05.05.05 0 0 0-.03-.023.252.252 0 0 0-.055-.004h-.037zM13.019 15.35c0-.055.006-.1.017-.138a.29.29 0 0 1 .035-.074.182.182 0 0 1 .05-.049.158.158 0 0 1 .08-.021c.056 0 .101.025.134.074.033.049.05.118.05.206a.357.357 0 0 1-.05.204.153.153 0 0 1-.133.074.154.154 0 0 1-.134-.073.38.38 0 0 1-.05-.203zm.079-.004c0 .062.01.107.03.14.02.03.045.047.075.047s.055-.015.075-.046a.264.264 0 0 0 .029-.14.266.266 0 0 0-.029-.139c-.019-.03-.044-.045-.075-.045s-.056.015-.075.047c-.02.028-.03.074-.03.136zM13.429 15.616v-.54h.16c.04 0 .07.006.088.016.019.01.033.026.044.051a.203.203 0 0 1 .016.085.19.19 0 0 1-.025.1.112.112 0 0 1-.074.05c.017.015.03.03.04.046a.61.61 0 0 1 .044.088l.047.105h-.092l-.055-.116-.04-.08a.064.064 0 0 0-.023-.022.097.097 0 0 0-.039-.006h-.015v.224h-.076v-.001zm.076-.311h.057a.246.246 0 0 0 .069-.006.054.054 0 0 0 .021-.023.096.096 0 0 0 .008-.04.091.091 0 0 0-.01-.044.046.046 0 0 0-.03-.021c-.006-.002-.024-.002-.055-.002h-.058v.136h-.002z" fill="#fff"/>
    <path d="M14.133 15.616h-.082l-.033-.123h-.15l-.032.123h-.08l.147-.538h.08l.15.538zm-.14-.213-.052-.2-.05.2h.102zM14.205 15.616v-.448h-.111v-.091h.3v.091h-.112v.448h-.077zM14.424 15.616v-.54h.076v.539h-.076v.001zM14.541 15.35c0-.055.006-.1.018-.138a.287.287 0 0 1 .035-.074.181.181 0 0 1 .049-.049.158.158 0 0 1 .081-.021c.055 0 .1.025.133.074.034.049.05.118.05.206a.357.357 0 0 1-.05.204.154.154 0 0 1-.133.074.155.155 0 0 1-.134-.073.38.38 0 0 1-.049-.203zm.079-.004c0 .062.01.107.03.14.02.03.045.047.075.047s.056-.015.076-.046a.265.265 0 0 0 .028-.14.266.266 0 0 0-.028-.139c-.02-.03-.044-.045-.076-.045-.031 0-.056.015-.075.047-.02.028-.03.074-.03.136zM14.953 15.616v-.54h.074l.154.36v-.36h.07v.539h-.076l-.152-.351v.35h-.07v.002zM12.808 14.698a.944.944 0 0 1-.235.053l-.045-.136c.106-.012.208-.036.31-.072h-.29v-.12h.5v-.012l-.018-.004-.009-.132c.045.015.075.02.09.017.02-.01.03-.023.03-.04 0-.005-.003-.01-.01-.01h-.146v.158h-.14v-.157h-.126c-.006.001-.01.004-.01.01v.108h-.12v-.207c0-.02.01-.03.03-.03h.227v-.03h-.271v-.106a.375.375 0 0 0-.055-.073.477.477 0 0 0 .151-.178l.118.076a1.109 1.109 0 0 0-.007.01h.064v-.057h.139v.058h.245v.119h-.245v.03h.258v.12h-.258v.03h.245c.02 0 .03.01.03.03v.154a.097.097 0 0 1-.054.086.45.45 0 0 0-.024.012v.016h.464v.12h-.133l.04.08c-.041.026-.089.05-.143.075.08.035.166.057.257.07l-.051.135a.775.775 0 0 1-.432-.202l.024.123c-.14.042-.315.07-.52.083l-.018-.14c.046-.005.093-.01.137-.013v-.054h.001zm.039-.754h-.157l-.031.03h.188v-.03zm.327.748a.663.663 0 0 1-.092-.12 1.903 1.903 0 0 1-.135.073v.095c.088-.016.163-.03.227-.048zm.103-.087c.052-.021.098-.042.14-.061h-.189a.435.435 0 0 0 .049.062zm.008-.786h.134v.392h-.134v-.392zm.2-.043h.14v.523a.103.103 0 0 1-.017.055.131.131 0 0 1-.055.044c-.044.022-.114.018-.21-.008l.003-.146c.064.029.105.038.124.025.01-.005.017-.016.017-.031v-.462h-.002zM14.63 14.904l-.05-.09c-.007.03-.02.05-.037.06a.274.274 0 0 1-.115.038.762.762 0 0 1-.212-.029l-.013-.151a.84.84 0 0 0 .183.04.152.152 0 0 0 .07-.016c.008-.004.013-.013.016-.026a.92.92 0 0 0 .012-.14c-.004-.012-.011-.018-.02-.015h-.12v.041a1.611 1.611 0 0 0-.133-.006v-.341c0-.01.003-.019.01-.024a.034.034 0 0 1 .021-.007h.235v-.03c0-.013-.008-.02-.022-.02h-.104c-.06.022-.12.037-.182.048l-.076-.124a1.08 1.08 0 0 0 .194-.046c.001-.002.004-.002.006-.003a1.045 1.045 0 0 0-.117-.085l.086-.107c.056.038.112.08.164.126a.408.408 0 0 0 .096-.088h-.198v-.134h.313l.07.059.054-.082c.03.033.058.063.087.09.041-.04.075-.076.1-.106l.098.094a1.142 1.142 0 0 1-.094.1l.025.018c.039-.042.07-.08.093-.11l.103.087a.92.92 0 0 1-.077.092c.053.026.114.05.182.075l-.085.114h.021c-.006.063-.01.1-.014.117a.07.07 0 0 1-.021.037.105.105 0 0 1-.068.028h-.104a.096.096 0 0 1-.068-.025.091.091 0 0 1-.027-.066V14.2c-.001-.013-.008-.019-.019-.019h-.063c-.01 0-.016.005-.016.016v.036a.165.165 0 0 1-.018.074.217.217 0 0 1-.106.091h.395l.081.078a.772.772 0 0 1-.09.17.749.749 0 0 1-.069.072.88.88 0 0 0 .232.045l-.049.136a.754.754 0 0 1-.306-.096.935.935 0 0 1-.253.1zm.085-.373h-.054v-.123l-.05-.081v.092h-.134v-.049h-.112c-.006 0-.011.002-.015.006a.027.027 0 0 0-.006.016v.049h.235c.022-.002.034.007.037.027a4.407 4.407 0 0 1-.024.294c.038-.01.094-.03.172-.06a1.054 1.054 0 0 1-.11-.122l.06-.049zm.188-.47a1.754 1.754 0 0 1-.2-.17.512.512 0 0 1-.122.162h.007c.015 0 .023.008.023.021v.217l.046-.02c.027-.017.04-.044.04-.08v-.104c0-.008.003-.014.008-.019a.028.028 0 0 1 .019-.007h.18zm-.019.574a.537.537 0 0 0 .103-.104h-.2a.794.794 0 0 0 .097.104zm.272-.436a2.375 2.375 0 0 1-.123-.06v.107c0 .008.002.014.004.017.003.003.009.005.018.006h.015a.05.05 0 0 0 .025-.009.74.74 0 0 0 .007-.07l.054.009zM1.762 13.923h-.374v-.103a.083.083 0 1 0-.166 0v.103H.85a.088.088 0 0 0-.088.088v.508H1.223v.379h.166v-.38H1.851v-.507a.09.09 0 0 0-.09-.088zm-.54.445H.908v-.295h.31v.295h.002zm.477 0h-.312v-.295h.31v.295H1.7zM5.067 14.048h-.2v.117h.498a.058.058 0 0 0 .058-.058.058.058 0 0 0-.058-.058h-.141v-.06h.149a.06.06 0 0 0 .06-.06.06.06 0 0 0-.06-.06h-.15v-.052a.079.079 0 0 0-.078-.079.079.079 0 0 0-.08.08v.05h-.208v.121h.209a.95.95 0 0 1 0 .06zM5.373 14.519a.06.06 0 0 0 0-.12h-.515v.12h.224v.218a.049.049 0 0 1-.05.049H4.98v.113h.14c.05 0 .09-.041.09-.092v-.287l.163-.001zM5.382 14.224h-.498v.117h.498a.058.058 0 0 0 .057-.058.058.058 0 0 0-.057-.059z" fill="#fff"/>
    <path d="M4.893 14.562c.003.119-.047.122-.047.122v.115c.18-.003.178-.237.178-.237h-.13zM5.392 14.562h-.13s-.003.234.178.237v-.115s-.05-.003-.048-.122zM5.922 13.873H5.66v-.067a.067.067 0 0 0-.068-.068.067.067 0 0 0-.068.068V13.876c-.003.193-.07.242-.07.242v.114a.345.345 0 0 0 .184-.214h.05c.01.278-.028.666-.195.75v.134s.016-.001.034-.005c.111-.037.18-.133.223-.248.044.117.113.212.217.248a.139.139 0 0 0 .034.005v-.134c-.114-.058-.167-.256-.187-.464.008-.11.006-.212.006-.286h.054v.19h.138v-.243a.09.09 0 0 0-.091-.092zM7.377 14.333h-.338v-.092h.271v-.371a.088.088 0 0 0-.087-.088H6.7a.088.088 0 0 0-.088.088v.371h.267v.092h-.336v.117h.287a.541.541 0 0 1-.264.282v.149c.085-.01.245-.148.314-.246v.266h.16v-.27c.067.097.232.239.318.25v-.15a.536.536 0 0 1-.264-.281h.284a.058.058 0 0 0 .058-.058c-.002-.033-.028-.06-.06-.06zm-.615-.228v-.19h.398v.19h-.398zM6.544 13.812a.074.074 0 0 0-.148 0 .64.64 0 0 1-.193.432v.16a.634.634 0 0 0 .134-.1v.597h.136v-.788c.071-.153.071-.293.071-.3zM3.18 14.327h-.071v-.345a.088.088 0 0 0-.088-.088h-.303v-.075a.083.083 0 1 0-.166 0v.075h-.304a.088.088 0 0 0-.087.088v.343h-.064v.132h.431c-.081.245-.357.282-.431.291v.15c.158-.013.42-.098.54-.33.12.232.383.317.54.33v-.15c-.073-.009-.348-.046-.43-.29h.436a.065.065 0 0 0 .065-.066c0-.037-.032-.065-.069-.065zm-.63 0H2.31v-.3h.242v.3zm.408 0h-.242v-.3h.242v.3zM4.526 13.983a.07.07 0 1 0 0-.14h-.618a.186.186 0 0 0 .001-.022.08.08 0 0 0-.076-.083.08.08 0 0 0-.083.077c0 .001 0 .01-.003.027H3.47v.142h.25c-.036.13-.115.3-.286.377l.018.164a.556.556 0 0 0 .164-.09v.465h.15v-.626a.921.921 0 0 0 .12-.289c.296-.002.641-.002.641-.002z" fill="#fff"/>
    <path d="M4.548 14.461h-.19v-.098l.148-.156a.063.063 0 0 0 .017-.032c.002-.009.005-.017.005-.026a.087.087 0 0 0-.088-.088h-.51v.117h.41l-.057.061-.002.003-.052.055-.022.025v.14h-.373v.117h.373v.094c0 .031.002.092-.03.092H4.03v.134h.22a.11.11 0 0 0 .109-.11v-.21h.189a.059.059 0 0 0 .059-.059c-.003-.032-.029-.059-.06-.059zM8.057 13.859c.003-.018.006-.042.004-.06-.005-.036-.026-.06-.068-.06H7.702V14.9h.126v-.24h.165c.042 0 .062-.026.068-.061a.19.19 0 0 0-.004-.06c-.001-.009-.002-.02-.005-.032a1.842 1.842 0 0 1-.027-.308c0-.144.017-.243.027-.309l.005-.032zm-.157.34v.018c.003.143.02.244.03.31v.003h-.102v-.665h.102v.002a1.955 1.955 0 0 0-.03.31v.022zM8.48 13.738h-.005a.108.108 0 0 0-.067.023c-.224.176-.312.194-.313.194v.14c.003-.002.036-.008.086-.024v.064h.594v-.064a.49.49 0 0 0 .086.024v-.14c-.001 0-.09-.018-.313-.194a.114.114 0 0 0-.068-.023zm-.177.28a.912.912 0 0 0 .145-.095c.01-.008.02-.01.03-.01h.002c.009 0 .019.002.029.01.008.007.017.012.025.018a.911.911 0 0 0 .12.077h-.351zM8.361 14.593l.002-.033h.096v-.32a.069.069 0 0 0-.07-.069h-.167a.069.069 0 0 0-.07.07v.32h.085c-.001.085-.027.127-.09.181v.16l.02-.006a.247.247 0 0 0 .141-.153c.028.073.07.133.136.156a.245.245 0 0 0 .021.004v-.16a.278.278 0 0 1-.04-.03.296.296 0 0 1-.064-.12zm-.092-.319h.073v.18H8.27v-.18zM8.706 14.593l.002-.033h.096v-.32a.069.069 0 0 0-.07-.069h-.168a.069.069 0 0 0-.069.07v.32h.085c-.002.085-.027.127-.09.181v.16l.02-.006a.248.248 0 0 0 .141-.153c.028.073.07.133.135.156a.246.246 0 0 0 .022.004v-.16a.278.278 0 0 1-.04-.03.296.296 0 0 1-.064-.12zm-.092-.319h.073v.18h-.073v-.18zM11.22 14.078a.071.071 0 0 0-.07-.071h-.653v.143h.652c.04 0 .072-.033.072-.072zM11.19 14.62v-.321a.084.084 0 0 0-.084-.084h-.497a.084.084 0 0 0-.084.084v.352h.664v-.032h.001zm-.143-.097h-.377v-.18h.377v.18z" fill="#fff"/>
    <path d="M11.323 13.738h-.843v.148h.832v.867h-.352v.148h.363a.137.137 0 0 0 .137-.137v-.889a.135.135 0 0 0-.137-.137zM9.988 14.441h-.185l.174.298H9.38l.32-.548h-.186l-.286.49c-.034.059-.038.11-.013.153.04.066.123.066.164.066H9.994c.044-.001.114-.006.148-.065.026-.043.02-.094-.012-.153l-.142-.241z" fill="#fff"/>
    <path d="M10.002 13.894c-.01-.014-.017-.029-.025-.045l-.002-.004a.045.045 0 0 1-.005-.011.15.15 0 0 0-.078-.084c-.025-.012-.05-.012-.07-.012h-.29c-.017 0-.043 0-.07.012a.153.153 0 0 0-.078.084c0 .003-.003.007-.005.01v.005l-.026.045a.503.503 0 0 1-.24.228v.172a.59.59 0 0 0 .374-.296 1.76 1.76 0 0 0 .055-.103h.271a1.763 1.763 0 0 0 .056.103.599.599 0 0 0 .375.296v-.172c-.106-.039-.177-.122-.242-.228z" fill="#fff"/>
</svg>
