<svg width="65" height="59" viewBox="0 0 65 59" fill="none" xmlns="http://www.w3.org/2000/svg">
<path d="M17.3472 8.22486C14.2488 8.27613 11.7741 10.6958 11.819 13.6299C11.8366 14.7726 12.2354 15.8237 12.8969 16.6795C11.3965 18.3078 10.2132 20.0417 9.19765 21.6811C1.3875 34.2901 6.17854 51.5867 28.9833 52.251C52.4548 52.9349 63.6319 40.2031 55.9929 24.4422L55.9958 24.4417C55.4931 23.4053 54.7772 21.9521 53.7074 20.3578C54.307 19.8839 54.8227 19.2857 55.2104 18.575C56.7683 15.7186 55.6797 12.1305 52.7791 10.5609C49.9934 9.05352 46.5504 9.95666 44.9017 12.5607C42.2493 11.2346 38.996 10.2293 34.9952 9.83276C29.7674 9.31385 25.604 9.75053 22.2365 10.7844C21.2396 9.2217 19.4164 8.19062 17.3472 8.22486Z" fill="url(#paint0_linear_4474_22210)"/>
<path d="M17.3336 7.39051C13.8182 7.44869 10.9318 10.2058 10.9844 13.6425C11.0011 14.7268 11.3136 15.7383 11.841 16.6109C10.4989 18.1459 9.41618 19.7429 8.48775 21.2416C4.46053 27.7433 3.63627 35.5329 6.86763 41.8264C10.1159 48.1529 17.3438 52.7474 28.9591 53.0857C40.8192 53.4313 49.7602 50.3951 54.7616 45.0854C59.8084 39.7276 60.6786 32.2362 56.7685 24.1298C56.7615 24.1124 56.7549 24.0944 56.7466 24.0774C56.304 23.1647 55.6848 21.9044 54.7973 20.5016C55.2404 20.0598 55.6296 19.5498 55.9434 18.9745C57.7274 15.7031 56.4736 11.6108 53.1762 9.82645C50.237 8.23611 46.643 9.00303 44.6334 11.5054C42.0093 10.2864 38.8609 9.37704 35.0778 9.00201C30.0493 8.50289 25.951 8.87002 22.5676 9.81791C21.3657 8.30668 19.4563 7.35548 17.3336 7.39051ZM11.819 13.63C11.774 10.6959 14.2488 8.27621 17.3471 8.22494C19.4164 8.1907 21.2396 9.22178 22.2365 10.7845C25.6039 9.75061 29.7674 9.31393 34.9952 9.83285C38.996 10.2294 42.2493 11.2347 44.9017 12.5607C46.5503 9.95673 49.9934 9.0536 52.7791 10.561C55.6797 12.1306 56.7682 15.7187 55.2104 18.5751C54.8227 19.2858 54.307 19.884 53.7074 20.3579C54.7772 21.9522 55.4931 23.4054 55.9958 24.4418L55.9929 24.4423C63.6319 40.2031 52.4548 52.935 28.9833 52.2511C6.17848 51.5868 1.38743 34.2902 9.19759 21.6812C10.2132 20.0418 11.3964 18.3079 12.8968 16.6796C12.2353 15.8238 11.8366 14.7727 11.819 13.63Z" fill="#212121"/>
<path d="M47.1371 20.9053C44.2364 19.3357 43.1481 15.7476 44.7061 12.8912C46.2642 10.0348 49.8786 8.99161 52.7793 10.5612C55.6799 12.1309 56.7683 15.7189 55.2103 18.5753C53.6522 21.4318 50.0377 22.4749 47.1371 20.9053Z" fill="url(#paint1_linear_4474_22210)"/>
<path d="M17.5108 18.8505C14.4124 18.9018 11.8639 16.5646 11.8187 13.6304C11.7735 10.6961 14.2487 8.27582 17.3472 8.22455C20.4457 8.17328 22.9941 10.5104 23.0393 13.4447C23.0845 16.379 20.6093 18.7992 17.5108 18.8505Z" fill="url(#paint2_linear_4474_22210)"/>
<path d="M14.2233 17.0852C12.7289 15.2676 12.8057 12.7411 14.3949 11.4421C15.984 10.1431 18.4838 10.5634 19.9782 12.381C21.4726 14.1986 21.3958 16.7251 19.8066 18.0241C18.2174 19.3231 15.7177 18.9028 14.2233 17.0852Z" fill="white"/>
<path d="M49.6394 21.1754C47.6001 20.662 46.407 18.438 46.9746 16.2079C47.5422 13.9779 49.6555 12.5862 51.6948 13.0996C53.7341 13.613 54.9272 15.837 54.3596 18.0671C53.792 20.2971 51.6787 21.6887 49.6394 21.1754Z" fill="white"/>
<path d="M55.9933 24.4423C63.6324 40.2033 52.4546 52.9352 28.9829 52.2512C6.17803 51.5868 1.38711 34.2901 9.19727 21.6812C12.9524 15.6193 18.9779 8.24357 34.9951 9.83345C49.4602 11.2673 54.156 20.6478 55.9961 24.4418L55.9933 24.4423Z" fill="url(#paint3_linear_4474_22210)"/>
<path d="M9.19728 21.6814C9.84167 20.6422 10.5509 19.5647 11.3689 18.4983C11.6137 19.6041 11.392 21.1377 10.7174 22.8062C9.81877 25.026 9.22976 26.3564 9.61475 30.6713C9.99974 34.9862 13.6691 37.8002 18.3021 37.7355C22.9345 37.6679 23.9388 36.2471 23.9388 36.2471L26.1445 36.595L28.2415 34.6272L30.0352 36.2202C30.0352 36.2202 30.137 36.3618 32.1004 36.8304C34.0822 38.1692 37.6906 39.8741 42.7061 39.4406C47.7217 39.0071 52.0058 35.1206 53.2288 29.8908C54.4519 24.6609 49.4455 19.8194 48.4401 18.2778C47.4348 16.7361 47.2648 15.5385 47.5631 14.9846C47.7018 14.7283 47.9126 14.5934 48.1455 14.529C52.7713 17.8997 54.8949 22.1685 55.9956 24.4392C63.6346 40.2001 52.4569 52.9321 28.9851 52.248C6.18029 51.5837 1.38938 34.287 9.19954 21.6781L9.19728 21.6814Z" fill="white"/>
<path d="M31.5137 36.6674C30.0211 36.5772 28.8699 35.5564 28.9424 34.3875C29.015 33.2186 30.2838 32.3441 31.7764 32.4343C33.269 32.5245 34.4202 33.5453 34.3476 34.7142C34.2751 35.8831 33.0063 36.7576 31.5137 36.6674Z" fill="white"/>
<path d="M25.0661 36.6865C23.7056 36.59 22.6779 35.4766 22.7707 34.1996C22.8634 32.9226 24.0414 31.9656 25.4019 32.0621C26.7624 32.1586 27.7902 33.272 27.6975 34.549C27.6047 35.826 26.4266 36.783 25.0661 36.6865Z" fill="white"/>
<path d="M41.9582 28.5305L32.7568 27.9982C32.7568 27.9982 32.2914 31.1012 36.2071 31.8137C40.1228 32.5261 42.046 29.9018 41.9582 28.5305Z" fill="white"/>
<path d="M16.0335 27.2293L25.0095 27.6981C25.0095 27.6981 24.7527 31.4885 20.3954 31.1531C16.3396 30.8408 15.8776 28.032 16.0335 27.2293Z" fill="white"/>
<path d="M31.7191 26.6954C31.8685 26.6929 32.0196 26.6383 32.1407 26.5319L36.0024 23.1539C36.2793 22.9116 36.3086 22.4894 36.0687 22.2131C35.8282 21.9341 35.4102 21.9044 35.1361 22.1462L31.2744 25.5242C30.9975 25.7665 30.9682 26.1888 31.2082 26.465C31.3416 26.6207 31.5291 26.6971 31.7191 26.6954Z" fill="#212121"/>
<path d="M25.791 26.5008C25.9521 26.4989 26.111 26.4399 26.235 26.3187C26.5009 26.0641 26.513 25.6422 26.2629 25.3736L22.8228 21.7028C22.5728 21.4343 22.1524 21.4222 21.8865 21.6768C21.6206 21.9314 21.6085 22.3533 21.8586 22.6218L25.2987 26.2926C25.4322 26.4339 25.6098 26.5036 25.791 26.5008Z" fill="#212121"/>
<path d="M41.9697 29.1977C42.3148 29.1925 42.6003 28.9198 42.62 28.5683C42.642 28.1992 42.3631 27.8844 41.9988 27.8645L32.7974 27.3323C32.4337 27.3152 32.1204 27.5932 32.0978 27.9596C32.0757 28.3288 32.3547 28.6435 32.7189 28.6634L41.9203 29.1956C41.9375 29.1952 41.9525 29.1981 41.9697 29.1977Z" fill="#212121"/>
<path d="M25.0216 28.3684C25.3666 28.3632 25.6544 28.0872 25.6713 27.7362C25.6906 27.3676 25.4088 27.0534 25.0451 27.0363L16.0691 26.5675C15.7021 26.5482 15.3926 26.8312 15.3733 27.1998C15.354 27.5685 15.6358 27.8827 15.9995 27.8998L24.9755 28.3685C24.9899 28.3687 25.0071 28.3683 25.0216 28.3684Z" fill="#212121"/>
<path d="M34.6248 28.7236C34.5724 29.6158 35.2479 30.3782 36.1317 30.4314C37.015 30.4818 37.7735 29.8003 37.8259 28.9081C37.8783 28.0159 37.1449 28.253 36.2616 28.2026C35.3783 28.1521 34.6772 27.8314 34.6248 28.7236Z" fill="#212121"/>
<path d="M20.1712 28.0778C20.1188 28.97 20.7743 29.7333 21.6315 29.783C22.4887 29.8326 23.2267 29.1492 23.2763 28.2576C23.3287 27.3654 22.6158 27.6044 21.7586 27.5547C20.9014 27.505 20.2208 27.1861 20.1712 28.0778Z" fill="#212121"/>
<path d="M26.1875 31.0576C26.7067 30.5882 27.5142 30.6645 27.9945 31.1738C28.1791 31.3715 28.4862 31.3792 28.6842 31.1921C29.1896 30.7109 30.0027 30.6799 30.4925 31.1788C30.9962 31.6894 30.9805 32.5171 30.4656 33.0087L29.3134 34.1071C29.2673 34.1676 29.2178 34.2258 29.1617 34.2796C28.9031 34.5271 28.5698 34.6393 28.2416 34.627C27.9117 34.6207 27.5864 34.4872 27.3413 34.2292C27.2874 34.1733 27.2408 34.1103 27.1998 34.0463L26.1112 32.8854C25.6232 32.3661 25.656 31.538 26.1875 31.0576Z" fill="#212121"/>
<path d="M47.7065 26.8857C47.4589 26.4931 46.8626 26.6783 46.879 27.1436C46.9362 28.7793 46.6004 31.1077 45.4121 32.5923C44.5152 33.714 42.9927 34.3052 41.7369 34.6158C41.0842 34.7772 41.0442 35.7044 41.6814 35.9166C43.494 36.5174 46.1017 36.7199 47.7671 33.9377C49.4561 31.1136 48.6397 28.3664 47.7098 26.8879L47.7065 26.8857Z" fill="#212121"/>
<path d="M11.3203 25.0823C11.437 24.9078 11.7099 25.0083 11.6894 25.219C11.5948 26.2227 11.5441 28.0945 12.1559 29.8259C12.887 31.8968 14.4735 32.9314 16.1468 33.4667C16.6623 33.6302 16.7268 34.3335 16.252 34.5962C14.6458 35.4907 12.1055 35.3242 10.7136 32.356C9.23748 29.2026 10.383 26.4617 11.3203 25.0823Z" fill="#212121"/>
<path d="M28.2502 34.3842C28.2502 34.3842 29.6001 36.6765 31.0495 36.717C31.2467 39.1796 30.1798 40.848 28.4838 40.9665C26.7873 41.0821 25.9869 38.8894 25.276 36.7428C26.8208 36.2537 28.2474 34.3847 28.2474 34.3847L28.2502 34.3842Z" fill="#E2998A"/>
<path d="M28.4636 41.634C28.4636 41.634 28.4897 41.6347 28.5037 41.6321C31.0553 41.555 31.7542 38.649 31.7669 37.1236C31.769 36.7553 31.4754 36.4548 31.1111 36.4494C30.7479 36.4351 30.4459 36.7425 30.4439 37.1107C30.4436 37.1395 30.3838 40.2372 28.4656 40.2945C28.46 40.2955 28.4517 40.2971 28.4456 40.2954C26.5627 40.3258 26.2014 36.6817 26.2001 36.6446C26.1678 36.2772 25.8478 36.0046 25.4847 36.0363C25.1217 36.068 24.8512 36.3895 24.8808 36.7575C24.8842 36.8057 24.9836 37.9506 25.4247 39.1024C26.2354 41.2128 27.5175 41.6472 28.4631 41.6312L28.4636 41.634Z" fill="#212121"/>
<path d="M31.9668 37.5079C33.5825 37.4823 34.5317 36.0748 34.8233 35.2578C34.9474 34.9095 34.7685 34.5297 34.4248 34.4054C34.0811 34.2811 33.7026 34.4594 33.578 34.8049C33.5535 34.8728 32.9861 36.3629 31.6362 36.1483C29.4223 35.8479 28.8963 33.8703 28.875 33.7881C28.798 33.4895 28.5302 33.2789 28.2229 33.2856C27.9156 33.2923 27.6512 33.5093 27.5876 33.8116C27.5824 33.8298 27.1009 35.9531 25.5085 36.0403C23.9149 36.1364 23.2486 34.3003 23.2194 34.2226C23.0985 33.8748 22.721 33.6937 22.3753 33.8169C22.0324 33.9396 21.8503 34.3162 21.9684 34.6644C22.0078 34.7805 22.982 37.5236 25.5777 37.3749C26.9645 37.298 27.8023 36.4117 28.2868 35.5782C28.8486 36.3794 29.8196 37.2552 31.4444 37.475C31.6258 37.5038 31.8012 37.5164 31.9679 37.5134L31.9668 37.5079Z" fill="#212121"/>
<path d="M38.9989 34.0232C38.925 33.8886 38.7558 33.8393 38.6211 33.9131C38.4864 33.9869 38.4372 34.1562 38.511 34.2909L39.0852 35.3398C39.1591 35.4744 39.3283 35.5236 39.463 35.4499C39.5976 35.376 39.6468 35.2068 39.5731 35.0721L38.9989 34.0232Z" fill="#EE9D8D"/>
<path d="M37.192 33.8869C37.1196 33.7516 36.9508 33.7005 36.8154 33.7727C36.68 33.8452 36.6287 34.0138 36.7011 34.1493L37.2286 35.1355C37.3011 35.2708 37.4698 35.3221 37.6052 35.2498C37.7406 35.1773 37.7917 35.0086 37.7195 34.8732L37.192 33.8869Z" fill="#EE9D8D"/>
<path d="M22.551 17.5272C24.7811 16.6233 27.6567 15.0047 28.0941 14.2721C27.0336 14.0024 25.8262 14.1429 24.6591 14.2987C23.8971 14.4005 23.7991 13.9306 24.0117 13.7293C24.8212 12.9518 26.6328 12.4406 28.5588 12.3791C28.8925 11.3587 29.0835 10.604 29.3622 10.1285C29.5403 9.82168 29.9866 9.84889 30.1289 10.1724C30.3515 10.6761 30.4525 11.45 30.6668 12.5013C32.5715 12.7828 34.3113 13.501 35.0263 14.365C35.2129 14.5882 35.0633 15.0448 34.3181 14.856C33.1789 14.5669 31.9924 14.2867 30.9105 14.4349C31.2603 15.2133 33.9326 17.1507 36.0439 18.3068C36.8035 18.7227 36.5702 19.27 36.1505 19.2463C31.9484 18.9993 29.4102 16.0076 29.4102 16.0076C29.4102 16.0076 26.5465 18.6901 22.3433 18.4518C21.9208 18.4287 21.7544 17.8569 22.5548 17.5323L22.551 17.5272Z" fill="#212121"/>
<path d="M47.9211 13.8175C47.7107 13.7236 47.4638 13.8183 47.3698 14.0287C47.2759 14.2391 47.3706 14.486 47.581 14.58C48.454 14.9699 49.4138 15.913 50.1822 16.8111C50.5592 17.2519 50.8784 17.6672 51.1027 17.9721C51.2146 18.1242 51.3026 18.2485 51.3624 18.3343C51.3923 18.3772 51.4157 18.4103 51.4308 18.4326C51.4384 18.4437 51.444 18.4528 51.4476 18.4582C51.4493 18.4606 51.4508 18.4622 51.4516 18.4634L51.452 18.4654L51.5061 18.5306C51.6441 18.6673 51.8638 18.6928 52.0316 18.5808C52.223 18.4529 52.2749 18.1938 52.1472 18.0022L52.1463 18.0023L52.1461 18.0014C52.1457 18.0009 52.1452 17.9996 52.1446 17.9987C52.1434 17.9969 52.1413 17.9948 52.1393 17.9917C52.1348 17.9852 52.1282 17.9749 52.1198 17.9626C52.1031 17.938 52.0786 17.9024 52.0471 17.8572C51.9837 17.7662 51.8917 17.636 51.7751 17.4775C51.5421 17.1607 51.2101 16.7282 50.8165 16.268C50.0436 15.3646 48.9795 14.2902 47.9211 13.8175Z" fill="#E3A35E"/>
<defs>
<linearGradient id="paint0_linear_4474_22210" x1="62.9238" y1="7.94322" x2="16.9672" y2="43.5257" gradientUnits="userSpaceOnUse">
<stop stop-color="#FFFCBA"/>
<stop offset="0.18" stop-color="#FAEFAB"/>
<stop offset="0.34" stop-color="#EED07F"/>
<stop offset="0.5" stop-color="#F2BC62"/>
<stop offset="0.84" stop-color="#F7C775"/>
</linearGradient>
<linearGradient id="paint1_linear_4474_22210" x1="43.5172" y1="6.22079" x2="57.0146" y2="26.3166" gradientUnits="userSpaceOnUse">
<stop stop-color="#FFFCBA"/>
<stop offset="0.18" stop-color="#FAEFAB"/>
<stop offset="0.34" stop-color="#EED07F"/>
<stop offset="0.5" stop-color="#F2BC62"/>
<stop offset="0.84" stop-color="#F7C775"/>
</linearGradient>
<linearGradient id="paint2_linear_4474_22210" x1="25.0292" y1="6.16734" x2="9.06419" y2="21.735" gradientUnits="userSpaceOnUse">
<stop stop-color="#FDF7BC"/>
<stop offset="0.18" stop-color="#F5E9AF"/>
<stop offset="0.34" stop-color="#E6C984"/>
<stop offset="0.5" stop-color="#E9B674"/>
<stop offset="0.84" stop-color="#F0C07F"/>
</linearGradient>
<linearGradient id="paint3_linear_4474_22210" x1="62.9239" y1="7.9432" x2="16.967" y2="43.5258" gradientUnits="userSpaceOnUse">
<stop stop-color="#FFFCBA"/>
<stop offset="0.18" stop-color="#FAEFAB"/>
<stop offset="0.34" stop-color="#EED07F"/>
<stop offset="0.5" stop-color="#F2BC62"/>
<stop offset="0.84" stop-color="#F7C775"/>
</linearGradient>
</defs>
</svg>
