<svg width="46" height="12" viewBox="0 0 46 12" fill="none" xmlns="http://www.w3.org/2000/svg">
<path d="M7.57129 1.79565C11.0428 1.79565 13.0257 3.16716 13.8574 4.20679C14.5 5.01017 14.5 5.65308 14.5 5.65308H12.3691C12.4073 5.86304 12.4287 6.07739 12.4287 6.29565C12.4287 8.78094 9.86978 10.7957 6.71387 10.7957C3.55815 10.7955 1 8.78083 1 6.29565C1 3.81048 3.55815 1.79583 6.71387 1.79565C6.83543 1.79565 6.95649 1.79953 7.07617 1.80542C7.23696 1.80038 7.40195 1.79566 7.57129 1.79565Z" fill="#EFCB77"/>
<path d="M7.57129 0.795654C11.3179 0.795654 13.6 2.28346 14.6387 3.58179C15.0433 4.08767 15.26 4.56348 15.375 4.93726C15.4321 5.12279 15.4636 5.281 15.4805 5.40308C15.4889 5.46409 15.4943 5.51645 15.4971 5.55835C15.4984 5.57931 15.4985 5.59821 15.499 5.61401C15.4993 5.62179 15.4999 5.62902 15.5 5.6355V5.6521C15.4997 5.65258 15.4831 5.65306 14.5 5.65308H15.5V6.65308H13.4141C13.1862 9.70684 10.0572 11.7957 6.71387 11.7957C3.24165 11.7955 0 9.54249 0 6.29565C0 3.04882 3.24165 0.79585 6.71387 0.795654L7.08984 0.806396C7.23907 0.801824 7.40198 0.795655 7.57129 0.795654ZM1 6.29565C1 8.78083 3.55815 10.7955 6.71387 10.7957C9.86978 10.7957 12.4287 8.78094 12.4287 6.29565C12.4287 6.07739 12.4073 5.86304 12.3691 5.65308H14.5C14.5 5.65308 14.5 5.01017 13.8574 4.20679C13.0257 3.16716 11.0428 1.79565 7.57129 1.79565C7.40195 1.79566 7.23696 1.80038 7.07617 1.80542C6.95649 1.79953 6.83543 1.79565 6.71387 1.79565C3.55815 1.79583 1 3.81048 1 6.29565Z" fill="#292929"/>
<path d="M37.1426 1.79565C40.6141 1.79565 42.597 3.16716 43.4287 4.20679C44.0713 5.0102 44.0713 5.65308 44.0713 5.65308H41.9414C41.9795 5.86299 42 6.07744 42 6.29565C42 8.78083 39.4419 10.7955 36.2861 10.7957C33.1302 10.7957 30.5713 8.78094 30.5713 6.29565C30.5713 3.81037 33.1302 1.79565 36.2861 1.79565C36.4075 1.79566 36.528 1.79954 36.6475 1.80542C36.8082 1.80038 36.9732 1.79566 37.1426 1.79565Z" fill="#EFCB77"/>
<path d="M37.1426 0.795654C40.8892 0.795654 43.1712 2.28346 44.21 3.58179C44.6146 4.08773 44.8323 4.56344 44.9473 4.93726C45.0043 5.12271 45.0349 5.28103 45.0518 5.40308C45.0602 5.46406 45.0656 5.51646 45.0684 5.55835C45.0697 5.57931 45.0698 5.59821 45.0703 5.61401C45.0706 5.62182 45.0712 5.629 45.0713 5.6355V5.6521C45.0713 5.65259 45.0713 5.65314 44.0713 5.65308H45.0713V6.65308H42.9854C42.7649 9.60738 39.8298 11.6585 36.6113 11.7888L36.2861 11.7957C32.8139 11.7957 29.5713 9.54274 29.5713 6.29565C29.5713 3.04857 32.8139 0.795654 36.2861 0.795654L36.6611 0.806396C36.8104 0.801823 36.9733 0.795657 37.1426 0.795654ZM30.5713 6.29565C30.5713 8.78094 33.1302 10.7957 36.2861 10.7957C39.4419 10.7955 42 8.78083 42 6.29565C42 6.07744 41.9795 5.86299 41.9414 5.65308H44.0713C44.0713 5.65308 44.0713 5.0102 43.4287 4.20679C42.597 3.16716 40.6141 1.79565 37.1426 1.79565C36.9732 1.79566 36.8082 1.80038 36.6475 1.80542C36.528 1.79954 36.4075 1.79566 36.2861 1.79565C33.1302 1.79565 30.5713 3.81037 30.5713 6.29565Z" fill="#292929"/>
</svg>
