<svg xmlns="http://www.w3.org/2000/svg" viewBox="0 0 173.05 177.49"><defs><style>.cls-1{fill:#c4a96f;}</style></defs><title>dawho-logo</title><g><g><path class="cls-1" d="M172.67,74.4V74c.12-.51.25-1,.38-1.53l-.39-3.14c0-.39,0-.77,0-1.16a1.92,1.92,0,0,1-.32-.09c0-.36,0-.71,0-1.07s-.05-.78-.07-1.17l-.36-.06c-.1-.62-.22-1.24-.31-1.87-.18-1.31-.35-2.63-.52-4a.92.92,0,0,1,0-.33l-.37-.45c0-.25,0-.51,0-.76-.14-.52-.27-1-.41-1.56l-2-4.27c-.11-.15-.22-.29-.34-.43s0-.26.07-.39a1.59,1.59,0,0,1-.07-.38l-.33,0L167,50.27c-.14-.26-.28-.51-.41-.77s-.24-.55-.35-.82c-1-1.56-2.08-3.09-3-4.7a5.31,5.31,0,0,0-1.79-2,10.64,10.64,0,0,0-1.26-2.15c-1.59-1.7-2.57-3.8-4-5.57l-4.28-3.62h0l-1.75-2.61-.35,0a1.65,1.65,0,0,1-.05-.38c-.85-.56-1.37-1.6-2.61-1.59-.21,0-.45-.25-.63-.43-1.21-1.26-2.4-2.54-3.6-3.81l-.77-.83a2.29,2.29,0,0,0,0-.37l-2.7-.87c-.16-.11-.31-.23-.46-.35a2.41,2.41,0,0,0,0-.38l-.44-.36-.42-.36-.4-.38-.78-.42-.42-.37-2.75-.07A4.4,4.4,0,0,1,131,15.39c-.1-.14-.33-.21-.49-.31l-.46-.32h0c0-.14,0-.27,0-.41l-.46-.31-1.94-.48a4,4,0,0,0-2.55-.94,2.42,2.42,0,0,1-.95-.2c-2.14-.89-4.15-2.06-6.38-2.75-.11,0-.18-.18-.27-.27a21.91,21.91,0,0,1-2.26-1.17,5.37,5.37,0,0,1-.94-1.2c-1.25-.41-2.63-.54-3.61-1.55L109.19,5a19.68,19.68,0,0,1-3.15.16c-1.31-.14-2.7.22-3.93-.46A20.48,20.48,0,0,0,96.81,3a2.81,2.81,0,0,1-.1-.31l-.77,0h0a8.61,8.61,0,0,0-5.67,0,.45.45,0,0,0-.28,0l-2.06-.39L86.75,1.9l-.85-.41L84.31,1.4a.65.65,0,0,0,0,.2.52.52,0,0,1-.25,0L82.26,1.5l-3.61-.36-5.18,0-2.41.39a2.81,2.81,0,0,0-.1.31l-.71.1-.79-.07a.38.38,0,0,1-.27.08l-.46.43-.48-.06H67l-.37.33-.07.07c0,.26.07.52.1.78l-.42.77a1.07,1.07,0,0,1,.43,1.23h0l-.83,0c0,.11,0,.22,0,.33l-.76.15.06,0-1.69.39.06,0c-.79.27-1.57.54-2.37.8-.22,1.66-1.57,2-2.9,2.26a.2.2,0,0,1-.24.07l-.15.34-2,.44-1.22.36-1.17.44-.79.4-.45.33-1.15.45-.79.42-1.19.39-.49.3-.75.44-.5.6-1.17.11-.85.68-.74.12c0,.11,0,.21-.07.32-1.15-.07-1.82.8-2.68,1.31l-.48.3-.75.46-.46.32a1.65,1.65,0,0,0-.06.32l-.67.15-.45.33-.73.48-.49.28-.74.47-.77.42-.5.29-1.16,1.21-.43.36-.45.06-1.15,1.17-.39.33h0a2.43,2.43,0,0,0-.38,0l-.34.42-.12.69A1,1,0,0,1,31,25c-.26.26-.52.53-.77.8l-.38.42-.41.38-.43.36-.38.41c-.12.14-.25.27-.38.4l-.78.8-.52.67c-.13.14-.27.27-.4.4l-.4.39-.39.41-.37.42-1.22,1.53-.36.43c0,.21-.07.42-.11.64l-.36.08L23,34l-.4.4-.39.4-.4.38-.4.39-.48.71c-.15.24-.31.48-.47.72-.34.18-.68.36-1,.53-.14.26-.29.51-.44.75l-.41.78a2.49,2.49,0,0,1-1.17,2l-.8,1.17-.48.71-.31.47-.56,1.38c-.63.83-1.27,1.65-1.91,2.47-.25.79-.5,1.59-.76,2.39l-.41.37L12,51.37c-.37.5-.79,1-1.12,1.51-.43.7-.8,1.44-1.19,2.16a1,1,0,0,0-.06-.25l-.43.57-.36.76c-.14.4-.27.8-.41,1.19,0,.13,0,.25,0,.38L8,58.86c0,.13,0,.26,0,.38l-.4.41c0,.13,0,.26,0,.39l-.36.38h0c.09.37.39.88.24,1.08-1,1.28-.26,2.46.08,3.68l.12.36a.42.42,0,0,1-.08.31c-1.06.26-1.33-.74-2-1.17-.17-1.83.66-3.44,1.16-5.12a.93.93,0,0,1,0-.33l-.78,0v0c0,1,.06,1.92-1.21,2.32-.24.07-.28.74-.42,1.14a2.36,2.36,0,0,1,0,2.38,1.5,1.5,0,0,1-.05.37L4,66.31a2.19,2.19,0,0,1,0,.36c0,.5,0,1,0,1.51l-.35.06,0,1.54-.38.39h0v1.17h0c0,.27,0,.53,0,.8v.35a.86.86,0,0,1,0,1.2c0,.13,0,.26,0,.38,0,.63-.19.87-.77.42,0,.38,0,.76,0,1.14,0,.13,0,.25,0,.37s.24.51.35.76a2,2,0,0,1-.34.06c0,.4,0,.79-.05,1.17L2,78.75H2l-.41.39h0l.06.45c0,.48,0,1,0,1.45s.28.8.37,1.22c.12.62.19,1.24.29,1.87L2,84.56l-.75-.37h0L.8,83v0C.67,83.7.53,84.34.39,85c0,.13,0,.25,0,.38.49,1,0,1.9-.41,2.79,0,.12,0,.24,0,.36.59.56,1.05,1.15.43,2-.13.66-.27,1.33-.4,2v.68l.42,0,.6,2.17c.17.6.36,1.2.53,1.8-.06.49,0,1.1-.23,1.45-.64.83-.15,1.39.27,2,0,.65,0,1.3,0,2a1,1,0,0,1,.06.34l.41,0h0c0,.26,0,.52,0,.78h.4l0,.43c0,.11,0,.23,0,.35l.43.79h.4c0,.12,0,.25,0,.38H2.83c0,.13,0,.26,0,.39l-.39.38h0c-.14.38-.28.77-.41,1.16,0,.13,0,.26,0,.4l.79.78h0l.42,1.16h.39l.39.42,0,.75.37.42c0,.13,0,.27,0,.4v.71c.12.14.23.29.34.43s0,.24,0,.36l-.65,0a15.6,15.6,0,0,0-.86-1.68c-.11-.17-.52-.15-.8-.22l0,0c.14.39.27.79.4,1.19h0l.36.77c0,.11.06.23.08.34l.38.45-.39,1.55c.12.14.25.27.38.4H4.79l.06.77.39.4h0c0,.65,0,1.31,0,2L6.45,122l.39.39h0a1.63,1.63,0,0,0,0,.38l.39.4h0c-.12.51-.24,1-.37,1.54h.4c.12-.25.26-.5.39-.76H8l1.23,1.92a1.77,1.77,0,0,1,1.24,1.93c-.14.4-.28.81-.43,1.21,0,.12,0,.25,0,.38,0,.38,0,.77,0,1.15l.36,0,.39.76h-.78l.39.78.41-.78,1.12,0c.17.49.35,1,.52,1.45-.16.44-.42.64-.9.39-.24-.11-.49-.2-.74-.3l.4,1.54.4.4,1.2,1.18.41.38h0l.39.39h0l.39.38h0l.35.36.47.45.34,0a1,1,0,0,1,.17.27l.67.51c0,.12,0,.25.05.38l.37.34.43,0v0c0,.14,0,.27-.05.41a1.91,1.91,0,0,0,.33.06c.44.48.87,1,1.31,1.46l0,.43v.39c.14.65.27,1.3.41,2h.4l.81.38.8.39h.38l.84,1.54c.14.38.28.76.43,1.14l1.56.44,2.47,1.88c.14.13.29.24.44.37a85.46,85.46,0,0,0,9.95,7.1c.07.17.09.42.22.51,1.12.76,2.25,1.49,3.38,2.23a1.61,1.61,0,0,0,1.6.79h0l1.24.73,1.18.42.4.4,1.19.81-.38.35,1.2.78,1.19-1.16c0,.12,0,.24,0,.37l.39.4h0c0,.39,0,.77,0,1.16l1.21.4,1.6-.8h0v1.17h.4c0,.12,0,.25,0,.38l.79.4h0l1.62.38H55l1.21-1.17h0l.8,0h0l.42.35c-.29.21-.6.39-.89.6l-.7.58,1.19.39h0l.83.4a2.56,2.56,0,0,1,.39,0l1.59.37h0a1.09,1.09,0,0,1,.79,1.17h0l.83-.36,2,.36h.42c1.5.42,3.14.45,4.4,1.52h1.2c.14,0,.29,0,.44,0a2.58,2.58,0,0,1,.39,0l.39,0h.39l.36.05.06.35h1.19c0-.1,0-.21.05-.32l.35.32.41.39,1.22,0,2.39,0,.39-2h0l.8,1.18c0,.26,0,.52,0,.77l.4.39h0a.9.9,0,0,1,1.22.38h.8l1.2,0h1.61c.74-.77.24-1.08-.63-1.25a3,3,0,0,1,3.44-1.1h0l.81.39h0A1,1,0,0,1,86,172c-.81-.08-1.14.37-1.2,1.09h0l.77,0,.42,0h.42l1.19,0,.93-.39-.48-1.9,4-.1,1.21-.77.43-.76c.39-.28.77-.55,1.15-.84l.84,0c.19.31.49.57.12,1a4.28,4.28,0,0,0-.52,1c1.37-.08,2-1.08,2.74-2l1.63-.38.49.45-1.71.88.46,1.05h.38L100,170l.38,0c.31-.32.61-.78,1.1-.29.08.08-.15.47-.25.72s0,.24,0,.36,0,.27,0,.4h0a1.19,1.19,0,0,1,1.21.77h.37l.42-.39.81-.4h0l.41-.39h0l.8-.39h0l.8-.39h0c0-.13,0-.25,0-.37h0l.8-.32.41-.06c-.14.39-.27.78-.41,1.16,0,.12,0,.24,0,.36l.4,0h.38l.81-.36c.16-.15.33-.28.5-.42l-.15,0,.79-2,.49-.33c1.48.07,2.7-.72,4-1.16l.37-.41h0l3.61-1.18.4-.39,1.57-.42a2.19,2.19,0,0,0,0-.36h.41a1,1,0,0,1,1.61,0l.39-.38,1.22-.38h0l.4-.39h0l.8-.78h0V161h-1.6l-.41.38h0l-.4.39h0l-.41.39h0l-.4.39-1.21.38-.79.41c-.56,0-1-.15-.87-.83a1.3,1.3,0,0,0,.08-.34l0,0,.73-.06h0l.4-.38.38,0c0-.14,0-.27,0-.41a1.49,1.49,0,0,1,.36-.05l.39-.37c0-.12.05-.23.08-.35l.42-.35a3.46,3.46,0,0,0-3.61.77,3.46,3.46,0,0,1,3.61-.77h0l1.15,0h0l.81-.37a1,1,0,0,1,.28,0l.09-.38.4,0,.44-.34.81-.39.39-.43.4,0c0-.11.07-.22.11-.34a.9.9,0,0,0,.27-.07l.43,0,0,0,.78-.42h0l.82-.41,0,0,.42-.41h0l1.23-.4,0,0,.43-.37h0l.78-.4a2.85,2.85,0,0,1,2.26-1.36c.33,0,.64-.38,1-.58a27.41,27.41,0,0,0,4.78-2.77l1.23-1.54.39-.4.42-.37.42-.38a1.75,1.75,0,0,0,1.18-1.56c-1.32,0-1.32,0-1.6-1.57a2.16,2.16,0,0,1,0-.35l1.13-.86,2-3.09c2.63-2.92,5.35-5.77,7.7-8.92a2.33,2.33,0,0,0,.37,0l.34-.43c.15-.25.29-.51.43-.76l.9-1.08a1.77,1.77,0,0,1,.31-.08c0-.25,0-.51,0-.76l.33-.06.09-.7.33-.07.39-.78h0l.45-.75,3.15-3.94c.3-.76.6-1.52.91-2.28A1,1,0,0,1,161,120l2-3.88,1.15-1.61.43-1.14c.13-.26.26-.52.4-.78s.25-.54.38-.8q1.4-3.7,2.81-7.4c0-1,.09-2,.13-3a1.81,1.81,0,0,0,.31-.09l1.17-3.91.42-1.16c.2-1.21.41-2.42.61-3.63.11-.71.2-1.41.3-2.12l.3-.1a26.7,26.7,0,0,0,.48-6.56,8.3,8.3,0,0,0,1-5.19,15.32,15.32,0,0,1,.21-3.8ZM2,93.81c-.4.43-.6.68-.61.91,0-.23.21-.48.61-.92ZM4.24,77.57h0v0ZM119.31,49a7.11,7.11,0,1,1-7.11,7.11A7.11,7.11,0,0,1,119.31,49ZM93.5,9.12c.14.39.29.78.43,1.18-.14-.4-.29-.79-.43-1.19Zm-5.57-.46a.47.47,0,0,0,.09.06.47.47,0,0,1-.09-.06ZM67.54,10,69,9.85l-1.5.12ZM16.91,149.26h0c.41.17.71.64,1.12.85C17.62,149.9,17.32,149.44,16.91,149.26Zm16.56,4a12.81,12.81,0,0,0,1.5,2A12.81,12.81,0,0,1,33.47,153.29Zm6.17,3.19-.45-.25h0Zm9.59,14.2h0c0-.09.09-.17.13-.25C49.32,170.51,49.27,170.59,49.23,170.68Zm4.42,1.6h0Zm4,1.2h0Zm12.43,4h0Zm-11.88-8.55h0l.05.05Zm93.22-60.87c-2.82,7.52-11.32,7.52-31.88,7.53h-21c0,12.3-.13,14.59-.27,17.42-.06,1.22-.13,2.55-.19,4.9a16.29,16.29,0,0,1-7.91,13.32,17.36,17.36,0,0,1-9.13,2.65,16,16,0,0,1-6.75-1.48,5,5,0,1,1,4.18-9,7,7,0,0,0,6.5-.62,6.44,6.44,0,0,0,3.2-5.18c.07-2.45.14-3.84.21-5.1.13-2.73.24-4.93.26-17.25-9.13-1.34-16.72-5.15-22.6-11.46a44.19,44.19,0,0,1-8.65-14.19c-5,11.56-14.08,22.09-29.51,25.41a4.66,4.66,0,0,1-1,.11,5,5,0,0,1-1-9.79C37.55,102.84,45.67,94.82,50,81.52a66.8,66.8,0,0,0,3-16.7c0-1.22,0-2.15.05-2.73H37.17a5,5,0,1,1,0-9.9H53V34.49a4.95,4.95,0,1,1,9.9,0V52.18H79a5,5,0,0,1,0,9.91H63c0,1.15,0,2.36-.07,3.62.14,6.84,1.53,21.83,10.46,31.4,4.34,4.65,10.12,7.4,17.11,8.38,4.81-11.42,18.12-28.61,24.68-32.83,2.68-1.71,5.15-2.07,7.36-1.06,3.76,1.72,12.73,10.82,17,15.4C152.51,101.14,152.54,105.16,151.45,108.07ZM170.61,83v-.17l.12.09Z"/><path class="cls-1" d="M119.66,81.51c-4.59,3.41-13.85,15.89-18.41,24.19h18.32c8.94,0,18.13,0,21.63-.93C137.72,99,124.72,85.53,119.66,81.51Z"/><path class="cls-1" d="M61,13.61l.09,0h0Z"/><polygon class="cls-1" points="131.73 166.46 131.72 166.46 131.72 166.46 131.73 166.46"/><polygon class="cls-1" points="6.25 65.5 6.24 65.49 6.25 65.5 6.25 65.5"/><polygon class="cls-1" points="10.66 58.68 10.66 58.68 10.66 58.68 10.66 58.68"/><polygon class="cls-1" points="82.92 0 82.91 0 82.93 0.01 82.92 0"/><polygon class="cls-1" points="90.92 1.23 90.92 1.25 90.94 1.25 90.92 1.23"/></g></g></svg>