<svg width="400" height="52" viewBox="0 0 400 52" fill="none" xmlns="http://www.w3.org/2000/svg">
<path d="M80.659 26.5924V26.26L80.37 25.9276V24.8003L79.6618 24.3523L79.5606 24.15C79.0982 23.4707 78.5634 22.8348 77.9853 22.2423L77.8842 21.6208L76.9447 20.8693H76.4678L75.7018 20.1467L74.5601 19.2217H74.2566C74.2566 19.2217 74.1265 19.2217 73.7941 18.9471L73.4328 18.7881C72.9992 18.3401 72.4645 17.9932 71.8719 17.8054C71.4962 17.5308 71.0481 17.3862 70.6001 17.3718L70.2966 17.2562H70.0509L69.7619 17.0394L69.0537 15.941L67.8542 16.1289L66.0765 15.5941H65.4406L65.2527 15.1461L64.4434 15.334L63.8364 15.4641C63.634 15.3629 63.4173 15.3051 63.186 15.3051C62.5646 15.3051 61.9431 15.4207 61.3506 15.6086C60.5412 15.6809 59.8042 16.0711 59.255 16.6781L58.7925 17.1117L59.1393 18.9471C59.5007 20.7248 60.3823 21.1005 61.1049 21.1005L62.29 20.9994V21.2595L62.579 22.2856V23.5863L62.7235 25.5085L62.131 26.867L62.4779 27.4596V28.4568L62.3622 29.006L62.449 30.6102C62.4056 30.7403 62.3767 30.8559 62.3622 30.986C61.9431 31.1883 61.5673 31.4629 61.2494 31.7953L60.31 32.7781L60.8881 34.7003L62.0587 35.6252H62.8103L62.6513 37.2583H64.1254L65.0648 38.1833L66.7558 35.9287L67.0882 35.0905L67.9409 35.3073L68.4034 34.7581L68.5912 34.8303L69.2416 34.628C69.8486 34.6714 70.4701 34.5846 71.0482 34.3534C71.5829 34.3534 72.1032 34.2667 72.609 34.0933H72.927L73.1293 34.0065H73.7797L73.9964 33.862H74.0976C74.6902 33.8765 75.2683 33.6741 75.7452 33.2984H76.728L76.9303 32.9371L77.5806 32.5324L78.7657 32.1422L79.0259 31.7375L79.8208 31.3473L80.1387 30.538L80.8324 29.4685L80.977 28.7748L81.1359 28.3267L81.2082 27.7631C81.1359 27.344 80.9481 26.9538 80.659 26.6503V26.5924ZM74.3433 28.9337C74.0687 28.8904 73.7941 28.9193 73.5195 28.9916C73.2594 29.0638 72.9992 29.1939 72.7824 29.3818L72.5078 29.454H72.1176L71.7419 29.5696H71.236L70.3255 29.6419L70.0798 29.7286H69.9787C69.733 29.9021 69.4728 30.0177 69.1838 30.0899C68.519 29.8876 67.8253 29.8876 67.1604 30.0899H67.0304V29.324L66.9437 29.165L67.2327 28.7314L66.9581 27.6908L67.4206 26.1878L67.1171 25.8698C67.1171 25.7398 67.1171 25.5952 67.1171 25.4652V24.7859L67.594 24.5691L67.2616 22.8493V22.3868C67.2616 22.1555 67.2183 21.9388 67.1604 21.722L67.3339 21.4907C67.6518 21.722 68.0565 21.8376 68.4467 21.7942L68.7213 21.9966H69.1115C69.5162 22.3579 70.0365 22.5747 70.5857 22.5891L72.4067 23.702L72.7535 24.4246L73.7074 24.7425V25.046L73.9964 25.2917C74.2421 25.4941 74.5023 25.6675 74.7913 25.8265L75.2538 27.1272H75.7307L76.2799 27.8787L76.1643 27.9654H76.0487L75.5718 28.3701L74.7624 28.1389L74.3433 28.9482V28.9337Z" fill="white"/>
<path d="M105.835 34.6569L105.589 34.0066L104.925 33.6308L104.347 32.9082L103.566 31.5352V31.2317L102.728 29.8876V29.324L102.54 28.9193H102.901L103.277 28.7748L104.144 28.9049L104.954 28.2401L105.344 28.3846L105.763 28.1389C106.081 27.951 106.341 27.6764 106.529 27.344C106.702 27.0116 106.803 26.6358 106.789 26.2601C106.789 26.0144 106.746 25.7831 106.688 25.5519L106.514 24.7137L105.055 24.6125C104.708 24.3524 104.289 24.2078 103.855 24.1934C103.422 24.1789 102.988 24.2945 102.627 24.5258H101.514V23.1094L101.586 22.9649L100.733 21.7943L100.415 20.1611L99.8807 19.1639L99.7507 18.5569C99.6929 17.921 99.4616 17.3285 99.1003 16.8082L98.9413 16.5191L98.8257 15.2473L97.5828 14.4958L96.2821 12.9927L95.097 14.1345C94.4466 14.4813 93.8974 15.0016 93.5072 15.6375L93.1604 16.1145L93.3049 16.6348V16.8371L93.0447 17.2128H92.2065V18.2968L91.5272 19.7998H91.3104L91.1515 20.1322L90.3566 20.3924V21.274C90.3566 21.4185 90.3277 21.5486 90.2699 21.6787C90.2121 21.8087 90.1254 21.9099 90.0097 21.9822L89.7785 22.2857C89.6918 22.488 89.6195 22.6903 89.5762 22.9071L88.5645 23.5286L88.4922 24.309C88.3333 24.468 88.2032 24.6414 88.102 24.8437L86.2087 24.6559V26.1589L85.4139 26.896L85.5439 27.5752C85.6017 27.8209 85.6595 28.0666 85.7463 28.2979L85.4572 28.7892L84.7201 29.0783L84.5756 29.6853C84.5467 29.8732 84.4744 30.0466 84.3733 30.2056C84.2721 30.3646 84.1276 30.4946 83.9686 30.5814L83.5639 30.827L83.4194 31.0294L82.7691 31.2606L82.6823 31.9688L81.0203 32.2434L80.9192 33.573L80.7602 33.8187V34.5124L80.1243 36.0155L80.7313 36.5791C81.2226 37.0849 81.8875 37.3884 82.5812 37.3884C82.8269 37.3884 83.087 37.3451 83.3327 37.2873L85.0959 36.2323L85.5728 35.394L86.7868 33.7464C87.0903 33.5875 87.4806 33.1972 88.4922 31.5641L88.9547 31.434L89.157 31.1305C89.3016 30.9282 89.4894 30.6681 89.7351 30.3068L90.1543 30.7837L91.3972 30.1333C91.6284 30.1767 91.8596 30.2056 92.1053 30.22L92.828 30.538L93.5072 30.1044L94.331 30.22L95.0825 29.7865H95.4005L95.7618 30.7259L96.6 30.1189L96.7301 30.2779L97.7562 29.5986L97.8719 30.5814L98.2476 31.1161L98.8835 32.7348L99.2593 33.2551L99.3316 33.891L99.5339 34.0933V34.3245L100.271 35.2206L100.82 36.3045L101.153 36.5068L101.702 37.533H102.482L102.901 37.9087H103.378L104.766 38.6603L105.17 38.5157C105.662 38.3568 106.095 38.0388 106.399 37.6197C106.702 37.1861 106.861 36.6803 106.861 36.1455V35.4807L105.821 34.7292L105.835 34.6569ZM96.8313 24.9883L95.4583 25.2195C95.097 25.205 94.7212 25.205 94.3599 25.2195H93.6806C93.4639 25.1183 93.2326 25.0461 92.9869 25.0027C93.276 24.5402 93.4928 24.0199 93.6517 23.4997L94.6779 22.9216L94.9091 21.5919L95.4583 20.956L95.5595 20.8115V21.4908H96.0942L96.5422 22.4735L96.8313 24.9883Z" fill="white"/>
<path d="M141.2 16.6347L140.232 15.5074C140.03 15.2618 139.784 15.0594 139.509 14.9149C139.235 14.7704 138.917 14.6981 138.613 14.6837C138.238 14.6837 137.876 14.7993 137.558 15.0016C137.24 15.2039 136.98 15.493 136.807 15.8254L136.619 16.4469L136.07 17.3285V17.8921C136.07 18.2823 136.128 18.6725 136.243 19.0483C136.243 19.0916 136.243 19.1495 136.243 19.1928L135.564 20.6959L135.795 21.0572L135.434 21.9243L134.957 22.5024L134.509 23.5285L133.945 24.3668L133.324 25.5374L132.471 26.5202L131.98 27.3584C131.777 27.4596 131.589 27.6041 131.43 27.7631L131.156 28.0955V28.2834L130.737 28.8326L130.578 29.3673L130.404 28.9193L130.115 28.5002L129.653 27.3584C129.523 26.5202 129.292 25.6964 128.945 24.916L128.858 24.5547L128.728 24.2801V23.9043L127.904 21.5486V19.8432L127.745 18.3401L126.864 17.9065L126.112 17.0394H124.305L124.06 17.4296L123.742 17.7331L123.091 18.2679L122.745 18.5569L122.571 19.7709L122.21 20.2767H122.008L121.776 20.8259H121.299L120.981 22.0399L120.591 22.3579L120.447 22.9504C120.447 23.2539 120.273 23.2973 120.187 23.3262L119.652 23.5141L119.478 24.1934L119.218 24.439C119.074 24.5402 118.944 24.6847 118.857 24.8437C118.77 25.0027 118.727 25.1906 118.727 25.3785C118.727 25.4796 118.727 25.5663 118.727 25.6675L118.235 25.8843L117.903 26.8671L117.05 27.7776L116.978 28.2111L116.646 28.4568L116.443 28.9482C116.328 29.006 116.227 29.0927 116.154 29.2084L115.966 29.4685L115.779 29.5986V29.2806L115.489 28.5435V27.2862L115.041 27.0838L114.897 26.4046L114.752 26.0288L114.333 23.7598L114.03 23.0372L113.683 20.2478V20.0311L114.03 18.8893L113.77 18.5136C113.726 17.4874 113.278 16.5336 112.556 15.8398L112.252 15.6375C111.876 15.4785 111.486 15.3918 111.081 15.3629C110.619 15.3629 109.463 15.5653 109.073 17.314L108.393 19.3373L108.943 20.0744L109.029 20.8982V21.6064L109.333 22.8348V22.9794L110.258 25.9999V26.3323L110.662 28.0522L110.98 28.7892L111.053 29.3962L111.717 30.8993L112.093 32.4023L113.047 34.2089L113.322 34.8737L114.29 36.3768L114.434 36.5357C114.637 36.767 114.897 36.9404 115.172 37.0705C115.446 37.2005 115.75 37.2728 116.053 37.2728C116.544 37.3017 117.021 37.1427 117.397 36.8248C117.773 36.5068 118.033 36.0588 118.105 35.5674L119.146 35.4518L118.727 34.628L119.117 33.732L119.319 33.5007L119.464 33.1539H120.187V32.2C120.288 31.9399 120.317 31.6508 120.302 31.3762C120.302 31.2606 120.302 31.0727 120.302 31.145L120.374 31.0149L122.21 28.5869C122.513 28.2689 122.73 27.8787 122.86 27.4596C122.86 27.3729 122.86 27.3006 122.86 27.3151L123.048 27.0983H123.178L123.568 26.5636C123.771 26.4479 123.93 26.3034 124.074 26.1155C124.204 25.9276 124.305 25.7253 124.349 25.4941L124.58 25.9855L124.884 27.8209L125.187 28.0811V28.2689L125.794 29.4251C125.866 29.5119 125.895 29.613 125.91 29.7286L126.011 30.09C126.228 30.538 126.416 31.0005 126.589 31.4629L127.008 32.5758L127.442 33.0382V33.6163L128.294 35.2206L128.988 37.0849L130.332 37.7353H130.665C131.011 37.7353 131.358 37.6775 131.662 37.5185C132.081 37.4029 132.457 37.1861 132.76 36.8681C133.064 36.5646 133.295 36.1744 133.41 35.7553L133.497 35.4807L133.295 34.3679L133.367 34.0644V33.5296L133.541 33.2984L133.859 32.4312L134.61 31.3618L134.726 31.1016L135.015 30.827L135.463 29.7286L135.636 29.6419L135.752 29.4107L136.315 29.1939L136.922 27.6908L137.501 26.9682L137.891 25.9999L139.365 23.861V23.702L139.929 22.3145C140.449 21.0716 140.709 20.3538 140.709 20.1611C140.709 20.06 140.709 19.9732 140.709 19.8721C140.94 19.453 141.07 18.976 141.07 18.4846C141.085 18.3112 141.085 18.1378 141.07 17.9499L141.287 16.6347H141.2Z" fill="white"/>
<path d="M171.724 21.3174H168.313C167.836 21.1151 167.316 21.1151 166.839 21.3174H165.278L164.57 21.5197V20.5081L164.845 19.771L164.628 18.9472V18.6292L164.483 18.0222V14.4091L164.006 14.5248V13.9611L162.316 14.4091L160.148 13.8021L159.685 15.4208C159.497 15.5653 159.338 15.7388 159.223 15.9555C159.107 16.1579 159.035 16.3891 159.02 16.6348C158.991 16.7215 158.963 16.8227 158.919 16.9094L158.659 17.5309L158.991 18.0511L159.512 19.5542L159.338 19.93L159.57 21.433L159.44 21.7654L156.578 22.1412H155.682L154.873 21.6498L154.078 22.1267H151.866L151.548 21.9967L150.551 22.1267H150.378L150.074 21.3897C150.19 20.7538 150.248 20.1178 150.248 19.4675C150.277 19.0773 150.277 18.6726 150.248 18.2824C150.248 18.0078 150.378 17.7621 150.45 17.5164L150.624 16.9817L150.19 16.2446L150.031 14.9872L148.904 14.5537L147.878 13.6721L145.58 15.1028L145.03 17.2129V18.2535L145.103 18.7882L144.178 18.2535L144.9 20.8983C144.987 21.2451 145.03 21.592 145.03 21.9533C145.045 22.199 145.045 22.4591 145.03 22.7048L143.975 23.3985L144.134 26.5492L144.828 26.9828L144.987 30.1912V30.7115C144.828 31.0728 144.756 31.4775 144.756 31.8677L144.987 32.7059L145.377 33.3418C145.478 36.3624 146.851 36.8538 147.747 36.8538C148.008 36.8538 148.253 36.8104 148.485 36.6948C148.716 36.5936 148.933 36.4346 149.106 36.2468C149.279 36.0589 149.41 35.8276 149.496 35.582C149.583 35.3363 149.612 35.0761 149.597 34.816V34.657L149.8 34.2234L149.438 33.2696L149.568 32.3591L149.366 31.8677L149.554 30.3646L149.41 29.9889L149.554 29.5842L149.438 28.717L149.525 27.8788V27.4308L150.999 28.0667L151.129 27.4163L151.765 27.2718L152.401 27.7921L153.543 27.214H153.716C153.991 27.1128 154.266 27.0406 154.555 26.9972H155.248L156.968 27.214L158.356 26.7371C158.746 26.7804 159.136 26.7804 159.526 26.7371C159.454 27.055 159.425 27.3874 159.411 27.7198V28.4135L159.309 29.324V30.5525L159.208 32.0556V32.995L159.049 33.125L159.396 34.5414V35.6831L159.671 36.7815L159.873 37.1862L160.003 38.8482H161.015C161.333 38.8771 161.651 38.8482 161.954 38.747C162.258 38.6459 162.532 38.4869 162.778 38.2846C163.024 38.0822 163.226 37.8221 163.371 37.533C163.515 37.244 163.602 36.926 163.631 36.6081C163.703 36.3913 163.761 36.1745 163.804 35.9433V34.8738L163.631 34.498C163.631 34.3101 163.631 34.1367 163.631 33.9488L163.934 31.6653V30.856L164.281 30.538L164.165 29.8732C164.165 29.7143 164.165 29.5264 164.05 29.2807C164.122 28.8616 164.137 28.428 164.093 27.9944V26.896L164.194 26.4191L164.845 25.9711H164.931L165.741 26.5203L166.55 25.7543H167.114L167.446 25.4219H168.039L170.467 23.6442L170.019 23.0083L171.753 21.3318L171.724 21.3174Z" fill="white"/>
<path d="M194.544 21.9677L193.952 21.0716L192.897 19.0916L192.348 18.8315L191.986 17.7476L189.399 16.4613L188.489 16.3746L188.229 16.0277H187.781L186.682 14.5247L186.176 15.623H183.387L182.202 15.4641L181.205 15.623C180.526 15.6809 179.861 15.8398 179.225 16.0855H179.095L178.863 16.3312C178.546 16.4757 178.256 16.6636 177.982 16.8804L176.898 17.1405V18.1667L176.782 18.2967L176.609 18.5713L176.291 18.7592L174.73 21.3607L174.239 22.5747L173.27 23.3551L173.559 24.1066V24.4246L173.415 24.7425V24.9593L172.967 25.5808L172.866 27.633L172.447 29.1361V31.4051L172.649 31.6797V32.2722L173.213 34.0643L174.239 34.5991L174.427 34.8303V35.9576H176.031L176.349 36.1166L177.592 36.3912L177.751 36.5935L179.21 36.8103H179.846L181.609 36.449H183.17L183.474 36.1744L183.98 36.4779L184.934 35.5963C185.107 35.5529 185.28 35.4807 185.425 35.394L185.858 35.5529L187.752 34.4112L188.503 34.1077L188.648 34.0065L189.385 34.1366L190.599 32.6336L191.119 32.2867L192.926 30.7836L193.099 30.6969C193.518 30.4512 193.88 30.1188 194.154 29.6997C194.429 29.2806 194.588 28.8181 194.646 28.3267L194.992 27.9654L195.137 26.4624L195.397 25.8409L195.484 24.9593C195.325 23.9332 195.007 22.936 194.559 21.9966L194.544 21.9677ZM190.671 26.3323L189.341 27.8353L189.24 27.9221L188.995 27.8209L188.503 28.3701L187.81 27.8787L187.101 29.7431C186.928 29.8442 186.755 29.9743 186.624 30.1333H185.497L185.064 30.5091H184.746L183.936 30.9715C183.488 31.0582 183.055 31.2461 182.664 31.5063C182.491 31.5496 182.318 31.6219 182.159 31.7086L181.349 31.5641L180.352 31.7953L180.005 31.3906L178.213 31.9254C177.91 31.8531 177.621 31.7231 177.36 31.5641V31.1161L176.956 30.5958V30.2778L177.028 29.9599C177.028 29.772 177.057 29.5985 177.144 29.4251C177.548 28.6302 177.78 27.7342 177.823 26.8237L178.155 26.5924L178.444 25.523L179.153 25.1761V24.2078C179.268 24.0488 179.369 23.8754 179.456 23.6875L180.41 23.225L180.612 22.1411C180.916 21.8954 181.219 21.6931 181.479 21.4618H181.942L182.375 21.2161H182.708L182.968 21.115C183.416 20.9415 183.821 20.6958 184.168 20.3779C184.312 20.3634 184.457 20.3201 184.587 20.2767H184.76L185.208 20.4646L185.569 20.2334L185.916 20.3056C186.046 20.3345 186.191 20.3345 186.321 20.3056C187.116 20.4213 187.882 20.7392 188.532 21.2306L188.98 21.9821L189.183 21.8665L189.645 22.3579L189.79 23.1094L190.107 23.2539L190.266 23.7164L190.7 24.0488L190.801 24.3668L190.714 24.5257L190.873 25.6097L190.613 26.1878V26.3178L190.671 26.3323Z" fill="white"/>
<path d="M4.69714 44.3256C4.82722 44.3256 4.91393 44.528 5.02955 44.5858C4.91393 44.5858 4.82722 44.3834 4.69714 44.3256Z" fill="#CAAD70"/>
<path d="M50.1645 21.8665V21.7509C50.1645 21.6063 50.1645 21.4474 50.2801 21.3028C50.3957 21.1583 50.2801 20.6669 50.1645 20.349V20.0021H50.0777V19.3229H49.9766C49.9766 19.1205 49.9043 18.9471 49.8899 18.7592C49.8899 18.3546 49.7887 17.9643 49.7309 17.5741V17.4585L49.6297 17.3429C49.6297 17.2562 49.6297 17.1839 49.6297 17.0972C49.5864 16.9382 49.543 16.7937 49.5141 16.6347C49.3118 16.2156 49.1239 15.7965 48.9071 15.3484L48.8059 15.2328V15.1172C48.8059 15.1172 48.8059 15.0449 48.8059 15.016H48.7192L48.5602 14.6981L48.4446 14.4668L48.3435 14.2067C48.0544 13.7442 47.722 13.2817 47.4619 12.8048C47.3462 12.5736 47.1584 12.3712 46.9416 12.2123C46.8404 11.981 46.7248 11.7642 46.5803 11.5619C46.1178 11.0416 45.8287 10.4202 45.3952 9.88542L44.1522 8.80149L43.632 8.02106H43.5308C43.5308 8.02106 43.5308 7.93434 43.5308 7.90544C43.2996 7.74646 43.1406 7.42851 42.7793 7.44296C42.7793 7.44296 42.6492 7.44296 42.5914 7.31289L41.5364 6.17115L41.3196 5.92546V5.80984L40.5247 5.54969L40.3946 5.44853C40.3946 5.44853 40.3946 5.36181 40.3946 5.33291L40.2645 5.23174L40.1489 5.13057L40.0333 5.01495L39.8165 4.89933L39.6864 4.79817H38.8916C38.5736 4.74036 38.299 4.56693 38.0967 4.30678C38.0967 4.30678 37.9955 4.30678 37.9522 4.22007L37.8221 4.1189V3.95993L37.692 3.87321L37.1284 3.74314C36.926 3.55526 36.6514 3.45409 36.3768 3.45409C36.2901 3.45409 36.189 3.45409 36.1022 3.45409C35.4952 3.15059 34.8738 2.86154 34.2379 2.6303C34.0066 2.52913 33.7899 2.39906 33.5731 2.26899C33.4574 2.16782 33.3707 2.0522 33.2985 1.92213C32.9083 1.86432 32.5469 1.69089 32.2434 1.45965L31.8099 1.31513C31.5064 1.34404 31.1884 1.34404 30.8849 1.31513C30.5092 1.31513 30.1045 1.38739 29.7432 1.18506C29.2807 0.953819 28.7893 0.78039 28.2835 0.693676C28.2835 0.664771 28.2835 0.621413 28.2835 0.592509H28.0522C27.5175 0.390175 26.9394 0.390175 26.4047 0.592509H26.3179L25.7109 0.476889L25.3785 0.375722L25.1328 0.260103H24.1501L23.1095 0.158936H21.6498L20.9416 0.260103C20.9416 0.260103 20.9416 0.332365 20.9416 0.36127H20.5081C20.5081 0.36127 20.4792 0.36127 20.4647 0.36127C20.4503 0.36127 20.4358 0.36127 20.4214 0.36127L20.2913 0.476889H19.7854L19.6843 0.563604C19.6843 0.635866 19.6843 0.708128 19.6843 0.794843C19.6554 0.881557 19.612 0.953819 19.5687 1.04053C19.6265 1.08389 19.6698 1.12725 19.6987 1.19951C19.7276 1.27177 19.7276 1.34404 19.6987 1.40184H19.453C19.453 1.40184 19.453 1.47411 19.453 1.50301H19.2363L18.7593 1.61863L18.0656 1.86432C18.0656 2.35571 17.6031 2.45687 17.2129 2.54359H17.1406V2.64475L16.5626 2.77483L16.2012 2.87599L15.8688 3.00607L15.6376 3.12168L15.5075 3.2084L15.1751 3.33847L14.9583 3.46854L14.6115 3.56971L14.4669 3.65642L14.2502 3.7865L14.1056 3.97438H13.7732L13.5275 4.19117H13.3252C13.3252 4.19117 13.3252 4.24897 13.3252 4.27788C12.9928 4.27788 12.7905 4.52357 12.5448 4.6681L12.4002 4.75481L12.1835 4.89933L12.0534 4.98605C12.0534 4.98605 12.0534 5.04386 12.0534 5.07276H11.8655L11.7354 5.17393L11.5187 5.304L11.3741 5.39072L11.1718 5.52079L10.9406 5.65086H10.796L10.4636 6.01217L10.348 6.12779H10.2179C10.1023 6.24341 9.98669 6.35903 9.88553 6.47465L9.76991 6.57582H9.65429L9.56757 6.70589V6.92267H9.46641L9.24962 7.16837L9.14845 7.28399L9.01838 7.39961L8.90276 7.50077L8.78714 7.61639L8.68597 7.73201L8.45474 7.9777L8.31021 8.18004L8.19459 8.29566L8.07897 8.41128L7.96335 8.5269L7.86219 8.64251C7.74657 8.78704 7.63095 8.96047 7.50087 9.10499L7.39971 9.22061C7.39971 9.22061 7.39971 9.35068 7.39971 9.42295H7.29854L7.19737 9.55302L7.08175 9.65418L6.98059 9.7698L6.86497 9.88542L6.74935 10.001C6.74935 10.001 6.64818 10.1311 6.60482 10.2178L6.47475 10.4346L6.17125 10.5936C6.17125 10.5936 6.08454 10.7381 6.05563 10.8248L5.92556 11.0561C5.92556 11.1717 5.89665 11.3018 5.83884 11.4029C5.78103 11.5041 5.69432 11.5908 5.59315 11.6631L5.36191 12.0099L5.21739 12.2267L5.13068 12.3568C4.91389 12.5736 4.6682 12.7615 4.3936 12.9204L3.82996 13.6575L3.61317 14.3657L3.49755 14.4813C3.49755 14.6258 3.49755 14.7703 3.49755 14.9004C3.38193 15.0449 3.26631 15.1895 3.16514 15.3484L2.83274 15.9988C2.83274 15.9988 2.76048 16.1144 2.71712 16.1578C2.67376 16.23 2.64486 16.3168 2.61595 16.4035C2.57259 16.5191 2.52924 16.6347 2.50033 16.7503V16.866C2.50033 16.9816 2.50033 17.0972 2.38471 17.2128V17.3284L2.26909 17.444V17.5597L2.15347 17.6608C2.15347 17.7765 2.25464 17.9354 2.15347 17.9932C1.87888 18.369 2.08121 18.7303 2.15347 19.0916C2.15347 19.1205 2.15347 19.1639 2.15347 19.1928C2.15347 19.1928 2.15347 19.2217 2.15347 19.2362C2.15347 19.2506 2.15347 19.2651 2.15347 19.2795C1.84997 19.3518 1.76326 19.0627 1.57538 18.9326C1.57538 18.4124 1.70545 17.8921 1.90778 17.4296V17.3429H1.691C1.691 17.6319 1.691 17.921 1.34414 18.0366C1.27188 18.0366 1.25742 18.2534 1.22852 18.369C1.28633 18.4846 1.32969 18.6002 1.32969 18.7303C1.32969 18.8604 1.30078 18.976 1.22852 19.0916C1.22852 19.1205 1.22852 19.1639 1.22852 19.1928L1.12735 19.4385C1.12735 19.4385 1.12735 19.5107 1.12735 19.5397V19.9877H1.02618V20.4357L0.925017 20.5513V21.245C0.925017 21.245 0.997279 21.3607 0.997279 21.4329C0.997279 21.5052 0.968374 21.563 0.925017 21.6208V21.722C0.925017 21.8231 0.925017 21.9966 0.70823 21.852C0.70823 21.9677 0.70823 22.0688 0.70823 22.1844C0.70823 22.2278 0.70823 22.2712 0.70823 22.3001C0.737135 22.3723 0.76604 22.459 0.809397 22.5313H0.70823C0.70823 22.6469 0.70823 22.7625 0.70823 22.8782L0.607063 23.1239L0.491444 23.225V23.8031C0.491444 23.9187 0.491444 24.0488 0.592611 24.1644L0.679325 24.7425L0.578158 24.8581L0.361372 24.757L0.2313 24.4101C0.2313 24.6125 0.2313 24.8003 0.115681 24.9882C0.115681 25.0316 0.115681 25.0749 0.115681 25.1038C0.159038 25.2484 0.17349 25.3929 0.159038 25.5374C0.144585 25.6819 0.0867756 25.812 6.10352e-05 25.9421C6.10352e-05 25.9854 6.10352e-05 26.0288 6.10352e-05 26.0577C0.17349 26.2167 0.303562 26.3901 0.130133 26.6358C-0.0432963 26.8815 0.0578708 27.0405 0.0145135 27.2428V27.4596H0.130133L0.303562 28.1099C0.303562 28.2978 0.404729 28.4713 0.462539 28.6591C0.520349 28.847 0.462539 28.9915 0.462539 29.0927V30.3934H0.578158V30.6391H0.693778V30.8704L0.82385 31.1161H0.925017V31.2317H0.82385C0.82385 31.2317 0.82385 31.3184 0.82385 31.3473L0.722683 31.4485C0.693778 31.5785 0.650421 31.6941 0.607063 31.8098C0.607063 31.8387 0.607063 31.882 0.607063 31.9109L0.82385 32.1566L0.953922 32.5035H1.06954L1.17071 32.6191V32.8503L1.27188 32.9804V33.3128C1.27188 33.3128 1.32969 33.3995 1.37304 33.4284V33.5441H1.18516C1.1129 33.3706 1.02618 33.1972 0.939469 33.0527C0.939469 33.0527 0.794945 33.0527 0.70823 32.9804L0.82385 33.3417C0.852755 33.4284 0.88166 33.5007 0.925017 33.5874V33.6886C0.925017 33.6886 1.01173 33.7753 1.04064 33.8187C1.04064 33.9632 0.968374 34.1222 0.925017 34.2667L1.04064 34.3823H1.35859V34.6135L1.45976 34.7292V35.3217C1.45976 35.524 1.691 35.8709 1.79216 36.131L1.90778 36.2467V36.3478L2.0234 36.4635C2.0234 36.608 2.0234 36.7814 1.92223 36.9259H2.03785L2.13902 36.6947H2.25464L2.6015 37.2728C2.71712 37.3161 2.81829 37.3884 2.89055 37.504C2.96281 37.6052 2.99171 37.7353 2.96281 37.8653L2.83274 38.2266V38.6747H2.93391L3.04952 38.9059H2.91945C2.96281 38.9782 3.00617 39.0649 3.03507 39.1516C3.03507 39.0649 3.12179 38.9926 3.15069 38.9059H3.4831L3.62762 39.325C3.62762 39.4551 3.512 39.5274 3.36748 39.4407L3.15069 39.3539C3.15069 39.5129 3.23741 39.6719 3.26631 39.8164L3.38193 39.932L3.72879 40.2789C3.72879 40.2789 3.8155 40.3512 3.84441 40.3945L3.96003 40.5101L4.07565 40.6113C4.07565 40.6113 4.14791 40.6836 4.17681 40.7125L4.32134 40.8425H4.3647V40.9148L4.55258 41.0593V41.1749L4.65375 41.2761H4.78382V41.464H4.87053C5.0006 41.6085 5.13068 41.753 5.24629 41.8976V42.1433C5.24629 42.3456 5.31856 42.5335 5.36191 42.7358H5.47753L5.70877 42.8514L5.94001 42.967H6.05563L6.28687 43.4151L6.41694 43.7619L6.86497 43.892L7.58759 44.4556L7.71766 44.5568C8.64262 45.3517 9.62538 46.0599 10.6515 46.6958V46.8403L11.6343 47.5051C11.6776 47.5918 11.7499 47.6496 11.8366 47.693C11.9233 47.7363 12.01 47.7508 12.1112 47.7363L12.4725 47.9676L12.8049 48.0832L12.9205 48.1988L13.2674 48.4445L13.1518 48.5457L13.4986 48.7914L13.8455 48.4301V48.5457C13.8455 48.5457 13.9322 48.6179 13.9611 48.6613V48.9648L14.308 49.0804L14.7704 48.8347V49.196H14.8861V49.2972L15.1173 49.4128L15.5798 49.5285H15.7966L16.1434 49.1671H16.3891L16.5047 49.2683L16.2446 49.4562L16.0423 49.6152L16.3891 49.7308L16.6204 49.8464H16.736L17.1985 49.962C17.1985 49.962 17.3285 50.0343 17.3719 50.0921C17.4152 50.1499 17.4297 50.2366 17.4297 50.3089L17.6609 50.2077L18.2535 50.3089H18.3691C18.8171 50.3522 19.2652 50.5112 19.6409 50.7569H20.5659V50.8581H20.8983C20.8983 50.8581 20.8983 50.8003 20.8983 50.7714L20.9994 50.8581C20.9994 50.8581 21.0862 50.9303 21.1151 50.9737H22.1701C22.1701 50.7714 22.1701 50.5835 22.2857 50.3811L22.517 50.728V50.9737L22.6326 51.0749C22.6326 51.0749 22.7626 51.0315 22.8349 51.0749C22.9072 51.1038 22.9505 51.1471 22.9939 51.2049H24.0489C24.2657 50.9737 24.0489 50.887 23.8755 50.8292C23.9911 50.6702 24.1356 50.5546 24.3235 50.4968C24.4969 50.439 24.6993 50.439 24.8727 50.4968L25.1039 50.5979C25.1039 50.5979 25.0895 50.6846 25.075 50.7136C25.0606 50.7569 25.0317 50.7858 24.9883 50.8147C24.9594 50.8436 24.9161 50.8581 24.8727 50.8725C24.8293 50.8725 24.786 50.8725 24.7426 50.8725C24.5114 50.8725 24.4102 50.9737 24.3958 51.1905H25.2196L25.4797 51.0749L25.3496 50.4968H26.4914L26.8527 50.2655C26.8816 50.1933 26.9249 50.1065 26.9683 50.0343L27.3007 49.7741H27.7054C27.7054 49.8609 27.8355 49.9331 27.7054 50.0632C27.6476 50.1499 27.5898 50.2511 27.5609 50.3667C27.9511 50.3667 28.1534 50.0343 28.3557 49.7597L28.8327 49.6441L28.9627 49.7741L28.4569 50.0487L28.6014 50.3667H28.7026L28.9338 50.2511H29.1506C29.2373 50.1644 29.3241 50.0054 29.4686 50.1644C29.6131 50.3089 29.4686 50.3089 29.4686 50.3811V50.6268C29.5408 50.6268 29.6276 50.6268 29.6854 50.6702C29.7576 50.7136 29.801 50.7714 29.8299 50.8436H29.9311C29.9311 50.8436 30.0178 50.7714 30.0467 50.728C30.1334 50.6991 30.2057 50.6557 30.2779 50.6124L30.3935 50.5112L30.6248 50.3956L30.856 50.28V50.1788L31.1017 50.0776H31.2173L31.1017 50.4245V50.5257H31.3329L31.5642 50.4101L31.7087 50.2944L31.9399 49.6874L32.07 49.6007C32.4747 49.5574 32.8794 49.4417 33.2407 49.2539L33.3563 49.1382L34.4113 48.7769L34.5269 48.6613L34.975 48.5457C34.975 48.5457 34.975 48.4734 34.975 48.4445H34.9605C34.9605 48.4445 35.0183 48.3723 35.0617 48.3578C35.105 48.3434 35.1484 48.3289 35.1917 48.3289C35.2351 48.3289 35.2785 48.3289 35.3218 48.3578C35.3652 48.3723 35.3941 48.4156 35.423 48.4445C35.4519 48.4012 35.4952 48.3578 35.5386 48.3289L35.8855 48.2277C35.8855 48.2277 35.9577 48.141 36.0011 48.1121C36.0733 48.1121 36.1456 47.9531 36.2323 47.8664V47.6352H35.7698L35.6542 47.7363L35.5386 47.852C35.5386 47.852 35.4519 47.9242 35.423 47.9676L35.3074 48.0832L34.9605 48.1844L34.7293 48.3C34.5703 48.3 34.4402 48.3 34.4836 48.0543C34.5269 47.8086 34.4836 48.0543 34.4836 47.9531H34.7148L34.8304 47.852H34.9605V47.7363L35.0761 47.6352C35.0761 47.6352 35.0761 47.5629 35.0761 47.534L35.1917 47.4328C35.0183 47.3606 34.816 47.3461 34.6281 47.3895C34.4402 47.4329 34.2668 47.5196 34.1367 47.6641C34.2812 47.534 34.4402 47.4329 34.6281 47.3895C34.816 47.3461 35.0039 47.3606 35.1917 47.4328H35.5241L35.7698 47.3317V47.2161H35.8855L36.0155 47.1149L36.2468 46.9993C36.2468 46.9993 36.319 46.9126 36.3624 46.8837H36.478C36.478 46.8837 36.478 46.8258 36.478 46.7969H36.6803L36.8971 46.6669L37.1284 46.5512C37.1284 46.5512 37.2151 46.479 37.244 46.4356L37.5908 46.32L37.7065 46.2044L37.9232 46.0888C37.9955 45.9732 38.0967 45.872 38.1978 45.7997C38.299 45.7275 38.4435 45.6841 38.5736 45.6841C38.6748 45.6841 38.7615 45.5685 38.8482 45.4962C39.3396 45.2794 39.8165 45.0048 40.2356 44.6724L40.597 44.2244L40.7126 44.1088L40.8282 43.9932L40.9438 43.892C41.045 43.8631 41.1317 43.7908 41.1895 43.7186C41.2473 43.6319 41.2907 43.5307 41.2907 43.4295C41.0402 43.4295 40.886 43.2754 40.8282 42.967C40.8282 42.967 40.8282 42.8948 40.8282 42.8659L41.1461 42.6057L41.7387 41.6663C42.5191 40.7847 43.314 39.932 43.9933 38.9926H44.0944L44.1956 38.8626C44.1956 38.8626 44.2823 38.718 44.3112 38.6313L44.5714 38.3134H44.6581C44.6581 38.2411 44.6581 38.1688 44.6581 38.0821H44.7593C44.7593 38.0821 44.7593 37.9376 44.7593 37.8653H45.135L45.2506 37.6196L45.3807 37.3884L46.2912 36.2178C46.3779 35.9865 46.4646 35.7553 46.5658 35.524L47.1728 34.3678L47.4908 33.8909L47.6208 33.5441L47.7365 33.2984L47.8376 33.0671L48.6759 30.827V29.9165H48.7626L49.1094 28.7458C49.1383 28.6302 49.1817 28.5146 49.2251 28.399L49.3985 27.3151L49.4852 26.6647H49.5719C49.6875 26.0143 49.7453 25.364 49.7164 24.6992C49.9621 24.2367 50.0633 23.7164 49.991 23.1961C49.9332 22.8204 49.9332 22.4301 49.991 22.0544V21.7653L50.1645 21.8665ZM0.28911 27.6764C0.17349 27.8064 0.115681 27.8932 0.115681 27.951C0.115681 28.0088 0.115681 27.8209 0.28911 27.6764ZM34.5269 14.2356C35.0761 14.2356 35.6109 14.4524 36.0011 14.8571C36.3913 15.2617 36.6081 15.7965 36.6225 16.3601C36.6225 16.6347 36.5647 16.9238 36.4636 17.1839C36.3624 17.444 36.2034 17.6753 36.0155 17.8776C35.8276 18.08 35.5964 18.2389 35.3363 18.3401C35.0761 18.4413 34.816 18.4991 34.5414 18.4991C34.2668 18.4991 33.9922 18.4413 33.7465 18.3401C33.5008 18.2389 33.2696 18.08 33.0672 17.8776C32.8793 17.6753 32.7204 17.444 32.6192 17.1839C32.518 16.9238 32.4602 16.6492 32.4602 16.3601C32.4602 16.0711 32.518 15.7965 32.6192 15.5219C32.7348 15.2617 32.8938 15.016 33.0817 14.8282C33.284 14.6258 33.5153 14.4813 33.7754 14.3657C34.0355 14.2645 34.3101 14.2212 34.5847 14.2212H34.5125L34.5269 14.2356ZM26.9972 2.26899C26.9972 2.38461 27.0839 2.51468 27.1128 2.61585C27.1417 2.71702 27.1128 2.38461 26.9972 2.26899ZM9.04728 42.7358C9.17736 42.9526 9.32188 43.1549 9.48086 43.3428C9.30743 43.1549 9.1629 42.9526 9.04728 42.7358ZM9.53867 45.5396C9.66874 45.7419 9.81326 45.9442 9.97224 46.1321C9.81326 45.9442 9.65429 45.7564 9.53867 45.5396ZM43.9644 31.9832C43.1406 34.2378 40.6692 34.2378 34.657 34.2378H28.5292C28.5292 37.9376 28.5292 38.6169 28.4569 39.4696V40.9726C28.428 41.7819 28.1968 42.5768 27.7921 43.2705C27.3874 43.9643 26.8238 44.5568 26.1445 44.9759C25.3496 45.4962 24.4247 45.7708 23.4708 45.7708C22.7916 45.7708 22.1267 45.6118 21.5053 45.3228C21.1584 45.1494 20.8983 44.8459 20.7682 44.4846C20.6381 44.1088 20.6526 43.7041 20.8116 43.3428C20.985 42.996 21.274 42.7214 21.6354 42.5913C21.9967 42.4612 22.3869 42.4757 22.7337 42.6346C23.0372 42.7647 23.3696 42.8225 23.7021 42.7792C24.0345 42.7503 24.3524 42.6346 24.627 42.4468C24.8872 42.2878 25.1039 42.071 25.2774 41.8109C25.4363 41.5507 25.5375 41.2472 25.5664 40.9437V34.2522C23.0517 33.9198 20.7249 32.7058 18.9761 30.8125C17.9066 29.5407 17.0684 28.081 16.5192 26.4913C15.7966 28.3845 14.6259 30.061 13.1373 31.3762C11.6343 32.6914 9.84217 33.6019 7.92 34.0354H7.61649C7.28409 34.0354 6.95168 33.9343 6.67709 33.7175C6.40249 33.5007 6.22906 33.1972 6.14235 32.8648C6.07008 32.4746 6.14235 32.0844 6.34468 31.752C6.54701 31.4196 6.86497 31.1883 7.24073 31.1016C10.6515 30.3501 13.1084 27.9365 14.2935 23.9476C14.7849 22.329 15.074 20.638 15.1607 18.9326V18.1089H10.5359C10.1457 18.1089 9.76991 17.9499 9.49531 17.6608C9.22071 17.3718 9.06174 16.996 9.06174 16.5914C9.06174 16.1867 9.22071 15.8109 9.49531 15.5219C9.76991 15.2328 10.1457 15.0738 10.5359 15.0738H15.1751V9.88542C15.1751 9.48076 15.3341 9.10499 15.6087 8.81594C15.8833 8.52689 16.259 8.36792 16.6493 8.36792C17.0395 8.36792 17.4152 8.52689 17.6898 8.81594C17.9644 9.10499 18.1234 9.48076 18.1234 9.88542V15.1895H22.806C23.1962 15.1895 23.572 15.3484 23.8466 15.6375C24.1212 15.9265 24.2802 16.3023 24.2802 16.707C24.2802 17.1116 24.1212 17.4874 23.8466 17.7765C23.572 18.0655 23.1962 18.2245 22.806 18.2245H18.1234V19.3084C18.1234 21.3607 18.557 25.8698 21.1729 28.7458C22.5025 30.1622 24.2657 31.0582 26.159 31.2606C27.8644 27.4885 30.3213 24.1355 33.3563 21.404C33.6598 21.1583 34.0211 21.0138 34.3969 20.956C34.7726 20.8982 35.1628 20.956 35.5097 21.0861C37.3307 22.4157 38.9927 23.9765 40.4524 25.7108C44.2679 29.902 44.2823 31.116 43.9644 31.9832Z" fill="white"/>
<path d="M34.7005 23.991C32.576 26.13 30.7549 28.5724 29.3242 31.2462H34.6716C36.7816 31.3329 38.8917 31.2461 40.9728 30.9716C39.1374 28.4135 37.0273 26.0722 34.7005 23.991Z" fill="white"/>
<path d="M243.191 0H242.049V51.4362H243.191V0Z" fill="white"/>
<mask id="mask0_6_1147" style="mask-type:luminance" maskUnits="userSpaceOnUse" x="288" y="2" width="112" height="48">
<path d="M399.754 2.39905H288.904V49.0226H399.754V2.39905Z" fill="white"/>
</mask>
<g mask="url(#mask0_6_1147)">
<path d="M322.159 16.1434V10.6081H309.427V2.44244H303.198V10.6081H295.885V16.1434H302.908C302.171 22.5169 297.041 27.2717 288.933 30.4079C289.656 31.2606 291.332 33.1683 292.532 35.1049C299.642 31.6942 301.998 30.3067 305.235 26.289C306.464 24.757 308.343 22.4013 309.455 16.1434C310.207 16.1723 322.188 16.1434 322.188 16.1434H322.159Z" fill="white"/>
<path d="M310.106 18.528C310.062 18.4124 310.019 18.2823 309.99 18.1667C309.296 20.9849 308.82 22.488 307.692 24.5691C310.323 29.324 314.644 32.1133 320.136 34.8159C320.858 33.7609 323.214 30.4802 323.59 30.0177C317 27.5608 312.042 24.15 310.106 18.528Z" fill="white"/>
<path d="M336.669 10.5791V9.03273C344.416 8.94601 350.284 8.48354 359.374 7.3996L358.536 2.41351C346.251 4.19116 341.121 4.19116 331.712 4.19116V16.9671C331.712 23.4274 330.599 25.0605 328.981 27.5318L333.418 30.8559C334.574 28.847 336.684 26.7659 336.684 19.4674V15.4496H354.793V19.4674H337.652C337.652 21.0138 337.522 22.6758 337.262 24.309H354.778V25.6241H360.314V10.5791H336.655H336.669Z" fill="white"/>
<path d="M393.106 8.74365C393.048 8.91708 392.904 8.94599 392.759 8.94599C392.557 8.94599 392.528 8.88818 392.456 8.77256C392.34 8.59913 392.369 8.13665 392.369 7.83315V2.86151H379.029V5.63638C379.029 10.3623 378.798 11.1572 376.992 12.4724C377.541 12.9493 379.579 14.3512 380.475 15.016C381.371 14.1489 383.307 12.6025 383.307 7.86205H388.149V8.70029C388.149 11.7498 389.536 13.2528 391.748 13.4118L393.193 13.5274C394.118 13.5274 395.563 13.643 396.676 13.0649C396.922 12.9349 397.933 12.5302 398.497 10.0588L393.106 8.80146V8.77256V8.74365Z" fill="white"/>
<path d="M295.87 10.608H290.335V16.1433H295.87V10.608Z" fill="#B13B27"/>
<path d="M376.703 12.9638H373.87V16.4613L376.775 15.9121C376.688 18.1233 376.688 19.8865 376.775 21.1727C375.763 21.3895 374.997 21.5196 373.87 21.7797V30.3934C373.957 33.0671 372.757 34.4979 370.271 34.6858C369.26 34.7725 367.915 34.8158 366.253 34.8158C366.167 34.1655 365.43 30.1911 365.43 29.8298C366.167 29.9165 367.121 29.8587 367.641 29.8298C368.161 29.8008 368.84 29.4684 368.754 28.4423V22.6758C367.742 22.9504 366.673 23.1816 365.574 23.3695L365.155 17.6897C365.242 17.6897 367.467 17.4151 368.754 17.1405V12.9638H365.155V7.8476H368.754V3.13611H373.87V7.8476H376.703" fill="white"/>
<path d="M391.43 28.7025C393.699 30.0321 394.942 30.4367 397.904 31.0727C397.182 32.5323 395.968 34.8014 395.78 35.1627C392.759 34.3823 389.869 32.8358 388.135 31.3906C389.406 30.5668 390.563 29.5118 391.43 28.7025Z" fill="white"/>
<path d="M378.264 35.1772C378.032 34.4835 376.963 32.1855 376.139 31.0872C379.102 30.4368 380.619 29.931 382.874 28.5869C380.619 26.8092 378.856 23.4129 378.856 20.4646V15.623H394.234V20.4935C394.234 23.6586 392.499 26.5924 390.216 28.6013C390.216 28.6013 385.996 32.807 378.249 35.1916L378.264 35.1772ZM383.221 20.031C383.221 21.6786 384.637 24.8726 386.545 25.812C388.409 24.8726 389.855 21.6497 389.855 20.031H383.206H383.221Z" fill="white"/>
<path d="M393.106 8.77253L398.497 10.0299L399.754 4.63914L394.364 3.38177L393.106 8.77253Z" fill="#CD9B5F"/>
<path d="M328.966 27.5029L325.642 31.9398L330.079 35.2638L333.403 30.8269L328.966 27.5029Z" fill="#9BA9BD"/>
<path d="M314.76 46.2622V46.7103C314.76 46.9704 314.76 47.2016 314.731 47.3895C314.702 47.5774 314.658 47.7508 314.572 47.9387C314.485 48.1121 314.369 48.3 314.196 48.459C313.835 48.8203 313.358 48.9937 312.736 48.9937H310.713V43.5452H312.736C313.358 43.5452 313.849 43.7186 314.196 44.0799C314.369 44.2533 314.485 44.4268 314.572 44.6002C314.658 44.7736 314.702 44.9615 314.731 45.1494C314.76 45.3373 314.76 45.5541 314.76 45.8287V46.2767V46.2622ZM313.415 46.2622C313.415 45.8142 313.415 45.5252 313.387 45.3806C313.372 45.2361 313.329 45.1205 313.271 45.0338C313.141 44.8314 312.924 44.7303 312.621 44.7303H312.028V47.7942H312.621C312.91 47.7942 313.126 47.693 313.271 47.4907C313.314 47.4184 313.343 47.3606 313.358 47.2883C313.372 47.2161 313.387 47.1149 313.401 46.9704C313.401 46.8114 313.415 46.5802 313.415 46.2622Z" fill="white"/>
<path d="M323.951 48.9793H322.549L322.289 48.1699H320.613L320.353 48.9793H318.951L320.931 43.5307H321.971L323.951 48.9793ZM321.957 47.0571L321.494 45.5974L321.003 47.0571H321.942H321.957Z" fill="white"/>
<path d="M334.733 43.5307L333.244 48.9793H332.146L331.264 46.2911L330.382 48.9793H329.298L327.795 43.5307H329.197L329.905 46.4067L330.787 43.5307H331.726L332.608 46.4067L333.331 43.5307H334.733Z" fill="white"/>
<path d="M343.216 48.9793H341.872V46.8114H340.456V48.9793H339.112V43.5307H340.456V45.6263H341.872V43.5307H343.216V48.9793Z" fill="white"/>
<path d="M352.119 46.2622V46.45C352.119 46.7535 352.119 47.0137 352.09 47.2305C352.076 47.4473 352.018 47.664 351.931 47.8664C351.845 48.0687 351.729 48.2566 351.57 48.4156C351.368 48.6179 351.151 48.7769 350.905 48.878C350.66 48.9792 350.37 49.037 350.038 49.037C349.821 49.037 349.619 49.0081 349.446 48.9648C349.272 48.9214 349.099 48.8491 348.954 48.7624C348.795 48.6757 348.665 48.5601 348.535 48.4156C348.289 48.1699 348.145 47.9097 348.087 47.5918C348.029 47.2883 348 46.8981 348 46.4356V46.0743C348 45.6118 348.029 45.2216 348.087 44.9181C348.145 44.6146 348.304 44.34 348.535 44.0943C348.737 43.892 348.969 43.733 349.214 43.6318C349.46 43.5306 349.749 43.4728 350.067 43.4728C350.385 43.4728 350.674 43.5306 350.92 43.6318C351.165 43.733 351.382 43.892 351.584 44.0943C351.743 44.2533 351.874 44.4412 351.946 44.6435C352.018 44.8458 352.076 45.0626 352.105 45.2794C352.119 45.4962 352.134 45.7563 352.134 46.0598V46.2477L352.119 46.2622ZM350.775 46.2622C350.775 45.7997 350.761 45.4817 350.732 45.3228C350.703 45.1493 350.645 45.0193 350.573 44.9325C350.515 44.8603 350.457 44.8025 350.356 44.7591C350.255 44.7157 350.154 44.6868 350.038 44.6868C349.922 44.6868 349.821 44.7157 349.735 44.7591C349.648 44.8025 349.561 44.8603 349.518 44.9325C349.474 44.9903 349.431 45.0626 349.402 45.1493C349.373 45.236 349.344 45.3661 349.33 45.5395C349.315 45.713 349.301 45.9587 349.301 46.2766C349.301 46.5946 349.301 46.8403 349.33 47.0137C349.344 47.1871 349.359 47.3172 349.402 47.4039C349.431 47.4906 349.474 47.5629 349.518 47.6207C349.648 47.7797 349.821 47.8664 350.053 47.8664C350.284 47.8664 350.457 47.7797 350.587 47.6207C350.66 47.534 350.703 47.3894 350.746 47.2305C350.775 47.0715 350.79 46.7535 350.79 46.2911L350.775 46.2622Z" fill="white"/>
<path d="M360.574 44.7303H359.23V48.9937H357.886V44.7303H356.541V43.5307H360.559V44.7303H360.574Z" fill="white"/>
<path d="M369.158 46.2622V46.45C369.158 46.7535 369.158 47.0137 369.129 47.2305C369.115 47.4473 369.057 47.664 368.97 47.8664C368.884 48.0687 368.768 48.2566 368.609 48.4156C368.407 48.6179 368.19 48.7769 367.944 48.878C367.699 48.9792 367.41 49.037 367.077 49.037C366.86 49.037 366.658 49.0081 366.485 48.9648C366.311 48.9214 366.138 48.8491 365.993 48.7624C365.834 48.6757 365.704 48.5601 365.574 48.4156C365.328 48.1699 365.184 47.9097 365.126 47.5918C365.068 47.2883 365.039 46.8981 365.039 46.4356V46.0743C365.039 45.6118 365.068 45.2216 365.126 44.9181C365.184 44.6146 365.343 44.34 365.574 44.0943C365.776 43.892 366.008 43.733 366.253 43.6318C366.499 43.5306 366.788 43.4728 367.106 43.4728C367.424 43.4728 367.713 43.5306 367.959 43.6318C368.204 43.733 368.421 43.892 368.624 44.0943C368.783 44.2533 368.913 44.4412 368.985 44.6435C369.057 44.8458 369.115 45.0626 369.144 45.2794C369.158 45.4962 369.173 45.7563 369.173 46.0598V46.2477L369.158 46.2622ZM367.814 46.2622C367.814 45.7997 367.8 45.4817 367.771 45.3228C367.742 45.1493 367.684 45.0193 367.612 44.9325C367.554 44.8603 367.496 44.8025 367.395 44.7591C367.294 44.7157 367.193 44.6868 367.077 44.6868C366.962 44.6868 366.86 44.7157 366.774 44.7591C366.687 44.8025 366.6 44.8603 366.557 44.9325C366.513 44.9903 366.47 45.0626 366.441 45.1493C366.412 45.236 366.383 45.3661 366.369 45.5395C366.355 45.713 366.34 45.9587 366.34 46.2766C366.34 46.5946 366.34 46.8403 366.369 47.0137C366.383 47.1871 366.398 47.3172 366.441 47.4039C366.47 47.4906 366.513 47.5629 366.557 47.6207C366.687 47.7797 366.86 47.8664 367.092 47.8664C367.323 47.8664 367.496 47.7797 367.626 47.6207C367.699 47.534 367.742 47.3894 367.785 47.2305C367.814 47.0715 367.829 46.7535 367.829 46.2911L367.814 46.2622Z" fill="white"/>
<path d="M377.975 47.0715C377.975 47.3606 377.917 47.6207 377.816 47.8664C377.7 48.1121 377.555 48.3145 377.367 48.5023C377.165 48.6758 376.948 48.8058 376.703 48.907C376.443 48.9937 376.182 49.0371 375.908 49.0371C375.532 49.0371 375.185 48.9504 374.882 48.7914C374.564 48.6324 374.318 48.4012 374.13 48.0977C373.942 47.7942 373.856 47.4618 373.856 47.0715V43.5307H375.2V47.0426C375.2 47.2883 375.272 47.4907 375.402 47.6352C375.532 47.7797 375.705 47.852 375.937 47.852C376.081 47.852 376.211 47.8231 376.327 47.7653C376.443 47.7075 376.529 47.6063 376.587 47.4907C376.645 47.375 376.674 47.2305 376.674 47.0715V43.5596H378.018V47.1005L377.975 47.0715Z" fill="white"/>
</g>
</svg>
