<svg width="40" height="40" viewBox="0 0 40 40" fill="none" xmlns="http://www.w3.org/2000/svg">
<path d="M10.1261 13.387C12.2587 10.2044 15.8783 8.09783 20 8.09783C26.0502 8.09783 31.0452 12.6109 31.8028 18.4545C31.9127 19.3028 32.5957 20 33.4512 20C34.3065 20 35.0083 19.3045 34.9212 18.4535C34.1468 10.8971 27.7605 5 20 5C15.0239 5 10.6283 7.4326 7.89565 11.1565L6.42258 9.68347C5.89762 9.15848 5 9.5303 5 10.2727V15.2536C5 15.7139 5.3731 16.087 5.83333 16.087H10.8142C11.5567 16.087 11.9285 15.1893 11.4035 14.6644L10.1261 13.387ZM29.8738 26.613C27.7413 29.7957 24.1217 31.9022 20 31.9022C13.9498 31.9022 8.95475 27.3892 8.19723 21.5455C8.08725 20.6972 7.40435 20 6.54892 20C5.69347 20 4.99158 20.6955 5.0788 21.5465C5.85315 29.1028 12.2395 35 20 35C24.9762 35 29.3717 32.5673 32.1043 28.8435L33.5773 30.3165C34.1023 30.8415 35 30.4697 35 29.7273V24.7463C35 24.2862 34.6268 23.913 34.1667 23.913H29.1858C28.4433 23.913 28.0715 24.8107 28.5965 25.3357L29.8738 26.613Z" fill="#CEB071"/>
</svg>
